<?xml version="1.0" encoding="utf-8" standalone="no"?>
<!DOCTYPE svg PUBLIC "-//W3C//DTD SVG 1.1//EN"
  "http://www.w3.org/Graphics/SVG/1.1/DTD/svg11.dtd">
<!-- Created with matplotlib (https://matplotlib.org/) -->
<svg height="216pt" version="1.1" viewBox="0 0 504 216" width="504pt" xmlns="http://www.w3.org/2000/svg" xmlns:xlink="http://www.w3.org/1999/xlink">
 <defs>
  <style type="text/css">
*{stroke-linecap:butt;stroke-linejoin:round;}
  </style>
 </defs>
 <g id="figure_1">
  <g id="patch_1">
   <path d="M 0 216 
L 504 216 
L 504 0 
L 0 0 
z
" style="fill:#ffffff;"/>
  </g>
  <g id="axes_1">
   <g id="patch_2">
    <path d="M 55.44 145.8 
L 143.429298 145.8 
L 143.429298 0 
L 55.44 0 
z
" style="fill:#ffffff;"/>
   </g>
   <g id="matplotlib.axis_1">
    <g id="xtick_1">
     <g id="line2d_1">
      <defs>
       <path d="M 0 0 
L 0 3.5 
" id="m319fb6f2b7" style="stroke:#000000;stroke-width:0.8;"/>
      </defs>
      <g>
       <use style="stroke:#000000;stroke-width:0.8;" x="70.104883" xlink:href="#m319fb6f2b7" y="145.8"/>
      </g>
     </g>
     <g id="text_1">
      <!--      Pin1 -->
      <defs>
       <path id="DejaVuSans-32"/>
       <path d="M 19.671875 64.796875 
L 19.671875 37.40625 
L 32.078125 37.40625 
Q 38.96875 37.40625 42.71875 40.96875 
Q 46.484375 44.53125 46.484375 51.125 
Q 46.484375 57.671875 42.71875 61.234375 
Q 38.96875 64.796875 32.078125 64.796875 
z
M 9.8125 72.90625 
L 32.078125 72.90625 
Q 44.34375 72.90625 50.609375 67.359375 
Q 56.890625 61.8125 56.890625 51.125 
Q 56.890625 40.328125 50.609375 34.8125 
Q 44.34375 29.296875 32.078125 29.296875 
L 19.671875 29.296875 
L 19.671875 0 
L 9.8125 0 
z
" id="DejaVuSans-80"/>
       <path d="M 9.421875 54.6875 
L 18.40625 54.6875 
L 18.40625 0 
L 9.421875 0 
z
M 9.421875 75.984375 
L 18.40625 75.984375 
L 18.40625 64.59375 
L 9.421875 64.59375 
z
" id="DejaVuSans-105"/>
       <path d="M 54.890625 33.015625 
L 54.890625 0 
L 45.90625 0 
L 45.90625 32.71875 
Q 45.90625 40.484375 42.875 44.328125 
Q 39.84375 48.1875 33.796875 48.1875 
Q 26.515625 48.1875 22.3125 43.546875 
Q 18.109375 38.921875 18.109375 30.90625 
L 18.109375 0 
L 9.078125 0 
L 9.078125 54.6875 
L 18.109375 54.6875 
L 18.109375 46.1875 
Q 21.34375 51.125 25.703125 53.5625 
Q 30.078125 56 35.796875 56 
Q 45.21875 56 50.046875 50.171875 
Q 54.890625 44.34375 54.890625 33.015625 
z
" id="DejaVuSans-110"/>
       <path d="M 12.40625 8.296875 
L 28.515625 8.296875 
L 28.515625 63.921875 
L 10.984375 60.40625 
L 10.984375 69.390625 
L 28.421875 72.90625 
L 38.28125 72.90625 
L 38.28125 8.296875 
L 54.390625 8.296875 
L 54.390625 0 
L 12.40625 0 
z
" id="DejaVuSans-49"/>
      </defs>
      <g transform="translate(72.864258 189.973438)rotate(-90)scale(0.1 -0.1)">
       <use xlink:href="#DejaVuSans-32"/>
       <use x="31.787109" xlink:href="#DejaVuSans-32"/>
       <use x="63.574219" xlink:href="#DejaVuSans-32"/>
       <use x="95.361328" xlink:href="#DejaVuSans-32"/>
       <use x="127.148438" xlink:href="#DejaVuSans-32"/>
       <use x="158.935547" xlink:href="#DejaVuSans-80"/>
       <use x="216.988281" xlink:href="#DejaVuSans-105"/>
       <use x="244.771484" xlink:href="#DejaVuSans-110"/>
       <use x="308.150391" xlink:href="#DejaVuSans-49"/>
      </g>
     </g>
    </g>
    <g id="xtick_2">
     <g id="line2d_2">
      <g>
       <use style="stroke:#000000;stroke-width:0.8;" x="99.434649" xlink:href="#m319fb6f2b7" y="145.8"/>
      </g>
     </g>
     <g id="text_2">
      <!--    hYAP65 -->
      <defs>
       <path d="M 54.890625 33.015625 
L 54.890625 0 
L 45.90625 0 
L 45.90625 32.71875 
Q 45.90625 40.484375 42.875 44.328125 
Q 39.84375 48.1875 33.796875 48.1875 
Q 26.515625 48.1875 22.3125 43.546875 
Q 18.109375 38.921875 18.109375 30.90625 
L 18.109375 0 
L 9.078125 0 
L 9.078125 75.984375 
L 18.109375 75.984375 
L 18.109375 46.1875 
Q 21.34375 51.125 25.703125 53.5625 
Q 30.078125 56 35.796875 56 
Q 45.21875 56 50.046875 50.171875 
Q 54.890625 44.34375 54.890625 33.015625 
z
" id="DejaVuSans-104"/>
       <path d="M -0.203125 72.90625 
L 10.40625 72.90625 
L 30.609375 42.921875 
L 50.6875 72.90625 
L 61.28125 72.90625 
L 35.5 34.71875 
L 35.5 0 
L 25.59375 0 
L 25.59375 34.71875 
z
" id="DejaVuSans-89"/>
       <path d="M 34.1875 63.1875 
L 20.796875 26.90625 
L 47.609375 26.90625 
z
M 28.609375 72.90625 
L 39.796875 72.90625 
L 67.578125 0 
L 57.328125 0 
L 50.6875 18.703125 
L 17.828125 18.703125 
L 11.1875 0 
L 0.78125 0 
z
" id="DejaVuSans-65"/>
       <path d="M 33.015625 40.375 
Q 26.375 40.375 22.484375 35.828125 
Q 18.609375 31.296875 18.609375 23.390625 
Q 18.609375 15.53125 22.484375 10.953125 
Q 26.375 6.390625 33.015625 6.390625 
Q 39.65625 6.390625 43.53125 10.953125 
Q 47.40625 15.53125 47.40625 23.390625 
Q 47.40625 31.296875 43.53125 35.828125 
Q 39.65625 40.375 33.015625 40.375 
z
M 52.59375 71.296875 
L 52.59375 62.3125 
Q 48.875 64.0625 45.09375 64.984375 
Q 41.3125 65.921875 37.59375 65.921875 
Q 27.828125 65.921875 22.671875 59.328125 
Q 17.53125 52.734375 16.796875 39.40625 
Q 19.671875 43.65625 24.015625 45.921875 
Q 28.375 48.1875 33.59375 48.1875 
Q 44.578125 48.1875 50.953125 41.515625 
Q 57.328125 34.859375 57.328125 23.390625 
Q 57.328125 12.15625 50.6875 5.359375 
Q 44.046875 -1.421875 33.015625 -1.421875 
Q 20.359375 -1.421875 13.671875 8.265625 
Q 6.984375 17.96875 6.984375 36.375 
Q 6.984375 53.65625 15.1875 63.9375 
Q 23.390625 74.21875 37.203125 74.21875 
Q 40.921875 74.21875 44.703125 73.484375 
Q 48.484375 72.75 52.59375 71.296875 
z
" id="DejaVuSans-54"/>
       <path d="M 10.796875 72.90625 
L 49.515625 72.90625 
L 49.515625 64.59375 
L 19.828125 64.59375 
L 19.828125 46.734375 
Q 21.96875 47.46875 24.109375 47.828125 
Q 26.265625 48.1875 28.421875 48.1875 
Q 40.625 48.1875 47.75 41.5 
Q 54.890625 34.8125 54.890625 23.390625 
Q 54.890625 11.625 47.5625 5.09375 
Q 40.234375 -1.421875 26.90625 -1.421875 
Q 22.3125 -1.421875 17.546875 -0.640625 
Q 12.796875 0.140625 7.71875 1.703125 
L 7.71875 11.625 
Q 12.109375 9.234375 16.796875 8.0625 
Q 21.484375 6.890625 26.703125 6.890625 
Q 35.15625 6.890625 40.078125 11.328125 
Q 45.015625 15.765625 45.015625 23.390625 
Q 45.015625 31 40.078125 35.4375 
Q 35.15625 39.890625 26.703125 39.890625 
Q 22.75 39.890625 18.8125 39.015625 
Q 14.890625 38.140625 10.796875 36.28125 
z
" id="DejaVuSans-53"/>
      </defs>
      <g transform="translate(102.194024 199.6)rotate(-90)scale(0.1 -0.1)">
       <use xlink:href="#DejaVuSans-32"/>
       <use x="31.787109" xlink:href="#DejaVuSans-32"/>
       <use x="63.574219" xlink:href="#DejaVuSans-32"/>
       <use x="95.361328" xlink:href="#DejaVuSans-104"/>
       <use x="158.740234" xlink:href="#DejaVuSans-89"/>
       <use x="212.074219" xlink:href="#DejaVuSans-65"/>
       <use x="280.482422" xlink:href="#DejaVuSans-80"/>
       <use x="340.785156" xlink:href="#DejaVuSans-54"/>
       <use x="404.408203" xlink:href="#DejaVuSans-53"/>
      </g>
     </g>
    </g>
    <g id="xtick_3">
     <g id="line2d_3">
      <g>
       <use style="stroke:#000000;stroke-width:0.8;" x="128.764415" xlink:href="#m319fb6f2b7" y="145.8"/>
      </g>
     </g>
     <g id="text_3">
      <!--    villin -->
      <defs>
       <path d="M 2.984375 54.6875 
L 12.5 54.6875 
L 29.59375 8.796875 
L 46.6875 54.6875 
L 56.203125 54.6875 
L 35.6875 0 
L 23.484375 0 
z
" id="DejaVuSans-118"/>
       <path d="M 9.421875 75.984375 
L 18.40625 75.984375 
L 18.40625 0 
L 9.421875 0 
z
" id="DejaVuSans-108"/>
      </defs>
      <g transform="translate(131.52379 185.703125)rotate(-90)scale(0.1 -0.1)">
       <use xlink:href="#DejaVuSans-32"/>
       <use x="31.787109" xlink:href="#DejaVuSans-32"/>
       <use x="63.574219" xlink:href="#DejaVuSans-32"/>
       <use x="95.361328" xlink:href="#DejaVuSans-118"/>
       <use x="154.541016" xlink:href="#DejaVuSans-105"/>
       <use x="182.324219" xlink:href="#DejaVuSans-108"/>
       <use x="210.107422" xlink:href="#DejaVuSans-108"/>
       <use x="237.890625" xlink:href="#DejaVuSans-105"/>
       <use x="265.673828" xlink:href="#DejaVuSans-110"/>
      </g>
     </g>
    </g>
    <g id="text_4">
     <!-- Known -->
     <defs>
      <path d="M 9.8125 72.90625 
L 19.671875 72.90625 
L 19.671875 42.09375 
L 52.390625 72.90625 
L 65.09375 72.90625 
L 28.90625 38.921875 
L 67.671875 0 
L 54.6875 0 
L 19.671875 35.109375 
L 19.671875 0 
L 9.8125 0 
z
" id="DejaVuSans-75"/>
      <path d="M 30.609375 48.390625 
Q 23.390625 48.390625 19.1875 42.75 
Q 14.984375 37.109375 14.984375 27.296875 
Q 14.984375 17.484375 19.15625 11.84375 
Q 23.34375 6.203125 30.609375 6.203125 
Q 37.796875 6.203125 41.984375 11.859375 
Q 46.1875 17.53125 46.1875 27.296875 
Q 46.1875 37.015625 41.984375 42.703125 
Q 37.796875 48.390625 30.609375 48.390625 
z
M 30.609375 56 
Q 42.328125 56 49.015625 48.375 
Q 55.71875 40.765625 55.71875 27.296875 
Q 55.71875 13.875 49.015625 6.21875 
Q 42.328125 -1.421875 30.609375 -1.421875 
Q 18.84375 -1.421875 12.171875 6.21875 
Q 5.515625 13.875 5.515625 27.296875 
Q 5.515625 40.765625 12.171875 48.375 
Q 18.84375 56 30.609375 56 
z
" id="DejaVuSans-111"/>
      <path d="M 4.203125 54.6875 
L 13.1875 54.6875 
L 24.421875 12.015625 
L 35.59375 54.6875 
L 46.1875 54.6875 
L 57.421875 12.015625 
L 68.609375 54.6875 
L 77.59375 54.6875 
L 63.28125 0 
L 52.6875 0 
L 40.921875 44.828125 
L 29.109375 0 
L 18.5 0 
z
" id="DejaVuSans-119"/>
     </defs>
     <g transform="translate(82.669805 211.198438)scale(0.1 -0.1)">
      <use xlink:href="#DejaVuSans-75"/>
      <use x="65.576172" xlink:href="#DejaVuSans-110"/>
      <use x="128.955078" xlink:href="#DejaVuSans-111"/>
      <use x="190.136719" xlink:href="#DejaVuSans-119"/>
      <use x="271.923828" xlink:href="#DejaVuSans-110"/>
     </g>
    </g>
   </g>
   <g id="matplotlib.axis_2">
    <g id="ytick_1">
     <g id="line2d_4">
      <path clip-path="url(#p94c4b5c449)" d="M 55.44 136.6875 
L 143.429298 136.6875 
" style="fill:none;stroke:#b0b0b0;stroke-dasharray:0.8,1.32;stroke-dashoffset:0;stroke-width:0.8;"/>
     </g>
     <g id="text_5">
      <!-- 0.0 -->
      <defs>
       <path d="M 31.78125 66.40625 
Q 24.171875 66.40625 20.328125 58.90625 
Q 16.5 51.421875 16.5 36.375 
Q 16.5 21.390625 20.328125 13.890625 
Q 24.171875 6.390625 31.78125 6.390625 
Q 39.453125 6.390625 43.28125 13.890625 
Q 47.125 21.390625 47.125 36.375 
Q 47.125 51.421875 43.28125 58.90625 
Q 39.453125 66.40625 31.78125 66.40625 
z
M 31.78125 74.21875 
Q 44.046875 74.21875 50.515625 64.515625 
Q 56.984375 54.828125 56.984375 36.375 
Q 56.984375 17.96875 50.515625 8.265625 
Q 44.046875 -1.421875 31.78125 -1.421875 
Q 19.53125 -1.421875 13.0625 8.265625 
Q 6.59375 17.96875 6.59375 36.375 
Q 6.59375 54.828125 13.0625 64.515625 
Q 19.53125 74.21875 31.78125 74.21875 
z
" id="DejaVuSans-48"/>
       <path d="M 10.6875 12.40625 
L 21 12.40625 
L 21 0 
L 10.6875 0 
z
" id="DejaVuSans-46"/>
      </defs>
      <g transform="translate(32.536875 140.486719)scale(0.1 -0.1)">
       <use xlink:href="#DejaVuSans-48"/>
       <use x="63.623047" xlink:href="#DejaVuSans-46"/>
       <use x="95.410156" xlink:href="#DejaVuSans-48"/>
      </g>
     </g>
    </g>
    <g id="ytick_2">
     <g id="line2d_5">
      <path clip-path="url(#p94c4b5c449)" d="M 55.44 118.4625 
L 143.429298 118.4625 
" style="fill:none;stroke:#b0b0b0;stroke-dasharray:0.8,1.32;stroke-dashoffset:0;stroke-width:0.8;"/>
     </g>
     <g id="text_6">
      <!-- 0.1 -->
      <g transform="translate(32.536875 122.261719)scale(0.1 -0.1)">
       <use xlink:href="#DejaVuSans-48"/>
       <use x="63.623047" xlink:href="#DejaVuSans-46"/>
       <use x="95.410156" xlink:href="#DejaVuSans-49"/>
      </g>
     </g>
    </g>
    <g id="ytick_3">
     <g id="line2d_6">
      <path clip-path="url(#p94c4b5c449)" d="M 55.44 100.2375 
L 143.429298 100.2375 
" style="fill:none;stroke:#b0b0b0;stroke-dasharray:0.8,1.32;stroke-dashoffset:0;stroke-width:0.8;"/>
     </g>
     <g id="text_7">
      <!-- 0.2 -->
      <defs>
       <path d="M 19.1875 8.296875 
L 53.609375 8.296875 
L 53.609375 0 
L 7.328125 0 
L 7.328125 8.296875 
Q 12.9375 14.109375 22.625 23.890625 
Q 32.328125 33.6875 34.8125 36.53125 
Q 39.546875 41.84375 41.421875 45.53125 
Q 43.3125 49.21875 43.3125 52.78125 
Q 43.3125 58.59375 39.234375 62.25 
Q 35.15625 65.921875 28.609375 65.921875 
Q 23.96875 65.921875 18.8125 64.3125 
Q 13.671875 62.703125 7.8125 59.421875 
L 7.8125 69.390625 
Q 13.765625 71.78125 18.9375 73 
Q 24.125 74.21875 28.421875 74.21875 
Q 39.75 74.21875 46.484375 68.546875 
Q 53.21875 62.890625 53.21875 53.421875 
Q 53.21875 48.921875 51.53125 44.890625 
Q 49.859375 40.875 45.40625 35.40625 
Q 44.1875 33.984375 37.640625 27.21875 
Q 31.109375 20.453125 19.1875 8.296875 
z
" id="DejaVuSans-50"/>
      </defs>
      <g transform="translate(32.536875 104.036719)scale(0.1 -0.1)">
       <use xlink:href="#DejaVuSans-48"/>
       <use x="63.623047" xlink:href="#DejaVuSans-46"/>
       <use x="95.410156" xlink:href="#DejaVuSans-50"/>
      </g>
     </g>
    </g>
    <g id="ytick_4">
     <g id="line2d_7">
      <path clip-path="url(#p94c4b5c449)" d="M 55.44 82.0125 
L 143.429298 82.0125 
" style="fill:none;stroke:#b0b0b0;stroke-dasharray:0.8,1.32;stroke-dashoffset:0;stroke-width:0.8;"/>
     </g>
     <g id="text_8">
      <!-- 0.3 -->
      <defs>
       <path d="M 40.578125 39.3125 
Q 47.65625 37.796875 51.625 33 
Q 55.609375 28.21875 55.609375 21.1875 
Q 55.609375 10.40625 48.1875 4.484375 
Q 40.765625 -1.421875 27.09375 -1.421875 
Q 22.515625 -1.421875 17.65625 -0.515625 
Q 12.796875 0.390625 7.625 2.203125 
L 7.625 11.71875 
Q 11.71875 9.328125 16.59375 8.109375 
Q 21.484375 6.890625 26.8125 6.890625 
Q 36.078125 6.890625 40.9375 10.546875 
Q 45.796875 14.203125 45.796875 21.1875 
Q 45.796875 27.640625 41.28125 31.265625 
Q 36.765625 34.90625 28.71875 34.90625 
L 20.21875 34.90625 
L 20.21875 43.015625 
L 29.109375 43.015625 
Q 36.375 43.015625 40.234375 45.921875 
Q 44.09375 48.828125 44.09375 54.296875 
Q 44.09375 59.90625 40.109375 62.90625 
Q 36.140625 65.921875 28.71875 65.921875 
Q 24.65625 65.921875 20.015625 65.03125 
Q 15.375 64.15625 9.8125 62.3125 
L 9.8125 71.09375 
Q 15.4375 72.65625 20.34375 73.4375 
Q 25.25 74.21875 29.59375 74.21875 
Q 40.828125 74.21875 47.359375 69.109375 
Q 53.90625 64.015625 53.90625 55.328125 
Q 53.90625 49.265625 50.4375 45.09375 
Q 46.96875 40.921875 40.578125 39.3125 
z
" id="DejaVuSans-51"/>
      </defs>
      <g transform="translate(32.536875 85.811719)scale(0.1 -0.1)">
       <use xlink:href="#DejaVuSans-48"/>
       <use x="63.623047" xlink:href="#DejaVuSans-46"/>
       <use x="95.410156" xlink:href="#DejaVuSans-51"/>
      </g>
     </g>
    </g>
    <g id="ytick_5">
     <g id="line2d_8">
      <path clip-path="url(#p94c4b5c449)" d="M 55.44 63.7875 
L 143.429298 63.7875 
" style="fill:none;stroke:#b0b0b0;stroke-dasharray:0.8,1.32;stroke-dashoffset:0;stroke-width:0.8;"/>
     </g>
     <g id="text_9">
      <!-- 0.4 -->
      <defs>
       <path d="M 37.796875 64.3125 
L 12.890625 25.390625 
L 37.796875 25.390625 
z
M 35.203125 72.90625 
L 47.609375 72.90625 
L 47.609375 25.390625 
L 58.015625 25.390625 
L 58.015625 17.1875 
L 47.609375 17.1875 
L 47.609375 0 
L 37.796875 0 
L 37.796875 17.1875 
L 4.890625 17.1875 
L 4.890625 26.703125 
z
" id="DejaVuSans-52"/>
      </defs>
      <g transform="translate(32.536875 67.586719)scale(0.1 -0.1)">
       <use xlink:href="#DejaVuSans-48"/>
       <use x="63.623047" xlink:href="#DejaVuSans-46"/>
       <use x="95.410156" xlink:href="#DejaVuSans-52"/>
      </g>
     </g>
    </g>
    <g id="ytick_6">
     <g id="line2d_9">
      <path clip-path="url(#p94c4b5c449)" d="M 55.44 45.5625 
L 143.429298 45.5625 
" style="fill:none;stroke:#b0b0b0;stroke-dasharray:0.8,1.32;stroke-dashoffset:0;stroke-width:0.8;"/>
     </g>
     <g id="text_10">
      <!-- 0.5 -->
      <g transform="translate(32.536875 49.361719)scale(0.1 -0.1)">
       <use xlink:href="#DejaVuSans-48"/>
       <use x="63.623047" xlink:href="#DejaVuSans-46"/>
       <use x="95.410156" xlink:href="#DejaVuSans-53"/>
      </g>
     </g>
    </g>
    <g id="ytick_7">
     <g id="line2d_10">
      <path clip-path="url(#p94c4b5c449)" d="M 55.44 27.3375 
L 143.429298 27.3375 
" style="fill:none;stroke:#b0b0b0;stroke-dasharray:0.8,1.32;stroke-dashoffset:0;stroke-width:0.8;"/>
     </g>
     <g id="text_11">
      <!-- 0.6 -->
      <g transform="translate(32.536875 31.136719)scale(0.1 -0.1)">
       <use xlink:href="#DejaVuSans-48"/>
       <use x="63.623047" xlink:href="#DejaVuSans-46"/>
       <use x="95.410156" xlink:href="#DejaVuSans-54"/>
      </g>
     </g>
    </g>
    <g id="ytick_8">
     <g id="line2d_11">
      <path clip-path="url(#p94c4b5c449)" d="M 55.44 9.1125 
L 143.429298 9.1125 
" style="fill:none;stroke:#b0b0b0;stroke-dasharray:0.8,1.32;stroke-dashoffset:0;stroke-width:0.8;"/>
     </g>
     <g id="text_12">
      <!-- 0.7 -->
      <defs>
       <path d="M 8.203125 72.90625 
L 55.078125 72.90625 
L 55.078125 68.703125 
L 28.609375 0 
L 18.3125 0 
L 43.21875 64.59375 
L 8.203125 64.59375 
z
" id="DejaVuSans-55"/>
      </defs>
      <g transform="translate(32.536875 12.911719)scale(0.1 -0.1)">
       <use xlink:href="#DejaVuSans-48"/>
       <use x="63.623047" xlink:href="#DejaVuSans-46"/>
       <use x="95.410156" xlink:href="#DejaVuSans-55"/>
      </g>
     </g>
    </g>
    <g id="text_13">
     <!-- Spearman's Ï -->
     <defs>
      <path d="M 53.515625 70.515625 
L 53.515625 60.890625 
Q 47.90625 63.578125 42.921875 64.890625 
Q 37.9375 66.21875 33.296875 66.21875 
Q 25.25 66.21875 20.875 63.09375 
Q 16.5 59.96875 16.5 54.203125 
Q 16.5 49.359375 19.40625 46.890625 
Q 22.3125 44.4375 30.421875 42.921875 
L 36.375 41.703125 
Q 47.40625 39.59375 52.65625 34.296875 
Q 57.90625 29 57.90625 20.125 
Q 57.90625 9.515625 50.796875 4.046875 
Q 43.703125 -1.421875 29.984375 -1.421875 
Q 24.8125 -1.421875 18.96875 -0.25 
Q 13.140625 0.921875 6.890625 3.21875 
L 6.890625 13.375 
Q 12.890625 10.015625 18.65625 8.296875 
Q 24.421875 6.59375 29.984375 6.59375 
Q 38.421875 6.59375 43.015625 9.90625 
Q 47.609375 13.234375 47.609375 19.390625 
Q 47.609375 24.75 44.3125 27.78125 
Q 41.015625 30.8125 33.5 32.328125 
L 27.484375 33.5 
Q 16.453125 35.6875 11.515625 40.375 
Q 6.59375 45.0625 6.59375 53.421875 
Q 6.59375 63.09375 13.40625 68.65625 
Q 20.21875 74.21875 32.171875 74.21875 
Q 37.3125 74.21875 42.625 73.28125 
Q 47.953125 72.359375 53.515625 70.515625 
z
" id="DejaVuSans-83"/>
      <path d="M 18.109375 8.203125 
L 18.109375 -20.796875 
L 9.078125 -20.796875 
L 9.078125 54.6875 
L 18.109375 54.6875 
L 18.109375 46.390625 
Q 20.953125 51.265625 25.265625 53.625 
Q 29.59375 56 35.59375 56 
Q 45.5625 56 51.78125 48.09375 
Q 58.015625 40.1875 58.015625 27.296875 
Q 58.015625 14.40625 51.78125 6.484375 
Q 45.5625 -1.421875 35.59375 -1.421875 
Q 29.59375 -1.421875 25.265625 0.953125 
Q 20.953125 3.328125 18.109375 8.203125 
z
M 48.6875 27.296875 
Q 48.6875 37.203125 44.609375 42.84375 
Q 40.53125 48.484375 33.40625 48.484375 
Q 26.265625 48.484375 22.1875 42.84375 
Q 18.109375 37.203125 18.109375 27.296875 
Q 18.109375 17.390625 22.1875 11.75 
Q 26.265625 6.109375 33.40625 6.109375 
Q 40.53125 6.109375 44.609375 11.75 
Q 48.6875 17.390625 48.6875 27.296875 
z
" id="DejaVuSans-112"/>
      <path d="M 56.203125 29.59375 
L 56.203125 25.203125 
L 14.890625 25.203125 
Q 15.484375 15.921875 20.484375 11.0625 
Q 25.484375 6.203125 34.421875 6.203125 
Q 39.59375 6.203125 44.453125 7.46875 
Q 49.3125 8.734375 54.109375 11.28125 
L 54.109375 2.78125 
Q 49.265625 0.734375 44.1875 -0.34375 
Q 39.109375 -1.421875 33.890625 -1.421875 
Q 20.796875 -1.421875 13.15625 6.1875 
Q 5.515625 13.8125 5.515625 26.8125 
Q 5.515625 40.234375 12.765625 48.109375 
Q 20.015625 56 32.328125 56 
Q 43.359375 56 49.78125 48.890625 
Q 56.203125 41.796875 56.203125 29.59375 
z
M 47.21875 32.234375 
Q 47.125 39.59375 43.09375 43.984375 
Q 39.0625 48.390625 32.421875 48.390625 
Q 24.90625 48.390625 20.390625 44.140625 
Q 15.875 39.890625 15.1875 32.171875 
z
" id="DejaVuSans-101"/>
      <path d="M 34.28125 27.484375 
Q 23.390625 27.484375 19.1875 25 
Q 14.984375 22.515625 14.984375 16.5 
Q 14.984375 11.71875 18.140625 8.90625 
Q 21.296875 6.109375 26.703125 6.109375 
Q 34.1875 6.109375 38.703125 11.40625 
Q 43.21875 16.703125 43.21875 25.484375 
L 43.21875 27.484375 
z
M 52.203125 31.203125 
L 52.203125 0 
L 43.21875 0 
L 43.21875 8.296875 
Q 40.140625 3.328125 35.546875 0.953125 
Q 30.953125 -1.421875 24.3125 -1.421875 
Q 15.921875 -1.421875 10.953125 3.296875 
Q 6 8.015625 6 15.921875 
Q 6 25.140625 12.171875 29.828125 
Q 18.359375 34.515625 30.609375 34.515625 
L 43.21875 34.515625 
L 43.21875 35.40625 
Q 43.21875 41.609375 39.140625 45 
Q 35.0625 48.390625 27.6875 48.390625 
Q 23 48.390625 18.546875 47.265625 
Q 14.109375 46.140625 10.015625 43.890625 
L 10.015625 52.203125 
Q 14.9375 54.109375 19.578125 55.046875 
Q 24.21875 56 28.609375 56 
Q 40.484375 56 46.34375 49.84375 
Q 52.203125 43.703125 52.203125 31.203125 
z
" id="DejaVuSans-97"/>
      <path d="M 41.109375 46.296875 
Q 39.59375 47.171875 37.8125 47.578125 
Q 36.03125 48 33.890625 48 
Q 26.265625 48 22.1875 43.046875 
Q 18.109375 38.09375 18.109375 28.8125 
L 18.109375 0 
L 9.078125 0 
L 9.078125 54.6875 
L 18.109375 54.6875 
L 18.109375 46.1875 
Q 20.953125 51.171875 25.484375 53.578125 
Q 30.03125 56 36.53125 56 
Q 37.453125 56 38.578125 55.875 
Q 39.703125 55.765625 41.0625 55.515625 
z
" id="DejaVuSans-114"/>
      <path d="M 52 44.1875 
Q 55.375 50.25 60.0625 53.125 
Q 64.75 56 71.09375 56 
Q 79.640625 56 84.28125 50.015625 
Q 88.921875 44.046875 88.921875 33.015625 
L 88.921875 0 
L 79.890625 0 
L 79.890625 32.71875 
Q 79.890625 40.578125 77.09375 44.375 
Q 74.3125 48.1875 68.609375 48.1875 
Q 61.625 48.1875 57.5625 43.546875 
Q 53.515625 38.921875 53.515625 30.90625 
L 53.515625 0 
L 44.484375 0 
L 44.484375 32.71875 
Q 44.484375 40.625 41.703125 44.40625 
Q 38.921875 48.1875 33.109375 48.1875 
Q 26.21875 48.1875 22.15625 43.53125 
Q 18.109375 38.875 18.109375 30.90625 
L 18.109375 0 
L 9.078125 0 
L 9.078125 54.6875 
L 18.109375 54.6875 
L 18.109375 46.1875 
Q 21.1875 51.21875 25.484375 53.609375 
Q 29.78125 56 35.6875 56 
Q 41.65625 56 45.828125 52.96875 
Q 50 49.953125 52 44.1875 
z
" id="DejaVuSans-109"/>
      <path d="M 17.921875 72.90625 
L 17.921875 45.796875 
L 9.625 45.796875 
L 9.625 72.90625 
z
" id="DejaVuSans-39"/>
      <path d="M 44.28125 53.078125 
L 44.28125 44.578125 
Q 40.484375 46.53125 36.375 47.5 
Q 32.28125 48.484375 27.875 48.484375 
Q 21.1875 48.484375 17.84375 46.4375 
Q 14.5 44.390625 14.5 40.28125 
Q 14.5 37.15625 16.890625 35.375 
Q 19.28125 33.59375 26.515625 31.984375 
L 29.59375 31.296875 
Q 39.15625 29.25 43.1875 25.515625 
Q 47.21875 21.78125 47.21875 15.09375 
Q 47.21875 7.46875 41.1875 3.015625 
Q 35.15625 -1.421875 24.609375 -1.421875 
Q 20.21875 -1.421875 15.453125 -0.5625 
Q 10.6875 0.296875 5.421875 2 
L 5.421875 11.28125 
Q 10.40625 8.6875 15.234375 7.390625 
Q 20.0625 6.109375 24.8125 6.109375 
Q 31.15625 6.109375 34.5625 8.28125 
Q 37.984375 10.453125 37.984375 14.40625 
Q 37.984375 18.0625 35.515625 20.015625 
Q 33.0625 21.96875 24.703125 23.78125 
L 21.578125 24.515625 
Q 13.234375 26.265625 9.515625 29.90625 
Q 5.8125 33.546875 5.8125 39.890625 
Q 5.8125 47.609375 11.28125 51.796875 
Q 16.75 56 26.8125 56 
Q 31.78125 56 36.171875 55.265625 
Q 40.578125 54.546875 44.28125 53.078125 
z
" id="DejaVuSans-115"/>
      <path d="M 13.484375 44.921875 
Q 16.453125 49.90625 23.828125 54.296875 
Q 26.703125 56 35.59375 56 
Q 45.5625 56 51.78125 48.09375 
Q 58.015625 40.1875 58.015625 27.296875 
Q 58.015625 14.40625 51.78125 6.484375 
Q 45.5625 -1.421875 35.59375 -1.421875 
Q 29.59375 -1.421875 25.265625 0.953125 
Q 20.953125 3.328125 18.109375 8.203125 
L 18.109375 -20.796875 
L 9.078125 -20.796875 
L 9.078125 26.8125 
Q 9.078125 38.09375 13.484375 44.921875 
z
M 48.6875 27.296875 
Q 48.6875 37.203125 44.609375 42.84375 
Q 40.53125 48.484375 33.40625 48.484375 
Q 26.265625 48.484375 22.1875 42.84375 
Q 18.109375 37.203125 18.109375 27.296875 
Q 18.109375 17.390625 22.1875 11.75 
Q 26.265625 6.109375 33.40625 6.109375 
Q 40.53125 6.109375 44.609375 11.75 
Q 48.6875 17.390625 48.6875 27.296875 
z
" id="DejaVuSans-961"/>
     </defs>
     <g transform="translate(26.457187 107.202344)rotate(-90)scale(0.1 -0.1)">
      <use xlink:href="#DejaVuSans-83"/>
      <use x="63.476562" xlink:href="#DejaVuSans-112"/>
      <use x="126.953125" xlink:href="#DejaVuSans-101"/>
      <use x="188.476562" xlink:href="#DejaVuSans-97"/>
      <use x="249.755859" xlink:href="#DejaVuSans-114"/>
      <use x="289.119141" xlink:href="#DejaVuSans-109"/>
      <use x="386.53125" xlink:href="#DejaVuSans-97"/>
      <use x="447.810547" xlink:href="#DejaVuSans-110"/>
      <use x="511.189453" xlink:href="#DejaVuSans-39"/>
      <use x="538.679688" xlink:href="#DejaVuSans-115"/>
      <use x="590.779297" xlink:href="#DejaVuSans-32"/>
      <use x="622.566406" xlink:href="#DejaVuSans-961"/>
     </g>
    </g>
   </g>
   <g id="LineCollection_1">
    <path clip-path="url(#p94c4b5c449)" d="M 62.772441 74.301447 
L 62.772441 54.492397 
" style="fill:none;stroke:#1f77b4;stroke-width:1.5;"/>
    <path clip-path="url(#p94c4b5c449)" d="M 92.102207 54.401693 
L 92.102207 39.057056 
" style="fill:none;stroke:#1f77b4;stroke-width:1.5;"/>
    <path clip-path="url(#p94c4b5c449)" d="M 121.431973 34.822329 
L 121.431973 19.331332 
" style="fill:none;stroke:#1f77b4;stroke-width:1.5;"/>
   </g>
   <g id="LineCollection_2">
    <path clip-path="url(#p94c4b5c449)" d="M 67.660736 110.848697 
L 67.660736 87.977175 
" style="fill:none;stroke:#ff7f0e;stroke-width:1.5;"/>
    <path clip-path="url(#p94c4b5c449)" d="M 96.990502 111.105192 
L 96.990502 90.529078 
" style="fill:none;stroke:#ff7f0e;stroke-width:1.5;"/>
    <path clip-path="url(#p94c4b5c449)" d="M 126.320268 117.166053 
L 126.320268 93.347812 
" style="fill:none;stroke:#ff7f0e;stroke-width:1.5;"/>
   </g>
   <g id="LineCollection_3">
    <path clip-path="url(#p94c4b5c449)" d="M 72.54903 94.117935 
L 72.54903 72.303343 
" style="fill:none;stroke:#2ca02c;stroke-width:1.5;"/>
    <path clip-path="url(#p94c4b5c449)" d="M 101.878796 83.37031 
L 101.878796 63.981961 
" style="fill:none;stroke:#2ca02c;stroke-width:1.5;"/>
    <path clip-path="url(#p94c4b5c449)" d="M 131.208562 39.74771 
L 131.208562 22.811192 
" style="fill:none;stroke:#2ca02c;stroke-width:1.5;"/>
   </g>
   <g id="LineCollection_4">
    <path clip-path="url(#p94c4b5c449)" d="M 77.437324 65.134124 
L 77.437324 44.750106 
" style="fill:none;stroke:#d62728;stroke-width:1.5;"/>
    <path clip-path="url(#p94c4b5c449)" d="M 106.76709 64.766441 
L 106.76709 46.785384 
" style="fill:none;stroke:#d62728;stroke-width:1.5;"/>
    <path clip-path="url(#p94c4b5c449)" d="M 136.096856 32.980607 
L 136.096856 16.170051 
" style="fill:none;stroke:#d62728;stroke-width:1.5;"/>
   </g>
   <g id="LineCollection_5">
    <path clip-path="url(#p94c4b5c449)" d="M 84.769766 145.8 
L 84.769766 0 
" style="fill:none;stroke:#000000;stroke-dasharray:0.5,0.825;stroke-dashoffset:0;stroke-width:0.5;"/>
    <path clip-path="url(#p94c4b5c449)" d="M 114.099532 145.8 
L 114.099532 0 
" style="fill:none;stroke:#000000;stroke-dasharray:0.5,0.825;stroke-dashoffset:0;stroke-width:0.5;"/>
    <path clip-path="url(#p94c4b5c449)" d="M 143.429298 145.8 
L 143.429298 0 
" style="fill:none;stroke:#000000;stroke-dasharray:0.5,0.825;stroke-dashoffset:0;stroke-width:0.5;"/>
   </g>
   <g id="LineCollection_6">
    <path clip-path="url(#p94c4b5c449)" d="M 55.44 136.6875 
L 143.429298 136.6875 
" style="fill:none;stroke:#000000;stroke-dasharray:3.7,1.6;stroke-dashoffset:0;"/>
   </g>
   <g id="line2d_12">
    <defs>
     <path d="M -3 3 
L 3 3 
L 3 -3 
L -3 -3 
z
" id="m324935a733" style="stroke:#1f77b4;stroke-linejoin:miter;"/>
    </defs>
    <g clip-path="url(#p94c4b5c449)">
     <use style="fill:#1f77b4;stroke:#1f77b4;stroke-linejoin:miter;" x="62.772441" xlink:href="#m324935a733" y="64.327285"/>
     <use style="fill:#1f77b4;stroke:#1f77b4;stroke-linejoin:miter;" x="92.102207" xlink:href="#m324935a733" y="46.533009"/>
     <use style="fill:#1f77b4;stroke:#1f77b4;stroke-linejoin:miter;" x="121.431973" xlink:href="#m324935a733" y="26.780637"/>
    </g>
   </g>
   <g id="line2d_13">
    <defs>
     <path d="M 0 3 
C 0.795609 3 1.55874 2.683901 2.12132 2.12132 
C 2.683901 1.55874 3 0.795609 3 0 
C 3 -0.795609 2.683901 -1.55874 2.12132 -2.12132 
C 1.55874 -2.683901 0.795609 -3 0 -3 
C -0.795609 -3 -1.55874 -2.683901 -2.12132 -2.12132 
C -2.683901 -1.55874 -3 -0.795609 -3 0 
C -3 0.795609 -2.683901 1.55874 -2.12132 2.12132 
C -1.55874 2.683901 -0.795609 3 0 3 
z
" id="m3e57fbdfe8" style="stroke:#ff7f0e;"/>
    </defs>
    <g clip-path="url(#p94c4b5c449)">
     <use style="fill:#ff7f0e;stroke:#ff7f0e;" x="67.660736" xlink:href="#m3e57fbdfe8" y="99.184863"/>
     <use style="fill:#ff7f0e;stroke:#ff7f0e;" x="96.990502" xlink:href="#m3e57fbdfe8" y="100.712826"/>
     <use style="fill:#ff7f0e;stroke:#ff7f0e;" x="126.320268" xlink:href="#m3e57fbdfe8" y="105.161355"/>
    </g>
   </g>
   <g id="line2d_14">
    <defs>
     <path d="M 0 3 
C 0.795609 3 1.55874 2.683901 2.12132 2.12132 
C 2.683901 1.55874 3 0.795609 3 0 
C 3 -0.795609 2.683901 -1.55874 2.12132 -2.12132 
C 1.55874 -2.683901 0.795609 -3 0 -3 
C -0.795609 -3 -1.55874 -2.683901 -2.12132 -2.12132 
C -2.683901 -1.55874 -3 -0.795609 -3 0 
C -3 0.795609 -2.683901 1.55874 -2.12132 2.12132 
C -1.55874 2.683901 -0.795609 3 0 3 
z
" id="m186a74f09c" style="stroke:#2ca02c;"/>
    </defs>
    <g clip-path="url(#p94c4b5c449)">
     <use style="fill:#2ca02c;stroke:#2ca02c;" x="72.54903" xlink:href="#m186a74f09c" y="83.079777"/>
     <use style="fill:#2ca02c;stroke:#2ca02c;" x="101.878796" xlink:href="#m186a74f09c" y="73.471282"/>
     <use style="fill:#2ca02c;stroke:#2ca02c;" x="131.208562" xlink:href="#m186a74f09c" y="30.965577"/>
    </g>
   </g>
   <g id="line2d_15">
    <defs>
     <path d="M 0 3 
C 0.795609 3 1.55874 2.683901 2.12132 2.12132 
C 2.683901 1.55874 3 0.795609 3 0 
C 3 -0.795609 2.683901 -1.55874 2.12132 -2.12132 
C 1.55874 -2.683901 0.795609 -3 0 -3 
C -0.795609 -3 -1.55874 -2.683901 -2.12132 -2.12132 
C -2.683901 -1.55874 -3 -0.795609 -3 0 
C -3 0.795609 -2.683901 1.55874 -2.12132 2.12132 
C -1.55874 2.683901 -0.795609 3 0 3 
z
" id="m648fb08939" style="stroke:#d62728;"/>
    </defs>
    <g clip-path="url(#p94c4b5c449)">
     <use style="fill:#d62728;stroke:#d62728;" x="77.437324" xlink:href="#m648fb08939" y="54.845182"/>
     <use style="fill:#d62728;stroke:#d62728;" x="106.76709" xlink:href="#m648fb08939" y="55.390257"/>
     <use style="fill:#d62728;stroke:#d62728;" x="136.096856" xlink:href="#m648fb08939" y="24.25554"/>
    </g>
   </g>
   <g id="patch_3">
    <path d="M 55.44 145.8 
L 143.429298 145.8 
" style="fill:none;stroke:#000000;stroke-linecap:square;stroke-linejoin:miter;stroke-width:0.8;"/>
   </g>
  </g>
  <g id="axes_2">
   <g id="patch_4">
    <path d="M 162.493645 145.8 
L 221.153177 145.8 
L 221.153177 0 
L 162.493645 0 
z
" style="fill:#ffffff;"/>
   </g>
   <g id="matplotlib.axis_3">
    <g id="xtick_4">
     <g id="line2d_16">
      <g>
       <use style="stroke:#000000;stroke-width:0.8;" x="177.158528" xlink:href="#m319fb6f2b7" y="145.8"/>
      </g>
     </g>
     <g id="text_14">
      <!--  rd2-0134 -->
      <defs>
       <path d="M 45.40625 46.390625 
L 45.40625 75.984375 
L 54.390625 75.984375 
L 54.390625 0 
L 45.40625 0 
L 45.40625 8.203125 
Q 42.578125 3.328125 38.25 0.953125 
Q 33.9375 -1.421875 27.875 -1.421875 
Q 17.96875 -1.421875 11.734375 6.484375 
Q 5.515625 14.40625 5.515625 27.296875 
Q 5.515625 40.1875 11.734375 48.09375 
Q 17.96875 56 27.875 56 
Q 33.9375 56 38.25 53.625 
Q 42.578125 51.265625 45.40625 46.390625 
z
M 14.796875 27.296875 
Q 14.796875 17.390625 18.875 11.75 
Q 22.953125 6.109375 30.078125 6.109375 
Q 37.203125 6.109375 41.296875 11.75 
Q 45.40625 17.390625 45.40625 27.296875 
Q 45.40625 37.203125 41.296875 42.84375 
Q 37.203125 48.484375 30.078125 48.484375 
Q 22.953125 48.484375 18.875 42.84375 
Q 14.796875 37.203125 14.796875 27.296875 
z
" id="DejaVuSans-100"/>
       <path d="M 4.890625 31.390625 
L 31.203125 31.390625 
L 31.203125 23.390625 
L 4.890625 23.390625 
z
" id="DejaVuSans-45"/>
      </defs>
      <g transform="translate(179.917903 201.682813)rotate(-90)scale(0.1 -0.1)">
       <use xlink:href="#DejaVuSans-32"/>
       <use x="31.787109" xlink:href="#DejaVuSans-114"/>
       <use x="71.150391" xlink:href="#DejaVuSans-100"/>
       <use x="134.626953" xlink:href="#DejaVuSans-50"/>
       <use x="198.25" xlink:href="#DejaVuSans-45"/>
       <use x="234.333984" xlink:href="#DejaVuSans-48"/>
       <use x="297.957031" xlink:href="#DejaVuSans-49"/>
       <use x="361.580078" xlink:href="#DejaVuSans-51"/>
       <use x="425.203125" xlink:href="#DejaVuSans-52"/>
      </g>
     </g>
    </g>
    <g id="xtick_5">
     <g id="line2d_17">
      <g>
       <use style="stroke:#000000;stroke-width:0.8;" x="206.488294" xlink:href="#m319fb6f2b7" y="145.8"/>
      </g>
     </g>
     <g id="text_15">
      <!--  rd3-0138 -->
      <defs>
       <path d="M 31.78125 34.625 
Q 24.75 34.625 20.71875 30.859375 
Q 16.703125 27.09375 16.703125 20.515625 
Q 16.703125 13.921875 20.71875 10.15625 
Q 24.75 6.390625 31.78125 6.390625 
Q 38.8125 6.390625 42.859375 10.171875 
Q 46.921875 13.96875 46.921875 20.515625 
Q 46.921875 27.09375 42.890625 30.859375 
Q 38.875 34.625 31.78125 34.625 
z
M 21.921875 38.8125 
Q 15.578125 40.375 12.03125 44.71875 
Q 8.5 49.078125 8.5 55.328125 
Q 8.5 64.0625 14.71875 69.140625 
Q 20.953125 74.21875 31.78125 74.21875 
Q 42.671875 74.21875 48.875 69.140625 
Q 55.078125 64.0625 55.078125 55.328125 
Q 55.078125 49.078125 51.53125 44.71875 
Q 48 40.375 41.703125 38.8125 
Q 48.828125 37.15625 52.796875 32.3125 
Q 56.78125 27.484375 56.78125 20.515625 
Q 56.78125 9.90625 50.3125 4.234375 
Q 43.84375 -1.421875 31.78125 -1.421875 
Q 19.734375 -1.421875 13.25 4.234375 
Q 6.78125 9.90625 6.78125 20.515625 
Q 6.78125 27.484375 10.78125 32.3125 
Q 14.796875 37.15625 21.921875 38.8125 
z
M 18.3125 54.390625 
Q 18.3125 48.734375 21.84375 45.5625 
Q 25.390625 42.390625 31.78125 42.390625 
Q 38.140625 42.390625 41.71875 45.5625 
Q 45.3125 48.734375 45.3125 54.390625 
Q 45.3125 60.0625 41.71875 63.234375 
Q 38.140625 66.40625 31.78125 66.40625 
Q 25.390625 66.40625 21.84375 63.234375 
Q 18.3125 60.0625 18.3125 54.390625 
z
" id="DejaVuSans-56"/>
      </defs>
      <g transform="translate(209.247669 201.682813)rotate(-90)scale(0.1 -0.1)">
       <use xlink:href="#DejaVuSans-32"/>
       <use x="31.787109" xlink:href="#DejaVuSans-114"/>
       <use x="71.150391" xlink:href="#DejaVuSans-100"/>
       <use x="134.626953" xlink:href="#DejaVuSans-51"/>
       <use x="198.25" xlink:href="#DejaVuSans-45"/>
       <use x="234.333984" xlink:href="#DejaVuSans-48"/>
       <use x="297.957031" xlink:href="#DejaVuSans-49"/>
       <use x="361.580078" xlink:href="#DejaVuSans-51"/>
       <use x="425.203125" xlink:href="#DejaVuSans-56"/>
      </g>
     </g>
    </g>
    <g id="text_16">
     <!-- HHH -->
     <defs>
      <path d="M 9.8125 72.90625 
L 19.671875 72.90625 
L 19.671875 43.015625 
L 55.515625 43.015625 
L 55.515625 72.90625 
L 65.375 72.90625 
L 65.375 0 
L 55.515625 0 
L 55.515625 34.71875 
L 19.671875 34.71875 
L 19.671875 0 
L 9.8125 0 
z
" id="DejaVuSans-72"/>
     </defs>
     <g transform="translate(180.542943 213.28125)scale(0.1 -0.1)">
      <use xlink:href="#DejaVuSans-72"/>
      <use x="75.195312" xlink:href="#DejaVuSans-72"/>
      <use x="150.390625" xlink:href="#DejaVuSans-72"/>
     </g>
    </g>
   </g>
   <g id="matplotlib.axis_4">
    <g id="ytick_9">
     <g id="line2d_18">
      <path clip-path="url(#p1919fbc663)" d="M 162.493645 136.6875 
L 221.153177 136.6875 
" style="fill:none;stroke:#b0b0b0;stroke-dasharray:0.8,1.32;stroke-dashoffset:0;stroke-width:0.8;"/>
     </g>
    </g>
    <g id="ytick_10">
     <g id="line2d_19">
      <path clip-path="url(#p1919fbc663)" d="M 162.493645 118.4625 
L 221.153177 118.4625 
" style="fill:none;stroke:#b0b0b0;stroke-dasharray:0.8,1.32;stroke-dashoffset:0;stroke-width:0.8;"/>
     </g>
    </g>
    <g id="ytick_11">
     <g id="line2d_20">
      <path clip-path="url(#p1919fbc663)" d="M 162.493645 100.2375 
L 221.153177 100.2375 
" style="fill:none;stroke:#b0b0b0;stroke-dasharray:0.8,1.32;stroke-dashoffset:0;stroke-width:0.8;"/>
     </g>
    </g>
    <g id="ytick_12">
     <g id="line2d_21">
      <path clip-path="url(#p1919fbc663)" d="M 162.493645 82.0125 
L 221.153177 82.0125 
" style="fill:none;stroke:#b0b0b0;stroke-dasharray:0.8,1.32;stroke-dashoffset:0;stroke-width:0.8;"/>
     </g>
    </g>
    <g id="ytick_13">
     <g id="line2d_22">
      <path clip-path="url(#p1919fbc663)" d="M 162.493645 63.7875 
L 221.153177 63.7875 
" style="fill:none;stroke:#b0b0b0;stroke-dasharray:0.8,1.32;stroke-dashoffset:0;stroke-width:0.8;"/>
     </g>
    </g>
    <g id="ytick_14">
     <g id="line2d_23">
      <path clip-path="url(#p1919fbc663)" d="M 162.493645 45.5625 
L 221.153177 45.5625 
" style="fill:none;stroke:#b0b0b0;stroke-dasharray:0.8,1.32;stroke-dashoffset:0;stroke-width:0.8;"/>
     </g>
    </g>
    <g id="ytick_15">
     <g id="line2d_24">
      <path clip-path="url(#p1919fbc663)" d="M 162.493645 27.3375 
L 221.153177 27.3375 
" style="fill:none;stroke:#b0b0b0;stroke-dasharray:0.8,1.32;stroke-dashoffset:0;stroke-width:0.8;"/>
     </g>
    </g>
    <g id="ytick_16">
     <g id="line2d_25">
      <path clip-path="url(#p1919fbc663)" d="M 162.493645 9.1125 
L 221.153177 9.1125 
" style="fill:none;stroke:#b0b0b0;stroke-dasharray:0.8,1.32;stroke-dashoffset:0;stroke-width:0.8;"/>
     </g>
    </g>
   </g>
   <g id="LineCollection_7">
    <path clip-path="url(#p1919fbc663)" d="M 169.826087 94.041722 
L 169.826087 72.377515 
" style="fill:none;stroke:#1f77b4;stroke-width:1.5;"/>
    <path clip-path="url(#p1919fbc663)" d="M 199.155853 65.792906 
L 199.155853 46.426305 
" style="fill:none;stroke:#1f77b4;stroke-width:1.5;"/>
   </g>
   <g id="LineCollection_8">
    <path clip-path="url(#p1919fbc663)" d="M 174.714381 88.68107 
L 174.714381 68.6712 
" style="fill:none;stroke:#ff7f0e;stroke-width:1.5;"/>
    <path clip-path="url(#p1919fbc663)" d="M 204.044147 85.59456 
L 204.044147 64.708888 
" style="fill:none;stroke:#ff7f0e;stroke-width:1.5;"/>
   </g>
   <g id="LineCollection_9">
    <path clip-path="url(#p1919fbc663)" d="M 179.602676 56.685566 
L 179.602676 38.467267 
" style="fill:none;stroke:#2ca02c;stroke-width:1.5;"/>
    <path clip-path="url(#p1919fbc663)" d="M 208.932441 58.256727 
L 208.932441 40.937355 
" style="fill:none;stroke:#2ca02c;stroke-width:1.5;"/>
   </g>
   <g id="LineCollection_10">
    <path clip-path="url(#p1919fbc663)" d="M 184.49097 54.690404 
L 184.49097 36.63118 
" style="fill:none;stroke:#d62728;stroke-width:1.5;"/>
    <path clip-path="url(#p1919fbc663)" d="M 213.820736 51.20027 
L 213.820736 33.686025 
" style="fill:none;stroke:#d62728;stroke-width:1.5;"/>
   </g>
   <g id="LineCollection_11">
    <path clip-path="url(#p1919fbc663)" d="M 191.823411 145.8 
L 191.823411 0 
" style="fill:none;stroke:#000000;stroke-dasharray:0.5,0.825;stroke-dashoffset:0;stroke-width:0.5;"/>
    <path clip-path="url(#p1919fbc663)" d="M 221.153177 145.8 
L 221.153177 0 
" style="fill:none;stroke:#000000;stroke-dasharray:0.5,0.825;stroke-dashoffset:0;stroke-width:0.5;"/>
    <path clip-path="url(#p1919fbc663)" d="M 250.482943 145.8 
L 250.482943 0 
" style="fill:none;stroke:#000000;stroke-dasharray:0.5,0.825;stroke-dashoffset:0;stroke-width:0.5;"/>
   </g>
   <g id="LineCollection_12">
    <path clip-path="url(#p1919fbc663)" d="M 162.493645 136.6875 
L 221.153177 136.6875 
" style="fill:none;stroke:#000000;stroke-dasharray:3.7,1.6;stroke-dashoffset:0;"/>
   </g>
   <g id="line2d_26">
    <g clip-path="url(#p1919fbc663)">
     <use style="fill:#1f77b4;stroke:#1f77b4;stroke-linejoin:miter;" x="169.826087" xlink:href="#m324935a733" y="82.96137"/>
     <use style="fill:#1f77b4;stroke:#1f77b4;stroke-linejoin:miter;" x="199.155853" xlink:href="#m324935a733" y="55.741009"/>
    </g>
   </g>
   <g id="line2d_27">
    <g clip-path="url(#p1919fbc663)">
     <use style="fill:#ff7f0e;stroke:#ff7f0e;" x="174.714381" xlink:href="#m3e57fbdfe8" y="78.584932"/>
     <use style="fill:#ff7f0e;stroke:#ff7f0e;" x="204.044147" xlink:href="#m3e57fbdfe8" y="74.990979"/>
    </g>
   </g>
   <g id="line2d_28">
    <g clip-path="url(#p1919fbc663)">
     <use style="fill:#2ca02c;stroke:#2ca02c;" x="179.602676" xlink:href="#m186a74f09c" y="47.379374"/>
     <use style="fill:#2ca02c;stroke:#2ca02c;" x="208.932441" xlink:href="#m186a74f09c" y="49.292047"/>
    </g>
   </g>
   <g id="line2d_29">
    <g clip-path="url(#p1919fbc663)">
     <use style="fill:#d62728;stroke:#d62728;" x="184.49097" xlink:href="#m648fb08939" y="45.524996"/>
     <use style="fill:#d62728;stroke:#d62728;" x="213.820736" xlink:href="#m648fb08939" y="42.201522"/>
    </g>
   </g>
   <g id="patch_5">
    <path d="M 162.493645 145.8 
L 221.153177 145.8 
" style="fill:none;stroke:#000000;stroke-linecap:square;stroke-linejoin:miter;stroke-width:0.8;"/>
   </g>
  </g>
  <g id="axes_3">
   <g id="patch_6">
    <path d="M 240.217525 145.8 
L 357.536589 145.8 
L 357.536589 0 
L 240.217525 0 
z
" style="fill:#ffffff;"/>
   </g>
   <g id="matplotlib.axis_5">
    <g id="xtick_6">
     <g id="line2d_30">
      <g>
       <use style="stroke:#000000;stroke-width:0.8;" x="254.882408" xlink:href="#m319fb6f2b7" y="145.8"/>
      </g>
     </g>
     <g id="text_17">
      <!--  rd2-0779 -->
      <defs>
       <path d="M 10.984375 1.515625 
L 10.984375 10.5 
Q 14.703125 8.734375 18.5 7.8125 
Q 22.3125 6.890625 25.984375 6.890625 
Q 35.75 6.890625 40.890625 13.453125 
Q 46.046875 20.015625 46.78125 33.40625 
Q 43.953125 29.203125 39.59375 26.953125 
Q 35.25 24.703125 29.984375 24.703125 
Q 19.046875 24.703125 12.671875 31.3125 
Q 6.296875 37.9375 6.296875 49.421875 
Q 6.296875 60.640625 12.9375 67.421875 
Q 19.578125 74.21875 30.609375 74.21875 
Q 43.265625 74.21875 49.921875 64.515625 
Q 56.59375 54.828125 56.59375 36.375 
Q 56.59375 19.140625 48.40625 8.859375 
Q 40.234375 -1.421875 26.421875 -1.421875 
Q 22.703125 -1.421875 18.890625 -0.6875 
Q 15.09375 0.046875 10.984375 1.515625 
z
M 30.609375 32.421875 
Q 37.25 32.421875 41.125 36.953125 
Q 45.015625 41.5 45.015625 49.421875 
Q 45.015625 57.28125 41.125 61.84375 
Q 37.25 66.40625 30.609375 66.40625 
Q 23.96875 66.40625 20.09375 61.84375 
Q 16.21875 57.28125 16.21875 49.421875 
Q 16.21875 41.5 20.09375 36.953125 
Q 23.96875 32.421875 30.609375 32.421875 
z
" id="DejaVuSans-57"/>
      </defs>
      <g transform="translate(257.641783 201.682813)rotate(-90)scale(0.1 -0.1)">
       <use xlink:href="#DejaVuSans-32"/>
       <use x="31.787109" xlink:href="#DejaVuSans-114"/>
       <use x="71.150391" xlink:href="#DejaVuSans-100"/>
       <use x="134.626953" xlink:href="#DejaVuSans-50"/>
       <use x="198.25" xlink:href="#DejaVuSans-45"/>
       <use x="234.333984" xlink:href="#DejaVuSans-48"/>
       <use x="297.957031" xlink:href="#DejaVuSans-55"/>
       <use x="361.580078" xlink:href="#DejaVuSans-55"/>
       <use x="425.203125" xlink:href="#DejaVuSans-57"/>
      </g>
     </g>
    </g>
    <g id="xtick_7">
     <g id="line2d_31">
      <g>
       <use style="stroke:#000000;stroke-width:0.8;" x="284.212174" xlink:href="#m319fb6f2b7" y="145.8"/>
      </g>
     </g>
     <g id="text_18">
      <!--  rd3-0223 -->
      <g transform="translate(286.971549 201.682813)rotate(-90)scale(0.1 -0.1)">
       <use xlink:href="#DejaVuSans-32"/>
       <use x="31.787109" xlink:href="#DejaVuSans-114"/>
       <use x="71.150391" xlink:href="#DejaVuSans-100"/>
       <use x="134.626953" xlink:href="#DejaVuSans-51"/>
       <use x="198.25" xlink:href="#DejaVuSans-45"/>
       <use x="234.333984" xlink:href="#DejaVuSans-48"/>
       <use x="297.957031" xlink:href="#DejaVuSans-50"/>
       <use x="361.580078" xlink:href="#DejaVuSans-50"/>
       <use x="425.203125" xlink:href="#DejaVuSans-51"/>
      </g>
     </g>
    </g>
    <g id="xtick_8">
     <g id="line2d_32">
      <g>
       <use style="stroke:#000000;stroke-width:0.8;" x="313.54194" xlink:href="#m319fb6f2b7" y="145.8"/>
      </g>
     </g>
     <g id="text_19">
      <!--  rd3-0726 -->
      <g transform="translate(316.301315 201.682813)rotate(-90)scale(0.1 -0.1)">
       <use xlink:href="#DejaVuSans-32"/>
       <use x="31.787109" xlink:href="#DejaVuSans-114"/>
       <use x="71.150391" xlink:href="#DejaVuSans-100"/>
       <use x="134.626953" xlink:href="#DejaVuSans-51"/>
       <use x="198.25" xlink:href="#DejaVuSans-45"/>
       <use x="234.333984" xlink:href="#DejaVuSans-48"/>
       <use x="297.957031" xlink:href="#DejaVuSans-55"/>
       <use x="361.580078" xlink:href="#DejaVuSans-50"/>
       <use x="425.203125" xlink:href="#DejaVuSans-54"/>
      </g>
     </g>
    </g>
    <g id="xtick_9">
     <g id="line2d_33">
      <g>
       <use style="stroke:#000000;stroke-width:0.8;" x="342.871706" xlink:href="#m319fb6f2b7" y="145.8"/>
      </g>
     </g>
     <g id="text_20">
      <!--  rd3-0872 -->
      <g transform="translate(345.631081 201.682813)rotate(-90)scale(0.1 -0.1)">
       <use xlink:href="#DejaVuSans-32"/>
       <use x="31.787109" xlink:href="#DejaVuSans-114"/>
       <use x="71.150391" xlink:href="#DejaVuSans-100"/>
       <use x="134.626953" xlink:href="#DejaVuSans-51"/>
       <use x="198.25" xlink:href="#DejaVuSans-45"/>
       <use x="234.333984" xlink:href="#DejaVuSans-48"/>
       <use x="297.957031" xlink:href="#DejaVuSans-56"/>
       <use x="361.580078" xlink:href="#DejaVuSans-55"/>
       <use x="425.203125" xlink:href="#DejaVuSans-50"/>
      </g>
     </g>
    </g>
    <g id="text_21">
     <!-- HEEH -->
     <defs>
      <path d="M 9.8125 72.90625 
L 55.90625 72.90625 
L 55.90625 64.59375 
L 19.671875 64.59375 
L 19.671875 43.015625 
L 54.390625 43.015625 
L 54.390625 34.71875 
L 19.671875 34.71875 
L 19.671875 8.296875 
L 56.78125 8.296875 
L 56.78125 0 
L 9.8125 0 
z
" id="DejaVuSans-69"/>
     </defs>
     <g transform="translate(285.037994 213.28125)scale(0.1 -0.1)">
      <use xlink:href="#DejaVuSans-72"/>
      <use x="75.195312" xlink:href="#DejaVuSans-69"/>
      <use x="138.378906" xlink:href="#DejaVuSans-69"/>
      <use x="201.5625" xlink:href="#DejaVuSans-72"/>
     </g>
    </g>
   </g>
   <g id="matplotlib.axis_6">
    <g id="ytick_17">
     <g id="line2d_34">
      <path clip-path="url(#p97d8900b1d)" d="M 240.217525 136.6875 
L 357.536589 136.6875 
" style="fill:none;stroke:#b0b0b0;stroke-dasharray:0.8,1.32;stroke-dashoffset:0;stroke-width:0.8;"/>
     </g>
    </g>
    <g id="ytick_18">
     <g id="line2d_35">
      <path clip-path="url(#p97d8900b1d)" d="M 240.217525 118.4625 
L 357.536589 118.4625 
" style="fill:none;stroke:#b0b0b0;stroke-dasharray:0.8,1.32;stroke-dashoffset:0;stroke-width:0.8;"/>
     </g>
    </g>
    <g id="ytick_19">
     <g id="line2d_36">
      <path clip-path="url(#p97d8900b1d)" d="M 240.217525 100.2375 
L 357.536589 100.2375 
" style="fill:none;stroke:#b0b0b0;stroke-dasharray:0.8,1.32;stroke-dashoffset:0;stroke-width:0.8;"/>
     </g>
    </g>
    <g id="ytick_20">
     <g id="line2d_37">
      <path clip-path="url(#p97d8900b1d)" d="M 240.217525 82.0125 
L 357.536589 82.0125 
" style="fill:none;stroke:#b0b0b0;stroke-dasharray:0.8,1.32;stroke-dashoffset:0;stroke-width:0.8;"/>
     </g>
    </g>
    <g id="ytick_21">
     <g id="line2d_38">
      <path clip-path="url(#p97d8900b1d)" d="M 240.217525 63.7875 
L 357.536589 63.7875 
" style="fill:none;stroke:#b0b0b0;stroke-dasharray:0.8,1.32;stroke-dashoffset:0;stroke-width:0.8;"/>
     </g>
    </g>
    <g id="ytick_22">
     <g id="line2d_39">
      <path clip-path="url(#p97d8900b1d)" d="M 240.217525 45.5625 
L 357.536589 45.5625 
" style="fill:none;stroke:#b0b0b0;stroke-dasharray:0.8,1.32;stroke-dashoffset:0;stroke-width:0.8;"/>
     </g>
    </g>
    <g id="ytick_23">
     <g id="line2d_40">
      <path clip-path="url(#p97d8900b1d)" d="M 240.217525 27.3375 
L 357.536589 27.3375 
" style="fill:none;stroke:#b0b0b0;stroke-dasharray:0.8,1.32;stroke-dashoffset:0;stroke-width:0.8;"/>
     </g>
    </g>
    <g id="ytick_24">
     <g id="line2d_41">
      <path clip-path="url(#p97d8900b1d)" d="M 240.217525 9.1125 
L 357.536589 9.1125 
" style="fill:none;stroke:#b0b0b0;stroke-dasharray:0.8,1.32;stroke-dashoffset:0;stroke-width:0.8;"/>
     </g>
    </g>
   </g>
   <g id="LineCollection_13">
    <path clip-path="url(#p97d8900b1d)" d="M 247.549967 47.649381 
L 247.549967 30.436525 
" style="fill:none;stroke:#1f77b4;stroke-width:1.5;"/>
    <path clip-path="url(#p97d8900b1d)" d="M 276.879732 77.630027 
L 276.879732 57.412897 
" style="fill:none;stroke:#1f77b4;stroke-width:1.5;"/>
    <path clip-path="url(#p97d8900b1d)" d="M 306.209498 102.146891 
L 306.209498 79.468073 
" style="fill:none;stroke:#1f77b4;stroke-width:1.5;"/>
    <path clip-path="url(#p97d8900b1d)" d="M 335.539264 100.961981 
L 335.539264 78.170328 
" style="fill:none;stroke:#1f77b4;stroke-width:1.5;"/>
   </g>
   <g id="LineCollection_14">
    <path clip-path="url(#p97d8900b1d)" d="M 252.438261 46.522665 
L 252.438261 29.901024 
" style="fill:none;stroke:#ff7f0e;stroke-width:1.5;"/>
    <path clip-path="url(#p97d8900b1d)" d="M 281.768027 76.423595 
L 281.768027 56.483242 
" style="fill:none;stroke:#ff7f0e;stroke-width:1.5;"/>
    <path clip-path="url(#p97d8900b1d)" d="M 311.097793 94.80053 
L 311.097793 73.935523 
" style="fill:none;stroke:#ff7f0e;stroke-width:1.5;"/>
    <path clip-path="url(#p97d8900b1d)" d="M 340.427559 76.334444 
L 340.427559 55.551818 
" style="fill:none;stroke:#ff7f0e;stroke-width:1.5;"/>
   </g>
   <g id="LineCollection_15">
    <path clip-path="url(#p97d8900b1d)" d="M 257.326555 37.94418 
L 257.326555 22.063245 
" style="fill:none;stroke:#2ca02c;stroke-width:1.5;"/>
    <path clip-path="url(#p97d8900b1d)" d="M 286.656321 53.6201 
L 286.656321 35.632561 
" style="fill:none;stroke:#2ca02c;stroke-width:1.5;"/>
    <path clip-path="url(#p97d8900b1d)" d="M 315.986087 23.213422 
L 315.986087 9.171255 
" style="fill:none;stroke:#2ca02c;stroke-width:1.5;"/>
    <path clip-path="url(#p97d8900b1d)" d="M 345.315853 44.007932 
L 345.315853 26.412162 
" style="fill:none;stroke:#2ca02c;stroke-width:1.5;"/>
   </g>
   <g id="LineCollection_16">
    <path clip-path="url(#p97d8900b1d)" d="M 262.214849 28.567379 
L 262.214849 14.082166 
" style="fill:none;stroke:#d62728;stroke-width:1.5;"/>
    <path clip-path="url(#p97d8900b1d)" d="M 291.544615 57.53686 
L 291.544615 39.195545 
" style="fill:none;stroke:#d62728;stroke-width:1.5;"/>
    <path clip-path="url(#p97d8900b1d)" d="M 320.874381 50.624299 
L 320.874381 33.074421 
" style="fill:none;stroke:#d62728;stroke-width:1.5;"/>
    <path clip-path="url(#p97d8900b1d)" d="M 350.204147 55.320614 
L 350.204147 36.172445 
" style="fill:none;stroke:#d62728;stroke-width:1.5;"/>
   </g>
   <g id="LineCollection_17">
    <path clip-path="url(#p97d8900b1d)" d="M 269.547291 145.8 
L 269.547291 0 
" style="fill:none;stroke:#000000;stroke-dasharray:0.5,0.825;stroke-dashoffset:0;stroke-width:0.5;"/>
    <path clip-path="url(#p97d8900b1d)" d="M 298.877057 145.8 
L 298.877057 0 
" style="fill:none;stroke:#000000;stroke-dasharray:0.5,0.825;stroke-dashoffset:0;stroke-width:0.5;"/>
    <path clip-path="url(#p97d8900b1d)" d="M 328.206823 145.8 
L 328.206823 0 
" style="fill:none;stroke:#000000;stroke-dasharray:0.5,0.825;stroke-dashoffset:0;stroke-width:0.5;"/>
   </g>
   <g id="LineCollection_18">
    <path clip-path="url(#p97d8900b1d)" d="M 240.217525 136.6875 
L 357.536589 136.6875 
" style="fill:none;stroke:#000000;stroke-dasharray:3.7,1.6;stroke-dashoffset:0;"/>
   </g>
   <g id="line2d_42">
    <g clip-path="url(#p97d8900b1d)">
     <use style="fill:#1f77b4;stroke:#1f77b4;stroke-linejoin:miter;" x="247.549967" xlink:href="#m324935a733" y="38.938952"/>
     <use style="fill:#1f77b4;stroke:#1f77b4;stroke-linejoin:miter;" x="276.879732" xlink:href="#m324935a733" y="67.289256"/>
     <use style="fill:#1f77b4;stroke:#1f77b4;stroke-linejoin:miter;" x="306.209498" xlink:href="#m324935a733" y="90.503203"/>
     <use style="fill:#1f77b4;stroke:#1f77b4;stroke-linejoin:miter;" x="335.539264" xlink:href="#m324935a733" y="89.480963"/>
    </g>
   </g>
   <g id="line2d_43">
    <g clip-path="url(#p97d8900b1d)">
     <use style="fill:#ff7f0e;stroke:#ff7f0e;" x="252.438261" xlink:href="#m3e57fbdfe8" y="37.943068"/>
     <use style="fill:#ff7f0e;stroke:#ff7f0e;" x="281.768027" xlink:href="#m3e57fbdfe8" y="66.314658"/>
     <use style="fill:#ff7f0e;stroke:#ff7f0e;" x="311.097793" xlink:href="#m3e57fbdfe8" y="84.164886"/>
     <use style="fill:#ff7f0e;stroke:#ff7f0e;" x="340.427559" xlink:href="#m3e57fbdfe8" y="65.705693"/>
    </g>
   </g>
   <g id="line2d_44">
    <g clip-path="url(#p97d8900b1d)">
     <use style="fill:#2ca02c;stroke:#2ca02c;" x="257.326555" xlink:href="#m186a74f09c" y="29.699903"/>
     <use style="fill:#2ca02c;stroke:#2ca02c;" x="286.656321" xlink:href="#m186a74f09c" y="44.36871"/>
     <use style="fill:#2ca02c;stroke:#2ca02c;" x="315.986087" xlink:href="#m186a74f09c" y="15.791802"/>
     <use style="fill:#2ca02c;stroke:#2ca02c;" x="345.315853" xlink:href="#m186a74f09c" y="34.943726"/>
    </g>
   </g>
   <g id="line2d_45">
    <g clip-path="url(#p97d8900b1d)">
     <use style="fill:#d62728;stroke:#d62728;" x="262.214849" xlink:href="#m648fb08939" y="21.161599"/>
     <use style="fill:#d62728;stroke:#d62728;" x="291.544615" xlink:href="#m648fb08939" y="48.236078"/>
     <use style="fill:#d62728;stroke:#d62728;" x="320.874381" xlink:href="#m648fb08939" y="41.473117"/>
     <use style="fill:#d62728;stroke:#d62728;" x="350.204147" xlink:href="#m648fb08939" y="45.563546"/>
    </g>
   </g>
   <g id="patch_7">
    <path d="M 240.217525 145.8 
L 357.536589 145.8 
" style="fill:none;stroke:#000000;stroke-linecap:square;stroke-linejoin:miter;stroke-width:0.8;"/>
   </g>
  </g>
  <g id="axes_4">
   <g id="patch_8">
    <path d="M 376.600936 145.8 
L 493.92 145.8 
L 493.92 0 
L 376.600936 0 
z
" style="fill:#ffffff;"/>
   </g>
   <g id="matplotlib.axis_7">
    <g id="xtick_10">
     <g id="line2d_46">
      <g>
       <use style="stroke:#000000;stroke-width:0.8;" x="391.265819" xlink:href="#m319fb6f2b7" y="145.8"/>
      </g>
     </g>
     <g id="text_22">
      <!--  rd3-0037 -->
      <g transform="translate(394.025194 201.682813)rotate(-90)scale(0.1 -0.1)">
       <use xlink:href="#DejaVuSans-32"/>
       <use x="31.787109" xlink:href="#DejaVuSans-114"/>
       <use x="71.150391" xlink:href="#DejaVuSans-100"/>
       <use x="134.626953" xlink:href="#DejaVuSans-51"/>
       <use x="198.25" xlink:href="#DejaVuSans-45"/>
       <use x="234.333984" xlink:href="#DejaVuSans-48"/>
       <use x="297.957031" xlink:href="#DejaVuSans-48"/>
       <use x="361.580078" xlink:href="#DejaVuSans-51"/>
       <use x="425.203125" xlink:href="#DejaVuSans-55"/>
      </g>
     </g>
    </g>
    <g id="xtick_11">
     <g id="line2d_47">
      <g>
       <use style="stroke:#000000;stroke-width:0.8;" x="420.595585" xlink:href="#m319fb6f2b7" y="145.8"/>
      </g>
     </g>
     <g id="text_23">
      <!--  rd3-1498 -->
      <g transform="translate(423.35496 201.682813)rotate(-90)scale(0.1 -0.1)">
       <use xlink:href="#DejaVuSans-32"/>
       <use x="31.787109" xlink:href="#DejaVuSans-114"/>
       <use x="71.150391" xlink:href="#DejaVuSans-100"/>
       <use x="134.626953" xlink:href="#DejaVuSans-51"/>
       <use x="198.25" xlink:href="#DejaVuSans-45"/>
       <use x="234.333984" xlink:href="#DejaVuSans-49"/>
       <use x="297.957031" xlink:href="#DejaVuSans-52"/>
       <use x="361.580078" xlink:href="#DejaVuSans-57"/>
       <use x="425.203125" xlink:href="#DejaVuSans-56"/>
      </g>
     </g>
    </g>
    <g id="xtick_12">
     <g id="line2d_48">
      <g>
       <use style="stroke:#000000;stroke-width:0.8;" x="449.925351" xlink:href="#m319fb6f2b7" y="145.8"/>
      </g>
     </g>
     <g id="text_24">
      <!--  rd3-1702 -->
      <g transform="translate(452.684726 201.682813)rotate(-90)scale(0.1 -0.1)">
       <use xlink:href="#DejaVuSans-32"/>
       <use x="31.787109" xlink:href="#DejaVuSans-114"/>
       <use x="71.150391" xlink:href="#DejaVuSans-100"/>
       <use x="134.626953" xlink:href="#DejaVuSans-51"/>
       <use x="198.25" xlink:href="#DejaVuSans-45"/>
       <use x="234.333984" xlink:href="#DejaVuSans-49"/>
       <use x="297.957031" xlink:href="#DejaVuSans-55"/>
       <use x="361.580078" xlink:href="#DejaVuSans-48"/>
       <use x="425.203125" xlink:href="#DejaVuSans-50"/>
      </g>
     </g>
    </g>
    <g id="xtick_13">
     <g id="line2d_49">
      <g>
       <use style="stroke:#000000;stroke-width:0.8;" x="479.255117" xlink:href="#m319fb6f2b7" y="145.8"/>
      </g>
     </g>
     <g id="text_25">
      <!--  rd3-1716 -->
      <g transform="translate(482.014492 201.682813)rotate(-90)scale(0.1 -0.1)">
       <use xlink:href="#DejaVuSans-32"/>
       <use x="31.787109" xlink:href="#DejaVuSans-114"/>
       <use x="71.150391" xlink:href="#DejaVuSans-100"/>
       <use x="134.626953" xlink:href="#DejaVuSans-51"/>
       <use x="198.25" xlink:href="#DejaVuSans-45"/>
       <use x="234.333984" xlink:href="#DejaVuSans-49"/>
       <use x="297.957031" xlink:href="#DejaVuSans-55"/>
       <use x="361.580078" xlink:href="#DejaVuSans-49"/>
       <use x="425.203125" xlink:href="#DejaVuSans-54"/>
      </g>
     </g>
    </g>
    <g id="text_26">
     <!-- EEHEE -->
     <g transform="translate(418.862812 213.28125)scale(0.1 -0.1)">
      <use xlink:href="#DejaVuSans-69"/>
      <use x="63.183594" xlink:href="#DejaVuSans-69"/>
      <use x="126.367188" xlink:href="#DejaVuSans-72"/>
      <use x="201.5625" xlink:href="#DejaVuSans-69"/>
      <use x="264.746094" xlink:href="#DejaVuSans-69"/>
     </g>
    </g>
   </g>
   <g id="matplotlib.axis_8">
    <g id="ytick_25">
     <g id="line2d_50">
      <path clip-path="url(#paa5706507a)" d="M 376.600936 136.6875 
L 493.92 136.6875 
" style="fill:none;stroke:#b0b0b0;stroke-dasharray:0.8,1.32;stroke-dashoffset:0;stroke-width:0.8;"/>
     </g>
    </g>
    <g id="ytick_26">
     <g id="line2d_51">
      <path clip-path="url(#paa5706507a)" d="M 376.600936 118.4625 
L 493.92 118.4625 
" style="fill:none;stroke:#b0b0b0;stroke-dasharray:0.8,1.32;stroke-dashoffset:0;stroke-width:0.8;"/>
     </g>
    </g>
    <g id="ytick_27">
     <g id="line2d_52">
      <path clip-path="url(#paa5706507a)" d="M 376.600936 100.2375 
L 493.92 100.2375 
" style="fill:none;stroke:#b0b0b0;stroke-dasharray:0.8,1.32;stroke-dashoffset:0;stroke-width:0.8;"/>
     </g>
    </g>
    <g id="ytick_28">
     <g id="line2d_53">
      <path clip-path="url(#paa5706507a)" d="M 376.600936 82.0125 
L 493.92 82.0125 
" style="fill:none;stroke:#b0b0b0;stroke-dasharray:0.8,1.32;stroke-dashoffset:0;stroke-width:0.8;"/>
     </g>
    </g>
    <g id="ytick_29">
     <g id="line2d_54">
      <path clip-path="url(#paa5706507a)" d="M 376.600936 63.7875 
L 493.92 63.7875 
" style="fill:none;stroke:#b0b0b0;stroke-dasharray:0.8,1.32;stroke-dashoffset:0;stroke-width:0.8;"/>
     </g>
    </g>
    <g id="ytick_30">
     <g id="line2d_55">
      <path clip-path="url(#paa5706507a)" d="M 376.600936 45.5625 
L 493.92 45.5625 
" style="fill:none;stroke:#b0b0b0;stroke-dasharray:0.8,1.32;stroke-dashoffset:0;stroke-width:0.8;"/>
     </g>
    </g>
    <g id="ytick_31">
     <g id="line2d_56">
      <path clip-path="url(#paa5706507a)" d="M 376.600936 27.3375 
L 493.92 27.3375 
" style="fill:none;stroke:#b0b0b0;stroke-dasharray:0.8,1.32;stroke-dashoffset:0;stroke-width:0.8;"/>
     </g>
    </g>
    <g id="ytick_32">
     <g id="line2d_57">
      <path clip-path="url(#paa5706507a)" d="M 376.600936 9.1125 
L 493.92 9.1125 
" style="fill:none;stroke:#b0b0b0;stroke-dasharray:0.8,1.32;stroke-dashoffset:0;stroke-width:0.8;"/>
     </g>
    </g>
   </g>
   <g id="LineCollection_19">
    <path clip-path="url(#paa5706507a)" d="M 383.933378 64.191421 
L 383.933378 45.192479 
" style="fill:none;stroke:#1f77b4;stroke-width:1.5;"/>
    <path clip-path="url(#paa5706507a)" d="M 413.263144 70.239396 
L 413.263144 51.27053 
" style="fill:none;stroke:#1f77b4;stroke-width:1.5;"/>
    <path clip-path="url(#paa5706507a)" d="M 442.59291 124.585395 
L 442.59291 102.506052 
" style="fill:none;stroke:#1f77b4;stroke-width:1.5;"/>
    <path clip-path="url(#paa5706507a)" d="M 471.922676 67.393989 
L 471.922676 48.454174 
" style="fill:none;stroke:#1f77b4;stroke-width:1.5;"/>
   </g>
   <g id="LineCollection_20">
    <path clip-path="url(#paa5706507a)" d="M 388.821672 45.630484 
L 388.821672 28.45232 
" style="fill:none;stroke:#ff7f0e;stroke-width:1.5;"/>
    <path clip-path="url(#paa5706507a)" d="M 418.151438 89.797238 
L 418.151438 69.379131 
" style="fill:none;stroke:#ff7f0e;stroke-width:1.5;"/>
    <path clip-path="url(#paa5706507a)" d="M 447.481204 91.92152 
L 447.481204 71.440374 
" style="fill:none;stroke:#ff7f0e;stroke-width:1.5;"/>
    <path clip-path="url(#paa5706507a)" d="M 476.81097 51.601895 
L 476.81097 34.785872 
" style="fill:none;stroke:#ff7f0e;stroke-width:1.5;"/>
   </g>
   <g id="LineCollection_21">
    <path clip-path="url(#paa5706507a)" d="M 393.709967 22.847644 
L 393.709967 9.635847 
" style="fill:none;stroke:#2ca02c;stroke-width:1.5;"/>
    <path clip-path="url(#paa5706507a)" d="M 423.039732 36.190752 
L 423.039732 20.845842 
" style="fill:none;stroke:#2ca02c;stroke-width:1.5;"/>
    <path clip-path="url(#paa5706507a)" d="M 452.369498 74.83649 
L 452.369498 55.450416 
" style="fill:none;stroke:#2ca02c;stroke-width:1.5;"/>
    <path clip-path="url(#paa5706507a)" d="M 481.699264 24.241936 
L 481.699264 10.27021 
" style="fill:none;stroke:#2ca02c;stroke-width:1.5;"/>
   </g>
   <g id="LineCollection_22">
    <path clip-path="url(#paa5706507a)" d="M 398.598261 16.434062 
L 398.598261 3.201293 
" style="fill:none;stroke:#d62728;stroke-width:1.5;"/>
    <path clip-path="url(#paa5706507a)" d="M 427.928027 61.469316 
L 427.928027 42.225501 
" style="fill:none;stroke:#d62728;stroke-width:1.5;"/>
    <path clip-path="url(#paa5706507a)" d="M 457.257793 86.275846 
L 457.257793 66.38093 
" style="fill:none;stroke:#d62728;stroke-width:1.5;"/>
    <path clip-path="url(#paa5706507a)" d="M 486.587559 27.806879 
L 486.587559 13.687915 
" style="fill:none;stroke:#d62728;stroke-width:1.5;"/>
   </g>
   <g id="LineCollection_23">
    <path clip-path="url(#paa5706507a)" d="M 405.930702 145.8 
L 405.930702 0 
" style="fill:none;stroke:#000000;stroke-dasharray:0.5,0.825;stroke-dashoffset:0;stroke-width:0.5;"/>
    <path clip-path="url(#paa5706507a)" d="M 435.260468 145.8 
L 435.260468 0 
" style="fill:none;stroke:#000000;stroke-dasharray:0.5,0.825;stroke-dashoffset:0;stroke-width:0.5;"/>
    <path clip-path="url(#paa5706507a)" d="M 464.590234 145.8 
L 464.590234 0 
" style="fill:none;stroke:#000000;stroke-dasharray:0.5,0.825;stroke-dashoffset:0;stroke-width:0.5;"/>
   </g>
   <g id="LineCollection_24">
    <path clip-path="url(#paa5706507a)" d="M 376.600936 136.6875 
L 493.92 136.6875 
" style="fill:none;stroke:#000000;stroke-dasharray:3.7,1.6;stroke-dashoffset:0;"/>
   </g>
   <g id="line2d_58">
    <g clip-path="url(#paa5706507a)">
     <use style="fill:#1f77b4;stroke:#1f77b4;stroke-linejoin:miter;" x="383.933378" xlink:href="#m324935a733" y="54.490375"/>
     <use style="fill:#1f77b4;stroke:#1f77b4;stroke-linejoin:miter;" x="413.263144" xlink:href="#m324935a733" y="60.591714"/>
     <use style="fill:#1f77b4;stroke:#1f77b4;stroke-linejoin:miter;" x="442.59291" xlink:href="#m324935a733" y="113.496889"/>
     <use style="fill:#1f77b4;stroke:#1f77b4;stroke-linejoin:miter;" x="471.922676" xlink:href="#m324935a733" y="57.686128"/>
    </g>
   </g>
   <g id="line2d_59">
    <g clip-path="url(#paa5706507a)">
     <use style="fill:#ff7f0e;stroke:#ff7f0e;" x="388.821672" xlink:href="#m3e57fbdfe8" y="36.766892"/>
     <use style="fill:#ff7f0e;stroke:#ff7f0e;" x="418.151438" xlink:href="#m3e57fbdfe8" y="79.40907"/>
     <use style="fill:#ff7f0e;stroke:#ff7f0e;" x="447.481204" xlink:href="#m3e57fbdfe8" y="81.505899"/>
     <use style="fill:#ff7f0e;stroke:#ff7f0e;" x="476.81097" xlink:href="#m3e57fbdfe8" y="42.913592"/>
    </g>
   </g>
   <g id="line2d_60">
    <g clip-path="url(#paa5706507a)">
     <use style="fill:#2ca02c;stroke:#2ca02c;" x="393.709967" xlink:href="#m186a74f09c" y="15.844274"/>
     <use style="fill:#2ca02c;stroke:#2ca02c;" x="423.039732" xlink:href="#m186a74f09c" y="28.237611"/>
     <use style="fill:#2ca02c;stroke:#2ca02c;" x="452.369498" xlink:href="#m186a74f09c" y="64.904494"/>
     <use style="fill:#2ca02c;stroke:#2ca02c;" x="481.699264" xlink:href="#m186a74f09c" y="16.872932"/>
    </g>
   </g>
   <g id="line2d_61">
    <g clip-path="url(#paa5706507a)">
     <use style="fill:#d62728;stroke:#d62728;" x="398.598261" xlink:href="#m648fb08939" y="9.553077"/>
     <use style="fill:#d62728;stroke:#d62728;" x="427.928027" xlink:href="#m648fb08939" y="51.615398"/>
     <use style="fill:#d62728;stroke:#d62728;" x="457.257793" xlink:href="#m648fb08939" y="76.11493"/>
     <use style="fill:#d62728;stroke:#d62728;" x="486.587559" xlink:href="#m648fb08939" y="20.541332"/>
    </g>
   </g>
   <g id="patch_9">
    <path d="M 376.600936 145.8 
L 493.92 145.8 
" style="fill:none;stroke:#000000;stroke-linecap:square;stroke-linejoin:miter;stroke-width:0.8;"/>
   </g>
  </g>
 </g>
 <defs>
  <clipPath id="p94c4b5c449">
   <rect height="145.8" width="87.989298" x="55.44" y="0"/>
  </clipPath>
  <clipPath id="p1919fbc663">
   <rect height="145.8" width="58.659532" x="162.493645" y="0"/>
  </clipPath>
  <clipPath id="p97d8900b1d">
   <rect height="145.8" width="117.319064" x="240.217525" y="0"/>
  </clipPath>
  <clipPath id="paa5706507a">
   <rect height="145.8" width="117.319064" x="376.600936" y="0"/>
  </clipPath>
 </defs>
</svg>
