<?xml version="1.0" encoding="utf-8" standalone="no"?>
<!DOCTYPE svg PUBLIC "-//W3C//DTD SVG 1.1//EN"
  "http://www.w3.org/Graphics/SVG/1.1/DTD/svg11.dtd">
<!-- Created with matplotlib (https://matplotlib.org/) -->
<svg height="216pt" version="1.1" viewBox="0 0 288 216" width="288pt" xmlns="http://www.w3.org/2000/svg" xmlns:xlink="http://www.w3.org/1999/xlink">
 <defs>
  <style type="text/css">
*{stroke-linecap:butt;stroke-linejoin:round;}
  </style>
 </defs>
 <g id="figure_1">
  <g id="patch_1">
   <path d="M 0 216 
L 288 216 
L 288 0 
L 0 0 
z
" style="fill:#ffffff;"/>
  </g>
  <g id="axes_1">
   <g id="patch_2">
    <path d="M 2.88 183.6 
L 51.542069 183.6 
L 51.542069 4.32 
L 2.88 4.32 
z
" style="fill:#ffffff;"/>
   </g>
   <g id="PolyCollection_1">
    <defs>
     <path d="M 27.214917 -40.549091 
L 27.207152 -40.549091 
L 27.100857 -42.195372 
L 26.171538 -43.841653 
L 22.619196 -45.487934 
L 15.880728 -47.134215 
L 9.004154 -48.780496 
L 7.102742 -50.426777 
L 9.734055 -52.073058 
L 11.665441 -53.719339 
L 10.842552 -55.36562 
L 9.859756 -57.011901 
L 11.582264 -58.658182 
L 15.945532 -60.304463 
L 20.488531 -61.950744 
L 23.522668 -63.597025 
L 24.957652 -65.243306 
L 25.193705 -66.889587 
L 25.074203 -68.535868 
L 25.153884 -70.182149 
L 25.308606 -71.82843 
L 25.392028 -73.474711 
L 25.496283 -75.120992 
L 25.616691 -76.767273 
L 25.770227 -78.413554 
L 26.045034 -80.059835 
L 26.389166 -81.706116 
L 26.784401 -83.352397 
L 27.007207 -84.998678 
L 27.065012 -86.644959 
L 27.123107 -88.29124 
L 27.152366 -89.937521 
L 27.160288 -91.583802 
L 27.179305 -93.230083 
L 27.187187 -94.876364 
L 27.202904 -96.522645 
L 27.198434 -98.168926 
L 27.177061 -99.815207 
L 27.186144 -101.461488 
L 27.1908 -103.107769 
L 27.197549 -104.75405 
L 27.208475 -106.400331 
L 27.205671 -108.046612 
L 27.20109 -109.692893 
L 27.208742 -111.339174 
L 27.21097 -112.985455 
L 27.211034 -114.631736 
L 27.211034 -116.278017 
L 27.211034 -117.924298 
L 27.211034 -119.570579 
L 27.211002 -121.21686 
L 27.209845 -122.86314 
L 27.205968 -124.509421 
L 27.208493 -126.155702 
L 27.210884 -127.801983 
L 27.211033 -129.448264 
L 27.211034 -131.094545 
L 27.211034 -132.740826 
L 27.211034 -134.387107 
L 27.211034 -136.033388 
L 27.211034 -137.679669 
L 27.211034 -139.32595 
L 27.211034 -140.972231 
L 27.211034 -142.618512 
L 27.211034 -144.264793 
L 27.211034 -145.911074 
L 27.211034 -147.557355 
L 27.211034 -149.203636 
L 27.211034 -150.849917 
L 27.211034 -152.496198 
L 27.211034 -154.142479 
L 27.211034 -155.78876 
L 27.211034 -157.435041 
L 27.211034 -159.081322 
L 27.211034 -160.727603 
L 27.211034 -162.373884 
L 27.211034 -164.020165 
L 27.21102 -165.666446 
L 27.210276 -167.312727 
L 27.206413 -168.959008 
L 27.207331 -170.605289 
L 27.206983 -172.25157 
L 27.206729 -173.897851 
L 27.208309 -175.544132 
L 27.200102 -177.190413 
L 27.198205 -178.836694 
L 27.203064 -180.482975 
L 27.209132 -182.129256 
L 27.210962 -183.775537 
L 27.211034 -185.421818 
L 27.211034 -187.068099 
L 27.211034 -188.71438 
L 27.211034 -190.360661 
L 27.211034 -192.006942 
L 27.211034 -193.653223 
L 27.211034 -195.299504 
L 27.21101 -196.945785 
L 27.209805 -198.592066 
L 27.202779 -200.238347 
L 27.203522 -201.884628 
L 27.21011 -203.530909 
L 27.211959 -203.530909 
L 27.211959 -203.530909 
L 27.218547 -201.884628 
L 27.21929 -200.238347 
L 27.212264 -198.592066 
L 27.211059 -196.945785 
L 27.211035 -195.299504 
L 27.211034 -193.653223 
L 27.211034 -192.006942 
L 27.211034 -190.360661 
L 27.211034 -188.71438 
L 27.211034 -187.068099 
L 27.211035 -185.421818 
L 27.211107 -183.775537 
L 27.212937 -182.129256 
L 27.219005 -180.482975 
L 27.223864 -178.836694 
L 27.221967 -177.190413 
L 27.21376 -175.544132 
L 27.21534 -173.897851 
L 27.215086 -172.25157 
L 27.214738 -170.605289 
L 27.215656 -168.959008 
L 27.211793 -167.312727 
L 27.211049 -165.666446 
L 27.211035 -164.020165 
L 27.211034 -162.373884 
L 27.211034 -160.727603 
L 27.211034 -159.081322 
L 27.211034 -157.435041 
L 27.211034 -155.78876 
L 27.211034 -154.142479 
L 27.211034 -152.496198 
L 27.211034 -150.849917 
L 27.211034 -149.203636 
L 27.211034 -147.557355 
L 27.211034 -145.911074 
L 27.211034 -144.264793 
L 27.211034 -142.618512 
L 27.211034 -140.972231 
L 27.211034 -139.32595 
L 27.211034 -137.679669 
L 27.211034 -136.033388 
L 27.211034 -134.387107 
L 27.211034 -132.740826 
L 27.211034 -131.094545 
L 27.211036 -129.448264 
L 27.211185 -127.801983 
L 27.213576 -126.155702 
L 27.216101 -124.509421 
L 27.212224 -122.86314 
L 27.211067 -121.21686 
L 27.211035 -119.570579 
L 27.211034 -117.924298 
L 27.211034 -116.278017 
L 27.211035 -114.631736 
L 27.211099 -112.985455 
L 27.213327 -111.339174 
L 27.220979 -109.692893 
L 27.216398 -108.046612 
L 27.213594 -106.400331 
L 27.22452 -104.75405 
L 27.231269 -103.107769 
L 27.235925 -101.461488 
L 27.245008 -99.815207 
L 27.223635 -98.168926 
L 27.219165 -96.522645 
L 27.234882 -94.876364 
L 27.242764 -93.230083 
L 27.261781 -91.583802 
L 27.269703 -89.937521 
L 27.298962 -88.29124 
L 27.357057 -86.644959 
L 27.414862 -84.998678 
L 27.637668 -83.352397 
L 28.032903 -81.706116 
L 28.377035 -80.059835 
L 28.651842 -78.413554 
L 28.805378 -76.767273 
L 28.925786 -75.120992 
L 29.030041 -73.474711 
L 29.113463 -71.82843 
L 29.268185 -70.182149 
L 29.347865 -68.535868 
L 29.228364 -66.889587 
L 29.464417 -65.243306 
L 30.899401 -63.597025 
L 33.933538 -61.950744 
L 38.476537 -60.304463 
L 42.839805 -58.658182 
L 44.562313 -57.011901 
L 43.579517 -55.36562 
L 42.756628 -53.719339 
L 44.688014 -52.073058 
L 47.319327 -50.426777 
L 45.417915 -48.780496 
L 38.541341 -47.134215 
L 31.802873 -45.487934 
L 28.250531 -43.841653 
L 27.321212 -42.195372 
L 27.214917 -40.549091 
z
" id="m9c79eed96c" style="stroke:#4c4c4c;stroke-width:1.5;"/>
    </defs>
    <g clip-path="url(#p2fd48ec7de)">
     <use style="fill:#cb3335;stroke:#4c4c4c;stroke-width:1.5;" x="0" xlink:href="#m9c79eed96c" y="216"/>
    </g>
   </g>
   <g id="matplotlib.axis_1">
    <g id="xtick_1">
     <g id="line2d_1">
      <defs>
       <path d="M 0 0 
L 0 3.5 
" id="mbdcd69b879" style="stroke:#000000;stroke-width:0.8;"/>
      </defs>
      <g>
       <use style="stroke:#000000;stroke-width:0.8;" x="27.211034" xlink:href="#mbdcd69b879" y="183.6"/>
      </g>
     </g>
     <g id="text_1">
      <!-- Modeller -->
      <defs>
       <path d="M 9.8125 72.90625 
L 24.515625 72.90625 
L 43.109375 23.296875 
L 61.8125 72.90625 
L 76.515625 72.90625 
L 76.515625 0 
L 66.890625 0 
L 66.890625 64.015625 
L 48.09375 14.015625 
L 38.1875 14.015625 
L 19.390625 64.015625 
L 19.390625 0 
L 9.8125 0 
z
" id="DejaVuSans-77"/>
       <path d="M 30.609375 48.390625 
Q 23.390625 48.390625 19.1875 42.75 
Q 14.984375 37.109375 14.984375 27.296875 
Q 14.984375 17.484375 19.15625 11.84375 
Q 23.34375 6.203125 30.609375 6.203125 
Q 37.796875 6.203125 41.984375 11.859375 
Q 46.1875 17.53125 46.1875 27.296875 
Q 46.1875 37.015625 41.984375 42.703125 
Q 37.796875 48.390625 30.609375 48.390625 
z
M 30.609375 56 
Q 42.328125 56 49.015625 48.375 
Q 55.71875 40.765625 55.71875 27.296875 
Q 55.71875 13.875 49.015625 6.21875 
Q 42.328125 -1.421875 30.609375 -1.421875 
Q 18.84375 -1.421875 12.171875 6.21875 
Q 5.515625 13.875 5.515625 27.296875 
Q 5.515625 40.765625 12.171875 48.375 
Q 18.84375 56 30.609375 56 
z
" id="DejaVuSans-111"/>
       <path d="M 45.40625 46.390625 
L 45.40625 75.984375 
L 54.390625 75.984375 
L 54.390625 0 
L 45.40625 0 
L 45.40625 8.203125 
Q 42.578125 3.328125 38.25 0.953125 
Q 33.9375 -1.421875 27.875 -1.421875 
Q 17.96875 -1.421875 11.734375 6.484375 
Q 5.515625 14.40625 5.515625 27.296875 
Q 5.515625 40.1875 11.734375 48.09375 
Q 17.96875 56 27.875 56 
Q 33.9375 56 38.25 53.625 
Q 42.578125 51.265625 45.40625 46.390625 
z
M 14.796875 27.296875 
Q 14.796875 17.390625 18.875 11.75 
Q 22.953125 6.109375 30.078125 6.109375 
Q 37.203125 6.109375 41.296875 11.75 
Q 45.40625 17.390625 45.40625 27.296875 
Q 45.40625 37.203125 41.296875 42.84375 
Q 37.203125 48.484375 30.078125 48.484375 
Q 22.953125 48.484375 18.875 42.84375 
Q 14.796875 37.203125 14.796875 27.296875 
z
" id="DejaVuSans-100"/>
       <path d="M 56.203125 29.59375 
L 56.203125 25.203125 
L 14.890625 25.203125 
Q 15.484375 15.921875 20.484375 11.0625 
Q 25.484375 6.203125 34.421875 6.203125 
Q 39.59375 6.203125 44.453125 7.46875 
Q 49.3125 8.734375 54.109375 11.28125 
L 54.109375 2.78125 
Q 49.265625 0.734375 44.1875 -0.34375 
Q 39.109375 -1.421875 33.890625 -1.421875 
Q 20.796875 -1.421875 13.15625 6.1875 
Q 5.515625 13.8125 5.515625 26.8125 
Q 5.515625 40.234375 12.765625 48.109375 
Q 20.015625 56 32.328125 56 
Q 43.359375 56 49.78125 48.890625 
Q 56.203125 41.796875 56.203125 29.59375 
z
M 47.21875 32.234375 
Q 47.125 39.59375 43.09375 43.984375 
Q 39.0625 48.390625 32.421875 48.390625 
Q 24.90625 48.390625 20.390625 44.140625 
Q 15.875 39.890625 15.1875 32.171875 
z
" id="DejaVuSans-101"/>
       <path d="M 9.421875 75.984375 
L 18.40625 75.984375 
L 18.40625 0 
L 9.421875 0 
z
" id="DejaVuSans-108"/>
       <path d="M 41.109375 46.296875 
Q 39.59375 47.171875 37.8125 47.578125 
Q 36.03125 48 33.890625 48 
Q 26.265625 48 22.1875 43.046875 
Q 18.109375 38.09375 18.109375 28.8125 
L 18.109375 0 
L 9.078125 0 
L 9.078125 54.6875 
L 18.109375 54.6875 
L 18.109375 46.1875 
Q 20.953125 51.171875 25.484375 53.578125 
Q 30.03125 56 36.53125 56 
Q 37.453125 56 38.578125 55.875 
Q 39.703125 55.765625 41.0625 55.515625 
z
" id="DejaVuSans-114"/>
      </defs>
      <g transform="translate(5.676659 198.198438)scale(0.1 -0.1)">
       <use xlink:href="#DejaVuSans-77"/>
       <use x="86.279297" xlink:href="#DejaVuSans-111"/>
       <use x="147.460938" xlink:href="#DejaVuSans-100"/>
       <use x="210.9375" xlink:href="#DejaVuSans-101"/>
       <use x="272.460938" xlink:href="#DejaVuSans-108"/>
       <use x="300.244141" xlink:href="#DejaVuSans-108"/>
       <use x="328.027344" xlink:href="#DejaVuSans-101"/>
       <use x="389.550781" xlink:href="#DejaVuSans-114"/>
      </g>
      <!-- (molpdf) -->
      <defs>
       <path d="M 31 75.875 
Q 24.46875 64.65625 21.28125 53.65625 
Q 18.109375 42.671875 18.109375 31.390625 
Q 18.109375 20.125 21.3125 9.0625 
Q 24.515625 -2 31 -13.1875 
L 23.1875 -13.1875 
Q 15.875 -1.703125 12.234375 9.375 
Q 8.59375 20.453125 8.59375 31.390625 
Q 8.59375 42.28125 12.203125 53.3125 
Q 15.828125 64.359375 23.1875 75.875 
z
" id="DejaVuSans-40"/>
       <path d="M 52 44.1875 
Q 55.375 50.25 60.0625 53.125 
Q 64.75 56 71.09375 56 
Q 79.640625 56 84.28125 50.015625 
Q 88.921875 44.046875 88.921875 33.015625 
L 88.921875 0 
L 79.890625 0 
L 79.890625 32.71875 
Q 79.890625 40.578125 77.09375 44.375 
Q 74.3125 48.1875 68.609375 48.1875 
Q 61.625 48.1875 57.5625 43.546875 
Q 53.515625 38.921875 53.515625 30.90625 
L 53.515625 0 
L 44.484375 0 
L 44.484375 32.71875 
Q 44.484375 40.625 41.703125 44.40625 
Q 38.921875 48.1875 33.109375 48.1875 
Q 26.21875 48.1875 22.15625 43.53125 
Q 18.109375 38.875 18.109375 30.90625 
L 18.109375 0 
L 9.078125 0 
L 9.078125 54.6875 
L 18.109375 54.6875 
L 18.109375 46.1875 
Q 21.1875 51.21875 25.484375 53.609375 
Q 29.78125 56 35.6875 56 
Q 41.65625 56 45.828125 52.96875 
Q 50 49.953125 52 44.1875 
z
" id="DejaVuSans-109"/>
       <path d="M 18.109375 8.203125 
L 18.109375 -20.796875 
L 9.078125 -20.796875 
L 9.078125 54.6875 
L 18.109375 54.6875 
L 18.109375 46.390625 
Q 20.953125 51.265625 25.265625 53.625 
Q 29.59375 56 35.59375 56 
Q 45.5625 56 51.78125 48.09375 
Q 58.015625 40.1875 58.015625 27.296875 
Q 58.015625 14.40625 51.78125 6.484375 
Q 45.5625 -1.421875 35.59375 -1.421875 
Q 29.59375 -1.421875 25.265625 0.953125 
Q 20.953125 3.328125 18.109375 8.203125 
z
M 48.6875 27.296875 
Q 48.6875 37.203125 44.609375 42.84375 
Q 40.53125 48.484375 33.40625 48.484375 
Q 26.265625 48.484375 22.1875 42.84375 
Q 18.109375 37.203125 18.109375 27.296875 
Q 18.109375 17.390625 22.1875 11.75 
Q 26.265625 6.109375 33.40625 6.109375 
Q 40.53125 6.109375 44.609375 11.75 
Q 48.6875 17.390625 48.6875 27.296875 
z
" id="DejaVuSans-112"/>
       <path d="M 37.109375 75.984375 
L 37.109375 68.5 
L 28.515625 68.5 
Q 23.6875 68.5 21.796875 66.546875 
Q 19.921875 64.59375 19.921875 59.515625 
L 19.921875 54.6875 
L 34.71875 54.6875 
L 34.71875 47.703125 
L 19.921875 47.703125 
L 19.921875 0 
L 10.890625 0 
L 10.890625 47.703125 
L 2.296875 47.703125 
L 2.296875 54.6875 
L 10.890625 54.6875 
L 10.890625 58.5 
Q 10.890625 67.625 15.140625 71.796875 
Q 19.390625 75.984375 28.609375 75.984375 
z
" id="DejaVuSans-102"/>
       <path d="M 8.015625 75.875 
L 15.828125 75.875 
Q 23.140625 64.359375 26.78125 53.3125 
Q 30.421875 42.28125 30.421875 31.390625 
Q 30.421875 20.453125 26.78125 9.375 
Q 23.140625 -1.703125 15.828125 -13.1875 
L 8.015625 -13.1875 
Q 14.5 -2 17.703125 9.0625 
Q 20.90625 20.125 20.90625 31.390625 
Q 20.90625 42.671875 17.703125 53.65625 
Q 14.5 64.65625 8.015625 75.875 
z
" id="DejaVuSans-41"/>
      </defs>
      <g transform="translate(5.882128 209.39625)scale(0.1 -0.1)">
       <use xlink:href="#DejaVuSans-40"/>
       <use x="39.013672" xlink:href="#DejaVuSans-109"/>
       <use x="136.425781" xlink:href="#DejaVuSans-111"/>
       <use x="197.607422" xlink:href="#DejaVuSans-108"/>
       <use x="225.390625" xlink:href="#DejaVuSans-112"/>
       <use x="288.867188" xlink:href="#DejaVuSans-100"/>
       <use x="352.34375" xlink:href="#DejaVuSans-102"/>
       <use x="387.548828" xlink:href="#DejaVuSans-41"/>
      </g>
     </g>
    </g>
   </g>
   <g id="matplotlib.axis_2"/>
   <g id="LineCollection_1">
    <path clip-path="url(#p2fd48ec7de)" d="M 5.091912 155.915211 
L 49.330157 155.915211 
" style="fill:none;stroke:#000000;stroke-dasharray:1.5,2.475;stroke-dashoffset:0;stroke-width:1.5;"/>
   </g>
   <g id="line2d_2">
    <path clip-path="url(#p2fd48ec7de)" d="M 27.211034 173.199835 
L 27.211034 143.936991 
" style="fill:none;stroke:#4c4c4c;stroke-linecap:square;stroke-width:1.5;"/>
   </g>
   <g id="line2d_3">
    <path clip-path="url(#p2fd48ec7de)" d="M 27.211034 165.646374 
L 27.211034 156.960574 
" style="fill:none;stroke:#4c4c4c;stroke-linecap:square;stroke-width:4.5;"/>
   </g>
   <g id="patch_3">
    <path d="M 2.88 183.6 
L 51.542069 183.6 
" style="fill:none;stroke:#000000;stroke-linecap:square;stroke-linejoin:miter;stroke-width:0.8;"/>
   </g>
   <g id="patch_4">
    <path d="M 2.88 4.32 
L 51.542069 4.32 
" style="fill:none;stroke:#000000;stroke-linecap:square;stroke-linejoin:miter;stroke-width:0.8;"/>
   </g>
   <g id="PathCollection_1">
    <defs>
     <path d="M 0 1.5 
C 0.397805 1.5 0.77937 1.341951 1.06066 1.06066 
C 1.341951 0.77937 1.5 0.397805 1.5 0 
C 1.5 -0.397805 1.341951 -0.77937 1.06066 -1.06066 
C 0.77937 -1.341951 0.397805 -1.5 0 -1.5 
C -0.397805 -1.5 -0.77937 -1.341951 -1.06066 -1.06066 
C -1.341951 -0.77937 -1.5 -0.397805 -1.5 0 
C -1.5 0.397805 -1.341951 0.77937 -1.06066 1.06066 
C -0.77937 1.341951 -0.397805 1.5 0 1.5 
z
" id="mfcf0a1b5ec" style="stroke:#4c4c4c;"/>
    </defs>
    <g clip-path="url(#p2fd48ec7de)">
     <use style="fill:#ffffff;stroke:#4c4c4c;" x="27.211034" xlink:href="#mfcf0a1b5ec" y="161.256622"/>
    </g>
   </g>
  </g>
  <g id="axes_2">
   <g id="patch_5">
    <path d="M 61.274483 183.6 
L 109.936552 183.6 
L 109.936552 4.32 
L 61.274483 4.32 
z
" style="fill:#ffffff;"/>
   </g>
   <g id="PolyCollection_2">
    <defs>
     <path d="M 85.60696 -40.549091 
L 85.604075 -40.549091 
L 85.600732 -42.195372 
L 85.59369 -43.841653 
L 85.582671 -45.487934 
L 85.568917 -47.134215 
L 85.553952 -48.780496 
L 85.538086 -50.426777 
L 85.518814 -52.073058 
L 85.489866 -53.719339 
L 85.440363 -55.36562 
L 85.357295 -57.011901 
L 85.237737 -58.658182 
L 85.089073 -60.304463 
L 84.903642 -61.950744 
L 84.655978 -63.597025 
L 84.339256 -65.243306 
L 83.982036 -66.889587 
L 83.618321 -68.535868 
L 83.247064 -70.182149 
L 82.827292 -71.82843 
L 82.312803 -73.474711 
L 81.679374 -75.120992 
L 80.929912 -76.767273 
L 80.101671 -78.413554 
L 79.260873 -80.059835 
L 78.452331 -81.706116 
L 77.642221 -83.352397 
L 76.752141 -84.998678 
L 75.760836 -86.644959 
L 74.728549 -88.29124 
L 73.721686 -89.937521 
L 72.740117 -91.583802 
L 71.741436 -93.230083 
L 70.745442 -94.876364 
L 69.831435 -96.522645 
L 68.995738 -98.168926 
L 68.145635 -99.815207 
L 67.291853 -101.461488 
L 66.588688 -103.107769 
L 66.121517 -104.75405 
L 65.81723 -106.400331 
L 65.600854 -108.046612 
L 65.497224 -109.692893 
L 65.553599 -111.339174 
L 65.761021 -112.985455 
L 66.087897 -114.631736 
L 66.525315 -116.278017 
L 67.067064 -117.924298 
L 67.684626 -119.570579 
L 68.325971 -121.21686 
L 68.960116 -122.86314 
L 69.651759 -124.509421 
L 70.514089 -126.155702 
L 71.560926 -127.801983 
L 72.681593 -129.448264 
L 73.752221 -131.094545 
L 74.724314 -132.740826 
L 75.632282 -134.387107 
L 76.533056 -136.033388 
L 77.425444 -137.679669 
L 78.261579 -139.32595 
L 79.049204 -140.972231 
L 79.852372 -142.618512 
L 80.674652 -144.264793 
L 81.439189 -145.911074 
L 82.079548 -147.557355 
L 82.588741 -149.203636 
L 83.002842 -150.849917 
L 83.370898 -152.496198 
L 83.720432 -154.142479 
L 84.040189 -155.78876 
L 84.308471 -157.435041 
L 84.527524 -159.081322 
L 84.717021 -160.727603 
L 84.88898 -162.373884 
L 85.041126 -164.020165 
L 85.165484 -165.666446 
L 85.258486 -167.312727 
L 85.324921 -168.959008 
L 85.375164 -170.605289 
L 85.419719 -172.25157 
L 85.46288 -173.897851 
L 85.501518 -175.544132 
L 85.531141 -177.190413 
L 85.551428 -178.836694 
L 85.565352 -180.482975 
L 85.57586 -182.129256 
L 85.584869 -183.775537 
L 85.592668 -185.421818 
L 85.597646 -187.068099 
L 85.598725 -188.71438 
L 85.597521 -190.360661 
L 85.596422 -192.006942 
L 85.595311 -193.653223 
L 85.592848 -195.299504 
L 85.590545 -196.945785 
L 85.591682 -198.592066 
L 85.596323 -200.238347 
L 85.601228 -201.884628 
L 85.604122 -203.530909 
L 85.606912 -203.530909 
L 85.606912 -203.530909 
L 85.609807 -201.884628 
L 85.614712 -200.238347 
L 85.619352 -198.592066 
L 85.620489 -196.945785 
L 85.618187 -195.299504 
L 85.615724 -193.653223 
L 85.614613 -192.006942 
L 85.613514 -190.360661 
L 85.61231 -188.71438 
L 85.613388 -187.068099 
L 85.618366 -185.421818 
L 85.626165 -183.775537 
L 85.635175 -182.129256 
L 85.645683 -180.482975 
L 85.659607 -178.836694 
L 85.679893 -177.190413 
L 85.709517 -175.544132 
L 85.748155 -173.897851 
L 85.791316 -172.25157 
L 85.83587 -170.605289 
L 85.886114 -168.959008 
L 85.952549 -167.312727 
L 86.04555 -165.666446 
L 86.169908 -164.020165 
L 86.322054 -162.373884 
L 86.494014 -160.727603 
L 86.683511 -159.081322 
L 86.902563 -157.435041 
L 87.170846 -155.78876 
L 87.490603 -154.142479 
L 87.840136 -152.496198 
L 88.208192 -150.849917 
L 88.622294 -149.203636 
L 89.131486 -147.557355 
L 89.771845 -145.911074 
L 90.536382 -144.264793 
L 91.358662 -142.618512 
L 92.161831 -140.972231 
L 92.949455 -139.32595 
L 93.785591 -137.679669 
L 94.677979 -136.033388 
L 95.578752 -134.387107 
L 96.486721 -132.740826 
L 97.458813 -131.094545 
L 98.529441 -129.448264 
L 99.650108 -127.801983 
L 100.696945 -126.155702 
L 101.559276 -124.509421 
L 102.250919 -122.86314 
L 102.885064 -121.21686 
L 103.526409 -119.570579 
L 104.143971 -117.924298 
L 104.68572 -116.278017 
L 105.123138 -114.631736 
L 105.450013 -112.985455 
L 105.657435 -111.339174 
L 105.71381 -109.692893 
L 105.610181 -108.046612 
L 105.393804 -106.400331 
L 105.089518 -104.75405 
L 104.622347 -103.107769 
L 103.919182 -101.461488 
L 103.0654 -99.815207 
L 102.215296 -98.168926 
L 101.379599 -96.522645 
L 100.465593 -94.876364 
L 99.469598 -93.230083 
L 98.470917 -91.583802 
L 97.489349 -89.937521 
L 96.482485 -88.29124 
L 95.450198 -86.644959 
L 94.458894 -84.998678 
L 93.568813 -83.352397 
L 92.758703 -81.706116 
L 91.950162 -80.059835 
L 91.109363 -78.413554 
L 90.281122 -76.767273 
L 89.53166 -75.120992 
L 88.898232 -73.474711 
L 88.383743 -71.82843 
L 87.963971 -70.182149 
L 87.592714 -68.535868 
L 87.228999 -66.889587 
L 86.871779 -65.243306 
L 86.555057 -63.597025 
L 86.307392 -61.950744 
L 86.121962 -60.304463 
L 85.973297 -58.658182 
L 85.85374 -57.011901 
L 85.770671 -55.36562 
L 85.721168 -53.719339 
L 85.69222 -52.073058 
L 85.672949 -50.426777 
L 85.657082 -48.780496 
L 85.642118 -47.134215 
L 85.628364 -45.487934 
L 85.617344 -43.841653 
L 85.610302 -42.195372 
L 85.60696 -40.549091 
z
" id="m0d4656e5ea" style="stroke:#484848;stroke-width:1.5;"/>
    </defs>
    <g clip-path="url(#p181c1e58dd)">
     <use style="fill:#477ca8;stroke:#484848;stroke-width:1.5;" x="0" xlink:href="#m0d4656e5ea" y="216"/>
    </g>
   </g>
   <g id="matplotlib.axis_3">
    <g id="xtick_2">
     <g id="line2d_4">
      <g>
       <use style="stroke:#000000;stroke-width:0.8;" x="85.605517" xlink:href="#mbdcd69b879" y="183.6"/>
      </g>
     </g>
     <g id="text_2">
      <!-- Modeller -->
      <g transform="translate(64.071142 198.198438)scale(0.1 -0.1)">
       <use xlink:href="#DejaVuSans-77"/>
       <use x="86.279297" xlink:href="#DejaVuSans-111"/>
       <use x="147.460938" xlink:href="#DejaVuSans-100"/>
       <use x="210.9375" xlink:href="#DejaVuSans-101"/>
       <use x="272.460938" xlink:href="#DejaVuSans-108"/>
       <use x="300.244141" xlink:href="#DejaVuSans-108"/>
       <use x="328.027344" xlink:href="#DejaVuSans-101"/>
       <use x="389.550781" xlink:href="#DejaVuSans-114"/>
      </g>
      <!-- (dope_norm) -->
      <defs>
       <path d="M 50.984375 -16.609375 
L 50.984375 -23.578125 
L -0.984375 -23.578125 
L -0.984375 -16.609375 
z
" id="DejaVuSans-95"/>
       <path d="M 54.890625 33.015625 
L 54.890625 0 
L 45.90625 0 
L 45.90625 32.71875 
Q 45.90625 40.484375 42.875 44.328125 
Q 39.84375 48.1875 33.796875 48.1875 
Q 26.515625 48.1875 22.3125 43.546875 
Q 18.109375 38.921875 18.109375 30.90625 
L 18.109375 0 
L 9.078125 0 
L 9.078125 54.6875 
L 18.109375 54.6875 
L 18.109375 46.1875 
Q 21.34375 51.125 25.703125 53.5625 
Q 30.078125 56 35.796875 56 
Q 45.21875 56 50.046875 50.171875 
Q 54.890625 44.34375 54.890625 33.015625 
z
" id="DejaVuSans-110"/>
      </defs>
      <g transform="translate(53.653173 209.39625)scale(0.1 -0.1)">
       <use xlink:href="#DejaVuSans-40"/>
       <use x="39.013672" xlink:href="#DejaVuSans-100"/>
       <use x="102.490234" xlink:href="#DejaVuSans-111"/>
       <use x="163.671875" xlink:href="#DejaVuSans-112"/>
       <use x="227.148438" xlink:href="#DejaVuSans-101"/>
       <use x="288.671875" xlink:href="#DejaVuSans-95"/>
       <use x="338.671875" xlink:href="#DejaVuSans-110"/>
       <use x="402.050781" xlink:href="#DejaVuSans-111"/>
       <use x="463.232422" xlink:href="#DejaVuSans-114"/>
       <use x="502.595703" xlink:href="#DejaVuSans-109"/>
       <use x="600.007812" xlink:href="#DejaVuSans-41"/>
      </g>
     </g>
    </g>
   </g>
   <g id="matplotlib.axis_4"/>
   <g id="LineCollection_2">
    <path clip-path="url(#p181c1e58dd)" d="M 63.486395 125.819188 
L 107.724639 125.819188 
" style="fill:none;stroke:#000000;stroke-dasharray:1.5,2.475;stroke-dashoffset:0;stroke-width:1.5;"/>
   </g>
   <g id="line2d_5">
    <path clip-path="url(#p181c1e58dd)" d="M 85.605517 157.872319 
L 85.605517 51.900658 
" style="fill:none;stroke:#484848;stroke-linecap:square;stroke-width:1.5;"/>
   </g>
   <g id="line2d_6">
    <path clip-path="url(#p181c1e58dd)" d="M 85.605517 118.471057 
L 85.605517 91.806118 
" style="fill:none;stroke:#484848;stroke-linecap:square;stroke-width:4.5;"/>
   </g>
   <g id="patch_6">
    <path d="M 61.274483 183.6 
L 109.936552 183.6 
" style="fill:none;stroke:#000000;stroke-linecap:square;stroke-linejoin:miter;stroke-width:0.8;"/>
   </g>
   <g id="patch_7">
    <path d="M 61.274483 4.32 
L 109.936552 4.32 
" style="fill:none;stroke:#000000;stroke-linecap:square;stroke-linejoin:miter;stroke-width:0.8;"/>
   </g>
   <g id="PathCollection_2">
    <defs>
     <path d="M 0 1.5 
C 0.397805 1.5 0.77937 1.341951 1.06066 1.06066 
C 1.341951 0.77937 1.5 0.397805 1.5 0 
C 1.5 -0.397805 1.341951 -0.77937 1.06066 -1.06066 
C 0.77937 -1.341951 0.397805 -1.5 0 -1.5 
C -0.397805 -1.5 -0.77937 -1.341951 -1.06066 -1.06066 
C -1.341951 -0.77937 -1.5 -0.397805 -1.5 0 
C -1.5 0.397805 -1.341951 0.77937 -1.06066 1.06066 
C -0.77937 1.341951 -0.397805 1.5 0 1.5 
z
" id="m6ae5d6efe2" style="stroke:#484848;"/>
    </defs>
    <g clip-path="url(#p181c1e58dd)">
     <use style="fill:#ffffff;stroke:#484848;" x="85.605517" xlink:href="#m6ae5d6efe2" y="105.282671"/>
    </g>
   </g>
  </g>
  <g id="axes_3">
   <g id="patch_8">
    <path d="M 119.668966 183.6 
L 168.331034 183.6 
L 168.331034 4.32 
L 119.668966 4.32 
z
" style="fill:#ffffff;"/>
   </g>
   <g id="PolyCollection_3">
    <defs>
     <path d="M 144.002077 -40.549091 
L 143.997923 -40.549091 
L 143.992815 -42.195372 
L 143.980317 -43.841653 
L 143.954489 -45.487934 
L 143.907718 -47.134215 
L 143.835995 -48.780496 
L 143.746371 -50.426777 
L 143.650675 -52.073058 
L 143.547456 -53.719339 
L 143.420586 -55.36562 
L 143.254529 -57.011901 
L 143.033623 -58.658182 
L 142.731025 -60.304463 
L 142.326078 -61.950744 
L 141.832693 -63.597025 
L 141.283481 -65.243306 
L 140.689334 -66.889587 
L 140.036033 -68.535868 
L 139.306902 -70.182149 
L 138.491587 -71.82843 
L 137.596329 -73.474711 
L 136.656693 -75.120992 
L 135.709815 -76.767273 
L 134.752534 -78.413554 
L 133.745627 -80.059835 
L 132.658414 -81.706116 
L 131.520206 -83.352397 
L 130.420786 -84.998678 
L 129.433669 -86.644959 
L 128.557337 -88.29124 
L 127.747713 -89.937521 
L 126.976465 -91.583802 
L 126.254145 -93.230083 
L 125.620631 -94.876364 
L 125.106615 -96.522645 
L 124.716605 -98.168926 
L 124.454374 -99.815207 
L 124.306518 -101.461488 
L 124.195249 -103.107769 
L 124.038374 -104.75405 
L 123.891707 -106.400331 
L 123.936922 -108.046612 
L 124.277912 -109.692893 
L 124.844087 -111.339174 
L 125.533723 -112.985455 
L 126.34874 -114.631736 
L 127.314479 -116.278017 
L 128.35182 -117.924298 
L 129.318198 -119.570579 
L 130.11699 -121.21686 
L 130.751999 -122.86314 
L 131.338217 -124.509421 
L 132.039837 -126.155702 
L 132.946426 -127.801983 
L 134.010025 -129.448264 
L 135.108284 -131.094545 
L 136.13371 -132.740826 
L 137.035399 -134.387107 
L 137.831058 -136.033388 
L 138.573247 -137.679669 
L 139.294206 -139.32595 
L 139.98545 -140.972231 
L 140.605972 -142.618512 
L 141.116856 -144.264793 
L 141.526221 -145.911074 
L 141.886106 -147.557355 
L 142.237862 -149.203636 
L 142.569696 -150.849917 
L 142.8347 -152.496198 
L 143.011174 -154.142479 
L 143.134831 -155.78876 
L 143.259851 -157.435041 
L 143.399827 -159.081322 
L 143.530334 -160.727603 
L 143.635619 -162.373884 
L 143.718381 -164.020165 
L 143.776429 -165.666446 
L 143.805516 -167.312727 
L 143.819269 -168.959008 
L 143.841665 -170.605289 
L 143.880856 -172.25157 
L 143.922712 -173.897851 
L 143.949018 -175.544132 
L 143.955454 -177.190413 
L 143.952556 -178.836694 
L 143.953525 -180.482975 
L 143.962473 -182.129256 
L 143.973385 -183.775537 
L 143.979167 -185.421818 
L 143.979754 -187.068099 
L 143.98005 -188.71438 
L 143.982811 -190.360661 
L 143.986475 -192.006942 
L 143.98801 -193.653223 
L 143.986516 -195.299504 
L 143.98483 -196.945785 
L 143.986454 -198.592066 
L 143.991179 -200.238347 
L 143.995909 -201.884628 
L 143.998659 -203.530909 
L 144.001341 -203.530909 
L 144.001341 -203.530909 
L 144.004091 -201.884628 
L 144.008821 -200.238347 
L 144.013546 -198.592066 
L 144.01517 -196.945785 
L 144.013484 -195.299504 
L 144.01199 -193.653223 
L 144.013525 -192.006942 
L 144.017189 -190.360661 
L 144.01995 -188.71438 
L 144.020246 -187.068099 
L 144.020833 -185.421818 
L 144.026615 -183.775537 
L 144.037527 -182.129256 
L 144.046475 -180.482975 
L 144.047444 -178.836694 
L 144.044546 -177.190413 
L 144.050982 -175.544132 
L 144.077288 -173.897851 
L 144.119144 -172.25157 
L 144.158335 -170.605289 
L 144.180731 -168.959008 
L 144.194484 -167.312727 
L 144.223571 -165.666446 
L 144.281619 -164.020165 
L 144.364381 -162.373884 
L 144.469666 -160.727603 
L 144.600173 -159.081322 
L 144.740149 -157.435041 
L 144.865169 -155.78876 
L 144.988826 -154.142479 
L 145.1653 -152.496198 
L 145.430304 -150.849917 
L 145.762138 -149.203636 
L 146.113894 -147.557355 
L 146.473779 -145.911074 
L 146.883144 -144.264793 
L 147.394028 -142.618512 
L 148.01455 -140.972231 
L 148.705794 -139.32595 
L 149.426753 -137.679669 
L 150.168942 -136.033388 
L 150.964601 -134.387107 
L 151.86629 -132.740826 
L 152.891716 -131.094545 
L 153.989975 -129.448264 
L 155.053574 -127.801983 
L 155.960163 -126.155702 
L 156.661783 -124.509421 
L 157.248001 -122.86314 
L 157.88301 -121.21686 
L 158.681802 -119.570579 
L 159.64818 -117.924298 
L 160.685521 -116.278017 
L 161.65126 -114.631736 
L 162.466277 -112.985455 
L 163.155913 -111.339174 
L 163.722088 -109.692893 
L 164.063078 -108.046612 
L 164.108293 -106.400331 
L 163.961626 -104.75405 
L 163.804751 -103.107769 
L 163.693482 -101.461488 
L 163.545626 -99.815207 
L 163.283395 -98.168926 
L 162.893385 -96.522645 
L 162.379369 -94.876364 
L 161.745855 -93.230083 
L 161.023535 -91.583802 
L 160.252287 -89.937521 
L 159.442663 -88.29124 
L 158.566331 -86.644959 
L 157.579214 -84.998678 
L 156.479794 -83.352397 
L 155.341586 -81.706116 
L 154.254373 -80.059835 
L 153.247466 -78.413554 
L 152.290185 -76.767273 
L 151.343307 -75.120992 
L 150.403671 -73.474711 
L 149.508413 -71.82843 
L 148.693098 -70.182149 
L 147.963967 -68.535868 
L 147.310666 -66.889587 
L 146.716519 -65.243306 
L 146.167307 -63.597025 
L 145.673922 -61.950744 
L 145.268975 -60.304463 
L 144.966377 -58.658182 
L 144.745471 -57.011901 
L 144.579414 -55.36562 
L 144.452544 -53.719339 
L 144.349325 -52.073058 
L 144.253629 -50.426777 
L 144.164005 -48.780496 
L 144.092282 -47.134215 
L 144.045511 -45.487934 
L 144.019683 -43.841653 
L 144.007185 -42.195372 
L 144.002077 -40.549091 
z
" id="m13e5a47fbf" style="stroke:#4b4b4b;stroke-width:1.5;"/>
    </defs>
    <g clip-path="url(#pe205b1180b)">
     <use style="fill:#59a257;stroke:#4b4b4b;stroke-width:1.5;" x="0" xlink:href="#m13e5a47fbf" y="216"/>
    </g>
   </g>
   <g id="matplotlib.axis_5">
    <g id="xtick_3">
     <g id="line2d_7">
      <g>
       <use style="stroke:#000000;stroke-width:0.8;" x="144" xlink:href="#mbdcd69b879" y="183.6"/>
      </g>
     </g>
     <g id="text_3">
      <!-- Modeller -->
      <g transform="translate(122.465625 198.198438)scale(0.1 -0.1)">
       <use xlink:href="#DejaVuSans-77"/>
       <use x="86.279297" xlink:href="#DejaVuSans-111"/>
       <use x="147.460938" xlink:href="#DejaVuSans-100"/>
       <use x="210.9375" xlink:href="#DejaVuSans-101"/>
       <use x="272.460938" xlink:href="#DejaVuSans-108"/>
       <use x="300.244141" xlink:href="#DejaVuSans-108"/>
       <use x="328.027344" xlink:href="#DejaVuSans-101"/>
       <use x="389.550781" xlink:href="#DejaVuSans-114"/>
      </g>
      <!-- (dope_hr) -->
      <defs>
       <path d="M 54.890625 33.015625 
L 54.890625 0 
L 45.90625 0 
L 45.90625 32.71875 
Q 45.90625 40.484375 42.875 44.328125 
Q 39.84375 48.1875 33.796875 48.1875 
Q 26.515625 48.1875 22.3125 43.546875 
Q 18.109375 38.921875 18.109375 30.90625 
L 18.109375 0 
L 9.078125 0 
L 9.078125 75.984375 
L 18.109375 75.984375 
L 18.109375 46.1875 
Q 21.34375 51.125 25.703125 53.5625 
Q 30.078125 56 35.796875 56 
Q 45.21875 56 50.046875 50.171875 
Q 54.890625 44.34375 54.890625 33.015625 
z
" id="DejaVuSans-104"/>
      </defs>
      <g transform="translate(119.889844 209.39625)scale(0.1 -0.1)">
       <use xlink:href="#DejaVuSans-40"/>
       <use x="39.013672" xlink:href="#DejaVuSans-100"/>
       <use x="102.490234" xlink:href="#DejaVuSans-111"/>
       <use x="163.671875" xlink:href="#DejaVuSans-112"/>
       <use x="227.148438" xlink:href="#DejaVuSans-101"/>
       <use x="288.671875" xlink:href="#DejaVuSans-95"/>
       <use x="338.671875" xlink:href="#DejaVuSans-104"/>
       <use x="402.050781" xlink:href="#DejaVuSans-114"/>
       <use x="443.164062" xlink:href="#DejaVuSans-41"/>
      </g>
     </g>
    </g>
   </g>
   <g id="matplotlib.axis_6"/>
   <g id="LineCollection_3">
    <path clip-path="url(#pe205b1180b)" d="M 121.880878 96.757737 
L 166.119122 96.757737 
" style="fill:none;stroke:#000000;stroke-dasharray:1.5,2.475;stroke-dashoffset:0;stroke-width:1.5;"/>
   </g>
   <g id="line2d_8">
    <path clip-path="url(#pe205b1180b)" d="M 144 165.69463 
L 144 56.980336 
" style="fill:none;stroke:#4b4b4b;stroke-linecap:square;stroke-width:1.5;"/>
   </g>
   <g id="line2d_9">
    <path clip-path="url(#pe205b1180b)" d="M 144 124.997703 
L 144 97.766281 
" style="fill:none;stroke:#4b4b4b;stroke-linecap:square;stroke-width:4.5;"/>
   </g>
   <g id="patch_9">
    <path d="M 119.668966 183.6 
L 168.331034 183.6 
" style="fill:none;stroke:#000000;stroke-linecap:square;stroke-linejoin:miter;stroke-width:0.8;"/>
   </g>
   <g id="patch_10">
    <path d="M 119.668966 4.32 
L 168.331034 4.32 
" style="fill:none;stroke:#000000;stroke-linecap:square;stroke-linejoin:miter;stroke-width:0.8;"/>
   </g>
   <g id="PathCollection_3">
    <defs>
     <path d="M 0 1.5 
C 0.397805 1.5 0.77937 1.341951 1.06066 1.06066 
C 1.341951 0.77937 1.5 0.397805 1.5 0 
C 1.5 -0.397805 1.341951 -0.77937 1.06066 -1.06066 
C 0.77937 -1.341951 0.397805 -1.5 0 -1.5 
C -0.397805 -1.5 -0.77937 -1.341951 -1.06066 -1.06066 
C -1.341951 -0.77937 -1.5 -0.397805 -1.5 0 
C -1.5 0.397805 -1.341951 0.77937 -1.06066 1.06066 
C -0.77937 1.341951 -0.397805 1.5 0 1.5 
z
" id="m824ea0dc25" style="stroke:#4b4b4b;"/>
    </defs>
    <g clip-path="url(#pe205b1180b)">
     <use style="fill:#ffffff;stroke:#4b4b4b;" x="144" xlink:href="#m824ea0dc25" y="111.371095"/>
    </g>
   </g>
  </g>
  <g id="axes_4">
   <g id="patch_11">
    <path d="M 178.063448 183.6 
L 226.725517 183.6 
L 226.725517 4.32 
L 178.063448 4.32 
z
" style="fill:#ffffff;"/>
   </g>
   <g id="PolyCollection_4">
    <defs>
     <path d="M 202.395226 -40.549091 
L 202.39374 -40.549091 
L 202.391792 -42.195372 
L 202.389392 -43.841653 
L 202.38945 -45.487934 
L 202.391883 -47.134215 
L 202.393781 -48.780496 
L 202.394384 -50.426777 
L 202.394475 -52.073058 
L 202.394482 -53.719339 
L 202.394483 -55.36562 
L 202.394478 -57.011901 
L 202.394417 -58.658182 
L 202.393952 -60.304463 
L 202.392132 -61.950744 
L 202.388112 -63.597025 
L 202.381004 -65.243306 
L 202.368339 -66.889587 
L 202.351999 -68.535868 
L 202.335706 -70.182149 
L 202.31008 -71.82843 
L 202.264608 -73.474711 
L 202.210133 -75.120992 
L 202.155507 -76.767273 
L 202.092471 -78.413554 
L 202.006879 -80.059835 
L 201.856192 -81.706116 
L 201.628544 -83.352397 
L 201.386162 -84.998678 
L 201.163096 -86.644959 
L 200.953173 -88.29124 
L 200.769836 -89.937521 
L 200.633428 -91.583802 
L 200.566491 -93.230083 
L 200.527099 -94.876364 
L 200.453476 -96.522645 
L 200.406319 -98.168926 
L 200.461382 -99.815207 
L 200.594546 -101.461488 
L 200.757525 -103.107769 
L 200.892818 -104.75405 
L 200.926182 -106.400331 
L 200.833442 -108.046612 
L 200.649974 -109.692893 
L 200.39739 -111.339174 
L 200.017348 -112.985455 
L 199.42463 -114.631736 
L 198.622945 -116.278017 
L 197.588154 -117.924298 
L 196.260741 -119.570579 
L 194.763523 -121.21686 
L 193.210504 -122.86314 
L 191.480287 -124.509421 
L 189.556656 -126.155702 
L 187.584074 -127.801983 
L 185.705795 -129.448264 
L 184.19472 -131.094545 
L 183.155172 -132.740826 
L 182.489431 -134.387107 
L 182.28619 -136.033388 
L 182.665312 -137.679669 
L 183.491326 -139.32595 
L 184.667691 -140.972231 
L 186.227275 -142.618512 
L 188.096007 -144.264793 
L 190.206245 -145.911074 
L 192.405925 -147.557355 
L 194.398305 -149.203636 
L 196.081313 -150.849917 
L 197.506101 -152.496198 
L 198.679439 -154.142479 
L 199.644264 -155.78876 
L 200.442779 -157.435041 
L 201.069122 -159.081322 
L 201.523499 -160.727603 
L 201.819593 -162.373884 
L 201.99394 -164.020165 
L 202.097965 -165.666446 
L 202.167374 -167.312727 
L 202.220883 -168.959008 
L 202.270235 -170.605289 
L 202.313965 -172.25157 
L 202.342997 -173.897851 
L 202.357829 -175.544132 
L 202.369009 -177.190413 
L 202.381506 -178.836694 
L 202.390397 -180.482975 
L 202.393745 -182.129256 
L 202.394409 -183.775537 
L 202.394479 -185.421818 
L 202.394483 -187.068099 
L 202.394483 -188.71438 
L 202.394482 -190.360661 
L 202.394475 -192.006942 
L 202.394384 -193.653223 
L 202.393781 -195.299504 
L 202.391883 -196.945785 
L 202.38945 -198.592066 
L 202.389392 -200.238347 
L 202.391792 -201.884628 
L 202.39374 -203.530909 
L 202.395226 -203.530909 
L 202.395226 -203.530909 
L 202.397173 -201.884628 
L 202.399573 -200.238347 
L 202.399515 -198.592066 
L 202.397082 -196.945785 
L 202.395184 -195.299504 
L 202.394582 -193.653223 
L 202.39449 -192.006942 
L 202.394483 -190.360661 
L 202.394483 -188.71438 
L 202.394483 -187.068099 
L 202.394487 -185.421818 
L 202.394556 -183.775537 
L 202.39522 -182.129256 
L 202.398569 -180.482975 
L 202.40746 -178.836694 
L 202.419956 -177.190413 
L 202.431136 -175.544132 
L 202.445969 -173.897851 
L 202.475 -172.25157 
L 202.51873 -170.605289 
L 202.568083 -168.959008 
L 202.621592 -167.312727 
L 202.691001 -165.666446 
L 202.795026 -164.020165 
L 202.969372 -162.373884 
L 203.265467 -160.727603 
L 203.719844 -159.081322 
L 204.346187 -157.435041 
L 205.144702 -155.78876 
L 206.109527 -154.142479 
L 207.282865 -152.496198 
L 208.707652 -150.849917 
L 210.39066 -149.203636 
L 212.38304 -147.557355 
L 214.582721 -145.911074 
L 216.692959 -144.264793 
L 218.561691 -142.618512 
L 220.121274 -140.972231 
L 221.297639 -139.32595 
L 222.123654 -137.679669 
L 222.502776 -136.033388 
L 222.299535 -134.387107 
L 221.633793 -132.740826 
L 220.594246 -131.094545 
L 219.083171 -129.448264 
L 217.204891 -127.801983 
L 215.23231 -126.155702 
L 213.308679 -124.509421 
L 211.578462 -122.86314 
L 210.025442 -121.21686 
L 208.528224 -119.570579 
L 207.200811 -117.924298 
L 206.16602 -116.278017 
L 205.364335 -114.631736 
L 204.771618 -112.985455 
L 204.391575 -111.339174 
L 204.138991 -109.692893 
L 203.955523 -108.046612 
L 203.862784 -106.400331 
L 203.896147 -104.75405 
L 204.031441 -103.107769 
L 204.19442 -101.461488 
L 204.327584 -99.815207 
L 204.382646 -98.168926 
L 204.33549 -96.522645 
L 204.261866 -94.876364 
L 204.222474 -93.230083 
L 204.155537 -91.583802 
L 204.01913 -89.937521 
L 203.835793 -88.29124 
L 203.62587 -86.644959 
L 203.402803 -84.998678 
L 203.160421 -83.352397 
L 202.932773 -81.706116 
L 202.782087 -80.059835 
L 202.696495 -78.413554 
L 202.633459 -76.767273 
L 202.578832 -75.120992 
L 202.524358 -73.474711 
L 202.478885 -71.82843 
L 202.453259 -70.182149 
L 202.436966 -68.535868 
L 202.420627 -66.889587 
L 202.407962 -65.243306 
L 202.400854 -63.597025 
L 202.396834 -61.950744 
L 202.395014 -60.304463 
L 202.394548 -58.658182 
L 202.394487 -57.011901 
L 202.394483 -55.36562 
L 202.394483 -53.719339 
L 202.39449 -52.073058 
L 202.394582 -50.426777 
L 202.395184 -48.780496 
L 202.397082 -47.134215 
L 202.399515 -45.487934 
L 202.399573 -43.841653 
L 202.397173 -42.195372 
L 202.395226 -40.549091 
z
" id="m65d74f6c08" style="stroke:#484848;stroke-width:1.5;"/>
    </defs>
    <g clip-path="url(#pc0859da29d)">
     <use style="fill:#905998;stroke:#484848;stroke-width:1.5;" x="0" xlink:href="#m65d74f6c08" y="216"/>
    </g>
   </g>
   <g id="matplotlib.axis_7">
    <g id="xtick_4">
     <g id="line2d_10">
      <g>
       <use style="stroke:#000000;stroke-width:0.8;" x="202.394483" xlink:href="#mbdcd69b879" y="183.6"/>
      </g>
     </g>
     <g id="text_4">
      <!-- Modeller -->
      <g transform="translate(180.860108 198.198438)scale(0.1 -0.1)">
       <use xlink:href="#DejaVuSans-77"/>
       <use x="86.279297" xlink:href="#DejaVuSans-111"/>
       <use x="147.460938" xlink:href="#DejaVuSans-100"/>
       <use x="210.9375" xlink:href="#DejaVuSans-101"/>
       <use x="272.460938" xlink:href="#DejaVuSans-108"/>
       <use x="300.244141" xlink:href="#DejaVuSans-108"/>
       <use x="328.027344" xlink:href="#DejaVuSans-101"/>
       <use x="389.550781" xlink:href="#DejaVuSans-114"/>
      </g>
      <!-- (ga341) -->
      <defs>
       <path d="M 45.40625 27.984375 
Q 45.40625 37.75 41.375 43.109375 
Q 37.359375 48.484375 30.078125 48.484375 
Q 22.859375 48.484375 18.828125 43.109375 
Q 14.796875 37.75 14.796875 27.984375 
Q 14.796875 18.265625 18.828125 12.890625 
Q 22.859375 7.515625 30.078125 7.515625 
Q 37.359375 7.515625 41.375 12.890625 
Q 45.40625 18.265625 45.40625 27.984375 
z
M 54.390625 6.78125 
Q 54.390625 -7.171875 48.1875 -13.984375 
Q 42 -20.796875 29.203125 -20.796875 
Q 24.46875 -20.796875 20.265625 -20.09375 
Q 16.0625 -19.390625 12.109375 -17.921875 
L 12.109375 -9.1875 
Q 16.0625 -11.328125 19.921875 -12.34375 
Q 23.78125 -13.375 27.78125 -13.375 
Q 36.625 -13.375 41.015625 -8.765625 
Q 45.40625 -4.15625 45.40625 5.171875 
L 45.40625 9.625 
Q 42.625 4.78125 38.28125 2.390625 
Q 33.9375 0 27.875 0 
Q 17.828125 0 11.671875 7.65625 
Q 5.515625 15.328125 5.515625 27.984375 
Q 5.515625 40.671875 11.671875 48.328125 
Q 17.828125 56 27.875 56 
Q 33.9375 56 38.28125 53.609375 
Q 42.625 51.21875 45.40625 46.390625 
L 45.40625 54.6875 
L 54.390625 54.6875 
z
" id="DejaVuSans-103"/>
       <path d="M 34.28125 27.484375 
Q 23.390625 27.484375 19.1875 25 
Q 14.984375 22.515625 14.984375 16.5 
Q 14.984375 11.71875 18.140625 8.90625 
Q 21.296875 6.109375 26.703125 6.109375 
Q 34.1875 6.109375 38.703125 11.40625 
Q 43.21875 16.703125 43.21875 25.484375 
L 43.21875 27.484375 
z
M 52.203125 31.203125 
L 52.203125 0 
L 43.21875 0 
L 43.21875 8.296875 
Q 40.140625 3.328125 35.546875 0.953125 
Q 30.953125 -1.421875 24.3125 -1.421875 
Q 15.921875 -1.421875 10.953125 3.296875 
Q 6 8.015625 6 15.921875 
Q 6 25.140625 12.171875 29.828125 
Q 18.359375 34.515625 30.609375 34.515625 
L 43.21875 34.515625 
L 43.21875 35.40625 
Q 43.21875 41.609375 39.140625 45 
Q 35.0625 48.390625 27.6875 48.390625 
Q 23 48.390625 18.546875 47.265625 
Q 14.109375 46.140625 10.015625 43.890625 
L 10.015625 52.203125 
Q 14.9375 54.109375 19.578125 55.046875 
Q 24.21875 56 28.609375 56 
Q 40.484375 56 46.34375 49.84375 
Q 52.203125 43.703125 52.203125 31.203125 
z
" id="DejaVuSans-97"/>
       <path d="M 40.578125 39.3125 
Q 47.65625 37.796875 51.625 33 
Q 55.609375 28.21875 55.609375 21.1875 
Q 55.609375 10.40625 48.1875 4.484375 
Q 40.765625 -1.421875 27.09375 -1.421875 
Q 22.515625 -1.421875 17.65625 -0.515625 
Q 12.796875 0.390625 7.625 2.203125 
L 7.625 11.71875 
Q 11.71875 9.328125 16.59375 8.109375 
Q 21.484375 6.890625 26.8125 6.890625 
Q 36.078125 6.890625 40.9375 10.546875 
Q 45.796875 14.203125 45.796875 21.1875 
Q 45.796875 27.640625 41.28125 31.265625 
Q 36.765625 34.90625 28.71875 34.90625 
L 20.21875 34.90625 
L 20.21875 43.015625 
L 29.109375 43.015625 
Q 36.375 43.015625 40.234375 45.921875 
Q 44.09375 48.828125 44.09375 54.296875 
Q 44.09375 59.90625 40.109375 62.90625 
Q 36.140625 65.921875 28.71875 65.921875 
Q 24.65625 65.921875 20.015625 65.03125 
Q 15.375 64.15625 9.8125 62.3125 
L 9.8125 71.09375 
Q 15.4375 72.65625 20.34375 73.4375 
Q 25.25 74.21875 29.59375 74.21875 
Q 40.828125 74.21875 47.359375 69.109375 
Q 53.90625 64.015625 53.90625 55.328125 
Q 53.90625 49.265625 50.4375 45.09375 
Q 46.96875 40.921875 40.578125 39.3125 
z
" id="DejaVuSans-51"/>
       <path d="M 37.796875 64.3125 
L 12.890625 25.390625 
L 37.796875 25.390625 
z
M 35.203125 72.90625 
L 47.609375 72.90625 
L 47.609375 25.390625 
L 58.015625 25.390625 
L 58.015625 17.1875 
L 47.609375 17.1875 
L 47.609375 0 
L 37.796875 0 
L 37.796875 17.1875 
L 4.890625 17.1875 
L 4.890625 26.703125 
z
" id="DejaVuSans-52"/>
       <path d="M 12.40625 8.296875 
L 28.515625 8.296875 
L 28.515625 63.921875 
L 10.984375 60.40625 
L 10.984375 69.390625 
L 28.421875 72.90625 
L 38.28125 72.90625 
L 38.28125 8.296875 
L 54.390625 8.296875 
L 54.390625 0 
L 12.40625 0 
z
" id="DejaVuSans-49"/>
      </defs>
      <g transform="translate(182.710889 209.39625)scale(0.1 -0.1)">
       <use xlink:href="#DejaVuSans-40"/>
       <use x="39.013672" xlink:href="#DejaVuSans-103"/>
       <use x="102.490234" xlink:href="#DejaVuSans-97"/>
       <use x="163.769531" xlink:href="#DejaVuSans-51"/>
       <use x="227.392578" xlink:href="#DejaVuSans-52"/>
       <use x="291.015625" xlink:href="#DejaVuSans-49"/>
       <use x="354.638672" xlink:href="#DejaVuSans-41"/>
      </g>
     </g>
    </g>
   </g>
   <g id="matplotlib.axis_8"/>
   <g id="LineCollection_4">
    <path clip-path="url(#pc0859da29d)" d="M 180.275361 62.213356 
L 224.513605 62.213356 
" style="fill:none;stroke:#000000;stroke-dasharray:1.5,2.475;stroke-dashoffset:0;stroke-width:1.5;"/>
   </g>
   <g id="line2d_11">
    <path clip-path="url(#pc0859da29d)" d="M 202.394483 112.452231 
L 202.394483 51.639927 
" style="fill:none;stroke:#484848;stroke-linecap:square;stroke-width:1.5;"/>
   </g>
   <g id="line2d_12">
    <path clip-path="url(#pc0859da29d)" d="M 202.394483 89.635219 
L 202.394483 74.422158 
" style="fill:none;stroke:#484848;stroke-linecap:square;stroke-width:4.5;"/>
   </g>
   <g id="patch_12">
    <path d="M 178.063448 183.6 
L 226.725517 183.6 
" style="fill:none;stroke:#000000;stroke-linecap:square;stroke-linejoin:miter;stroke-width:0.8;"/>
   </g>
   <g id="patch_13">
    <path d="M 178.063448 4.32 
L 226.725517 4.32 
" style="fill:none;stroke:#000000;stroke-linecap:square;stroke-linejoin:miter;stroke-width:0.8;"/>
   </g>
   <g id="PathCollection_4">
    <g clip-path="url(#pc0859da29d)">
     <use style="fill:#ffffff;stroke:#484848;" x="202.394483" xlink:href="#m6ae5d6efe2" y="81.566597"/>
    </g>
   </g>
  </g>
  <g id="axes_5">
   <g id="patch_14">
    <path d="M 236.457931 183.6 
L 285.12 183.6 
L 285.12 4.32 
L 236.457931 4.32 
z
" style="fill:#ffffff;"/>
   </g>
   <g id="PolyCollection_5">
    <defs>
     <path d="M 260.789988 -40.549091 
L 260.787943 -40.549091 
L 260.78461 -42.195372 
L 260.777208 -43.841653 
L 260.760836 -45.487934 
L 260.722319 -47.134215 
L 260.649877 -48.780496 
L 260.534428 -50.426777 
L 260.366575 -52.073058 
L 260.123679 -53.719339 
L 259.749607 -55.36562 
L 259.179172 -57.011901 
L 258.372154 -58.658182 
L 257.32687 -60.304463 
L 256.151674 -61.950744 
L 255.018524 -63.597025 
L 253.877754 -65.243306 
L 252.546947 -66.889587 
L 251.094422 -68.535868 
L 249.678863 -70.182149 
L 248.435914 -71.82843 
L 247.539544 -73.474711 
L 246.934368 -75.120992 
L 246.384882 -76.767273 
L 245.876034 -78.413554 
L 245.500559 -80.059835 
L 245.041099 -81.706116 
L 244.248745 -83.352397 
L 243.241094 -84.998678 
L 242.172006 -86.644959 
L 241.263171 -88.29124 
L 240.769498 -89.937521 
L 240.680673 -91.583802 
L 240.969786 -93.230083 
L 241.733742 -94.876364 
L 243.009037 -96.522645 
L 244.643575 -98.168926 
L 246.447897 -99.815207 
L 248.323025 -101.461488 
L 250.237469 -103.107769 
L 252.0214 -104.75405 
L 253.527057 -106.400331 
L 254.794015 -108.046612 
L 255.890906 -109.692893 
L 256.882639 -111.339174 
L 257.760597 -112.985455 
L 258.418934 -114.631736 
L 258.859012 -116.278017 
L 259.214545 -117.924298 
L 259.525831 -119.570579 
L 259.75973 -121.21686 
L 259.929122 -122.86314 
L 260.051658 -124.509421 
L 260.15687 -126.155702 
L 260.286026 -127.801983 
L 260.42426 -129.448264 
L 260.518714 -131.094545 
L 260.568726 -132.740826 
L 260.596889 -134.387107 
L 260.618053 -136.033388 
L 260.647217 -137.679669 
L 260.675417 -139.32595 
L 260.692294 -140.972231 
L 260.707237 -142.618512 
L 260.729368 -144.264793 
L 260.747482 -145.911074 
L 260.744224 -147.557355 
L 260.731019 -149.203636 
L 260.738694 -150.849917 
L 260.764522 -152.496198 
L 260.78261 -154.142479 
L 260.78804 -155.78876 
L 260.788167 -157.435041 
L 260.784657 -159.081322 
L 260.776111 -160.727603 
L 260.767939 -162.373884 
L 260.766515 -164.020165 
L 260.768713 -165.666446 
L 260.773737 -167.312727 
L 260.781641 -168.959008 
L 260.787025 -170.605289 
L 260.788366 -172.25157 
L 260.787002 -173.897851 
L 260.783605 -175.544132 
L 260.781781 -177.190413 
L 260.784279 -178.836694 
L 260.787478 -180.482975 
L 260.788736 -182.129256 
L 260.788948 -183.775537 
L 260.788965 -185.421818 
L 260.788966 -187.068099 
L 260.788965 -188.71438 
L 260.788961 -190.360661 
L 260.788887 -192.006942 
L 260.788224 -193.653223 
L 260.785383 -195.299504 
L 260.779803 -196.945785 
L 260.776035 -198.592066 
L 260.778666 -200.238347 
L 260.784407 -201.884628 
L 260.787889 -203.530909 
L 260.790042 -203.530909 
L 260.790042 -203.530909 
L 260.793524 -201.884628 
L 260.799265 -200.238347 
L 260.801896 -198.592066 
L 260.798128 -196.945785 
L 260.792548 -195.299504 
L 260.789707 -193.653223 
L 260.789044 -192.006942 
L 260.78897 -190.360661 
L 260.788966 -188.71438 
L 260.788966 -187.068099 
L 260.788966 -185.421818 
L 260.788983 -183.775537 
L 260.789195 -182.129256 
L 260.790453 -180.482975 
L 260.793652 -178.836694 
L 260.79615 -177.190413 
L 260.794326 -175.544132 
L 260.790929 -173.897851 
L 260.789565 -172.25157 
L 260.790906 -170.605289 
L 260.79629 -168.959008 
L 260.804194 -167.312727 
L 260.809218 -165.666446 
L 260.811416 -164.020165 
L 260.809992 -162.373884 
L 260.80182 -160.727603 
L 260.793274 -159.081322 
L 260.789764 -157.435041 
L 260.789891 -155.78876 
L 260.795321 -154.142479 
L 260.813409 -152.496198 
L 260.839237 -150.849917 
L 260.846912 -149.203636 
L 260.833707 -147.557355 
L 260.830449 -145.911074 
L 260.848563 -144.264793 
L 260.870694 -142.618512 
L 260.885637 -140.972231 
L 260.902514 -139.32595 
L 260.930714 -137.679669 
L 260.959878 -136.033388 
L 260.981042 -134.387107 
L 261.009205 -132.740826 
L 261.059217 -131.094545 
L 261.153671 -129.448264 
L 261.291905 -127.801983 
L 261.421061 -126.155702 
L 261.526273 -124.509421 
L 261.648809 -122.86314 
L 261.818201 -121.21686 
L 262.0521 -119.570579 
L 262.363386 -117.924298 
L 262.718919 -116.278017 
L 263.158997 -114.631736 
L 263.817334 -112.985455 
L 264.695292 -111.339174 
L 265.687025 -109.692893 
L 266.783916 -108.046612 
L 268.050874 -106.400331 
L 269.556531 -104.75405 
L 271.340462 -103.107769 
L 273.254906 -101.461488 
L 275.130034 -99.815207 
L 276.934356 -98.168926 
L 278.568894 -96.522645 
L 279.844189 -94.876364 
L 280.608145 -93.230083 
L 280.897258 -91.583802 
L 280.808433 -89.937521 
L 280.314761 -88.29124 
L 279.405925 -86.644959 
L 278.336837 -84.998678 
L 277.329186 -83.352397 
L 276.536832 -81.706116 
L 276.077372 -80.059835 
L 275.701897 -78.413554 
L 275.193049 -76.767273 
L 274.643563 -75.120992 
L 274.038387 -73.474711 
L 273.142017 -71.82843 
L 271.899068 -70.182149 
L 270.483509 -68.535868 
L 269.030984 -66.889587 
L 267.700177 -65.243306 
L 266.559407 -63.597025 
L 265.426257 -61.950744 
L 264.251061 -60.304463 
L 263.205777 -58.658182 
L 262.398759 -57.011901 
L 261.828324 -55.36562 
L 261.454252 -53.719339 
L 261.211356 -52.073058 
L 261.043503 -50.426777 
L 260.928054 -48.780496 
L 260.855612 -47.134215 
L 260.817095 -45.487934 
L 260.800723 -43.841653 
L 260.793321 -42.195372 
L 260.789988 -40.549091 
z
" id="m938043b563" style="stroke:#4c4c4c;stroke-width:1.5;"/>
    </defs>
    <g clip-path="url(#p8c181c11eb)">
     <use style="fill:#df7f20;stroke:#4c4c4c;stroke-width:1.5;" x="0" xlink:href="#m938043b563" y="216"/>
    </g>
   </g>
   <g id="matplotlib.axis_9">
    <g id="xtick_5">
     <g id="line2d_13">
      <g>
       <use style="stroke:#000000;stroke-width:0.8;" x="260.788966" xlink:href="#mbdcd69b879" y="183.6"/>
      </g>
     </g>
     <g id="text_5">
      <!-- Rosetta -->
      <defs>
       <path d="M 44.390625 34.1875 
Q 47.5625 33.109375 50.5625 29.59375 
Q 53.5625 26.078125 56.59375 19.921875 
L 66.609375 0 
L 56 0 
L 46.6875 18.703125 
Q 43.0625 26.03125 39.671875 28.421875 
Q 36.28125 30.8125 30.421875 30.8125 
L 19.671875 30.8125 
L 19.671875 0 
L 9.8125 0 
L 9.8125 72.90625 
L 32.078125 72.90625 
Q 44.578125 72.90625 50.734375 67.671875 
Q 56.890625 62.453125 56.890625 51.90625 
Q 56.890625 45.015625 53.6875 40.46875 
Q 50.484375 35.9375 44.390625 34.1875 
z
M 19.671875 64.796875 
L 19.671875 38.921875 
L 32.078125 38.921875 
Q 39.203125 38.921875 42.84375 42.21875 
Q 46.484375 45.515625 46.484375 51.90625 
Q 46.484375 58.296875 42.84375 61.546875 
Q 39.203125 64.796875 32.078125 64.796875 
z
" id="DejaVuSans-82"/>
       <path d="M 44.28125 53.078125 
L 44.28125 44.578125 
Q 40.484375 46.53125 36.375 47.5 
Q 32.28125 48.484375 27.875 48.484375 
Q 21.1875 48.484375 17.84375 46.4375 
Q 14.5 44.390625 14.5 40.28125 
Q 14.5 37.15625 16.890625 35.375 
Q 19.28125 33.59375 26.515625 31.984375 
L 29.59375 31.296875 
Q 39.15625 29.25 43.1875 25.515625 
Q 47.21875 21.78125 47.21875 15.09375 
Q 47.21875 7.46875 41.1875 3.015625 
Q 35.15625 -1.421875 24.609375 -1.421875 
Q 20.21875 -1.421875 15.453125 -0.5625 
Q 10.6875 0.296875 5.421875 2 
L 5.421875 11.28125 
Q 10.40625 8.6875 15.234375 7.390625 
Q 20.0625 6.109375 24.8125 6.109375 
Q 31.15625 6.109375 34.5625 8.28125 
Q 37.984375 10.453125 37.984375 14.40625 
Q 37.984375 18.0625 35.515625 20.015625 
Q 33.0625 21.96875 24.703125 23.78125 
L 21.578125 24.515625 
Q 13.234375 26.265625 9.515625 29.90625 
Q 5.8125 33.546875 5.8125 39.890625 
Q 5.8125 47.609375 11.28125 51.796875 
Q 16.75 56 26.8125 56 
Q 31.78125 56 36.171875 55.265625 
Q 40.578125 54.546875 44.28125 53.078125 
z
" id="DejaVuSans-115"/>
       <path d="M 18.3125 70.21875 
L 18.3125 54.6875 
L 36.8125 54.6875 
L 36.8125 47.703125 
L 18.3125 47.703125 
L 18.3125 18.015625 
Q 18.3125 11.328125 20.140625 9.421875 
Q 21.96875 7.515625 27.59375 7.515625 
L 36.8125 7.515625 
L 36.8125 0 
L 27.59375 0 
Q 17.1875 0 13.234375 3.875 
Q 9.28125 7.765625 9.28125 18.015625 
L 9.28125 47.703125 
L 2.6875 47.703125 
L 2.6875 54.6875 
L 9.28125 54.6875 
L 9.28125 70.21875 
z
" id="DejaVuSans-116"/>
      </defs>
      <g transform="translate(241.814747 198.198438)scale(0.1 -0.1)">
       <use xlink:href="#DejaVuSans-82"/>
       <use x="64.982422" xlink:href="#DejaVuSans-111"/>
       <use x="126.164062" xlink:href="#DejaVuSans-115"/>
       <use x="178.263672" xlink:href="#DejaVuSans-101"/>
       <use x="239.787109" xlink:href="#DejaVuSans-116"/>
       <use x="278.996094" xlink:href="#DejaVuSans-116"/>
       <use x="318.205078" xlink:href="#DejaVuSans-97"/>
      </g>
      <!-- (score) -->
      <defs>
       <path d="M 48.78125 52.59375 
L 48.78125 44.1875 
Q 44.96875 46.296875 41.140625 47.34375 
Q 37.3125 48.390625 33.40625 48.390625 
Q 24.65625 48.390625 19.8125 42.84375 
Q 14.984375 37.3125 14.984375 27.296875 
Q 14.984375 17.28125 19.8125 11.734375 
Q 24.65625 6.203125 33.40625 6.203125 
Q 37.3125 6.203125 41.140625 7.25 
Q 44.96875 8.296875 48.78125 10.40625 
L 48.78125 2.09375 
Q 45.015625 0.34375 40.984375 -0.53125 
Q 36.96875 -1.421875 32.421875 -1.421875 
Q 20.0625 -1.421875 12.78125 6.34375 
Q 5.515625 14.109375 5.515625 27.296875 
Q 5.515625 40.671875 12.859375 48.328125 
Q 20.21875 56 33.015625 56 
Q 37.15625 56 41.109375 55.140625 
Q 45.0625 54.296875 48.78125 52.59375 
z
" id="DejaVuSans-99"/>
      </defs>
      <g transform="translate(243.454591 209.39625)scale(0.1 -0.1)">
       <use xlink:href="#DejaVuSans-40"/>
       <use x="39.013672" xlink:href="#DejaVuSans-115"/>
       <use x="91.113281" xlink:href="#DejaVuSans-99"/>
       <use x="146.09375" xlink:href="#DejaVuSans-111"/>
       <use x="207.275391" xlink:href="#DejaVuSans-114"/>
       <use x="246.138672" xlink:href="#DejaVuSans-101"/>
       <use x="307.662109" xlink:href="#DejaVuSans-41"/>
      </g>
     </g>
    </g>
   </g>
   <g id="matplotlib.axis_10"/>
   <g id="LineCollection_5">
    <path clip-path="url(#p8c181c11eb)" d="M 238.669843 147.975581 
L 282.908088 147.975581 
" style="fill:none;stroke:#000000;stroke-dasharray:1.5,2.475;stroke-dashoffset:0;stroke-width:1.5;"/>
   </g>
   <g id="line2d_14">
    <path clip-path="url(#p8c181c11eb)" d="M 260.788966 168.000026 
L 260.788966 90.246175 
" style="fill:none;stroke:#4c4c4c;stroke-linecap:square;stroke-width:1.5;"/>
   </g>
   <g id="line2d_15">
    <path clip-path="url(#p8c181c11eb)" d="M 260.788966 138.84155 
L 260.788966 119.371835 
" style="fill:none;stroke:#4c4c4c;stroke-linecap:square;stroke-width:4.5;"/>
   </g>
   <g id="patch_15">
    <path d="M 236.457931 183.6 
L 285.12 183.6 
" style="fill:none;stroke:#000000;stroke-linecap:square;stroke-linejoin:miter;stroke-width:0.8;"/>
   </g>
   <g id="patch_16">
    <path d="M 236.457931 4.32 
L 285.12 4.32 
" style="fill:none;stroke:#000000;stroke-linecap:square;stroke-linejoin:miter;stroke-width:0.8;"/>
   </g>
   <g id="PathCollection_5">
    <g clip-path="url(#p8c181c11eb)">
     <use style="fill:#ffffff;stroke:#4c4c4c;" x="260.788966" xlink:href="#mfcf0a1b5ec" y="128.149068"/>
    </g>
   </g>
  </g>
 </g>
 <defs>
  <clipPath id="p2fd48ec7de">
   <rect height="179.28" width="48.662069" x="2.88" y="4.32"/>
  </clipPath>
  <clipPath id="p181c1e58dd">
   <rect height="179.28" width="48.662069" x="61.274483" y="4.32"/>
  </clipPath>
  <clipPath id="pe205b1180b">
   <rect height="179.28" width="48.662069" x="119.668966" y="4.32"/>
  </clipPath>
  <clipPath id="pc0859da29d">
   <rect height="179.28" width="48.662069" x="178.063448" y="4.32"/>
  </clipPath>
  <clipPath id="p8c181c11eb">
   <rect height="179.28" width="48.662069" x="236.457931" y="4.32"/>
  </clipPath>
 </defs>
</svg>
