<?xml version="1.0" encoding="utf-8" standalone="no"?>
<!DOCTYPE svg PUBLIC "-//W3C//DTD SVG 1.1//EN"
  "http://www.w3.org/Graphics/SVG/1.1/DTD/svg11.dtd">
<!-- Created with matplotlib (https://matplotlib.org/) -->
<svg height="216pt" version="1.1" viewBox="0 0 288 216" width="288pt" xmlns="http://www.w3.org/2000/svg" xmlns:xlink="http://www.w3.org/1999/xlink">
 <defs>
  <style type="text/css">
*{stroke-linecap:butt;stroke-linejoin:round;}
  </style>
 </defs>
 <g id="figure_1">
  <g id="patch_1">
   <path d="M 0 216 
L 288 216 
L 288 0 
L 0 0 
z
" style="fill:#ffffff;"/>
  </g>
  <g id="axes_1">
   <g id="patch_2">
    <path d="M 2.88 183.6 
L 51.542069 183.6 
L 51.542069 4.32 
L 2.88 4.32 
z
" style="fill:#ffffff;"/>
   </g>
   <g id="PolyCollection_1">
    <defs>
     <path d="M 27.213037 -40.549091 
L 27.209032 -40.549091 
L 27.176739 -42.195372 
L 26.998881 -43.841653 
L 26.419125 -45.487934 
L 24.785972 -47.134215 
L 21.882723 -48.780496 
L 18.690066 -50.426777 
L 15.985556 -52.073058 
L 12.940392 -53.719339 
L 9.45577 -55.36562 
L 7.102742 -57.011901 
L 7.51608 -58.658182 
L 10.416985 -60.304463 
L 13.786283 -61.950744 
L 16.938629 -63.597025 
L 19.649957 -65.243306 
L 21.955273 -66.889587 
L 23.615357 -68.535868 
L 24.612135 -70.182149 
L 25.224293 -71.82843 
L 25.636401 -73.474711 
L 25.947876 -75.120992 
L 26.08705 -76.767273 
L 26.12721 -78.413554 
L 26.135717 -80.059835 
L 26.158685 -81.706116 
L 26.295017 -83.352397 
L 26.538906 -84.998678 
L 26.689972 -86.644959 
L 26.817778 -88.29124 
L 26.949096 -89.937521 
L 26.996825 -91.583802 
L 27.059012 -93.230083 
L 27.11197 -94.876364 
L 27.120764 -96.522645 
L 27.149219 -98.168926 
L 27.180491 -99.815207 
L 27.201924 -101.461488 
L 27.201048 -103.107769 
L 27.198724 -104.75405 
L 27.205307 -106.400331 
L 27.204292 -108.046612 
L 27.200481 -109.692893 
L 27.203963 -111.339174 
L 27.205339 -112.985455 
L 27.204346 -114.631736 
L 27.19786 -116.278017 
L 27.203528 -117.924298 
L 27.203515 -119.570579 
L 27.194902 -121.21686 
L 27.199201 -122.86314 
L 27.203789 -124.509421 
L 27.203286 -126.155702 
L 27.196084 -127.801983 
L 27.202424 -129.448264 
L 27.20719 -131.094545 
L 27.208364 -132.740826 
L 27.202633 -134.387107 
L 27.205284 -136.033388 
L 27.210368 -137.679669 
L 27.211025 -139.32595 
L 27.211034 -140.972231 
L 27.211034 -142.618512 
L 27.211034 -144.264793 
L 27.211034 -145.911074 
L 27.211034 -147.557355 
L 27.211034 -149.203636 
L 27.211034 -150.849917 
L 27.211034 -152.496198 
L 27.211034 -154.142479 
L 27.211034 -155.78876 
L 27.211034 -157.435041 
L 27.211034 -159.081322 
L 27.211034 -160.727603 
L 27.211034 -162.373884 
L 27.211034 -164.020165 
L 27.211034 -165.666446 
L 27.211034 -167.312727 
L 27.211034 -168.959008 
L 27.211034 -170.605289 
L 27.211034 -172.25157 
L 27.211034 -173.897851 
L 27.211034 -175.544132 
L 27.211034 -177.190413 
L 27.211034 -178.836694 
L 27.211034 -180.482975 
L 27.211034 -182.129256 
L 27.211034 -183.775537 
L 27.211034 -185.421818 
L 27.211034 -187.068099 
L 27.211034 -188.71438 
L 27.211002 -190.360661 
L 27.20979 -192.006942 
L 27.20596 -193.653223 
L 27.20885 -195.299504 
L 27.210933 -196.945785 
L 27.210806 -198.592066 
L 27.207898 -200.238347 
L 27.206478 -201.884628 
L 27.210336 -203.530909 
L 27.211733 -203.530909 
L 27.211733 -203.530909 
L 27.215591 -201.884628 
L 27.214171 -200.238347 
L 27.211263 -198.592066 
L 27.211136 -196.945785 
L 27.213219 -195.299504 
L 27.216109 -193.653223 
L 27.212279 -192.006942 
L 27.211067 -190.360661 
L 27.211035 -188.71438 
L 27.211034 -187.068099 
L 27.211034 -185.421818 
L 27.211034 -183.775537 
L 27.211034 -182.129256 
L 27.211034 -180.482975 
L 27.211034 -178.836694 
L 27.211034 -177.190413 
L 27.211034 -175.544132 
L 27.211034 -173.897851 
L 27.211034 -172.25157 
L 27.211034 -170.605289 
L 27.211034 -168.959008 
L 27.211034 -167.312727 
L 27.211034 -165.666446 
L 27.211034 -164.020165 
L 27.211034 -162.373884 
L 27.211034 -160.727603 
L 27.211034 -159.081322 
L 27.211034 -157.435041 
L 27.211034 -155.78876 
L 27.211034 -154.142479 
L 27.211034 -152.496198 
L 27.211034 -150.849917 
L 27.211034 -149.203636 
L 27.211034 -147.557355 
L 27.211034 -145.911074 
L 27.211034 -144.264793 
L 27.211034 -142.618512 
L 27.211034 -140.972231 
L 27.211044 -139.32595 
L 27.211701 -137.679669 
L 27.216785 -136.033388 
L 27.219436 -134.387107 
L 27.213705 -132.740826 
L 27.214879 -131.094545 
L 27.219645 -129.448264 
L 27.225985 -127.801983 
L 27.218783 -126.155702 
L 27.21828 -124.509421 
L 27.222868 -122.86314 
L 27.227167 -121.21686 
L 27.218554 -119.570579 
L 27.218541 -117.924298 
L 27.224209 -116.278017 
L 27.217723 -114.631736 
L 27.21673 -112.985455 
L 27.218106 -111.339174 
L 27.221588 -109.692893 
L 27.217777 -108.046612 
L 27.216762 -106.400331 
L 27.223345 -104.75405 
L 27.221021 -103.107769 
L 27.220145 -101.461488 
L 27.241577 -99.815207 
L 27.27285 -98.168926 
L 27.301305 -96.522645 
L 27.310099 -94.876364 
L 27.363057 -93.230083 
L 27.425244 -91.583802 
L 27.472973 -89.937521 
L 27.604291 -88.29124 
L 27.732097 -86.644959 
L 27.883163 -84.998678 
L 28.127052 -83.352397 
L 28.263384 -81.706116 
L 28.286352 -80.059835 
L 28.294859 -78.413554 
L 28.335019 -76.767273 
L 28.474193 -75.120992 
L 28.785668 -73.474711 
L 29.197775 -71.82843 
L 29.809934 -70.182149 
L 30.806712 -68.535868 
L 32.466796 -66.889587 
L 34.772112 -65.243306 
L 37.48344 -63.597025 
L 40.635786 -61.950744 
L 44.005084 -60.304463 
L 46.905989 -58.658182 
L 47.319327 -57.011901 
L 44.966299 -55.36562 
L 41.481677 -53.719339 
L 38.436513 -52.073058 
L 35.732003 -50.426777 
L 32.539346 -48.780496 
L 29.636097 -47.134215 
L 28.002944 -45.487934 
L 27.423188 -43.841653 
L 27.24533 -42.195372 
L 27.213037 -40.549091 
z
" id="me9f73712b6" style="stroke:#4c4c4c;stroke-width:1.5;"/>
    </defs>
    <g clip-path="url(#pe4281461f1)">
     <use style="fill:#cb3335;stroke:#4c4c4c;stroke-width:1.5;" x="0" xlink:href="#me9f73712b6" y="216"/>
    </g>
   </g>
   <g id="matplotlib.axis_1">
    <g id="xtick_1">
     <g id="line2d_1">
      <defs>
       <path d="M 0 0 
L 0 3.5 
" id="m8a9bf6125c" style="stroke:#000000;stroke-width:0.8;"/>
      </defs>
      <g>
       <use style="stroke:#000000;stroke-width:0.8;" x="27.211034" xlink:href="#m8a9bf6125c" y="183.6"/>
      </g>
     </g>
     <g id="text_1">
      <!-- Modeller -->
      <defs>
       <path d="M 9.8125 72.90625 
L 24.515625 72.90625 
L 43.109375 23.296875 
L 61.8125 72.90625 
L 76.515625 72.90625 
L 76.515625 0 
L 66.890625 0 
L 66.890625 64.015625 
L 48.09375 14.015625 
L 38.1875 14.015625 
L 19.390625 64.015625 
L 19.390625 0 
L 9.8125 0 
z
" id="DejaVuSans-77"/>
       <path d="M 30.609375 48.390625 
Q 23.390625 48.390625 19.1875 42.75 
Q 14.984375 37.109375 14.984375 27.296875 
Q 14.984375 17.484375 19.15625 11.84375 
Q 23.34375 6.203125 30.609375 6.203125 
Q 37.796875 6.203125 41.984375 11.859375 
Q 46.1875 17.53125 46.1875 27.296875 
Q 46.1875 37.015625 41.984375 42.703125 
Q 37.796875 48.390625 30.609375 48.390625 
z
M 30.609375 56 
Q 42.328125 56 49.015625 48.375 
Q 55.71875 40.765625 55.71875 27.296875 
Q 55.71875 13.875 49.015625 6.21875 
Q 42.328125 -1.421875 30.609375 -1.421875 
Q 18.84375 -1.421875 12.171875 6.21875 
Q 5.515625 13.875 5.515625 27.296875 
Q 5.515625 40.765625 12.171875 48.375 
Q 18.84375 56 30.609375 56 
z
" id="DejaVuSans-111"/>
       <path d="M 45.40625 46.390625 
L 45.40625 75.984375 
L 54.390625 75.984375 
L 54.390625 0 
L 45.40625 0 
L 45.40625 8.203125 
Q 42.578125 3.328125 38.25 0.953125 
Q 33.9375 -1.421875 27.875 -1.421875 
Q 17.96875 -1.421875 11.734375 6.484375 
Q 5.515625 14.40625 5.515625 27.296875 
Q 5.515625 40.1875 11.734375 48.09375 
Q 17.96875 56 27.875 56 
Q 33.9375 56 38.25 53.625 
Q 42.578125 51.265625 45.40625 46.390625 
z
M 14.796875 27.296875 
Q 14.796875 17.390625 18.875 11.75 
Q 22.953125 6.109375 30.078125 6.109375 
Q 37.203125 6.109375 41.296875 11.75 
Q 45.40625 17.390625 45.40625 27.296875 
Q 45.40625 37.203125 41.296875 42.84375 
Q 37.203125 48.484375 30.078125 48.484375 
Q 22.953125 48.484375 18.875 42.84375 
Q 14.796875 37.203125 14.796875 27.296875 
z
" id="DejaVuSans-100"/>
       <path d="M 56.203125 29.59375 
L 56.203125 25.203125 
L 14.890625 25.203125 
Q 15.484375 15.921875 20.484375 11.0625 
Q 25.484375 6.203125 34.421875 6.203125 
Q 39.59375 6.203125 44.453125 7.46875 
Q 49.3125 8.734375 54.109375 11.28125 
L 54.109375 2.78125 
Q 49.265625 0.734375 44.1875 -0.34375 
Q 39.109375 -1.421875 33.890625 -1.421875 
Q 20.796875 -1.421875 13.15625 6.1875 
Q 5.515625 13.8125 5.515625 26.8125 
Q 5.515625 40.234375 12.765625 48.109375 
Q 20.015625 56 32.328125 56 
Q 43.359375 56 49.78125 48.890625 
Q 56.203125 41.796875 56.203125 29.59375 
z
M 47.21875 32.234375 
Q 47.125 39.59375 43.09375 43.984375 
Q 39.0625 48.390625 32.421875 48.390625 
Q 24.90625 48.390625 20.390625 44.140625 
Q 15.875 39.890625 15.1875 32.171875 
z
" id="DejaVuSans-101"/>
       <path d="M 9.421875 75.984375 
L 18.40625 75.984375 
L 18.40625 0 
L 9.421875 0 
z
" id="DejaVuSans-108"/>
       <path d="M 41.109375 46.296875 
Q 39.59375 47.171875 37.8125 47.578125 
Q 36.03125 48 33.890625 48 
Q 26.265625 48 22.1875 43.046875 
Q 18.109375 38.09375 18.109375 28.8125 
L 18.109375 0 
L 9.078125 0 
L 9.078125 54.6875 
L 18.109375 54.6875 
L 18.109375 46.1875 
Q 20.953125 51.171875 25.484375 53.578125 
Q 30.03125 56 36.53125 56 
Q 37.453125 56 38.578125 55.875 
Q 39.703125 55.765625 41.0625 55.515625 
z
" id="DejaVuSans-114"/>
      </defs>
      <g transform="translate(5.676659 198.198438)scale(0.1 -0.1)">
       <use xlink:href="#DejaVuSans-77"/>
       <use x="86.279297" xlink:href="#DejaVuSans-111"/>
       <use x="147.460938" xlink:href="#DejaVuSans-100"/>
       <use x="210.9375" xlink:href="#DejaVuSans-101"/>
       <use x="272.460938" xlink:href="#DejaVuSans-108"/>
       <use x="300.244141" xlink:href="#DejaVuSans-108"/>
       <use x="328.027344" xlink:href="#DejaVuSans-101"/>
       <use x="389.550781" xlink:href="#DejaVuSans-114"/>
      </g>
      <!-- (molpdf) -->
      <defs>
       <path d="M 31 75.875 
Q 24.46875 64.65625 21.28125 53.65625 
Q 18.109375 42.671875 18.109375 31.390625 
Q 18.109375 20.125 21.3125 9.0625 
Q 24.515625 -2 31 -13.1875 
L 23.1875 -13.1875 
Q 15.875 -1.703125 12.234375 9.375 
Q 8.59375 20.453125 8.59375 31.390625 
Q 8.59375 42.28125 12.203125 53.3125 
Q 15.828125 64.359375 23.1875 75.875 
z
" id="DejaVuSans-40"/>
       <path d="M 52 44.1875 
Q 55.375 50.25 60.0625 53.125 
Q 64.75 56 71.09375 56 
Q 79.640625 56 84.28125 50.015625 
Q 88.921875 44.046875 88.921875 33.015625 
L 88.921875 0 
L 79.890625 0 
L 79.890625 32.71875 
Q 79.890625 40.578125 77.09375 44.375 
Q 74.3125 48.1875 68.609375 48.1875 
Q 61.625 48.1875 57.5625 43.546875 
Q 53.515625 38.921875 53.515625 30.90625 
L 53.515625 0 
L 44.484375 0 
L 44.484375 32.71875 
Q 44.484375 40.625 41.703125 44.40625 
Q 38.921875 48.1875 33.109375 48.1875 
Q 26.21875 48.1875 22.15625 43.53125 
Q 18.109375 38.875 18.109375 30.90625 
L 18.109375 0 
L 9.078125 0 
L 9.078125 54.6875 
L 18.109375 54.6875 
L 18.109375 46.1875 
Q 21.1875 51.21875 25.484375 53.609375 
Q 29.78125 56 35.6875 56 
Q 41.65625 56 45.828125 52.96875 
Q 50 49.953125 52 44.1875 
z
" id="DejaVuSans-109"/>
       <path d="M 18.109375 8.203125 
L 18.109375 -20.796875 
L 9.078125 -20.796875 
L 9.078125 54.6875 
L 18.109375 54.6875 
L 18.109375 46.390625 
Q 20.953125 51.265625 25.265625 53.625 
Q 29.59375 56 35.59375 56 
Q 45.5625 56 51.78125 48.09375 
Q 58.015625 40.1875 58.015625 27.296875 
Q 58.015625 14.40625 51.78125 6.484375 
Q 45.5625 -1.421875 35.59375 -1.421875 
Q 29.59375 -1.421875 25.265625 0.953125 
Q 20.953125 3.328125 18.109375 8.203125 
z
M 48.6875 27.296875 
Q 48.6875 37.203125 44.609375 42.84375 
Q 40.53125 48.484375 33.40625 48.484375 
Q 26.265625 48.484375 22.1875 42.84375 
Q 18.109375 37.203125 18.109375 27.296875 
Q 18.109375 17.390625 22.1875 11.75 
Q 26.265625 6.109375 33.40625 6.109375 
Q 40.53125 6.109375 44.609375 11.75 
Q 48.6875 17.390625 48.6875 27.296875 
z
" id="DejaVuSans-112"/>
       <path d="M 37.109375 75.984375 
L 37.109375 68.5 
L 28.515625 68.5 
Q 23.6875 68.5 21.796875 66.546875 
Q 19.921875 64.59375 19.921875 59.515625 
L 19.921875 54.6875 
L 34.71875 54.6875 
L 34.71875 47.703125 
L 19.921875 47.703125 
L 19.921875 0 
L 10.890625 0 
L 10.890625 47.703125 
L 2.296875 47.703125 
L 2.296875 54.6875 
L 10.890625 54.6875 
L 10.890625 58.5 
Q 10.890625 67.625 15.140625 71.796875 
Q 19.390625 75.984375 28.609375 75.984375 
z
" id="DejaVuSans-102"/>
       <path d="M 8.015625 75.875 
L 15.828125 75.875 
Q 23.140625 64.359375 26.78125 53.3125 
Q 30.421875 42.28125 30.421875 31.390625 
Q 30.421875 20.453125 26.78125 9.375 
Q 23.140625 -1.703125 15.828125 -13.1875 
L 8.015625 -13.1875 
Q 14.5 -2 17.703125 9.0625 
Q 20.90625 20.125 20.90625 31.390625 
Q 20.90625 42.671875 17.703125 53.65625 
Q 14.5 64.65625 8.015625 75.875 
z
" id="DejaVuSans-41"/>
      </defs>
      <g transform="translate(5.882128 209.39625)scale(0.1 -0.1)">
       <use xlink:href="#DejaVuSans-40"/>
       <use x="39.013672" xlink:href="#DejaVuSans-109"/>
       <use x="136.425781" xlink:href="#DejaVuSans-111"/>
       <use x="197.607422" xlink:href="#DejaVuSans-108"/>
       <use x="225.390625" xlink:href="#DejaVuSans-112"/>
       <use x="288.867188" xlink:href="#DejaVuSans-100"/>
       <use x="352.34375" xlink:href="#DejaVuSans-102"/>
       <use x="387.548828" xlink:href="#DejaVuSans-41"/>
      </g>
     </g>
    </g>
   </g>
   <g id="matplotlib.axis_2"/>
   <g id="LineCollection_1">
    <path clip-path="url(#pe4281461f1)" d="M 5.091912 156.661062 
L 49.330157 156.661062 
" style="fill:none;stroke:#000000;stroke-dasharray:1.5,2.475;stroke-dashoffset:0;stroke-width:1.5;"/>
   </g>
   <g id="line2d_2">
    <path clip-path="url(#pe4281461f1)" d="M 27.211034 173.100582 
L 27.211034 141.643633 
" style="fill:none;stroke:#4c4c4c;stroke-linecap:square;stroke-width:1.5;"/>
   </g>
   <g id="line2d_3">
    <path clip-path="url(#pe4281461f1)" d="M 27.211034 161.354854 
L 27.211034 153.467102 
" style="fill:none;stroke:#4c4c4c;stroke-linecap:square;stroke-width:4.5;"/>
   </g>
   <g id="patch_3">
    <path d="M 2.88 183.6 
L 51.542069 183.6 
" style="fill:none;stroke:#000000;stroke-linecap:square;stroke-linejoin:miter;stroke-width:0.8;"/>
   </g>
   <g id="patch_4">
    <path d="M 2.88 4.32 
L 51.542069 4.32 
" style="fill:none;stroke:#000000;stroke-linecap:square;stroke-linejoin:miter;stroke-width:0.8;"/>
   </g>
   <g id="PathCollection_1">
    <defs>
     <path d="M 0 1.5 
C 0.397805 1.5 0.77937 1.341951 1.06066 1.06066 
C 1.341951 0.77937 1.5 0.397805 1.5 0 
C 1.5 -0.397805 1.341951 -0.77937 1.06066 -1.06066 
C 0.77937 -1.341951 0.397805 -1.5 0 -1.5 
C -0.397805 -1.5 -0.77937 -1.341951 -1.06066 -1.06066 
C -1.341951 -0.77937 -1.5 -0.397805 -1.5 0 
C -1.5 0.397805 -1.341951 0.77937 -1.06066 1.06066 
C -0.77937 1.341951 -0.397805 1.5 0 1.5 
z
" id="m4987be9619" style="stroke:#4c4c4c;"/>
    </defs>
    <g clip-path="url(#pe4281461f1)">
     <use style="fill:#ffffff;stroke:#4c4c4c;" x="27.211034" xlink:href="#m4987be9619" y="157.708583"/>
    </g>
   </g>
  </g>
  <g id="axes_2">
   <g id="patch_5">
    <path d="M 61.274483 183.6 
L 109.936552 183.6 
L 109.936552 4.32 
L 61.274483 4.32 
z
" style="fill:#ffffff;"/>
   </g>
   <g id="PolyCollection_2">
    <defs>
     <path d="M 85.606971 -40.549091 
L 85.604064 -40.549091 
L 85.600642 -42.195372 
L 85.594296 -43.841653 
L 85.58652 -45.487934 
L 85.578838 -47.134215 
L 85.570827 -48.780496 
L 85.562876 -50.426777 
L 85.555289 -52.073058 
L 85.544113 -53.719339 
L 85.524649 -55.36562 
L 85.497322 -57.011901 
L 85.465946 -58.658182 
L 85.431563 -60.304463 
L 85.390339 -61.950744 
L 85.335696 -63.597025 
L 85.258188 -65.243306 
L 85.144049 -66.889587 
L 84.975281 -68.535868 
L 84.736942 -70.182149 
L 84.434858 -71.82843 
L 84.097296 -73.474711 
L 83.743198 -75.120992 
L 83.362137 -76.767273 
L 82.936018 -78.413554 
L 82.441478 -80.059835 
L 81.821834 -81.706116 
L 81.015268 -83.352397 
L 80.009516 -84.998678 
L 78.841461 -86.644959 
L 77.59123 -88.29124 
L 76.362353 -89.937521 
L 75.198574 -91.583802 
L 74.054241 -93.230083 
L 72.896482 -94.876364 
L 71.780749 -96.522645 
L 70.754759 -98.168926 
L 69.761938 -99.815207 
L 68.713985 -101.461488 
L 67.611058 -103.107769 
L 66.592637 -104.75405 
L 65.867255 -106.400331 
L 65.531315 -108.046612 
L 65.497224 -109.692893 
L 65.644251 -111.339174 
L 65.917866 -112.985455 
L 66.27519 -114.631736 
L 66.669682 -116.278017 
L 67.097337 -117.924298 
L 67.613272 -119.570579 
L 68.305072 -121.21686 
L 69.251419 -122.86314 
L 70.431136 -124.509421 
L 71.690788 -126.155702 
L 72.860338 -127.801983 
L 73.893069 -129.448264 
L 74.886798 -131.094545 
L 75.911585 -132.740826 
L 76.892413 -134.387107 
L 77.727272 -136.033388 
L 78.418815 -137.679669 
L 79.046343 -139.32595 
L 79.662948 -140.972231 
L 80.280528 -142.618512 
L 80.91482 -144.264793 
L 81.557488 -145.911074 
L 82.150606 -147.557355 
L 82.654068 -149.203636 
L 83.071402 -150.849917 
L 83.416925 -152.496198 
L 83.721105 -154.142479 
L 84.013205 -155.78876 
L 84.28485 -157.435041 
L 84.515855 -159.081322 
L 84.700362 -160.727603 
L 84.839592 -162.373884 
L 84.950018 -164.020165 
L 85.056854 -165.666446 
L 85.164641 -167.312727 
L 85.258655 -168.959008 
L 85.328948 -170.605289 
L 85.376129 -172.25157 
L 85.406138 -173.897851 
L 85.430027 -175.544132 
L 85.458777 -177.190413 
L 85.495199 -178.836694 
L 85.533193 -180.482975 
L 85.562437 -182.129256 
L 85.576786 -183.775537 
L 85.57977 -185.421818 
L 85.580272 -187.068099 
L 85.584142 -188.71438 
L 85.591058 -190.360661 
L 85.597761 -192.006942 
L 85.601564 -193.653223 
L 85.601662 -195.299504 
L 85.59956 -196.945785 
L 85.598366 -198.592066 
L 85.599852 -200.238347 
L 85.602609 -201.884628 
L 85.604552 -203.530909 
L 85.606483 -203.530909 
L 85.606483 -203.530909 
L 85.608425 -201.884628 
L 85.611182 -200.238347 
L 85.612669 -198.592066 
L 85.611474 -196.945785 
L 85.609372 -195.299504 
L 85.609471 -193.653223 
L 85.613274 -192.006942 
L 85.619976 -190.360661 
L 85.626892 -188.71438 
L 85.630763 -187.068099 
L 85.631265 -185.421818 
L 85.634249 -183.775537 
L 85.648597 -182.129256 
L 85.677841 -180.482975 
L 85.715836 -178.836694 
L 85.752258 -177.190413 
L 85.781007 -175.544132 
L 85.804896 -173.897851 
L 85.834906 -172.25157 
L 85.882087 -170.605289 
L 85.95238 -168.959008 
L 86.046394 -167.312727 
L 86.154181 -165.666446 
L 86.261016 -164.020165 
L 86.371443 -162.373884 
L 86.510672 -160.727603 
L 86.695179 -159.081322 
L 86.926184 -157.435041 
L 87.19783 -155.78876 
L 87.48993 -154.142479 
L 87.79411 -152.496198 
L 88.139633 -150.849917 
L 88.556966 -149.203636 
L 89.060428 -147.557355 
L 89.653546 -145.911074 
L 90.296215 -144.264793 
L 90.930507 -142.618512 
L 91.548086 -140.972231 
L 92.164691 -139.32595 
L 92.79222 -137.679669 
L 93.483762 -136.033388 
L 94.318621 -134.387107 
L 95.299449 -132.740826 
L 96.324237 -131.094545 
L 97.317965 -129.448264 
L 98.350697 -127.801983 
L 99.520246 -126.155702 
L 100.779899 -124.509421 
L 101.959616 -122.86314 
L 102.905962 -121.21686 
L 103.597762 -119.570579 
L 104.113698 -117.924298 
L 104.541353 -116.278017 
L 104.935844 -114.631736 
L 105.293169 -112.985455 
L 105.566783 -111.339174 
L 105.71381 -109.692893 
L 105.67972 -108.046612 
L 105.34378 -106.400331 
L 104.618398 -104.75405 
L 103.599976 -103.107769 
L 102.49705 -101.461488 
L 101.449096 -99.815207 
L 100.456275 -98.168926 
L 99.430286 -96.522645 
L 98.314552 -94.876364 
L 97.156794 -93.230083 
L 96.01246 -91.583802 
L 94.848681 -89.937521 
L 93.619805 -88.29124 
L 92.369574 -86.644959 
L 91.201519 -84.998678 
L 90.195767 -83.352397 
L 89.3892 -81.706116 
L 88.769556 -80.059835 
L 88.275017 -78.413554 
L 87.848897 -76.767273 
L 87.467836 -75.120992 
L 87.113738 -73.474711 
L 86.776177 -71.82843 
L 86.474093 -70.182149 
L 86.235754 -68.535868 
L 86.066986 -66.889587 
L 85.952847 -65.243306 
L 85.875339 -63.597025 
L 85.820695 -61.950744 
L 85.779471 -60.304463 
L 85.745089 -58.658182 
L 85.713712 -57.011901 
L 85.686386 -55.36562 
L 85.666922 -53.719339 
L 85.655745 -52.073058 
L 85.648158 -50.426777 
L 85.640207 -48.780496 
L 85.632197 -47.134215 
L 85.624514 -45.487934 
L 85.616738 -43.841653 
L 85.610393 -42.195372 
L 85.606971 -40.549091 
z
" id="m3a146a6503" style="stroke:#484848;stroke-width:1.5;"/>
    </defs>
    <g clip-path="url(#pccf54fef35)">
     <use style="fill:#477ca8;stroke:#484848;stroke-width:1.5;" x="0" xlink:href="#m3a146a6503" y="216"/>
    </g>
   </g>
   <g id="matplotlib.axis_3">
    <g id="xtick_2">
     <g id="line2d_4">
      <g>
       <use style="stroke:#000000;stroke-width:0.8;" x="85.605517" xlink:href="#m8a9bf6125c" y="183.6"/>
      </g>
     </g>
     <g id="text_2">
      <!-- Modeller -->
      <g transform="translate(64.071142 198.198438)scale(0.1 -0.1)">
       <use xlink:href="#DejaVuSans-77"/>
       <use x="86.279297" xlink:href="#DejaVuSans-111"/>
       <use x="147.460938" xlink:href="#DejaVuSans-100"/>
       <use x="210.9375" xlink:href="#DejaVuSans-101"/>
       <use x="272.460938" xlink:href="#DejaVuSans-108"/>
       <use x="300.244141" xlink:href="#DejaVuSans-108"/>
       <use x="328.027344" xlink:href="#DejaVuSans-101"/>
       <use x="389.550781" xlink:href="#DejaVuSans-114"/>
      </g>
      <!-- (dope_norm) -->
      <defs>
       <path d="M 50.984375 -16.609375 
L 50.984375 -23.578125 
L -0.984375 -23.578125 
L -0.984375 -16.609375 
z
" id="DejaVuSans-95"/>
       <path d="M 54.890625 33.015625 
L 54.890625 0 
L 45.90625 0 
L 45.90625 32.71875 
Q 45.90625 40.484375 42.875 44.328125 
Q 39.84375 48.1875 33.796875 48.1875 
Q 26.515625 48.1875 22.3125 43.546875 
Q 18.109375 38.921875 18.109375 30.90625 
L 18.109375 0 
L 9.078125 0 
L 9.078125 54.6875 
L 18.109375 54.6875 
L 18.109375 46.1875 
Q 21.34375 51.125 25.703125 53.5625 
Q 30.078125 56 35.796875 56 
Q 45.21875 56 50.046875 50.171875 
Q 54.890625 44.34375 54.890625 33.015625 
z
" id="DejaVuSans-110"/>
      </defs>
      <g transform="translate(53.653173 209.39625)scale(0.1 -0.1)">
       <use xlink:href="#DejaVuSans-40"/>
       <use x="39.013672" xlink:href="#DejaVuSans-100"/>
       <use x="102.490234" xlink:href="#DejaVuSans-111"/>
       <use x="163.671875" xlink:href="#DejaVuSans-112"/>
       <use x="227.148438" xlink:href="#DejaVuSans-101"/>
       <use x="288.671875" xlink:href="#DejaVuSans-95"/>
       <use x="338.671875" xlink:href="#DejaVuSans-110"/>
       <use x="402.050781" xlink:href="#DejaVuSans-111"/>
       <use x="463.232422" xlink:href="#DejaVuSans-114"/>
       <use x="502.595703" xlink:href="#DejaVuSans-109"/>
       <use x="600.007812" xlink:href="#DejaVuSans-41"/>
      </g>
     </g>
    </g>
   </g>
   <g id="matplotlib.axis_4"/>
   <g id="LineCollection_2">
    <path clip-path="url(#pccf54fef35)" d="M 63.486395 75.12899 
L 107.724639 75.12899 
" style="fill:none;stroke:#000000;stroke-dasharray:1.5,2.475;stroke-dashoffset:0;stroke-width:1.5;"/>
   </g>
   <g id="line2d_5">
    <path clip-path="url(#pccf54fef35)" d="M 85.605517 150.461955 
L 85.605517 55.51076 
" style="fill:none;stroke:#484848;stroke-linecap:square;stroke-width:1.5;"/>
   </g>
   <g id="line2d_6">
    <path clip-path="url(#pccf54fef35)" d="M 85.605517 115.063194 
L 85.605517 91.236424 
" style="fill:none;stroke:#484848;stroke-linecap:square;stroke-width:4.5;"/>
   </g>
   <g id="patch_6">
    <path d="M 61.274483 183.6 
L 109.936552 183.6 
" style="fill:none;stroke:#000000;stroke-linecap:square;stroke-linejoin:miter;stroke-width:0.8;"/>
   </g>
   <g id="patch_7">
    <path d="M 61.274483 4.32 
L 109.936552 4.32 
" style="fill:none;stroke:#000000;stroke-linecap:square;stroke-linejoin:miter;stroke-width:0.8;"/>
   </g>
   <g id="PathCollection_2">
    <defs>
     <path d="M 0 1.5 
C 0.397805 1.5 0.77937 1.341951 1.06066 1.06066 
C 1.341951 0.77937 1.5 0.397805 1.5 0 
C 1.5 -0.397805 1.341951 -0.77937 1.06066 -1.06066 
C 0.77937 -1.341951 0.397805 -1.5 0 -1.5 
C -0.397805 -1.5 -0.77937 -1.341951 -1.06066 -1.06066 
C -1.341951 -0.77937 -1.5 -0.397805 -1.5 0 
C -1.5 0.397805 -1.341951 0.77937 -1.06066 1.06066 
C -0.77937 1.341951 -0.397805 1.5 0 1.5 
z
" id="m0e197fcc67" style="stroke:#484848;"/>
    </defs>
    <g clip-path="url(#pccf54fef35)">
     <use style="fill:#ffffff;stroke:#484848;" x="85.605517" xlink:href="#m0e197fcc67" y="103.561659"/>
    </g>
   </g>
  </g>
  <g id="axes_3">
   <g id="patch_8">
    <path d="M 119.668966 183.6 
L 168.331034 183.6 
L 168.331034 4.32 
L 119.668966 4.32 
z
" style="fill:#ffffff;"/>
   </g>
   <g id="PolyCollection_3">
    <defs>
     <path d="M 144.002257 -40.549091 
L 143.997743 -40.549091 
L 143.990892 -42.195372 
L 143.973863 -43.841653 
L 143.941792 -45.487934 
L 143.886112 -47.134215 
L 143.787828 -48.780496 
L 143.628776 -50.426777 
L 143.406036 -52.073058 
L 143.113892 -53.719339 
L 142.717749 -55.36562 
L 142.172522 -57.011901 
L 141.463214 -58.658182 
L 140.599971 -60.304463 
L 139.584866 -61.950744 
L 138.409022 -63.597025 
L 137.094593 -65.243306 
L 135.707952 -66.889587 
L 134.302389 -68.535868 
L 132.922125 -70.182149 
L 131.645539 -71.82843 
L 130.547627 -73.474711 
L 129.649309 -75.120992 
L 128.906909 -76.767273 
L 128.218784 -78.413554 
L 127.477643 -80.059835 
L 126.634518 -81.706116 
L 125.709394 -83.352397 
L 124.826633 -84.998678 
L 124.185435 -86.644959 
L 123.893157 -88.29124 
L 123.891707 -89.937521 
L 124.067122 -91.583802 
L 124.405373 -93.230083 
L 124.975397 -94.876364 
L 125.746925 -96.522645 
L 126.552665 -98.168926 
L 127.254563 -99.815207 
L 127.923238 -101.461488 
L 128.760083 -103.107769 
L 129.799695 -104.75405 
L 130.862989 -106.400331 
L 131.803538 -108.046612 
L 132.640396 -109.692893 
L 133.491981 -111.339174 
L 134.406103 -112.985455 
L 135.293244 -114.631736 
L 136.07229 -116.278017 
L 136.760596 -117.924298 
L 137.446482 -119.570579 
L 138.205226 -121.21686 
L 139.015216 -122.86314 
L 139.778369 -124.509421 
L 140.402893 -126.155702 
L 140.879105 -127.801983 
L 141.276181 -129.448264 
L 141.663059 -131.094545 
L 142.051198 -132.740826 
L 142.39694 -134.387107 
L 142.663648 -136.033388 
L 142.871729 -137.679669 
L 143.053043 -139.32595 
L 143.198621 -140.972231 
L 143.298233 -142.618512 
L 143.379452 -144.264793 
L 143.46919 -145.911074 
L 143.562116 -147.557355 
L 143.64334 -149.203636 
L 143.711093 -150.849917 
L 143.773324 -152.496198 
L 143.83329 -154.142479 
L 143.883497 -155.78876 
L 143.919303 -157.435041 
L 143.944808 -159.081322 
L 143.961303 -160.727603 
L 143.967392 -162.373884 
L 143.968025 -164.020165 
L 143.971343 -165.666446 
L 143.979737 -167.312727 
L 143.988426 -168.959008 
L 143.992341 -170.605289 
L 143.99238 -172.25157 
L 143.992957 -173.897851 
L 143.995555 -175.544132 
L 143.998203 -177.190413 
L 143.999539 -178.836694 
L 143.999925 -180.482975 
L 143.999992 -182.129256 
L 143.999999 -183.775537 
L 144 -185.421818 
L 144 -187.068099 
L 143.999998 -188.71438 
L 143.999978 -190.360661 
L 143.999824 -192.006942 
L 143.999115 -193.653223 
L 143.997177 -195.299504 
L 143.994295 -196.945785 
L 143.992699 -198.592066 
L 143.994081 -200.238347 
L 143.996961 -201.884628 
L 143.999011 -203.530909 
L 144.000989 -203.530909 
L 144.000989 -203.530909 
L 144.003039 -201.884628 
L 144.005919 -200.238347 
L 144.007301 -198.592066 
L 144.005705 -196.945785 
L 144.002823 -195.299504 
L 144.000885 -193.653223 
L 144.000176 -192.006942 
L 144.000022 -190.360661 
L 144.000002 -188.71438 
L 144 -187.068099 
L 144 -185.421818 
L 144.000001 -183.775537 
L 144.000008 -182.129256 
L 144.000075 -180.482975 
L 144.000461 -178.836694 
L 144.001797 -177.190413 
L 144.004445 -175.544132 
L 144.007043 -173.897851 
L 144.00762 -172.25157 
L 144.007659 -170.605289 
L 144.011574 -168.959008 
L 144.020263 -167.312727 
L 144.028657 -165.666446 
L 144.031975 -164.020165 
L 144.032608 -162.373884 
L 144.038697 -160.727603 
L 144.055192 -159.081322 
L 144.080697 -157.435041 
L 144.116503 -155.78876 
L 144.16671 -154.142479 
L 144.226676 -152.496198 
L 144.288907 -150.849917 
L 144.35666 -149.203636 
L 144.437884 -147.557355 
L 144.53081 -145.911074 
L 144.620548 -144.264793 
L 144.701767 -142.618512 
L 144.801379 -140.972231 
L 144.946957 -139.32595 
L 145.128271 -137.679669 
L 145.336352 -136.033388 
L 145.60306 -134.387107 
L 145.948802 -132.740826 
L 146.336941 -131.094545 
L 146.723819 -129.448264 
L 147.120895 -127.801983 
L 147.597107 -126.155702 
L 148.221631 -124.509421 
L 148.984784 -122.86314 
L 149.794774 -121.21686 
L 150.553518 -119.570579 
L 151.239404 -117.924298 
L 151.92771 -116.278017 
L 152.706756 -114.631736 
L 153.593897 -112.985455 
L 154.508019 -111.339174 
L 155.359604 -109.692893 
L 156.196462 -108.046612 
L 157.137011 -106.400331 
L 158.200305 -104.75405 
L 159.239917 -103.107769 
L 160.076762 -101.461488 
L 160.745437 -99.815207 
L 161.447335 -98.168926 
L 162.253075 -96.522645 
L 163.024603 -94.876364 
L 163.594627 -93.230083 
L 163.932878 -91.583802 
L 164.108293 -89.937521 
L 164.106843 -88.29124 
L 163.814565 -86.644959 
L 163.173367 -84.998678 
L 162.290606 -83.352397 
L 161.365482 -81.706116 
L 160.522357 -80.059835 
L 159.781216 -78.413554 
L 159.093091 -76.767273 
L 158.350691 -75.120992 
L 157.452373 -73.474711 
L 156.354461 -71.82843 
L 155.077875 -70.182149 
L 153.697611 -68.535868 
L 152.292048 -66.889587 
L 150.905407 -65.243306 
L 149.590978 -63.597025 
L 148.415134 -61.950744 
L 147.400029 -60.304463 
L 146.536786 -58.658182 
L 145.827478 -57.011901 
L 145.282251 -55.36562 
L 144.886108 -53.719339 
L 144.593964 -52.073058 
L 144.371224 -50.426777 
L 144.212172 -48.780496 
L 144.113888 -47.134215 
L 144.058208 -45.487934 
L 144.026137 -43.841653 
L 144.009108 -42.195372 
L 144.002257 -40.549091 
z
" id="m832a158722" style="stroke:#4b4b4b;stroke-width:1.5;"/>
    </defs>
    <g clip-path="url(#p5e54dc5a25)">
     <use style="fill:#59a257;stroke:#4b4b4b;stroke-width:1.5;" x="0" xlink:href="#m832a158722" y="216"/>
    </g>
   </g>
   <g id="matplotlib.axis_5">
    <g id="xtick_3">
     <g id="line2d_7">
      <g>
       <use style="stroke:#000000;stroke-width:0.8;" x="144" xlink:href="#m8a9bf6125c" y="183.6"/>
      </g>
     </g>
     <g id="text_3">
      <!-- Modeller -->
      <g transform="translate(122.465625 198.198438)scale(0.1 -0.1)">
       <use xlink:href="#DejaVuSans-77"/>
       <use x="86.279297" xlink:href="#DejaVuSans-111"/>
       <use x="147.460938" xlink:href="#DejaVuSans-100"/>
       <use x="210.9375" xlink:href="#DejaVuSans-101"/>
       <use x="272.460938" xlink:href="#DejaVuSans-108"/>
       <use x="300.244141" xlink:href="#DejaVuSans-108"/>
       <use x="328.027344" xlink:href="#DejaVuSans-101"/>
       <use x="389.550781" xlink:href="#DejaVuSans-114"/>
      </g>
      <!-- (dope_hr) -->
      <defs>
       <path d="M 54.890625 33.015625 
L 54.890625 0 
L 45.90625 0 
L 45.90625 32.71875 
Q 45.90625 40.484375 42.875 44.328125 
Q 39.84375 48.1875 33.796875 48.1875 
Q 26.515625 48.1875 22.3125 43.546875 
Q 18.109375 38.921875 18.109375 30.90625 
L 18.109375 0 
L 9.078125 0 
L 9.078125 75.984375 
L 18.109375 75.984375 
L 18.109375 46.1875 
Q 21.34375 51.125 25.703125 53.5625 
Q 30.078125 56 35.796875 56 
Q 45.21875 56 50.046875 50.171875 
Q 54.890625 44.34375 54.890625 33.015625 
z
" id="DejaVuSans-104"/>
      </defs>
      <g transform="translate(119.889844 209.39625)scale(0.1 -0.1)">
       <use xlink:href="#DejaVuSans-40"/>
       <use x="39.013672" xlink:href="#DejaVuSans-100"/>
       <use x="102.490234" xlink:href="#DejaVuSans-111"/>
       <use x="163.671875" xlink:href="#DejaVuSans-112"/>
       <use x="227.148438" xlink:href="#DejaVuSans-101"/>
       <use x="288.671875" xlink:href="#DejaVuSans-95"/>
       <use x="338.671875" xlink:href="#DejaVuSans-104"/>
       <use x="402.050781" xlink:href="#DejaVuSans-114"/>
       <use x="443.164062" xlink:href="#DejaVuSans-41"/>
      </g>
     </g>
    </g>
   </g>
   <g id="matplotlib.axis_6"/>
   <g id="LineCollection_3">
    <path clip-path="url(#p5e54dc5a25)" d="M 121.880878 107.608159 
L 166.119122 107.608159 
" style="fill:none;stroke:#000000;stroke-dasharray:1.5,2.475;stroke-dashoffset:0;stroke-width:1.5;"/>
   </g>
   <g id="line2d_8">
    <path clip-path="url(#p5e54dc5a25)" d="M 144 170.578476 
L 144 75.539947 
" style="fill:none;stroke:#4b4b4b;stroke-linecap:square;stroke-width:1.5;"/>
   </g>
   <g id="line2d_9">
    <path clip-path="url(#p5e54dc5a25)" d="M 144 135.952315 
L 144 111.766705 
" style="fill:none;stroke:#4b4b4b;stroke-linecap:square;stroke-width:4.5;"/>
   </g>
   <g id="patch_9">
    <path d="M 119.668966 183.6 
L 168.331034 183.6 
" style="fill:none;stroke:#000000;stroke-linecap:square;stroke-linejoin:miter;stroke-width:0.8;"/>
   </g>
   <g id="patch_10">
    <path d="M 119.668966 4.32 
L 168.331034 4.32 
" style="fill:none;stroke:#000000;stroke-linecap:square;stroke-linejoin:miter;stroke-width:0.8;"/>
   </g>
   <g id="PathCollection_3">
    <defs>
     <path d="M 0 1.5 
C 0.397805 1.5 0.77937 1.341951 1.06066 1.06066 
C 1.341951 0.77937 1.5 0.397805 1.5 0 
C 1.5 -0.397805 1.341951 -0.77937 1.06066 -1.06066 
C 0.77937 -1.341951 0.397805 -1.5 0 -1.5 
C -0.397805 -1.5 -0.77937 -1.341951 -1.06066 -1.06066 
C -1.341951 -0.77937 -1.5 -0.397805 -1.5 0 
C -1.5 0.397805 -1.341951 0.77937 -1.06066 1.06066 
C -0.77937 1.341951 -0.397805 1.5 0 1.5 
z
" id="m84ee062967" style="stroke:#4b4b4b;"/>
    </defs>
    <g clip-path="url(#p5e54dc5a25)">
     <use style="fill:#ffffff;stroke:#4b4b4b;" x="144" xlink:href="#m84ee062967" y="124.343415"/>
    </g>
   </g>
  </g>
  <g id="axes_4">
   <g id="patch_11">
    <path d="M 178.063448 183.6 
L 226.725517 183.6 
L 226.725517 4.32 
L 178.063448 4.32 
z
" style="fill:#ffffff;"/>
   </g>
   <g id="PolyCollection_4">
    <defs>
     <path d="M 202.395465 -40.549091 
L 202.3935 -40.549091 
L 202.391516 -42.195372 
L 202.38868 -43.841653 
L 202.386954 -45.487934 
L 202.38691 -47.134215 
L 202.384338 -48.780496 
L 202.372982 -50.426777 
L 202.351492 -52.073058 
L 202.326234 -53.719339 
L 202.306671 -55.36562 
L 202.297202 -57.011901 
L 202.288774 -58.658182 
L 202.264289 -60.304463 
L 202.219084 -61.950744 
L 202.162418 -63.597025 
L 202.103108 -65.243306 
L 202.051685 -66.889587 
L 202.016576 -68.535868 
L 201.983896 -70.182149 
L 201.929272 -71.82843 
L 201.849243 -73.474711 
L 201.75718 -75.120992 
L 201.668098 -76.767273 
L 201.593344 -78.413554 
L 201.526296 -80.059835 
L 201.44983 -81.706116 
L 201.35715 -83.352397 
L 201.239045 -84.998678 
L 201.08282 -86.644959 
L 200.895425 -88.29124 
L 200.679358 -89.937521 
L 200.408145 -91.583802 
L 200.062582 -93.230083 
L 199.644571 -94.876364 
L 199.150897 -96.522645 
L 198.56958 -98.168926 
L 197.890242 -99.815207 
L 197.107724 -101.461488 
L 196.21017 -103.107769 
L 195.166469 -104.75405 
L 193.96301 -106.400331 
L 192.634889 -108.046612 
L 191.234574 -109.692893 
L 189.808627 -111.339174 
L 188.398745 -112.985455 
L 187.070309 -114.631736 
L 185.962606 -116.278017 
L 185.183919 -117.924298 
L 184.602517 -119.570579 
L 183.961042 -121.21686 
L 183.228583 -122.86314 
L 182.612518 -124.509421 
L 182.294662 -126.155702 
L 182.28619 -127.801983 
L 182.444859 -129.448264 
L 182.647685 -131.094545 
L 182.930737 -132.740826 
L 183.392972 -134.387107 
L 184.04502 -136.033388 
L 184.796769 -137.679669 
L 185.561574 -139.32595 
L 186.343781 -140.972231 
L 187.191265 -142.618512 
L 188.087151 -144.264793 
L 188.98478 -145.911074 
L 189.921926 -147.557355 
L 190.973594 -149.203636 
L 192.14669 -150.849917 
L 193.388276 -152.496198 
L 194.593843 -154.142479 
L 195.635722 -155.78876 
L 196.505827 -157.435041 
L 197.330813 -159.081322 
L 198.172689 -160.727603 
L 198.96183 -162.373884 
L 199.637269 -164.020165 
L 200.204126 -165.666446 
L 200.672053 -167.312727 
L 201.048507 -168.959008 
L 201.359822 -170.605289 
L 201.623191 -172.25157 
L 201.833695 -173.897851 
L 201.984899 -175.544132 
L 202.082084 -177.190413 
L 202.145813 -178.836694 
L 202.201946 -180.482975 
L 202.260455 -182.129256 
L 202.314014 -183.775537 
L 202.353676 -185.421818 
L 202.376374 -187.068099 
L 202.384909 -188.71438 
L 202.386392 -190.360661 
L 202.387419 -192.006942 
L 202.389323 -193.653223 
L 202.389773 -195.299504 
L 202.388179 -196.945785 
L 202.387156 -198.592066 
L 202.388702 -200.238347 
L 202.391518 -201.884628 
L 202.3935 -203.530909 
L 202.395465 -203.530909 
L 202.395465 -203.530909 
L 202.397448 -201.884628 
L 202.400264 -200.238347 
L 202.401809 -198.592066 
L 202.400787 -196.945785 
L 202.399193 -195.299504 
L 202.399643 -193.653223 
L 202.401547 -192.006942 
L 202.402573 -190.360661 
L 202.404057 -188.71438 
L 202.412592 -187.068099 
L 202.435289 -185.421818 
L 202.474952 -183.775537 
L 202.52851 -182.129256 
L 202.587019 -180.482975 
L 202.643152 -178.836694 
L 202.706882 -177.190413 
L 202.804066 -175.544132 
L 202.95527 -173.897851 
L 203.165774 -172.25157 
L 203.429144 -170.605289 
L 203.740458 -168.959008 
L 204.116912 -167.312727 
L 204.584839 -165.666446 
L 205.151697 -164.020165 
L 205.827136 -162.373884 
L 206.616277 -160.727603 
L 207.458153 -159.081322 
L 208.283139 -157.435041 
L 209.153243 -155.78876 
L 210.195122 -154.142479 
L 211.400689 -152.496198 
L 212.642275 -150.849917 
L 213.815371 -149.203636 
L 214.86704 -147.557355 
L 215.804186 -145.911074 
L 216.701815 -144.264793 
L 217.5977 -142.618512 
L 218.445185 -140.972231 
L 219.227391 -139.32595 
L 219.992196 -137.679669 
L 220.743946 -136.033388 
L 221.395994 -134.387107 
L 221.858229 -132.740826 
L 222.141281 -131.094545 
L 222.344107 -129.448264 
L 222.502776 -127.801983 
L 222.494303 -126.155702 
L 222.176448 -124.509421 
L 221.560382 -122.86314 
L 220.827924 -121.21686 
L 220.186448 -119.570579 
L 219.605047 -117.924298 
L 218.82636 -116.278017 
L 217.718657 -114.631736 
L 216.39022 -112.985455 
L 214.980338 -111.339174 
L 213.554392 -109.692893 
L 212.154076 -108.046612 
L 210.825955 -106.400331 
L 209.622496 -104.75405 
L 208.578796 -103.107769 
L 207.681241 -101.461488 
L 206.898724 -99.815207 
L 206.219386 -98.168926 
L 205.638068 -96.522645 
L 205.144394 -94.876364 
L 204.726383 -93.230083 
L 204.38082 -91.583802 
L 204.109608 -89.937521 
L 203.893541 -88.29124 
L 203.706146 -86.644959 
L 203.549921 -84.998678 
L 203.431816 -83.352397 
L 203.339135 -81.706116 
L 203.262669 -80.059835 
L 203.195622 -78.413554 
L 203.120868 -76.767273 
L 203.031785 -75.120992 
L 202.939723 -73.474711 
L 202.859694 -71.82843 
L 202.80507 -70.182149 
L 202.772389 -68.535868 
L 202.73728 -66.889587 
L 202.685858 -65.243306 
L 202.626548 -63.597025 
L 202.569882 -61.950744 
L 202.524677 -60.304463 
L 202.500192 -58.658182 
L 202.491763 -57.011901 
L 202.482294 -55.36562 
L 202.462732 -53.719339 
L 202.437473 -52.073058 
L 202.415983 -50.426777 
L 202.404627 -48.780496 
L 202.402056 -47.134215 
L 202.402011 -45.487934 
L 202.400285 -43.841653 
L 202.397449 -42.195372 
L 202.395465 -40.549091 
z
" id="mee49e5a790" style="stroke:#484848;stroke-width:1.5;"/>
    </defs>
    <g clip-path="url(#p96da974ad8)">
     <use style="fill:#905998;stroke:#484848;stroke-width:1.5;" x="0" xlink:href="#mee49e5a790" y="216"/>
    </g>
   </g>
   <g id="matplotlib.axis_7">
    <g id="xtick_4">
     <g id="line2d_10">
      <g>
       <use style="stroke:#000000;stroke-width:0.8;" x="202.394483" xlink:href="#m8a9bf6125c" y="183.6"/>
      </g>
     </g>
     <g id="text_4">
      <!-- Modeller -->
      <g transform="translate(180.860108 198.198438)scale(0.1 -0.1)">
       <use xlink:href="#DejaVuSans-77"/>
       <use x="86.279297" xlink:href="#DejaVuSans-111"/>
       <use x="147.460938" xlink:href="#DejaVuSans-100"/>
       <use x="210.9375" xlink:href="#DejaVuSans-101"/>
       <use x="272.460938" xlink:href="#DejaVuSans-108"/>
       <use x="300.244141" xlink:href="#DejaVuSans-108"/>
       <use x="328.027344" xlink:href="#DejaVuSans-101"/>
       <use x="389.550781" xlink:href="#DejaVuSans-114"/>
      </g>
      <!-- (ga341) -->
      <defs>
       <path d="M 45.40625 27.984375 
Q 45.40625 37.75 41.375 43.109375 
Q 37.359375 48.484375 30.078125 48.484375 
Q 22.859375 48.484375 18.828125 43.109375 
Q 14.796875 37.75 14.796875 27.984375 
Q 14.796875 18.265625 18.828125 12.890625 
Q 22.859375 7.515625 30.078125 7.515625 
Q 37.359375 7.515625 41.375 12.890625 
Q 45.40625 18.265625 45.40625 27.984375 
z
M 54.390625 6.78125 
Q 54.390625 -7.171875 48.1875 -13.984375 
Q 42 -20.796875 29.203125 -20.796875 
Q 24.46875 -20.796875 20.265625 -20.09375 
Q 16.0625 -19.390625 12.109375 -17.921875 
L 12.109375 -9.1875 
Q 16.0625 -11.328125 19.921875 -12.34375 
Q 23.78125 -13.375 27.78125 -13.375 
Q 36.625 -13.375 41.015625 -8.765625 
Q 45.40625 -4.15625 45.40625 5.171875 
L 45.40625 9.625 
Q 42.625 4.78125 38.28125 2.390625 
Q 33.9375 0 27.875 0 
Q 17.828125 0 11.671875 7.65625 
Q 5.515625 15.328125 5.515625 27.984375 
Q 5.515625 40.671875 11.671875 48.328125 
Q 17.828125 56 27.875 56 
Q 33.9375 56 38.28125 53.609375 
Q 42.625 51.21875 45.40625 46.390625 
L 45.40625 54.6875 
L 54.390625 54.6875 
z
" id="DejaVuSans-103"/>
       <path d="M 34.28125 27.484375 
Q 23.390625 27.484375 19.1875 25 
Q 14.984375 22.515625 14.984375 16.5 
Q 14.984375 11.71875 18.140625 8.90625 
Q 21.296875 6.109375 26.703125 6.109375 
Q 34.1875 6.109375 38.703125 11.40625 
Q 43.21875 16.703125 43.21875 25.484375 
L 43.21875 27.484375 
z
M 52.203125 31.203125 
L 52.203125 0 
L 43.21875 0 
L 43.21875 8.296875 
Q 40.140625 3.328125 35.546875 0.953125 
Q 30.953125 -1.421875 24.3125 -1.421875 
Q 15.921875 -1.421875 10.953125 3.296875 
Q 6 8.015625 6 15.921875 
Q 6 25.140625 12.171875 29.828125 
Q 18.359375 34.515625 30.609375 34.515625 
L 43.21875 34.515625 
L 43.21875 35.40625 
Q 43.21875 41.609375 39.140625 45 
Q 35.0625 48.390625 27.6875 48.390625 
Q 23 48.390625 18.546875 47.265625 
Q 14.109375 46.140625 10.015625 43.890625 
L 10.015625 52.203125 
Q 14.9375 54.109375 19.578125 55.046875 
Q 24.21875 56 28.609375 56 
Q 40.484375 56 46.34375 49.84375 
Q 52.203125 43.703125 52.203125 31.203125 
z
" id="DejaVuSans-97"/>
       <path d="M 40.578125 39.3125 
Q 47.65625 37.796875 51.625 33 
Q 55.609375 28.21875 55.609375 21.1875 
Q 55.609375 10.40625 48.1875 4.484375 
Q 40.765625 -1.421875 27.09375 -1.421875 
Q 22.515625 -1.421875 17.65625 -0.515625 
Q 12.796875 0.390625 7.625 2.203125 
L 7.625 11.71875 
Q 11.71875 9.328125 16.59375 8.109375 
Q 21.484375 6.890625 26.8125 6.890625 
Q 36.078125 6.890625 40.9375 10.546875 
Q 45.796875 14.203125 45.796875 21.1875 
Q 45.796875 27.640625 41.28125 31.265625 
Q 36.765625 34.90625 28.71875 34.90625 
L 20.21875 34.90625 
L 20.21875 43.015625 
L 29.109375 43.015625 
Q 36.375 43.015625 40.234375 45.921875 
Q 44.09375 48.828125 44.09375 54.296875 
Q 44.09375 59.90625 40.109375 62.90625 
Q 36.140625 65.921875 28.71875 65.921875 
Q 24.65625 65.921875 20.015625 65.03125 
Q 15.375 64.15625 9.8125 62.3125 
L 9.8125 71.09375 
Q 15.4375 72.65625 20.34375 73.4375 
Q 25.25 74.21875 29.59375 74.21875 
Q 40.828125 74.21875 47.359375 69.109375 
Q 53.90625 64.015625 53.90625 55.328125 
Q 53.90625 49.265625 50.4375 45.09375 
Q 46.96875 40.921875 40.578125 39.3125 
z
" id="DejaVuSans-51"/>
       <path d="M 37.796875 64.3125 
L 12.890625 25.390625 
L 37.796875 25.390625 
z
M 35.203125 72.90625 
L 47.609375 72.90625 
L 47.609375 25.390625 
L 58.015625 25.390625 
L 58.015625 17.1875 
L 47.609375 17.1875 
L 47.609375 0 
L 37.796875 0 
L 37.796875 17.1875 
L 4.890625 17.1875 
L 4.890625 26.703125 
z
" id="DejaVuSans-52"/>
       <path d="M 12.40625 8.296875 
L 28.515625 8.296875 
L 28.515625 63.921875 
L 10.984375 60.40625 
L 10.984375 69.390625 
L 28.421875 72.90625 
L 38.28125 72.90625 
L 38.28125 8.296875 
L 54.390625 8.296875 
L 54.390625 0 
L 12.40625 0 
z
" id="DejaVuSans-49"/>
      </defs>
      <g transform="translate(182.710889 209.39625)scale(0.1 -0.1)">
       <use xlink:href="#DejaVuSans-40"/>
       <use x="39.013672" xlink:href="#DejaVuSans-103"/>
       <use x="102.490234" xlink:href="#DejaVuSans-97"/>
       <use x="163.769531" xlink:href="#DejaVuSans-51"/>
       <use x="227.392578" xlink:href="#DejaVuSans-52"/>
       <use x="291.015625" xlink:href="#DejaVuSans-49"/>
       <use x="354.638672" xlink:href="#DejaVuSans-41"/>
      </g>
     </g>
    </g>
   </g>
   <g id="matplotlib.axis_8"/>
   <g id="LineCollection_4">
    <path clip-path="url(#p96da974ad8)" d="M 180.275361 97.948266 
L 224.513605 97.948266 
" style="fill:none;stroke:#000000;stroke-dasharray:1.5,2.475;stroke-dashoffset:0;stroke-width:1.5;"/>
   </g>
   <g id="line2d_11">
    <path clip-path="url(#p96da974ad8)" d="M 202.394483 134.846461 
L 202.394483 38.987805 
" style="fill:none;stroke:#484848;stroke-linecap:square;stroke-width:1.5;"/>
   </g>
   <g id="line2d_12">
    <path clip-path="url(#p96da974ad8)" d="M 202.394483 98.96707 
L 202.394483 74.969043 
" style="fill:none;stroke:#484848;stroke-linecap:square;stroke-width:4.5;"/>
   </g>
   <g id="patch_12">
    <path d="M 178.063448 183.6 
L 226.725517 183.6 
" style="fill:none;stroke:#000000;stroke-linecap:square;stroke-linejoin:miter;stroke-width:0.8;"/>
   </g>
   <g id="patch_13">
    <path d="M 178.063448 4.32 
L 226.725517 4.32 
" style="fill:none;stroke:#000000;stroke-linecap:square;stroke-linejoin:miter;stroke-width:0.8;"/>
   </g>
   <g id="PathCollection_4">
    <g clip-path="url(#p96da974ad8)">
     <use style="fill:#ffffff;stroke:#484848;" x="202.394483" xlink:href="#m0e197fcc67" y="87.131222"/>
    </g>
   </g>
  </g>
  <g id="axes_5">
   <g id="patch_14">
    <path d="M 236.457931 183.6 
L 285.12 183.6 
L 285.12 4.32 
L 236.457931 4.32 
z
" style="fill:#ffffff;"/>
   </g>
   <g id="PolyCollection_5">
    <defs>
     <path d="M 260.790054 -40.549091 
L 260.787877 -40.549091 
L 260.782597 -42.195372 
L 260.775541 -43.841653 
L 260.770364 -45.487934 
L 260.744475 -47.134215 
L 260.683482 -48.780496 
L 260.574764 -50.426777 
L 260.403142 -52.073058 
L 260.190308 -53.719339 
L 259.992426 -55.36562 
L 259.760607 -57.011901 
L 259.457026 -58.658182 
L 258.953351 -60.304463 
L 258.129807 -61.950744 
L 257.109643 -63.597025 
L 255.983886 -65.243306 
L 254.761033 -66.889587 
L 253.411152 -68.535868 
L 251.599599 -70.182149 
L 249.327493 -71.82843 
L 247.149689 -73.474711 
L 245.288471 -75.120992 
L 243.55157 -76.767273 
L 242.11359 -78.413554 
L 241.040064 -80.059835 
L 240.680673 -81.706116 
L 240.946783 -83.352397 
L 241.91808 -84.998678 
L 243.806367 -86.644959 
L 245.704225 -88.29124 
L 247.39429 -89.937521 
L 249.304135 -91.583802 
L 251.221918 -93.230083 
L 252.906548 -94.876364 
L 254.27566 -96.522645 
L 255.631869 -98.168926 
L 256.866632 -99.815207 
L 257.705948 -101.461488 
L 258.351384 -103.107769 
L 258.875506 -104.75405 
L 259.268774 -106.400331 
L 259.537695 -108.046612 
L 259.753197 -109.692893 
L 259.979489 -111.339174 
L 260.100869 -112.985455 
L 260.220974 -114.631736 
L 260.389118 -116.278017 
L 260.495149 -117.924298 
L 260.535663 -119.570579 
L 260.574774 -121.21686 
L 260.618676 -122.86314 
L 260.652049 -124.509421 
L 260.668618 -126.155702 
L 260.690597 -127.801983 
L 260.723837 -129.448264 
L 260.742807 -131.094545 
L 260.757057 -132.740826 
L 260.771006 -134.387107 
L 260.773071 -136.033388 
L 260.776743 -137.679669 
L 260.77994 -139.32595 
L 260.780739 -140.972231 
L 260.780191 -142.618512 
L 260.766208 -144.264793 
L 260.745379 -145.911074 
L 260.752744 -147.557355 
L 260.776368 -149.203636 
L 260.78729 -150.849917 
L 260.788888 -152.496198 
L 260.788964 -154.142479 
L 260.788966 -155.78876 
L 260.788966 -157.435041 
L 260.788966 -159.081322 
L 260.788966 -160.727603 
L 260.788966 -162.373884 
L 260.788966 -164.020165 
L 260.788966 -165.666446 
L 260.788966 -167.312727 
L 260.788966 -168.959008 
L 260.788966 -170.605289 
L 260.788966 -172.25157 
L 260.788966 -173.897851 
L 260.788966 -175.544132 
L 260.788966 -177.190413 
L 260.788966 -178.836694 
L 260.788966 -180.482975 
L 260.788966 -182.129256 
L 260.788966 -183.775537 
L 260.788966 -185.421818 
L 260.788966 -187.068099 
L 260.788966 -188.71438 
L 260.788966 -190.360661 
L 260.788966 -192.006942 
L 260.788965 -193.653223 
L 260.78895 -195.299504 
L 260.788575 -196.945785 
L 260.78608 -198.592066 
L 260.782522 -200.238347 
L 260.784616 -201.884628 
L 260.788078 -203.530909 
L 260.789853 -203.530909 
L 260.789853 -203.530909 
L 260.793315 -201.884628 
L 260.795409 -200.238347 
L 260.791851 -198.592066 
L 260.789356 -196.945785 
L 260.788981 -195.299504 
L 260.788966 -193.653223 
L 260.788966 -192.006942 
L 260.788966 -190.360661 
L 260.788966 -188.71438 
L 260.788966 -187.068099 
L 260.788966 -185.421818 
L 260.788966 -183.775537 
L 260.788966 -182.129256 
L 260.788966 -180.482975 
L 260.788966 -178.836694 
L 260.788966 -177.190413 
L 260.788966 -175.544132 
L 260.788966 -173.897851 
L 260.788966 -172.25157 
L 260.788966 -170.605289 
L 260.788966 -168.959008 
L 260.788966 -167.312727 
L 260.788966 -165.666446 
L 260.788966 -164.020165 
L 260.788966 -162.373884 
L 260.788966 -160.727603 
L 260.788966 -159.081322 
L 260.788966 -157.435041 
L 260.788966 -155.78876 
L 260.788967 -154.142479 
L 260.789043 -152.496198 
L 260.790641 -150.849917 
L 260.801563 -149.203636 
L 260.825187 -147.557355 
L 260.832552 -145.911074 
L 260.811723 -144.264793 
L 260.79774 -142.618512 
L 260.797193 -140.972231 
L 260.797991 -139.32595 
L 260.801188 -137.679669 
L 260.80486 -136.033388 
L 260.806925 -134.387107 
L 260.820874 -132.740826 
L 260.835124 -131.094545 
L 260.854094 -129.448264 
L 260.887334 -127.801983 
L 260.909313 -126.155702 
L 260.925882 -124.509421 
L 260.959255 -122.86314 
L 261.003157 -121.21686 
L 261.042268 -119.570579 
L 261.082782 -117.924298 
L 261.188813 -116.278017 
L 261.356957 -114.631736 
L 261.477062 -112.985455 
L 261.598442 -111.339174 
L 261.824734 -109.692893 
L 262.040236 -108.046612 
L 262.309157 -106.400331 
L 262.702425 -104.75405 
L 263.226547 -103.107769 
L 263.871983 -101.461488 
L 264.711299 -99.815207 
L 265.946062 -98.168926 
L 267.302271 -96.522645 
L 268.671383 -94.876364 
L 270.356013 -93.230083 
L 272.273796 -91.583802 
L 274.183642 -89.937521 
L 275.873706 -88.29124 
L 277.771564 -86.644959 
L 279.659851 -84.998678 
L 280.631148 -83.352397 
L 280.897258 -81.706116 
L 280.537867 -80.059835 
L 279.464341 -78.413554 
L 278.026361 -76.767273 
L 276.28946 -75.120992 
L 274.428242 -73.474711 
L 272.250438 -71.82843 
L 269.978332 -70.182149 
L 268.166779 -68.535868 
L 266.816898 -66.889587 
L 265.594045 -65.243306 
L 264.468288 -63.597025 
L 263.448124 -61.950744 
L 262.62458 -60.304463 
L 262.120905 -58.658182 
L 261.817324 -57.011901 
L 261.585505 -55.36562 
L 261.387623 -53.719339 
L 261.174789 -52.073058 
L 261.003168 -50.426777 
L 260.894449 -48.780496 
L 260.833456 -47.134215 
L 260.807567 -45.487934 
L 260.80239 -43.841653 
L 260.795334 -42.195372 
L 260.790054 -40.549091 
z
" id="m9bb91d1cee" style="stroke:#4c4c4c;stroke-width:1.5;"/>
    </defs>
    <g clip-path="url(#p78e2d4f548)">
     <use style="fill:#df7f20;stroke:#4c4c4c;stroke-width:1.5;" x="0" xlink:href="#m9bb91d1cee" y="216"/>
    </g>
   </g>
   <g id="matplotlib.axis_9">
    <g id="xtick_5">
     <g id="line2d_13">
      <g>
       <use style="stroke:#000000;stroke-width:0.8;" x="260.788966" xlink:href="#m8a9bf6125c" y="183.6"/>
      </g>
     </g>
     <g id="text_5">
      <!-- Rosetta -->
      <defs>
       <path d="M 44.390625 34.1875 
Q 47.5625 33.109375 50.5625 29.59375 
Q 53.5625 26.078125 56.59375 19.921875 
L 66.609375 0 
L 56 0 
L 46.6875 18.703125 
Q 43.0625 26.03125 39.671875 28.421875 
Q 36.28125 30.8125 30.421875 30.8125 
L 19.671875 30.8125 
L 19.671875 0 
L 9.8125 0 
L 9.8125 72.90625 
L 32.078125 72.90625 
Q 44.578125 72.90625 50.734375 67.671875 
Q 56.890625 62.453125 56.890625 51.90625 
Q 56.890625 45.015625 53.6875 40.46875 
Q 50.484375 35.9375 44.390625 34.1875 
z
M 19.671875 64.796875 
L 19.671875 38.921875 
L 32.078125 38.921875 
Q 39.203125 38.921875 42.84375 42.21875 
Q 46.484375 45.515625 46.484375 51.90625 
Q 46.484375 58.296875 42.84375 61.546875 
Q 39.203125 64.796875 32.078125 64.796875 
z
" id="DejaVuSans-82"/>
       <path d="M 44.28125 53.078125 
L 44.28125 44.578125 
Q 40.484375 46.53125 36.375 47.5 
Q 32.28125 48.484375 27.875 48.484375 
Q 21.1875 48.484375 17.84375 46.4375 
Q 14.5 44.390625 14.5 40.28125 
Q 14.5 37.15625 16.890625 35.375 
Q 19.28125 33.59375 26.515625 31.984375 
L 29.59375 31.296875 
Q 39.15625 29.25 43.1875 25.515625 
Q 47.21875 21.78125 47.21875 15.09375 
Q 47.21875 7.46875 41.1875 3.015625 
Q 35.15625 -1.421875 24.609375 -1.421875 
Q 20.21875 -1.421875 15.453125 -0.5625 
Q 10.6875 0.296875 5.421875 2 
L 5.421875 11.28125 
Q 10.40625 8.6875 15.234375 7.390625 
Q 20.0625 6.109375 24.8125 6.109375 
Q 31.15625 6.109375 34.5625 8.28125 
Q 37.984375 10.453125 37.984375 14.40625 
Q 37.984375 18.0625 35.515625 20.015625 
Q 33.0625 21.96875 24.703125 23.78125 
L 21.578125 24.515625 
Q 13.234375 26.265625 9.515625 29.90625 
Q 5.8125 33.546875 5.8125 39.890625 
Q 5.8125 47.609375 11.28125 51.796875 
Q 16.75 56 26.8125 56 
Q 31.78125 56 36.171875 55.265625 
Q 40.578125 54.546875 44.28125 53.078125 
z
" id="DejaVuSans-115"/>
       <path d="M 18.3125 70.21875 
L 18.3125 54.6875 
L 36.8125 54.6875 
L 36.8125 47.703125 
L 18.3125 47.703125 
L 18.3125 18.015625 
Q 18.3125 11.328125 20.140625 9.421875 
Q 21.96875 7.515625 27.59375 7.515625 
L 36.8125 7.515625 
L 36.8125 0 
L 27.59375 0 
Q 17.1875 0 13.234375 3.875 
Q 9.28125 7.765625 9.28125 18.015625 
L 9.28125 47.703125 
L 2.6875 47.703125 
L 2.6875 54.6875 
L 9.28125 54.6875 
L 9.28125 70.21875 
z
" id="DejaVuSans-116"/>
      </defs>
      <g transform="translate(241.814747 198.198438)scale(0.1 -0.1)">
       <use xlink:href="#DejaVuSans-82"/>
       <use x="64.982422" xlink:href="#DejaVuSans-111"/>
       <use x="126.164062" xlink:href="#DejaVuSans-115"/>
       <use x="178.263672" xlink:href="#DejaVuSans-101"/>
       <use x="239.787109" xlink:href="#DejaVuSans-116"/>
       <use x="278.996094" xlink:href="#DejaVuSans-116"/>
       <use x="318.205078" xlink:href="#DejaVuSans-97"/>
      </g>
      <!-- (score) -->
      <defs>
       <path d="M 48.78125 52.59375 
L 48.78125 44.1875 
Q 44.96875 46.296875 41.140625 47.34375 
Q 37.3125 48.390625 33.40625 48.390625 
Q 24.65625 48.390625 19.8125 42.84375 
Q 14.984375 37.3125 14.984375 27.296875 
Q 14.984375 17.28125 19.8125 11.734375 
Q 24.65625 6.203125 33.40625 6.203125 
Q 37.3125 6.203125 41.140625 7.25 
Q 44.96875 8.296875 48.78125 10.40625 
L 48.78125 2.09375 
Q 45.015625 0.34375 40.984375 -0.53125 
Q 36.96875 -1.421875 32.421875 -1.421875 
Q 20.0625 -1.421875 12.78125 6.34375 
Q 5.515625 14.109375 5.515625 27.296875 
Q 5.515625 40.671875 12.859375 48.328125 
Q 20.21875 56 33.015625 56 
Q 37.15625 56 41.109375 55.140625 
Q 45.0625 54.296875 48.78125 52.59375 
z
" id="DejaVuSans-99"/>
      </defs>
      <g transform="translate(243.454591 209.39625)scale(0.1 -0.1)">
       <use xlink:href="#DejaVuSans-40"/>
       <use x="39.013672" xlink:href="#DejaVuSans-115"/>
       <use x="91.113281" xlink:href="#DejaVuSans-99"/>
       <use x="146.09375" xlink:href="#DejaVuSans-111"/>
       <use x="207.275391" xlink:href="#DejaVuSans-114"/>
       <use x="246.138672" xlink:href="#DejaVuSans-101"/>
       <use x="307.662109" xlink:href="#DejaVuSans-41"/>
      </g>
     </g>
    </g>
   </g>
   <g id="matplotlib.axis_10"/>
   <g id="LineCollection_5">
    <path clip-path="url(#p78e2d4f548)" d="M 238.669843 133.953986 
L 282.908088 133.953986 
" style="fill:none;stroke:#000000;stroke-dasharray:1.5,2.475;stroke-dashoffset:0;stroke-width:1.5;"/>
   </g>
   <g id="line2d_14">
    <path clip-path="url(#p78e2d4f548)" d="M 260.788966 160.620142 
L 260.788966 107.092604 
" style="fill:none;stroke:#4c4c4c;stroke-linecap:square;stroke-width:1.5;"/>
   </g>
   <g id="line2d_15">
    <path clip-path="url(#p78e2d4f548)" d="M 260.788966 140.564371 
L 260.788966 127.167268 
" style="fill:none;stroke:#4c4c4c;stroke-linecap:square;stroke-width:4.5;"/>
   </g>
   <g id="patch_15">
    <path d="M 236.457931 183.6 
L 285.12 183.6 
" style="fill:none;stroke:#000000;stroke-linecap:square;stroke-linejoin:miter;stroke-width:0.8;"/>
   </g>
   <g id="patch_16">
    <path d="M 236.457931 4.32 
L 285.12 4.32 
" style="fill:none;stroke:#000000;stroke-linecap:square;stroke-linejoin:miter;stroke-width:0.8;"/>
   </g>
   <g id="PathCollection_5">
    <g clip-path="url(#p78e2d4f548)">
     <use style="fill:#ffffff;stroke:#4c4c4c;" x="260.788966" xlink:href="#m4987be9619" y="133.998069"/>
    </g>
   </g>
  </g>
 </g>
 <defs>
  <clipPath id="pe4281461f1">
   <rect height="179.28" width="48.662069" x="2.88" y="4.32"/>
  </clipPath>
  <clipPath id="pccf54fef35">
   <rect height="179.28" width="48.662069" x="61.274483" y="4.32"/>
  </clipPath>
  <clipPath id="p5e54dc5a25">
   <rect height="179.28" width="48.662069" x="119.668966" y="4.32"/>
  </clipPath>
  <clipPath id="p96da974ad8">
   <rect height="179.28" width="48.662069" x="178.063448" y="4.32"/>
  </clipPath>
  <clipPath id="p78e2d4f548">
   <rect height="179.28" width="48.662069" x="236.457931" y="4.32"/>
  </clipPath>
 </defs>
</svg>
