<?xml version="1.0" encoding="utf-8" standalone="no"?>
<!DOCTYPE svg PUBLIC "-//W3C//DTD SVG 1.1//EN"
  "http://www.w3.org/Graphics/SVG/1.1/DTD/svg11.dtd">
<!-- Created with matplotlib (https://matplotlib.org/) -->
<svg height="216pt" version="1.1" viewBox="0 0 288 216" width="288pt" xmlns="http://www.w3.org/2000/svg" xmlns:xlink="http://www.w3.org/1999/xlink">
 <defs>
  <style type="text/css">
*{stroke-linecap:butt;stroke-linejoin:round;}
  </style>
 </defs>
 <g id="figure_1">
  <g id="patch_1">
   <path d="M 0 216 
L 288 216 
L 288 0 
L 0 0 
z
" style="fill:#ffffff;"/>
  </g>
  <g id="axes_1">
   <g id="patch_2">
    <path d="M 2.88 183.6 
L 51.542069 183.6 
L 51.542069 4.32 
L 2.88 4.32 
z
" style="fill:#ffffff;"/>
   </g>
   <g id="PolyCollection_1">
    <defs>
     <path d="M 27.213643 -40.549091 
L 27.208426 -40.549091 
L 27.195904 -42.195372 
L 27.154352 -43.841653 
L 27.040804 -45.487934 
L 26.775725 -47.134215 
L 26.274412 -48.780496 
L 25.438371 -50.426777 
L 24.099162 -52.073058 
L 22.058175 -53.719339 
L 19.366052 -55.36562 
L 16.435581 -57.011901 
L 13.406447 -58.658182 
L 10.340995 -60.304463 
L 8.06578 -61.950744 
L 7.102742 -63.597025 
L 7.10533 -65.243306 
L 7.773702 -66.889587 
L 8.914408 -68.535868 
L 10.37531 -70.182149 
L 11.990435 -71.82843 
L 13.668659 -73.474711 
L 15.384803 -75.120992 
L 16.931734 -76.767273 
L 18.143731 -78.413554 
L 19.141981 -80.059835 
L 20.060541 -81.706116 
L 20.875475 -83.352397 
L 21.470904 -84.998678 
L 21.945762 -86.644959 
L 22.492085 -88.29124 
L 23.071117 -89.937521 
L 23.594529 -91.583802 
L 24.073132 -93.230083 
L 24.475505 -94.876364 
L 24.763857 -96.522645 
L 24.992328 -98.168926 
L 25.221369 -99.815207 
L 25.490601 -101.461488 
L 25.748584 -103.107769 
L 25.915506 -104.75405 
L 26.006563 -106.400331 
L 26.116834 -108.046612 
L 26.289292 -109.692893 
L 26.486008 -111.339174 
L 26.650351 -112.985455 
L 26.761222 -114.631736 
L 26.834197 -116.278017 
L 26.893325 -117.924298 
L 26.940324 -119.570579 
L 26.978801 -121.21686 
L 27.016707 -122.86314 
L 27.048321 -124.509421 
L 27.070811 -126.155702 
L 27.085567 -127.801983 
L 27.096341 -129.448264 
L 27.111124 -131.094545 
L 27.125623 -132.740826 
L 27.137158 -134.387107 
L 27.14789 -136.033388 
L 27.157641 -137.679669 
L 27.166611 -139.32595 
L 27.177112 -140.972231 
L 27.179458 -142.618512 
L 27.175371 -144.264793 
L 27.176988 -145.911074 
L 27.175432 -147.557355 
L 27.163855 -149.203636 
L 27.152676 -150.849917 
L 27.154748 -152.496198 
L 27.172296 -154.142479 
L 27.191597 -155.78876 
L 27.201902 -157.435041 
L 27.200747 -159.081322 
L 27.196292 -160.727603 
L 27.198868 -162.373884 
L 27.205754 -164.020165 
L 27.209853 -165.666446 
L 27.210903 -167.312727 
L 27.211027 -168.959008 
L 27.211033 -170.605289 
L 27.211009 -172.25157 
L 27.21072 -173.897851 
L 27.209287 -175.544132 
L 27.206582 -177.190413 
L 27.205752 -178.836694 
L 27.207439 -180.482975 
L 27.207255 -182.129256 
L 27.205659 -183.775537 
L 27.206868 -185.421818 
L 27.209306 -187.068099 
L 27.2093 -188.71438 
L 27.206863 -190.360661 
L 27.205736 -192.006942 
L 27.207918 -193.653223 
L 27.209919 -195.299504 
L 27.20928 -196.945785 
L 27.206684 -198.592066 
L 27.205806 -200.238347 
L 27.208154 -201.884628 
L 27.210308 -203.530909 
L 27.211761 -203.530909 
L 27.211761 -203.530909 
L 27.213915 -201.884628 
L 27.216262 -200.238347 
L 27.215385 -198.592066 
L 27.212789 -196.945785 
L 27.21215 -195.299504 
L 27.214151 -193.653223 
L 27.216333 -192.006942 
L 27.215206 -190.360661 
L 27.212769 -188.71438 
L 27.212763 -187.068099 
L 27.215201 -185.421818 
L 27.21641 -183.775537 
L 27.214814 -182.129256 
L 27.21463 -180.482975 
L 27.216317 -178.836694 
L 27.215487 -177.190413 
L 27.212782 -175.544132 
L 27.211349 -173.897851 
L 27.21106 -172.25157 
L 27.211036 -170.605289 
L 27.211042 -168.959008 
L 27.211166 -167.312727 
L 27.212216 -165.666446 
L 27.216315 -164.020165 
L 27.223201 -162.373884 
L 27.225777 -160.727603 
L 27.221322 -159.081322 
L 27.220167 -157.435041 
L 27.230472 -155.78876 
L 27.249773 -154.142479 
L 27.26732 -152.496198 
L 27.269393 -150.849917 
L 27.258214 -149.203636 
L 27.246637 -147.557355 
L 27.245081 -145.911074 
L 27.246698 -144.264793 
L 27.242611 -142.618512 
L 27.244957 -140.972231 
L 27.255458 -139.32595 
L 27.264428 -137.679669 
L 27.274179 -136.033388 
L 27.284911 -134.387107 
L 27.296446 -132.740826 
L 27.310945 -131.094545 
L 27.325728 -129.448264 
L 27.336502 -127.801983 
L 27.351258 -126.155702 
L 27.373748 -124.509421 
L 27.405362 -122.86314 
L 27.443268 -121.21686 
L 27.481745 -119.570579 
L 27.528744 -117.924298 
L 27.587872 -116.278017 
L 27.660847 -114.631736 
L 27.771718 -112.985455 
L 27.93606 -111.339174 
L 28.132777 -109.692893 
L 28.305235 -108.046612 
L 28.415506 -106.400331 
L 28.506563 -104.75405 
L 28.673485 -103.107769 
L 28.931468 -101.461488 
L 29.2007 -99.815207 
L 29.42974 -98.168926 
L 29.658212 -96.522645 
L 29.946564 -94.876364 
L 30.348937 -93.230083 
L 30.82754 -91.583802 
L 31.350952 -89.937521 
L 31.929984 -88.29124 
L 32.476307 -86.644959 
L 32.951165 -84.998678 
L 33.546594 -83.352397 
L 34.361528 -81.706116 
L 35.280088 -80.059835 
L 36.278338 -78.413554 
L 37.490335 -76.767273 
L 39.037266 -75.120992 
L 40.75341 -73.474711 
L 42.431634 -71.82843 
L 44.046759 -70.182149 
L 45.507661 -68.535868 
L 46.648367 -66.889587 
L 47.316739 -65.243306 
L 47.319327 -63.597025 
L 46.356289 -61.950744 
L 44.081074 -60.304463 
L 41.015622 -58.658182 
L 37.986488 -57.011901 
L 35.056017 -55.36562 
L 32.363894 -53.719339 
L 30.322907 -52.073058 
L 28.983698 -50.426777 
L 28.147657 -48.780496 
L 27.646344 -47.134215 
L 27.381265 -45.487934 
L 27.267717 -43.841653 
L 27.226165 -42.195372 
L 27.213643 -40.549091 
z
" id="m4af3dcf709" style="stroke:#4c4c4c;stroke-width:1.5;"/>
    </defs>
    <g clip-path="url(#p8c70816e11)">
     <use style="fill:#cb3335;stroke:#4c4c4c;stroke-width:1.5;" x="0" xlink:href="#m4af3dcf709" y="216"/>
    </g>
   </g>
   <g id="matplotlib.axis_1">
    <g id="xtick_1">
     <g id="line2d_1">
      <defs>
       <path d="M 0 0 
L 0 3.5 
" id="m699325f669" style="stroke:#000000;stroke-width:0.8;"/>
      </defs>
      <g>
       <use style="stroke:#000000;stroke-width:0.8;" x="27.211034" xlink:href="#m699325f669" y="183.6"/>
      </g>
     </g>
     <g id="text_1">
      <!-- Modeller -->
      <defs>
       <path d="M 9.8125 72.90625 
L 24.515625 72.90625 
L 43.109375 23.296875 
L 61.8125 72.90625 
L 76.515625 72.90625 
L 76.515625 0 
L 66.890625 0 
L 66.890625 64.015625 
L 48.09375 14.015625 
L 38.1875 14.015625 
L 19.390625 64.015625 
L 19.390625 0 
L 9.8125 0 
z
" id="DejaVuSans-77"/>
       <path d="M 30.609375 48.390625 
Q 23.390625 48.390625 19.1875 42.75 
Q 14.984375 37.109375 14.984375 27.296875 
Q 14.984375 17.484375 19.15625 11.84375 
Q 23.34375 6.203125 30.609375 6.203125 
Q 37.796875 6.203125 41.984375 11.859375 
Q 46.1875 17.53125 46.1875 27.296875 
Q 46.1875 37.015625 41.984375 42.703125 
Q 37.796875 48.390625 30.609375 48.390625 
z
M 30.609375 56 
Q 42.328125 56 49.015625 48.375 
Q 55.71875 40.765625 55.71875 27.296875 
Q 55.71875 13.875 49.015625 6.21875 
Q 42.328125 -1.421875 30.609375 -1.421875 
Q 18.84375 -1.421875 12.171875 6.21875 
Q 5.515625 13.875 5.515625 27.296875 
Q 5.515625 40.765625 12.171875 48.375 
Q 18.84375 56 30.609375 56 
z
" id="DejaVuSans-111"/>
       <path d="M 45.40625 46.390625 
L 45.40625 75.984375 
L 54.390625 75.984375 
L 54.390625 0 
L 45.40625 0 
L 45.40625 8.203125 
Q 42.578125 3.328125 38.25 0.953125 
Q 33.9375 -1.421875 27.875 -1.421875 
Q 17.96875 -1.421875 11.734375 6.484375 
Q 5.515625 14.40625 5.515625 27.296875 
Q 5.515625 40.1875 11.734375 48.09375 
Q 17.96875 56 27.875 56 
Q 33.9375 56 38.25 53.625 
Q 42.578125 51.265625 45.40625 46.390625 
z
M 14.796875 27.296875 
Q 14.796875 17.390625 18.875 11.75 
Q 22.953125 6.109375 30.078125 6.109375 
Q 37.203125 6.109375 41.296875 11.75 
Q 45.40625 17.390625 45.40625 27.296875 
Q 45.40625 37.203125 41.296875 42.84375 
Q 37.203125 48.484375 30.078125 48.484375 
Q 22.953125 48.484375 18.875 42.84375 
Q 14.796875 37.203125 14.796875 27.296875 
z
" id="DejaVuSans-100"/>
       <path d="M 56.203125 29.59375 
L 56.203125 25.203125 
L 14.890625 25.203125 
Q 15.484375 15.921875 20.484375 11.0625 
Q 25.484375 6.203125 34.421875 6.203125 
Q 39.59375 6.203125 44.453125 7.46875 
Q 49.3125 8.734375 54.109375 11.28125 
L 54.109375 2.78125 
Q 49.265625 0.734375 44.1875 -0.34375 
Q 39.109375 -1.421875 33.890625 -1.421875 
Q 20.796875 -1.421875 13.15625 6.1875 
Q 5.515625 13.8125 5.515625 26.8125 
Q 5.515625 40.234375 12.765625 48.109375 
Q 20.015625 56 32.328125 56 
Q 43.359375 56 49.78125 48.890625 
Q 56.203125 41.796875 56.203125 29.59375 
z
M 47.21875 32.234375 
Q 47.125 39.59375 43.09375 43.984375 
Q 39.0625 48.390625 32.421875 48.390625 
Q 24.90625 48.390625 20.390625 44.140625 
Q 15.875 39.890625 15.1875 32.171875 
z
" id="DejaVuSans-101"/>
       <path d="M 9.421875 75.984375 
L 18.40625 75.984375 
L 18.40625 0 
L 9.421875 0 
z
" id="DejaVuSans-108"/>
       <path d="M 41.109375 46.296875 
Q 39.59375 47.171875 37.8125 47.578125 
Q 36.03125 48 33.890625 48 
Q 26.265625 48 22.1875 43.046875 
Q 18.109375 38.09375 18.109375 28.8125 
L 18.109375 0 
L 9.078125 0 
L 9.078125 54.6875 
L 18.109375 54.6875 
L 18.109375 46.1875 
Q 20.953125 51.171875 25.484375 53.578125 
Q 30.03125 56 36.53125 56 
Q 37.453125 56 38.578125 55.875 
Q 39.703125 55.765625 41.0625 55.515625 
z
" id="DejaVuSans-114"/>
      </defs>
      <g transform="translate(5.676659 198.198438)scale(0.1 -0.1)">
       <use xlink:href="#DejaVuSans-77"/>
       <use x="86.279297" xlink:href="#DejaVuSans-111"/>
       <use x="147.460938" xlink:href="#DejaVuSans-100"/>
       <use x="210.9375" xlink:href="#DejaVuSans-101"/>
       <use x="272.460938" xlink:href="#DejaVuSans-108"/>
       <use x="300.244141" xlink:href="#DejaVuSans-108"/>
       <use x="328.027344" xlink:href="#DejaVuSans-101"/>
       <use x="389.550781" xlink:href="#DejaVuSans-114"/>
      </g>
      <!-- (molpdf) -->
      <defs>
       <path d="M 31 75.875 
Q 24.46875 64.65625 21.28125 53.65625 
Q 18.109375 42.671875 18.109375 31.390625 
Q 18.109375 20.125 21.3125 9.0625 
Q 24.515625 -2 31 -13.1875 
L 23.1875 -13.1875 
Q 15.875 -1.703125 12.234375 9.375 
Q 8.59375 20.453125 8.59375 31.390625 
Q 8.59375 42.28125 12.203125 53.3125 
Q 15.828125 64.359375 23.1875 75.875 
z
" id="DejaVuSans-40"/>
       <path d="M 52 44.1875 
Q 55.375 50.25 60.0625 53.125 
Q 64.75 56 71.09375 56 
Q 79.640625 56 84.28125 50.015625 
Q 88.921875 44.046875 88.921875 33.015625 
L 88.921875 0 
L 79.890625 0 
L 79.890625 32.71875 
Q 79.890625 40.578125 77.09375 44.375 
Q 74.3125 48.1875 68.609375 48.1875 
Q 61.625 48.1875 57.5625 43.546875 
Q 53.515625 38.921875 53.515625 30.90625 
L 53.515625 0 
L 44.484375 0 
L 44.484375 32.71875 
Q 44.484375 40.625 41.703125 44.40625 
Q 38.921875 48.1875 33.109375 48.1875 
Q 26.21875 48.1875 22.15625 43.53125 
Q 18.109375 38.875 18.109375 30.90625 
L 18.109375 0 
L 9.078125 0 
L 9.078125 54.6875 
L 18.109375 54.6875 
L 18.109375 46.1875 
Q 21.1875 51.21875 25.484375 53.609375 
Q 29.78125 56 35.6875 56 
Q 41.65625 56 45.828125 52.96875 
Q 50 49.953125 52 44.1875 
z
" id="DejaVuSans-109"/>
       <path d="M 18.109375 8.203125 
L 18.109375 -20.796875 
L 9.078125 -20.796875 
L 9.078125 54.6875 
L 18.109375 54.6875 
L 18.109375 46.390625 
Q 20.953125 51.265625 25.265625 53.625 
Q 29.59375 56 35.59375 56 
Q 45.5625 56 51.78125 48.09375 
Q 58.015625 40.1875 58.015625 27.296875 
Q 58.015625 14.40625 51.78125 6.484375 
Q 45.5625 -1.421875 35.59375 -1.421875 
Q 29.59375 -1.421875 25.265625 0.953125 
Q 20.953125 3.328125 18.109375 8.203125 
z
M 48.6875 27.296875 
Q 48.6875 37.203125 44.609375 42.84375 
Q 40.53125 48.484375 33.40625 48.484375 
Q 26.265625 48.484375 22.1875 42.84375 
Q 18.109375 37.203125 18.109375 27.296875 
Q 18.109375 17.390625 22.1875 11.75 
Q 26.265625 6.109375 33.40625 6.109375 
Q 40.53125 6.109375 44.609375 11.75 
Q 48.6875 17.390625 48.6875 27.296875 
z
" id="DejaVuSans-112"/>
       <path d="M 37.109375 75.984375 
L 37.109375 68.5 
L 28.515625 68.5 
Q 23.6875 68.5 21.796875 66.546875 
Q 19.921875 64.59375 19.921875 59.515625 
L 19.921875 54.6875 
L 34.71875 54.6875 
L 34.71875 47.703125 
L 19.921875 47.703125 
L 19.921875 0 
L 10.890625 0 
L 10.890625 47.703125 
L 2.296875 47.703125 
L 2.296875 54.6875 
L 10.890625 54.6875 
L 10.890625 58.5 
Q 10.890625 67.625 15.140625 71.796875 
Q 19.390625 75.984375 28.609375 75.984375 
z
" id="DejaVuSans-102"/>
       <path d="M 8.015625 75.875 
L 15.828125 75.875 
Q 23.140625 64.359375 26.78125 53.3125 
Q 30.421875 42.28125 30.421875 31.390625 
Q 30.421875 20.453125 26.78125 9.375 
Q 23.140625 -1.703125 15.828125 -13.1875 
L 8.015625 -13.1875 
Q 14.5 -2 17.703125 9.0625 
Q 20.90625 20.125 20.90625 31.390625 
Q 20.90625 42.671875 17.703125 53.65625 
Q 14.5 64.65625 8.015625 75.875 
z
" id="DejaVuSans-41"/>
      </defs>
      <g transform="translate(5.882128 209.39625)scale(0.1 -0.1)">
       <use xlink:href="#DejaVuSans-40"/>
       <use x="39.013672" xlink:href="#DejaVuSans-109"/>
       <use x="136.425781" xlink:href="#DejaVuSans-111"/>
       <use x="197.607422" xlink:href="#DejaVuSans-108"/>
       <use x="225.390625" xlink:href="#DejaVuSans-112"/>
       <use x="288.867188" xlink:href="#DejaVuSans-100"/>
       <use x="352.34375" xlink:href="#DejaVuSans-102"/>
       <use x="387.548828" xlink:href="#DejaVuSans-41"/>
      </g>
     </g>
    </g>
   </g>
   <g id="matplotlib.axis_2"/>
   <g id="LineCollection_1">
    <path clip-path="url(#p8c70816e11)" d="M 5.091912 132.644163 
L 49.330157 132.644163 
" style="fill:none;stroke:#000000;stroke-dasharray:1.5,2.475;stroke-dashoffset:0;stroke-width:1.5;"/>
   </g>
   <g id="line2d_2">
    <path clip-path="url(#p8c70816e11)" d="M 27.211034 171.725356 
L 27.211034 114.789792 
" style="fill:none;stroke:#4c4c4c;stroke-linecap:square;stroke-width:1.5;"/>
   </g>
   <g id="line2d_3">
    <path clip-path="url(#p8c70816e11)" d="M 27.211034 153.54764 
L 27.211034 138.04309 
" style="fill:none;stroke:#4c4c4c;stroke-linecap:square;stroke-width:4.5;"/>
   </g>
   <g id="patch_3">
    <path d="M 2.88 183.6 
L 51.542069 183.6 
" style="fill:none;stroke:#000000;stroke-linecap:square;stroke-linejoin:miter;stroke-width:0.8;"/>
   </g>
   <g id="patch_4">
    <path d="M 2.88 4.32 
L 51.542069 4.32 
" style="fill:none;stroke:#000000;stroke-linecap:square;stroke-linejoin:miter;stroke-width:0.8;"/>
   </g>
   <g id="PathCollection_1">
    <defs>
     <path d="M 0 1.5 
C 0.397805 1.5 0.77937 1.341951 1.06066 1.06066 
C 1.341951 0.77937 1.5 0.397805 1.5 0 
C 1.5 -0.397805 1.341951 -0.77937 1.06066 -1.06066 
C 0.77937 -1.341951 0.397805 -1.5 0 -1.5 
C -0.397805 -1.5 -0.77937 -1.341951 -1.06066 -1.06066 
C -1.341951 -0.77937 -1.5 -0.397805 -1.5 0 
C -1.5 0.397805 -1.341951 0.77937 -1.06066 1.06066 
C -0.77937 1.341951 -0.397805 1.5 0 1.5 
z
" id="m48950e4ac6" style="stroke:#4c4c4c;"/>
    </defs>
    <g clip-path="url(#p8c70816e11)">
     <use style="fill:#ffffff;stroke:#4c4c4c;" x="27.211034" xlink:href="#m48950e4ac6" y="147.232342"/>
    </g>
   </g>
  </g>
  <g id="axes_2">
   <g id="patch_5">
    <path d="M 61.274483 183.6 
L 109.936552 183.6 
L 109.936552 4.32 
L 61.274483 4.32 
z
" style="fill:#ffffff;"/>
   </g>
   <g id="PolyCollection_2">
    <defs>
     <path d="M 85.608244 -40.549091 
L 85.60279 -40.549091 
L 85.597131 -42.195372 
L 85.587848 -43.841653 
L 85.578087 -45.487934 
L 85.568557 -47.134215 
L 85.55396 -48.780496 
L 85.531832 -50.426777 
L 85.505629 -52.073058 
L 85.471231 -53.719339 
L 85.411889 -55.36562 
L 85.315588 -57.011901 
L 85.190531 -58.658182 
L 85.057743 -60.304463 
L 84.929376 -61.950744 
L 84.788576 -63.597025 
L 84.593364 -65.243306 
L 84.316483 -66.889587 
L 83.983417 -68.535868 
L 83.65567 -70.182149 
L 83.36346 -71.82843 
L 83.059702 -73.474711 
L 82.642192 -75.120992 
L 82.030585 -76.767273 
L 81.242462 -78.413554 
L 80.373863 -80.059835 
L 79.486869 -81.706116 
L 78.548936 -83.352397 
L 77.504933 -84.998678 
L 76.366926 -86.644959 
L 75.210673 -88.29124 
L 74.104435 -89.937521 
L 73.03354 -91.583802 
L 71.917168 -93.230083 
L 70.738094 -94.876364 
L 69.606638 -96.522645 
L 68.64561 -98.168926 
L 67.860978 -99.815207 
L 67.18305 -101.461488 
L 66.598049 -103.107769 
L 66.175779 -104.75405 
L 65.942566 -106.400331 
L 65.767399 -108.046612 
L 65.552884 -109.692893 
L 65.497224 -111.339174 
L 65.842253 -112.985455 
L 66.4644 -114.631736 
L 67.083184 -116.278017 
L 67.708759 -117.924298 
L 68.523037 -119.570579 
L 69.519443 -121.21686 
L 70.568471 -122.86314 
L 71.623571 -124.509421 
L 72.650796 -126.155702 
L 73.589945 -127.801983 
L 74.474233 -129.448264 
L 75.392052 -131.094545 
L 76.361575 -132.740826 
L 77.353574 -134.387107 
L 78.33853 -136.033388 
L 79.255283 -137.679669 
L 80.05151 -139.32595 
L 80.763849 -140.972231 
L 81.455037 -142.618512 
L 82.102674 -144.264793 
L 82.633227 -145.911074 
L 83.037476 -147.557355 
L 83.371224 -149.203636 
L 83.666937 -150.849917 
L 83.920235 -152.496198 
L 84.141095 -154.142479 
L 84.350139 -155.78876 
L 84.536921 -157.435041 
L 84.683348 -159.081322 
L 84.813523 -160.727603 
L 84.965446 -162.373884 
L 85.130479 -164.020165 
L 85.266814 -165.666446 
L 85.35546 -167.312727 
L 85.408527 -168.959008 
L 85.441546 -170.605289 
L 85.463122 -172.25157 
L 85.47978 -173.897851 
L 85.497703 -175.544132 
L 85.51881 -177.190413 
L 85.538605 -178.836694 
L 85.553563 -180.482975 
L 85.566773 -182.129256 
L 85.581218 -183.775537 
L 85.594035 -185.421818 
L 85.601662 -187.068099 
L 85.604618 -188.71438 
L 85.605325 -190.360661 
L 85.60519 -192.006942 
L 85.60424 -193.653223 
L 85.602075 -195.299504 
L 85.599383 -196.945785 
L 85.598296 -198.592066 
L 85.599901 -200.238347 
L 85.602631 -201.884628 
L 85.604538 -203.530909 
L 85.606497 -203.530909 
L 85.606497 -203.530909 
L 85.608403 -201.884628 
L 85.611134 -200.238347 
L 85.612739 -198.592066 
L 85.611651 -196.945785 
L 85.608959 -195.299504 
L 85.606794 -193.653223 
L 85.605845 -192.006942 
L 85.605709 -190.360661 
L 85.606417 -188.71438 
L 85.609373 -187.068099 
L 85.617 -185.421818 
L 85.629817 -183.775537 
L 85.644261 -182.129256 
L 85.657472 -180.482975 
L 85.672429 -178.836694 
L 85.692224 -177.190413 
L 85.713331 -175.544132 
L 85.731254 -173.897851 
L 85.747913 -172.25157 
L 85.769488 -170.605289 
L 85.802507 -168.959008 
L 85.855575 -167.312727 
L 85.944221 -165.666446 
L 86.080556 -164.020165 
L 86.245588 -162.373884 
L 86.397511 -160.727603 
L 86.527686 -159.081322 
L 86.674113 -157.435041 
L 86.860895 -155.78876 
L 87.069939 -154.142479 
L 87.290799 -152.496198 
L 87.544098 -150.849917 
L 87.839811 -149.203636 
L 88.173559 -147.557355 
L 88.577807 -145.911074 
L 89.108361 -144.264793 
L 89.755997 -142.618512 
L 90.447186 -140.972231 
L 91.159524 -139.32595 
L 91.955752 -137.679669 
L 92.872505 -136.033388 
L 93.85746 -134.387107 
L 94.849459 -132.740826 
L 95.818982 -131.094545 
L 96.736802 -129.448264 
L 97.621089 -127.801983 
L 98.560239 -126.155702 
L 99.587464 -124.509421 
L 100.642563 -122.86314 
L 101.691591 -121.21686 
L 102.687998 -119.570579 
L 103.502275 -117.924298 
L 104.127851 -116.278017 
L 104.746634 -114.631736 
L 105.368782 -112.985455 
L 105.71381 -111.339174 
L 105.65815 -109.692893 
L 105.443635 -108.046612 
L 105.268469 -106.400331 
L 105.035255 -104.75405 
L 104.612985 -103.107769 
L 104.027984 -101.461488 
L 103.350057 -99.815207 
L 102.565424 -98.168926 
L 101.604397 -96.522645 
L 100.472941 -94.876364 
L 99.293867 -93.230083 
L 98.177495 -91.583802 
L 97.106599 -89.937521 
L 96.000361 -88.29124 
L 94.844109 -86.644959 
L 93.706101 -84.998678 
L 92.662098 -83.352397 
L 91.724166 -81.706116 
L 90.837172 -80.059835 
L 89.968572 -78.413554 
L 89.18045 -76.767273 
L 88.568843 -75.120992 
L 88.151332 -73.474711 
L 87.847574 -71.82843 
L 87.555364 -70.182149 
L 87.227617 -68.535868 
L 86.894551 -66.889587 
L 86.61767 -65.243306 
L 86.422458 -63.597025 
L 86.281659 -61.950744 
L 86.153291 -60.304463 
L 86.020503 -58.658182 
L 85.895446 -57.011901 
L 85.799146 -55.36562 
L 85.739804 -53.719339 
L 85.705406 -52.073058 
L 85.679203 -50.426777 
L 85.657074 -48.780496 
L 85.642477 -47.134215 
L 85.632948 -45.487934 
L 85.623187 -43.841653 
L 85.613903 -42.195372 
L 85.608244 -40.549091 
z
" id="m2ccb59f69b" style="stroke:#484848;stroke-width:1.5;"/>
    </defs>
    <g clip-path="url(#pc473483d42)">
     <use style="fill:#477ca8;stroke:#484848;stroke-width:1.5;" x="0" xlink:href="#m2ccb59f69b" y="216"/>
    </g>
   </g>
   <g id="matplotlib.axis_3">
    <g id="xtick_2">
     <g id="line2d_4">
      <g>
       <use style="stroke:#000000;stroke-width:0.8;" x="85.605517" xlink:href="#m699325f669" y="183.6"/>
      </g>
     </g>
     <g id="text_2">
      <!-- Modeller -->
      <g transform="translate(64.071142 198.198438)scale(0.1 -0.1)">
       <use xlink:href="#DejaVuSans-77"/>
       <use x="86.279297" xlink:href="#DejaVuSans-111"/>
       <use x="147.460938" xlink:href="#DejaVuSans-100"/>
       <use x="210.9375" xlink:href="#DejaVuSans-101"/>
       <use x="272.460938" xlink:href="#DejaVuSans-108"/>
       <use x="300.244141" xlink:href="#DejaVuSans-108"/>
       <use x="328.027344" xlink:href="#DejaVuSans-101"/>
       <use x="389.550781" xlink:href="#DejaVuSans-114"/>
      </g>
      <!-- (dope_norm) -->
      <defs>
       <path d="M 50.984375 -16.609375 
L 50.984375 -23.578125 
L -0.984375 -23.578125 
L -0.984375 -16.609375 
z
" id="DejaVuSans-95"/>
       <path d="M 54.890625 33.015625 
L 54.890625 0 
L 45.90625 0 
L 45.90625 32.71875 
Q 45.90625 40.484375 42.875 44.328125 
Q 39.84375 48.1875 33.796875 48.1875 
Q 26.515625 48.1875 22.3125 43.546875 
Q 18.109375 38.921875 18.109375 30.90625 
L 18.109375 0 
L 9.078125 0 
L 9.078125 54.6875 
L 18.109375 54.6875 
L 18.109375 46.1875 
Q 21.34375 51.125 25.703125 53.5625 
Q 30.078125 56 35.796875 56 
Q 45.21875 56 50.046875 50.171875 
Q 54.890625 44.34375 54.890625 33.015625 
z
" id="DejaVuSans-110"/>
      </defs>
      <g transform="translate(53.653173 209.39625)scale(0.1 -0.1)">
       <use xlink:href="#DejaVuSans-40"/>
       <use x="39.013672" xlink:href="#DejaVuSans-100"/>
       <use x="102.490234" xlink:href="#DejaVuSans-111"/>
       <use x="163.671875" xlink:href="#DejaVuSans-112"/>
       <use x="227.148438" xlink:href="#DejaVuSans-101"/>
       <use x="288.671875" xlink:href="#DejaVuSans-95"/>
       <use x="338.671875" xlink:href="#DejaVuSans-110"/>
       <use x="402.050781" xlink:href="#DejaVuSans-111"/>
       <use x="463.232422" xlink:href="#DejaVuSans-114"/>
       <use x="502.595703" xlink:href="#DejaVuSans-109"/>
       <use x="600.007812" xlink:href="#DejaVuSans-41"/>
      </g>
     </g>
    </g>
   </g>
   <g id="matplotlib.axis_4"/>
   <g id="LineCollection_2">
    <path clip-path="url(#pc473483d42)" d="M 63.486395 103.656704 
L 107.724639 103.656704 
" style="fill:none;stroke:#000000;stroke-dasharray:1.5,2.475;stroke-dashoffset:0;stroke-width:1.5;"/>
   </g>
   <g id="line2d_5">
    <path clip-path="url(#pc473483d42)" d="M 85.605517 155.575946 
L 85.605517 56.59687 
" style="fill:none;stroke:#484848;stroke-linecap:square;stroke-width:1.5;"/>
   </g>
   <g id="line2d_6">
    <path clip-path="url(#pc473483d42)" d="M 85.605517 118.463807 
L 85.605517 93.702627 
" style="fill:none;stroke:#484848;stroke-linecap:square;stroke-width:4.5;"/>
   </g>
   <g id="patch_6">
    <path d="M 61.274483 183.6 
L 109.936552 183.6 
" style="fill:none;stroke:#000000;stroke-linecap:square;stroke-linejoin:miter;stroke-width:0.8;"/>
   </g>
   <g id="patch_7">
    <path d="M 61.274483 4.32 
L 109.936552 4.32 
" style="fill:none;stroke:#000000;stroke-linecap:square;stroke-linejoin:miter;stroke-width:0.8;"/>
   </g>
   <g id="PathCollection_2">
    <defs>
     <path d="M 0 1.5 
C 0.397805 1.5 0.77937 1.341951 1.06066 1.06066 
C 1.341951 0.77937 1.5 0.397805 1.5 0 
C 1.5 -0.397805 1.341951 -0.77937 1.06066 -1.06066 
C 0.77937 -1.341951 0.397805 -1.5 0 -1.5 
C -0.397805 -1.5 -0.77937 -1.341951 -1.06066 -1.06066 
C -1.341951 -0.77937 -1.5 -0.397805 -1.5 0 
C -1.5 0.397805 -1.341951 0.77937 -1.06066 1.06066 
C -0.77937 1.341951 -0.397805 1.5 0 1.5 
z
" id="m4f7c4de4be" style="stroke:#484848;"/>
    </defs>
    <g clip-path="url(#pc473483d42)">
     <use style="fill:#ffffff;stroke:#484848;" x="85.605517" xlink:href="#m4f7c4de4be" y="106.132868"/>
    </g>
   </g>
  </g>
  <g id="axes_3">
   <g id="patch_8">
    <path d="M 119.668966 183.6 
L 168.331034 183.6 
L 168.331034 4.32 
L 119.668966 4.32 
z
" style="fill:#ffffff;"/>
   </g>
   <g id="PolyCollection_3">
    <defs>
     <path d="M 144.001023 -40.549091 
L 143.998977 -40.549091 
L 143.996154 -42.195372 
L 143.991428 -43.841653 
L 143.986485 -45.487934 
L 143.981415 -47.134215 
L 143.976762 -48.780496 
L 143.973888 -50.426777 
L 143.970794 -52.073058 
L 143.964214 -53.719339 
L 143.954337 -55.36562 
L 143.933755 -57.011901 
L 143.877516 -58.658182 
L 143.761351 -60.304463 
L 143.588315 -61.950744 
L 143.403858 -63.597025 
L 143.238014 -65.243306 
L 143.02664 -66.889587 
L 142.670086 -68.535868 
L 142.163361 -70.182149 
L 141.558905 -71.82843 
L 140.821039 -73.474711 
L 139.90718 -75.120992 
L 138.917592 -76.767273 
L 137.912508 -78.413554 
L 136.803506 -80.059835 
L 135.488404 -81.706116 
L 133.884232 -83.352397 
L 132.12896 -84.998678 
L 130.561987 -86.644959 
L 129.247418 -88.29124 
L 128.064238 -89.937521 
L 127.001922 -91.583802 
L 125.9467 -93.230083 
L 124.909877 -94.876364 
L 124.245617 -96.522645 
L 124.036596 -98.168926 
L 123.970306 -99.815207 
L 123.891707 -101.461488 
L 123.921595 -103.107769 
L 124.142289 -104.75405 
L 124.60054 -106.400331 
L 125.352491 -108.046612 
L 126.475317 -109.692893 
L 127.986339 -111.339174 
L 129.565261 -112.985455 
L 130.93256 -114.631736 
L 132.160415 -116.278017 
L 133.394758 -117.924298 
L 134.628154 -119.570579 
L 135.76116 -121.21686 
L 136.829771 -122.86314 
L 137.926994 -124.509421 
L 138.949756 -126.155702 
L 139.730427 -127.801983 
L 140.276223 -129.448264 
L 140.735524 -131.094545 
L 141.216048 -132.740826 
L 141.692226 -134.387107 
L 142.083364 -136.033388 
L 142.391176 -137.679669 
L 142.69216 -139.32595 
L 143.018091 -140.972231 
L 143.299232 -142.618512 
L 143.486038 -144.264793 
L 143.600221 -145.911074 
L 143.660186 -147.557355 
L 143.679289 -149.203636 
L 143.702908 -150.849917 
L 143.764722 -152.496198 
L 143.845638 -154.142479 
L 143.908466 -155.78876 
L 143.938085 -157.435041 
L 143.949696 -159.081322 
L 143.958631 -160.727603 
L 143.965448 -162.373884 
L 143.972281 -164.020165 
L 143.979873 -165.666446 
L 143.983968 -167.312727 
L 143.98288 -168.959008 
L 143.978495 -170.605289 
L 143.975557 -172.25157 
L 143.978121 -173.897851 
L 143.983807 -175.544132 
L 143.988101 -177.190413 
L 143.990066 -178.836694 
L 143.992446 -180.482975 
L 143.996251 -182.129256 
L 143.998955 -183.775537 
L 143.999843 -185.421818 
L 143.999987 -187.068099 
L 143.999999 -188.71438 
L 143.999999 -190.360661 
L 143.999987 -192.006942 
L 143.999841 -193.653223 
L 143.99895 -195.299504 
L 143.996317 -196.945785 
L 143.993134 -198.592066 
L 143.9932 -200.238347 
L 143.996421 -201.884628 
L 143.998999 -203.530909 
L 144.001001 -203.530909 
L 144.001001 -203.530909 
L 144.003579 -201.884628 
L 144.0068 -200.238347 
L 144.006866 -198.592066 
L 144.003683 -196.945785 
L 144.00105 -195.299504 
L 144.000159 -193.653223 
L 144.000013 -192.006942 
L 144.000001 -190.360661 
L 144.000001 -188.71438 
L 144.000013 -187.068099 
L 144.000157 -185.421818 
L 144.001045 -183.775537 
L 144.003749 -182.129256 
L 144.007554 -180.482975 
L 144.009934 -178.836694 
L 144.011899 -177.190413 
L 144.016193 -175.544132 
L 144.021879 -173.897851 
L 144.024443 -172.25157 
L 144.021505 -170.605289 
L 144.01712 -168.959008 
L 144.016032 -167.312727 
L 144.020127 -165.666446 
L 144.027719 -164.020165 
L 144.034552 -162.373884 
L 144.041369 -160.727603 
L 144.050304 -159.081322 
L 144.061915 -157.435041 
L 144.091534 -155.78876 
L 144.154362 -154.142479 
L 144.235278 -152.496198 
L 144.297092 -150.849917 
L 144.320711 -149.203636 
L 144.339814 -147.557355 
L 144.399779 -145.911074 
L 144.513962 -144.264793 
L 144.700768 -142.618512 
L 144.981909 -140.972231 
L 145.30784 -139.32595 
L 145.608824 -137.679669 
L 145.916636 -136.033388 
L 146.307774 -134.387107 
L 146.783952 -132.740826 
L 147.264476 -131.094545 
L 147.723777 -129.448264 
L 148.269573 -127.801983 
L 149.050244 -126.155702 
L 150.073006 -124.509421 
L 151.170229 -122.86314 
L 152.23884 -121.21686 
L 153.371846 -119.570579 
L 154.605242 -117.924298 
L 155.839585 -116.278017 
L 157.06744 -114.631736 
L 158.434739 -112.985455 
L 160.013661 -111.339174 
L 161.524683 -109.692893 
L 162.647509 -108.046612 
L 163.39946 -106.400331 
L 163.857711 -104.75405 
L 164.078405 -103.107769 
L 164.108293 -101.461488 
L 164.029694 -99.815207 
L 163.963404 -98.168926 
L 163.754383 -96.522645 
L 163.090123 -94.876364 
L 162.0533 -93.230083 
L 160.998078 -91.583802 
L 159.935762 -89.937521 
L 158.752582 -88.29124 
L 157.438013 -86.644959 
L 155.87104 -84.998678 
L 154.115768 -83.352397 
L 152.511596 -81.706116 
L 151.196494 -80.059835 
L 150.087492 -78.413554 
L 149.082408 -76.767273 
L 148.09282 -75.120992 
L 147.178961 -73.474711 
L 146.441095 -71.82843 
L 145.836639 -70.182149 
L 145.329914 -68.535868 
L 144.97336 -66.889587 
L 144.761986 -65.243306 
L 144.596142 -63.597025 
L 144.411685 -61.950744 
L 144.238649 -60.304463 
L 144.122484 -58.658182 
L 144.066245 -57.011901 
L 144.045663 -55.36562 
L 144.035786 -53.719339 
L 144.029206 -52.073058 
L 144.026112 -50.426777 
L 144.023238 -48.780496 
L 144.018585 -47.134215 
L 144.013515 -45.487934 
L 144.008572 -43.841653 
L 144.003846 -42.195372 
L 144.001023 -40.549091 
z
" id="md0abb1674d" style="stroke:#4b4b4b;stroke-width:1.5;"/>
    </defs>
    <g clip-path="url(#pe988ee449e)">
     <use style="fill:#59a257;stroke:#4b4b4b;stroke-width:1.5;" x="0" xlink:href="#md0abb1674d" y="216"/>
    </g>
   </g>
   <g id="matplotlib.axis_5">
    <g id="xtick_3">
     <g id="line2d_7">
      <g>
       <use style="stroke:#000000;stroke-width:0.8;" x="144" xlink:href="#m699325f669" y="183.6"/>
      </g>
     </g>
     <g id="text_3">
      <!-- Modeller -->
      <g transform="translate(122.465625 198.198438)scale(0.1 -0.1)">
       <use xlink:href="#DejaVuSans-77"/>
       <use x="86.279297" xlink:href="#DejaVuSans-111"/>
       <use x="147.460938" xlink:href="#DejaVuSans-100"/>
       <use x="210.9375" xlink:href="#DejaVuSans-101"/>
       <use x="272.460938" xlink:href="#DejaVuSans-108"/>
       <use x="300.244141" xlink:href="#DejaVuSans-108"/>
       <use x="328.027344" xlink:href="#DejaVuSans-101"/>
       <use x="389.550781" xlink:href="#DejaVuSans-114"/>
      </g>
      <!-- (dope_hr) -->
      <defs>
       <path d="M 54.890625 33.015625 
L 54.890625 0 
L 45.90625 0 
L 45.90625 32.71875 
Q 45.90625 40.484375 42.875 44.328125 
Q 39.84375 48.1875 33.796875 48.1875 
Q 26.515625 48.1875 22.3125 43.546875 
Q 18.109375 38.921875 18.109375 30.90625 
L 18.109375 0 
L 9.078125 0 
L 9.078125 75.984375 
L 18.109375 75.984375 
L 18.109375 46.1875 
Q 21.34375 51.125 25.703125 53.5625 
Q 30.078125 56 35.796875 56 
Q 45.21875 56 50.046875 50.171875 
Q 54.890625 44.34375 54.890625 33.015625 
z
" id="DejaVuSans-104"/>
      </defs>
      <g transform="translate(119.889844 209.39625)scale(0.1 -0.1)">
       <use xlink:href="#DejaVuSans-40"/>
       <use x="39.013672" xlink:href="#DejaVuSans-100"/>
       <use x="102.490234" xlink:href="#DejaVuSans-111"/>
       <use x="163.671875" xlink:href="#DejaVuSans-112"/>
       <use x="227.148438" xlink:href="#DejaVuSans-101"/>
       <use x="288.671875" xlink:href="#DejaVuSans-95"/>
       <use x="338.671875" xlink:href="#DejaVuSans-104"/>
       <use x="402.050781" xlink:href="#DejaVuSans-114"/>
       <use x="443.164062" xlink:href="#DejaVuSans-41"/>
      </g>
     </g>
    </g>
   </g>
   <g id="matplotlib.axis_6"/>
   <g id="LineCollection_3">
    <path clip-path="url(#pe988ee449e)" d="M 121.880878 100.635703 
L 166.119122 100.635703 
" style="fill:none;stroke:#000000;stroke-dasharray:1.5,2.475;stroke-dashoffset:0;stroke-width:1.5;"/>
   </g>
   <g id="line2d_8">
    <path clip-path="url(#pe988ee449e)" d="M 144 154.261568 
L 144 74.705237 
" style="fill:none;stroke:#4b4b4b;stroke-linecap:square;stroke-width:1.5;"/>
   </g>
   <g id="line2d_9">
    <path clip-path="url(#pe988ee449e)" d="M 144 124.465128 
L 144 104.55388 
" style="fill:none;stroke:#4b4b4b;stroke-linecap:square;stroke-width:4.5;"/>
   </g>
   <g id="patch_9">
    <path d="M 119.668966 183.6 
L 168.331034 183.6 
" style="fill:none;stroke:#000000;stroke-linecap:square;stroke-linejoin:miter;stroke-width:0.8;"/>
   </g>
   <g id="patch_10">
    <path d="M 119.668966 4.32 
L 168.331034 4.32 
" style="fill:none;stroke:#000000;stroke-linecap:square;stroke-linejoin:miter;stroke-width:0.8;"/>
   </g>
   <g id="PathCollection_3">
    <defs>
     <path d="M 0 1.5 
C 0.397805 1.5 0.77937 1.341951 1.06066 1.06066 
C 1.341951 0.77937 1.5 0.397805 1.5 0 
C 1.5 -0.397805 1.341951 -0.77937 1.06066 -1.06066 
C 0.77937 -1.341951 0.397805 -1.5 0 -1.5 
C -0.397805 -1.5 -0.77937 -1.341951 -1.06066 -1.06066 
C -1.341951 -0.77937 -1.5 -0.397805 -1.5 0 
C -1.5 0.397805 -1.341951 0.77937 -1.06066 1.06066 
C -0.77937 1.341951 -0.397805 1.5 0 1.5 
z
" id="m91e5ba62b3" style="stroke:#4b4b4b;"/>
    </defs>
    <g clip-path="url(#pe988ee449e)">
     <use style="fill:#ffffff;stroke:#4b4b4b;" x="144" xlink:href="#m91e5ba62b3" y="114.53997"/>
    </g>
   </g>
  </g>
  <g id="axes_4">
   <g id="patch_11">
    <path d="M 178.063448 183.6 
L 226.725517 183.6 
L 226.725517 4.32 
L 178.063448 4.32 
z
" style="fill:#ffffff;"/>
   </g>
   <g id="PolyCollection_4">
    <defs>
     <path d="M 202.395722 -40.549091 
L 202.393244 -40.549091 
L 202.384348 -42.195372 
L 202.378146 -43.841653 
L 202.360339 -45.487934 
L 202.325654 -47.134215 
L 202.283177 -48.780496 
L 202.235495 -50.426777 
L 202.138468 -52.073058 
L 201.882137 -53.719339 
L 201.387832 -55.36562 
L 200.897702 -57.011901 
L 200.271899 -58.658182 
L 199.087418 -60.304463 
L 197.359976 -61.950744 
L 195.270641 -63.597025 
L 193.198991 -65.243306 
L 190.553935 -66.889587 
L 188.204888 -68.535868 
L 186.320911 -70.182149 
L 184.214492 -71.82843 
L 183.025775 -73.474711 
L 182.28619 -75.120992 
L 182.416629 -76.767273 
L 183.506673 -78.413554 
L 185.727125 -80.059835 
L 188.086809 -81.706116 
L 190.82365 -83.352397 
L 193.817218 -84.998678 
L 195.933652 -86.644959 
L 197.65618 -88.29124 
L 199.007678 -89.937521 
L 200.241664 -91.583802 
L 201.121626 -93.230083 
L 201.499196 -94.876364 
L 201.81894 -96.522645 
L 202.028262 -98.168926 
L 202.160056 -99.815207 
L 202.278864 -101.461488 
L 202.320421 -103.107769 
L 202.341619 -104.75405 
L 202.342487 -106.400331 
L 202.372899 -108.046612 
L 202.3928 -109.692893 
L 202.394463 -111.339174 
L 202.394483 -112.985455 
L 202.394483 -114.631736 
L 202.394482 -116.278017 
L 202.394409 -117.924298 
L 202.392423 -119.570579 
L 202.387539 -121.21686 
L 202.39166 -122.86314 
L 202.394344 -124.509421 
L 202.394482 -126.155702 
L 202.394483 -127.801983 
L 202.394483 -129.448264 
L 202.394483 -131.094545 
L 202.394483 -132.740826 
L 202.394483 -134.387107 
L 202.394483 -136.033388 
L 202.394483 -137.679669 
L 202.394483 -139.32595 
L 202.394483 -140.972231 
L 202.394483 -142.618512 
L 202.394483 -144.264793 
L 202.394483 -145.911074 
L 202.394483 -147.557355 
L 202.394483 -149.203636 
L 202.394483 -150.849917 
L 202.394483 -152.496198 
L 202.394474 -154.142479 
L 202.393815 -155.78876 
L 202.387472 -157.435041 
L 202.382203 -159.081322 
L 202.390572 -160.727603 
L 202.394288 -162.373884 
L 202.394481 -164.020165 
L 202.394483 -165.666446 
L 202.394456 -167.312727 
L 202.392897 -168.959008 
L 202.383033 -170.605289 
L 202.383227 -172.25157 
L 202.380189 -173.897851 
L 202.367631 -175.544132 
L 202.378037 -177.190413 
L 202.389579 -178.836694 
L 202.387442 -180.482975 
L 202.392136 -182.129256 
L 202.394388 -183.775537 
L 202.394482 -185.421818 
L 202.394483 -187.068099 
L 202.394483 -188.71438 
L 202.394483 -190.360661 
L 202.394483 -192.006942 
L 202.394483 -193.653223 
L 202.394483 -195.299504 
L 202.394478 -196.945785 
L 202.394055 -198.592066 
L 202.389861 -200.238347 
L 202.388464 -201.884628 
L 202.393538 -203.530909 
L 202.395428 -203.530909 
L 202.395428 -203.530909 
L 202.400501 -201.884628 
L 202.399104 -200.238347 
L 202.394911 -198.592066 
L 202.394488 -196.945785 
L 202.394483 -195.299504 
L 202.394483 -193.653223 
L 202.394483 -192.006942 
L 202.394483 -190.360661 
L 202.394483 -188.71438 
L 202.394483 -187.068099 
L 202.394483 -185.421818 
L 202.394578 -183.775537 
L 202.396829 -182.129256 
L 202.401524 -180.482975 
L 202.399386 -178.836694 
L 202.410928 -177.190413 
L 202.421334 -175.544132 
L 202.408776 -173.897851 
L 202.405739 -172.25157 
L 202.405933 -170.605289 
L 202.396068 -168.959008 
L 202.394509 -167.312727 
L 202.394483 -165.666446 
L 202.394484 -164.020165 
L 202.394677 -162.373884 
L 202.398394 -160.727603 
L 202.406763 -159.081322 
L 202.401493 -157.435041 
L 202.395151 -155.78876 
L 202.394492 -154.142479 
L 202.394483 -152.496198 
L 202.394483 -150.849917 
L 202.394483 -149.203636 
L 202.394483 -147.557355 
L 202.394483 -145.911074 
L 202.394483 -144.264793 
L 202.394483 -142.618512 
L 202.394483 -140.972231 
L 202.394483 -139.32595 
L 202.394483 -137.679669 
L 202.394483 -136.033388 
L 202.394483 -134.387107 
L 202.394483 -132.740826 
L 202.394483 -131.094545 
L 202.394483 -129.448264 
L 202.394483 -127.801983 
L 202.394484 -126.155702 
L 202.394621 -124.509421 
L 202.397305 -122.86314 
L 202.401426 -121.21686 
L 202.396543 -119.570579 
L 202.394556 -117.924298 
L 202.394483 -116.278017 
L 202.394483 -114.631736 
L 202.394483 -112.985455 
L 202.394502 -111.339174 
L 202.396166 -109.692893 
L 202.416067 -108.046612 
L 202.446478 -106.400331 
L 202.447347 -104.75405 
L 202.468545 -103.107769 
L 202.510102 -101.461488 
L 202.628909 -99.815207 
L 202.760704 -98.168926 
L 202.970026 -96.522645 
L 203.28977 -94.876364 
L 203.667339 -93.230083 
L 204.547301 -91.583802 
L 205.781288 -89.937521 
L 207.132786 -88.29124 
L 208.855313 -86.644959 
L 210.971747 -84.998678 
L 213.965316 -83.352397 
L 216.702157 -81.706116 
L 219.06184 -80.059835 
L 221.282293 -78.413554 
L 222.372337 -76.767273 
L 222.502776 -75.120992 
L 221.76319 -73.474711 
L 220.574473 -71.82843 
L 218.468055 -70.182149 
L 216.584077 -68.535868 
L 214.23503 -66.889587 
L 211.589974 -65.243306 
L 209.518324 -63.597025 
L 207.42899 -61.950744 
L 205.701547 -60.304463 
L 204.517067 -58.658182 
L 203.891263 -57.011901 
L 203.401134 -55.36562 
L 202.906828 -53.719339 
L 202.650498 -52.073058 
L 202.553471 -50.426777 
L 202.505789 -48.780496 
L 202.463312 -47.134215 
L 202.428627 -45.487934 
L 202.41082 -43.841653 
L 202.404617 -42.195372 
L 202.395722 -40.549091 
z
" id="m46ffdebdbd" style="stroke:#484848;stroke-width:1.5;"/>
    </defs>
    <g clip-path="url(#p2a5272a2a5)">
     <use style="fill:#905998;stroke:#484848;stroke-width:1.5;" x="0" xlink:href="#m46ffdebdbd" y="216"/>
    </g>
   </g>
   <g id="matplotlib.axis_7">
    <g id="xtick_4">
     <g id="line2d_10">
      <g>
       <use style="stroke:#000000;stroke-width:0.8;" x="202.394483" xlink:href="#m699325f669" y="183.6"/>
      </g>
     </g>
     <g id="text_4">
      <!-- Modeller -->
      <g transform="translate(180.860108 198.198438)scale(0.1 -0.1)">
       <use xlink:href="#DejaVuSans-77"/>
       <use x="86.279297" xlink:href="#DejaVuSans-111"/>
       <use x="147.460938" xlink:href="#DejaVuSans-100"/>
       <use x="210.9375" xlink:href="#DejaVuSans-101"/>
       <use x="272.460938" xlink:href="#DejaVuSans-108"/>
       <use x="300.244141" xlink:href="#DejaVuSans-108"/>
       <use x="328.027344" xlink:href="#DejaVuSans-101"/>
       <use x="389.550781" xlink:href="#DejaVuSans-114"/>
      </g>
      <!-- (ga341) -->
      <defs>
       <path d="M 45.40625 27.984375 
Q 45.40625 37.75 41.375 43.109375 
Q 37.359375 48.484375 30.078125 48.484375 
Q 22.859375 48.484375 18.828125 43.109375 
Q 14.796875 37.75 14.796875 27.984375 
Q 14.796875 18.265625 18.828125 12.890625 
Q 22.859375 7.515625 30.078125 7.515625 
Q 37.359375 7.515625 41.375 12.890625 
Q 45.40625 18.265625 45.40625 27.984375 
z
M 54.390625 6.78125 
Q 54.390625 -7.171875 48.1875 -13.984375 
Q 42 -20.796875 29.203125 -20.796875 
Q 24.46875 -20.796875 20.265625 -20.09375 
Q 16.0625 -19.390625 12.109375 -17.921875 
L 12.109375 -9.1875 
Q 16.0625 -11.328125 19.921875 -12.34375 
Q 23.78125 -13.375 27.78125 -13.375 
Q 36.625 -13.375 41.015625 -8.765625 
Q 45.40625 -4.15625 45.40625 5.171875 
L 45.40625 9.625 
Q 42.625 4.78125 38.28125 2.390625 
Q 33.9375 0 27.875 0 
Q 17.828125 0 11.671875 7.65625 
Q 5.515625 15.328125 5.515625 27.984375 
Q 5.515625 40.671875 11.671875 48.328125 
Q 17.828125 56 27.875 56 
Q 33.9375 56 38.28125 53.609375 
Q 42.625 51.21875 45.40625 46.390625 
L 45.40625 54.6875 
L 54.390625 54.6875 
z
" id="DejaVuSans-103"/>
       <path d="M 34.28125 27.484375 
Q 23.390625 27.484375 19.1875 25 
Q 14.984375 22.515625 14.984375 16.5 
Q 14.984375 11.71875 18.140625 8.90625 
Q 21.296875 6.109375 26.703125 6.109375 
Q 34.1875 6.109375 38.703125 11.40625 
Q 43.21875 16.703125 43.21875 25.484375 
L 43.21875 27.484375 
z
M 52.203125 31.203125 
L 52.203125 0 
L 43.21875 0 
L 43.21875 8.296875 
Q 40.140625 3.328125 35.546875 0.953125 
Q 30.953125 -1.421875 24.3125 -1.421875 
Q 15.921875 -1.421875 10.953125 3.296875 
Q 6 8.015625 6 15.921875 
Q 6 25.140625 12.171875 29.828125 
Q 18.359375 34.515625 30.609375 34.515625 
L 43.21875 34.515625 
L 43.21875 35.40625 
Q 43.21875 41.609375 39.140625 45 
Q 35.0625 48.390625 27.6875 48.390625 
Q 23 48.390625 18.546875 47.265625 
Q 14.109375 46.140625 10.015625 43.890625 
L 10.015625 52.203125 
Q 14.9375 54.109375 19.578125 55.046875 
Q 24.21875 56 28.609375 56 
Q 40.484375 56 46.34375 49.84375 
Q 52.203125 43.703125 52.203125 31.203125 
z
" id="DejaVuSans-97"/>
       <path d="M 40.578125 39.3125 
Q 47.65625 37.796875 51.625 33 
Q 55.609375 28.21875 55.609375 21.1875 
Q 55.609375 10.40625 48.1875 4.484375 
Q 40.765625 -1.421875 27.09375 -1.421875 
Q 22.515625 -1.421875 17.65625 -0.515625 
Q 12.796875 0.390625 7.625 2.203125 
L 7.625 11.71875 
Q 11.71875 9.328125 16.59375 8.109375 
Q 21.484375 6.890625 26.8125 6.890625 
Q 36.078125 6.890625 40.9375 10.546875 
Q 45.796875 14.203125 45.796875 21.1875 
Q 45.796875 27.640625 41.28125 31.265625 
Q 36.765625 34.90625 28.71875 34.90625 
L 20.21875 34.90625 
L 20.21875 43.015625 
L 29.109375 43.015625 
Q 36.375 43.015625 40.234375 45.921875 
Q 44.09375 48.828125 44.09375 54.296875 
Q 44.09375 59.90625 40.109375 62.90625 
Q 36.140625 65.921875 28.71875 65.921875 
Q 24.65625 65.921875 20.015625 65.03125 
Q 15.375 64.15625 9.8125 62.3125 
L 9.8125 71.09375 
Q 15.4375 72.65625 20.34375 73.4375 
Q 25.25 74.21875 29.59375 74.21875 
Q 40.828125 74.21875 47.359375 69.109375 
Q 53.90625 64.015625 53.90625 55.328125 
Q 53.90625 49.265625 50.4375 45.09375 
Q 46.96875 40.921875 40.578125 39.3125 
z
" id="DejaVuSans-51"/>
       <path d="M 37.796875 64.3125 
L 12.890625 25.390625 
L 37.796875 25.390625 
z
M 35.203125 72.90625 
L 47.609375 72.90625 
L 47.609375 25.390625 
L 58.015625 25.390625 
L 58.015625 17.1875 
L 47.609375 17.1875 
L 47.609375 0 
L 37.796875 0 
L 37.796875 17.1875 
L 4.890625 17.1875 
L 4.890625 26.703125 
z
" id="DejaVuSans-52"/>
       <path d="M 12.40625 8.296875 
L 28.515625 8.296875 
L 28.515625 63.921875 
L 10.984375 60.40625 
L 10.984375 69.390625 
L 28.421875 72.90625 
L 38.28125 72.90625 
L 38.28125 8.296875 
L 54.390625 8.296875 
L 54.390625 0 
L 12.40625 0 
z
" id="DejaVuSans-49"/>
      </defs>
      <g transform="translate(182.710889 209.39625)scale(0.1 -0.1)">
       <use xlink:href="#DejaVuSans-40"/>
       <use x="39.013672" xlink:href="#DejaVuSans-103"/>
       <use x="102.490234" xlink:href="#DejaVuSans-97"/>
       <use x="163.769531" xlink:href="#DejaVuSans-51"/>
       <use x="227.392578" xlink:href="#DejaVuSans-52"/>
       <use x="291.015625" xlink:href="#DejaVuSans-49"/>
       <use x="354.638672" xlink:href="#DejaVuSans-41"/>
      </g>
     </g>
    </g>
   </g>
   <g id="matplotlib.axis_8"/>
   <g id="LineCollection_4">
    <path clip-path="url(#p2a5272a2a5)" d="M 180.275361 137.133001 
L 224.513605 137.133001 
" style="fill:none;stroke:#000000;stroke-dasharray:1.5,2.475;stroke-dashoffset:0;stroke-width:1.5;"/>
   </g>
   <g id="line2d_11">
    <path clip-path="url(#p2a5272a2a5)" d="M 202.394483 161.960344 
L 202.394483 119.948206 
" style="fill:none;stroke:#484848;stroke-linecap:square;stroke-width:1.5;"/>
   </g>
   <g id="line2d_12">
    <path clip-path="url(#p2a5272a2a5)" d="M 202.394483 146.219375 
L 202.394483 135.710862 
" style="fill:none;stroke:#484848;stroke-linecap:square;stroke-width:4.5;"/>
   </g>
   <g id="patch_12">
    <path d="M 178.063448 183.6 
L 226.725517 183.6 
" style="fill:none;stroke:#000000;stroke-linecap:square;stroke-linejoin:miter;stroke-width:0.8;"/>
   </g>
   <g id="patch_13">
    <path d="M 178.063448 4.32 
L 226.725517 4.32 
" style="fill:none;stroke:#000000;stroke-linecap:square;stroke-linejoin:miter;stroke-width:0.8;"/>
   </g>
   <g id="PathCollection_4">
    <g clip-path="url(#p2a5272a2a5)">
     <use style="fill:#ffffff;stroke:#484848;" x="202.394483" xlink:href="#m4f7c4de4be" y="140.834283"/>
    </g>
   </g>
  </g>
  <g id="axes_5">
   <g id="patch_14">
    <path d="M 236.457931 183.6 
L 285.12 183.6 
L 285.12 4.32 
L 236.457931 4.32 
z
" style="fill:#ffffff;"/>
   </g>
   <g id="PolyCollection_5">
    <defs>
     <path d="M 260.79199 -40.549091 
L 260.785941 -40.549091 
L 260.764174 -42.195372 
L 260.680514 -43.841653 
L 260.373412 -45.487934 
L 259.464307 -47.134215 
L 257.515458 -48.780496 
L 254.305518 -50.426777 
L 250.000041 -52.073058 
L 245.672752 -53.719339 
L 242.115837 -55.36562 
L 240.680673 -57.011901 
L 241.762641 -58.658182 
L 245.168349 -60.304463 
L 249.641298 -61.950744 
L 253.462119 -63.597025 
L 256.023127 -65.243306 
L 257.877483 -66.889587 
L 259.336678 -68.535868 
L 260.035508 -70.182149 
L 260.275588 -71.82843 
L 260.447643 -73.474711 
L 260.525774 -75.120992 
L 260.527762 -76.767273 
L 260.537663 -78.413554 
L 260.554723 -80.059835 
L 260.560718 -81.706116 
L 260.57266 -83.352397 
L 260.479648 -84.998678 
L 260.242863 -86.644959 
L 260.070535 -88.29124 
L 260.134151 -89.937521 
L 260.30054 -91.583802 
L 260.37182 -93.230083 
L 260.445257 -94.876364 
L 260.533546 -96.522645 
L 260.587576 -98.168926 
L 260.645497 -99.815207 
L 260.710564 -101.461488 
L 260.767165 -103.107769 
L 260.786996 -104.75405 
L 260.788918 -106.400331 
L 260.788965 -108.046612 
L 260.788966 -109.692893 
L 260.788966 -111.339174 
L 260.788966 -112.985455 
L 260.788966 -114.631736 
L 260.788966 -116.278017 
L 260.788966 -117.924298 
L 260.788966 -119.570579 
L 260.788966 -121.21686 
L 260.788966 -122.86314 
L 260.788966 -124.509421 
L 260.788966 -126.155702 
L 260.788966 -127.801983 
L 260.788966 -129.448264 
L 260.788966 -131.094545 
L 260.788966 -132.740826 
L 260.788966 -134.387107 
L 260.788966 -136.033388 
L 260.788966 -137.679669 
L 260.788966 -139.32595 
L 260.788966 -140.972231 
L 260.788966 -142.618512 
L 260.788966 -144.264793 
L 260.788966 -145.911074 
L 260.788966 -147.557355 
L 260.788966 -149.203636 
L 260.788966 -150.849917 
L 260.788966 -152.496198 
L 260.788966 -154.142479 
L 260.788966 -155.78876 
L 260.788966 -157.435041 
L 260.788966 -159.081322 
L 260.788966 -160.727603 
L 260.788966 -162.373884 
L 260.788966 -164.020165 
L 260.788966 -165.666446 
L 260.788966 -167.312727 
L 260.788966 -168.959008 
L 260.788966 -170.605289 
L 260.788966 -172.25157 
L 260.788966 -173.897851 
L 260.788966 -175.544132 
L 260.788966 -177.190413 
L 260.788966 -178.836694 
L 260.788966 -180.482975 
L 260.788966 -182.129256 
L 260.788966 -183.775537 
L 260.788966 -185.421818 
L 260.788966 -187.068099 
L 260.788966 -188.71438 
L 260.788966 -190.360661 
L 260.788966 -192.006942 
L 260.788965 -193.653223 
L 260.788961 -195.299504 
L 260.788703 -196.945785 
L 260.785379 -198.592066 
L 260.777256 -200.238347 
L 260.779816 -201.884628 
L 260.787255 -203.530909 
L 260.790677 -203.530909 
L 260.790677 -203.530909 
L 260.798115 -201.884628 
L 260.800675 -200.238347 
L 260.792552 -198.592066 
L 260.789228 -196.945785 
L 260.78897 -195.299504 
L 260.788966 -193.653223 
L 260.788966 -192.006942 
L 260.788966 -190.360661 
L 260.788966 -188.71438 
L 260.788966 -187.068099 
L 260.788966 -185.421818 
L 260.788966 -183.775537 
L 260.788966 -182.129256 
L 260.788966 -180.482975 
L 260.788966 -178.836694 
L 260.788966 -177.190413 
L 260.788966 -175.544132 
L 260.788966 -173.897851 
L 260.788966 -172.25157 
L 260.788966 -170.605289 
L 260.788966 -168.959008 
L 260.788966 -167.312727 
L 260.788966 -165.666446 
L 260.788966 -164.020165 
L 260.788966 -162.373884 
L 260.788966 -160.727603 
L 260.788966 -159.081322 
L 260.788966 -157.435041 
L 260.788966 -155.78876 
L 260.788966 -154.142479 
L 260.788966 -152.496198 
L 260.788966 -150.849917 
L 260.788966 -149.203636 
L 260.788966 -147.557355 
L 260.788966 -145.911074 
L 260.788966 -144.264793 
L 260.788966 -142.618512 
L 260.788966 -140.972231 
L 260.788966 -139.32595 
L 260.788966 -137.679669 
L 260.788966 -136.033388 
L 260.788966 -134.387107 
L 260.788966 -132.740826 
L 260.788966 -131.094545 
L 260.788966 -129.448264 
L 260.788966 -127.801983 
L 260.788966 -126.155702 
L 260.788966 -124.509421 
L 260.788966 -122.86314 
L 260.788966 -121.21686 
L 260.788966 -119.570579 
L 260.788966 -117.924298 
L 260.788966 -116.278017 
L 260.788966 -114.631736 
L 260.788966 -112.985455 
L 260.788966 -111.339174 
L 260.788966 -109.692893 
L 260.788966 -108.046612 
L 260.789013 -106.400331 
L 260.790935 -104.75405 
L 260.810766 -103.107769 
L 260.867368 -101.461488 
L 260.932434 -99.815207 
L 260.990355 -98.168926 
L 261.044385 -96.522645 
L 261.132674 -94.876364 
L 261.206111 -93.230083 
L 261.277391 -91.583802 
L 261.44378 -89.937521 
L 261.507396 -88.29124 
L 261.335068 -86.644959 
L 261.098283 -84.998678 
L 261.005271 -83.352397 
L 261.017213 -81.706116 
L 261.023208 -80.059835 
L 261.040268 -78.413554 
L 261.050169 -76.767273 
L 261.052157 -75.120992 
L 261.130288 -73.474711 
L 261.302343 -71.82843 
L 261.542423 -70.182149 
L 262.241253 -68.535868 
L 263.700448 -66.889587 
L 265.554804 -65.243306 
L 268.115812 -63.597025 
L 271.936634 -61.950744 
L 276.409582 -60.304463 
L 279.81529 -58.658182 
L 280.897258 -57.011901 
L 279.462094 -55.36562 
L 275.905179 -53.719339 
L 271.57789 -52.073058 
L 267.272414 -50.426777 
L 264.062473 -48.780496 
L 262.113624 -47.134215 
L 261.204519 -45.487934 
L 260.897417 -43.841653 
L 260.813757 -42.195372 
L 260.79199 -40.549091 
z
" id="m8714381428" style="stroke:#4c4c4c;stroke-width:1.5;"/>
    </defs>
    <g clip-path="url(#pceb85a5bb1)">
     <use style="fill:#df7f20;stroke:#4c4c4c;stroke-width:1.5;" x="0" xlink:href="#m8714381428" y="216"/>
    </g>
   </g>
   <g id="matplotlib.axis_9">
    <g id="xtick_5">
     <g id="line2d_13">
      <g>
       <use style="stroke:#000000;stroke-width:0.8;" x="260.788966" xlink:href="#m699325f669" y="183.6"/>
      </g>
     </g>
     <g id="text_5">
      <!-- Rosetta -->
      <defs>
       <path d="M 44.390625 34.1875 
Q 47.5625 33.109375 50.5625 29.59375 
Q 53.5625 26.078125 56.59375 19.921875 
L 66.609375 0 
L 56 0 
L 46.6875 18.703125 
Q 43.0625 26.03125 39.671875 28.421875 
Q 36.28125 30.8125 30.421875 30.8125 
L 19.671875 30.8125 
L 19.671875 0 
L 9.8125 0 
L 9.8125 72.90625 
L 32.078125 72.90625 
Q 44.578125 72.90625 50.734375 67.671875 
Q 56.890625 62.453125 56.890625 51.90625 
Q 56.890625 45.015625 53.6875 40.46875 
Q 50.484375 35.9375 44.390625 34.1875 
z
M 19.671875 64.796875 
L 19.671875 38.921875 
L 32.078125 38.921875 
Q 39.203125 38.921875 42.84375 42.21875 
Q 46.484375 45.515625 46.484375 51.90625 
Q 46.484375 58.296875 42.84375 61.546875 
Q 39.203125 64.796875 32.078125 64.796875 
z
" id="DejaVuSans-82"/>
       <path d="M 44.28125 53.078125 
L 44.28125 44.578125 
Q 40.484375 46.53125 36.375 47.5 
Q 32.28125 48.484375 27.875 48.484375 
Q 21.1875 48.484375 17.84375 46.4375 
Q 14.5 44.390625 14.5 40.28125 
Q 14.5 37.15625 16.890625 35.375 
Q 19.28125 33.59375 26.515625 31.984375 
L 29.59375 31.296875 
Q 39.15625 29.25 43.1875 25.515625 
Q 47.21875 21.78125 47.21875 15.09375 
Q 47.21875 7.46875 41.1875 3.015625 
Q 35.15625 -1.421875 24.609375 -1.421875 
Q 20.21875 -1.421875 15.453125 -0.5625 
Q 10.6875 0.296875 5.421875 2 
L 5.421875 11.28125 
Q 10.40625 8.6875 15.234375 7.390625 
Q 20.0625 6.109375 24.8125 6.109375 
Q 31.15625 6.109375 34.5625 8.28125 
Q 37.984375 10.453125 37.984375 14.40625 
Q 37.984375 18.0625 35.515625 20.015625 
Q 33.0625 21.96875 24.703125 23.78125 
L 21.578125 24.515625 
Q 13.234375 26.265625 9.515625 29.90625 
Q 5.8125 33.546875 5.8125 39.890625 
Q 5.8125 47.609375 11.28125 51.796875 
Q 16.75 56 26.8125 56 
Q 31.78125 56 36.171875 55.265625 
Q 40.578125 54.546875 44.28125 53.078125 
z
" id="DejaVuSans-115"/>
       <path d="M 18.3125 70.21875 
L 18.3125 54.6875 
L 36.8125 54.6875 
L 36.8125 47.703125 
L 18.3125 47.703125 
L 18.3125 18.015625 
Q 18.3125 11.328125 20.140625 9.421875 
Q 21.96875 7.515625 27.59375 7.515625 
L 36.8125 7.515625 
L 36.8125 0 
L 27.59375 0 
Q 17.1875 0 13.234375 3.875 
Q 9.28125 7.765625 9.28125 18.015625 
L 9.28125 47.703125 
L 2.6875 47.703125 
L 2.6875 54.6875 
L 9.28125 54.6875 
L 9.28125 70.21875 
z
" id="DejaVuSans-116"/>
      </defs>
      <g transform="translate(241.814747 198.198438)scale(0.1 -0.1)">
       <use xlink:href="#DejaVuSans-82"/>
       <use x="64.982422" xlink:href="#DejaVuSans-111"/>
       <use x="126.164062" xlink:href="#DejaVuSans-115"/>
       <use x="178.263672" xlink:href="#DejaVuSans-101"/>
       <use x="239.787109" xlink:href="#DejaVuSans-116"/>
       <use x="278.996094" xlink:href="#DejaVuSans-116"/>
       <use x="318.205078" xlink:href="#DejaVuSans-97"/>
      </g>
      <!-- (score) -->
      <defs>
       <path d="M 48.78125 52.59375 
L 48.78125 44.1875 
Q 44.96875 46.296875 41.140625 47.34375 
Q 37.3125 48.390625 33.40625 48.390625 
Q 24.65625 48.390625 19.8125 42.84375 
Q 14.984375 37.3125 14.984375 27.296875 
Q 14.984375 17.28125 19.8125 11.734375 
Q 24.65625 6.203125 33.40625 6.203125 
Q 37.3125 6.203125 41.140625 7.25 
Q 44.96875 8.296875 48.78125 10.40625 
L 48.78125 2.09375 
Q 45.015625 0.34375 40.984375 -0.53125 
Q 36.96875 -1.421875 32.421875 -1.421875 
Q 20.0625 -1.421875 12.78125 6.34375 
Q 5.515625 14.109375 5.515625 27.296875 
Q 5.515625 40.671875 12.859375 48.328125 
Q 20.21875 56 33.015625 56 
Q 37.15625 56 41.109375 55.140625 
Q 45.0625 54.296875 48.78125 52.59375 
z
" id="DejaVuSans-99"/>
      </defs>
      <g transform="translate(243.454591 209.39625)scale(0.1 -0.1)">
       <use xlink:href="#DejaVuSans-40"/>
       <use x="39.013672" xlink:href="#DejaVuSans-115"/>
       <use x="91.113281" xlink:href="#DejaVuSans-99"/>
       <use x="146.09375" xlink:href="#DejaVuSans-111"/>
       <use x="207.275391" xlink:href="#DejaVuSans-114"/>
       <use x="246.138672" xlink:href="#DejaVuSans-101"/>
       <use x="307.662109" xlink:href="#DejaVuSans-41"/>
      </g>
     </g>
    </g>
   </g>
   <g id="matplotlib.axis_10"/>
   <g id="LineCollection_5">
    <path clip-path="url(#pceb85a5bb1)" d="M 238.669843 160.613807 
L 282.908088 160.613807 
" style="fill:none;stroke:#000000;stroke-dasharray:1.5,2.475;stroke-dashoffset:0;stroke-width:1.5;"/>
   </g>
   <g id="line2d_14">
    <path clip-path="url(#pceb85a5bb1)" d="M 260.788966 170.52114 
L 260.788966 146.049203 
" style="fill:none;stroke:#4c4c4c;stroke-linecap:square;stroke-width:1.5;"/>
   </g>
   <g id="line2d_15">
    <path clip-path="url(#pceb85a5bb1)" d="M 260.788966 161.391745 
L 260.788966 155.228337 
" style="fill:none;stroke:#4c4c4c;stroke-linecap:square;stroke-width:4.5;"/>
   </g>
   <g id="patch_15">
    <path d="M 236.457931 183.6 
L 285.12 183.6 
" style="fill:none;stroke:#000000;stroke-linecap:square;stroke-linejoin:miter;stroke-width:0.8;"/>
   </g>
   <g id="patch_16">
    <path d="M 236.457931 4.32 
L 285.12 4.32 
" style="fill:none;stroke:#000000;stroke-linecap:square;stroke-linejoin:miter;stroke-width:0.8;"/>
   </g>
   <g id="PathCollection_5">
    <g clip-path="url(#pceb85a5bb1)">
     <use style="fill:#ffffff;stroke:#4c4c4c;" x="260.788966" xlink:href="#m48950e4ac6" y="158.456355"/>
    </g>
   </g>
  </g>
 </g>
 <defs>
  <clipPath id="p8c70816e11">
   <rect height="179.28" width="48.662069" x="2.88" y="4.32"/>
  </clipPath>
  <clipPath id="pc473483d42">
   <rect height="179.28" width="48.662069" x="61.274483" y="4.32"/>
  </clipPath>
  <clipPath id="pe988ee449e">
   <rect height="179.28" width="48.662069" x="119.668966" y="4.32"/>
  </clipPath>
  <clipPath id="p2a5272a2a5">
   <rect height="179.28" width="48.662069" x="178.063448" y="4.32"/>
  </clipPath>
  <clipPath id="pceb85a5bb1">
   <rect height="179.28" width="48.662069" x="236.457931" y="4.32"/>
  </clipPath>
 </defs>
</svg>
