<?xml version="1.0" encoding="utf-8" standalone="no"?>
<!DOCTYPE svg PUBLIC "-//W3C//DTD SVG 1.1//EN"
  "http://www.w3.org/Graphics/SVG/1.1/DTD/svg11.dtd">
<!-- Created with matplotlib (https://matplotlib.org/) -->
<svg height="216pt" version="1.1" viewBox="0 0 288 216" width="288pt" xmlns="http://www.w3.org/2000/svg" xmlns:xlink="http://www.w3.org/1999/xlink">
 <defs>
  <style type="text/css">
*{stroke-linecap:butt;stroke-linejoin:round;}
  </style>
 </defs>
 <g id="figure_1">
  <g id="patch_1">
   <path d="M 0 216 
L 288 216 
L 288 0 
L 0 0 
z
" style="fill:#ffffff;"/>
  </g>
  <g id="axes_1">
   <g id="patch_2">
    <path d="M 2.88 183.6 
L 51.542069 183.6 
L 51.542069 4.32 
L 2.88 4.32 
z
" style="fill:#ffffff;"/>
   </g>
   <g id="PolyCollection_1">
    <defs>
     <path d="M 27.212676 -40.549091 
L 27.209393 -40.549091 
L 27.191765 -42.195372 
L 27.092204 -43.841653 
L 26.744246 -45.487934 
L 25.923449 -47.134215 
L 24.312938 -48.780496 
L 21.561373 -50.426777 
L 17.694642 -52.073058 
L 13.562321 -53.719339 
L 9.890006 -55.36562 
L 7.416064 -57.011901 
L 7.102742 -58.658182 
L 8.387531 -60.304463 
L 10.304972 -61.950744 
L 12.423364 -63.597025 
L 14.836419 -65.243306 
L 17.040905 -66.889587 
L 18.84242 -68.535868 
L 20.180086 -70.182149 
L 21.261814 -71.82843 
L 22.25636 -73.474711 
L 22.875517 -75.120992 
L 23.371904 -76.767273 
L 24.062998 -78.413554 
L 24.706306 -80.059835 
L 25.141692 -81.706116 
L 25.465145 -83.352397 
L 25.759748 -84.998678 
L 26.128101 -86.644959 
L 26.404827 -88.29124 
L 26.597124 -89.937521 
L 26.736308 -91.583802 
L 26.832398 -93.230083 
L 26.908019 -94.876364 
L 26.955791 -96.522645 
L 27.036497 -98.168926 
L 27.104721 -99.815207 
L 27.12314 -101.461488 
L 27.124004 -103.107769 
L 27.145072 -104.75405 
L 27.174067 -106.400331 
L 27.186678 -108.046612 
L 27.19317 -109.692893 
L 27.196608 -111.339174 
L 27.202373 -112.985455 
L 27.200644 -114.631736 
L 27.205799 -116.278017 
L 27.208955 -117.924298 
L 27.20596 -119.570579 
L 27.207466 -121.21686 
L 27.208244 -122.86314 
L 27.205434 -124.509421 
L 27.205974 -126.155702 
L 27.205508 -127.801983 
L 27.208165 -129.448264 
L 27.206578 -131.094545 
L 27.206655 -132.740826 
L 27.210161 -134.387107 
L 27.211 -136.033388 
L 27.211034 -137.679669 
L 27.211034 -139.32595 
L 27.211002 -140.972231 
L 27.210193 -142.618512 
L 27.206705 -144.264793 
L 27.206424 -145.911074 
L 27.207551 -147.557355 
L 27.205701 -149.203636 
L 27.208925 -150.849917 
L 27.2105 -152.496198 
L 27.207904 -154.142479 
L 27.205762 -155.78876 
L 27.207627 -157.435041 
L 27.204756 -159.081322 
L 27.203339 -160.727603 
L 27.205465 -162.373884 
L 27.20073 -164.020165 
L 27.192429 -165.666446 
L 27.198053 -167.312727 
L 27.203495 -168.959008 
L 27.208437 -170.605289 
L 27.207894 -172.25157 
L 27.205805 -173.897851 
L 27.208869 -175.544132 
L 27.207796 -177.190413 
L 27.205866 -178.836694 
L 27.209345 -180.482975 
L 27.210518 -182.129256 
L 27.207769 -183.775537 
L 27.205883 -185.421818 
L 27.208422 -187.068099 
L 27.206309 -188.71438 
L 27.207015 -190.360661 
L 27.210351 -192.006942 
L 27.211012 -193.653223 
L 27.211034 -195.299504 
L 27.210992 -196.945785 
L 27.210036 -198.592066 
L 27.206468 -200.238347 
L 27.206939 -201.884628 
L 27.210314 -203.530909 
L 27.211755 -203.530909 
L 27.211755 -203.530909 
L 27.21513 -201.884628 
L 27.215601 -200.238347 
L 27.212033 -198.592066 
L 27.211077 -196.945785 
L 27.211035 -195.299504 
L 27.211057 -193.653223 
L 27.211718 -192.006942 
L 27.215053 -190.360661 
L 27.21576 -188.71438 
L 27.213646 -187.068099 
L 27.216186 -185.421818 
L 27.2143 -183.775537 
L 27.211551 -182.129256 
L 27.212724 -180.482975 
L 27.216203 -178.836694 
L 27.214273 -177.190413 
L 27.2132 -175.544132 
L 27.216264 -173.897851 
L 27.214175 -172.25157 
L 27.213632 -170.605289 
L 27.218574 -168.959008 
L 27.224016 -167.312727 
L 27.22964 -165.666446 
L 27.221339 -164.020165 
L 27.216604 -162.373884 
L 27.21873 -160.727603 
L 27.217313 -159.081322 
L 27.214442 -157.435041 
L 27.216307 -155.78876 
L 27.214165 -154.142479 
L 27.211569 -152.496198 
L 27.213144 -150.849917 
L 27.216368 -149.203636 
L 27.214518 -147.557355 
L 27.215645 -145.911074 
L 27.215364 -144.264793 
L 27.211876 -142.618512 
L 27.211067 -140.972231 
L 27.211035 -139.32595 
L 27.211035 -137.679669 
L 27.211069 -136.033388 
L 27.211908 -134.387107 
L 27.215414 -132.740826 
L 27.215491 -131.094545 
L 27.213904 -129.448264 
L 27.216561 -127.801983 
L 27.216095 -126.155702 
L 27.216635 -124.509421 
L 27.213824 -122.86314 
L 27.214603 -121.21686 
L 27.216109 -119.570579 
L 27.213114 -117.924298 
L 27.21627 -116.278017 
L 27.221425 -114.631736 
L 27.219696 -112.985455 
L 27.225461 -111.339174 
L 27.228899 -109.692893 
L 27.235391 -108.046612 
L 27.248002 -106.400331 
L 27.276997 -104.75405 
L 27.298065 -103.107769 
L 27.298929 -101.461488 
L 27.317348 -99.815207 
L 27.385572 -98.168926 
L 27.466278 -96.522645 
L 27.51405 -94.876364 
L 27.589671 -93.230083 
L 27.685761 -91.583802 
L 27.824945 -89.937521 
L 28.017242 -88.29124 
L 28.293968 -86.644959 
L 28.662321 -84.998678 
L 28.956924 -83.352397 
L 29.280377 -81.706116 
L 29.715763 -80.059835 
L 30.359071 -78.413554 
L 31.050164 -76.767273 
L 31.546552 -75.120992 
L 32.165709 -73.474711 
L 33.160255 -71.82843 
L 34.241983 -70.182149 
L 35.579649 -68.535868 
L 37.381164 -66.889587 
L 39.58565 -65.243306 
L 41.998705 -63.597025 
L 44.117097 -61.950744 
L 46.034538 -60.304463 
L 47.319327 -58.658182 
L 47.006005 -57.011901 
L 44.532063 -55.36562 
L 40.859748 -53.719339 
L 36.727427 -52.073058 
L 32.860696 -50.426777 
L 30.109131 -48.780496 
L 28.49862 -47.134215 
L 27.677822 -45.487934 
L 27.329865 -43.841653 
L 27.230304 -42.195372 
L 27.212676 -40.549091 
z
" id="m4980c4cbbf" style="stroke:#4c4c4c;stroke-width:1.5;"/>
    </defs>
    <g clip-path="url(#pa115150809)">
     <use style="fill:#cb3335;stroke:#4c4c4c;stroke-width:1.5;" x="0" xlink:href="#m4980c4cbbf" y="216"/>
    </g>
   </g>
   <g id="matplotlib.axis_1">
    <g id="xtick_1">
     <g id="line2d_1">
      <defs>
       <path d="M 0 0 
L 0 3.5 
" id="m85d74060fa" style="stroke:#000000;stroke-width:0.8;"/>
      </defs>
      <g>
       <use style="stroke:#000000;stroke-width:0.8;" x="27.211034" xlink:href="#m85d74060fa" y="183.6"/>
      </g>
     </g>
     <g id="text_1">
      <!-- Modeller -->
      <defs>
       <path d="M 9.8125 72.90625 
L 24.515625 72.90625 
L 43.109375 23.296875 
L 61.8125 72.90625 
L 76.515625 72.90625 
L 76.515625 0 
L 66.890625 0 
L 66.890625 64.015625 
L 48.09375 14.015625 
L 38.1875 14.015625 
L 19.390625 64.015625 
L 19.390625 0 
L 9.8125 0 
z
" id="DejaVuSans-77"/>
       <path d="M 30.609375 48.390625 
Q 23.390625 48.390625 19.1875 42.75 
Q 14.984375 37.109375 14.984375 27.296875 
Q 14.984375 17.484375 19.15625 11.84375 
Q 23.34375 6.203125 30.609375 6.203125 
Q 37.796875 6.203125 41.984375 11.859375 
Q 46.1875 17.53125 46.1875 27.296875 
Q 46.1875 37.015625 41.984375 42.703125 
Q 37.796875 48.390625 30.609375 48.390625 
z
M 30.609375 56 
Q 42.328125 56 49.015625 48.375 
Q 55.71875 40.765625 55.71875 27.296875 
Q 55.71875 13.875 49.015625 6.21875 
Q 42.328125 -1.421875 30.609375 -1.421875 
Q 18.84375 -1.421875 12.171875 6.21875 
Q 5.515625 13.875 5.515625 27.296875 
Q 5.515625 40.765625 12.171875 48.375 
Q 18.84375 56 30.609375 56 
z
" id="DejaVuSans-111"/>
       <path d="M 45.40625 46.390625 
L 45.40625 75.984375 
L 54.390625 75.984375 
L 54.390625 0 
L 45.40625 0 
L 45.40625 8.203125 
Q 42.578125 3.328125 38.25 0.953125 
Q 33.9375 -1.421875 27.875 -1.421875 
Q 17.96875 -1.421875 11.734375 6.484375 
Q 5.515625 14.40625 5.515625 27.296875 
Q 5.515625 40.1875 11.734375 48.09375 
Q 17.96875 56 27.875 56 
Q 33.9375 56 38.25 53.625 
Q 42.578125 51.265625 45.40625 46.390625 
z
M 14.796875 27.296875 
Q 14.796875 17.390625 18.875 11.75 
Q 22.953125 6.109375 30.078125 6.109375 
Q 37.203125 6.109375 41.296875 11.75 
Q 45.40625 17.390625 45.40625 27.296875 
Q 45.40625 37.203125 41.296875 42.84375 
Q 37.203125 48.484375 30.078125 48.484375 
Q 22.953125 48.484375 18.875 42.84375 
Q 14.796875 37.203125 14.796875 27.296875 
z
" id="DejaVuSans-100"/>
       <path d="M 56.203125 29.59375 
L 56.203125 25.203125 
L 14.890625 25.203125 
Q 15.484375 15.921875 20.484375 11.0625 
Q 25.484375 6.203125 34.421875 6.203125 
Q 39.59375 6.203125 44.453125 7.46875 
Q 49.3125 8.734375 54.109375 11.28125 
L 54.109375 2.78125 
Q 49.265625 0.734375 44.1875 -0.34375 
Q 39.109375 -1.421875 33.890625 -1.421875 
Q 20.796875 -1.421875 13.15625 6.1875 
Q 5.515625 13.8125 5.515625 26.8125 
Q 5.515625 40.234375 12.765625 48.109375 
Q 20.015625 56 32.328125 56 
Q 43.359375 56 49.78125 48.890625 
Q 56.203125 41.796875 56.203125 29.59375 
z
M 47.21875 32.234375 
Q 47.125 39.59375 43.09375 43.984375 
Q 39.0625 48.390625 32.421875 48.390625 
Q 24.90625 48.390625 20.390625 44.140625 
Q 15.875 39.890625 15.1875 32.171875 
z
" id="DejaVuSans-101"/>
       <path d="M 9.421875 75.984375 
L 18.40625 75.984375 
L 18.40625 0 
L 9.421875 0 
z
" id="DejaVuSans-108"/>
       <path d="M 41.109375 46.296875 
Q 39.59375 47.171875 37.8125 47.578125 
Q 36.03125 48 33.890625 48 
Q 26.265625 48 22.1875 43.046875 
Q 18.109375 38.09375 18.109375 28.8125 
L 18.109375 0 
L 9.078125 0 
L 9.078125 54.6875 
L 18.109375 54.6875 
L 18.109375 46.1875 
Q 20.953125 51.171875 25.484375 53.578125 
Q 30.03125 56 36.53125 56 
Q 37.453125 56 38.578125 55.875 
Q 39.703125 55.765625 41.0625 55.515625 
z
" id="DejaVuSans-114"/>
      </defs>
      <g transform="translate(5.676659 198.198438)scale(0.1 -0.1)">
       <use xlink:href="#DejaVuSans-77"/>
       <use x="86.279297" xlink:href="#DejaVuSans-111"/>
       <use x="147.460938" xlink:href="#DejaVuSans-100"/>
       <use x="210.9375" xlink:href="#DejaVuSans-101"/>
       <use x="272.460938" xlink:href="#DejaVuSans-108"/>
       <use x="300.244141" xlink:href="#DejaVuSans-108"/>
       <use x="328.027344" xlink:href="#DejaVuSans-101"/>
       <use x="389.550781" xlink:href="#DejaVuSans-114"/>
      </g>
      <!-- (molpdf) -->
      <defs>
       <path d="M 31 75.875 
Q 24.46875 64.65625 21.28125 53.65625 
Q 18.109375 42.671875 18.109375 31.390625 
Q 18.109375 20.125 21.3125 9.0625 
Q 24.515625 -2 31 -13.1875 
L 23.1875 -13.1875 
Q 15.875 -1.703125 12.234375 9.375 
Q 8.59375 20.453125 8.59375 31.390625 
Q 8.59375 42.28125 12.203125 53.3125 
Q 15.828125 64.359375 23.1875 75.875 
z
" id="DejaVuSans-40"/>
       <path d="M 52 44.1875 
Q 55.375 50.25 60.0625 53.125 
Q 64.75 56 71.09375 56 
Q 79.640625 56 84.28125 50.015625 
Q 88.921875 44.046875 88.921875 33.015625 
L 88.921875 0 
L 79.890625 0 
L 79.890625 32.71875 
Q 79.890625 40.578125 77.09375 44.375 
Q 74.3125 48.1875 68.609375 48.1875 
Q 61.625 48.1875 57.5625 43.546875 
Q 53.515625 38.921875 53.515625 30.90625 
L 53.515625 0 
L 44.484375 0 
L 44.484375 32.71875 
Q 44.484375 40.625 41.703125 44.40625 
Q 38.921875 48.1875 33.109375 48.1875 
Q 26.21875 48.1875 22.15625 43.53125 
Q 18.109375 38.875 18.109375 30.90625 
L 18.109375 0 
L 9.078125 0 
L 9.078125 54.6875 
L 18.109375 54.6875 
L 18.109375 46.1875 
Q 21.1875 51.21875 25.484375 53.609375 
Q 29.78125 56 35.6875 56 
Q 41.65625 56 45.828125 52.96875 
Q 50 49.953125 52 44.1875 
z
" id="DejaVuSans-109"/>
       <path d="M 18.109375 8.203125 
L 18.109375 -20.796875 
L 9.078125 -20.796875 
L 9.078125 54.6875 
L 18.109375 54.6875 
L 18.109375 46.390625 
Q 20.953125 51.265625 25.265625 53.625 
Q 29.59375 56 35.59375 56 
Q 45.5625 56 51.78125 48.09375 
Q 58.015625 40.1875 58.015625 27.296875 
Q 58.015625 14.40625 51.78125 6.484375 
Q 45.5625 -1.421875 35.59375 -1.421875 
Q 29.59375 -1.421875 25.265625 0.953125 
Q 20.953125 3.328125 18.109375 8.203125 
z
M 48.6875 27.296875 
Q 48.6875 37.203125 44.609375 42.84375 
Q 40.53125 48.484375 33.40625 48.484375 
Q 26.265625 48.484375 22.1875 42.84375 
Q 18.109375 37.203125 18.109375 27.296875 
Q 18.109375 17.390625 22.1875 11.75 
Q 26.265625 6.109375 33.40625 6.109375 
Q 40.53125 6.109375 44.609375 11.75 
Q 48.6875 17.390625 48.6875 27.296875 
z
" id="DejaVuSans-112"/>
       <path d="M 37.109375 75.984375 
L 37.109375 68.5 
L 28.515625 68.5 
Q 23.6875 68.5 21.796875 66.546875 
Q 19.921875 64.59375 19.921875 59.515625 
L 19.921875 54.6875 
L 34.71875 54.6875 
L 34.71875 47.703125 
L 19.921875 47.703125 
L 19.921875 0 
L 10.890625 0 
L 10.890625 47.703125 
L 2.296875 47.703125 
L 2.296875 54.6875 
L 10.890625 54.6875 
L 10.890625 58.5 
Q 10.890625 67.625 15.140625 71.796875 
Q 19.390625 75.984375 28.609375 75.984375 
z
" id="DejaVuSans-102"/>
       <path d="M 8.015625 75.875 
L 15.828125 75.875 
Q 23.140625 64.359375 26.78125 53.3125 
Q 30.421875 42.28125 30.421875 31.390625 
Q 30.421875 20.453125 26.78125 9.375 
Q 23.140625 -1.703125 15.828125 -13.1875 
L 8.015625 -13.1875 
Q 14.5 -2 17.703125 9.0625 
Q 20.90625 20.125 20.90625 31.390625 
Q 20.90625 42.671875 17.703125 53.65625 
Q 14.5 64.65625 8.015625 75.875 
z
" id="DejaVuSans-41"/>
      </defs>
      <g transform="translate(5.882128 209.39625)scale(0.1 -0.1)">
       <use xlink:href="#DejaVuSans-40"/>
       <use x="39.013672" xlink:href="#DejaVuSans-109"/>
       <use x="136.425781" xlink:href="#DejaVuSans-111"/>
       <use x="197.607422" xlink:href="#DejaVuSans-108"/>
       <use x="225.390625" xlink:href="#DejaVuSans-112"/>
       <use x="288.867188" xlink:href="#DejaVuSans-100"/>
       <use x="352.34375" xlink:href="#DejaVuSans-102"/>
       <use x="387.548828" xlink:href="#DejaVuSans-41"/>
      </g>
     </g>
    </g>
   </g>
   <g id="matplotlib.axis_2"/>
   <g id="LineCollection_1">
    <path clip-path="url(#pa115150809)" d="M 5.091912 155.851354 
L 49.330157 155.851354 
" style="fill:none;stroke:#000000;stroke-dasharray:1.5,2.475;stroke-dashoffset:0;stroke-width:1.5;"/>
   </g>
   <g id="line2d_2">
    <path clip-path="url(#pa115150809)" d="M 27.211034 172.871343 
L 27.211034 133.140392 
" style="fill:none;stroke:#4c4c4c;stroke-linecap:square;stroke-width:1.5;"/>
   </g>
   <g id="line2d_3">
    <path clip-path="url(#pa115150809)" d="M 27.211034 159.519905 
L 27.211034 148.967865 
" style="fill:none;stroke:#4c4c4c;stroke-linecap:square;stroke-width:4.5;"/>
   </g>
   <g id="patch_3">
    <path d="M 2.88 183.6 
L 51.542069 183.6 
" style="fill:none;stroke:#000000;stroke-linecap:square;stroke-linejoin:miter;stroke-width:0.8;"/>
   </g>
   <g id="patch_4">
    <path d="M 2.88 4.32 
L 51.542069 4.32 
" style="fill:none;stroke:#000000;stroke-linecap:square;stroke-linejoin:miter;stroke-width:0.8;"/>
   </g>
   <g id="PathCollection_1">
    <defs>
     <path d="M 0 1.5 
C 0.397805 1.5 0.77937 1.341951 1.06066 1.06066 
C 1.341951 0.77937 1.5 0.397805 1.5 0 
C 1.5 -0.397805 1.341951 -0.77937 1.06066 -1.06066 
C 0.77937 -1.341951 0.397805 -1.5 0 -1.5 
C -0.397805 -1.5 -0.77937 -1.341951 -1.06066 -1.06066 
C -1.341951 -0.77937 -1.5 -0.397805 -1.5 0 
C -1.5 0.397805 -1.341951 0.77937 -1.06066 1.06066 
C -0.77937 1.341951 -0.397805 1.5 0 1.5 
z
" id="m588f7481eb" style="stroke:#4c4c4c;"/>
    </defs>
    <g clip-path="url(#pa115150809)">
     <use style="fill:#ffffff;stroke:#4c4c4c;" x="27.211034" xlink:href="#m588f7481eb" y="155.166399"/>
    </g>
   </g>
  </g>
  <g id="axes_2">
   <g id="patch_5">
    <path d="M 61.274483 183.6 
L 109.936552 183.6 
L 109.936552 4.32 
L 61.274483 4.32 
z
" style="fill:#ffffff;"/>
   </g>
   <g id="PolyCollection_2">
    <defs>
     <path d="M 85.606485 -40.549091 
L 85.60455 -40.549091 
L 85.602681 -42.195372 
L 85.599984 -43.841653 
L 85.598265 -45.487934 
L 85.598718 -47.134215 
L 85.5994 -48.780496 
L 85.596777 -50.426777 
L 85.58871 -52.073058 
L 85.57409 -53.719339 
L 85.550558 -55.36562 
L 85.514347 -57.011901 
L 85.462746 -58.658182 
L 85.392968 -60.304463 
L 85.294018 -61.950744 
L 85.148005 -63.597025 
L 84.955329 -65.243306 
L 84.749507 -66.889587 
L 84.553167 -68.535868 
L 84.332113 -70.182149 
L 84.039631 -71.82843 
L 83.676037 -73.474711 
L 83.268067 -75.120992 
L 82.818484 -76.767273 
L 82.28792 -78.413554 
L 81.636133 -80.059835 
L 80.880873 -81.706116 
L 80.093535 -83.352397 
L 79.34104 -84.998678 
L 78.605877 -86.644959 
L 77.774025 -88.29124 
L 76.783205 -89.937521 
L 75.724546 -91.583802 
L 74.713656 -93.230083 
L 73.765941 -94.876364 
L 72.836097 -96.522645 
L 71.870596 -98.168926 
L 70.836159 -99.815207 
L 69.769968 -101.461488 
L 68.779893 -103.107769 
L 67.956015 -104.75405 
L 67.277835 -106.400331 
L 66.660693 -108.046612 
L 66.103774 -109.692893 
L 65.692983 -111.339174 
L 65.497224 -112.985455 
L 65.548289 -114.631736 
L 65.824099 -116.278017 
L 66.23429 -117.924298 
L 66.693468 -119.570579 
L 67.19746 -121.21686 
L 67.792532 -122.86314 
L 68.510393 -124.509421 
L 69.371776 -126.155702 
L 70.356779 -127.801983 
L 71.378202 -129.448264 
L 72.385098 -131.094545 
L 73.388427 -132.740826 
L 74.375096 -134.387107 
L 75.347003 -136.033388 
L 76.350733 -137.679669 
L 77.373515 -139.32595 
L 78.327026 -140.972231 
L 79.158949 -142.618512 
L 79.909731 -144.264793 
L 80.653872 -145.911074 
L 81.41615 -147.557355 
L 82.15024 -149.203636 
L 82.768646 -150.849917 
L 83.213199 -152.496198 
L 83.522936 -154.142479 
L 83.79287 -155.78876 
L 84.070607 -157.435041 
L 84.337721 -159.081322 
L 84.569451 -160.727603 
L 84.760817 -162.373884 
L 84.912113 -164.020165 
L 85.030959 -165.666446 
L 85.131379 -167.312727 
L 85.218483 -168.959008 
L 85.292741 -170.605289 
L 85.358765 -172.25157 
L 85.419007 -173.897851 
L 85.471087 -175.544132 
L 85.510735 -177.190413 
L 85.532773 -178.836694 
L 85.537528 -180.482975 
L 85.535976 -182.129256 
L 85.541479 -183.775537 
L 85.557753 -185.421818 
L 85.577664 -187.068099 
L 85.591685 -188.71438 
L 85.595702 -190.360661 
L 85.592473 -192.006942 
L 85.587966 -193.653223 
L 85.585835 -195.299504 
L 85.586153 -196.945785 
L 85.589124 -198.592066 
L 85.594756 -200.238347 
L 85.60049 -201.884628 
L 85.603913 -203.530909 
L 85.607121 -203.530909 
L 85.607121 -203.530909 
L 85.610545 -201.884628 
L 85.616278 -200.238347 
L 85.62191 -198.592066 
L 85.624882 -196.945785 
L 85.6252 -195.299504 
L 85.623068 -193.653223 
L 85.618562 -192.006942 
L 85.615332 -190.360661 
L 85.619349 -188.71438 
L 85.63337 -187.068099 
L 85.653281 -185.421818 
L 85.669556 -183.775537 
L 85.675058 -182.129256 
L 85.673507 -180.482975 
L 85.678261 -178.836694 
L 85.700299 -177.190413 
L 85.739947 -175.544132 
L 85.792027 -173.897851 
L 85.85227 -172.25157 
L 85.918294 -170.605289 
L 85.992551 -168.959008 
L 86.079656 -167.312727 
L 86.180076 -165.666446 
L 86.298921 -164.020165 
L 86.450218 -162.373884 
L 86.641584 -160.727603 
L 86.873313 -159.081322 
L 87.140427 -157.435041 
L 87.418164 -155.78876 
L 87.688098 -154.142479 
L 87.997836 -152.496198 
L 88.442388 -150.849917 
L 89.060794 -149.203636 
L 89.794884 -147.557355 
L 90.557163 -145.911074 
L 91.301304 -144.264793 
L 92.052085 -142.618512 
L 92.884009 -140.972231 
L 93.83752 -139.32595 
L 94.860301 -137.679669 
L 95.864032 -136.033388 
L 96.835939 -134.387107 
L 97.822608 -132.740826 
L 98.825936 -131.094545 
L 99.832832 -129.448264 
L 100.854255 -127.801983 
L 101.839258 -126.155702 
L 102.700642 -124.509421 
L 103.418503 -122.86314 
L 104.013575 -121.21686 
L 104.517567 -119.570579 
L 104.976744 -117.924298 
L 105.386936 -116.278017 
L 105.662745 -114.631736 
L 105.71381 -112.985455 
L 105.518052 -111.339174 
L 105.107261 -109.692893 
L 104.550342 -108.046612 
L 103.933199 -106.400331 
L 103.255019 -104.75405 
L 102.431142 -103.107769 
L 101.441067 -101.461488 
L 100.374875 -99.815207 
L 99.340438 -98.168926 
L 98.374938 -96.522645 
L 97.445094 -94.876364 
L 96.497378 -93.230083 
L 95.486488 -91.583802 
L 94.42783 -89.937521 
L 93.437009 -88.29124 
L 92.605158 -86.644959 
L 91.869994 -84.998678 
L 91.117499 -83.352397 
L 90.330161 -81.706116 
L 89.574901 -80.059835 
L 88.923114 -78.413554 
L 88.39255 -76.767273 
L 87.942968 -75.120992 
L 87.534998 -73.474711 
L 87.171404 -71.82843 
L 86.878921 -70.182149 
L 86.657867 -68.535868 
L 86.461527 -66.889587 
L 86.255705 -65.243306 
L 86.063029 -63.597025 
L 85.917017 -61.950744 
L 85.818067 -60.304463 
L 85.748289 -58.658182 
L 85.696687 -57.011901 
L 85.660476 -55.36562 
L 85.636944 -53.719339 
L 85.622325 -52.073058 
L 85.614257 -50.426777 
L 85.611635 -48.780496 
L 85.612316 -47.134215 
L 85.612769 -45.487934 
L 85.61105 -43.841653 
L 85.608354 -42.195372 
L 85.606485 -40.549091 
z
" id="m5582fc7af7" style="stroke:#484848;stroke-width:1.5;"/>
    </defs>
    <g clip-path="url(#pcf93afb9cf)">
     <use style="fill:#477ca8;stroke:#484848;stroke-width:1.5;" x="0" xlink:href="#m5582fc7af7" y="216"/>
    </g>
   </g>
   <g id="matplotlib.axis_3">
    <g id="xtick_2">
     <g id="line2d_4">
      <g>
       <use style="stroke:#000000;stroke-width:0.8;" x="85.605517" xlink:href="#m85d74060fa" y="183.6"/>
      </g>
     </g>
     <g id="text_2">
      <!-- Modeller -->
      <g transform="translate(64.071142 198.198438)scale(0.1 -0.1)">
       <use xlink:href="#DejaVuSans-77"/>
       <use x="86.279297" xlink:href="#DejaVuSans-111"/>
       <use x="147.460938" xlink:href="#DejaVuSans-100"/>
       <use x="210.9375" xlink:href="#DejaVuSans-101"/>
       <use x="272.460938" xlink:href="#DejaVuSans-108"/>
       <use x="300.244141" xlink:href="#DejaVuSans-108"/>
       <use x="328.027344" xlink:href="#DejaVuSans-101"/>
       <use x="389.550781" xlink:href="#DejaVuSans-114"/>
      </g>
      <!-- (dope_norm) -->
      <defs>
       <path d="M 50.984375 -16.609375 
L 50.984375 -23.578125 
L -0.984375 -23.578125 
L -0.984375 -16.609375 
z
" id="DejaVuSans-95"/>
       <path d="M 54.890625 33.015625 
L 54.890625 0 
L 45.90625 0 
L 45.90625 32.71875 
Q 45.90625 40.484375 42.875 44.328125 
Q 39.84375 48.1875 33.796875 48.1875 
Q 26.515625 48.1875 22.3125 43.546875 
Q 18.109375 38.921875 18.109375 30.90625 
L 18.109375 0 
L 9.078125 0 
L 9.078125 54.6875 
L 18.109375 54.6875 
L 18.109375 46.1875 
Q 21.34375 51.125 25.703125 53.5625 
Q 30.078125 56 35.796875 56 
Q 45.21875 56 50.046875 50.171875 
Q 54.890625 44.34375 54.890625 33.015625 
z
" id="DejaVuSans-110"/>
      </defs>
      <g transform="translate(53.653173 209.39625)scale(0.1 -0.1)">
       <use xlink:href="#DejaVuSans-40"/>
       <use x="39.013672" xlink:href="#DejaVuSans-100"/>
       <use x="102.490234" xlink:href="#DejaVuSans-111"/>
       <use x="163.671875" xlink:href="#DejaVuSans-112"/>
       <use x="227.148438" xlink:href="#DejaVuSans-101"/>
       <use x="288.671875" xlink:href="#DejaVuSans-95"/>
       <use x="338.671875" xlink:href="#DejaVuSans-110"/>
       <use x="402.050781" xlink:href="#DejaVuSans-111"/>
       <use x="463.232422" xlink:href="#DejaVuSans-114"/>
       <use x="502.595703" xlink:href="#DejaVuSans-109"/>
       <use x="600.007812" xlink:href="#DejaVuSans-41"/>
      </g>
     </g>
    </g>
   </g>
   <g id="matplotlib.axis_4"/>
   <g id="LineCollection_2">
    <path clip-path="url(#pcf93afb9cf)" d="M 63.486395 126.357346 
L 107.724639 126.357346 
" style="fill:none;stroke:#000000;stroke-dasharray:1.5,2.475;stroke-dashoffset:0;stroke-width:1.5;"/>
   </g>
   <g id="line2d_5">
    <path clip-path="url(#pcf93afb9cf)" d="M 85.605517 152.110676 
L 85.605517 51.331346 
" style="fill:none;stroke:#484848;stroke-linecap:square;stroke-width:1.5;"/>
   </g>
   <g id="line2d_6">
    <path clip-path="url(#pcf93afb9cf)" d="M 85.605517 114.379552 
L 85.605517 89.152937 
" style="fill:none;stroke:#484848;stroke-linecap:square;stroke-width:4.5;"/>
   </g>
   <g id="patch_6">
    <path d="M 61.274483 183.6 
L 109.936552 183.6 
" style="fill:none;stroke:#000000;stroke-linecap:square;stroke-linejoin:miter;stroke-width:0.8;"/>
   </g>
   <g id="patch_7">
    <path d="M 61.274483 4.32 
L 109.936552 4.32 
" style="fill:none;stroke:#000000;stroke-linecap:square;stroke-linejoin:miter;stroke-width:0.8;"/>
   </g>
   <g id="PathCollection_2">
    <defs>
     <path d="M 0 1.5 
C 0.397805 1.5 0.77937 1.341951 1.06066 1.06066 
C 1.341951 0.77937 1.5 0.397805 1.5 0 
C 1.5 -0.397805 1.341951 -0.77937 1.06066 -1.06066 
C 0.77937 -1.341951 0.397805 -1.5 0 -1.5 
C -0.397805 -1.5 -0.77937 -1.341951 -1.06066 -1.06066 
C -1.341951 -0.77937 -1.5 -0.397805 -1.5 0 
C -1.5 0.397805 -1.341951 0.77937 -1.06066 1.06066 
C -0.77937 1.341951 -0.397805 1.5 0 1.5 
z
" id="m9348eb0d5a" style="stroke:#484848;"/>
    </defs>
    <g clip-path="url(#pcf93afb9cf)">
     <use style="fill:#ffffff;stroke:#484848;" x="85.605517" xlink:href="#m9348eb0d5a" y="101.863482"/>
    </g>
   </g>
  </g>
  <g id="axes_3">
   <g id="patch_8">
    <path d="M 119.668966 183.6 
L 168.331034 183.6 
L 168.331034 4.32 
L 119.668966 4.32 
z
" style="fill:#ffffff;"/>
   </g>
   <g id="PolyCollection_3">
    <defs>
     <path d="M 144.00195 -40.549091 
L 143.99805 -40.549091 
L 143.994442 -42.195372 
L 143.989056 -43.841653 
L 143.984543 -45.487934 
L 143.981936 -47.134215 
L 143.975888 -48.780496 
L 143.957523 -50.426777 
L 143.920364 -52.073058 
L 143.861025 -53.719339 
L 143.778668 -55.36562 
L 143.672595 -57.011901 
L 143.53498 -58.658182 
L 143.354892 -60.304463 
L 143.136093 -61.950744 
L 142.897464 -63.597025 
L 142.641829 -65.243306 
L 142.334406 -66.889587 
L 141.930368 -68.535868 
L 141.419381 -70.182149 
L 140.827082 -71.82843 
L 140.169559 -73.474711 
L 139.4291 -75.120992 
L 138.59101 -76.767273 
L 137.68962 -78.413554 
L 136.797481 -80.059835 
L 135.939006 -81.706116 
L 135.035802 -83.352397 
L 134.0124 -84.998678 
L 132.912391 -86.644959 
L 131.834883 -88.29124 
L 130.832399 -89.937521 
L 129.901882 -91.583802 
L 128.993542 -93.230083 
L 128.060495 -94.876364 
L 127.133984 -96.522645 
L 126.284214 -98.168926 
L 125.548162 -99.815207 
L 124.951527 -101.461488 
L 124.517984 -103.107769 
L 124.222979 -104.75405 
L 124.013555 -106.400331 
L 123.891707 -108.046612 
L 123.94709 -109.692893 
L 124.282948 -111.339174 
L 124.869688 -112.985455 
L 125.514132 -114.631736 
L 126.051724 -116.278017 
L 126.522758 -117.924298 
L 127.098565 -119.570579 
L 127.876313 -121.21686 
L 128.80467 -122.86314 
L 129.778963 -124.509421 
L 130.745975 -126.155702 
L 131.714969 -127.801983 
L 132.697983 -129.448264 
L 133.678036 -131.094545 
L 134.629655 -132.740826 
L 135.534953 -134.387107 
L 136.408567 -136.033388 
L 137.292769 -137.679669 
L 138.172841 -139.32595 
L 138.958046 -140.972231 
L 139.585467 -142.618512 
L 140.082671 -144.264793 
L 140.520041 -145.911074 
L 140.950291 -147.557355 
L 141.393286 -149.203636 
L 141.833633 -150.849917 
L 142.227932 -152.496198 
L 142.536219 -154.142479 
L 142.751045 -155.78876 
L 142.897211 -157.435041 
L 143.007625 -159.081322 
L 143.104273 -160.727603 
L 143.197313 -162.373884 
L 143.293125 -164.020165 
L 143.399108 -165.666446 
L 143.515423 -167.312727 
L 143.628312 -168.959008 
L 143.722032 -170.605289 
L 143.791188 -172.25157 
L 143.838645 -173.897851 
L 143.870897 -175.544132 
L 143.896257 -177.190413 
L 143.920814 -178.836694 
L 143.944298 -180.482975 
L 143.962447 -182.129256 
L 143.973707 -183.775537 
L 143.980823 -185.421818 
L 143.986235 -187.068099 
L 143.989137 -188.71438 
L 143.988185 -190.360661 
L 143.985382 -192.006942 
L 143.984532 -193.653223 
L 143.98637 -195.299504 
L 143.988849 -196.945785 
L 143.991291 -198.592066 
L 143.994259 -200.238347 
L 143.997173 -201.884628 
L 143.999019 -203.530909 
L 144.000981 -203.530909 
L 144.000981 -203.530909 
L 144.002827 -201.884628 
L 144.005741 -200.238347 
L 144.008709 -198.592066 
L 144.011151 -196.945785 
L 144.01363 -195.299504 
L 144.015468 -193.653223 
L 144.014618 -192.006942 
L 144.011815 -190.360661 
L 144.010863 -188.71438 
L 144.013765 -187.068099 
L 144.019177 -185.421818 
L 144.026293 -183.775537 
L 144.037553 -182.129256 
L 144.055702 -180.482975 
L 144.079186 -178.836694 
L 144.103743 -177.190413 
L 144.129103 -175.544132 
L 144.161355 -173.897851 
L 144.208812 -172.25157 
L 144.277968 -170.605289 
L 144.371688 -168.959008 
L 144.484577 -167.312727 
L 144.600892 -165.666446 
L 144.706875 -164.020165 
L 144.802687 -162.373884 
L 144.895727 -160.727603 
L 144.992375 -159.081322 
L 145.102789 -157.435041 
L 145.248955 -155.78876 
L 145.463781 -154.142479 
L 145.772068 -152.496198 
L 146.166367 -150.849917 
L 146.606714 -149.203636 
L 147.049709 -147.557355 
L 147.479959 -145.911074 
L 147.917329 -144.264793 
L 148.414533 -142.618512 
L 149.041954 -140.972231 
L 149.827159 -139.32595 
L 150.707231 -137.679669 
L 151.591433 -136.033388 
L 152.465047 -134.387107 
L 153.370345 -132.740826 
L 154.321964 -131.094545 
L 155.302017 -129.448264 
L 156.285031 -127.801983 
L 157.254025 -126.155702 
L 158.221037 -124.509421 
L 159.19533 -122.86314 
L 160.123687 -121.21686 
L 160.901435 -119.570579 
L 161.477242 -117.924298 
L 161.948276 -116.278017 
L 162.485868 -114.631736 
L 163.130312 -112.985455 
L 163.717052 -111.339174 
L 164.05291 -109.692893 
L 164.108293 -108.046612 
L 163.986445 -106.400331 
L 163.777021 -104.75405 
L 163.482016 -103.107769 
L 163.048473 -101.461488 
L 162.451838 -99.815207 
L 161.715786 -98.168926 
L 160.866016 -96.522645 
L 159.939505 -94.876364 
L 159.006458 -93.230083 
L 158.098118 -91.583802 
L 157.167601 -89.937521 
L 156.165117 -88.29124 
L 155.087609 -86.644959 
L 153.9876 -84.998678 
L 152.964198 -83.352397 
L 152.060994 -81.706116 
L 151.202519 -80.059835 
L 150.31038 -78.413554 
L 149.40899 -76.767273 
L 148.5709 -75.120992 
L 147.830441 -73.474711 
L 147.172918 -71.82843 
L 146.580619 -70.182149 
L 146.069632 -68.535868 
L 145.665594 -66.889587 
L 145.358171 -65.243306 
L 145.102536 -63.597025 
L 144.863907 -61.950744 
L 144.645108 -60.304463 
L 144.46502 -58.658182 
L 144.327405 -57.011901 
L 144.221332 -55.36562 
L 144.138975 -53.719339 
L 144.079636 -52.073058 
L 144.042477 -50.426777 
L 144.024112 -48.780496 
L 144.018064 -47.134215 
L 144.015457 -45.487934 
L 144.010944 -43.841653 
L 144.005558 -42.195372 
L 144.00195 -40.549091 
z
" id="mde85d53aff" style="stroke:#4b4b4b;stroke-width:1.5;"/>
    </defs>
    <g clip-path="url(#pc3bdd144db)">
     <use style="fill:#59a257;stroke:#4b4b4b;stroke-width:1.5;" x="0" xlink:href="#mde85d53aff" y="216"/>
    </g>
   </g>
   <g id="matplotlib.axis_5">
    <g id="xtick_3">
     <g id="line2d_7">
      <g>
       <use style="stroke:#000000;stroke-width:0.8;" x="144" xlink:href="#m85d74060fa" y="183.6"/>
      </g>
     </g>
     <g id="text_3">
      <!-- Modeller -->
      <g transform="translate(122.465625 198.198438)scale(0.1 -0.1)">
       <use xlink:href="#DejaVuSans-77"/>
       <use x="86.279297" xlink:href="#DejaVuSans-111"/>
       <use x="147.460938" xlink:href="#DejaVuSans-100"/>
       <use x="210.9375" xlink:href="#DejaVuSans-101"/>
       <use x="272.460938" xlink:href="#DejaVuSans-108"/>
       <use x="300.244141" xlink:href="#DejaVuSans-108"/>
       <use x="328.027344" xlink:href="#DejaVuSans-101"/>
       <use x="389.550781" xlink:href="#DejaVuSans-114"/>
      </g>
      <!-- (dope_hr) -->
      <defs>
       <path d="M 54.890625 33.015625 
L 54.890625 0 
L 45.90625 0 
L 45.90625 32.71875 
Q 45.90625 40.484375 42.875 44.328125 
Q 39.84375 48.1875 33.796875 48.1875 
Q 26.515625 48.1875 22.3125 43.546875 
Q 18.109375 38.921875 18.109375 30.90625 
L 18.109375 0 
L 9.078125 0 
L 9.078125 75.984375 
L 18.109375 75.984375 
L 18.109375 46.1875 
Q 21.34375 51.125 25.703125 53.5625 
Q 30.078125 56 35.796875 56 
Q 45.21875 56 50.046875 50.171875 
Q 54.890625 44.34375 54.890625 33.015625 
z
" id="DejaVuSans-104"/>
      </defs>
      <g transform="translate(119.889844 209.39625)scale(0.1 -0.1)">
       <use xlink:href="#DejaVuSans-40"/>
       <use x="39.013672" xlink:href="#DejaVuSans-100"/>
       <use x="102.490234" xlink:href="#DejaVuSans-111"/>
       <use x="163.671875" xlink:href="#DejaVuSans-112"/>
       <use x="227.148438" xlink:href="#DejaVuSans-101"/>
       <use x="288.671875" xlink:href="#DejaVuSans-95"/>
       <use x="338.671875" xlink:href="#DejaVuSans-104"/>
       <use x="402.050781" xlink:href="#DejaVuSans-114"/>
       <use x="443.164062" xlink:href="#DejaVuSans-41"/>
      </g>
     </g>
    </g>
   </g>
   <g id="matplotlib.axis_6"/>
   <g id="LineCollection_3">
    <path clip-path="url(#pc3bdd144db)" d="M 121.880878 112.034705 
L 166.119122 112.034705 
" style="fill:none;stroke:#000000;stroke-dasharray:1.5,2.475;stroke-dashoffset:0;stroke-width:1.5;"/>
   </g>
   <g id="line2d_8">
    <path clip-path="url(#pc3bdd144db)" d="M 144 159.509968 
L 144 54.808678 
" style="fill:none;stroke:#4b4b4b;stroke-linecap:square;stroke-width:1.5;"/>
   </g>
   <g id="line2d_9">
    <path clip-path="url(#pc3bdd144db)" d="M 144 120.251983 
L 144 93.988995 
" style="fill:none;stroke:#4b4b4b;stroke-linecap:square;stroke-width:4.5;"/>
   </g>
   <g id="patch_9">
    <path d="M 119.668966 183.6 
L 168.331034 183.6 
" style="fill:none;stroke:#000000;stroke-linecap:square;stroke-linejoin:miter;stroke-width:0.8;"/>
   </g>
   <g id="patch_10">
    <path d="M 119.668966 4.32 
L 168.331034 4.32 
" style="fill:none;stroke:#000000;stroke-linecap:square;stroke-linejoin:miter;stroke-width:0.8;"/>
   </g>
   <g id="PathCollection_3">
    <defs>
     <path d="M 0 1.5 
C 0.397805 1.5 0.77937 1.341951 1.06066 1.06066 
C 1.341951 0.77937 1.5 0.397805 1.5 0 
C 1.5 -0.397805 1.341951 -0.77937 1.06066 -1.06066 
C 0.77937 -1.341951 0.397805 -1.5 0 -1.5 
C -0.397805 -1.5 -0.77937 -1.341951 -1.06066 -1.06066 
C -1.341951 -0.77937 -1.5 -0.397805 -1.5 0 
C -1.5 0.397805 -1.341951 0.77937 -1.06066 1.06066 
C -0.77937 1.341951 -0.397805 1.5 0 1.5 
z
" id="mf46670391d" style="stroke:#4b4b4b;"/>
    </defs>
    <g clip-path="url(#pc3bdd144db)">
     <use style="fill:#ffffff;stroke:#4b4b4b;" x="144" xlink:href="#mf46670391d" y="107.358467"/>
    </g>
   </g>
  </g>
  <g id="axes_4">
   <g id="patch_11">
    <path d="M 178.063448 183.6 
L 226.725517 183.6 
L 226.725517 4.32 
L 178.063448 4.32 
z
" style="fill:#ffffff;"/>
   </g>
   <g id="PolyCollection_4">
    <defs>
     <path d="M 202.396656 -40.549091 
L 202.39231 -40.549091 
L 202.386126 -42.195372 
L 202.372473 -43.841653 
L 202.352255 -45.487934 
L 202.328747 -47.134215 
L 202.298449 -48.780496 
L 202.249644 -50.426777 
L 202.17365 -52.073058 
L 202.071199 -53.719339 
L 201.93919 -55.36562 
L 201.7546 -57.011901 
L 201.485489 -58.658182 
L 201.119911 -60.304463 
L 200.670676 -61.950744 
L 200.14328 -63.597025 
L 199.508615 -65.243306 
L 198.720159 -66.889587 
L 197.769031 -68.535868 
L 196.692236 -70.182149 
L 195.494948 -71.82843 
L 194.134785 -73.474711 
L 192.603415 -75.120992 
L 190.94993 -76.767273 
L 189.253315 -78.413554 
L 187.619178 -80.059835 
L 186.163865 -81.706116 
L 184.922915 -83.352397 
L 183.860555 -84.998678 
L 183.019669 -86.644959 
L 182.484304 -88.29124 
L 182.28619 -89.937521 
L 182.411214 -91.583802 
L 182.786955 -93.230083 
L 183.349154 -94.876364 
L 184.105774 -96.522645 
L 185.045366 -98.168926 
L 186.096772 -99.815207 
L 187.234412 -101.461488 
L 188.475987 -103.107769 
L 189.756208 -104.75405 
L 190.962883 -106.400331 
L 192.107029 -108.046612 
L 193.282877 -109.692893 
L 194.469231 -111.339174 
L 195.547499 -112.985455 
L 196.4676 -114.631736 
L 197.254596 -116.278017 
L 197.917152 -117.924298 
L 198.452138 -119.570579 
L 198.901139 -121.21686 
L 199.337073 -122.86314 
L 199.780074 -124.509421 
L 200.167117 -126.155702 
L 200.447457 -127.801983 
L 200.649863 -129.448264 
L 200.825331 -131.094545 
L 200.979768 -132.740826 
L 201.088753 -134.387107 
L 201.155669 -136.033388 
L 201.221134 -137.679669 
L 201.316478 -139.32595 
L 201.437586 -140.972231 
L 201.551068 -142.618512 
L 201.619981 -144.264793 
L 201.645795 -145.911074 
L 201.677443 -147.557355 
L 201.749168 -149.203636 
L 201.827953 -150.849917 
L 201.864107 -152.496198 
L 201.861971 -154.142479 
L 201.866462 -155.78876 
L 201.904256 -157.435041 
L 201.963691 -159.081322 
L 202.025119 -160.727603 
L 202.080844 -162.373884 
L 202.121459 -164.020165 
L 202.135796 -165.666446 
L 202.133207 -167.312727 
L 202.138426 -168.959008 
L 202.164544 -170.605289 
L 202.206436 -172.25157 
L 202.247731 -173.897851 
L 202.275436 -175.544132 
L 202.290454 -177.190413 
L 202.299555 -178.836694 
L 202.308724 -180.482975 
L 202.3223 -182.129256 
L 202.340359 -183.775537 
L 202.355924 -185.421818 
L 202.361243 -187.068099 
L 202.359895 -188.71438 
L 202.363135 -190.360661 
L 202.374006 -192.006942 
L 202.38493 -193.653223 
L 202.389717 -195.299504 
L 202.389404 -196.945785 
L 202.388435 -198.592066 
L 202.389584 -200.238347 
L 202.391969 -201.884628 
L 202.393671 -203.530909 
L 202.395294 -203.530909 
L 202.395294 -203.530909 
L 202.396997 -201.884628 
L 202.399382 -200.238347 
L 202.40053 -198.592066 
L 202.399562 -196.945785 
L 202.399249 -195.299504 
L 202.404036 -193.653223 
L 202.414959 -192.006942 
L 202.425831 -190.360661 
L 202.42907 -188.71438 
L 202.427722 -187.068099 
L 202.433042 -185.421818 
L 202.448606 -183.775537 
L 202.466666 -182.129256 
L 202.480241 -180.482975 
L 202.489411 -178.836694 
L 202.498512 -177.190413 
L 202.51353 -175.544132 
L 202.541234 -173.897851 
L 202.58253 -172.25157 
L 202.624422 -170.605289 
L 202.65054 -168.959008 
L 202.655759 -167.312727 
L 202.653169 -165.666446 
L 202.667506 -164.020165 
L 202.708122 -162.373884 
L 202.763847 -160.727603 
L 202.825274 -159.081322 
L 202.884709 -157.435041 
L 202.922503 -155.78876 
L 202.926995 -154.142479 
L 202.924859 -152.496198 
L 202.961013 -150.849917 
L 203.039798 -149.203636 
L 203.111523 -147.557355 
L 203.14317 -145.911074 
L 203.168984 -144.264793 
L 203.237897 -142.618512 
L 203.351379 -140.972231 
L 203.472487 -139.32595 
L 203.567832 -137.679669 
L 203.633297 -136.033388 
L 203.700212 -134.387107 
L 203.809197 -132.740826 
L 203.963634 -131.094545 
L 204.139103 -129.448264 
L 204.341509 -127.801983 
L 204.621849 -126.155702 
L 205.008891 -124.509421 
L 205.451892 -122.86314 
L 205.887826 -121.21686 
L 206.336827 -119.570579 
L 206.871813 -117.924298 
L 207.534369 -116.278017 
L 208.321365 -114.631736 
L 209.241467 -112.985455 
L 210.319735 -111.339174 
L 211.506089 -109.692893 
L 212.681937 -108.046612 
L 213.826082 -106.400331 
L 215.032758 -104.75405 
L 216.312979 -103.107769 
L 217.554554 -101.461488 
L 218.692194 -99.815207 
L 219.7436 -98.168926 
L 220.683191 -96.522645 
L 221.439812 -94.876364 
L 222.002011 -93.230083 
L 222.377752 -91.583802 
L 222.502776 -89.937521 
L 222.304661 -88.29124 
L 221.769297 -86.644959 
L 220.92841 -84.998678 
L 219.86605 -83.352397 
L 218.625101 -81.706116 
L 217.169787 -80.059835 
L 215.535651 -78.413554 
L 213.839036 -76.767273 
L 212.185551 -75.120992 
L 210.65418 -73.474711 
L 209.294017 -71.82843 
L 208.09673 -70.182149 
L 207.019934 -68.535868 
L 206.068807 -66.889587 
L 205.28035 -65.243306 
L 204.645686 -63.597025 
L 204.118289 -61.950744 
L 203.669054 -60.304463 
L 203.303477 -58.658182 
L 203.034365 -57.011901 
L 202.849776 -55.36562 
L 202.717766 -53.719339 
L 202.615316 -52.073058 
L 202.539322 -50.426777 
L 202.490516 -48.780496 
L 202.460219 -47.134215 
L 202.43671 -45.487934 
L 202.416493 -43.841653 
L 202.402839 -42.195372 
L 202.396656 -40.549091 
z
" id="ma43130f04e" style="stroke:#484848;stroke-width:1.5;"/>
    </defs>
    <g clip-path="url(#p14417a13b9)">
     <use style="fill:#905998;stroke:#484848;stroke-width:1.5;" x="0" xlink:href="#ma43130f04e" y="216"/>
    </g>
   </g>
   <g id="matplotlib.axis_7">
    <g id="xtick_4">
     <g id="line2d_10">
      <g>
       <use style="stroke:#000000;stroke-width:0.8;" x="202.394483" xlink:href="#m85d74060fa" y="183.6"/>
      </g>
     </g>
     <g id="text_4">
      <!-- Modeller -->
      <g transform="translate(180.860108 198.198438)scale(0.1 -0.1)">
       <use xlink:href="#DejaVuSans-77"/>
       <use x="86.279297" xlink:href="#DejaVuSans-111"/>
       <use x="147.460938" xlink:href="#DejaVuSans-100"/>
       <use x="210.9375" xlink:href="#DejaVuSans-101"/>
       <use x="272.460938" xlink:href="#DejaVuSans-108"/>
       <use x="300.244141" xlink:href="#DejaVuSans-108"/>
       <use x="328.027344" xlink:href="#DejaVuSans-101"/>
       <use x="389.550781" xlink:href="#DejaVuSans-114"/>
      </g>
      <!-- (ga341) -->
      <defs>
       <path d="M 45.40625 27.984375 
Q 45.40625 37.75 41.375 43.109375 
Q 37.359375 48.484375 30.078125 48.484375 
Q 22.859375 48.484375 18.828125 43.109375 
Q 14.796875 37.75 14.796875 27.984375 
Q 14.796875 18.265625 18.828125 12.890625 
Q 22.859375 7.515625 30.078125 7.515625 
Q 37.359375 7.515625 41.375 12.890625 
Q 45.40625 18.265625 45.40625 27.984375 
z
M 54.390625 6.78125 
Q 54.390625 -7.171875 48.1875 -13.984375 
Q 42 -20.796875 29.203125 -20.796875 
Q 24.46875 -20.796875 20.265625 -20.09375 
Q 16.0625 -19.390625 12.109375 -17.921875 
L 12.109375 -9.1875 
Q 16.0625 -11.328125 19.921875 -12.34375 
Q 23.78125 -13.375 27.78125 -13.375 
Q 36.625 -13.375 41.015625 -8.765625 
Q 45.40625 -4.15625 45.40625 5.171875 
L 45.40625 9.625 
Q 42.625 4.78125 38.28125 2.390625 
Q 33.9375 0 27.875 0 
Q 17.828125 0 11.671875 7.65625 
Q 5.515625 15.328125 5.515625 27.984375 
Q 5.515625 40.671875 11.671875 48.328125 
Q 17.828125 56 27.875 56 
Q 33.9375 56 38.28125 53.609375 
Q 42.625 51.21875 45.40625 46.390625 
L 45.40625 54.6875 
L 54.390625 54.6875 
z
" id="DejaVuSans-103"/>
       <path d="M 34.28125 27.484375 
Q 23.390625 27.484375 19.1875 25 
Q 14.984375 22.515625 14.984375 16.5 
Q 14.984375 11.71875 18.140625 8.90625 
Q 21.296875 6.109375 26.703125 6.109375 
Q 34.1875 6.109375 38.703125 11.40625 
Q 43.21875 16.703125 43.21875 25.484375 
L 43.21875 27.484375 
z
M 52.203125 31.203125 
L 52.203125 0 
L 43.21875 0 
L 43.21875 8.296875 
Q 40.140625 3.328125 35.546875 0.953125 
Q 30.953125 -1.421875 24.3125 -1.421875 
Q 15.921875 -1.421875 10.953125 3.296875 
Q 6 8.015625 6 15.921875 
Q 6 25.140625 12.171875 29.828125 
Q 18.359375 34.515625 30.609375 34.515625 
L 43.21875 34.515625 
L 43.21875 35.40625 
Q 43.21875 41.609375 39.140625 45 
Q 35.0625 48.390625 27.6875 48.390625 
Q 23 48.390625 18.546875 47.265625 
Q 14.109375 46.140625 10.015625 43.890625 
L 10.015625 52.203125 
Q 14.9375 54.109375 19.578125 55.046875 
Q 24.21875 56 28.609375 56 
Q 40.484375 56 46.34375 49.84375 
Q 52.203125 43.703125 52.203125 31.203125 
z
" id="DejaVuSans-97"/>
       <path d="M 40.578125 39.3125 
Q 47.65625 37.796875 51.625 33 
Q 55.609375 28.21875 55.609375 21.1875 
Q 55.609375 10.40625 48.1875 4.484375 
Q 40.765625 -1.421875 27.09375 -1.421875 
Q 22.515625 -1.421875 17.65625 -0.515625 
Q 12.796875 0.390625 7.625 2.203125 
L 7.625 11.71875 
Q 11.71875 9.328125 16.59375 8.109375 
Q 21.484375 6.890625 26.8125 6.890625 
Q 36.078125 6.890625 40.9375 10.546875 
Q 45.796875 14.203125 45.796875 21.1875 
Q 45.796875 27.640625 41.28125 31.265625 
Q 36.765625 34.90625 28.71875 34.90625 
L 20.21875 34.90625 
L 20.21875 43.015625 
L 29.109375 43.015625 
Q 36.375 43.015625 40.234375 45.921875 
Q 44.09375 48.828125 44.09375 54.296875 
Q 44.09375 59.90625 40.109375 62.90625 
Q 36.140625 65.921875 28.71875 65.921875 
Q 24.65625 65.921875 20.015625 65.03125 
Q 15.375 64.15625 9.8125 62.3125 
L 9.8125 71.09375 
Q 15.4375 72.65625 20.34375 73.4375 
Q 25.25 74.21875 29.59375 74.21875 
Q 40.828125 74.21875 47.359375 69.109375 
Q 53.90625 64.015625 53.90625 55.328125 
Q 53.90625 49.265625 50.4375 45.09375 
Q 46.96875 40.921875 40.578125 39.3125 
z
" id="DejaVuSans-51"/>
       <path d="M 37.796875 64.3125 
L 12.890625 25.390625 
L 37.796875 25.390625 
z
M 35.203125 72.90625 
L 47.609375 72.90625 
L 47.609375 25.390625 
L 58.015625 25.390625 
L 58.015625 17.1875 
L 47.609375 17.1875 
L 47.609375 0 
L 37.796875 0 
L 37.796875 17.1875 
L 4.890625 17.1875 
L 4.890625 26.703125 
z
" id="DejaVuSans-52"/>
       <path d="M 12.40625 8.296875 
L 28.515625 8.296875 
L 28.515625 63.921875 
L 10.984375 60.40625 
L 10.984375 69.390625 
L 28.421875 72.90625 
L 38.28125 72.90625 
L 38.28125 8.296875 
L 54.390625 8.296875 
L 54.390625 0 
L 12.40625 0 
z
" id="DejaVuSans-49"/>
      </defs>
      <g transform="translate(182.710889 209.39625)scale(0.1 -0.1)">
       <use xlink:href="#DejaVuSans-40"/>
       <use x="39.013672" xlink:href="#DejaVuSans-103"/>
       <use x="102.490234" xlink:href="#DejaVuSans-97"/>
       <use x="163.769531" xlink:href="#DejaVuSans-51"/>
       <use x="227.392578" xlink:href="#DejaVuSans-52"/>
       <use x="291.015625" xlink:href="#DejaVuSans-49"/>
       <use x="354.638672" xlink:href="#DejaVuSans-41"/>
      </g>
     </g>
    </g>
   </g>
   <g id="matplotlib.axis_8"/>
   <g id="LineCollection_4">
    <path clip-path="url(#p14417a13b9)" d="M 180.275361 130.65954 
L 224.513605 130.65954 
" style="fill:none;stroke:#000000;stroke-dasharray:1.5,2.475;stroke-dashoffset:0;stroke-width:1.5;"/>
   </g>
   <g id="line2d_11">
    <path clip-path="url(#p14417a13b9)" d="M 202.394483 162.915945 
L 202.394483 82.176791 
" style="fill:none;stroke:#484848;stroke-linecap:square;stroke-width:1.5;"/>
   </g>
   <g id="line2d_12">
    <path clip-path="url(#p14417a13b9)" d="M 202.394483 132.65139 
L 202.394483 112.44903 
" style="fill:none;stroke:#484848;stroke-linecap:square;stroke-width:4.5;"/>
   </g>
   <g id="patch_12">
    <path d="M 178.063448 183.6 
L 226.725517 183.6 
" style="fill:none;stroke:#000000;stroke-linecap:square;stroke-linejoin:miter;stroke-width:0.8;"/>
   </g>
   <g id="patch_13">
    <path d="M 178.063448 4.32 
L 226.725517 4.32 
" style="fill:none;stroke:#000000;stroke-linecap:square;stroke-linejoin:miter;stroke-width:0.8;"/>
   </g>
   <g id="PathCollection_4">
    <g clip-path="url(#p14417a13b9)">
     <use style="fill:#ffffff;stroke:#484848;" x="202.394483" xlink:href="#m9348eb0d5a" y="123.239605"/>
    </g>
   </g>
  </g>
  <g id="axes_5">
   <g id="patch_14">
    <path d="M 236.457931 183.6 
L 285.12 183.6 
L 285.12 4.32 
L 236.457931 4.32 
z
" style="fill:#ffffff;"/>
   </g>
   <g id="PolyCollection_5">
    <defs>
     <path d="M 260.790256 -40.549091 
L 260.787675 -40.549091 
L 260.78338 -42.195372 
L 260.77349 -43.841653 
L 260.757147 -45.487934 
L 260.73464 -47.134215 
L 260.706467 -48.780496 
L 260.669817 -50.426777 
L 260.606739 -52.073058 
L 260.486136 -53.719339 
L 260.313241 -55.36562 
L 260.126449 -57.011901 
L 259.91191 -58.658182 
L 259.598874 -60.304463 
L 259.141531 -61.950744 
L 258.545403 -63.597025 
L 257.831858 -65.243306 
L 256.993712 -66.889587 
L 256.038538 -68.535868 
L 255.05655 -70.182149 
L 254.060067 -71.82843 
L 252.819448 -73.474711 
L 251.185878 -75.120992 
L 249.402167 -76.767273 
L 247.843177 -78.413554 
L 246.610177 -80.059835 
L 245.512047 -81.706116 
L 244.392816 -83.352397 
L 243.216994 -84.998678 
L 242.067598 -86.644959 
L 241.167362 -88.29124 
L 240.73155 -89.937521 
L 240.680673 -91.583802 
L 240.740013 -93.230083 
L 240.987578 -94.876364 
L 241.730769 -96.522645 
L 242.868913 -98.168926 
L 244.005161 -99.815207 
L 245.020067 -101.461488 
L 246.088955 -103.107769 
L 247.297574 -104.75405 
L 248.561301 -106.400331 
L 249.86361 -108.046612 
L 251.257946 -109.692893 
L 252.599096 -111.339174 
L 253.748861 -112.985455 
L 254.797365 -114.631736 
L 255.772821 -116.278017 
L 256.667606 -117.924298 
L 257.502885 -119.570579 
L 258.173531 -121.21686 
L 258.636835 -122.86314 
L 259.005548 -124.509421 
L 259.34915 -126.155702 
L 259.652305 -127.801983 
L 259.892956 -129.448264 
L 260.083365 -131.094545 
L 260.260014 -132.740826 
L 260.418838 -134.387107 
L 260.523378 -136.033388 
L 260.565926 -137.679669 
L 260.592644 -139.32595 
L 260.640125 -140.972231 
L 260.6909 -142.618512 
L 260.722902 -144.264793 
L 260.735978 -145.911074 
L 260.741574 -147.557355 
L 260.751261 -149.203636 
L 260.760567 -150.849917 
L 260.763785 -152.496198 
L 260.768948 -154.142479 
L 260.778724 -155.78876 
L 260.785996 -157.435041 
L 260.788494 -159.081322 
L 260.788846 -160.727603 
L 260.78827 -162.373884 
L 260.785886 -164.020165 
L 260.781911 -165.666446 
L 260.780623 -167.312727 
L 260.783873 -168.959008 
L 260.787338 -170.605289 
L 260.788427 -172.25157 
L 260.78727 -173.897851 
L 260.783752 -175.544132 
L 260.780586 -177.190413 
L 260.782014 -178.836694 
L 260.785989 -180.482975 
L 260.788308 -182.129256 
L 260.78889 -183.775537 
L 260.788961 -185.421818 
L 260.788965 -187.068099 
L 260.788966 -188.71438 
L 260.788965 -190.360661 
L 260.788956 -192.006942 
L 260.788831 -193.653223 
L 260.787959 -195.299504 
L 260.785084 -196.945785 
L 260.781239 -198.592066 
L 260.781027 -200.238347 
L 260.784756 -201.884628 
L 260.787814 -203.530909 
L 260.790117 -203.530909 
L 260.790117 -203.530909 
L 260.793175 -201.884628 
L 260.796904 -200.238347 
L 260.796693 -198.592066 
L 260.792847 -196.945785 
L 260.789972 -195.299504 
L 260.7891 -193.653223 
L 260.788975 -192.006942 
L 260.788966 -190.360661 
L 260.788966 -188.71438 
L 260.788966 -187.068099 
L 260.78897 -185.421818 
L 260.789041 -183.775537 
L 260.789623 -182.129256 
L 260.791942 -180.482975 
L 260.795917 -178.836694 
L 260.797345 -177.190413 
L 260.794179 -175.544132 
L 260.790661 -173.897851 
L 260.789504 -172.25157 
L 260.790593 -170.605289 
L 260.794058 -168.959008 
L 260.797308 -167.312727 
L 260.79602 -165.666446 
L 260.792045 -164.020165 
L 260.789661 -162.373884 
L 260.789085 -160.727603 
L 260.789437 -159.081322 
L 260.791935 -157.435041 
L 260.799207 -155.78876 
L 260.808983 -154.142479 
L 260.814146 -152.496198 
L 260.817364 -150.849917 
L 260.82667 -149.203636 
L 260.836357 -147.557355 
L 260.841953 -145.911074 
L 260.855029 -144.264793 
L 260.887031 -142.618512 
L 260.937806 -140.972231 
L 260.985287 -139.32595 
L 261.012006 -137.679669 
L 261.054553 -136.033388 
L 261.159093 -134.387107 
L 261.317917 -132.740826 
L 261.494566 -131.094545 
L 261.684975 -129.448264 
L 261.925626 -127.801983 
L 262.228781 -126.155702 
L 262.572383 -124.509421 
L 262.941096 -122.86314 
L 263.4044 -121.21686 
L 264.075046 -119.570579 
L 264.910325 -117.924298 
L 265.80511 -116.278017 
L 266.780566 -114.631736 
L 267.82907 -112.985455 
L 268.978835 -111.339174 
L 270.319985 -109.692893 
L 271.714321 -108.046612 
L 273.01663 -106.400331 
L 274.280357 -104.75405 
L 275.488976 -103.107769 
L 276.557864 -101.461488 
L 277.57277 -99.815207 
L 278.709018 -98.168926 
L 279.847162 -96.522645 
L 280.590353 -94.876364 
L 280.837918 -93.230083 
L 280.897258 -91.583802 
L 280.846381 -89.937521 
L 280.410569 -88.29124 
L 279.510334 -86.644959 
L 278.360937 -84.998678 
L 277.185115 -83.352397 
L 276.065885 -81.706116 
L 274.967754 -80.059835 
L 273.734754 -78.413554 
L 272.175764 -76.767273 
L 270.392053 -75.120992 
L 268.758483 -73.474711 
L 267.517864 -71.82843 
L 266.521381 -70.182149 
L 265.539393 -68.535868 
L 264.584219 -66.889587 
L 263.746073 -65.243306 
L 263.032528 -63.597025 
L 262.4364 -61.950744 
L 261.979057 -60.304463 
L 261.666021 -58.658182 
L 261.451482 -57.011901 
L 261.26469 -55.36562 
L 261.091795 -53.719339 
L 260.971192 -52.073058 
L 260.908114 -50.426777 
L 260.871464 -48.780496 
L 260.843291 -47.134215 
L 260.820784 -45.487934 
L 260.804441 -43.841653 
L 260.794551 -42.195372 
L 260.790256 -40.549091 
z
" id="m1f96ae3705" style="stroke:#4c4c4c;stroke-width:1.5;"/>
    </defs>
    <g clip-path="url(#p83ada8492d)">
     <use style="fill:#df7f20;stroke:#4c4c4c;stroke-width:1.5;" x="0" xlink:href="#m1f96ae3705" y="216"/>
    </g>
   </g>
   <g id="matplotlib.axis_9">
    <g id="xtick_5">
     <g id="line2d_13">
      <g>
       <use style="stroke:#000000;stroke-width:0.8;" x="260.788966" xlink:href="#m85d74060fa" y="183.6"/>
      </g>
     </g>
     <g id="text_5">
      <!-- Rosetta -->
      <defs>
       <path d="M 44.390625 34.1875 
Q 47.5625 33.109375 50.5625 29.59375 
Q 53.5625 26.078125 56.59375 19.921875 
L 66.609375 0 
L 56 0 
L 46.6875 18.703125 
Q 43.0625 26.03125 39.671875 28.421875 
Q 36.28125 30.8125 30.421875 30.8125 
L 19.671875 30.8125 
L 19.671875 0 
L 9.8125 0 
L 9.8125 72.90625 
L 32.078125 72.90625 
Q 44.578125 72.90625 50.734375 67.671875 
Q 56.890625 62.453125 56.890625 51.90625 
Q 56.890625 45.015625 53.6875 40.46875 
Q 50.484375 35.9375 44.390625 34.1875 
z
M 19.671875 64.796875 
L 19.671875 38.921875 
L 32.078125 38.921875 
Q 39.203125 38.921875 42.84375 42.21875 
Q 46.484375 45.515625 46.484375 51.90625 
Q 46.484375 58.296875 42.84375 61.546875 
Q 39.203125 64.796875 32.078125 64.796875 
z
" id="DejaVuSans-82"/>
       <path d="M 44.28125 53.078125 
L 44.28125 44.578125 
Q 40.484375 46.53125 36.375 47.5 
Q 32.28125 48.484375 27.875 48.484375 
Q 21.1875 48.484375 17.84375 46.4375 
Q 14.5 44.390625 14.5 40.28125 
Q 14.5 37.15625 16.890625 35.375 
Q 19.28125 33.59375 26.515625 31.984375 
L 29.59375 31.296875 
Q 39.15625 29.25 43.1875 25.515625 
Q 47.21875 21.78125 47.21875 15.09375 
Q 47.21875 7.46875 41.1875 3.015625 
Q 35.15625 -1.421875 24.609375 -1.421875 
Q 20.21875 -1.421875 15.453125 -0.5625 
Q 10.6875 0.296875 5.421875 2 
L 5.421875 11.28125 
Q 10.40625 8.6875 15.234375 7.390625 
Q 20.0625 6.109375 24.8125 6.109375 
Q 31.15625 6.109375 34.5625 8.28125 
Q 37.984375 10.453125 37.984375 14.40625 
Q 37.984375 18.0625 35.515625 20.015625 
Q 33.0625 21.96875 24.703125 23.78125 
L 21.578125 24.515625 
Q 13.234375 26.265625 9.515625 29.90625 
Q 5.8125 33.546875 5.8125 39.890625 
Q 5.8125 47.609375 11.28125 51.796875 
Q 16.75 56 26.8125 56 
Q 31.78125 56 36.171875 55.265625 
Q 40.578125 54.546875 44.28125 53.078125 
z
" id="DejaVuSans-115"/>
       <path d="M 18.3125 70.21875 
L 18.3125 54.6875 
L 36.8125 54.6875 
L 36.8125 47.703125 
L 18.3125 47.703125 
L 18.3125 18.015625 
Q 18.3125 11.328125 20.140625 9.421875 
Q 21.96875 7.515625 27.59375 7.515625 
L 36.8125 7.515625 
L 36.8125 0 
L 27.59375 0 
Q 17.1875 0 13.234375 3.875 
Q 9.28125 7.765625 9.28125 18.015625 
L 9.28125 47.703125 
L 2.6875 47.703125 
L 2.6875 54.6875 
L 9.28125 54.6875 
L 9.28125 70.21875 
z
" id="DejaVuSans-116"/>
      </defs>
      <g transform="translate(241.814747 198.198438)scale(0.1 -0.1)">
       <use xlink:href="#DejaVuSans-82"/>
       <use x="64.982422" xlink:href="#DejaVuSans-111"/>
       <use x="126.164062" xlink:href="#DejaVuSans-115"/>
       <use x="178.263672" xlink:href="#DejaVuSans-101"/>
       <use x="239.787109" xlink:href="#DejaVuSans-116"/>
       <use x="278.996094" xlink:href="#DejaVuSans-116"/>
       <use x="318.205078" xlink:href="#DejaVuSans-97"/>
      </g>
      <!-- (score) -->
      <defs>
       <path d="M 48.78125 52.59375 
L 48.78125 44.1875 
Q 44.96875 46.296875 41.140625 47.34375 
Q 37.3125 48.390625 33.40625 48.390625 
Q 24.65625 48.390625 19.8125 42.84375 
Q 14.984375 37.3125 14.984375 27.296875 
Q 14.984375 17.28125 19.8125 11.734375 
Q 24.65625 6.203125 33.40625 6.203125 
Q 37.3125 6.203125 41.140625 7.25 
Q 44.96875 8.296875 48.78125 10.40625 
L 48.78125 2.09375 
Q 45.015625 0.34375 40.984375 -0.53125 
Q 36.96875 -1.421875 32.421875 -1.421875 
Q 20.0625 -1.421875 12.78125 6.34375 
Q 5.515625 14.109375 5.515625 27.296875 
Q 5.515625 40.671875 12.859375 48.328125 
Q 20.21875 56 33.015625 56 
Q 37.15625 56 41.109375 55.140625 
Q 45.0625 54.296875 48.78125 52.59375 
z
" id="DejaVuSans-99"/>
      </defs>
      <g transform="translate(243.454591 209.39625)scale(0.1 -0.1)">
       <use xlink:href="#DejaVuSans-40"/>
       <use x="39.013672" xlink:href="#DejaVuSans-115"/>
       <use x="91.113281" xlink:href="#DejaVuSans-99"/>
       <use x="146.09375" xlink:href="#DejaVuSans-111"/>
       <use x="207.275391" xlink:href="#DejaVuSans-114"/>
       <use x="246.138672" xlink:href="#DejaVuSans-101"/>
       <use x="307.662109" xlink:href="#DejaVuSans-41"/>
      </g>
     </g>
    </g>
   </g>
   <g id="matplotlib.axis_10"/>
   <g id="LineCollection_5">
    <path clip-path="url(#p83ada8492d)" d="M 238.669843 136.893203 
L 282.908088 136.893203 
" style="fill:none;stroke:#000000;stroke-dasharray:1.5,2.475;stroke-dashoffset:0;stroke-width:1.5;"/>
   </g>
   <g id="line2d_14">
    <path clip-path="url(#p83ada8492d)" d="M 260.788966 161.467503 
L 260.788966 85.332202 
" style="fill:none;stroke:#4c4c4c;stroke-linecap:square;stroke-width:1.5;"/>
   </g>
   <g id="line2d_15">
    <path clip-path="url(#p83ada8492d)" d="M 260.788966 132.905814 
L 260.788966 113.863329 
" style="fill:none;stroke:#4c4c4c;stroke-linecap:square;stroke-width:4.5;"/>
   </g>
   <g id="patch_15">
    <path d="M 236.457931 183.6 
L 285.12 183.6 
" style="fill:none;stroke:#000000;stroke-linecap:square;stroke-linejoin:miter;stroke-width:0.8;"/>
   </g>
   <g id="patch_16">
    <path d="M 236.457931 4.32 
L 285.12 4.32 
" style="fill:none;stroke:#000000;stroke-linecap:square;stroke-linejoin:miter;stroke-width:0.8;"/>
   </g>
   <g id="PathCollection_5">
    <g clip-path="url(#p83ada8492d)">
     <use style="fill:#ffffff;stroke:#4c4c4c;" x="260.788966" xlink:href="#m588f7481eb" y="123.563871"/>
    </g>
   </g>
  </g>
 </g>
 <defs>
  <clipPath id="pa115150809">
   <rect height="179.28" width="48.662069" x="2.88" y="4.32"/>
  </clipPath>
  <clipPath id="pcf93afb9cf">
   <rect height="179.28" width="48.662069" x="61.274483" y="4.32"/>
  </clipPath>
  <clipPath id="pc3bdd144db">
   <rect height="179.28" width="48.662069" x="119.668966" y="4.32"/>
  </clipPath>
  <clipPath id="p14417a13b9">
   <rect height="179.28" width="48.662069" x="178.063448" y="4.32"/>
  </clipPath>
  <clipPath id="p83ada8492d">
   <rect height="179.28" width="48.662069" x="236.457931" y="4.32"/>
  </clipPath>
 </defs>
</svg>
