<?xml version="1.0" encoding="utf-8" standalone="no"?>
<!DOCTYPE svg PUBLIC "-//W3C//DTD SVG 1.1//EN"
  "http://www.w3.org/Graphics/SVG/1.1/DTD/svg11.dtd">
<!-- Created with matplotlib (https://matplotlib.org/) -->
<svg height="216pt" version="1.1" viewBox="0 0 288 216" width="288pt" xmlns="http://www.w3.org/2000/svg" xmlns:xlink="http://www.w3.org/1999/xlink">
 <defs>
  <style type="text/css">
*{stroke-linecap:butt;stroke-linejoin:round;}
  </style>
 </defs>
 <g id="figure_1">
  <g id="patch_1">
   <path d="M 0 216 
L 288 216 
L 288 0 
L 0 0 
z
" style="fill:#ffffff;"/>
  </g>
  <g id="axes_1">
   <g id="patch_2">
    <path d="M 2.88 183.6 
L 51.542069 183.6 
L 51.542069 4.32 
L 2.88 4.32 
z
" style="fill:#ffffff;"/>
   </g>
   <g id="PolyCollection_1">
    <defs>
     <path d="M 27.211469 -40.549091 
L 27.2106 -40.549091 
L 27.208088 -42.195372 
L 27.195508 -43.841653 
L 27.05706 -45.487934 
L 26.20871 -47.134215 
L 23.426437 -48.780496 
L 18.160382 -50.426777 
L 11.921024 -52.073058 
L 7.51609 -53.719339 
L 7.102742 -55.36562 
L 10.165994 -57.011901 
L 14.627979 -58.658182 
L 18.772187 -60.304463 
L 21.75307 -61.950744 
L 23.850254 -63.597025 
L 25.189168 -65.243306 
L 26.053193 -66.889587 
L 26.583256 -68.535868 
L 26.883986 -70.182149 
L 27.041837 -71.82843 
L 27.142904 -73.474711 
L 27.180288 -75.120992 
L 27.198627 -76.767273 
L 27.20665 -78.413554 
L 27.209117 -80.059835 
L 27.210831 -81.706116 
L 27.211031 -83.352397 
L 27.211034 -84.998678 
L 27.211034 -86.644959 
L 27.211034 -88.29124 
L 27.211034 -89.937521 
L 27.211034 -91.583802 
L 27.211034 -93.230083 
L 27.211034 -94.876364 
L 27.211034 -96.522645 
L 27.211034 -98.168926 
L 27.211034 -99.815207 
L 27.211034 -101.461488 
L 27.211034 -103.107769 
L 27.211034 -104.75405 
L 27.211034 -106.400331 
L 27.211034 -108.046612 
L 27.211034 -109.692893 
L 27.211034 -111.339174 
L 27.211034 -112.985455 
L 27.211034 -114.631736 
L 27.211032 -116.278017 
L 27.210894 -117.924298 
L 27.209148 -119.570579 
L 27.205513 -121.21686 
L 27.206448 -122.86314 
L 27.207402 -124.509421 
L 27.207502 -126.155702 
L 27.206384 -127.801983 
L 27.206465 -129.448264 
L 27.209441 -131.094545 
L 27.210911 -132.740826 
L 27.211033 -134.387107 
L 27.211034 -136.033388 
L 27.211034 -137.679669 
L 27.211034 -139.32595 
L 27.211034 -140.972231 
L 27.211034 -142.618512 
L 27.211034 -144.264793 
L 27.211034 -145.911074 
L 27.211034 -147.557355 
L 27.211034 -149.203636 
L 27.211034 -150.849917 
L 27.211034 -152.496198 
L 27.211034 -154.142479 
L 27.211034 -155.78876 
L 27.211034 -157.435041 
L 27.211034 -159.081322 
L 27.211034 -160.727603 
L 27.210988 -162.373884 
L 27.210127 -164.020165 
L 27.20794 -165.666446 
L 27.208415 -167.312727 
L 27.204066 -168.959008 
L 27.192507 -170.605289 
L 27.172693 -172.25157 
L 27.157893 -173.897851 
L 27.166015 -175.544132 
L 27.174451 -177.190413 
L 27.17567 -178.836694 
L 27.18022 -180.482975 
L 27.184544 -182.129256 
L 27.182535 -183.775537 
L 27.183058 -185.421818 
L 27.184348 -187.068099 
L 27.182117 -188.71438 
L 27.187843 -190.360661 
L 27.196356 -192.006942 
L 27.197952 -193.653223 
L 27.198239 -195.299504 
L 27.200409 -196.945785 
L 27.205829 -198.592066 
L 27.207692 -200.238347 
L 27.208482 -201.884628 
L 27.210603 -203.530909 
L 27.211466 -203.530909 
L 27.211466 -203.530909 
L 27.213587 -201.884628 
L 27.214376 -200.238347 
L 27.216239 -198.592066 
L 27.22166 -196.945785 
L 27.22383 -195.299504 
L 27.224117 -193.653223 
L 27.225713 -192.006942 
L 27.234226 -190.360661 
L 27.239952 -188.71438 
L 27.237721 -187.068099 
L 27.239011 -185.421818 
L 27.239534 -183.775537 
L 27.237525 -182.129256 
L 27.241849 -180.482975 
L 27.246399 -178.836694 
L 27.247618 -177.190413 
L 27.256054 -175.544132 
L 27.264176 -173.897851 
L 27.249376 -172.25157 
L 27.229562 -170.605289 
L 27.218003 -168.959008 
L 27.213654 -167.312727 
L 27.214129 -165.666446 
L 27.211942 -164.020165 
L 27.211081 -162.373884 
L 27.211035 -160.727603 
L 27.211034 -159.081322 
L 27.211034 -157.435041 
L 27.211034 -155.78876 
L 27.211034 -154.142479 
L 27.211034 -152.496198 
L 27.211034 -150.849917 
L 27.211034 -149.203636 
L 27.211034 -147.557355 
L 27.211034 -145.911074 
L 27.211034 -144.264793 
L 27.211034 -142.618512 
L 27.211034 -140.972231 
L 27.211034 -139.32595 
L 27.211034 -137.679669 
L 27.211034 -136.033388 
L 27.211036 -134.387107 
L 27.211158 -132.740826 
L 27.212628 -131.094545 
L 27.215604 -129.448264 
L 27.215685 -127.801983 
L 27.214567 -126.155702 
L 27.214667 -124.509421 
L 27.21562 -122.86314 
L 27.216556 -121.21686 
L 27.212921 -119.570579 
L 27.211175 -117.924298 
L 27.211036 -116.278017 
L 27.211034 -114.631736 
L 27.211034 -112.985455 
L 27.211034 -111.339174 
L 27.211034 -109.692893 
L 27.211034 -108.046612 
L 27.211034 -106.400331 
L 27.211034 -104.75405 
L 27.211034 -103.107769 
L 27.211034 -101.461488 
L 27.211034 -99.815207 
L 27.211034 -98.168926 
L 27.211034 -96.522645 
L 27.211034 -94.876364 
L 27.211034 -93.230083 
L 27.211034 -91.583802 
L 27.211034 -89.937521 
L 27.211034 -88.29124 
L 27.211034 -86.644959 
L 27.211034 -84.998678 
L 27.211038 -83.352397 
L 27.211238 -81.706116 
L 27.212952 -80.059835 
L 27.215419 -78.413554 
L 27.223442 -76.767273 
L 27.241781 -75.120992 
L 27.279165 -73.474711 
L 27.380232 -71.82843 
L 27.538083 -70.182149 
L 27.838813 -68.535868 
L 28.368876 -66.889587 
L 29.232901 -65.243306 
L 30.571815 -63.597025 
L 32.668999 -61.950744 
L 35.649882 -60.304463 
L 39.79409 -58.658182 
L 44.256075 -57.011901 
L 47.319327 -55.36562 
L 46.905979 -53.719339 
L 42.501045 -52.073058 
L 36.261687 -50.426777 
L 30.995632 -48.780496 
L 28.213359 -47.134215 
L 27.365009 -45.487934 
L 27.22656 -43.841653 
L 27.213981 -42.195372 
L 27.211469 -40.549091 
z
" id="me1ae6e8161" style="stroke:#4c4c4c;stroke-width:1.5;"/>
    </defs>
    <g clip-path="url(#p19e502b36f)">
     <use style="fill:#cb3335;stroke:#4c4c4c;stroke-width:1.5;" x="0" xlink:href="#me1ae6e8161" y="216"/>
    </g>
   </g>
   <g id="matplotlib.axis_1">
    <g id="xtick_1">
     <g id="line2d_1">
      <defs>
       <path d="M 0 0 
L 0 3.5 
" id="ma77bf65120" style="stroke:#000000;stroke-width:0.8;"/>
      </defs>
      <g>
       <use style="stroke:#000000;stroke-width:0.8;" x="27.211034" xlink:href="#ma77bf65120" y="183.6"/>
      </g>
     </g>
     <g id="text_1">
      <!-- Modeller -->
      <defs>
       <path d="M 9.8125 72.90625 
L 24.515625 72.90625 
L 43.109375 23.296875 
L 61.8125 72.90625 
L 76.515625 72.90625 
L 76.515625 0 
L 66.890625 0 
L 66.890625 64.015625 
L 48.09375 14.015625 
L 38.1875 14.015625 
L 19.390625 64.015625 
L 19.390625 0 
L 9.8125 0 
z
" id="DejaVuSans-77"/>
       <path d="M 30.609375 48.390625 
Q 23.390625 48.390625 19.1875 42.75 
Q 14.984375 37.109375 14.984375 27.296875 
Q 14.984375 17.484375 19.15625 11.84375 
Q 23.34375 6.203125 30.609375 6.203125 
Q 37.796875 6.203125 41.984375 11.859375 
Q 46.1875 17.53125 46.1875 27.296875 
Q 46.1875 37.015625 41.984375 42.703125 
Q 37.796875 48.390625 30.609375 48.390625 
z
M 30.609375 56 
Q 42.328125 56 49.015625 48.375 
Q 55.71875 40.765625 55.71875 27.296875 
Q 55.71875 13.875 49.015625 6.21875 
Q 42.328125 -1.421875 30.609375 -1.421875 
Q 18.84375 -1.421875 12.171875 6.21875 
Q 5.515625 13.875 5.515625 27.296875 
Q 5.515625 40.765625 12.171875 48.375 
Q 18.84375 56 30.609375 56 
z
" id="DejaVuSans-111"/>
       <path d="M 45.40625 46.390625 
L 45.40625 75.984375 
L 54.390625 75.984375 
L 54.390625 0 
L 45.40625 0 
L 45.40625 8.203125 
Q 42.578125 3.328125 38.25 0.953125 
Q 33.9375 -1.421875 27.875 -1.421875 
Q 17.96875 -1.421875 11.734375 6.484375 
Q 5.515625 14.40625 5.515625 27.296875 
Q 5.515625 40.1875 11.734375 48.09375 
Q 17.96875 56 27.875 56 
Q 33.9375 56 38.25 53.625 
Q 42.578125 51.265625 45.40625 46.390625 
z
M 14.796875 27.296875 
Q 14.796875 17.390625 18.875 11.75 
Q 22.953125 6.109375 30.078125 6.109375 
Q 37.203125 6.109375 41.296875 11.75 
Q 45.40625 17.390625 45.40625 27.296875 
Q 45.40625 37.203125 41.296875 42.84375 
Q 37.203125 48.484375 30.078125 48.484375 
Q 22.953125 48.484375 18.875 42.84375 
Q 14.796875 37.203125 14.796875 27.296875 
z
" id="DejaVuSans-100"/>
       <path d="M 56.203125 29.59375 
L 56.203125 25.203125 
L 14.890625 25.203125 
Q 15.484375 15.921875 20.484375 11.0625 
Q 25.484375 6.203125 34.421875 6.203125 
Q 39.59375 6.203125 44.453125 7.46875 
Q 49.3125 8.734375 54.109375 11.28125 
L 54.109375 2.78125 
Q 49.265625 0.734375 44.1875 -0.34375 
Q 39.109375 -1.421875 33.890625 -1.421875 
Q 20.796875 -1.421875 13.15625 6.1875 
Q 5.515625 13.8125 5.515625 26.8125 
Q 5.515625 40.234375 12.765625 48.109375 
Q 20.015625 56 32.328125 56 
Q 43.359375 56 49.78125 48.890625 
Q 56.203125 41.796875 56.203125 29.59375 
z
M 47.21875 32.234375 
Q 47.125 39.59375 43.09375 43.984375 
Q 39.0625 48.390625 32.421875 48.390625 
Q 24.90625 48.390625 20.390625 44.140625 
Q 15.875 39.890625 15.1875 32.171875 
z
" id="DejaVuSans-101"/>
       <path d="M 9.421875 75.984375 
L 18.40625 75.984375 
L 18.40625 0 
L 9.421875 0 
z
" id="DejaVuSans-108"/>
       <path d="M 41.109375 46.296875 
Q 39.59375 47.171875 37.8125 47.578125 
Q 36.03125 48 33.890625 48 
Q 26.265625 48 22.1875 43.046875 
Q 18.109375 38.09375 18.109375 28.8125 
L 18.109375 0 
L 9.078125 0 
L 9.078125 54.6875 
L 18.109375 54.6875 
L 18.109375 46.1875 
Q 20.953125 51.171875 25.484375 53.578125 
Q 30.03125 56 36.53125 56 
Q 37.453125 56 38.578125 55.875 
Q 39.703125 55.765625 41.0625 55.515625 
z
" id="DejaVuSans-114"/>
      </defs>
      <g transform="translate(5.676659 198.198438)scale(0.1 -0.1)">
       <use xlink:href="#DejaVuSans-77"/>
       <use x="86.279297" xlink:href="#DejaVuSans-111"/>
       <use x="147.460938" xlink:href="#DejaVuSans-100"/>
       <use x="210.9375" xlink:href="#DejaVuSans-101"/>
       <use x="272.460938" xlink:href="#DejaVuSans-108"/>
       <use x="300.244141" xlink:href="#DejaVuSans-108"/>
       <use x="328.027344" xlink:href="#DejaVuSans-101"/>
       <use x="389.550781" xlink:href="#DejaVuSans-114"/>
      </g>
      <!-- (molpdf) -->
      <defs>
       <path d="M 31 75.875 
Q 24.46875 64.65625 21.28125 53.65625 
Q 18.109375 42.671875 18.109375 31.390625 
Q 18.109375 20.125 21.3125 9.0625 
Q 24.515625 -2 31 -13.1875 
L 23.1875 -13.1875 
Q 15.875 -1.703125 12.234375 9.375 
Q 8.59375 20.453125 8.59375 31.390625 
Q 8.59375 42.28125 12.203125 53.3125 
Q 15.828125 64.359375 23.1875 75.875 
z
" id="DejaVuSans-40"/>
       <path d="M 52 44.1875 
Q 55.375 50.25 60.0625 53.125 
Q 64.75 56 71.09375 56 
Q 79.640625 56 84.28125 50.015625 
Q 88.921875 44.046875 88.921875 33.015625 
L 88.921875 0 
L 79.890625 0 
L 79.890625 32.71875 
Q 79.890625 40.578125 77.09375 44.375 
Q 74.3125 48.1875 68.609375 48.1875 
Q 61.625 48.1875 57.5625 43.546875 
Q 53.515625 38.921875 53.515625 30.90625 
L 53.515625 0 
L 44.484375 0 
L 44.484375 32.71875 
Q 44.484375 40.625 41.703125 44.40625 
Q 38.921875 48.1875 33.109375 48.1875 
Q 26.21875 48.1875 22.15625 43.53125 
Q 18.109375 38.875 18.109375 30.90625 
L 18.109375 0 
L 9.078125 0 
L 9.078125 54.6875 
L 18.109375 54.6875 
L 18.109375 46.1875 
Q 21.1875 51.21875 25.484375 53.609375 
Q 29.78125 56 35.6875 56 
Q 41.65625 56 45.828125 52.96875 
Q 50 49.953125 52 44.1875 
z
" id="DejaVuSans-109"/>
       <path d="M 18.109375 8.203125 
L 18.109375 -20.796875 
L 9.078125 -20.796875 
L 9.078125 54.6875 
L 18.109375 54.6875 
L 18.109375 46.390625 
Q 20.953125 51.265625 25.265625 53.625 
Q 29.59375 56 35.59375 56 
Q 45.5625 56 51.78125 48.09375 
Q 58.015625 40.1875 58.015625 27.296875 
Q 58.015625 14.40625 51.78125 6.484375 
Q 45.5625 -1.421875 35.59375 -1.421875 
Q 29.59375 -1.421875 25.265625 0.953125 
Q 20.953125 3.328125 18.109375 8.203125 
z
M 48.6875 27.296875 
Q 48.6875 37.203125 44.609375 42.84375 
Q 40.53125 48.484375 33.40625 48.484375 
Q 26.265625 48.484375 22.1875 42.84375 
Q 18.109375 37.203125 18.109375 27.296875 
Q 18.109375 17.390625 22.1875 11.75 
Q 26.265625 6.109375 33.40625 6.109375 
Q 40.53125 6.109375 44.609375 11.75 
Q 48.6875 17.390625 48.6875 27.296875 
z
" id="DejaVuSans-112"/>
       <path d="M 37.109375 75.984375 
L 37.109375 68.5 
L 28.515625 68.5 
Q 23.6875 68.5 21.796875 66.546875 
Q 19.921875 64.59375 19.921875 59.515625 
L 19.921875 54.6875 
L 34.71875 54.6875 
L 34.71875 47.703125 
L 19.921875 47.703125 
L 19.921875 0 
L 10.890625 0 
L 10.890625 47.703125 
L 2.296875 47.703125 
L 2.296875 54.6875 
L 10.890625 54.6875 
L 10.890625 58.5 
Q 10.890625 67.625 15.140625 71.796875 
Q 19.390625 75.984375 28.609375 75.984375 
z
" id="DejaVuSans-102"/>
       <path d="M 8.015625 75.875 
L 15.828125 75.875 
Q 23.140625 64.359375 26.78125 53.3125 
Q 30.421875 42.28125 30.421875 31.390625 
Q 30.421875 20.453125 26.78125 9.375 
Q 23.140625 -1.703125 15.828125 -13.1875 
L 8.015625 -13.1875 
Q 14.5 -2 17.703125 9.0625 
Q 20.90625 20.125 20.90625 31.390625 
Q 20.90625 42.671875 17.703125 53.65625 
Q 14.5 64.65625 8.015625 75.875 
z
" id="DejaVuSans-41"/>
      </defs>
      <g transform="translate(5.882128 209.39625)scale(0.1 -0.1)">
       <use xlink:href="#DejaVuSans-40"/>
       <use x="39.013672" xlink:href="#DejaVuSans-109"/>
       <use x="136.425781" xlink:href="#DejaVuSans-111"/>
       <use x="197.607422" xlink:href="#DejaVuSans-108"/>
       <use x="225.390625" xlink:href="#DejaVuSans-112"/>
       <use x="288.867188" xlink:href="#DejaVuSans-100"/>
       <use x="352.34375" xlink:href="#DejaVuSans-102"/>
       <use x="387.548828" xlink:href="#DejaVuSans-41"/>
      </g>
     </g>
    </g>
   </g>
   <g id="matplotlib.axis_2"/>
   <g id="LineCollection_1">
    <path clip-path="url(#p19e502b36f)" d="M 5.091912 164.053232 
L 49.330157 164.053232 
" style="fill:none;stroke:#000000;stroke-dasharray:1.5,2.475;stroke-dashoffset:0;stroke-width:1.5;"/>
   </g>
   <g id="line2d_2">
    <path clip-path="url(#p19e502b36f)" d="M 27.211034 170.338963 
L 27.211034 150.125526 
" style="fill:none;stroke:#4c4c4c;stroke-linecap:square;stroke-width:1.5;"/>
   </g>
   <g id="line2d_3">
    <path clip-path="url(#p19e502b36f)" d="M 27.211034 162.923109 
L 27.211034 157.799229 
" style="fill:none;stroke:#4c4c4c;stroke-linecap:square;stroke-width:4.5;"/>
   </g>
   <g id="patch_3">
    <path d="M 2.88 183.6 
L 51.542069 183.6 
" style="fill:none;stroke:#000000;stroke-linecap:square;stroke-linejoin:miter;stroke-width:0.8;"/>
   </g>
   <g id="patch_4">
    <path d="M 2.88 4.32 
L 51.542069 4.32 
" style="fill:none;stroke:#000000;stroke-linecap:square;stroke-linejoin:miter;stroke-width:0.8;"/>
   </g>
   <g id="PathCollection_1">
    <defs>
     <path d="M 0 1.5 
C 0.397805 1.5 0.77937 1.341951 1.06066 1.06066 
C 1.341951 0.77937 1.5 0.397805 1.5 0 
C 1.5 -0.397805 1.341951 -0.77937 1.06066 -1.06066 
C 0.77937 -1.341951 0.397805 -1.5 0 -1.5 
C -0.397805 -1.5 -0.77937 -1.341951 -1.06066 -1.06066 
C -1.341951 -0.77937 -1.5 -0.397805 -1.5 0 
C -1.5 0.397805 -1.341951 0.77937 -1.06066 1.06066 
C -0.77937 1.341951 -0.397805 1.5 0 1.5 
z
" id="md70cc34a7e" style="stroke:#4c4c4c;"/>
    </defs>
    <g clip-path="url(#p19e502b36f)">
     <use style="fill:#ffffff;stroke:#4c4c4c;" x="27.211034" xlink:href="#md70cc34a7e" y="160.575215"/>
    </g>
   </g>
  </g>
  <g id="axes_2">
   <g id="patch_5">
    <path d="M 61.274483 183.6 
L 109.936552 183.6 
L 109.936552 4.32 
L 61.274483 4.32 
z
" style="fill:#ffffff;"/>
   </g>
   <g id="PolyCollection_2">
    <defs>
     <path d="M 85.608247 -40.549091 
L 85.602787 -40.549091 
L 85.597535 -42.195372 
L 85.58604 -43.841653 
L 85.564777 -45.487934 
L 85.530149 -47.134215 
L 85.478594 -48.780496 
L 85.407207 -50.426777 
L 85.315344 -52.073058 
L 85.204616 -53.719339 
L 85.075017 -55.36562 
L 84.920328 -57.011901 
L 84.727587 -58.658182 
L 84.480715 -60.304463 
L 84.166807 -61.950744 
L 83.78408 -63.597025 
L 83.345015 -65.243306 
L 82.867849 -66.889587 
L 82.364663 -68.535868 
L 81.840266 -70.182149 
L 81.29719 -71.82843 
L 80.733466 -73.474711 
L 80.138505 -75.120992 
L 79.498215 -76.767273 
L 78.802143 -78.413554 
L 78.041587 -80.059835 
L 77.204456 -81.706116 
L 76.280382 -83.352397 
L 75.278559 -84.998678 
L 74.243492 -86.644959 
L 73.248886 -88.29124 
L 72.363409 -89.937521 
L 71.603988 -91.583802 
L 70.913794 -93.230083 
L 70.202142 -94.876364 
L 69.428283 -96.522645 
L 68.643044 -98.168926 
L 67.93679 -99.815207 
L 67.361408 -101.461488 
L 66.914448 -103.107769 
L 66.567654 -104.75405 
L 66.283918 -106.400331 
L 66.029957 -108.046612 
L 65.798308 -109.692893 
L 65.611778 -111.339174 
L 65.503755 -112.985455 
L 65.497224 -114.631736 
L 65.593588 -116.278017 
L 65.77819 -117.924298 
L 66.039154 -119.570579 
L 66.367284 -121.21686 
L 66.734566 -122.86314 
L 67.106981 -124.509421 
L 67.498518 -126.155702 
L 67.980171 -127.801983 
L 68.604915 -129.448264 
L 69.337593 -131.094545 
L 70.078669 -132.740826 
L 70.748487 -134.387107 
L 71.337675 -136.033388 
L 71.893397 -137.679669 
L 72.480838 -139.32595 
L 73.148278 -140.972231 
L 73.902018 -142.618512 
L 74.711433 -144.264793 
L 75.545135 -145.911074 
L 76.392151 -147.557355 
L 77.242168 -149.203636 
L 78.062586 -150.849917 
L 78.810093 -152.496198 
L 79.460256 -154.142479 
L 80.02011 -155.78876 
L 80.516084 -157.435041 
L 80.974025 -159.081322 
L 81.410076 -160.727603 
L 81.83415 -162.373884 
L 82.2513 -164.020165 
L 82.656311 -165.666446 
L 83.035324 -167.312727 
L 83.378835 -168.959008 
L 83.689404 -170.605289 
L 83.974073 -172.25157 
L 84.234628 -173.897851 
L 84.468617 -175.544132 
L 84.674733 -177.190413 
L 84.852916 -178.836694 
L 85.002216 -180.482975 
L 85.122329 -182.129256 
L 85.216829 -183.775537 
L 85.293003 -185.421818 
L 85.357842 -187.068099 
L 85.414398 -188.71438 
L 85.462177 -190.360661 
L 85.500486 -192.006942 
L 85.530531 -193.653223 
L 85.554383 -195.299504 
L 85.573197 -196.945785 
L 85.587125 -198.592066 
L 85.59633 -200.238347 
L 85.601585 -201.884628 
L 85.604109 -203.530909 
L 85.606926 -203.530909 
L 85.606926 -203.530909 
L 85.609449 -201.884628 
L 85.614704 -200.238347 
L 85.62391 -198.592066 
L 85.637837 -196.945785 
L 85.656652 -195.299504 
L 85.680504 -193.653223 
L 85.710549 -192.006942 
L 85.748858 -190.360661 
L 85.796636 -188.71438 
L 85.853192 -187.068099 
L 85.918031 -185.421818 
L 85.994206 -183.775537 
L 86.088705 -182.129256 
L 86.208819 -180.482975 
L 86.358118 -178.836694 
L 86.536302 -177.190413 
L 86.742418 -175.544132 
L 86.976407 -173.897851 
L 87.236962 -172.25157 
L 87.521631 -170.605289 
L 87.832199 -168.959008 
L 88.17571 -167.312727 
L 88.554723 -165.666446 
L 88.959735 -164.020165 
L 89.376885 -162.373884 
L 89.800959 -160.727603 
L 90.237009 -159.081322 
L 90.694951 -157.435041 
L 91.190925 -155.78876 
L 91.750778 -154.142479 
L 92.400942 -152.496198 
L 93.148448 -150.849917 
L 93.968866 -149.203636 
L 94.818884 -147.557355 
L 95.665899 -145.911074 
L 96.499601 -144.264793 
L 97.309016 -142.618512 
L 98.062757 -140.972231 
L 98.730196 -139.32595 
L 99.317637 -137.679669 
L 99.873359 -136.033388 
L 100.462547 -134.387107 
L 101.132366 -132.740826 
L 101.873442 -131.094545 
L 102.606119 -129.448264 
L 103.230864 -127.801983 
L 103.712517 -126.155702 
L 104.104053 -124.509421 
L 104.476468 -122.86314 
L 104.84375 -121.21686 
L 105.171881 -119.570579 
L 105.432845 -117.924298 
L 105.617446 -116.278017 
L 105.71381 -114.631736 
L 105.707279 -112.985455 
L 105.599257 -111.339174 
L 105.412726 -109.692893 
L 105.181077 -108.046612 
L 104.927117 -106.400331 
L 104.64338 -104.75405 
L 104.296586 -103.107769 
L 103.849627 -101.461488 
L 103.274244 -99.815207 
L 102.56799 -98.168926 
L 101.782752 -96.522645 
L 101.008892 -94.876364 
L 100.29724 -93.230083 
L 99.607046 -91.583802 
L 98.847626 -89.937521 
L 97.962149 -88.29124 
L 96.967542 -86.644959 
L 95.932476 -84.998678 
L 94.930652 -83.352397 
L 94.006579 -81.706116 
L 93.169447 -80.059835 
L 92.408892 -78.413554 
L 91.712819 -76.767273 
L 91.07253 -75.120992 
L 90.477568 -73.474711 
L 89.913845 -71.82843 
L 89.370768 -70.182149 
L 88.846371 -68.535868 
L 88.343185 -66.889587 
L 87.866019 -65.243306 
L 87.426954 -63.597025 
L 87.044227 -61.950744 
L 86.73032 -60.304463 
L 86.483448 -58.658182 
L 86.290706 -57.011901 
L 86.136018 -55.36562 
L 86.006419 -53.719339 
L 85.895691 -52.073058 
L 85.803828 -50.426777 
L 85.732441 -48.780496 
L 85.680886 -47.134215 
L 85.646258 -45.487934 
L 85.624995 -43.841653 
L 85.6135 -42.195372 
L 85.608247 -40.549091 
z
" id="m08c45f7198" style="stroke:#484848;stroke-width:1.5;"/>
    </defs>
    <g clip-path="url(#pb96812c69e)">
     <use style="fill:#477ca8;stroke:#484848;stroke-width:1.5;" x="0" xlink:href="#m08c45f7198" y="216"/>
    </g>
   </g>
   <g id="matplotlib.axis_3">
    <g id="xtick_2">
     <g id="line2d_4">
      <g>
       <use style="stroke:#000000;stroke-width:0.8;" x="85.605517" xlink:href="#ma77bf65120" y="183.6"/>
      </g>
     </g>
     <g id="text_2">
      <!-- Modeller -->
      <g transform="translate(64.071142 198.198438)scale(0.1 -0.1)">
       <use xlink:href="#DejaVuSans-77"/>
       <use x="86.279297" xlink:href="#DejaVuSans-111"/>
       <use x="147.460938" xlink:href="#DejaVuSans-100"/>
       <use x="210.9375" xlink:href="#DejaVuSans-101"/>
       <use x="272.460938" xlink:href="#DejaVuSans-108"/>
       <use x="300.244141" xlink:href="#DejaVuSans-108"/>
       <use x="328.027344" xlink:href="#DejaVuSans-101"/>
       <use x="389.550781" xlink:href="#DejaVuSans-114"/>
      </g>
      <!-- (dope_norm) -->
      <defs>
       <path d="M 50.984375 -16.609375 
L 50.984375 -23.578125 
L -0.984375 -23.578125 
L -0.984375 -16.609375 
z
" id="DejaVuSans-95"/>
       <path d="M 54.890625 33.015625 
L 54.890625 0 
L 45.90625 0 
L 45.90625 32.71875 
Q 45.90625 40.484375 42.875 44.328125 
Q 39.84375 48.1875 33.796875 48.1875 
Q 26.515625 48.1875 22.3125 43.546875 
Q 18.109375 38.921875 18.109375 30.90625 
L 18.109375 0 
L 9.078125 0 
L 9.078125 54.6875 
L 18.109375 54.6875 
L 18.109375 46.1875 
Q 21.34375 51.125 25.703125 53.5625 
Q 30.078125 56 35.796875 56 
Q 45.21875 56 50.046875 50.171875 
Q 54.890625 44.34375 54.890625 33.015625 
z
" id="DejaVuSans-110"/>
      </defs>
      <g transform="translate(53.653173 209.39625)scale(0.1 -0.1)">
       <use xlink:href="#DejaVuSans-40"/>
       <use x="39.013672" xlink:href="#DejaVuSans-100"/>
       <use x="102.490234" xlink:href="#DejaVuSans-111"/>
       <use x="163.671875" xlink:href="#DejaVuSans-112"/>
       <use x="227.148438" xlink:href="#DejaVuSans-101"/>
       <use x="288.671875" xlink:href="#DejaVuSans-95"/>
       <use x="338.671875" xlink:href="#DejaVuSans-110"/>
       <use x="402.050781" xlink:href="#DejaVuSans-111"/>
       <use x="463.232422" xlink:href="#DejaVuSans-114"/>
       <use x="502.595703" xlink:href="#DejaVuSans-109"/>
       <use x="600.007812" xlink:href="#DejaVuSans-41"/>
      </g>
     </g>
    </g>
   </g>
   <g id="matplotlib.axis_4"/>
   <g id="LineCollection_2">
    <path clip-path="url(#pb96812c69e)" d="M 63.486395 83.703744 
L 107.724639 83.703744 
" style="fill:none;stroke:#000000;stroke-dasharray:1.5,2.475;stroke-dashoffset:0;stroke-width:1.5;"/>
   </g>
   <g id="line2d_5">
    <path clip-path="url(#pb96812c69e)" d="M 85.605517 166.981448 
L 85.605517 33.325665 
" style="fill:none;stroke:#484848;stroke-linecap:square;stroke-width:1.5;"/>
   </g>
   <g id="line2d_6">
    <path clip-path="url(#pb96812c69e)" d="M 85.605517 117.215362 
L 85.605517 83.657106 
" style="fill:none;stroke:#484848;stroke-linecap:square;stroke-width:4.5;"/>
   </g>
   <g id="patch_6">
    <path d="M 61.274483 183.6 
L 109.936552 183.6 
" style="fill:none;stroke:#000000;stroke-linecap:square;stroke-linejoin:miter;stroke-width:0.8;"/>
   </g>
   <g id="patch_7">
    <path d="M 61.274483 4.32 
L 109.936552 4.32 
" style="fill:none;stroke:#000000;stroke-linecap:square;stroke-linejoin:miter;stroke-width:0.8;"/>
   </g>
   <g id="PathCollection_2">
    <defs>
     <path d="M 0 1.5 
C 0.397805 1.5 0.77937 1.341951 1.06066 1.06066 
C 1.341951 0.77937 1.5 0.397805 1.5 0 
C 1.5 -0.397805 1.341951 -0.77937 1.06066 -1.06066 
C 0.77937 -1.341951 0.397805 -1.5 0 -1.5 
C -0.397805 -1.5 -0.77937 -1.341951 -1.06066 -1.06066 
C -1.341951 -0.77937 -1.5 -0.397805 -1.5 0 
C -1.5 0.397805 -1.341951 0.77937 -1.06066 1.06066 
C -0.77937 1.341951 -0.397805 1.5 0 1.5 
z
" id="m00bb6c208b" style="stroke:#484848;"/>
    </defs>
    <g clip-path="url(#pb96812c69e)">
     <use style="fill:#ffffff;stroke:#484848;" x="85.605517" xlink:href="#m00bb6c208b" y="100.787422"/>
    </g>
   </g>
  </g>
  <g id="axes_3">
   <g id="patch_8">
    <path d="M 119.668966 183.6 
L 168.331034 183.6 
L 168.331034 4.32 
L 119.668966 4.32 
z
" style="fill:#ffffff;"/>
   </g>
   <g id="PolyCollection_3">
    <defs>
     <path d="M 144.000989 -40.549091 
L 143.999011 -40.549091 
L 143.996777 -42.195372 
L 143.993709 -43.841653 
L 143.992389 -45.487934 
L 143.99283 -47.134215 
L 143.989302 -48.780496 
L 143.973309 -50.426777 
L 143.936165 -52.073058 
L 143.874114 -53.719339 
L 143.791269 -55.36562 
L 143.68785 -57.011901 
L 143.561633 -58.658182 
L 143.419928 -60.304463 
L 143.253591 -61.950744 
L 143.015197 -63.597025 
L 142.67915 -65.243306 
L 142.305942 -66.889587 
L 141.956276 -68.535868 
L 141.57601 -70.182149 
L 141.060984 -71.82843 
L 140.383136 -73.474711 
L 139.582954 -75.120992 
L 138.679775 -76.767273 
L 137.650215 -78.413554 
L 136.514402 -80.059835 
L 135.360997 -81.706116 
L 134.247837 -83.352397 
L 133.156992 -84.998678 
L 132.04348 -86.644959 
L 130.820589 -88.29124 
L 129.429252 -89.937521 
L 128.081476 -91.583802 
L 127.069306 -93.230083 
L 126.368956 -94.876364 
L 125.772247 -96.522645 
L 125.153864 -98.168926 
L 124.526678 -99.815207 
L 124.059611 -101.461488 
L 123.891707 -103.107769 
L 123.948589 -104.75405 
L 124.209282 -106.400331 
L 124.746247 -108.046612 
L 125.427818 -109.692893 
L 126.09355 -111.339174 
L 126.789955 -112.985455 
L 127.607561 -114.631736 
L 128.578977 -116.278017 
L 129.704637 -117.924298 
L 130.940729 -119.570579 
L 132.248452 -121.21686 
L 133.607553 -122.86314 
L 134.949523 -124.509421 
L 136.20186 -126.155702 
L 137.316292 -127.801983 
L 138.262827 -129.448264 
L 139.056649 -131.094545 
L 139.745265 -132.740826 
L 140.40917 -134.387107 
L 141.095989 -136.033388 
L 141.737251 -137.679669 
L 142.235921 -139.32595 
L 142.575674 -140.972231 
L 142.80646 -142.618512 
L 142.992531 -144.264793 
L 143.168075 -145.911074 
L 143.336292 -147.557355 
L 143.491242 -149.203636 
L 143.61549 -150.849917 
L 143.702649 -152.496198 
L 143.766194 -154.142479 
L 143.811596 -155.78876 
L 143.837735 -157.435041 
L 143.852476 -159.081322 
L 143.865811 -160.727603 
L 143.873943 -162.373884 
L 143.869542 -164.020165 
L 143.863606 -165.666446 
L 143.874388 -167.312727 
L 143.899932 -168.959008 
L 143.923084 -170.605289 
L 143.935912 -172.25157 
L 143.939012 -173.897851 
L 143.934917 -175.544132 
L 143.932016 -177.190413 
L 143.939254 -178.836694 
L 143.957237 -180.482975 
L 143.97636 -182.129256 
L 143.985507 -183.775537 
L 143.985322 -185.421818 
L 143.98559 -187.068099 
L 143.989678 -188.71438 
L 143.991243 -190.360661 
L 143.985902 -192.006942 
L 143.977844 -193.653223 
L 143.974089 -195.299504 
L 143.976137 -196.945785 
L 143.981753 -198.592066 
L 143.989114 -200.238347 
L 143.995457 -201.884628 
L 143.99877 -203.530909 
L 144.00123 -203.530909 
L 144.00123 -203.530909 
L 144.004543 -201.884628 
L 144.010886 -200.238347 
L 144.018247 -198.592066 
L 144.023863 -196.945785 
L 144.025911 -195.299504 
L 144.022156 -193.653223 
L 144.014098 -192.006942 
L 144.008757 -190.360661 
L 144.010322 -188.71438 
L 144.01441 -187.068099 
L 144.014678 -185.421818 
L 144.014493 -183.775537 
L 144.02364 -182.129256 
L 144.042763 -180.482975 
L 144.060746 -178.836694 
L 144.067984 -177.190413 
L 144.065083 -175.544132 
L 144.060988 -173.897851 
L 144.064088 -172.25157 
L 144.076916 -170.605289 
L 144.100068 -168.959008 
L 144.125612 -167.312727 
L 144.136394 -165.666446 
L 144.130458 -164.020165 
L 144.126057 -162.373884 
L 144.134189 -160.727603 
L 144.147524 -159.081322 
L 144.162265 -157.435041 
L 144.188404 -155.78876 
L 144.233806 -154.142479 
L 144.297351 -152.496198 
L 144.38451 -150.849917 
L 144.508758 -149.203636 
L 144.663708 -147.557355 
L 144.831925 -145.911074 
L 145.007469 -144.264793 
L 145.19354 -142.618512 
L 145.424326 -140.972231 
L 145.764079 -139.32595 
L 146.262749 -137.679669 
L 146.904011 -136.033388 
L 147.59083 -134.387107 
L 148.254735 -132.740826 
L 148.943351 -131.094545 
L 149.737173 -129.448264 
L 150.683708 -127.801983 
L 151.79814 -126.155702 
L 153.050477 -124.509421 
L 154.392447 -122.86314 
L 155.751548 -121.21686 
L 157.059271 -119.570579 
L 158.295363 -117.924298 
L 159.421023 -116.278017 
L 160.392439 -114.631736 
L 161.210045 -112.985455 
L 161.90645 -111.339174 
L 162.572182 -109.692893 
L 163.253753 -108.046612 
L 163.790718 -106.400331 
L 164.051411 -104.75405 
L 164.108293 -103.107769 
L 163.940389 -101.461488 
L 163.473322 -99.815207 
L 162.846136 -98.168926 
L 162.227753 -96.522645 
L 161.631044 -94.876364 
L 160.930694 -93.230083 
L 159.918524 -91.583802 
L 158.570748 -89.937521 
L 157.179411 -88.29124 
L 155.95652 -86.644959 
L 154.843008 -84.998678 
L 153.752163 -83.352397 
L 152.639003 -81.706116 
L 151.485598 -80.059835 
L 150.349785 -78.413554 
L 149.320225 -76.767273 
L 148.417046 -75.120992 
L 147.616864 -73.474711 
L 146.939016 -71.82843 
L 146.42399 -70.182149 
L 146.043724 -68.535868 
L 145.694058 -66.889587 
L 145.32085 -65.243306 
L 144.984803 -63.597025 
L 144.746409 -61.950744 
L 144.580072 -60.304463 
L 144.438367 -58.658182 
L 144.31215 -57.011901 
L 144.208731 -55.36562 
L 144.125886 -53.719339 
L 144.063835 -52.073058 
L 144.026691 -50.426777 
L 144.010698 -48.780496 
L 144.00717 -47.134215 
L 144.007611 -45.487934 
L 144.006291 -43.841653 
L 144.003223 -42.195372 
L 144.000989 -40.549091 
z
" id="md9c1a96073" style="stroke:#4b4b4b;stroke-width:1.5;"/>
    </defs>
    <g clip-path="url(#p80be9e4bf4)">
     <use style="fill:#59a257;stroke:#4b4b4b;stroke-width:1.5;" x="0" xlink:href="#md9c1a96073" y="216"/>
    </g>
   </g>
   <g id="matplotlib.axis_5">
    <g id="xtick_3">
     <g id="line2d_7">
      <g>
       <use style="stroke:#000000;stroke-width:0.8;" x="144" xlink:href="#ma77bf65120" y="183.6"/>
      </g>
     </g>
     <g id="text_3">
      <!-- Modeller -->
      <g transform="translate(122.465625 198.198438)scale(0.1 -0.1)">
       <use xlink:href="#DejaVuSans-77"/>
       <use x="86.279297" xlink:href="#DejaVuSans-111"/>
       <use x="147.460938" xlink:href="#DejaVuSans-100"/>
       <use x="210.9375" xlink:href="#DejaVuSans-101"/>
       <use x="272.460938" xlink:href="#DejaVuSans-108"/>
       <use x="300.244141" xlink:href="#DejaVuSans-108"/>
       <use x="328.027344" xlink:href="#DejaVuSans-101"/>
       <use x="389.550781" xlink:href="#DejaVuSans-114"/>
      </g>
      <!-- (dope_hr) -->
      <defs>
       <path d="M 54.890625 33.015625 
L 54.890625 0 
L 45.90625 0 
L 45.90625 32.71875 
Q 45.90625 40.484375 42.875 44.328125 
Q 39.84375 48.1875 33.796875 48.1875 
Q 26.515625 48.1875 22.3125 43.546875 
Q 18.109375 38.921875 18.109375 30.90625 
L 18.109375 0 
L 9.078125 0 
L 9.078125 75.984375 
L 18.109375 75.984375 
L 18.109375 46.1875 
Q 21.34375 51.125 25.703125 53.5625 
Q 30.078125 56 35.796875 56 
Q 45.21875 56 50.046875 50.171875 
Q 54.890625 44.34375 54.890625 33.015625 
z
" id="DejaVuSans-104"/>
      </defs>
      <g transform="translate(119.889844 209.39625)scale(0.1 -0.1)">
       <use xlink:href="#DejaVuSans-40"/>
       <use x="39.013672" xlink:href="#DejaVuSans-100"/>
       <use x="102.490234" xlink:href="#DejaVuSans-111"/>
       <use x="163.671875" xlink:href="#DejaVuSans-112"/>
       <use x="227.148438" xlink:href="#DejaVuSans-101"/>
       <use x="288.671875" xlink:href="#DejaVuSans-95"/>
       <use x="338.671875" xlink:href="#DejaVuSans-104"/>
       <use x="402.050781" xlink:href="#DejaVuSans-114"/>
       <use x="443.164062" xlink:href="#DejaVuSans-41"/>
      </g>
     </g>
    </g>
   </g>
   <g id="matplotlib.axis_6"/>
   <g id="LineCollection_3">
    <path clip-path="url(#p80be9e4bf4)" d="M 121.880878 106.843034 
L 166.119122 106.843034 
" style="fill:none;stroke:#000000;stroke-dasharray:1.5,2.475;stroke-dashoffset:0;stroke-width:1.5;"/>
   </g>
   <g id="line2d_8">
    <path clip-path="url(#p80be9e4bf4)" d="M 144 156.808925 
L 144 67.687244 
" style="fill:none;stroke:#4b4b4b;stroke-linecap:square;stroke-width:1.5;"/>
   </g>
   <g id="line2d_9">
    <path clip-path="url(#p80be9e4bf4)" d="M 144 123.421969 
L 144 101.127651 
" style="fill:none;stroke:#4b4b4b;stroke-linecap:square;stroke-width:4.5;"/>
   </g>
   <g id="patch_9">
    <path d="M 119.668966 183.6 
L 168.331034 183.6 
" style="fill:none;stroke:#000000;stroke-linecap:square;stroke-linejoin:miter;stroke-width:0.8;"/>
   </g>
   <g id="patch_10">
    <path d="M 119.668966 4.32 
L 168.331034 4.32 
" style="fill:none;stroke:#000000;stroke-linecap:square;stroke-linejoin:miter;stroke-width:0.8;"/>
   </g>
   <g id="PathCollection_3">
    <defs>
     <path d="M 0 1.5 
C 0.397805 1.5 0.77937 1.341951 1.06066 1.06066 
C 1.341951 0.77937 1.5 0.397805 1.5 0 
C 1.5 -0.397805 1.341951 -0.77937 1.06066 -1.06066 
C 0.77937 -1.341951 0.397805 -1.5 0 -1.5 
C -0.397805 -1.5 -0.77937 -1.341951 -1.06066 -1.06066 
C -1.341951 -0.77937 -1.5 -0.397805 -1.5 0 
C -1.5 0.397805 -1.341951 0.77937 -1.06066 1.06066 
C -0.77937 1.341951 -0.397805 1.5 0 1.5 
z
" id="mc18d9f0198" style="stroke:#4b4b4b;"/>
    </defs>
    <g clip-path="url(#p80be9e4bf4)">
     <use style="fill:#ffffff;stroke:#4b4b4b;" x="144" xlink:href="#mc18d9f0198" y="112.331168"/>
    </g>
   </g>
  </g>
  <g id="axes_4">
   <g id="patch_11">
    <path d="M 178.063448 183.6 
L 226.725517 183.6 
L 226.725517 4.32 
L 178.063448 4.32 
z
" style="fill:#ffffff;"/>
   </g>
   <g id="PolyCollection_4">
    <defs>
     <path d="M 202.396891 -40.549091 
L 202.392075 -40.549091 
L 202.386821 -42.195372 
L 202.375764 -43.841653 
L 202.357532 -45.487934 
L 202.332228 -47.134215 
L 202.300106 -48.780496 
L 202.258074 -50.426777 
L 202.197821 -52.073058 
L 202.114791 -53.719339 
L 202.018315 -55.36562 
L 201.921185 -57.011901 
L 201.823841 -58.658182 
L 201.715612 -60.304463 
L 201.579359 -61.950744 
L 201.399221 -63.597025 
L 201.177539 -65.243306 
L 200.928491 -66.889587 
L 200.648147 -68.535868 
L 200.312381 -70.182149 
L 199.906928 -71.82843 
L 199.441962 -73.474711 
L 198.935863 -75.120992 
L 198.402863 -76.767273 
L 197.856344 -78.413554 
L 197.298142 -80.059835 
L 196.700665 -81.706116 
L 196.024273 -83.352397 
L 195.257675 -84.998678 
L 194.422627 -86.644959 
L 193.561088 -88.29124 
L 192.733708 -89.937521 
L 191.968493 -91.583802 
L 191.207935 -93.230083 
L 190.374136 -94.876364 
L 189.462461 -96.522645 
L 188.529733 -98.168926 
L 187.629318 -99.815207 
L 186.776346 -101.461488 
L 185.958544 -103.107769 
L 185.172126 -104.75405 
L 184.423685 -106.400331 
L 183.704813 -108.046612 
L 183.032491 -109.692893 
L 182.51426 -111.339174 
L 182.28619 -112.985455 
L 182.378776 -114.631736 
L 182.684643 -116.278017 
L 183.041356 -117.924298 
L 183.347774 -119.570579 
L 183.626367 -121.21686 
L 183.971968 -122.86314 
L 184.45086 -124.509421 
L 185.079025 -126.155702 
L 185.871154 -127.801983 
L 186.833876 -129.448264 
L 187.90744 -131.094545 
L 188.981095 -132.740826 
L 189.983679 -134.387107 
L 190.930195 -136.033388 
L 191.875565 -137.679669 
L 192.85372 -139.32595 
L 193.86953 -140.972231 
L 194.906883 -142.618512 
L 195.919816 -144.264793 
L 196.836495 -145.911074 
L 197.602463 -147.557355 
L 198.225046 -149.203636 
L 198.758204 -150.849917 
L 199.254806 -152.496198 
L 199.74379 -154.142479 
L 200.224929 -155.78876 
L 200.669304 -157.435041 
L 201.037727 -159.081322 
L 201.313397 -160.727603 
L 201.518238 -162.373884 
L 201.688964 -164.020165 
L 201.844073 -165.666446 
L 201.981656 -167.312727 
L 202.093244 -168.959008 
L 202.172131 -170.605289 
L 202.220691 -172.25157 
L 202.252435 -173.897851 
L 202.280444 -175.544132 
L 202.306981 -177.190413 
L 202.328644 -178.836694 
L 202.34548 -180.482975 
L 202.360388 -182.129256 
L 202.373985 -183.775537 
L 202.384161 -185.421818 
L 202.389228 -187.068099 
L 202.389687 -188.71438 
L 202.387872 -190.360661 
L 202.386493 -192.006942 
L 202.386482 -193.653223 
L 202.386649 -195.299504 
L 202.386383 -196.945785 
L 202.386945 -198.592066 
L 202.389105 -200.238347 
L 202.391731 -201.884628 
L 202.393493 -203.530909 
L 202.395473 -203.530909 
L 202.395473 -203.530909 
L 202.397235 -201.884628 
L 202.399861 -200.238347 
L 202.402021 -198.592066 
L 202.402583 -196.945785 
L 202.402317 -195.299504 
L 202.402484 -193.653223 
L 202.402473 -192.006942 
L 202.401094 -190.360661 
L 202.399278 -188.71438 
L 202.399737 -187.068099 
L 202.404804 -185.421818 
L 202.414981 -183.775537 
L 202.428577 -182.129256 
L 202.443485 -180.482975 
L 202.460322 -178.836694 
L 202.481985 -177.190413 
L 202.508521 -175.544132 
L 202.53653 -173.897851 
L 202.568275 -172.25157 
L 202.616834 -170.605289 
L 202.695722 -168.959008 
L 202.807309 -167.312727 
L 202.944892 -165.666446 
L 203.100002 -164.020165 
L 203.270728 -162.373884 
L 203.475569 -160.727603 
L 203.751238 -159.081322 
L 204.119662 -157.435041 
L 204.564037 -155.78876 
L 205.045176 -154.142479 
L 205.53416 -152.496198 
L 206.030761 -150.849917 
L 206.56392 -149.203636 
L 207.186503 -147.557355 
L 207.95247 -145.911074 
L 208.86915 -144.264793 
L 209.882082 -142.618512 
L 210.919436 -140.972231 
L 211.935246 -139.32595 
L 212.913401 -137.679669 
L 213.85877 -136.033388 
L 214.805287 -134.387107 
L 215.807871 -132.740826 
L 216.881525 -131.094545 
L 217.95509 -129.448264 
L 218.917812 -127.801983 
L 219.709941 -126.155702 
L 220.338106 -124.509421 
L 220.816997 -122.86314 
L 221.162598 -121.21686 
L 221.441191 -119.570579 
L 221.747609 -117.924298 
L 222.104322 -116.278017 
L 222.410189 -114.631736 
L 222.502776 -112.985455 
L 222.274705 -111.339174 
L 221.756474 -109.692893 
L 221.084153 -108.046612 
L 220.365281 -106.400331 
L 219.61684 -104.75405 
L 218.830421 -103.107769 
L 218.012619 -101.461488 
L 217.159647 -99.815207 
L 216.259233 -98.168926 
L 215.326504 -96.522645 
L 214.414829 -94.876364 
L 213.581031 -93.230083 
L 212.820472 -91.583802 
L 212.055258 -89.937521 
L 211.227877 -88.29124 
L 210.366338 -86.644959 
L 209.53129 -84.998678 
L 208.764692 -83.352397 
L 208.0883 -81.706116 
L 207.490824 -80.059835 
L 206.932622 -78.413554 
L 206.386102 -76.767273 
L 205.853102 -75.120992 
L 205.347004 -73.474711 
L 204.882037 -71.82843 
L 204.476584 -70.182149 
L 204.140819 -68.535868 
L 203.860475 -66.889587 
L 203.611426 -65.243306 
L 203.389745 -63.597025 
L 203.209606 -61.950744 
L 203.073354 -60.304463 
L 202.965125 -58.658182 
L 202.86778 -57.011901 
L 202.770651 -55.36562 
L 202.674174 -53.719339 
L 202.591145 -52.073058 
L 202.530892 -50.426777 
L 202.488859 -48.780496 
L 202.456737 -47.134215 
L 202.431434 -45.487934 
L 202.413201 -43.841653 
L 202.402144 -42.195372 
L 202.396891 -40.549091 
z
" id="m1602a63575" style="stroke:#484848;stroke-width:1.5;"/>
    </defs>
    <g clip-path="url(#p7fabded164)">
     <use style="fill:#905998;stroke:#484848;stroke-width:1.5;" x="0" xlink:href="#m1602a63575" y="216"/>
    </g>
   </g>
   <g id="matplotlib.axis_7">
    <g id="xtick_4">
     <g id="line2d_10">
      <g>
       <use style="stroke:#000000;stroke-width:0.8;" x="202.394483" xlink:href="#ma77bf65120" y="183.6"/>
      </g>
     </g>
     <g id="text_4">
      <!-- Modeller -->
      <g transform="translate(180.860108 198.198438)scale(0.1 -0.1)">
       <use xlink:href="#DejaVuSans-77"/>
       <use x="86.279297" xlink:href="#DejaVuSans-111"/>
       <use x="147.460938" xlink:href="#DejaVuSans-100"/>
       <use x="210.9375" xlink:href="#DejaVuSans-101"/>
       <use x="272.460938" xlink:href="#DejaVuSans-108"/>
       <use x="300.244141" xlink:href="#DejaVuSans-108"/>
       <use x="328.027344" xlink:href="#DejaVuSans-101"/>
       <use x="389.550781" xlink:href="#DejaVuSans-114"/>
      </g>
      <!-- (ga341) -->
      <defs>
       <path d="M 45.40625 27.984375 
Q 45.40625 37.75 41.375 43.109375 
Q 37.359375 48.484375 30.078125 48.484375 
Q 22.859375 48.484375 18.828125 43.109375 
Q 14.796875 37.75 14.796875 27.984375 
Q 14.796875 18.265625 18.828125 12.890625 
Q 22.859375 7.515625 30.078125 7.515625 
Q 37.359375 7.515625 41.375 12.890625 
Q 45.40625 18.265625 45.40625 27.984375 
z
M 54.390625 6.78125 
Q 54.390625 -7.171875 48.1875 -13.984375 
Q 42 -20.796875 29.203125 -20.796875 
Q 24.46875 -20.796875 20.265625 -20.09375 
Q 16.0625 -19.390625 12.109375 -17.921875 
L 12.109375 -9.1875 
Q 16.0625 -11.328125 19.921875 -12.34375 
Q 23.78125 -13.375 27.78125 -13.375 
Q 36.625 -13.375 41.015625 -8.765625 
Q 45.40625 -4.15625 45.40625 5.171875 
L 45.40625 9.625 
Q 42.625 4.78125 38.28125 2.390625 
Q 33.9375 0 27.875 0 
Q 17.828125 0 11.671875 7.65625 
Q 5.515625 15.328125 5.515625 27.984375 
Q 5.515625 40.671875 11.671875 48.328125 
Q 17.828125 56 27.875 56 
Q 33.9375 56 38.28125 53.609375 
Q 42.625 51.21875 45.40625 46.390625 
L 45.40625 54.6875 
L 54.390625 54.6875 
z
" id="DejaVuSans-103"/>
       <path d="M 34.28125 27.484375 
Q 23.390625 27.484375 19.1875 25 
Q 14.984375 22.515625 14.984375 16.5 
Q 14.984375 11.71875 18.140625 8.90625 
Q 21.296875 6.109375 26.703125 6.109375 
Q 34.1875 6.109375 38.703125 11.40625 
Q 43.21875 16.703125 43.21875 25.484375 
L 43.21875 27.484375 
z
M 52.203125 31.203125 
L 52.203125 0 
L 43.21875 0 
L 43.21875 8.296875 
Q 40.140625 3.328125 35.546875 0.953125 
Q 30.953125 -1.421875 24.3125 -1.421875 
Q 15.921875 -1.421875 10.953125 3.296875 
Q 6 8.015625 6 15.921875 
Q 6 25.140625 12.171875 29.828125 
Q 18.359375 34.515625 30.609375 34.515625 
L 43.21875 34.515625 
L 43.21875 35.40625 
Q 43.21875 41.609375 39.140625 45 
Q 35.0625 48.390625 27.6875 48.390625 
Q 23 48.390625 18.546875 47.265625 
Q 14.109375 46.140625 10.015625 43.890625 
L 10.015625 52.203125 
Q 14.9375 54.109375 19.578125 55.046875 
Q 24.21875 56 28.609375 56 
Q 40.484375 56 46.34375 49.84375 
Q 52.203125 43.703125 52.203125 31.203125 
z
" id="DejaVuSans-97"/>
       <path d="M 40.578125 39.3125 
Q 47.65625 37.796875 51.625 33 
Q 55.609375 28.21875 55.609375 21.1875 
Q 55.609375 10.40625 48.1875 4.484375 
Q 40.765625 -1.421875 27.09375 -1.421875 
Q 22.515625 -1.421875 17.65625 -0.515625 
Q 12.796875 0.390625 7.625 2.203125 
L 7.625 11.71875 
Q 11.71875 9.328125 16.59375 8.109375 
Q 21.484375 6.890625 26.8125 6.890625 
Q 36.078125 6.890625 40.9375 10.546875 
Q 45.796875 14.203125 45.796875 21.1875 
Q 45.796875 27.640625 41.28125 31.265625 
Q 36.765625 34.90625 28.71875 34.90625 
L 20.21875 34.90625 
L 20.21875 43.015625 
L 29.109375 43.015625 
Q 36.375 43.015625 40.234375 45.921875 
Q 44.09375 48.828125 44.09375 54.296875 
Q 44.09375 59.90625 40.109375 62.90625 
Q 36.140625 65.921875 28.71875 65.921875 
Q 24.65625 65.921875 20.015625 65.03125 
Q 15.375 64.15625 9.8125 62.3125 
L 9.8125 71.09375 
Q 15.4375 72.65625 20.34375 73.4375 
Q 25.25 74.21875 29.59375 74.21875 
Q 40.828125 74.21875 47.359375 69.109375 
Q 53.90625 64.015625 53.90625 55.328125 
Q 53.90625 49.265625 50.4375 45.09375 
Q 46.96875 40.921875 40.578125 39.3125 
z
" id="DejaVuSans-51"/>
       <path d="M 37.796875 64.3125 
L 12.890625 25.390625 
L 37.796875 25.390625 
z
M 35.203125 72.90625 
L 47.609375 72.90625 
L 47.609375 25.390625 
L 58.015625 25.390625 
L 58.015625 17.1875 
L 47.609375 17.1875 
L 47.609375 0 
L 37.796875 0 
L 37.796875 17.1875 
L 4.890625 17.1875 
L 4.890625 26.703125 
z
" id="DejaVuSans-52"/>
       <path d="M 12.40625 8.296875 
L 28.515625 8.296875 
L 28.515625 63.921875 
L 10.984375 60.40625 
L 10.984375 69.390625 
L 28.421875 72.90625 
L 38.28125 72.90625 
L 38.28125 8.296875 
L 54.390625 8.296875 
L 54.390625 0 
L 12.40625 0 
z
" id="DejaVuSans-49"/>
      </defs>
      <g transform="translate(182.710889 209.39625)scale(0.1 -0.1)">
       <use xlink:href="#DejaVuSans-40"/>
       <use x="39.013672" xlink:href="#DejaVuSans-103"/>
       <use x="102.490234" xlink:href="#DejaVuSans-97"/>
       <use x="163.769531" xlink:href="#DejaVuSans-51"/>
       <use x="227.392578" xlink:href="#DejaVuSans-52"/>
       <use x="291.015625" xlink:href="#DejaVuSans-49"/>
       <use x="354.638672" xlink:href="#DejaVuSans-41"/>
      </g>
     </g>
    </g>
   </g>
   <g id="matplotlib.axis_8"/>
   <g id="LineCollection_4">
    <path clip-path="url(#p7fabded164)" d="M 180.275361 127.769277 
L 224.513605 127.769277 
" style="fill:none;stroke:#000000;stroke-dasharray:1.5,2.475;stroke-dashoffset:0;stroke-width:1.5;"/>
   </g>
   <g id="line2d_11">
    <path clip-path="url(#p7fabded164)" d="M 202.394483 156.182819 
L 202.394483 48.054628 
" style="fill:none;stroke:#484848;stroke-linecap:square;stroke-width:1.5;"/>
   </g>
   <g id="line2d_12">
    <path clip-path="url(#p7fabded164)" d="M 202.394483 115.494697 
L 202.394483 88.347318 
" style="fill:none;stroke:#484848;stroke-linecap:square;stroke-width:4.5;"/>
   </g>
   <g id="patch_12">
    <path d="M 178.063448 183.6 
L 226.725517 183.6 
" style="fill:none;stroke:#000000;stroke-linecap:square;stroke-linejoin:miter;stroke-width:0.8;"/>
   </g>
   <g id="patch_13">
    <path d="M 178.063448 4.32 
L 226.725517 4.32 
" style="fill:none;stroke:#000000;stroke-linecap:square;stroke-linejoin:miter;stroke-width:0.8;"/>
   </g>
   <g id="PathCollection_4">
    <g clip-path="url(#p7fabded164)">
     <use style="fill:#ffffff;stroke:#484848;" x="202.394483" xlink:href="#m00bb6c208b" y="101.769071"/>
    </g>
   </g>
  </g>
  <g id="axes_5">
   <g id="patch_14">
    <path d="M 236.457931 183.6 
L 285.12 183.6 
L 285.12 4.32 
L 236.457931 4.32 
z
" style="fill:#ffffff;"/>
   </g>
   <g id="PolyCollection_5">
    <defs>
     <path d="M 260.789873 -40.549091 
L 260.788058 -40.549091 
L 260.784737 -42.195372 
L 260.778916 -43.841653 
L 260.769496 -45.487934 
L 260.750375 -47.134215 
L 260.719988 -48.780496 
L 260.679266 -50.426777 
L 260.616537 -52.073058 
L 260.504369 -53.719339 
L 260.367789 -55.36562 
L 260.229672 -57.011901 
L 259.945456 -58.658182 
L 259.469444 -60.304463 
L 258.933838 -61.950744 
L 258.304381 -63.597025 
L 257.474017 -65.243306 
L 256.442797 -66.889587 
L 255.182709 -68.535868 
L 253.671651 -70.182149 
L 251.946326 -71.82843 
L 250.057495 -73.474711 
L 248.069804 -75.120992 
L 246.169021 -76.767273 
L 244.593841 -78.413554 
L 243.337053 -80.059835 
L 242.256574 -81.706116 
L 241.367326 -83.352397 
L 240.774396 -84.998678 
L 240.680673 -86.644959 
L 241.042051 -88.29124 
L 241.884295 -89.937521 
L 243.217907 -91.583802 
L 244.794391 -93.230083 
L 246.337747 -94.876364 
L 247.797097 -96.522645 
L 249.56381 -98.168926 
L 251.453861 -99.815207 
L 253.070537 -101.461488 
L 254.574141 -103.107769 
L 255.992626 -104.75405 
L 257.199353 -106.400331 
L 258.054151 -108.046612 
L 258.642371 -109.692893 
L 259.128631 -111.339174 
L 259.508701 -112.985455 
L 259.845382 -114.631736 
L 260.124994 -116.278017 
L 260.311176 -117.924298 
L 260.459536 -119.570579 
L 260.585106 -121.21686 
L 260.670661 -122.86314 
L 260.722513 -124.509421 
L 260.756906 -126.155702 
L 260.765995 -127.801983 
L 260.764595 -129.448264 
L 260.77277 -131.094545 
L 260.779609 -132.740826 
L 260.778143 -134.387107 
L 260.777467 -136.033388 
L 260.779442 -137.679669 
L 260.780184 -139.32595 
L 260.78063 -140.972231 
L 260.780584 -142.618512 
L 260.780682 -144.264793 
L 260.77868 -145.911074 
L 260.776658 -147.557355 
L 260.776341 -149.203636 
L 260.773587 -150.849917 
L 260.768536 -152.496198 
L 260.756174 -154.142479 
L 260.73886 -155.78876 
L 260.736485 -157.435041 
L 260.747213 -159.081322 
L 260.75195 -160.727603 
L 260.736944 -162.373884 
L 260.718701 -164.020165 
L 260.711038 -165.666446 
L 260.706082 -167.312727 
L 260.69938 -168.959008 
L 260.700111 -170.605289 
L 260.715461 -172.25157 
L 260.733694 -173.897851 
L 260.743276 -175.544132 
L 260.741058 -177.190413 
L 260.737551 -178.836694 
L 260.741172 -180.482975 
L 260.753828 -182.129256 
L 260.759736 -183.775537 
L 260.757029 -185.421818 
L 260.752976 -187.068099 
L 260.748117 -188.71438 
L 260.746746 -190.360661 
L 260.75061 -192.006942 
L 260.758168 -193.653223 
L 260.76994 -195.299504 
L 260.777277 -196.945785 
L 260.776419 -198.592066 
L 260.776144 -200.238347 
L 260.782693 -201.884628 
L 260.787691 -203.530909 
L 260.79024 -203.530909 
L 260.79024 -203.530909 
L 260.795238 -201.884628 
L 260.801787 -200.238347 
L 260.801512 -198.592066 
L 260.800654 -196.945785 
L 260.807991 -195.299504 
L 260.819763 -193.653223 
L 260.827321 -192.006942 
L 260.831185 -190.360661 
L 260.829814 -188.71438 
L 260.824955 -187.068099 
L 260.820902 -185.421818 
L 260.818195 -183.775537 
L 260.824103 -182.129256 
L 260.836759 -180.482975 
L 260.84038 -178.836694 
L 260.836873 -177.190413 
L 260.834655 -175.544132 
L 260.844237 -173.897851 
L 260.86247 -172.25157 
L 260.87782 -170.605289 
L 260.878551 -168.959008 
L 260.871849 -167.312727 
L 260.866893 -165.666446 
L 260.85923 -164.020165 
L 260.840987 -162.373884 
L 260.825981 -160.727603 
L 260.830718 -159.081322 
L 260.841446 -157.435041 
L 260.839071 -155.78876 
L 260.821757 -154.142479 
L 260.809395 -152.496198 
L 260.804344 -150.849917 
L 260.80159 -149.203636 
L 260.801273 -147.557355 
L 260.799251 -145.911074 
L 260.797249 -144.264793 
L 260.797347 -142.618512 
L 260.797301 -140.972231 
L 260.797747 -139.32595 
L 260.798489 -137.679669 
L 260.800464 -136.033388 
L 260.799788 -134.387107 
L 260.798322 -132.740826 
L 260.805161 -131.094545 
L 260.813336 -129.448264 
L 260.811936 -127.801983 
L 260.821025 -126.155702 
L 260.855418 -124.509421 
L 260.90727 -122.86314 
L 260.992825 -121.21686 
L 261.118395 -119.570579 
L 261.266755 -117.924298 
L 261.452937 -116.278017 
L 261.732549 -114.631736 
L 262.06923 -112.985455 
L 262.4493 -111.339174 
L 262.93556 -109.692893 
L 263.52378 -108.046612 
L 264.378578 -106.400331 
L 265.585305 -104.75405 
L 267.00379 -103.107769 
L 268.507394 -101.461488 
L 270.12407 -99.815207 
L 272.014121 -98.168926 
L 273.780834 -96.522645 
L 275.240184 -94.876364 
L 276.78354 -93.230083 
L 278.360024 -91.583802 
L 279.693636 -89.937521 
L 280.53588 -88.29124 
L 280.897258 -86.644959 
L 280.803535 -84.998678 
L 280.210605 -83.352397 
L 279.321357 -81.706116 
L 278.240878 -80.059835 
L 276.98409 -78.413554 
L 275.40891 -76.767273 
L 273.508127 -75.120992 
L 271.520436 -73.474711 
L 269.631605 -71.82843 
L 267.90628 -70.182149 
L 266.395222 -68.535868 
L 265.135134 -66.889587 
L 264.103914 -65.243306 
L 263.27355 -63.597025 
L 262.644093 -61.950744 
L 262.108487 -60.304463 
L 261.632475 -58.658182 
L 261.34826 -57.011901 
L 261.210142 -55.36562 
L 261.073562 -53.719339 
L 260.961394 -52.073058 
L 260.898665 -50.426777 
L 260.857943 -48.780496 
L 260.827556 -47.134215 
L 260.808435 -45.487934 
L 260.799015 -43.841653 
L 260.793194 -42.195372 
L 260.789873 -40.549091 
z
" id="mcbe599aa05" style="stroke:#4c4c4c;stroke-width:1.5;"/>
    </defs>
    <g clip-path="url(#p926879e44f)">
     <use style="fill:#df7f20;stroke:#4c4c4c;stroke-width:1.5;" x="0" xlink:href="#mcbe599aa05" y="216"/>
    </g>
   </g>
   <g id="matplotlib.axis_9">
    <g id="xtick_5">
     <g id="line2d_13">
      <g>
       <use style="stroke:#000000;stroke-width:0.8;" x="260.788966" xlink:href="#ma77bf65120" y="183.6"/>
      </g>
     </g>
     <g id="text_5">
      <!-- Rosetta -->
      <defs>
       <path d="M 44.390625 34.1875 
Q 47.5625 33.109375 50.5625 29.59375 
Q 53.5625 26.078125 56.59375 19.921875 
L 66.609375 0 
L 56 0 
L 46.6875 18.703125 
Q 43.0625 26.03125 39.671875 28.421875 
Q 36.28125 30.8125 30.421875 30.8125 
L 19.671875 30.8125 
L 19.671875 0 
L 9.8125 0 
L 9.8125 72.90625 
L 32.078125 72.90625 
Q 44.578125 72.90625 50.734375 67.671875 
Q 56.890625 62.453125 56.890625 51.90625 
Q 56.890625 45.015625 53.6875 40.46875 
Q 50.484375 35.9375 44.390625 34.1875 
z
M 19.671875 64.796875 
L 19.671875 38.921875 
L 32.078125 38.921875 
Q 39.203125 38.921875 42.84375 42.21875 
Q 46.484375 45.515625 46.484375 51.90625 
Q 46.484375 58.296875 42.84375 61.546875 
Q 39.203125 64.796875 32.078125 64.796875 
z
" id="DejaVuSans-82"/>
       <path d="M 44.28125 53.078125 
L 44.28125 44.578125 
Q 40.484375 46.53125 36.375 47.5 
Q 32.28125 48.484375 27.875 48.484375 
Q 21.1875 48.484375 17.84375 46.4375 
Q 14.5 44.390625 14.5 40.28125 
Q 14.5 37.15625 16.890625 35.375 
Q 19.28125 33.59375 26.515625 31.984375 
L 29.59375 31.296875 
Q 39.15625 29.25 43.1875 25.515625 
Q 47.21875 21.78125 47.21875 15.09375 
Q 47.21875 7.46875 41.1875 3.015625 
Q 35.15625 -1.421875 24.609375 -1.421875 
Q 20.21875 -1.421875 15.453125 -0.5625 
Q 10.6875 0.296875 5.421875 2 
L 5.421875 11.28125 
Q 10.40625 8.6875 15.234375 7.390625 
Q 20.0625 6.109375 24.8125 6.109375 
Q 31.15625 6.109375 34.5625 8.28125 
Q 37.984375 10.453125 37.984375 14.40625 
Q 37.984375 18.0625 35.515625 20.015625 
Q 33.0625 21.96875 24.703125 23.78125 
L 21.578125 24.515625 
Q 13.234375 26.265625 9.515625 29.90625 
Q 5.8125 33.546875 5.8125 39.890625 
Q 5.8125 47.609375 11.28125 51.796875 
Q 16.75 56 26.8125 56 
Q 31.78125 56 36.171875 55.265625 
Q 40.578125 54.546875 44.28125 53.078125 
z
" id="DejaVuSans-115"/>
       <path d="M 18.3125 70.21875 
L 18.3125 54.6875 
L 36.8125 54.6875 
L 36.8125 47.703125 
L 18.3125 47.703125 
L 18.3125 18.015625 
Q 18.3125 11.328125 20.140625 9.421875 
Q 21.96875 7.515625 27.59375 7.515625 
L 36.8125 7.515625 
L 36.8125 0 
L 27.59375 0 
Q 17.1875 0 13.234375 3.875 
Q 9.28125 7.765625 9.28125 18.015625 
L 9.28125 47.703125 
L 2.6875 47.703125 
L 2.6875 54.6875 
L 9.28125 54.6875 
L 9.28125 70.21875 
z
" id="DejaVuSans-116"/>
      </defs>
      <g transform="translate(241.814747 198.198438)scale(0.1 -0.1)">
       <use xlink:href="#DejaVuSans-82"/>
       <use x="64.982422" xlink:href="#DejaVuSans-111"/>
       <use x="126.164062" xlink:href="#DejaVuSans-115"/>
       <use x="178.263672" xlink:href="#DejaVuSans-101"/>
       <use x="239.787109" xlink:href="#DejaVuSans-116"/>
       <use x="278.996094" xlink:href="#DejaVuSans-116"/>
       <use x="318.205078" xlink:href="#DejaVuSans-97"/>
      </g>
      <!-- (score) -->
      <defs>
       <path d="M 48.78125 52.59375 
L 48.78125 44.1875 
Q 44.96875 46.296875 41.140625 47.34375 
Q 37.3125 48.390625 33.40625 48.390625 
Q 24.65625 48.390625 19.8125 42.84375 
Q 14.984375 37.3125 14.984375 27.296875 
Q 14.984375 17.28125 19.8125 11.734375 
Q 24.65625 6.203125 33.40625 6.203125 
Q 37.3125 6.203125 41.140625 7.25 
Q 44.96875 8.296875 48.78125 10.40625 
L 48.78125 2.09375 
Q 45.015625 0.34375 40.984375 -0.53125 
Q 36.96875 -1.421875 32.421875 -1.421875 
Q 20.0625 -1.421875 12.78125 6.34375 
Q 5.515625 14.109375 5.515625 27.296875 
Q 5.515625 40.671875 12.859375 48.328125 
Q 20.21875 56 33.015625 56 
Q 37.15625 56 41.109375 55.140625 
Q 45.0625 54.296875 48.78125 52.59375 
z
" id="DejaVuSans-99"/>
      </defs>
      <g transform="translate(243.454591 209.39625)scale(0.1 -0.1)">
       <use xlink:href="#DejaVuSans-40"/>
       <use x="39.013672" xlink:href="#DejaVuSans-115"/>
       <use x="91.113281" xlink:href="#DejaVuSans-99"/>
       <use x="146.09375" xlink:href="#DejaVuSans-111"/>
       <use x="207.275391" xlink:href="#DejaVuSans-114"/>
       <use x="246.138672" xlink:href="#DejaVuSans-101"/>
       <use x="307.662109" xlink:href="#DejaVuSans-41"/>
      </g>
     </g>
    </g>
   </g>
   <g id="matplotlib.axis_10"/>
   <g id="LineCollection_5">
    <path clip-path="url(#p926879e44f)" d="M 238.669843 118.807305 
L 282.908088 118.807305 
" style="fill:none;stroke:#000000;stroke-dasharray:1.5,2.475;stroke-dashoffset:0;stroke-width:1.5;"/>
   </g>
   <g id="line2d_14">
    <path clip-path="url(#p926879e44f)" d="M 260.788966 159.720603 
L 260.788966 100.037461 
" style="fill:none;stroke:#4c4c4c;stroke-linecap:square;stroke-width:1.5;"/>
   </g>
   <g id="line2d_15">
    <path clip-path="url(#p926879e44f)" d="M 260.788966 137.318064 
L 260.788966 122.382119 
" style="fill:none;stroke:#4c4c4c;stroke-linecap:square;stroke-width:4.5;"/>
   </g>
   <g id="patch_15">
    <path d="M 236.457931 183.6 
L 285.12 183.6 
" style="fill:none;stroke:#000000;stroke-linecap:square;stroke-linejoin:miter;stroke-width:0.8;"/>
   </g>
   <g id="patch_16">
    <path d="M 236.457931 4.32 
L 285.12 4.32 
" style="fill:none;stroke:#000000;stroke-linecap:square;stroke-linejoin:miter;stroke-width:0.8;"/>
   </g>
   <g id="PathCollection_5">
    <g clip-path="url(#p926879e44f)">
     <use style="fill:#ffffff;stroke:#4c4c4c;" x="260.788966" xlink:href="#md70cc34a7e" y="129.865251"/>
    </g>
   </g>
  </g>
 </g>
 <defs>
  <clipPath id="p19e502b36f">
   <rect height="179.28" width="48.662069" x="2.88" y="4.32"/>
  </clipPath>
  <clipPath id="pb96812c69e">
   <rect height="179.28" width="48.662069" x="61.274483" y="4.32"/>
  </clipPath>
  <clipPath id="p80be9e4bf4">
   <rect height="179.28" width="48.662069" x="119.668966" y="4.32"/>
  </clipPath>
  <clipPath id="p7fabded164">
   <rect height="179.28" width="48.662069" x="178.063448" y="4.32"/>
  </clipPath>
  <clipPath id="p926879e44f">
   <rect height="179.28" width="48.662069" x="236.457931" y="4.32"/>
  </clipPath>
 </defs>
</svg>
