<?xml version="1.0" encoding="utf-8" standalone="no"?>
<!DOCTYPE svg PUBLIC "-//W3C//DTD SVG 1.1//EN"
  "http://www.w3.org/Graphics/SVG/1.1/DTD/svg11.dtd">
<!-- Created with matplotlib (https://matplotlib.org/) -->
<svg height="216pt" version="1.1" viewBox="0 0 288 216" width="288pt" xmlns="http://www.w3.org/2000/svg" xmlns:xlink="http://www.w3.org/1999/xlink">
 <defs>
  <style type="text/css">
*{stroke-linecap:butt;stroke-linejoin:round;}
  </style>
 </defs>
 <g id="figure_1">
  <g id="patch_1">
   <path d="M 0 216 
L 288 216 
L 288 0 
L 0 0 
z
" style="fill:#ffffff;"/>
  </g>
  <g id="axes_1">
   <g id="patch_2">
    <path d="M 2.88 183.6 
L 51.542069 183.6 
L 51.542069 4.32 
L 2.88 4.32 
z
" style="fill:#ffffff;"/>
   </g>
   <g id="PolyCollection_1">
    <defs>
     <path d="M 27.218268 -40.549091 
L 27.203801 -40.549091 
L 26.839732 -42.195372 
L 23.464043 -43.841653 
L 15.179598 -45.487934 
L 9.17157 -47.134215 
L 7.102742 -48.780496 
L 7.363217 -50.426777 
L 9.542646 -52.073058 
L 11.57412 -53.719339 
L 13.718321 -55.36562 
L 15.855859 -57.011901 
L 18.154991 -58.658182 
L 20.82502 -60.304463 
L 22.452058 -61.950744 
L 23.499997 -63.597025 
L 24.64389 -65.243306 
L 25.672304 -66.889587 
L 26.047257 -68.535868 
L 26.528705 -70.182149 
L 26.842833 -71.82843 
L 26.945815 -73.474711 
L 27.110598 -75.120992 
L 27.13085 -76.767273 
L 27.127876 -78.413554 
L 27.164483 -80.059835 
L 27.176451 -81.706116 
L 27.205477 -83.352397 
L 27.205728 -84.998678 
L 27.195318 -86.644959 
L 27.198128 -88.29124 
L 27.193971 -89.937521 
L 27.200989 -91.583802 
L 27.21089 -93.230083 
L 27.210873 -94.876364 
L 27.205669 -96.522645 
L 27.202873 -98.168926 
L 27.208542 -99.815207 
L 27.211016 -101.461488 
L 27.211034 -103.107769 
L 27.211034 -104.75405 
L 27.211034 -106.400331 
L 27.211034 -108.046612 
L 27.211034 -109.692893 
L 27.211034 -111.339174 
L 27.211034 -112.985455 
L 27.211034 -114.631736 
L 27.211034 -116.278017 
L 27.211034 -117.924298 
L 27.211034 -119.570579 
L 27.211034 -121.21686 
L 27.211034 -122.86314 
L 27.211034 -124.509421 
L 27.211034 -126.155702 
L 27.211034 -127.801983 
L 27.211034 -129.448264 
L 27.211034 -131.094545 
L 27.211034 -132.740826 
L 27.211034 -134.387107 
L 27.211034 -136.033388 
L 27.211034 -137.679669 
L 27.211034 -139.32595 
L 27.211034 -140.972231 
L 27.211034 -142.618512 
L 27.211034 -144.264793 
L 27.211034 -145.911074 
L 27.211034 -147.557355 
L 27.211034 -149.203636 
L 27.211034 -150.849917 
L 27.211034 -152.496198 
L 27.211034 -154.142479 
L 27.211034 -155.78876 
L 27.211034 -157.435041 
L 27.211034 -159.081322 
L 27.211034 -160.727603 
L 27.211034 -162.373884 
L 27.211034 -164.020165 
L 27.211034 -165.666446 
L 27.211034 -167.312727 
L 27.211034 -168.959008 
L 27.211034 -170.605289 
L 27.211034 -172.25157 
L 27.211034 -173.897851 
L 27.211034 -175.544132 
L 27.211034 -177.190413 
L 27.211034 -178.836694 
L 27.211034 -180.482975 
L 27.211034 -182.129256 
L 27.211034 -183.775537 
L 27.211034 -185.421818 
L 27.211034 -187.068099 
L 27.211034 -188.71438 
L 27.211034 -190.360661 
L 27.211034 -192.006942 
L 27.211034 -193.653223 
L 27.211034 -195.299504 
L 27.211034 -196.945785 
L 27.211033 -198.592066 
L 27.210231 -200.238347 
L 27.204441 -201.884628 
L 27.210142 -203.530909 
L 27.211927 -203.530909 
L 27.211927 -203.530909 
L 27.217628 -201.884628 
L 27.211838 -200.238347 
L 27.211036 -198.592066 
L 27.211034 -196.945785 
L 27.211034 -195.299504 
L 27.211034 -193.653223 
L 27.211034 -192.006942 
L 27.211034 -190.360661 
L 27.211034 -188.71438 
L 27.211034 -187.068099 
L 27.211034 -185.421818 
L 27.211034 -183.775537 
L 27.211034 -182.129256 
L 27.211034 -180.482975 
L 27.211034 -178.836694 
L 27.211034 -177.190413 
L 27.211034 -175.544132 
L 27.211034 -173.897851 
L 27.211034 -172.25157 
L 27.211034 -170.605289 
L 27.211034 -168.959008 
L 27.211034 -167.312727 
L 27.211034 -165.666446 
L 27.211034 -164.020165 
L 27.211034 -162.373884 
L 27.211034 -160.727603 
L 27.211034 -159.081322 
L 27.211034 -157.435041 
L 27.211034 -155.78876 
L 27.211034 -154.142479 
L 27.211034 -152.496198 
L 27.211034 -150.849917 
L 27.211034 -149.203636 
L 27.211034 -147.557355 
L 27.211034 -145.911074 
L 27.211034 -144.264793 
L 27.211034 -142.618512 
L 27.211034 -140.972231 
L 27.211034 -139.32595 
L 27.211034 -137.679669 
L 27.211034 -136.033388 
L 27.211034 -134.387107 
L 27.211034 -132.740826 
L 27.211034 -131.094545 
L 27.211034 -129.448264 
L 27.211034 -127.801983 
L 27.211034 -126.155702 
L 27.211034 -124.509421 
L 27.211034 -122.86314 
L 27.211034 -121.21686 
L 27.211034 -119.570579 
L 27.211034 -117.924298 
L 27.211034 -116.278017 
L 27.211034 -114.631736 
L 27.211034 -112.985455 
L 27.211034 -111.339174 
L 27.211034 -109.692893 
L 27.211034 -108.046612 
L 27.211034 -106.400331 
L 27.211034 -104.75405 
L 27.211034 -103.107769 
L 27.211053 -101.461488 
L 27.213527 -99.815207 
L 27.219196 -98.168926 
L 27.2164 -96.522645 
L 27.211196 -94.876364 
L 27.211179 -93.230083 
L 27.22108 -91.583802 
L 27.228098 -89.937521 
L 27.223941 -88.29124 
L 27.226751 -86.644959 
L 27.216341 -84.998678 
L 27.216592 -83.352397 
L 27.245617 -81.706116 
L 27.257586 -80.059835 
L 27.294193 -78.413554 
L 27.291219 -76.767273 
L 27.311471 -75.120992 
L 27.476254 -73.474711 
L 27.579236 -71.82843 
L 27.893364 -70.182149 
L 28.374812 -68.535868 
L 28.749765 -66.889587 
L 29.778179 -65.243306 
L 30.922072 -63.597025 
L 31.970011 -61.950744 
L 33.597049 -60.304463 
L 36.267078 -58.658182 
L 38.56621 -57.011901 
L 40.703748 -55.36562 
L 42.847949 -53.719339 
L 44.879423 -52.073058 
L 47.058852 -50.426777 
L 47.319327 -48.780496 
L 45.250499 -47.134215 
L 39.242471 -45.487934 
L 30.958026 -43.841653 
L 27.582337 -42.195372 
L 27.218268 -40.549091 
z
" id="mde9e7a8843" style="stroke:#4c4c4c;stroke-width:1.5;"/>
    </defs>
    <g clip-path="url(#p3e09345640)">
     <use style="fill:#cb3335;stroke:#4c4c4c;stroke-width:1.5;" x="0" xlink:href="#mde9e7a8843" y="216"/>
    </g>
   </g>
   <g id="matplotlib.axis_1">
    <g id="xtick_1">
     <g id="line2d_1">
      <defs>
       <path d="M 0 0 
L 0 3.5 
" id="mefef7e6c29" style="stroke:#000000;stroke-width:0.8;"/>
      </defs>
      <g>
       <use style="stroke:#000000;stroke-width:0.8;" x="27.211034" xlink:href="#mefef7e6c29" y="183.6"/>
      </g>
     </g>
     <g id="text_1">
      <!-- Modeller -->
      <defs>
       <path d="M 9.8125 72.90625 
L 24.515625 72.90625 
L 43.109375 23.296875 
L 61.8125 72.90625 
L 76.515625 72.90625 
L 76.515625 0 
L 66.890625 0 
L 66.890625 64.015625 
L 48.09375 14.015625 
L 38.1875 14.015625 
L 19.390625 64.015625 
L 19.390625 0 
L 9.8125 0 
z
" id="DejaVuSans-77"/>
       <path d="M 30.609375 48.390625 
Q 23.390625 48.390625 19.1875 42.75 
Q 14.984375 37.109375 14.984375 27.296875 
Q 14.984375 17.484375 19.15625 11.84375 
Q 23.34375 6.203125 30.609375 6.203125 
Q 37.796875 6.203125 41.984375 11.859375 
Q 46.1875 17.53125 46.1875 27.296875 
Q 46.1875 37.015625 41.984375 42.703125 
Q 37.796875 48.390625 30.609375 48.390625 
z
M 30.609375 56 
Q 42.328125 56 49.015625 48.375 
Q 55.71875 40.765625 55.71875 27.296875 
Q 55.71875 13.875 49.015625 6.21875 
Q 42.328125 -1.421875 30.609375 -1.421875 
Q 18.84375 -1.421875 12.171875 6.21875 
Q 5.515625 13.875 5.515625 27.296875 
Q 5.515625 40.765625 12.171875 48.375 
Q 18.84375 56 30.609375 56 
z
" id="DejaVuSans-111"/>
       <path d="M 45.40625 46.390625 
L 45.40625 75.984375 
L 54.390625 75.984375 
L 54.390625 0 
L 45.40625 0 
L 45.40625 8.203125 
Q 42.578125 3.328125 38.25 0.953125 
Q 33.9375 -1.421875 27.875 -1.421875 
Q 17.96875 -1.421875 11.734375 6.484375 
Q 5.515625 14.40625 5.515625 27.296875 
Q 5.515625 40.1875 11.734375 48.09375 
Q 17.96875 56 27.875 56 
Q 33.9375 56 38.25 53.625 
Q 42.578125 51.265625 45.40625 46.390625 
z
M 14.796875 27.296875 
Q 14.796875 17.390625 18.875 11.75 
Q 22.953125 6.109375 30.078125 6.109375 
Q 37.203125 6.109375 41.296875 11.75 
Q 45.40625 17.390625 45.40625 27.296875 
Q 45.40625 37.203125 41.296875 42.84375 
Q 37.203125 48.484375 30.078125 48.484375 
Q 22.953125 48.484375 18.875 42.84375 
Q 14.796875 37.203125 14.796875 27.296875 
z
" id="DejaVuSans-100"/>
       <path d="M 56.203125 29.59375 
L 56.203125 25.203125 
L 14.890625 25.203125 
Q 15.484375 15.921875 20.484375 11.0625 
Q 25.484375 6.203125 34.421875 6.203125 
Q 39.59375 6.203125 44.453125 7.46875 
Q 49.3125 8.734375 54.109375 11.28125 
L 54.109375 2.78125 
Q 49.265625 0.734375 44.1875 -0.34375 
Q 39.109375 -1.421875 33.890625 -1.421875 
Q 20.796875 -1.421875 13.15625 6.1875 
Q 5.515625 13.8125 5.515625 26.8125 
Q 5.515625 40.234375 12.765625 48.109375 
Q 20.015625 56 32.328125 56 
Q 43.359375 56 49.78125 48.890625 
Q 56.203125 41.796875 56.203125 29.59375 
z
M 47.21875 32.234375 
Q 47.125 39.59375 43.09375 43.984375 
Q 39.0625 48.390625 32.421875 48.390625 
Q 24.90625 48.390625 20.390625 44.140625 
Q 15.875 39.890625 15.1875 32.171875 
z
" id="DejaVuSans-101"/>
       <path d="M 9.421875 75.984375 
L 18.40625 75.984375 
L 18.40625 0 
L 9.421875 0 
z
" id="DejaVuSans-108"/>
       <path d="M 41.109375 46.296875 
Q 39.59375 47.171875 37.8125 47.578125 
Q 36.03125 48 33.890625 48 
Q 26.265625 48 22.1875 43.046875 
Q 18.109375 38.09375 18.109375 28.8125 
L 18.109375 0 
L 9.078125 0 
L 9.078125 54.6875 
L 18.109375 54.6875 
L 18.109375 46.1875 
Q 20.953125 51.171875 25.484375 53.578125 
Q 30.03125 56 36.53125 56 
Q 37.453125 56 38.578125 55.875 
Q 39.703125 55.765625 41.0625 55.515625 
z
" id="DejaVuSans-114"/>
      </defs>
      <g transform="translate(5.676659 198.198438)scale(0.1 -0.1)">
       <use xlink:href="#DejaVuSans-77"/>
       <use x="86.279297" xlink:href="#DejaVuSans-111"/>
       <use x="147.460938" xlink:href="#DejaVuSans-100"/>
       <use x="210.9375" xlink:href="#DejaVuSans-101"/>
       <use x="272.460938" xlink:href="#DejaVuSans-108"/>
       <use x="300.244141" xlink:href="#DejaVuSans-108"/>
       <use x="328.027344" xlink:href="#DejaVuSans-101"/>
       <use x="389.550781" xlink:href="#DejaVuSans-114"/>
      </g>
      <!-- (molpdf) -->
      <defs>
       <path d="M 31 75.875 
Q 24.46875 64.65625 21.28125 53.65625 
Q 18.109375 42.671875 18.109375 31.390625 
Q 18.109375 20.125 21.3125 9.0625 
Q 24.515625 -2 31 -13.1875 
L 23.1875 -13.1875 
Q 15.875 -1.703125 12.234375 9.375 
Q 8.59375 20.453125 8.59375 31.390625 
Q 8.59375 42.28125 12.203125 53.3125 
Q 15.828125 64.359375 23.1875 75.875 
z
" id="DejaVuSans-40"/>
       <path d="M 52 44.1875 
Q 55.375 50.25 60.0625 53.125 
Q 64.75 56 71.09375 56 
Q 79.640625 56 84.28125 50.015625 
Q 88.921875 44.046875 88.921875 33.015625 
L 88.921875 0 
L 79.890625 0 
L 79.890625 32.71875 
Q 79.890625 40.578125 77.09375 44.375 
Q 74.3125 48.1875 68.609375 48.1875 
Q 61.625 48.1875 57.5625 43.546875 
Q 53.515625 38.921875 53.515625 30.90625 
L 53.515625 0 
L 44.484375 0 
L 44.484375 32.71875 
Q 44.484375 40.625 41.703125 44.40625 
Q 38.921875 48.1875 33.109375 48.1875 
Q 26.21875 48.1875 22.15625 43.53125 
Q 18.109375 38.875 18.109375 30.90625 
L 18.109375 0 
L 9.078125 0 
L 9.078125 54.6875 
L 18.109375 54.6875 
L 18.109375 46.1875 
Q 21.1875 51.21875 25.484375 53.609375 
Q 29.78125 56 35.6875 56 
Q 41.65625 56 45.828125 52.96875 
Q 50 49.953125 52 44.1875 
z
" id="DejaVuSans-109"/>
       <path d="M 18.109375 8.203125 
L 18.109375 -20.796875 
L 9.078125 -20.796875 
L 9.078125 54.6875 
L 18.109375 54.6875 
L 18.109375 46.390625 
Q 20.953125 51.265625 25.265625 53.625 
Q 29.59375 56 35.59375 56 
Q 45.5625 56 51.78125 48.09375 
Q 58.015625 40.1875 58.015625 27.296875 
Q 58.015625 14.40625 51.78125 6.484375 
Q 45.5625 -1.421875 35.59375 -1.421875 
Q 29.59375 -1.421875 25.265625 0.953125 
Q 20.953125 3.328125 18.109375 8.203125 
z
M 48.6875 27.296875 
Q 48.6875 37.203125 44.609375 42.84375 
Q 40.53125 48.484375 33.40625 48.484375 
Q 26.265625 48.484375 22.1875 42.84375 
Q 18.109375 37.203125 18.109375 27.296875 
Q 18.109375 17.390625 22.1875 11.75 
Q 26.265625 6.109375 33.40625 6.109375 
Q 40.53125 6.109375 44.609375 11.75 
Q 48.6875 17.390625 48.6875 27.296875 
z
" id="DejaVuSans-112"/>
       <path d="M 37.109375 75.984375 
L 37.109375 68.5 
L 28.515625 68.5 
Q 23.6875 68.5 21.796875 66.546875 
Q 19.921875 64.59375 19.921875 59.515625 
L 19.921875 54.6875 
L 34.71875 54.6875 
L 34.71875 47.703125 
L 19.921875 47.703125 
L 19.921875 0 
L 10.890625 0 
L 10.890625 47.703125 
L 2.296875 47.703125 
L 2.296875 54.6875 
L 10.890625 54.6875 
L 10.890625 58.5 
Q 10.890625 67.625 15.140625 71.796875 
Q 19.390625 75.984375 28.609375 75.984375 
z
" id="DejaVuSans-102"/>
       <path d="M 8.015625 75.875 
L 15.828125 75.875 
Q 23.140625 64.359375 26.78125 53.3125 
Q 30.421875 42.28125 30.421875 31.390625 
Q 30.421875 20.453125 26.78125 9.375 
Q 23.140625 -1.703125 15.828125 -13.1875 
L 8.015625 -13.1875 
Q 14.5 -2 17.703125 9.0625 
Q 20.90625 20.125 20.90625 31.390625 
Q 20.90625 42.671875 17.703125 53.65625 
Q 14.5 64.65625 8.015625 75.875 
z
" id="DejaVuSans-41"/>
      </defs>
      <g transform="translate(5.882128 209.39625)scale(0.1 -0.1)">
       <use xlink:href="#DejaVuSans-40"/>
       <use x="39.013672" xlink:href="#DejaVuSans-109"/>
       <use x="136.425781" xlink:href="#DejaVuSans-111"/>
       <use x="197.607422" xlink:href="#DejaVuSans-108"/>
       <use x="225.390625" xlink:href="#DejaVuSans-112"/>
       <use x="288.867188" xlink:href="#DejaVuSans-100"/>
       <use x="352.34375" xlink:href="#DejaVuSans-102"/>
       <use x="387.548828" xlink:href="#DejaVuSans-41"/>
      </g>
     </g>
    </g>
   </g>
   <g id="matplotlib.axis_2"/>
   <g id="LineCollection_1">
    <path clip-path="url(#p3e09345640)" d="M 5.091912 171.170802 
L 49.330157 171.170802 
" style="fill:none;stroke:#000000;stroke-dasharray:1.5,2.475;stroke-dashoffset:0;stroke-width:1.5;"/>
   </g>
   <g id="line2d_2">
    <path clip-path="url(#p3e09345640)" d="M 27.211034 173.825757 
L 27.211034 147.837002 
" style="fill:none;stroke:#4c4c4c;stroke-linecap:square;stroke-width:1.5;"/>
   </g>
   <g id="line2d_3">
    <path clip-path="url(#p3e09345640)" d="M 27.211034 167.478902 
L 27.211034 159.619087 
" style="fill:none;stroke:#4c4c4c;stroke-linecap:square;stroke-width:4.5;"/>
   </g>
   <g id="patch_3">
    <path d="M 2.88 183.6 
L 51.542069 183.6 
" style="fill:none;stroke:#000000;stroke-linecap:square;stroke-linejoin:miter;stroke-width:0.8;"/>
   </g>
   <g id="patch_4">
    <path d="M 2.88 4.32 
L 51.542069 4.32 
" style="fill:none;stroke:#000000;stroke-linecap:square;stroke-linejoin:miter;stroke-width:0.8;"/>
   </g>
   <g id="PathCollection_1">
    <defs>
     <path d="M 0 1.5 
C 0.397805 1.5 0.77937 1.341951 1.06066 1.06066 
C 1.341951 0.77937 1.5 0.397805 1.5 0 
C 1.5 -0.397805 1.341951 -0.77937 1.06066 -1.06066 
C 0.77937 -1.341951 0.397805 -1.5 0 -1.5 
C -0.397805 -1.5 -0.77937 -1.341951 -1.06066 -1.06066 
C -1.341951 -0.77937 -1.5 -0.397805 -1.5 0 
C -1.5 0.397805 -1.341951 0.77937 -1.06066 1.06066 
C -0.77937 1.341951 -0.397805 1.5 0 1.5 
z
" id="m7c0d370343" style="stroke:#4c4c4c;"/>
    </defs>
    <g clip-path="url(#p3e09345640)">
     <use style="fill:#ffffff;stroke:#4c4c4c;" x="27.211034" xlink:href="#m7c0d370343" y="164.100756"/>
    </g>
   </g>
  </g>
  <g id="axes_2">
   <g id="patch_5">
    <path d="M 61.274483 183.6 
L 109.936552 183.6 
L 109.936552 4.32 
L 61.274483 4.32 
z
" style="fill:#ffffff;"/>
   </g>
   <g id="PolyCollection_2">
    <defs>
     <path d="M 85.606918 -40.549091 
L 85.604116 -40.549091 
L 85.60111 -42.195372 
L 85.595222 -43.841653 
L 85.587355 -45.487934 
L 85.580514 -47.134215 
L 85.576728 -48.780496 
L 85.57405 -50.426777 
L 85.56804 -52.073058 
L 85.555023 -53.719339 
L 85.532241 -55.36562 
L 85.497219 -57.011901 
L 85.450375 -58.658182 
L 85.39537 -60.304463 
L 85.330558 -61.950744 
L 85.240996 -63.597025 
L 85.104378 -65.243306 
L 84.90584 -66.889587 
L 84.643325 -68.535868 
L 84.319331 -70.182149 
L 83.941125 -71.82843 
L 83.535198 -73.474711 
L 83.134088 -75.120992 
L 82.726466 -76.767273 
L 82.256759 -78.413554 
L 81.698119 -80.059835 
L 81.071611 -81.706116 
L 80.384697 -83.352397 
L 79.61812 -84.998678 
L 78.764189 -86.644959 
L 77.8368 -88.29124 
L 76.872611 -89.937521 
L 75.919187 -91.583802 
L 74.990706 -93.230083 
L 74.062475 -94.876364 
L 73.123524 -96.522645 
L 72.188331 -98.168926 
L 71.252157 -99.815207 
L 70.309218 -101.461488 
L 69.405656 -103.107769 
L 68.599077 -104.75405 
L 67.90429 -106.400331 
L 67.315634 -108.046612 
L 66.816084 -109.692893 
L 66.368332 -111.339174 
L 65.96563 -112.985455 
L 65.661554 -114.631736 
L 65.504667 -116.278017 
L 65.497224 -117.924298 
L 65.645724 -119.570579 
L 65.982902 -121.21686 
L 66.505803 -122.86314 
L 67.149587 -124.509421 
L 67.855949 -126.155702 
L 68.612885 -127.801983 
L 69.408857 -129.448264 
L 70.222708 -131.094545 
L 71.070184 -132.740826 
L 71.988232 -134.387107 
L 72.962108 -136.033388 
L 73.920094 -137.679669 
L 74.813093 -139.32595 
L 75.66087 -140.972231 
L 76.509741 -142.618512 
L 77.374354 -144.264793 
L 78.227203 -145.911074 
L 79.026462 -147.557355 
L 79.748765 -149.203636 
L 80.401405 -150.849917 
L 81.003172 -152.496198 
L 81.555786 -154.142479 
L 82.046929 -155.78876 
L 82.478792 -157.435041 
L 82.875802 -159.081322 
L 83.261296 -160.727603 
L 83.6327 -162.373884 
L 83.96316 -164.020165 
L 84.231593 -165.666446 
L 84.4469 -167.312727 
L 84.633904 -168.959008 
L 84.804925 -170.605289 
L 84.95696 -172.25157 
L 85.08689 -173.897851 
L 85.198492 -175.544132 
L 85.295304 -177.190413 
L 85.372291 -178.836694 
L 85.423169 -180.482975 
L 85.453385 -182.129256 
L 85.475953 -183.775537 
L 85.498072 -185.421818 
L 85.517972 -187.068099 
L 85.531682 -188.71438 
L 85.539903 -190.360661 
L 85.548193 -192.006942 
L 85.560658 -193.653223 
L 85.575149 -195.299504 
L 85.586849 -196.945785 
L 85.594365 -198.592066 
L 85.599281 -200.238347 
L 85.602622 -201.884628 
L 85.6045 -203.530909 
L 85.606535 -203.530909 
L 85.606535 -203.530909 
L 85.608412 -201.884628 
L 85.611753 -200.238347 
L 85.616669 -198.592066 
L 85.624185 -196.945785 
L 85.635886 -195.299504 
L 85.650376 -193.653223 
L 85.662841 -192.006942 
L 85.671132 -190.360661 
L 85.679352 -188.71438 
L 85.693063 -187.068099 
L 85.712962 -185.421818 
L 85.735082 -183.775537 
L 85.757649 -182.129256 
L 85.787865 -180.482975 
L 85.838743 -178.836694 
L 85.915731 -177.190413 
L 86.012542 -175.544132 
L 86.124144 -173.897851 
L 86.254074 -172.25157 
L 86.406109 -170.605289 
L 86.57713 -168.959008 
L 86.764134 -167.312727 
L 86.979441 -165.666446 
L 87.247875 -164.020165 
L 87.578334 -162.373884 
L 87.949738 -160.727603 
L 88.335232 -159.081322 
L 88.732242 -157.435041 
L 89.164105 -155.78876 
L 89.655249 -154.142479 
L 90.207863 -152.496198 
L 90.80963 -150.849917 
L 91.462269 -149.203636 
L 92.184573 -147.557355 
L 92.983832 -145.911074 
L 93.83668 -144.264793 
L 94.701293 -142.618512 
L 95.550165 -140.972231 
L 96.397941 -139.32595 
L 97.290941 -137.679669 
L 98.248926 -136.033388 
L 99.222802 -134.387107 
L 100.140851 -132.740826 
L 100.988326 -131.094545 
L 101.802177 -129.448264 
L 102.59815 -127.801983 
L 103.355085 -126.155702 
L 104.061448 -124.509421 
L 104.705231 -122.86314 
L 105.228132 -121.21686 
L 105.56531 -119.570579 
L 105.71381 -117.924298 
L 105.706367 -116.278017 
L 105.54948 -114.631736 
L 105.245404 -112.985455 
L 104.842703 -111.339174 
L 104.394951 -109.692893 
L 103.895401 -108.046612 
L 103.306744 -106.400331 
L 102.611958 -104.75405 
L 101.805378 -103.107769 
L 100.901817 -101.461488 
L 99.958877 -99.815207 
L 99.022704 -98.168926 
L 98.087511 -96.522645 
L 97.148559 -94.876364 
L 96.220328 -93.230083 
L 95.291847 -91.583802 
L 94.338424 -89.937521 
L 93.374234 -88.29124 
L 92.446845 -86.644959 
L 91.592915 -84.998678 
L 90.826338 -83.352397 
L 90.139424 -81.706116 
L 89.512915 -80.059835 
L 88.954275 -78.413554 
L 88.484569 -76.767273 
L 88.076947 -75.120992 
L 87.675836 -73.474711 
L 87.26991 -71.82843 
L 86.891703 -70.182149 
L 86.56771 -68.535868 
L 86.305195 -66.889587 
L 86.106657 -65.243306 
L 85.970038 -63.597025 
L 85.880476 -61.950744 
L 85.815664 -60.304463 
L 85.76066 -58.658182 
L 85.713815 -57.011901 
L 85.678793 -55.36562 
L 85.656012 -53.719339 
L 85.642994 -52.073058 
L 85.636985 -50.426777 
L 85.634307 -48.780496 
L 85.630521 -47.134215 
L 85.62368 -45.487934 
L 85.615813 -43.841653 
L 85.609925 -42.195372 
L 85.606918 -40.549091 
z
" id="m86e2f1de03" style="stroke:#484848;stroke-width:1.5;"/>
    </defs>
    <g clip-path="url(#p9f5b739d19)">
     <use style="fill:#477ca8;stroke:#484848;stroke-width:1.5;" x="0" xlink:href="#m86e2f1de03" y="216"/>
    </g>
   </g>
   <g id="matplotlib.axis_3">
    <g id="xtick_2">
     <g id="line2d_4">
      <g>
       <use style="stroke:#000000;stroke-width:0.8;" x="85.605517" xlink:href="#mefef7e6c29" y="183.6"/>
      </g>
     </g>
     <g id="text_2">
      <!-- Modeller -->
      <g transform="translate(64.071142 198.198438)scale(0.1 -0.1)">
       <use xlink:href="#DejaVuSans-77"/>
       <use x="86.279297" xlink:href="#DejaVuSans-111"/>
       <use x="147.460938" xlink:href="#DejaVuSans-100"/>
       <use x="210.9375" xlink:href="#DejaVuSans-101"/>
       <use x="272.460938" xlink:href="#DejaVuSans-108"/>
       <use x="300.244141" xlink:href="#DejaVuSans-108"/>
       <use x="328.027344" xlink:href="#DejaVuSans-101"/>
       <use x="389.550781" xlink:href="#DejaVuSans-114"/>
      </g>
      <!-- (dope_norm) -->
      <defs>
       <path d="M 50.984375 -16.609375 
L 50.984375 -23.578125 
L -0.984375 -23.578125 
L -0.984375 -16.609375 
z
" id="DejaVuSans-95"/>
       <path d="M 54.890625 33.015625 
L 54.890625 0 
L 45.90625 0 
L 45.90625 32.71875 
Q 45.90625 40.484375 42.875 44.328125 
Q 39.84375 48.1875 33.796875 48.1875 
Q 26.515625 48.1875 22.3125 43.546875 
Q 18.109375 38.921875 18.109375 30.90625 
L 18.109375 0 
L 9.078125 0 
L 9.078125 54.6875 
L 18.109375 54.6875 
L 18.109375 46.1875 
Q 21.34375 51.125 25.703125 53.5625 
Q 30.078125 56 35.796875 56 
Q 45.21875 56 50.046875 50.171875 
Q 54.890625 44.34375 54.890625 33.015625 
z
" id="DejaVuSans-110"/>
      </defs>
      <g transform="translate(53.653173 209.39625)scale(0.1 -0.1)">
       <use xlink:href="#DejaVuSans-40"/>
       <use x="39.013672" xlink:href="#DejaVuSans-100"/>
       <use x="102.490234" xlink:href="#DejaVuSans-111"/>
       <use x="163.671875" xlink:href="#DejaVuSans-112"/>
       <use x="227.148438" xlink:href="#DejaVuSans-101"/>
       <use x="288.671875" xlink:href="#DejaVuSans-95"/>
       <use x="338.671875" xlink:href="#DejaVuSans-110"/>
       <use x="402.050781" xlink:href="#DejaVuSans-111"/>
       <use x="463.232422" xlink:href="#DejaVuSans-114"/>
       <use x="502.595703" xlink:href="#DejaVuSans-109"/>
       <use x="600.007812" xlink:href="#DejaVuSans-41"/>
      </g>
     </g>
    </g>
   </g>
   <g id="matplotlib.axis_4"/>
   <g id="LineCollection_2">
    <path clip-path="url(#p9f5b739d19)" d="M 63.486395 101.002078 
L 107.724639 101.002078 
" style="fill:none;stroke:#000000;stroke-dasharray:1.5,2.475;stroke-dashoffset:0;stroke-width:1.5;"/>
   </g>
   <g id="line2d_5">
    <path clip-path="url(#p9f5b739d19)" d="M 85.605517 153.876093 
L 85.605517 43.926844 
" style="fill:none;stroke:#484848;stroke-linecap:square;stroke-width:1.5;"/>
   </g>
   <g id="line2d_6">
    <path clip-path="url(#p9f5b739d19)" d="M 85.605517 112.703884 
L 85.605517 85.163307 
" style="fill:none;stroke:#484848;stroke-linecap:square;stroke-width:4.5;"/>
   </g>
   <g id="patch_6">
    <path d="M 61.274483 183.6 
L 109.936552 183.6 
" style="fill:none;stroke:#000000;stroke-linecap:square;stroke-linejoin:miter;stroke-width:0.8;"/>
   </g>
   <g id="patch_7">
    <path d="M 61.274483 4.32 
L 109.936552 4.32 
" style="fill:none;stroke:#000000;stroke-linecap:square;stroke-linejoin:miter;stroke-width:0.8;"/>
   </g>
   <g id="PathCollection_2">
    <defs>
     <path d="M 0 1.5 
C 0.397805 1.5 0.77937 1.341951 1.06066 1.06066 
C 1.341951 0.77937 1.5 0.397805 1.5 0 
C 1.5 -0.397805 1.341951 -0.77937 1.06066 -1.06066 
C 0.77937 -1.341951 0.397805 -1.5 0 -1.5 
C -0.397805 -1.5 -0.77937 -1.341951 -1.06066 -1.06066 
C -1.341951 -0.77937 -1.5 -0.397805 -1.5 0 
C -1.5 0.397805 -1.341951 0.77937 -1.06066 1.06066 
C -0.77937 1.341951 -0.397805 1.5 0 1.5 
z
" id="m72a317f90b" style="stroke:#484848;"/>
    </defs>
    <g clip-path="url(#p9f5b739d19)">
     <use style="fill:#ffffff;stroke:#484848;" x="85.605517" xlink:href="#m72a317f90b" y="99.046717"/>
    </g>
   </g>
  </g>
  <g id="axes_3">
   <g id="patch_8">
    <path d="M 119.668966 183.6 
L 168.331034 183.6 
L 168.331034 4.32 
L 119.668966 4.32 
z
" style="fill:#ffffff;"/>
   </g>
   <g id="PolyCollection_3">
    <defs>
     <path d="M 144.001017 -40.549091 
L 143.998983 -40.549091 
L 143.996878 -42.195372 
L 143.993129 -43.841653 
L 143.988052 -45.487934 
L 143.981606 -47.134215 
L 143.9739 -48.780496 
L 143.965313 -50.426777 
L 143.95195 -52.073058 
L 143.92721 -53.719339 
L 143.892425 -55.36562 
L 143.855395 -57.011901 
L 143.815601 -58.658182 
L 143.763969 -60.304463 
L 143.695746 -61.950744 
L 143.605203 -63.597025 
L 143.470081 -65.243306 
L 143.256731 -66.889587 
L 142.950691 -68.535868 
L 142.581085 -70.182149 
L 142.196692 -71.82843 
L 141.823327 -73.474711 
L 141.44836 -75.120992 
L 141.025644 -76.767273 
L 140.501551 -78.413554 
L 139.83954 -80.059835 
L 139.034798 -81.706116 
L 138.13571 -83.352397 
L 137.204205 -84.998678 
L 136.231865 -86.644959 
L 135.164875 -88.29124 
L 134.019215 -89.937521 
L 132.902958 -91.583802 
L 131.898496 -93.230083 
L 130.98151 -94.876364 
L 130.096041 -96.522645 
L 129.211717 -98.168926 
L 128.27809 -99.815207 
L 127.277567 -101.461488 
L 126.326087 -103.107769 
L 125.570624 -104.75405 
L 125.01998 -106.400331 
L 124.583749 -108.046612 
L 124.215184 -109.692893 
L 123.958256 -111.339174 
L 123.891707 -112.985455 
L 124.020227 -114.631736 
L 124.264164 -116.278017 
L 124.610225 -117.924298 
L 125.170545 -119.570579 
L 126.037834 -121.21686 
L 127.140562 -122.86314 
L 128.260447 -124.509421 
L 129.220653 -126.155702 
L 130.045057 -127.801983 
L 130.880936 -129.448264 
L 131.80956 -131.094545 
L 132.798027 -132.740826 
L 133.786809 -134.387107 
L 134.726069 -136.033388 
L 135.573421 -137.679669 
L 136.336199 -139.32595 
L 137.067235 -140.972231 
L 137.814828 -142.618512 
L 138.584388 -144.264793 
L 139.320544 -145.911074 
L 139.974306 -147.557355 
L 140.563565 -149.203636 
L 141.110351 -150.849917 
L 141.595148 -152.496198 
L 142.001552 -154.142479 
L 142.338996 -155.78876 
L 142.626572 -157.435041 
L 142.878035 -159.081322 
L 143.090872 -160.727603 
L 143.261758 -162.373884 
L 143.404608 -164.020165 
L 143.532868 -165.666446 
L 143.646086 -167.312727 
L 143.741079 -168.959008 
L 143.816268 -170.605289 
L 143.868962 -172.25157 
L 143.899798 -173.897851 
L 143.916479 -175.544132 
L 143.928884 -177.190413 
L 143.942441 -178.836694 
L 143.957226 -180.482975 
L 143.970152 -182.129256 
L 143.978897 -183.775537 
L 143.984829 -185.421818 
L 143.99014 -187.068099 
L 143.994338 -188.71438 
L 143.995602 -190.360661 
L 143.99388 -192.006942 
L 143.991336 -193.653223 
L 143.989929 -195.299504 
L 143.989864 -196.945785 
L 143.991154 -198.592066 
L 143.993929 -200.238347 
L 143.997016 -201.884628 
L 143.998999 -203.530909 
L 144.001001 -203.530909 
L 144.001001 -203.530909 
L 144.002984 -201.884628 
L 144.006071 -200.238347 
L 144.008846 -198.592066 
L 144.010136 -196.945785 
L 144.010071 -195.299504 
L 144.008664 -193.653223 
L 144.00612 -192.006942 
L 144.004398 -190.360661 
L 144.005662 -188.71438 
L 144.00986 -187.068099 
L 144.015171 -185.421818 
L 144.021103 -183.775537 
L 144.029848 -182.129256 
L 144.042774 -180.482975 
L 144.057559 -178.836694 
L 144.071116 -177.190413 
L 144.083521 -175.544132 
L 144.100202 -173.897851 
L 144.131038 -172.25157 
L 144.183732 -170.605289 
L 144.258921 -168.959008 
L 144.353914 -167.312727 
L 144.467132 -165.666446 
L 144.595392 -164.020165 
L 144.738242 -162.373884 
L 144.909128 -160.727603 
L 145.121965 -159.081322 
L 145.373428 -157.435041 
L 145.661004 -155.78876 
L 145.998448 -154.142479 
L 146.404852 -152.496198 
L 146.889649 -150.849917 
L 147.436435 -149.203636 
L 148.025694 -147.557355 
L 148.679456 -145.911074 
L 149.415612 -144.264793 
L 150.185172 -142.618512 
L 150.932765 -140.972231 
L 151.663801 -139.32595 
L 152.426579 -137.679669 
L 153.273931 -136.033388 
L 154.213191 -134.387107 
L 155.201973 -132.740826 
L 156.19044 -131.094545 
L 157.119064 -129.448264 
L 157.954943 -127.801983 
L 158.779347 -126.155702 
L 159.739553 -124.509421 
L 160.859438 -122.86314 
L 161.962166 -121.21686 
L 162.829455 -119.570579 
L 163.389775 -117.924298 
L 163.735836 -116.278017 
L 163.979773 -114.631736 
L 164.108293 -112.985455 
L 164.041744 -111.339174 
L 163.784816 -109.692893 
L 163.416251 -108.046612 
L 162.98002 -106.400331 
L 162.429376 -104.75405 
L 161.673913 -103.107769 
L 160.722433 -101.461488 
L 159.72191 -99.815207 
L 158.788283 -98.168926 
L 157.903959 -96.522645 
L 157.01849 -94.876364 
L 156.101504 -93.230083 
L 155.097042 -91.583802 
L 153.980785 -89.937521 
L 152.835125 -88.29124 
L 151.768135 -86.644959 
L 150.795795 -84.998678 
L 149.86429 -83.352397 
L 148.965202 -81.706116 
L 148.16046 -80.059835 
L 147.498449 -78.413554 
L 146.974356 -76.767273 
L 146.55164 -75.120992 
L 146.176673 -73.474711 
L 145.803308 -71.82843 
L 145.418915 -70.182149 
L 145.049309 -68.535868 
L 144.743269 -66.889587 
L 144.529919 -65.243306 
L 144.394797 -63.597025 
L 144.304254 -61.950744 
L 144.236031 -60.304463 
L 144.184399 -58.658182 
L 144.144605 -57.011901 
L 144.107575 -55.36562 
L 144.07279 -53.719339 
L 144.04805 -52.073058 
L 144.034687 -50.426777 
L 144.0261 -48.780496 
L 144.018394 -47.134215 
L 144.011948 -45.487934 
L 144.006871 -43.841653 
L 144.003122 -42.195372 
L 144.001017 -40.549091 
z
" id="mda0350fa9a" style="stroke:#4b4b4b;stroke-width:1.5;"/>
    </defs>
    <g clip-path="url(#pf8e248967c)">
     <use style="fill:#59a257;stroke:#4b4b4b;stroke-width:1.5;" x="0" xlink:href="#mda0350fa9a" y="216"/>
    </g>
   </g>
   <g id="matplotlib.axis_5">
    <g id="xtick_3">
     <g id="line2d_7">
      <g>
       <use style="stroke:#000000;stroke-width:0.8;" x="144" xlink:href="#mefef7e6c29" y="183.6"/>
      </g>
     </g>
     <g id="text_3">
      <!-- Modeller -->
      <g transform="translate(122.465625 198.198438)scale(0.1 -0.1)">
       <use xlink:href="#DejaVuSans-77"/>
       <use x="86.279297" xlink:href="#DejaVuSans-111"/>
       <use x="147.460938" xlink:href="#DejaVuSans-100"/>
       <use x="210.9375" xlink:href="#DejaVuSans-101"/>
       <use x="272.460938" xlink:href="#DejaVuSans-108"/>
       <use x="300.244141" xlink:href="#DejaVuSans-108"/>
       <use x="328.027344" xlink:href="#DejaVuSans-101"/>
       <use x="389.550781" xlink:href="#DejaVuSans-114"/>
      </g>
      <!-- (dope_hr) -->
      <defs>
       <path d="M 54.890625 33.015625 
L 54.890625 0 
L 45.90625 0 
L 45.90625 32.71875 
Q 45.90625 40.484375 42.875 44.328125 
Q 39.84375 48.1875 33.796875 48.1875 
Q 26.515625 48.1875 22.3125 43.546875 
Q 18.109375 38.921875 18.109375 30.90625 
L 18.109375 0 
L 9.078125 0 
L 9.078125 75.984375 
L 18.109375 75.984375 
L 18.109375 46.1875 
Q 21.34375 51.125 25.703125 53.5625 
Q 30.078125 56 35.796875 56 
Q 45.21875 56 50.046875 50.171875 
Q 54.890625 44.34375 54.890625 33.015625 
z
" id="DejaVuSans-104"/>
      </defs>
      <g transform="translate(119.889844 209.39625)scale(0.1 -0.1)">
       <use xlink:href="#DejaVuSans-40"/>
       <use x="39.013672" xlink:href="#DejaVuSans-100"/>
       <use x="102.490234" xlink:href="#DejaVuSans-111"/>
       <use x="163.671875" xlink:href="#DejaVuSans-112"/>
       <use x="227.148438" xlink:href="#DejaVuSans-101"/>
       <use x="288.671875" xlink:href="#DejaVuSans-95"/>
       <use x="338.671875" xlink:href="#DejaVuSans-104"/>
       <use x="402.050781" xlink:href="#DejaVuSans-114"/>
       <use x="443.164062" xlink:href="#DejaVuSans-41"/>
      </g>
     </g>
    </g>
   </g>
   <g id="matplotlib.axis_6"/>
   <g id="LineCollection_3">
    <path clip-path="url(#pf8e248967c)" d="M 121.880878 111.991524 
L 166.119122 111.991524 
" style="fill:none;stroke:#000000;stroke-dasharray:1.5,2.475;stroke-dashoffset:0;stroke-width:1.5;"/>
   </g>
   <g id="line2d_8">
    <path clip-path="url(#pf8e248967c)" d="M 144 153.086495 
L 144 52.72489 
" style="fill:none;stroke:#4b4b4b;stroke-linecap:square;stroke-width:1.5;"/>
   </g>
   <g id="line2d_9">
    <path clip-path="url(#pf8e248967c)" d="M 144 115.592054 
L 144 90.399029 
" style="fill:none;stroke:#4b4b4b;stroke-linecap:square;stroke-width:4.5;"/>
   </g>
   <g id="patch_9">
    <path d="M 119.668966 183.6 
L 168.331034 183.6 
" style="fill:none;stroke:#000000;stroke-linecap:square;stroke-linejoin:miter;stroke-width:0.8;"/>
   </g>
   <g id="patch_10">
    <path d="M 119.668966 4.32 
L 168.331034 4.32 
" style="fill:none;stroke:#000000;stroke-linecap:square;stroke-linejoin:miter;stroke-width:0.8;"/>
   </g>
   <g id="PathCollection_3">
    <defs>
     <path d="M 0 1.5 
C 0.397805 1.5 0.77937 1.341951 1.06066 1.06066 
C 1.341951 0.77937 1.5 0.397805 1.5 0 
C 1.5 -0.397805 1.341951 -0.77937 1.06066 -1.06066 
C 0.77937 -1.341951 0.397805 -1.5 0 -1.5 
C -0.397805 -1.5 -0.77937 -1.341951 -1.06066 -1.06066 
C -1.341951 -0.77937 -1.5 -0.397805 -1.5 0 
C -1.5 0.397805 -1.341951 0.77937 -1.06066 1.06066 
C -0.77937 1.341951 -0.397805 1.5 0 1.5 
z
" id="m3f3826b040" style="stroke:#4b4b4b;"/>
    </defs>
    <g clip-path="url(#pf8e248967c)">
     <use style="fill:#ffffff;stroke:#4b4b4b;" x="144" xlink:href="#m3f3826b040" y="103.145493"/>
    </g>
   </g>
  </g>
  <g id="axes_4">
   <g id="patch_11">
    <path d="M 178.063448 183.6 
L 226.725517 183.6 
L 226.725517 4.32 
L 178.063448 4.32 
z
" style="fill:#ffffff;"/>
   </g>
   <g id="PolyCollection_4">
    <defs>
     <path d="M 202.395448 -40.549091 
L 202.393517 -40.549091 
L 202.391261 -42.195372 
L 202.388256 -43.841653 
L 202.387492 -45.487934 
L 202.389753 -47.134215 
L 202.391615 -48.780496 
L 202.390275 -50.426777 
L 202.386408 -52.073058 
L 202.381768 -53.719339 
L 202.375079 -55.36562 
L 202.364727 -57.011901 
L 202.3547 -58.658182 
L 202.350709 -60.304463 
L 202.348881 -61.950744 
L 202.333949 -63.597025 
L 202.294513 -65.243306 
L 202.235037 -66.889587 
L 202.169907 -68.535868 
L 202.109187 -70.182149 
L 202.046766 -71.82843 
L 201.971449 -73.474711 
L 201.891616 -75.120992 
L 201.822889 -76.767273 
L 201.7505 -78.413554 
L 201.648889 -80.059835 
L 201.536301 -81.706116 
L 201.427368 -83.352397 
L 201.253472 -84.998678 
L 200.938846 -86.644959 
L 200.488405 -88.29124 
L 199.934752 -89.937521 
L 199.277566 -91.583802 
L 198.529247 -93.230083 
L 197.751941 -94.876364 
L 196.935286 -96.522645 
L 196.006839 -98.168926 
L 195.000807 -99.815207 
L 193.957359 -101.461488 
L 192.849873 -103.107769 
L 191.681206 -104.75405 
L 190.403259 -106.400331 
L 188.964217 -108.046612 
L 187.493168 -109.692893 
L 186.174002 -111.339174 
L 185.022238 -112.985455 
L 183.955979 -114.631736 
L 183.036955 -116.278017 
L 182.459331 -117.924298 
L 182.28619 -119.570579 
L 182.329114 -121.21686 
L 182.376631 -122.86314 
L 182.504172 -124.509421 
L 182.938352 -126.155702 
L 183.723265 -127.801983 
L 184.712929 -129.448264 
L 185.758242 -131.094545 
L 186.845125 -132.740826 
L 187.990053 -134.387107 
L 189.155883 -136.033388 
L 190.3335 -137.679669 
L 191.529841 -139.32595 
L 192.742981 -140.972231 
L 194.002672 -142.618512 
L 195.284347 -144.264793 
L 196.432236 -145.911074 
L 197.336066 -147.557355 
L 198.040277 -149.203636 
L 198.66557 -150.849917 
L 199.274722 -152.496198 
L 199.801944 -154.142479 
L 200.201405 -155.78876 
L 200.551762 -157.435041 
L 200.925222 -159.081322 
L 201.293717 -160.727603 
L 201.57525 -162.373884 
L 201.733214 -164.020165 
L 201.817728 -165.666446 
L 201.907726 -167.312727 
L 202.021615 -168.959008 
L 202.114314 -170.605289 
L 202.161605 -172.25157 
L 202.190118 -173.897851 
L 202.225434 -175.544132 
L 202.265279 -177.190413 
L 202.300395 -178.836694 
L 202.323794 -180.482975 
L 202.332092 -182.129256 
L 202.333642 -183.775537 
L 202.339309 -185.421818 
L 202.348608 -187.068099 
L 202.359891 -188.71438 
L 202.374027 -190.360661 
L 202.386208 -192.006942 
L 202.392019 -193.653223 
L 202.392461 -195.299504 
L 202.389936 -196.945785 
L 202.387513 -198.592066 
L 202.388257 -200.238347 
L 202.391261 -201.884628 
L 202.393517 -203.530909 
L 202.395448 -203.530909 
L 202.395448 -203.530909 
L 202.397704 -201.884628 
L 202.400709 -200.238347 
L 202.401452 -198.592066 
L 202.39903 -196.945785 
L 202.396505 -195.299504 
L 202.396946 -193.653223 
L 202.402758 -192.006942 
L 202.414938 -190.360661 
L 202.429074 -188.71438 
L 202.440357 -187.068099 
L 202.449656 -185.421818 
L 202.455324 -183.775537 
L 202.456873 -182.129256 
L 202.465171 -180.482975 
L 202.488571 -178.836694 
L 202.523687 -177.190413 
L 202.563532 -175.544132 
L 202.598847 -173.897851 
L 202.62736 -172.25157 
L 202.674652 -170.605289 
L 202.767351 -168.959008 
L 202.88124 -167.312727 
L 202.971238 -165.666446 
L 203.055752 -164.020165 
L 203.213716 -162.373884 
L 203.495249 -160.727603 
L 203.863744 -159.081322 
L 204.237204 -157.435041 
L 204.58756 -155.78876 
L 204.987021 -154.142479 
L 205.514243 -152.496198 
L 206.123395 -150.849917 
L 206.748689 -149.203636 
L 207.452899 -147.557355 
L 208.356729 -145.911074 
L 209.504619 -144.264793 
L 210.786293 -142.618512 
L 212.045985 -140.972231 
L 213.259125 -139.32595 
L 214.455466 -137.679669 
L 215.633082 -136.033388 
L 216.798912 -134.387107 
L 217.943841 -132.740826 
L 219.030723 -131.094545 
L 220.076037 -129.448264 
L 221.065701 -127.801983 
L 221.850614 -126.155702 
L 222.284793 -124.509421 
L 222.412335 -122.86314 
L 222.459852 -121.21686 
L 222.502776 -119.570579 
L 222.329634 -117.924298 
L 221.752011 -116.278017 
L 220.832986 -114.631736 
L 219.766727 -112.985455 
L 218.614964 -111.339174 
L 217.295798 -109.692893 
L 215.824748 -108.046612 
L 214.385706 -106.400331 
L 213.10776 -104.75405 
L 211.939092 -103.107769 
L 210.831606 -101.461488 
L 209.788159 -99.815207 
L 208.782127 -98.168926 
L 207.85368 -96.522645 
L 207.037025 -94.876364 
L 206.259718 -93.230083 
L 205.5114 -91.583802 
L 204.854213 -89.937521 
L 204.300561 -88.29124 
L 203.85012 -86.644959 
L 203.535493 -84.998678 
L 203.361597 -83.352397 
L 203.252665 -81.706116 
L 203.140076 -80.059835 
L 203.038465 -78.413554 
L 202.966077 -76.767273 
L 202.897349 -75.120992 
L 202.817516 -73.474711 
L 202.742199 -71.82843 
L 202.679778 -70.182149 
L 202.619058 -68.535868 
L 202.553928 -66.889587 
L 202.494452 -65.243306 
L 202.455017 -63.597025 
L 202.440084 -61.950744 
L 202.438256 -60.304463 
L 202.434265 -58.658182 
L 202.424238 -57.011901 
L 202.413886 -55.36562 
L 202.407197 -53.719339 
L 202.402557 -52.073058 
L 202.398691 -50.426777 
L 202.39735 -48.780496 
L 202.399213 -47.134215 
L 202.401473 -45.487934 
L 202.40071 -43.841653 
L 202.397704 -42.195372 
L 202.395448 -40.549091 
z
" id="m8d4401859e" style="stroke:#484848;stroke-width:1.5;"/>
    </defs>
    <g clip-path="url(#p68778e2fac)">
     <use style="fill:#905998;stroke:#484848;stroke-width:1.5;" x="0" xlink:href="#m8d4401859e" y="216"/>
    </g>
   </g>
   <g id="matplotlib.axis_7">
    <g id="xtick_4">
     <g id="line2d_10">
      <g>
       <use style="stroke:#000000;stroke-width:0.8;" x="202.394483" xlink:href="#mefef7e6c29" y="183.6"/>
      </g>
     </g>
     <g id="text_4">
      <!-- Modeller -->
      <g transform="translate(180.860108 198.198438)scale(0.1 -0.1)">
       <use xlink:href="#DejaVuSans-77"/>
       <use x="86.279297" xlink:href="#DejaVuSans-111"/>
       <use x="147.460938" xlink:href="#DejaVuSans-100"/>
       <use x="210.9375" xlink:href="#DejaVuSans-101"/>
       <use x="272.460938" xlink:href="#DejaVuSans-108"/>
       <use x="300.244141" xlink:href="#DejaVuSans-108"/>
       <use x="328.027344" xlink:href="#DejaVuSans-101"/>
       <use x="389.550781" xlink:href="#DejaVuSans-114"/>
      </g>
      <!-- (ga341) -->
      <defs>
       <path d="M 45.40625 27.984375 
Q 45.40625 37.75 41.375 43.109375 
Q 37.359375 48.484375 30.078125 48.484375 
Q 22.859375 48.484375 18.828125 43.109375 
Q 14.796875 37.75 14.796875 27.984375 
Q 14.796875 18.265625 18.828125 12.890625 
Q 22.859375 7.515625 30.078125 7.515625 
Q 37.359375 7.515625 41.375 12.890625 
Q 45.40625 18.265625 45.40625 27.984375 
z
M 54.390625 6.78125 
Q 54.390625 -7.171875 48.1875 -13.984375 
Q 42 -20.796875 29.203125 -20.796875 
Q 24.46875 -20.796875 20.265625 -20.09375 
Q 16.0625 -19.390625 12.109375 -17.921875 
L 12.109375 -9.1875 
Q 16.0625 -11.328125 19.921875 -12.34375 
Q 23.78125 -13.375 27.78125 -13.375 
Q 36.625 -13.375 41.015625 -8.765625 
Q 45.40625 -4.15625 45.40625 5.171875 
L 45.40625 9.625 
Q 42.625 4.78125 38.28125 2.390625 
Q 33.9375 0 27.875 0 
Q 17.828125 0 11.671875 7.65625 
Q 5.515625 15.328125 5.515625 27.984375 
Q 5.515625 40.671875 11.671875 48.328125 
Q 17.828125 56 27.875 56 
Q 33.9375 56 38.28125 53.609375 
Q 42.625 51.21875 45.40625 46.390625 
L 45.40625 54.6875 
L 54.390625 54.6875 
z
" id="DejaVuSans-103"/>
       <path d="M 34.28125 27.484375 
Q 23.390625 27.484375 19.1875 25 
Q 14.984375 22.515625 14.984375 16.5 
Q 14.984375 11.71875 18.140625 8.90625 
Q 21.296875 6.109375 26.703125 6.109375 
Q 34.1875 6.109375 38.703125 11.40625 
Q 43.21875 16.703125 43.21875 25.484375 
L 43.21875 27.484375 
z
M 52.203125 31.203125 
L 52.203125 0 
L 43.21875 0 
L 43.21875 8.296875 
Q 40.140625 3.328125 35.546875 0.953125 
Q 30.953125 -1.421875 24.3125 -1.421875 
Q 15.921875 -1.421875 10.953125 3.296875 
Q 6 8.015625 6 15.921875 
Q 6 25.140625 12.171875 29.828125 
Q 18.359375 34.515625 30.609375 34.515625 
L 43.21875 34.515625 
L 43.21875 35.40625 
Q 43.21875 41.609375 39.140625 45 
Q 35.0625 48.390625 27.6875 48.390625 
Q 23 48.390625 18.546875 47.265625 
Q 14.109375 46.140625 10.015625 43.890625 
L 10.015625 52.203125 
Q 14.9375 54.109375 19.578125 55.046875 
Q 24.21875 56 28.609375 56 
Q 40.484375 56 46.34375 49.84375 
Q 52.203125 43.703125 52.203125 31.203125 
z
" id="DejaVuSans-97"/>
       <path d="M 40.578125 39.3125 
Q 47.65625 37.796875 51.625 33 
Q 55.609375 28.21875 55.609375 21.1875 
Q 55.609375 10.40625 48.1875 4.484375 
Q 40.765625 -1.421875 27.09375 -1.421875 
Q 22.515625 -1.421875 17.65625 -0.515625 
Q 12.796875 0.390625 7.625 2.203125 
L 7.625 11.71875 
Q 11.71875 9.328125 16.59375 8.109375 
Q 21.484375 6.890625 26.8125 6.890625 
Q 36.078125 6.890625 40.9375 10.546875 
Q 45.796875 14.203125 45.796875 21.1875 
Q 45.796875 27.640625 41.28125 31.265625 
Q 36.765625 34.90625 28.71875 34.90625 
L 20.21875 34.90625 
L 20.21875 43.015625 
L 29.109375 43.015625 
Q 36.375 43.015625 40.234375 45.921875 
Q 44.09375 48.828125 44.09375 54.296875 
Q 44.09375 59.90625 40.109375 62.90625 
Q 36.140625 65.921875 28.71875 65.921875 
Q 24.65625 65.921875 20.015625 65.03125 
Q 15.375 64.15625 9.8125 62.3125 
L 9.8125 71.09375 
Q 15.4375 72.65625 20.34375 73.4375 
Q 25.25 74.21875 29.59375 74.21875 
Q 40.828125 74.21875 47.359375 69.109375 
Q 53.90625 64.015625 53.90625 55.328125 
Q 53.90625 49.265625 50.4375 45.09375 
Q 46.96875 40.921875 40.578125 39.3125 
z
" id="DejaVuSans-51"/>
       <path d="M 37.796875 64.3125 
L 12.890625 25.390625 
L 37.796875 25.390625 
z
M 35.203125 72.90625 
L 47.609375 72.90625 
L 47.609375 25.390625 
L 58.015625 25.390625 
L 58.015625 17.1875 
L 47.609375 17.1875 
L 47.609375 0 
L 37.796875 0 
L 37.796875 17.1875 
L 4.890625 17.1875 
L 4.890625 26.703125 
z
" id="DejaVuSans-52"/>
       <path d="M 12.40625 8.296875 
L 28.515625 8.296875 
L 28.515625 63.921875 
L 10.984375 60.40625 
L 10.984375 69.390625 
L 28.421875 72.90625 
L 38.28125 72.90625 
L 38.28125 8.296875 
L 54.390625 8.296875 
L 54.390625 0 
L 12.40625 0 
z
" id="DejaVuSans-49"/>
      </defs>
      <g transform="translate(182.710889 209.39625)scale(0.1 -0.1)">
       <use xlink:href="#DejaVuSans-40"/>
       <use x="39.013672" xlink:href="#DejaVuSans-103"/>
       <use x="102.490234" xlink:href="#DejaVuSans-97"/>
       <use x="163.769531" xlink:href="#DejaVuSans-51"/>
       <use x="227.392578" xlink:href="#DejaVuSans-52"/>
       <use x="291.015625" xlink:href="#DejaVuSans-49"/>
       <use x="354.638672" xlink:href="#DejaVuSans-41"/>
      </g>
     </g>
    </g>
   </g>
   <g id="matplotlib.axis_8"/>
   <g id="LineCollection_4">
    <path clip-path="url(#p68778e2fac)" d="M 180.275361 109.542907 
L 224.513605 109.542907 
" style="fill:none;stroke:#000000;stroke-dasharray:1.5,2.475;stroke-dashoffset:0;stroke-width:1.5;"/>
   </g>
   <g id="line2d_11">
    <path clip-path="url(#p68778e2fac)" d="M 202.394483 136.047624 
L 202.394483 52.020784 
" style="fill:none;stroke:#484848;stroke-linecap:square;stroke-width:1.5;"/>
   </g>
   <g id="line2d_12">
    <path clip-path="url(#p68778e2fac)" d="M 202.394483 104.575727 
L 202.394483 83.5303 
" style="fill:none;stroke:#484848;stroke-linecap:square;stroke-width:4.5;"/>
   </g>
   <g id="patch_12">
    <path d="M 178.063448 183.6 
L 226.725517 183.6 
" style="fill:none;stroke:#000000;stroke-linecap:square;stroke-linejoin:miter;stroke-width:0.8;"/>
   </g>
   <g id="patch_13">
    <path d="M 178.063448 4.32 
L 226.725517 4.32 
" style="fill:none;stroke:#000000;stroke-linecap:square;stroke-linejoin:miter;stroke-width:0.8;"/>
   </g>
   <g id="PathCollection_4">
    <g clip-path="url(#p68778e2fac)">
     <use style="fill:#ffffff;stroke:#484848;" x="202.394483" xlink:href="#m72a317f90b" y="94.154196"/>
    </g>
   </g>
  </g>
  <g id="axes_5">
   <g id="patch_14">
    <path d="M 236.457931 183.6 
L 285.12 183.6 
L 285.12 4.32 
L 236.457931 4.32 
z
" style="fill:#ffffff;"/>
   </g>
   <g id="PolyCollection_5">
    <defs>
     <path d="M 260.791147 -40.549091 
L 260.786784 -40.549091 
L 260.781329 -42.195372 
L 260.769241 -43.841653 
L 260.747953 -45.487934 
L 260.713708 -47.134215 
L 260.661475 -48.780496 
L 260.589077 -50.426777 
L 260.494136 -52.073058 
L 260.363267 -53.719339 
L 260.170117 -55.36562 
L 259.887978 -57.011901 
L 259.506877 -58.658182 
L 259.029025 -60.304463 
L 258.441664 -61.950744 
L 257.70115 -63.597025 
L 256.758909 -65.243306 
L 255.615398 -66.889587 
L 254.31375 -68.535868 
L 252.875051 -70.182149 
L 251.321383 -71.82843 
L 249.759805 -73.474711 
L 248.315214 -75.120992 
L 247.003189 -76.767273 
L 245.761375 -78.413554 
L 244.54705 -80.059835 
L 243.392991 -81.706116 
L 242.367354 -83.352397 
L 241.507578 -84.998678 
L 240.899118 -86.644959 
L 240.680673 -88.29124 
L 240.858462 -89.937521 
L 241.275782 -91.583802 
L 241.769386 -93.230083 
L 242.268323 -94.876364 
L 242.809984 -96.522645 
L 243.49133 -98.168926 
L 244.387408 -99.815207 
L 245.487337 -101.461488 
L 246.667729 -103.107769 
L 247.756547 -104.75405 
L 248.682961 -106.400331 
L 249.550518 -108.046612 
L 250.478733 -109.692893 
L 251.438596 -111.339174 
L 252.328805 -112.985455 
L 253.100782 -114.631736 
L 253.769542 -116.278017 
L 254.378547 -117.924298 
L 254.97234 -119.570579 
L 255.575502 -121.21686 
L 256.154893 -122.86314 
L 256.647356 -124.509421 
L 257.057346 -126.155702 
L 257.448319 -127.801983 
L 257.836823 -129.448264 
L 258.157394 -131.094545 
L 258.360396 -132.740826 
L 258.506924 -134.387107 
L 258.694695 -136.033388 
L 258.927264 -137.679669 
L 259.139686 -139.32595 
L 259.310948 -140.972231 
L 259.471856 -142.618512 
L 259.643161 -144.264793 
L 259.816453 -145.911074 
L 259.972846 -147.557355 
L 260.101575 -149.203636 
L 260.20487 -150.849917 
L 260.293976 -152.496198 
L 260.37909 -154.142479 
L 260.457656 -155.78876 
L 260.518491 -157.435041 
L 260.555409 -159.081322 
L 260.575321 -160.727603 
L 260.596046 -162.373884 
L 260.628907 -164.020165 
L 260.667414 -165.666446 
L 260.698902 -167.312727 
L 260.717931 -168.959008 
L 260.729085 -170.605289 
L 260.740276 -172.25157 
L 260.750016 -173.897851 
L 260.749948 -175.544132 
L 260.741239 -177.190413 
L 260.735748 -178.836694 
L 260.740866 -180.482975 
L 260.752636 -182.129256 
L 260.763351 -183.775537 
L 260.769101 -185.421818 
L 260.770615 -187.068099 
L 260.771383 -188.71438 
L 260.773914 -190.360661 
L 260.777046 -192.006942 
L 260.77905 -193.653223 
L 260.780056 -195.299504 
L 260.78051 -196.945785 
L 260.781334 -198.592066 
L 260.783525 -200.238347 
L 260.786258 -201.884628 
L 260.788069 -203.530909 
L 260.789862 -203.530909 
L 260.789862 -203.530909 
L 260.791673 -201.884628 
L 260.794406 -200.238347 
L 260.796597 -198.592066 
L 260.797421 -196.945785 
L 260.797875 -195.299504 
L 260.798881 -193.653223 
L 260.800885 -192.006942 
L 260.804017 -190.360661 
L 260.806548 -188.71438 
L 260.807316 -187.068099 
L 260.80883 -185.421818 
L 260.81458 -183.775537 
L 260.825295 -182.129256 
L 260.837065 -180.482975 
L 260.842183 -178.836694 
L 260.836692 -177.190413 
L 260.827983 -175.544132 
L 260.827915 -173.897851 
L 260.837655 -172.25157 
L 260.848846 -170.605289 
L 260.86 -168.959008 
L 260.879029 -167.312727 
L 260.910517 -165.666446 
L 260.949024 -164.020165 
L 260.981885 -162.373884 
L 261.002611 -160.727603 
L 261.022522 -159.081322 
L 261.05944 -157.435041 
L 261.120275 -155.78876 
L 261.198841 -154.142479 
L 261.283955 -152.496198 
L 261.373061 -150.849917 
L 261.476356 -149.203636 
L 261.605085 -147.557355 
L 261.761478 -145.911074 
L 261.93477 -144.264793 
L 262.106075 -142.618512 
L 262.266983 -140.972231 
L 262.438245 -139.32595 
L 262.650667 -137.679669 
L 262.883236 -136.033388 
L 263.071007 -134.387107 
L 263.217535 -132.740826 
L 263.420537 -131.094545 
L 263.741108 -129.448264 
L 264.129612 -127.801983 
L 264.520585 -126.155702 
L 264.930575 -124.509421 
L 265.423038 -122.86314 
L 266.002429 -121.21686 
L 266.605591 -119.570579 
L 267.199384 -117.924298 
L 267.808389 -116.278017 
L 268.477149 -114.631736 
L 269.249126 -112.985455 
L 270.139335 -111.339174 
L 271.099198 -109.692893 
L 272.027413 -108.046612 
L 272.89497 -106.400331 
L 273.821384 -104.75405 
L 274.910202 -103.107769 
L 276.090594 -101.461488 
L 277.190523 -99.815207 
L 278.086602 -98.168926 
L 278.767947 -96.522645 
L 279.309608 -94.876364 
L 279.808545 -93.230083 
L 280.302149 -91.583802 
L 280.719469 -89.937521 
L 280.897258 -88.29124 
L 280.678813 -86.644959 
L 280.070353 -84.998678 
L 279.210577 -83.352397 
L 278.18494 -81.706116 
L 277.030881 -80.059835 
L 275.816556 -78.413554 
L 274.574742 -76.767273 
L 273.262717 -75.120992 
L 271.818126 -73.474711 
L 270.256548 -71.82843 
L 268.70288 -70.182149 
L 267.264181 -68.535868 
L 265.962533 -66.889587 
L 264.819022 -65.243306 
L 263.876781 -63.597025 
L 263.136267 -61.950744 
L 262.548906 -60.304463 
L 262.071054 -58.658182 
L 261.689953 -57.011901 
L 261.407814 -55.36562 
L 261.214664 -53.719339 
L 261.083795 -52.073058 
L 260.988854 -50.426777 
L 260.916456 -48.780496 
L 260.864223 -47.134215 
L 260.829978 -45.487934 
L 260.80869 -43.841653 
L 260.796602 -42.195372 
L 260.791147 -40.549091 
z
" id="m84fb316c1f" style="stroke:#4c4c4c;stroke-width:1.5;"/>
    </defs>
    <g clip-path="url(#pbb2d9155e9)">
     <use style="fill:#df7f20;stroke:#4c4c4c;stroke-width:1.5;" x="0" xlink:href="#m84fb316c1f" y="216"/>
    </g>
   </g>
   <g id="matplotlib.axis_9">
    <g id="xtick_5">
     <g id="line2d_13">
      <g>
       <use style="stroke:#000000;stroke-width:0.8;" x="260.788966" xlink:href="#mefef7e6c29" y="183.6"/>
      </g>
     </g>
     <g id="text_5">
      <!-- Rosetta -->
      <defs>
       <path d="M 44.390625 34.1875 
Q 47.5625 33.109375 50.5625 29.59375 
Q 53.5625 26.078125 56.59375 19.921875 
L 66.609375 0 
L 56 0 
L 46.6875 18.703125 
Q 43.0625 26.03125 39.671875 28.421875 
Q 36.28125 30.8125 30.421875 30.8125 
L 19.671875 30.8125 
L 19.671875 0 
L 9.8125 0 
L 9.8125 72.90625 
L 32.078125 72.90625 
Q 44.578125 72.90625 50.734375 67.671875 
Q 56.890625 62.453125 56.890625 51.90625 
Q 56.890625 45.015625 53.6875 40.46875 
Q 50.484375 35.9375 44.390625 34.1875 
z
M 19.671875 64.796875 
L 19.671875 38.921875 
L 32.078125 38.921875 
Q 39.203125 38.921875 42.84375 42.21875 
Q 46.484375 45.515625 46.484375 51.90625 
Q 46.484375 58.296875 42.84375 61.546875 
Q 39.203125 64.796875 32.078125 64.796875 
z
" id="DejaVuSans-82"/>
       <path d="M 44.28125 53.078125 
L 44.28125 44.578125 
Q 40.484375 46.53125 36.375 47.5 
Q 32.28125 48.484375 27.875 48.484375 
Q 21.1875 48.484375 17.84375 46.4375 
Q 14.5 44.390625 14.5 40.28125 
Q 14.5 37.15625 16.890625 35.375 
Q 19.28125 33.59375 26.515625 31.984375 
L 29.59375 31.296875 
Q 39.15625 29.25 43.1875 25.515625 
Q 47.21875 21.78125 47.21875 15.09375 
Q 47.21875 7.46875 41.1875 3.015625 
Q 35.15625 -1.421875 24.609375 -1.421875 
Q 20.21875 -1.421875 15.453125 -0.5625 
Q 10.6875 0.296875 5.421875 2 
L 5.421875 11.28125 
Q 10.40625 8.6875 15.234375 7.390625 
Q 20.0625 6.109375 24.8125 6.109375 
Q 31.15625 6.109375 34.5625 8.28125 
Q 37.984375 10.453125 37.984375 14.40625 
Q 37.984375 18.0625 35.515625 20.015625 
Q 33.0625 21.96875 24.703125 23.78125 
L 21.578125 24.515625 
Q 13.234375 26.265625 9.515625 29.90625 
Q 5.8125 33.546875 5.8125 39.890625 
Q 5.8125 47.609375 11.28125 51.796875 
Q 16.75 56 26.8125 56 
Q 31.78125 56 36.171875 55.265625 
Q 40.578125 54.546875 44.28125 53.078125 
z
" id="DejaVuSans-115"/>
       <path d="M 18.3125 70.21875 
L 18.3125 54.6875 
L 36.8125 54.6875 
L 36.8125 47.703125 
L 18.3125 47.703125 
L 18.3125 18.015625 
Q 18.3125 11.328125 20.140625 9.421875 
Q 21.96875 7.515625 27.59375 7.515625 
L 36.8125 7.515625 
L 36.8125 0 
L 27.59375 0 
Q 17.1875 0 13.234375 3.875 
Q 9.28125 7.765625 9.28125 18.015625 
L 9.28125 47.703125 
L 2.6875 47.703125 
L 2.6875 54.6875 
L 9.28125 54.6875 
L 9.28125 70.21875 
z
" id="DejaVuSans-116"/>
      </defs>
      <g transform="translate(241.814747 198.198438)scale(0.1 -0.1)">
       <use xlink:href="#DejaVuSans-82"/>
       <use x="64.982422" xlink:href="#DejaVuSans-111"/>
       <use x="126.164062" xlink:href="#DejaVuSans-115"/>
       <use x="178.263672" xlink:href="#DejaVuSans-101"/>
       <use x="239.787109" xlink:href="#DejaVuSans-116"/>
       <use x="278.996094" xlink:href="#DejaVuSans-116"/>
       <use x="318.205078" xlink:href="#DejaVuSans-97"/>
      </g>
      <!-- (score) -->
      <defs>
       <path d="M 48.78125 52.59375 
L 48.78125 44.1875 
Q 44.96875 46.296875 41.140625 47.34375 
Q 37.3125 48.390625 33.40625 48.390625 
Q 24.65625 48.390625 19.8125 42.84375 
Q 14.984375 37.3125 14.984375 27.296875 
Q 14.984375 17.28125 19.8125 11.734375 
Q 24.65625 6.203125 33.40625 6.203125 
Q 37.3125 6.203125 41.140625 7.25 
Q 44.96875 8.296875 48.78125 10.40625 
L 48.78125 2.09375 
Q 45.015625 0.34375 40.984375 -0.53125 
Q 36.96875 -1.421875 32.421875 -1.421875 
Q 20.0625 -1.421875 12.78125 6.34375 
Q 5.515625 14.109375 5.515625 27.296875 
Q 5.515625 40.671875 12.859375 48.328125 
Q 20.21875 56 33.015625 56 
Q 37.15625 56 41.109375 55.140625 
Q 45.0625 54.296875 48.78125 52.59375 
z
" id="DejaVuSans-99"/>
      </defs>
      <g transform="translate(243.454591 209.39625)scale(0.1 -0.1)">
       <use xlink:href="#DejaVuSans-40"/>
       <use x="39.013672" xlink:href="#DejaVuSans-115"/>
       <use x="91.113281" xlink:href="#DejaVuSans-99"/>
       <use x="146.09375" xlink:href="#DejaVuSans-111"/>
       <use x="207.275391" xlink:href="#DejaVuSans-114"/>
       <use x="246.138672" xlink:href="#DejaVuSans-101"/>
       <use x="307.662109" xlink:href="#DejaVuSans-41"/>
      </g>
     </g>
    </g>
   </g>
   <g id="matplotlib.axis_10"/>
   <g id="LineCollection_5">
    <path clip-path="url(#pbb2d9155e9)" d="M 238.669843 135.589581 
L 282.908088 135.589581 
" style="fill:none;stroke:#000000;stroke-dasharray:1.5,2.475;stroke-dashoffset:0;stroke-width:1.5;"/>
   </g>
   <g id="line2d_14">
    <path clip-path="url(#pbb2d9155e9)" d="M 260.788966 168.354616 
L 260.788966 76.012191 
" style="fill:none;stroke:#4c4c4c;stroke-linecap:square;stroke-width:1.5;"/>
   </g>
   <g id="line2d_15">
    <path clip-path="url(#pbb2d9155e9)" d="M 260.788966 133.729267 
L 260.788966 110.631419 
" style="fill:none;stroke:#4c4c4c;stroke-linecap:square;stroke-width:4.5;"/>
   </g>
   <g id="patch_15">
    <path d="M 236.457931 183.6 
L 285.12 183.6 
" style="fill:none;stroke:#000000;stroke-linecap:square;stroke-linejoin:miter;stroke-width:0.8;"/>
   </g>
   <g id="patch_16">
    <path d="M 236.457931 4.32 
L 285.12 4.32 
" style="fill:none;stroke:#000000;stroke-linecap:square;stroke-linejoin:miter;stroke-width:0.8;"/>
   </g>
   <g id="PathCollection_5">
    <g clip-path="url(#pbb2d9155e9)">
     <use style="fill:#ffffff;stroke:#4c4c4c;" x="260.788966" xlink:href="#m7c0d370343" y="123.268825"/>
    </g>
   </g>
  </g>
 </g>
 <defs>
  <clipPath id="p3e09345640">
   <rect height="179.28" width="48.662069" x="2.88" y="4.32"/>
  </clipPath>
  <clipPath id="p9f5b739d19">
   <rect height="179.28" width="48.662069" x="61.274483" y="4.32"/>
  </clipPath>
  <clipPath id="pf8e248967c">
   <rect height="179.28" width="48.662069" x="119.668966" y="4.32"/>
  </clipPath>
  <clipPath id="p68778e2fac">
   <rect height="179.28" width="48.662069" x="178.063448" y="4.32"/>
  </clipPath>
  <clipPath id="pbb2d9155e9">
   <rect height="179.28" width="48.662069" x="236.457931" y="4.32"/>
  </clipPath>
 </defs>
</svg>
