<?xml version="1.0" encoding="utf-8" standalone="no"?>
<!DOCTYPE svg PUBLIC "-//W3C//DTD SVG 1.1//EN"
  "http://www.w3.org/Graphics/SVG/1.1/DTD/svg11.dtd">
<!-- Created with matplotlib (https://matplotlib.org/) -->
<svg height="216pt" version="1.1" viewBox="0 0 288 216" width="288pt" xmlns="http://www.w3.org/2000/svg" xmlns:xlink="http://www.w3.org/1999/xlink">
 <defs>
  <style type="text/css">
*{stroke-linecap:butt;stroke-linejoin:round;}
  </style>
 </defs>
 <g id="figure_1">
  <g id="patch_1">
   <path d="M 0 216 
L 288 216 
L 288 0 
L 0 0 
z
" style="fill:#ffffff;"/>
  </g>
  <g id="axes_1">
   <g id="patch_2">
    <path d="M 2.88 183.6 
L 51.542069 183.6 
L 51.542069 4.32 
L 2.88 4.32 
z
" style="fill:#ffffff;"/>
   </g>
   <g id="PolyCollection_1">
    <defs>
     <path d="M 27.214517 -40.549091 
L 27.207552 -40.549091 
L 27.082206 -42.195372 
L 26.13727 -43.841653 
L 23.392201 -45.487934 
L 19.162963 -47.134215 
L 15.029526 -48.780496 
L 11.756489 -50.426777 
L 9.288873 -52.073058 
L 7.789492 -53.719339 
L 7.102742 -55.36562 
L 8.158983 -57.011901 
L 9.971846 -58.658182 
L 12.593151 -60.304463 
L 14.859461 -61.950744 
L 16.918567 -63.597025 
L 19.177302 -65.243306 
L 21.749441 -66.889587 
L 23.135411 -68.535868 
L 24.339144 -70.182149 
L 25.205778 -71.82843 
L 25.763151 -73.474711 
L 26.330343 -75.120992 
L 26.664795 -76.767273 
L 26.850058 -78.413554 
L 26.999633 -80.059835 
L 27.049605 -81.706116 
L 27.124515 -83.352397 
L 27.173148 -84.998678 
L 27.165993 -86.644959 
L 27.193453 -88.29124 
L 27.204358 -89.937521 
L 27.206802 -91.583802 
L 27.198347 -93.230083 
L 27.198057 -94.876364 
L 27.207891 -96.522645 
L 27.210978 -98.168926 
L 27.211034 -99.815207 
L 27.211034 -101.461488 
L 27.211034 -103.107769 
L 27.211034 -104.75405 
L 27.211034 -106.400331 
L 27.211034 -108.046612 
L 27.211034 -109.692893 
L 27.211034 -111.339174 
L 27.211034 -112.985455 
L 27.211034 -114.631736 
L 27.211034 -116.278017 
L 27.211034 -117.924298 
L 27.211034 -119.570579 
L 27.211034 -121.21686 
L 27.211034 -122.86314 
L 27.211034 -124.509421 
L 27.211034 -126.155702 
L 27.211034 -127.801983 
L 27.211034 -129.448264 
L 27.211034 -131.094545 
L 27.211034 -132.740826 
L 27.211034 -134.387107 
L 27.211034 -136.033388 
L 27.211034 -137.679669 
L 27.211034 -139.32595 
L 27.211034 -140.972231 
L 27.211034 -142.618512 
L 27.211034 -144.264793 
L 27.211034 -145.911074 
L 27.211034 -147.557355 
L 27.211034 -149.203636 
L 27.211034 -150.849917 
L 27.211034 -152.496198 
L 27.211034 -154.142479 
L 27.211034 -155.78876 
L 27.211034 -157.435041 
L 27.211034 -159.081322 
L 27.211034 -160.727603 
L 27.211034 -162.373884 
L 27.211034 -164.020165 
L 27.211034 -165.666446 
L 27.211034 -167.312727 
L 27.211034 -168.959008 
L 27.211034 -170.605289 
L 27.211034 -172.25157 
L 27.211034 -173.897851 
L 27.211034 -175.544132 
L 27.211034 -177.190413 
L 27.211034 -178.836694 
L 27.211034 -180.482975 
L 27.211034 -182.129256 
L 27.211034 -183.775537 
L 27.211034 -185.421818 
L 27.211034 -187.068099 
L 27.211034 -188.71438 
L 27.211034 -190.360661 
L 27.211034 -192.006942 
L 27.211034 -193.653223 
L 27.211034 -195.299504 
L 27.211034 -196.945785 
L 27.211012 -198.592066 
L 27.209044 -200.238347 
L 27.204079 -201.884628 
L 27.210074 -203.530909 
L 27.211995 -203.530909 
L 27.211995 -203.530909 
L 27.21799 -201.884628 
L 27.213025 -200.238347 
L 27.211057 -198.592066 
L 27.211034 -196.945785 
L 27.211034 -195.299504 
L 27.211034 -193.653223 
L 27.211034 -192.006942 
L 27.211034 -190.360661 
L 27.211034 -188.71438 
L 27.211034 -187.068099 
L 27.211034 -185.421818 
L 27.211034 -183.775537 
L 27.211034 -182.129256 
L 27.211034 -180.482975 
L 27.211034 -178.836694 
L 27.211034 -177.190413 
L 27.211034 -175.544132 
L 27.211034 -173.897851 
L 27.211034 -172.25157 
L 27.211034 -170.605289 
L 27.211034 -168.959008 
L 27.211034 -167.312727 
L 27.211034 -165.666446 
L 27.211034 -164.020165 
L 27.211034 -162.373884 
L 27.211034 -160.727603 
L 27.211034 -159.081322 
L 27.211034 -157.435041 
L 27.211034 -155.78876 
L 27.211034 -154.142479 
L 27.211034 -152.496198 
L 27.211034 -150.849917 
L 27.211034 -149.203636 
L 27.211034 -147.557355 
L 27.211034 -145.911074 
L 27.211034 -144.264793 
L 27.211034 -142.618512 
L 27.211034 -140.972231 
L 27.211034 -139.32595 
L 27.211034 -137.679669 
L 27.211034 -136.033388 
L 27.211034 -134.387107 
L 27.211034 -132.740826 
L 27.211034 -131.094545 
L 27.211034 -129.448264 
L 27.211034 -127.801983 
L 27.211034 -126.155702 
L 27.211034 -124.509421 
L 27.211034 -122.86314 
L 27.211034 -121.21686 
L 27.211034 -119.570579 
L 27.211034 -117.924298 
L 27.211034 -116.278017 
L 27.211034 -114.631736 
L 27.211034 -112.985455 
L 27.211034 -111.339174 
L 27.211034 -109.692893 
L 27.211034 -108.046612 
L 27.211034 -106.400331 
L 27.211034 -104.75405 
L 27.211034 -103.107769 
L 27.211034 -101.461488 
L 27.211035 -99.815207 
L 27.211091 -98.168926 
L 27.214178 -96.522645 
L 27.224012 -94.876364 
L 27.223721 -93.230083 
L 27.215267 -91.583802 
L 27.217711 -89.937521 
L 27.228615 -88.29124 
L 27.256076 -86.644959 
L 27.248921 -84.998678 
L 27.297554 -83.352397 
L 27.372464 -81.706116 
L 27.422436 -80.059835 
L 27.572011 -78.413554 
L 27.757274 -76.767273 
L 28.091726 -75.120992 
L 28.658917 -73.474711 
L 29.216291 -71.82843 
L 30.082925 -70.182149 
L 31.286658 -68.535868 
L 32.672628 -66.889587 
L 35.244767 -65.243306 
L 37.503502 -63.597025 
L 39.562608 -61.950744 
L 41.828918 -60.304463 
L 44.450223 -58.658182 
L 46.263086 -57.011901 
L 47.319327 -55.36562 
L 46.632577 -53.719339 
L 45.133196 -52.073058 
L 42.66558 -50.426777 
L 39.392543 -48.780496 
L 35.259105 -47.134215 
L 31.029868 -45.487934 
L 28.284799 -43.841653 
L 27.339863 -42.195372 
L 27.214517 -40.549091 
z
" id="m257ee7a757" style="stroke:#4c4c4c;stroke-width:1.5;"/>
    </defs>
    <g clip-path="url(#p7c640cecdc)">
     <use style="fill:#cb3335;stroke:#4c4c4c;stroke-width:1.5;" x="0" xlink:href="#m257ee7a757" y="216"/>
    </g>
   </g>
   <g id="matplotlib.axis_1">
    <g id="xtick_1">
     <g id="line2d_1">
      <defs>
       <path d="M 0 0 
L 0 3.5 
" id="m63585c44d9" style="stroke:#000000;stroke-width:0.8;"/>
      </defs>
      <g>
       <use style="stroke:#000000;stroke-width:0.8;" x="27.211034" xlink:href="#m63585c44d9" y="183.6"/>
      </g>
     </g>
     <g id="text_1">
      <!-- Modeller -->
      <defs>
       <path d="M 9.8125 72.90625 
L 24.515625 72.90625 
L 43.109375 23.296875 
L 61.8125 72.90625 
L 76.515625 72.90625 
L 76.515625 0 
L 66.890625 0 
L 66.890625 64.015625 
L 48.09375 14.015625 
L 38.1875 14.015625 
L 19.390625 64.015625 
L 19.390625 0 
L 9.8125 0 
z
" id="DejaVuSans-77"/>
       <path d="M 30.609375 48.390625 
Q 23.390625 48.390625 19.1875 42.75 
Q 14.984375 37.109375 14.984375 27.296875 
Q 14.984375 17.484375 19.15625 11.84375 
Q 23.34375 6.203125 30.609375 6.203125 
Q 37.796875 6.203125 41.984375 11.859375 
Q 46.1875 17.53125 46.1875 27.296875 
Q 46.1875 37.015625 41.984375 42.703125 
Q 37.796875 48.390625 30.609375 48.390625 
z
M 30.609375 56 
Q 42.328125 56 49.015625 48.375 
Q 55.71875 40.765625 55.71875 27.296875 
Q 55.71875 13.875 49.015625 6.21875 
Q 42.328125 -1.421875 30.609375 -1.421875 
Q 18.84375 -1.421875 12.171875 6.21875 
Q 5.515625 13.875 5.515625 27.296875 
Q 5.515625 40.765625 12.171875 48.375 
Q 18.84375 56 30.609375 56 
z
" id="DejaVuSans-111"/>
       <path d="M 45.40625 46.390625 
L 45.40625 75.984375 
L 54.390625 75.984375 
L 54.390625 0 
L 45.40625 0 
L 45.40625 8.203125 
Q 42.578125 3.328125 38.25 0.953125 
Q 33.9375 -1.421875 27.875 -1.421875 
Q 17.96875 -1.421875 11.734375 6.484375 
Q 5.515625 14.40625 5.515625 27.296875 
Q 5.515625 40.1875 11.734375 48.09375 
Q 17.96875 56 27.875 56 
Q 33.9375 56 38.25 53.625 
Q 42.578125 51.265625 45.40625 46.390625 
z
M 14.796875 27.296875 
Q 14.796875 17.390625 18.875 11.75 
Q 22.953125 6.109375 30.078125 6.109375 
Q 37.203125 6.109375 41.296875 11.75 
Q 45.40625 17.390625 45.40625 27.296875 
Q 45.40625 37.203125 41.296875 42.84375 
Q 37.203125 48.484375 30.078125 48.484375 
Q 22.953125 48.484375 18.875 42.84375 
Q 14.796875 37.203125 14.796875 27.296875 
z
" id="DejaVuSans-100"/>
       <path d="M 56.203125 29.59375 
L 56.203125 25.203125 
L 14.890625 25.203125 
Q 15.484375 15.921875 20.484375 11.0625 
Q 25.484375 6.203125 34.421875 6.203125 
Q 39.59375 6.203125 44.453125 7.46875 
Q 49.3125 8.734375 54.109375 11.28125 
L 54.109375 2.78125 
Q 49.265625 0.734375 44.1875 -0.34375 
Q 39.109375 -1.421875 33.890625 -1.421875 
Q 20.796875 -1.421875 13.15625 6.1875 
Q 5.515625 13.8125 5.515625 26.8125 
Q 5.515625 40.234375 12.765625 48.109375 
Q 20.015625 56 32.328125 56 
Q 43.359375 56 49.78125 48.890625 
Q 56.203125 41.796875 56.203125 29.59375 
z
M 47.21875 32.234375 
Q 47.125 39.59375 43.09375 43.984375 
Q 39.0625 48.390625 32.421875 48.390625 
Q 24.90625 48.390625 20.390625 44.140625 
Q 15.875 39.890625 15.1875 32.171875 
z
" id="DejaVuSans-101"/>
       <path d="M 9.421875 75.984375 
L 18.40625 75.984375 
L 18.40625 0 
L 9.421875 0 
z
" id="DejaVuSans-108"/>
       <path d="M 41.109375 46.296875 
Q 39.59375 47.171875 37.8125 47.578125 
Q 36.03125 48 33.890625 48 
Q 26.265625 48 22.1875 43.046875 
Q 18.109375 38.09375 18.109375 28.8125 
L 18.109375 0 
L 9.078125 0 
L 9.078125 54.6875 
L 18.109375 54.6875 
L 18.109375 46.1875 
Q 20.953125 51.171875 25.484375 53.578125 
Q 30.03125 56 36.53125 56 
Q 37.453125 56 38.578125 55.875 
Q 39.703125 55.765625 41.0625 55.515625 
z
" id="DejaVuSans-114"/>
      </defs>
      <g transform="translate(5.676659 198.198438)scale(0.1 -0.1)">
       <use xlink:href="#DejaVuSans-77"/>
       <use x="86.279297" xlink:href="#DejaVuSans-111"/>
       <use x="147.460938" xlink:href="#DejaVuSans-100"/>
       <use x="210.9375" xlink:href="#DejaVuSans-101"/>
       <use x="272.460938" xlink:href="#DejaVuSans-108"/>
       <use x="300.244141" xlink:href="#DejaVuSans-108"/>
       <use x="328.027344" xlink:href="#DejaVuSans-101"/>
       <use x="389.550781" xlink:href="#DejaVuSans-114"/>
      </g>
      <!-- (molpdf) -->
      <defs>
       <path d="M 31 75.875 
Q 24.46875 64.65625 21.28125 53.65625 
Q 18.109375 42.671875 18.109375 31.390625 
Q 18.109375 20.125 21.3125 9.0625 
Q 24.515625 -2 31 -13.1875 
L 23.1875 -13.1875 
Q 15.875 -1.703125 12.234375 9.375 
Q 8.59375 20.453125 8.59375 31.390625 
Q 8.59375 42.28125 12.203125 53.3125 
Q 15.828125 64.359375 23.1875 75.875 
z
" id="DejaVuSans-40"/>
       <path d="M 52 44.1875 
Q 55.375 50.25 60.0625 53.125 
Q 64.75 56 71.09375 56 
Q 79.640625 56 84.28125 50.015625 
Q 88.921875 44.046875 88.921875 33.015625 
L 88.921875 0 
L 79.890625 0 
L 79.890625 32.71875 
Q 79.890625 40.578125 77.09375 44.375 
Q 74.3125 48.1875 68.609375 48.1875 
Q 61.625 48.1875 57.5625 43.546875 
Q 53.515625 38.921875 53.515625 30.90625 
L 53.515625 0 
L 44.484375 0 
L 44.484375 32.71875 
Q 44.484375 40.625 41.703125 44.40625 
Q 38.921875 48.1875 33.109375 48.1875 
Q 26.21875 48.1875 22.15625 43.53125 
Q 18.109375 38.875 18.109375 30.90625 
L 18.109375 0 
L 9.078125 0 
L 9.078125 54.6875 
L 18.109375 54.6875 
L 18.109375 46.1875 
Q 21.1875 51.21875 25.484375 53.609375 
Q 29.78125 56 35.6875 56 
Q 41.65625 56 45.828125 52.96875 
Q 50 49.953125 52 44.1875 
z
" id="DejaVuSans-109"/>
       <path d="M 18.109375 8.203125 
L 18.109375 -20.796875 
L 9.078125 -20.796875 
L 9.078125 54.6875 
L 18.109375 54.6875 
L 18.109375 46.390625 
Q 20.953125 51.265625 25.265625 53.625 
Q 29.59375 56 35.59375 56 
Q 45.5625 56 51.78125 48.09375 
Q 58.015625 40.1875 58.015625 27.296875 
Q 58.015625 14.40625 51.78125 6.484375 
Q 45.5625 -1.421875 35.59375 -1.421875 
Q 29.59375 -1.421875 25.265625 0.953125 
Q 20.953125 3.328125 18.109375 8.203125 
z
M 48.6875 27.296875 
Q 48.6875 37.203125 44.609375 42.84375 
Q 40.53125 48.484375 33.40625 48.484375 
Q 26.265625 48.484375 22.1875 42.84375 
Q 18.109375 37.203125 18.109375 27.296875 
Q 18.109375 17.390625 22.1875 11.75 
Q 26.265625 6.109375 33.40625 6.109375 
Q 40.53125 6.109375 44.609375 11.75 
Q 48.6875 17.390625 48.6875 27.296875 
z
" id="DejaVuSans-112"/>
       <path d="M 37.109375 75.984375 
L 37.109375 68.5 
L 28.515625 68.5 
Q 23.6875 68.5 21.796875 66.546875 
Q 19.921875 64.59375 19.921875 59.515625 
L 19.921875 54.6875 
L 34.71875 54.6875 
L 34.71875 47.703125 
L 19.921875 47.703125 
L 19.921875 0 
L 10.890625 0 
L 10.890625 47.703125 
L 2.296875 47.703125 
L 2.296875 54.6875 
L 10.890625 54.6875 
L 10.890625 58.5 
Q 10.890625 67.625 15.140625 71.796875 
Q 19.390625 75.984375 28.609375 75.984375 
z
" id="DejaVuSans-102"/>
       <path d="M 8.015625 75.875 
L 15.828125 75.875 
Q 23.140625 64.359375 26.78125 53.3125 
Q 30.421875 42.28125 30.421875 31.390625 
Q 30.421875 20.453125 26.78125 9.375 
Q 23.140625 -1.703125 15.828125 -13.1875 
L 8.015625 -13.1875 
Q 14.5 -2 17.703125 9.0625 
Q 20.90625 20.125 20.90625 31.390625 
Q 20.90625 42.671875 17.703125 53.65625 
Q 14.5 64.65625 8.015625 75.875 
z
" id="DejaVuSans-41"/>
      </defs>
      <g transform="translate(5.882128 209.39625)scale(0.1 -0.1)">
       <use xlink:href="#DejaVuSans-40"/>
       <use x="39.013672" xlink:href="#DejaVuSans-109"/>
       <use x="136.425781" xlink:href="#DejaVuSans-111"/>
       <use x="197.607422" xlink:href="#DejaVuSans-108"/>
       <use x="225.390625" xlink:href="#DejaVuSans-112"/>
       <use x="288.867188" xlink:href="#DejaVuSans-100"/>
       <use x="352.34375" xlink:href="#DejaVuSans-102"/>
       <use x="387.548828" xlink:href="#DejaVuSans-41"/>
      </g>
     </g>
    </g>
   </g>
   <g id="matplotlib.axis_2"/>
   <g id="LineCollection_1">
    <path clip-path="url(#p7c640cecdc)" d="M 5.091912 157.947741 
L 49.330157 157.947741 
" style="fill:none;stroke:#000000;stroke-dasharray:1.5,2.475;stroke-dashoffset:0;stroke-width:1.5;"/>
   </g>
   <g id="line2d_2">
    <path clip-path="url(#p7c640cecdc)" d="M 27.211034 173.619089 
L 27.211034 141.509084 
" style="fill:none;stroke:#4c4c4c;stroke-linecap:square;stroke-width:1.5;"/>
   </g>
   <g id="line2d_3">
    <path clip-path="url(#p7c640cecdc)" d="M 27.211034 163.919401 
L 27.211034 154.950913 
" style="fill:none;stroke:#4c4c4c;stroke-linecap:square;stroke-width:4.5;"/>
   </g>
   <g id="patch_3">
    <path d="M 2.88 183.6 
L 51.542069 183.6 
" style="fill:none;stroke:#000000;stroke-linecap:square;stroke-linejoin:miter;stroke-width:0.8;"/>
   </g>
   <g id="patch_4">
    <path d="M 2.88 4.32 
L 51.542069 4.32 
" style="fill:none;stroke:#000000;stroke-linecap:square;stroke-linejoin:miter;stroke-width:0.8;"/>
   </g>
   <g id="PathCollection_1">
    <defs>
     <path d="M 0 1.5 
C 0.397805 1.5 0.77937 1.341951 1.06066 1.06066 
C 1.341951 0.77937 1.5 0.397805 1.5 0 
C 1.5 -0.397805 1.341951 -0.77937 1.06066 -1.06066 
C 0.77937 -1.341951 0.397805 -1.5 0 -1.5 
C -0.397805 -1.5 -0.77937 -1.341951 -1.06066 -1.06066 
C -1.341951 -0.77937 -1.5 -0.397805 -1.5 0 
C -1.5 0.397805 -1.341951 0.77937 -1.06066 1.06066 
C -0.77937 1.341951 -0.397805 1.5 0 1.5 
z
" id="m167c6ba4eb" style="stroke:#4c4c4c;"/>
    </defs>
    <g clip-path="url(#p7c640cecdc)">
     <use style="fill:#ffffff;stroke:#4c4c4c;" x="27.211034" xlink:href="#m167c6ba4eb" y="159.760805"/>
    </g>
   </g>
  </g>
  <g id="axes_2">
   <g id="patch_5">
    <path d="M 61.274483 183.6 
L 109.936552 183.6 
L 109.936552 4.32 
L 61.274483 4.32 
z
" style="fill:#ffffff;"/>
   </g>
   <g id="PolyCollection_2">
    <defs>
     <path d="M 85.606533 -40.549091 
L 85.604502 -40.549091 
L 85.60272 -42.195372 
L 85.600044 -43.841653 
L 85.597676 -45.487934 
L 85.596288 -47.134215 
L 85.593556 -48.780496 
L 85.584301 -50.426777 
L 85.562652 -52.073058 
L 85.523995 -53.719339 
L 85.468874 -55.36562 
L 85.405894 -57.011901 
L 85.343198 -58.658182 
L 85.274312 -60.304463 
L 85.178431 -61.950744 
L 85.034498 -63.597025 
L 84.833471 -65.243306 
L 84.586258 -66.889587 
L 84.321592 -68.535868 
L 84.060199 -70.182149 
L 83.787249 -71.82843 
L 83.465777 -73.474711 
L 83.078238 -75.120992 
L 82.6393 -76.767273 
L 82.161357 -78.413554 
L 81.619475 -80.059835 
L 80.967787 -81.706116 
L 80.192022 -83.352397 
L 79.333816 -84.998678 
L 78.446486 -86.644959 
L 77.534634 -88.29124 
L 76.577273 -89.937521 
L 75.608106 -91.583802 
L 74.722289 -93.230083 
L 73.975656 -94.876364 
L 73.297885 -96.522645 
L 72.547261 -98.168926 
L 71.650274 -99.815207 
L 70.652461 -101.461488 
L 69.644835 -103.107769 
L 68.686361 -104.75405 
L 67.803108 -106.400331 
L 67.033142 -108.046612 
L 66.435166 -109.692893 
L 66.035109 -111.339174 
L 65.797262 -112.985455 
L 65.657952 -114.631736 
L 65.561743 -116.278017 
L 65.497224 -117.924298 
L 65.526269 -119.570579 
L 65.736043 -121.21686 
L 66.13858 -122.86314 
L 66.652845 -124.509421 
L 67.198746 -126.155702 
L 67.77257 -127.801983 
L 68.435504 -129.448264 
L 69.265258 -131.094545 
L 70.291828 -132.740826 
L 71.446768 -134.387107 
L 72.599339 -136.033388 
L 73.648986 -137.679669 
L 74.564902 -139.32595 
L 75.371146 -140.972231 
L 76.133172 -142.618512 
L 76.93748 -144.264793 
L 77.841284 -145.911074 
L 78.815724 -147.557355 
L 79.748086 -149.203636 
L 80.526389 -150.849917 
L 81.137571 -152.496198 
L 81.679219 -154.142479 
L 82.248456 -155.78876 
L 82.832774 -157.435041 
L 83.348809 -159.081322 
L 83.7511 -160.727603 
L 84.058001 -162.373884 
L 84.305321 -164.020165 
L 84.51311 -165.666446 
L 84.688477 -167.312727 
L 84.837091 -168.959008 
L 84.965319 -170.605289 
L 85.076967 -172.25157 
L 85.171317 -173.897851 
L 85.248721 -175.544132 
L 85.315007 -177.190413 
L 85.374652 -178.836694 
L 85.427322 -180.482975 
L 85.472251 -182.129256 
L 85.508639 -183.775537 
L 85.534865 -185.421818 
L 85.551957 -187.068099 
L 85.564707 -188.71438 
L 85.576427 -190.360661 
L 85.585708 -192.006942 
L 85.590546 -193.653223 
L 85.59217 -195.299504 
L 85.593382 -196.945785 
L 85.595848 -198.592066 
L 85.599353 -200.238347 
L 85.602547 -201.884628 
L 85.604472 -203.530909 
L 85.606563 -203.530909 
L 85.606563 -203.530909 
L 85.608488 -201.884628 
L 85.611681 -200.238347 
L 85.615187 -198.592066 
L 85.617653 -196.945785 
L 85.618864 -195.299504 
L 85.620488 -193.653223 
L 85.625326 -192.006942 
L 85.634607 -190.360661 
L 85.646328 -188.71438 
L 85.659077 -187.068099 
L 85.67617 -185.421818 
L 85.702395 -183.775537 
L 85.738783 -182.129256 
L 85.783712 -180.482975 
L 85.836383 -178.836694 
L 85.896027 -177.190413 
L 85.962314 -175.544132 
L 86.039718 -173.897851 
L 86.134068 -172.25157 
L 86.245715 -170.605289 
L 86.373943 -168.959008 
L 86.522558 -167.312727 
L 86.697925 -165.666446 
L 86.905713 -164.020165 
L 87.153034 -162.373884 
L 87.459934 -160.727603 
L 87.862225 -159.081322 
L 88.37826 -157.435041 
L 88.962578 -155.78876 
L 89.531815 -154.142479 
L 90.073464 -152.496198 
L 90.684645 -150.849917 
L 91.462948 -149.203636 
L 92.39531 -147.557355 
L 93.36975 -145.911074 
L 94.273555 -144.264793 
L 95.077862 -142.618512 
L 95.839888 -140.972231 
L 96.646133 -139.32595 
L 97.562049 -137.679669 
L 98.611696 -136.033388 
L 99.764266 -134.387107 
L 100.919207 -132.740826 
L 101.945776 -131.094545 
L 102.77553 -129.448264 
L 103.438464 -127.801983 
L 104.012289 -126.155702 
L 104.558189 -124.509421 
L 105.072454 -122.86314 
L 105.474992 -121.21686 
L 105.684766 -119.570579 
L 105.71381 -117.924298 
L 105.649292 -116.278017 
L 105.553082 -114.631736 
L 105.413773 -112.985455 
L 105.175926 -111.339174 
L 104.775869 -109.692893 
L 104.177893 -108.046612 
L 103.407927 -106.400331 
L 102.524673 -104.75405 
L 101.5662 -103.107769 
L 100.558573 -101.461488 
L 99.560761 -99.815207 
L 98.663773 -98.168926 
L 97.913149 -96.522645 
L 97.235379 -94.876364 
L 96.488746 -93.230083 
L 95.602928 -91.583802 
L 94.633762 -89.937521 
L 93.6764 -88.29124 
L 92.764549 -86.644959 
L 91.877218 -84.998678 
L 91.019012 -83.352397 
L 90.243248 -81.706116 
L 89.591559 -80.059835 
L 89.049678 -78.413554 
L 88.571734 -76.767273 
L 88.132796 -75.120992 
L 87.745257 -73.474711 
L 87.423785 -71.82843 
L 87.150836 -70.182149 
L 86.889442 -68.535868 
L 86.624777 -66.889587 
L 86.377563 -65.243306 
L 86.176537 -63.597025 
L 86.032603 -61.950744 
L 85.936723 -60.304463 
L 85.867836 -58.658182 
L 85.80514 -57.011901 
L 85.74216 -55.36562 
L 85.68704 -53.719339 
L 85.648382 -52.073058 
L 85.626734 -50.426777 
L 85.617479 -48.780496 
L 85.614746 -47.134215 
L 85.613359 -45.487934 
L 85.61099 -43.841653 
L 85.608314 -42.195372 
L 85.606533 -40.549091 
z
" id="mb1a8e949f2" style="stroke:#484848;stroke-width:1.5;"/>
    </defs>
    <g clip-path="url(#pac485634aa)">
     <use style="fill:#477ca8;stroke:#484848;stroke-width:1.5;" x="0" xlink:href="#mb1a8e949f2" y="216"/>
    </g>
   </g>
   <g id="matplotlib.axis_3">
    <g id="xtick_2">
     <g id="line2d_4">
      <g>
       <use style="stroke:#000000;stroke-width:0.8;" x="85.605517" xlink:href="#m63585c44d9" y="183.6"/>
      </g>
     </g>
     <g id="text_2">
      <!-- Modeller -->
      <g transform="translate(64.071142 198.198438)scale(0.1 -0.1)">
       <use xlink:href="#DejaVuSans-77"/>
       <use x="86.279297" xlink:href="#DejaVuSans-111"/>
       <use x="147.460938" xlink:href="#DejaVuSans-100"/>
       <use x="210.9375" xlink:href="#DejaVuSans-101"/>
       <use x="272.460938" xlink:href="#DejaVuSans-108"/>
       <use x="300.244141" xlink:href="#DejaVuSans-108"/>
       <use x="328.027344" xlink:href="#DejaVuSans-101"/>
       <use x="389.550781" xlink:href="#DejaVuSans-114"/>
      </g>
      <!-- (dope_norm) -->
      <defs>
       <path d="M 50.984375 -16.609375 
L 50.984375 -23.578125 
L -0.984375 -23.578125 
L -0.984375 -16.609375 
z
" id="DejaVuSans-95"/>
       <path d="M 54.890625 33.015625 
L 54.890625 0 
L 45.90625 0 
L 45.90625 32.71875 
Q 45.90625 40.484375 42.875 44.328125 
Q 39.84375 48.1875 33.796875 48.1875 
Q 26.515625 48.1875 22.3125 43.546875 
Q 18.109375 38.921875 18.109375 30.90625 
L 18.109375 0 
L 9.078125 0 
L 9.078125 54.6875 
L 18.109375 54.6875 
L 18.109375 46.1875 
Q 21.34375 51.125 25.703125 53.5625 
Q 30.078125 56 35.796875 56 
Q 45.21875 56 50.046875 50.171875 
Q 54.890625 44.34375 54.890625 33.015625 
z
" id="DejaVuSans-110"/>
      </defs>
      <g transform="translate(53.653173 209.39625)scale(0.1 -0.1)">
       <use xlink:href="#DejaVuSans-40"/>
       <use x="39.013672" xlink:href="#DejaVuSans-100"/>
       <use x="102.490234" xlink:href="#DejaVuSans-111"/>
       <use x="163.671875" xlink:href="#DejaVuSans-112"/>
       <use x="227.148438" xlink:href="#DejaVuSans-101"/>
       <use x="288.671875" xlink:href="#DejaVuSans-95"/>
       <use x="338.671875" xlink:href="#DejaVuSans-110"/>
       <use x="402.050781" xlink:href="#DejaVuSans-111"/>
       <use x="463.232422" xlink:href="#DejaVuSans-114"/>
       <use x="502.595703" xlink:href="#DejaVuSans-109"/>
       <use x="600.007812" xlink:href="#DejaVuSans-41"/>
      </g>
     </g>
    </g>
   </g>
   <g id="matplotlib.axis_4"/>
   <g id="LineCollection_2">
    <path clip-path="url(#pac485634aa)" d="M 63.486395 93.839207 
L 107.724639 93.839207 
" style="fill:none;stroke:#000000;stroke-dasharray:1.5,2.475;stroke-dashoffset:0;stroke-width:1.5;"/>
   </g>
   <g id="line2d_5">
    <path clip-path="url(#pac485634aa)" d="M 85.605517 153.682435 
L 85.605517 44.348657 
" style="fill:none;stroke:#484848;stroke-linecap:square;stroke-width:1.5;"/>
   </g>
   <g id="line2d_6">
    <path clip-path="url(#pac485634aa)" d="M 85.605517 112.73277 
L 85.605517 85.349027 
" style="fill:none;stroke:#484848;stroke-linecap:square;stroke-width:4.5;"/>
   </g>
   <g id="patch_6">
    <path d="M 61.274483 183.6 
L 109.936552 183.6 
" style="fill:none;stroke:#000000;stroke-linecap:square;stroke-linejoin:miter;stroke-width:0.8;"/>
   </g>
   <g id="patch_7">
    <path d="M 61.274483 4.32 
L 109.936552 4.32 
" style="fill:none;stroke:#000000;stroke-linecap:square;stroke-linejoin:miter;stroke-width:0.8;"/>
   </g>
   <g id="PathCollection_2">
    <defs>
     <path d="M 0 1.5 
C 0.397805 1.5 0.77937 1.341951 1.06066 1.06066 
C 1.341951 0.77937 1.5 0.397805 1.5 0 
C 1.5 -0.397805 1.341951 -0.77937 1.06066 -1.06066 
C 0.77937 -1.341951 0.397805 -1.5 0 -1.5 
C -0.397805 -1.5 -0.77937 -1.341951 -1.06066 -1.06066 
C -1.341951 -0.77937 -1.5 -0.397805 -1.5 0 
C -1.5 0.397805 -1.341951 0.77937 -1.06066 1.06066 
C -0.77937 1.341951 -0.397805 1.5 0 1.5 
z
" id="m0e4e739c38" style="stroke:#484848;"/>
    </defs>
    <g clip-path="url(#pac485634aa)">
     <use style="fill:#ffffff;stroke:#484848;" x="85.605517" xlink:href="#m0e4e739c38" y="99.073213"/>
    </g>
   </g>
  </g>
  <g id="axes_3">
   <g id="patch_8">
    <path d="M 119.668966 183.6 
L 168.331034 183.6 
L 168.331034 4.32 
L 119.668966 4.32 
z
" style="fill:#ffffff;"/>
   </g>
   <g id="PolyCollection_3">
    <defs>
     <path d="M 144.000974 -40.549091 
L 143.999026 -40.549091 
L 143.996736 -42.195372 
L 143.993697 -43.841653 
L 143.992984 -45.487934 
L 143.995474 -47.134215 
L 143.998037 -48.780496 
L 143.997704 -50.426777 
L 143.992427 -52.073058 
L 143.981773 -53.719339 
L 143.968825 -55.36562 
L 143.952238 -57.011901 
L 143.924113 -58.658182 
L 143.878658 -60.304463 
L 143.802053 -61.950744 
L 143.679564 -63.597025 
L 143.527025 -65.243306 
L 143.37103 -66.889587 
L 143.198023 -68.535868 
L 142.976561 -70.182149 
L 142.706395 -71.82843 
L 142.362091 -73.474711 
L 141.88791 -75.120992 
L 141.318169 -76.767273 
L 140.746137 -78.413554 
L 140.180192 -80.059835 
L 139.536798 -81.706116 
L 138.714017 -83.352397 
L 137.683284 -84.998678 
L 136.561786 -86.644959 
L 135.496746 -88.29124 
L 134.47489 -89.937521 
L 133.349637 -91.583802 
L 132.073862 -93.230083 
L 130.806857 -94.876364 
L 129.664905 -96.522645 
L 128.603315 -98.168926 
L 127.619194 -99.815207 
L 126.687288 -101.461488 
L 125.738873 -103.107769 
L 124.92701 -104.75405 
L 124.455782 -106.400331 
L 124.209598 -108.046612 
L 123.987187 -109.692893 
L 123.891707 -111.339174 
L 124.121162 -112.985455 
L 124.725889 -114.631736 
L 125.613129 -116.278017 
L 126.575522 -117.924298 
L 127.582658 -119.570579 
L 128.839596 -121.21686 
L 130.353156 -122.86314 
L 131.799884 -124.509421 
L 132.958081 -126.155702 
L 133.938985 -127.801983 
L 134.940797 -129.448264 
L 136.045595 -131.094545 
L 137.159602 -132.740826 
L 138.159331 -134.387107 
L 139.081062 -136.033388 
L 139.959947 -137.679669 
L 140.690889 -139.32595 
L 141.207461 -140.972231 
L 141.624196 -142.618512 
L 142.075518 -144.264793 
L 142.533397 -145.911074 
L 142.900121 -147.557355 
L 143.146 -149.203636 
L 143.300613 -150.849917 
L 143.401276 -152.496198 
L 143.473802 -154.142479 
L 143.549482 -155.78876 
L 143.646133 -157.435041 
L 143.735832 -159.081322 
L 143.792846 -160.727603 
L 143.833866 -162.373884 
L 143.873672 -164.020165 
L 143.899951 -165.666446 
L 143.909716 -167.312727 
L 143.920482 -168.959008 
L 143.939042 -170.605289 
L 143.955057 -172.25157 
L 143.965096 -173.897851 
L 143.974204 -175.544132 
L 143.980766 -177.190413 
L 143.982966 -178.836694 
L 143.986208 -180.482975 
L 143.991374 -182.129256 
L 143.993104 -183.775537 
L 143.990294 -185.421818 
L 143.985391 -187.068099 
L 143.979759 -188.71438 
L 143.977081 -190.360661 
L 143.980286 -192.006942 
L 143.98572 -193.653223 
L 143.989675 -195.299504 
L 143.991371 -196.945785 
L 143.991706 -198.592066 
L 143.993459 -200.238347 
L 143.99671 -201.884628 
L 143.999024 -203.530909 
L 144.000976 -203.530909 
L 144.000976 -203.530909 
L 144.00329 -201.884628 
L 144.006541 -200.238347 
L 144.008294 -198.592066 
L 144.008629 -196.945785 
L 144.010325 -195.299504 
L 144.01428 -193.653223 
L 144.019714 -192.006942 
L 144.022919 -190.360661 
L 144.020241 -188.71438 
L 144.014609 -187.068099 
L 144.009706 -185.421818 
L 144.006896 -183.775537 
L 144.008626 -182.129256 
L 144.013792 -180.482975 
L 144.017034 -178.836694 
L 144.019234 -177.190413 
L 144.025796 -175.544132 
L 144.034904 -173.897851 
L 144.044943 -172.25157 
L 144.060958 -170.605289 
L 144.079518 -168.959008 
L 144.090284 -167.312727 
L 144.100049 -165.666446 
L 144.126328 -164.020165 
L 144.166134 -162.373884 
L 144.207154 -160.727603 
L 144.264168 -159.081322 
L 144.353867 -157.435041 
L 144.450518 -155.78876 
L 144.526198 -154.142479 
L 144.598724 -152.496198 
L 144.699387 -150.849917 
L 144.854 -149.203636 
L 145.099879 -147.557355 
L 145.466603 -145.911074 
L 145.924482 -144.264793 
L 146.375804 -142.618512 
L 146.792539 -140.972231 
L 147.309111 -139.32595 
L 148.040053 -137.679669 
L 148.918938 -136.033388 
L 149.840669 -134.387107 
L 150.840398 -132.740826 
L 151.954405 -131.094545 
L 153.059203 -129.448264 
L 154.061015 -127.801983 
L 155.041919 -126.155702 
L 156.200116 -124.509421 
L 157.646844 -122.86314 
L 159.160404 -121.21686 
L 160.417342 -119.570579 
L 161.424478 -117.924298 
L 162.386871 -116.278017 
L 163.274111 -114.631736 
L 163.878838 -112.985455 
L 164.108293 -111.339174 
L 164.012813 -109.692893 
L 163.790402 -108.046612 
L 163.544218 -106.400331 
L 163.07299 -104.75405 
L 162.261127 -103.107769 
L 161.312712 -101.461488 
L 160.380806 -99.815207 
L 159.396685 -98.168926 
L 158.335095 -96.522645 
L 157.193143 -94.876364 
L 155.926138 -93.230083 
L 154.650363 -91.583802 
L 153.52511 -89.937521 
L 152.503254 -88.29124 
L 151.438214 -86.644959 
L 150.316716 -84.998678 
L 149.285983 -83.352397 
L 148.463202 -81.706116 
L 147.819808 -80.059835 
L 147.253863 -78.413554 
L 146.681831 -76.767273 
L 146.11209 -75.120992 
L 145.637909 -73.474711 
L 145.293605 -71.82843 
L 145.023439 -70.182149 
L 144.801977 -68.535868 
L 144.62897 -66.889587 
L 144.472975 -65.243306 
L 144.320436 -63.597025 
L 144.197947 -61.950744 
L 144.121342 -60.304463 
L 144.075887 -58.658182 
L 144.047762 -57.011901 
L 144.031175 -55.36562 
L 144.018227 -53.719339 
L 144.007573 -52.073058 
L 144.002296 -50.426777 
L 144.001963 -48.780496 
L 144.004526 -47.134215 
L 144.007016 -45.487934 
L 144.006303 -43.841653 
L 144.003264 -42.195372 
L 144.000974 -40.549091 
z
" id="mef127d1964" style="stroke:#4b4b4b;stroke-width:1.5;"/>
    </defs>
    <g clip-path="url(#pe280d95d59)">
     <use style="fill:#59a257;stroke:#4b4b4b;stroke-width:1.5;" x="0" xlink:href="#mef127d1964" y="216"/>
    </g>
   </g>
   <g id="matplotlib.axis_5">
    <g id="xtick_3">
     <g id="line2d_7">
      <g>
       <use style="stroke:#000000;stroke-width:0.8;" x="144" xlink:href="#m63585c44d9" y="183.6"/>
      </g>
     </g>
     <g id="text_3">
      <!-- Modeller -->
      <g transform="translate(122.465625 198.198438)scale(0.1 -0.1)">
       <use xlink:href="#DejaVuSans-77"/>
       <use x="86.279297" xlink:href="#DejaVuSans-111"/>
       <use x="147.460938" xlink:href="#DejaVuSans-100"/>
       <use x="210.9375" xlink:href="#DejaVuSans-101"/>
       <use x="272.460938" xlink:href="#DejaVuSans-108"/>
       <use x="300.244141" xlink:href="#DejaVuSans-108"/>
       <use x="328.027344" xlink:href="#DejaVuSans-101"/>
       <use x="389.550781" xlink:href="#DejaVuSans-114"/>
      </g>
      <!-- (dope_hr) -->
      <defs>
       <path d="M 54.890625 33.015625 
L 54.890625 0 
L 45.90625 0 
L 45.90625 32.71875 
Q 45.90625 40.484375 42.875 44.328125 
Q 39.84375 48.1875 33.796875 48.1875 
Q 26.515625 48.1875 22.3125 43.546875 
Q 18.109375 38.921875 18.109375 30.90625 
L 18.109375 0 
L 9.078125 0 
L 9.078125 75.984375 
L 18.109375 75.984375 
L 18.109375 46.1875 
Q 21.34375 51.125 25.703125 53.5625 
Q 30.078125 56 35.796875 56 
Q 45.21875 56 50.046875 50.171875 
Q 54.890625 44.34375 54.890625 33.015625 
z
" id="DejaVuSans-104"/>
      </defs>
      <g transform="translate(119.889844 209.39625)scale(0.1 -0.1)">
       <use xlink:href="#DejaVuSans-40"/>
       <use x="39.013672" xlink:href="#DejaVuSans-100"/>
       <use x="102.490234" xlink:href="#DejaVuSans-111"/>
       <use x="163.671875" xlink:href="#DejaVuSans-112"/>
       <use x="227.148438" xlink:href="#DejaVuSans-101"/>
       <use x="288.671875" xlink:href="#DejaVuSans-95"/>
       <use x="338.671875" xlink:href="#DejaVuSans-104"/>
       <use x="402.050781" xlink:href="#DejaVuSans-114"/>
       <use x="443.164062" xlink:href="#DejaVuSans-41"/>
      </g>
     </g>
    </g>
   </g>
   <g id="matplotlib.axis_6"/>
   <g id="LineCollection_3">
    <path clip-path="url(#pe280d95d59)" d="M 121.880878 94.116922 
L 166.119122 94.116922 
" style="fill:none;stroke:#000000;stroke-dasharray:1.5,2.475;stroke-dashoffset:0;stroke-width:1.5;"/>
   </g>
   <g id="line2d_8">
    <path clip-path="url(#pe280d95d59)" d="M 144 149.163435 
L 144 64.102784 
" style="fill:none;stroke:#4b4b4b;stroke-linecap:square;stroke-width:1.5;"/>
   </g>
   <g id="line2d_9">
    <path clip-path="url(#pe280d95d59)" d="M 144 117.316166 
L 144 96.028688 
" style="fill:none;stroke:#4b4b4b;stroke-linecap:square;stroke-width:4.5;"/>
   </g>
   <g id="patch_9">
    <path d="M 119.668966 183.6 
L 168.331034 183.6 
" style="fill:none;stroke:#000000;stroke-linecap:square;stroke-linejoin:miter;stroke-width:0.8;"/>
   </g>
   <g id="patch_10">
    <path d="M 119.668966 4.32 
L 168.331034 4.32 
" style="fill:none;stroke:#000000;stroke-linecap:square;stroke-linejoin:miter;stroke-width:0.8;"/>
   </g>
   <g id="PathCollection_3">
    <defs>
     <path d="M 0 1.5 
C 0.397805 1.5 0.77937 1.341951 1.06066 1.06066 
C 1.341951 0.77937 1.5 0.397805 1.5 0 
C 1.5 -0.397805 1.341951 -0.77937 1.06066 -1.06066 
C 0.77937 -1.341951 0.397805 -1.5 0 -1.5 
C -0.397805 -1.5 -0.77937 -1.341951 -1.06066 -1.06066 
C -1.341951 -0.77937 -1.5 -0.397805 -1.5 0 
C -1.5 0.397805 -1.341951 0.77937 -1.06066 1.06066 
C -0.77937 1.341951 -0.397805 1.5 0 1.5 
z
" id="m482be74668" style="stroke:#4b4b4b;"/>
    </defs>
    <g clip-path="url(#pe280d95d59)">
     <use style="fill:#ffffff;stroke:#4b4b4b;" x="144" xlink:href="#m482be74668" y="106.463927"/>
    </g>
   </g>
  </g>
  <g id="axes_4">
   <g id="patch_11">
    <path d="M 178.063448 183.6 
L 226.725517 183.6 
L 226.725517 4.32 
L 178.063448 4.32 
z
" style="fill:#ffffff;"/>
   </g>
   <g id="PolyCollection_4">
    <defs>
     <path d="M 202.395511 -40.549091 
L 202.393455 -40.549091 
L 202.391484 -42.195372 
L 202.388601 -43.841653 
L 202.386531 -45.487934 
L 202.386226 -47.134215 
L 202.385357 -48.780496 
L 202.380135 -50.426777 
L 202.368365 -52.073058 
L 202.349656 -53.719339 
L 202.324767 -55.36562 
L 202.293156 -57.011901 
L 202.246382 -58.658182 
L 202.166217 -60.304463 
L 202.036302 -61.950744 
L 201.853637 -63.597025 
L 201.628341 -65.243306 
L 201.380309 -66.889587 
L 201.121107 -68.535868 
L 200.825342 -70.182149 
L 200.448143 -71.82843 
L 199.980367 -73.474711 
L 199.44907 -75.120992 
L 198.851122 -76.767273 
L 198.1211 -78.413554 
L 197.192579 -80.059835 
L 196.080302 -81.706116 
L 194.903682 -83.352397 
L 193.823995 -84.998678 
L 192.908143 -86.644959 
L 192.080719 -88.29124 
L 191.257493 -89.937521 
L 190.437862 -91.583802 
L 189.616172 -93.230083 
L 188.732831 -94.876364 
L 187.780179 -96.522645 
L 186.839463 -98.168926 
L 185.960408 -99.815207 
L 185.099242 -101.461488 
L 184.214104 -103.107769 
L 183.365169 -104.75405 
L 182.697394 -106.400331 
L 182.335441 -108.046612 
L 182.28619 -109.692893 
L 182.445139 -111.339174 
L 182.693077 -112.985455 
L 182.929245 -114.631736 
L 183.071036 -116.278017 
L 183.168411 -117.924298 
L 183.447124 -119.570579 
L 184.07588 -121.21686 
L 184.970026 -122.86314 
L 185.944505 -124.509421 
L 186.934068 -126.155702 
L 187.949125 -127.801983 
L 188.922734 -129.448264 
L 189.748274 -131.094545 
L 190.455752 -132.740826 
L 191.228531 -134.387107 
L 192.205946 -136.033388 
L 193.325152 -137.679669 
L 194.399438 -139.32595 
L 195.310984 -140.972231 
L 196.083034 -142.618512 
L 196.808478 -144.264793 
L 197.558547 -145.911074 
L 198.329866 -147.557355 
L 199.052529 -149.203636 
L 199.668853 -150.849917 
L 200.181554 -152.496198 
L 200.609668 -154.142479 
L 200.95191 -155.78876 
L 201.20849 -157.435041 
L 201.40301 -159.081322 
L 201.573279 -160.727603 
L 201.74092 -162.373884 
L 201.898774 -164.020165 
L 202.034784 -165.666446 
L 202.145019 -167.312727 
L 202.225046 -168.959008 
L 202.272513 -170.605289 
L 202.293575 -172.25157 
L 202.300758 -173.897851 
L 202.307954 -175.544132 
L 202.322598 -177.190413 
L 202.341062 -178.836694 
L 202.356149 -180.482975 
L 202.366733 -182.129256 
L 202.376031 -183.775537 
L 202.384689 -185.421818 
L 202.390627 -187.068099 
L 202.393005 -188.71438 
L 202.392543 -190.360661 
L 202.389926 -192.006942 
L 202.386187 -193.653223 
L 202.383195 -195.299504 
L 202.382437 -196.945785 
L 202.384237 -198.592066 
L 202.387786 -200.238347 
L 202.391299 -201.884628 
L 202.393427 -203.530909 
L 202.395538 -203.530909 
L 202.395538 -203.530909 
L 202.397667 -201.884628 
L 202.40118 -200.238347 
L 202.404728 -198.592066 
L 202.406529 -196.945785 
L 202.40577 -195.299504 
L 202.402778 -193.653223 
L 202.399039 -192.006942 
L 202.396422 -190.360661 
L 202.39596 -188.71438 
L 202.398338 -187.068099 
L 202.404276 -185.421818 
L 202.412935 -183.775537 
L 202.422233 -182.129256 
L 202.432817 -180.482975 
L 202.447904 -178.836694 
L 202.466367 -177.190413 
L 202.481012 -175.544132 
L 202.488207 -173.897851 
L 202.49539 -172.25157 
L 202.516453 -170.605289 
L 202.56392 -168.959008 
L 202.643947 -167.312727 
L 202.754182 -165.666446 
L 202.890192 -164.020165 
L 203.048045 -162.373884 
L 203.215687 -160.727603 
L 203.385955 -159.081322 
L 203.580476 -157.435041 
L 203.837056 -155.78876 
L 204.179298 -154.142479 
L 204.607412 -152.496198 
L 205.120112 -150.849917 
L 205.736436 -149.203636 
L 206.459099 -147.557355 
L 207.230419 -145.911074 
L 207.980488 -144.264793 
L 208.705932 -142.618512 
L 209.477981 -140.972231 
L 210.389527 -139.32595 
L 211.463813 -137.679669 
L 212.58302 -136.033388 
L 213.560435 -134.387107 
L 214.333213 -132.740826 
L 215.040691 -131.094545 
L 215.866231 -129.448264 
L 216.83984 -127.801983 
L 217.854898 -126.155702 
L 218.84446 -124.509421 
L 219.81894 -122.86314 
L 220.713085 -121.21686 
L 221.341841 -119.570579 
L 221.620555 -117.924298 
L 221.717929 -116.278017 
L 221.85972 -114.631736 
L 222.095888 -112.985455 
L 222.343827 -111.339174 
L 222.502776 -109.692893 
L 222.453524 -108.046612 
L 222.091572 -106.400331 
L 221.423796 -104.75405 
L 220.574862 -103.107769 
L 219.689724 -101.461488 
L 218.828558 -99.815207 
L 217.949502 -98.168926 
L 217.008786 -96.522645 
L 216.056135 -94.876364 
L 215.172793 -93.230083 
L 214.351104 -91.583802 
L 213.531473 -89.937521 
L 212.708247 -88.29124 
L 211.880822 -86.644959 
L 210.964971 -84.998678 
L 209.885283 -83.352397 
L 208.708663 -81.706116 
L 207.596387 -80.059835 
L 206.667865 -78.413554 
L 205.937843 -76.767273 
L 205.339896 -75.120992 
L 204.808599 -73.474711 
L 204.340823 -71.82843 
L 203.963623 -70.182149 
L 203.667859 -68.535868 
L 203.408657 -66.889587 
L 203.160624 -65.243306 
L 202.935328 -63.597025 
L 202.752663 -61.950744 
L 202.622749 -60.304463 
L 202.542584 -58.658182 
L 202.49581 -57.011901 
L 202.464198 -55.36562 
L 202.439309 -53.719339 
L 202.4206 -52.073058 
L 202.408831 -50.426777 
L 202.403608 -48.780496 
L 202.402739 -47.134215 
L 202.402435 -45.487934 
L 202.400365 -43.841653 
L 202.397482 -42.195372 
L 202.395511 -40.549091 
z
" id="m816fe6bb5d" style="stroke:#484848;stroke-width:1.5;"/>
    </defs>
    <g clip-path="url(#p87490b3d7a)">
     <use style="fill:#905998;stroke:#484848;stroke-width:1.5;" x="0" xlink:href="#m816fe6bb5d" y="216"/>
    </g>
   </g>
   <g id="matplotlib.axis_7">
    <g id="xtick_4">
     <g id="line2d_10">
      <g>
       <use style="stroke:#000000;stroke-width:0.8;" x="202.394483" xlink:href="#m63585c44d9" y="183.6"/>
      </g>
     </g>
     <g id="text_4">
      <!-- Modeller -->
      <g transform="translate(180.860108 198.198438)scale(0.1 -0.1)">
       <use xlink:href="#DejaVuSans-77"/>
       <use x="86.279297" xlink:href="#DejaVuSans-111"/>
       <use x="147.460938" xlink:href="#DejaVuSans-100"/>
       <use x="210.9375" xlink:href="#DejaVuSans-101"/>
       <use x="272.460938" xlink:href="#DejaVuSans-108"/>
       <use x="300.244141" xlink:href="#DejaVuSans-108"/>
       <use x="328.027344" xlink:href="#DejaVuSans-101"/>
       <use x="389.550781" xlink:href="#DejaVuSans-114"/>
      </g>
      <!-- (ga341) -->
      <defs>
       <path d="M 45.40625 27.984375 
Q 45.40625 37.75 41.375 43.109375 
Q 37.359375 48.484375 30.078125 48.484375 
Q 22.859375 48.484375 18.828125 43.109375 
Q 14.796875 37.75 14.796875 27.984375 
Q 14.796875 18.265625 18.828125 12.890625 
Q 22.859375 7.515625 30.078125 7.515625 
Q 37.359375 7.515625 41.375 12.890625 
Q 45.40625 18.265625 45.40625 27.984375 
z
M 54.390625 6.78125 
Q 54.390625 -7.171875 48.1875 -13.984375 
Q 42 -20.796875 29.203125 -20.796875 
Q 24.46875 -20.796875 20.265625 -20.09375 
Q 16.0625 -19.390625 12.109375 -17.921875 
L 12.109375 -9.1875 
Q 16.0625 -11.328125 19.921875 -12.34375 
Q 23.78125 -13.375 27.78125 -13.375 
Q 36.625 -13.375 41.015625 -8.765625 
Q 45.40625 -4.15625 45.40625 5.171875 
L 45.40625 9.625 
Q 42.625 4.78125 38.28125 2.390625 
Q 33.9375 0 27.875 0 
Q 17.828125 0 11.671875 7.65625 
Q 5.515625 15.328125 5.515625 27.984375 
Q 5.515625 40.671875 11.671875 48.328125 
Q 17.828125 56 27.875 56 
Q 33.9375 56 38.28125 53.609375 
Q 42.625 51.21875 45.40625 46.390625 
L 45.40625 54.6875 
L 54.390625 54.6875 
z
" id="DejaVuSans-103"/>
       <path d="M 34.28125 27.484375 
Q 23.390625 27.484375 19.1875 25 
Q 14.984375 22.515625 14.984375 16.5 
Q 14.984375 11.71875 18.140625 8.90625 
Q 21.296875 6.109375 26.703125 6.109375 
Q 34.1875 6.109375 38.703125 11.40625 
Q 43.21875 16.703125 43.21875 25.484375 
L 43.21875 27.484375 
z
M 52.203125 31.203125 
L 52.203125 0 
L 43.21875 0 
L 43.21875 8.296875 
Q 40.140625 3.328125 35.546875 0.953125 
Q 30.953125 -1.421875 24.3125 -1.421875 
Q 15.921875 -1.421875 10.953125 3.296875 
Q 6 8.015625 6 15.921875 
Q 6 25.140625 12.171875 29.828125 
Q 18.359375 34.515625 30.609375 34.515625 
L 43.21875 34.515625 
L 43.21875 35.40625 
Q 43.21875 41.609375 39.140625 45 
Q 35.0625 48.390625 27.6875 48.390625 
Q 23 48.390625 18.546875 47.265625 
Q 14.109375 46.140625 10.015625 43.890625 
L 10.015625 52.203125 
Q 14.9375 54.109375 19.578125 55.046875 
Q 24.21875 56 28.609375 56 
Q 40.484375 56 46.34375 49.84375 
Q 52.203125 43.703125 52.203125 31.203125 
z
" id="DejaVuSans-97"/>
       <path d="M 40.578125 39.3125 
Q 47.65625 37.796875 51.625 33 
Q 55.609375 28.21875 55.609375 21.1875 
Q 55.609375 10.40625 48.1875 4.484375 
Q 40.765625 -1.421875 27.09375 -1.421875 
Q 22.515625 -1.421875 17.65625 -0.515625 
Q 12.796875 0.390625 7.625 2.203125 
L 7.625 11.71875 
Q 11.71875 9.328125 16.59375 8.109375 
Q 21.484375 6.890625 26.8125 6.890625 
Q 36.078125 6.890625 40.9375 10.546875 
Q 45.796875 14.203125 45.796875 21.1875 
Q 45.796875 27.640625 41.28125 31.265625 
Q 36.765625 34.90625 28.71875 34.90625 
L 20.21875 34.90625 
L 20.21875 43.015625 
L 29.109375 43.015625 
Q 36.375 43.015625 40.234375 45.921875 
Q 44.09375 48.828125 44.09375 54.296875 
Q 44.09375 59.90625 40.109375 62.90625 
Q 36.140625 65.921875 28.71875 65.921875 
Q 24.65625 65.921875 20.015625 65.03125 
Q 15.375 64.15625 9.8125 62.3125 
L 9.8125 71.09375 
Q 15.4375 72.65625 20.34375 73.4375 
Q 25.25 74.21875 29.59375 74.21875 
Q 40.828125 74.21875 47.359375 69.109375 
Q 53.90625 64.015625 53.90625 55.328125 
Q 53.90625 49.265625 50.4375 45.09375 
Q 46.96875 40.921875 40.578125 39.3125 
z
" id="DejaVuSans-51"/>
       <path d="M 37.796875 64.3125 
L 12.890625 25.390625 
L 37.796875 25.390625 
z
M 35.203125 72.90625 
L 47.609375 72.90625 
L 47.609375 25.390625 
L 58.015625 25.390625 
L 58.015625 17.1875 
L 47.609375 17.1875 
L 47.609375 0 
L 37.796875 0 
L 37.796875 17.1875 
L 4.890625 17.1875 
L 4.890625 26.703125 
z
" id="DejaVuSans-52"/>
       <path d="M 12.40625 8.296875 
L 28.515625 8.296875 
L 28.515625 63.921875 
L 10.984375 60.40625 
L 10.984375 69.390625 
L 28.421875 72.90625 
L 38.28125 72.90625 
L 38.28125 8.296875 
L 54.390625 8.296875 
L 54.390625 0 
L 12.40625 0 
z
" id="DejaVuSans-49"/>
      </defs>
      <g transform="translate(182.710889 209.39625)scale(0.1 -0.1)">
       <use xlink:href="#DejaVuSans-40"/>
       <use x="39.013672" xlink:href="#DejaVuSans-103"/>
       <use x="102.490234" xlink:href="#DejaVuSans-97"/>
       <use x="163.769531" xlink:href="#DejaVuSans-51"/>
       <use x="227.392578" xlink:href="#DejaVuSans-52"/>
       <use x="291.015625" xlink:href="#DejaVuSans-49"/>
       <use x="354.638672" xlink:href="#DejaVuSans-41"/>
      </g>
     </g>
    </g>
   </g>
   <g id="matplotlib.axis_8"/>
   <g id="LineCollection_4">
    <path clip-path="url(#p87490b3d7a)" d="M 180.275361 114.877194 
L 224.513605 114.877194 
" style="fill:none;stroke:#000000;stroke-dasharray:1.5,2.475;stroke-dashoffset:0;stroke-width:1.5;"/>
   </g>
   <g id="line2d_11">
    <path clip-path="url(#p87490b3d7a)" d="M 202.394483 155.484009 
L 202.394483 51.471905 
" style="fill:none;stroke:#484848;stroke-linecap:square;stroke-width:1.5;"/>
   </g>
   <g id="line2d_12">
    <path clip-path="url(#p87490b3d7a)" d="M 202.394483 116.774174 
L 202.394483 90.609507 
" style="fill:none;stroke:#484848;stroke-linecap:square;stroke-width:4.5;"/>
   </g>
   <g id="patch_12">
    <path d="M 178.063448 183.6 
L 226.725517 183.6 
" style="fill:none;stroke:#000000;stroke-linecap:square;stroke-linejoin:miter;stroke-width:0.8;"/>
   </g>
   <g id="patch_13">
    <path d="M 178.063448 4.32 
L 226.725517 4.32 
" style="fill:none;stroke:#000000;stroke-linecap:square;stroke-linejoin:miter;stroke-width:0.8;"/>
   </g>
   <g id="PathCollection_4">
    <g clip-path="url(#p87490b3d7a)">
     <use style="fill:#ffffff;stroke:#484848;" x="202.394483" xlink:href="#m0e4e739c38" y="103.835395"/>
    </g>
   </g>
  </g>
  <g id="axes_5">
   <g id="patch_14">
    <path d="M 236.457931 183.6 
L 285.12 183.6 
L 285.12 4.32 
L 236.457931 4.32 
z
" style="fill:#ffffff;"/>
   </g>
   <g id="PolyCollection_5">
    <defs>
     <path d="M 260.79007 -40.549091 
L 260.787861 -40.549091 
L 260.785335 -42.195372 
L 260.781262 -43.841653 
L 260.776705 -45.487934 
L 260.770155 -47.134215 
L 260.760126 -48.780496 
L 260.751715 -50.426777 
L 260.746639 -52.073058 
L 260.728179 -53.719339 
L 260.663519 -55.36562 
L 260.514407 -57.011901 
L 260.250218 -58.658182 
L 259.862352 -60.304463 
L 259.364361 -61.950744 
L 258.760256 -63.597025 
L 258.010143 -65.243306 
L 257.065069 -66.889587 
L 255.910089 -68.535868 
L 254.52628 -70.182149 
L 252.917633 -71.82843 
L 251.197038 -73.474711 
L 249.460489 -75.120992 
L 247.669711 -76.767273 
L 245.875457 -78.413554 
L 244.324916 -80.059835 
L 243.172307 -81.706116 
L 242.280405 -83.352397 
L 241.488827 -84.998678 
L 240.913172 -86.644959 
L 240.680673 -88.29124 
L 240.701096 -89.937521 
L 240.931526 -91.583802 
L 241.450119 -93.230083 
L 242.211745 -94.876364 
L 243.031315 -96.522645 
L 243.786946 -98.168926 
L 244.521275 -99.815207 
L 245.347711 -101.461488 
L 246.309726 -103.107769 
L 247.351863 -104.75405 
L 248.381235 -106.400331 
L 249.327463 -108.046612 
L 250.157859 -109.692893 
L 250.878291 -111.339174 
L 251.573201 -112.985455 
L 252.376064 -114.631736 
L 253.326568 -116.278017 
L 254.312099 -117.924298 
L 255.175593 -119.570579 
L 255.874866 -121.21686 
L 256.468493 -122.86314 
L 256.993867 -124.509421 
L 257.460846 -126.155702 
L 257.884737 -127.801983 
L 258.282926 -129.448264 
L 258.667801 -131.094545 
L 259.023937 -132.740826 
L 259.315827 -134.387107 
L 259.53349 -136.033388 
L 259.703456 -137.679669 
L 259.855679 -139.32595 
L 259.992397 -140.972231 
L 260.103024 -142.618512 
L 260.201152 -144.264793 
L 260.308358 -145.911074 
L 260.418459 -147.557355 
L 260.509749 -149.203636 
L 260.576093 -150.849917 
L 260.628946 -152.496198 
L 260.673429 -154.142479 
L 260.702884 -155.78876 
L 260.716348 -157.435041 
L 260.718507 -159.081322 
L 260.711721 -160.727603 
L 260.705262 -162.373884 
L 260.712091 -164.020165 
L 260.730072 -165.666446 
L 260.748053 -167.312727 
L 260.761906 -168.959008 
L 260.770965 -170.605289 
L 260.774007 -172.25157 
L 260.773795 -173.897851 
L 260.77552 -175.544132 
L 260.780361 -177.190413 
L 260.785257 -178.836694 
L 260.78775 -180.482975 
L 260.787531 -182.129256 
L 260.784092 -183.775537 
L 260.777632 -185.421818 
L 260.772945 -187.068099 
L 260.77525 -188.71438 
L 260.781846 -190.360661 
L 260.786633 -192.006942 
L 260.787904 -193.653223 
L 260.786465 -195.299504 
L 260.783257 -196.945785 
L 260.780937 -198.592066 
L 260.782132 -200.238347 
L 260.785448 -201.884628 
L 260.78787 -203.530909 
L 260.790061 -203.530909 
L 260.790061 -203.530909 
L 260.792483 -201.884628 
L 260.795799 -200.238347 
L 260.796994 -198.592066 
L 260.794674 -196.945785 
L 260.791466 -195.299504 
L 260.790027 -193.653223 
L 260.791298 -192.006942 
L 260.796085 -190.360661 
L 260.802681 -188.71438 
L 260.804986 -187.068099 
L 260.800299 -185.421818 
L 260.793839 -183.775537 
L 260.7904 -182.129256 
L 260.790181 -180.482975 
L 260.792674 -178.836694 
L 260.79757 -177.190413 
L 260.802411 -175.544132 
L 260.804136 -173.897851 
L 260.803924 -172.25157 
L 260.806966 -170.605289 
L 260.816025 -168.959008 
L 260.829878 -167.312727 
L 260.847859 -165.666446 
L 260.86584 -164.020165 
L 260.872669 -162.373884 
L 260.86621 -160.727603 
L 260.859424 -159.081322 
L 260.861583 -157.435041 
L 260.875048 -155.78876 
L 260.904503 -154.142479 
L 260.948985 -152.496198 
L 261.001838 -150.849917 
L 261.068183 -149.203636 
L 261.159472 -147.557355 
L 261.269573 -145.911074 
L 261.376779 -144.264793 
L 261.474907 -142.618512 
L 261.585534 -140.972231 
L 261.722252 -139.32595 
L 261.874475 -137.679669 
L 262.044441 -136.033388 
L 262.262104 -134.387107 
L 262.553994 -132.740826 
L 262.910131 -131.094545 
L 263.295005 -129.448264 
L 263.693194 -127.801983 
L 264.117085 -126.155702 
L 264.584065 -124.509421 
L 265.109438 -122.86314 
L 265.703065 -121.21686 
L 266.402338 -119.570579 
L 267.265832 -117.924298 
L 268.251363 -116.278017 
L 269.201867 -114.631736 
L 270.00473 -112.985455 
L 270.69964 -111.339174 
L 271.420072 -109.692893 
L 272.250468 -108.046612 
L 273.196696 -106.400331 
L 274.226068 -104.75405 
L 275.268205 -103.107769 
L 276.23022 -101.461488 
L 277.056656 -99.815207 
L 277.790985 -98.168926 
L 278.546616 -96.522645 
L 279.366186 -94.876364 
L 280.127812 -93.230083 
L 280.646405 -91.583802 
L 280.876835 -89.937521 
L 280.897258 -88.29124 
L 280.664759 -86.644959 
L 280.089104 -84.998678 
L 279.297526 -83.352397 
L 278.405624 -81.706116 
L 277.253015 -80.059835 
L 275.702474 -78.413554 
L 273.90822 -76.767273 
L 272.117442 -75.120992 
L 270.380893 -73.474711 
L 268.660298 -71.82843 
L 267.051651 -70.182149 
L 265.667842 -68.535868 
L 264.512862 -66.889587 
L 263.567788 -65.243306 
L 262.817675 -63.597025 
L 262.21357 -61.950744 
L 261.715579 -60.304463 
L 261.327713 -58.658182 
L 261.063524 -57.011901 
L 260.914412 -55.36562 
L 260.849752 -53.719339 
L 260.831293 -52.073058 
L 260.826216 -50.426777 
L 260.817806 -48.780496 
L 260.807776 -47.134215 
L 260.801226 -45.487934 
L 260.796669 -43.841653 
L 260.792596 -42.195372 
L 260.79007 -40.549091 
z
" id="m6d7345ee68" style="stroke:#4c4c4c;stroke-width:1.5;"/>
    </defs>
    <g clip-path="url(#p8378911c95)">
     <use style="fill:#df7f20;stroke:#4c4c4c;stroke-width:1.5;" x="0" xlink:href="#m6d7345ee68" y="216"/>
    </g>
   </g>
   <g id="matplotlib.axis_9">
    <g id="xtick_5">
     <g id="line2d_13">
      <g>
       <use style="stroke:#000000;stroke-width:0.8;" x="260.788966" xlink:href="#m63585c44d9" y="183.6"/>
      </g>
     </g>
     <g id="text_5">
      <!-- Rosetta -->
      <defs>
       <path d="M 44.390625 34.1875 
Q 47.5625 33.109375 50.5625 29.59375 
Q 53.5625 26.078125 56.59375 19.921875 
L 66.609375 0 
L 56 0 
L 46.6875 18.703125 
Q 43.0625 26.03125 39.671875 28.421875 
Q 36.28125 30.8125 30.421875 30.8125 
L 19.671875 30.8125 
L 19.671875 0 
L 9.8125 0 
L 9.8125 72.90625 
L 32.078125 72.90625 
Q 44.578125 72.90625 50.734375 67.671875 
Q 56.890625 62.453125 56.890625 51.90625 
Q 56.890625 45.015625 53.6875 40.46875 
Q 50.484375 35.9375 44.390625 34.1875 
z
M 19.671875 64.796875 
L 19.671875 38.921875 
L 32.078125 38.921875 
Q 39.203125 38.921875 42.84375 42.21875 
Q 46.484375 45.515625 46.484375 51.90625 
Q 46.484375 58.296875 42.84375 61.546875 
Q 39.203125 64.796875 32.078125 64.796875 
z
" id="DejaVuSans-82"/>
       <path d="M 44.28125 53.078125 
L 44.28125 44.578125 
Q 40.484375 46.53125 36.375 47.5 
Q 32.28125 48.484375 27.875 48.484375 
Q 21.1875 48.484375 17.84375 46.4375 
Q 14.5 44.390625 14.5 40.28125 
Q 14.5 37.15625 16.890625 35.375 
Q 19.28125 33.59375 26.515625 31.984375 
L 29.59375 31.296875 
Q 39.15625 29.25 43.1875 25.515625 
Q 47.21875 21.78125 47.21875 15.09375 
Q 47.21875 7.46875 41.1875 3.015625 
Q 35.15625 -1.421875 24.609375 -1.421875 
Q 20.21875 -1.421875 15.453125 -0.5625 
Q 10.6875 0.296875 5.421875 2 
L 5.421875 11.28125 
Q 10.40625 8.6875 15.234375 7.390625 
Q 20.0625 6.109375 24.8125 6.109375 
Q 31.15625 6.109375 34.5625 8.28125 
Q 37.984375 10.453125 37.984375 14.40625 
Q 37.984375 18.0625 35.515625 20.015625 
Q 33.0625 21.96875 24.703125 23.78125 
L 21.578125 24.515625 
Q 13.234375 26.265625 9.515625 29.90625 
Q 5.8125 33.546875 5.8125 39.890625 
Q 5.8125 47.609375 11.28125 51.796875 
Q 16.75 56 26.8125 56 
Q 31.78125 56 36.171875 55.265625 
Q 40.578125 54.546875 44.28125 53.078125 
z
" id="DejaVuSans-115"/>
       <path d="M 18.3125 70.21875 
L 18.3125 54.6875 
L 36.8125 54.6875 
L 36.8125 47.703125 
L 18.3125 47.703125 
L 18.3125 18.015625 
Q 18.3125 11.328125 20.140625 9.421875 
Q 21.96875 7.515625 27.59375 7.515625 
L 36.8125 7.515625 
L 36.8125 0 
L 27.59375 0 
Q 17.1875 0 13.234375 3.875 
Q 9.28125 7.765625 9.28125 18.015625 
L 9.28125 47.703125 
L 2.6875 47.703125 
L 2.6875 54.6875 
L 9.28125 54.6875 
L 9.28125 70.21875 
z
" id="DejaVuSans-116"/>
      </defs>
      <g transform="translate(241.814747 198.198438)scale(0.1 -0.1)">
       <use xlink:href="#DejaVuSans-82"/>
       <use x="64.982422" xlink:href="#DejaVuSans-111"/>
       <use x="126.164062" xlink:href="#DejaVuSans-115"/>
       <use x="178.263672" xlink:href="#DejaVuSans-101"/>
       <use x="239.787109" xlink:href="#DejaVuSans-116"/>
       <use x="278.996094" xlink:href="#DejaVuSans-116"/>
       <use x="318.205078" xlink:href="#DejaVuSans-97"/>
      </g>
      <!-- (score) -->
      <defs>
       <path d="M 48.78125 52.59375 
L 48.78125 44.1875 
Q 44.96875 46.296875 41.140625 47.34375 
Q 37.3125 48.390625 33.40625 48.390625 
Q 24.65625 48.390625 19.8125 42.84375 
Q 14.984375 37.3125 14.984375 27.296875 
Q 14.984375 17.28125 19.8125 11.734375 
Q 24.65625 6.203125 33.40625 6.203125 
Q 37.3125 6.203125 41.140625 7.25 
Q 44.96875 8.296875 48.78125 10.40625 
L 48.78125 2.09375 
Q 45.015625 0.34375 40.984375 -0.53125 
Q 36.96875 -1.421875 32.421875 -1.421875 
Q 20.0625 -1.421875 12.78125 6.34375 
Q 5.515625 14.109375 5.515625 27.296875 
Q 5.515625 40.671875 12.859375 48.328125 
Q 20.21875 56 33.015625 56 
Q 37.15625 56 41.109375 55.140625 
Q 45.0625 54.296875 48.78125 52.59375 
z
" id="DejaVuSans-99"/>
      </defs>
      <g transform="translate(243.454591 209.39625)scale(0.1 -0.1)">
       <use xlink:href="#DejaVuSans-40"/>
       <use x="39.013672" xlink:href="#DejaVuSans-115"/>
       <use x="91.113281" xlink:href="#DejaVuSans-99"/>
       <use x="146.09375" xlink:href="#DejaVuSans-111"/>
       <use x="207.275391" xlink:href="#DejaVuSans-114"/>
       <use x="246.138672" xlink:href="#DejaVuSans-101"/>
       <use x="307.662109" xlink:href="#DejaVuSans-41"/>
      </g>
     </g>
    </g>
   </g>
   <g id="matplotlib.axis_10"/>
   <g id="LineCollection_5">
    <path clip-path="url(#p8378911c95)" d="M 238.669843 136.77434 
L 282.908088 136.77434 
" style="fill:none;stroke:#000000;stroke-dasharray:1.5,2.475;stroke-dashoffset:0;stroke-width:1.5;"/>
   </g>
   <g id="line2d_14">
    <path clip-path="url(#p8378911c95)" d="M 260.788966 165.611078 
L 260.788966 78.242131 
" style="fill:none;stroke:#4c4c4c;stroke-linecap:square;stroke-width:1.5;"/>
   </g>
   <g id="line2d_15">
    <path clip-path="url(#p8378911c95)" d="M 260.788966 132.859122 
L 260.788966 111.007766 
" style="fill:none;stroke:#4c4c4c;stroke-linecap:square;stroke-width:4.5;"/>
   </g>
   <g id="patch_15">
    <path d="M 236.457931 183.6 
L 285.12 183.6 
" style="fill:none;stroke:#000000;stroke-linecap:square;stroke-linejoin:miter;stroke-width:0.8;"/>
   </g>
   <g id="patch_16">
    <path d="M 236.457931 4.32 
L 285.12 4.32 
" style="fill:none;stroke:#000000;stroke-linecap:square;stroke-linejoin:miter;stroke-width:0.8;"/>
   </g>
   <g id="PathCollection_5">
    <g clip-path="url(#p8378911c95)">
     <use style="fill:#ffffff;stroke:#4c4c4c;" x="260.788966" xlink:href="#m167c6ba4eb" y="122.920608"/>
    </g>
   </g>
  </g>
 </g>
 <defs>
  <clipPath id="p7c640cecdc">
   <rect height="179.28" width="48.662069" x="2.88" y="4.32"/>
  </clipPath>
  <clipPath id="pac485634aa">
   <rect height="179.28" width="48.662069" x="61.274483" y="4.32"/>
  </clipPath>
  <clipPath id="pe280d95d59">
   <rect height="179.28" width="48.662069" x="119.668966" y="4.32"/>
  </clipPath>
  <clipPath id="p87490b3d7a">
   <rect height="179.28" width="48.662069" x="178.063448" y="4.32"/>
  </clipPath>
  <clipPath id="p8378911c95">
   <rect height="179.28" width="48.662069" x="236.457931" y="4.32"/>
  </clipPath>
 </defs>
</svg>
