<?xml version="1.0" encoding="utf-8" standalone="no"?>
<!DOCTYPE svg PUBLIC "-//W3C//DTD SVG 1.1//EN"
  "http://www.w3.org/Graphics/SVG/1.1/DTD/svg11.dtd">
<!-- Created with matplotlib (https://matplotlib.org/) -->
<svg height="216pt" version="1.1" viewBox="0 0 396 216" width="396pt" xmlns="http://www.w3.org/2000/svg" xmlns:xlink="http://www.w3.org/1999/xlink">
 <defs>
  <style type="text/css">
*{stroke-linecap:butt;stroke-linejoin:round;}
  </style>
 </defs>
 <g id="figure_1">
  <g id="patch_1">
   <path d="M 0 216 
L 396 216 
L 396 0 
L 0 0 
z
" style="fill:#ffffff;"/>
  </g>
  <g id="axes_1">
   <g id="patch_2">
    <path d="M 49.5 189 
L 102.413793 189 
L 102.413793 25.92 
L 49.5 25.92 
z
" style="fill:#ffffff;"/>
   </g>
   <g id="PolyCollection_1">
    <defs>
     <path d="M 75.957369 -34.412727 
L 75.956424 -34.412727 
L 75.953693 -35.910248 
L 75.940014 -37.407769 
L 75.789469 -38.905289 
L 74.866997 -40.40281 
L 71.84163 -41.900331 
L 66.115467 -43.397851 
L 59.330961 -44.895372 
L 54.541157 -46.392893 
L 54.091693 -47.890413 
L 57.422589 -49.387934 
L 62.274428 -50.885455 
L 66.780726 -52.382975 
L 70.022057 -53.880496 
L 72.302476 -55.378017 
L 73.758375 -56.875537 
L 74.697892 -58.373058 
L 75.274268 -59.870579 
L 75.601273 -61.368099 
L 75.772916 -62.86562 
L 75.882813 -64.36314 
L 75.923463 -65.860661 
L 75.943405 -67.358182 
L 75.952129 -68.855702 
L 75.954812 -70.353223 
L 75.956675 -71.850744 
L 75.956892 -73.348264 
L 75.956897 -74.845785 
L 75.956897 -76.343306 
L 75.956897 -77.840826 
L 75.956897 -79.338347 
L 75.956897 -80.835868 
L 75.956897 -82.333388 
L 75.956897 -83.830909 
L 75.956897 -85.32843 
L 75.956897 -86.82595 
L 75.956897 -88.323471 
L 75.956897 -89.820992 
L 75.956897 -91.318512 
L 75.956897 -92.816033 
L 75.956897 -94.313554 
L 75.956897 -95.811074 
L 75.956897 -97.308595 
L 75.956897 -98.806116 
L 75.956897 -100.303636 
L 75.956897 -101.801157 
L 75.956894 -103.298678 
L 75.956744 -104.796198 
L 75.954846 -106.293719 
L 75.950893 -107.79124 
L 75.95191 -109.28876 
L 75.952947 -110.786281 
L 75.953055 -112.283802 
L 75.95184 -113.781322 
L 75.951928 -115.278843 
L 75.955164 -116.776364 
L 75.956762 -118.273884 
L 75.956895 -119.771405 
L 75.956897 -121.268926 
L 75.956897 -122.766446 
L 75.956897 -124.263967 
L 75.956897 -125.761488 
L 75.956897 -127.259008 
L 75.956897 -128.756529 
L 75.956897 -130.25405 
L 75.956897 -131.75157 
L 75.956897 -133.249091 
L 75.956897 -134.746612 
L 75.956897 -136.244132 
L 75.956897 -137.741653 
L 75.956897 -139.239174 
L 75.956897 -140.736694 
L 75.956897 -142.234215 
L 75.956896 -143.731736 
L 75.956846 -145.229256 
L 75.95591 -146.726777 
L 75.953532 -148.224298 
L 75.954048 -149.721818 
L 75.94932 -151.219339 
L 75.93675 -152.71686 
L 75.915205 -154.21438 
L 75.899112 -155.711901 
L 75.907943 -157.209421 
L 75.917117 -158.706942 
L 75.918443 -160.204463 
L 75.92339 -161.701983 
L 75.928092 -163.199504 
L 75.925907 -164.697025 
L 75.926476 -166.194545 
L 75.927878 -167.692066 
L 75.925452 -169.189587 
L 75.931679 -170.687107 
L 75.940936 -172.184628 
L 75.942671 -173.682149 
L 75.942983 -175.179669 
L 75.945343 -176.67719 
L 75.951237 -178.174711 
L 75.953263 -179.672231 
L 75.954121 -181.169752 
L 75.956428 -182.667273 
L 75.957365 -182.667273 
L 75.957365 -182.667273 
L 75.959672 -181.169752 
L 75.960531 -179.672231 
L 75.962556 -178.174711 
L 75.96845 -176.67719 
L 75.97081 -175.179669 
L 75.971122 -173.682149 
L 75.972857 -172.184628 
L 75.982114 -170.687107 
L 75.988341 -169.189587 
L 75.985915 -167.692066 
L 75.987317 -166.194545 
L 75.987886 -164.697025 
L 75.985701 -163.199504 
L 75.990403 -161.701983 
L 75.995351 -160.204463 
L 75.996676 -158.706942 
L 76.00585 -157.209421 
L 76.014681 -155.711901 
L 75.998588 -154.21438 
L 75.977043 -152.71686 
L 75.964474 -151.219339 
L 75.959745 -149.721818 
L 75.960261 -148.224298 
L 75.957883 -146.726777 
L 75.956948 -145.229256 
L 75.956897 -143.731736 
L 75.956897 -142.234215 
L 75.956897 -140.736694 
L 75.956897 -139.239174 
L 75.956897 -137.741653 
L 75.956897 -136.244132 
L 75.956897 -134.746612 
L 75.956897 -133.249091 
L 75.956897 -131.75157 
L 75.956897 -130.25405 
L 75.956897 -128.756529 
L 75.956897 -127.259008 
L 75.956897 -125.761488 
L 75.956897 -124.263967 
L 75.956897 -122.766446 
L 75.956897 -121.268926 
L 75.956898 -119.771405 
L 75.957031 -118.273884 
L 75.95863 -116.776364 
L 75.961865 -115.278843 
L 75.961953 -113.781322 
L 75.960738 -112.283802 
L 75.960846 -110.786281 
L 75.961883 -109.28876 
L 75.9629 -107.79124 
L 75.958947 -106.293719 
L 75.95705 -104.796198 
L 75.956899 -103.298678 
L 75.956897 -101.801157 
L 75.956897 -100.303636 
L 75.956897 -98.806116 
L 75.956897 -97.308595 
L 75.956897 -95.811074 
L 75.956897 -94.313554 
L 75.956897 -92.816033 
L 75.956897 -91.318512 
L 75.956897 -89.820992 
L 75.956897 -88.323471 
L 75.956897 -86.82595 
L 75.956897 -85.32843 
L 75.956897 -83.830909 
L 75.956897 -82.333388 
L 75.956897 -80.835868 
L 75.956897 -79.338347 
L 75.956897 -77.840826 
L 75.956897 -76.343306 
L 75.956897 -74.845785 
L 75.956901 -73.348264 
L 75.957118 -71.850744 
L 75.958981 -70.353223 
L 75.961664 -68.855702 
L 75.970388 -67.358182 
L 75.99033 -65.860661 
L 76.03098 -64.36314 
L 76.140878 -62.86562 
L 76.31252 -61.368099 
L 76.639526 -59.870579 
L 77.215901 -58.373058 
L 78.155418 -56.875537 
L 79.611317 -55.378017 
L 81.891736 -53.880496 
L 85.133067 -52.382975 
L 89.639365 -50.885455 
L 94.491204 -49.387934 
L 97.8221 -47.890413 
L 97.372637 -46.392893 
L 92.582832 -44.895372 
L 85.798326 -43.397851 
L 80.072163 -41.900331 
L 77.046796 -40.40281 
L 76.124324 -38.905289 
L 75.973779 -37.407769 
L 75.9601 -35.910248 
L 75.957369 -34.412727 
z
" id="m914b4ead22" style="stroke:#4c4c4c;stroke-width:1.5;"/>
    </defs>
    <g clip-path="url(#p7a65be2e45)">
     <use style="fill:#cb3335;stroke:#4c4c4c;stroke-width:1.5;" x="0" xlink:href="#m914b4ead22" y="216"/>
    </g>
   </g>
   <g id="matplotlib.axis_1">
    <g id="xtick_1">
     <g id="line2d_1">
      <defs>
       <path d="M 0 0 
L 0 3.5 
" id="m9c5c8912be" style="stroke:#000000;stroke-width:0.8;"/>
      </defs>
      <g>
       <use style="stroke:#000000;stroke-width:0.8;" x="75.956897" xlink:href="#m9c5c8912be" y="189"/>
      </g>
     </g>
     <g id="text_1">
      <!-- Modeller -->
      <defs>
       <path d="M 9.8125 72.90625 
L 24.515625 72.90625 
L 43.109375 23.296875 
L 61.8125 72.90625 
L 76.515625 72.90625 
L 76.515625 0 
L 66.890625 0 
L 66.890625 64.015625 
L 48.09375 14.015625 
L 38.1875 14.015625 
L 19.390625 64.015625 
L 19.390625 0 
L 9.8125 0 
z
" id="DejaVuSans-77"/>
       <path d="M 30.609375 48.390625 
Q 23.390625 48.390625 19.1875 42.75 
Q 14.984375 37.109375 14.984375 27.296875 
Q 14.984375 17.484375 19.15625 11.84375 
Q 23.34375 6.203125 30.609375 6.203125 
Q 37.796875 6.203125 41.984375 11.859375 
Q 46.1875 17.53125 46.1875 27.296875 
Q 46.1875 37.015625 41.984375 42.703125 
Q 37.796875 48.390625 30.609375 48.390625 
z
M 30.609375 56 
Q 42.328125 56 49.015625 48.375 
Q 55.71875 40.765625 55.71875 27.296875 
Q 55.71875 13.875 49.015625 6.21875 
Q 42.328125 -1.421875 30.609375 -1.421875 
Q 18.84375 -1.421875 12.171875 6.21875 
Q 5.515625 13.875 5.515625 27.296875 
Q 5.515625 40.765625 12.171875 48.375 
Q 18.84375 56 30.609375 56 
z
" id="DejaVuSans-111"/>
       <path d="M 45.40625 46.390625 
L 45.40625 75.984375 
L 54.390625 75.984375 
L 54.390625 0 
L 45.40625 0 
L 45.40625 8.203125 
Q 42.578125 3.328125 38.25 0.953125 
Q 33.9375 -1.421875 27.875 -1.421875 
Q 17.96875 -1.421875 11.734375 6.484375 
Q 5.515625 14.40625 5.515625 27.296875 
Q 5.515625 40.1875 11.734375 48.09375 
Q 17.96875 56 27.875 56 
Q 33.9375 56 38.25 53.625 
Q 42.578125 51.265625 45.40625 46.390625 
z
M 14.796875 27.296875 
Q 14.796875 17.390625 18.875 11.75 
Q 22.953125 6.109375 30.078125 6.109375 
Q 37.203125 6.109375 41.296875 11.75 
Q 45.40625 17.390625 45.40625 27.296875 
Q 45.40625 37.203125 41.296875 42.84375 
Q 37.203125 48.484375 30.078125 48.484375 
Q 22.953125 48.484375 18.875 42.84375 
Q 14.796875 37.203125 14.796875 27.296875 
z
" id="DejaVuSans-100"/>
       <path d="M 56.203125 29.59375 
L 56.203125 25.203125 
L 14.890625 25.203125 
Q 15.484375 15.921875 20.484375 11.0625 
Q 25.484375 6.203125 34.421875 6.203125 
Q 39.59375 6.203125 44.453125 7.46875 
Q 49.3125 8.734375 54.109375 11.28125 
L 54.109375 2.78125 
Q 49.265625 0.734375 44.1875 -0.34375 
Q 39.109375 -1.421875 33.890625 -1.421875 
Q 20.796875 -1.421875 13.15625 6.1875 
Q 5.515625 13.8125 5.515625 26.8125 
Q 5.515625 40.234375 12.765625 48.109375 
Q 20.015625 56 32.328125 56 
Q 43.359375 56 49.78125 48.890625 
Q 56.203125 41.796875 56.203125 29.59375 
z
M 47.21875 32.234375 
Q 47.125 39.59375 43.09375 43.984375 
Q 39.0625 48.390625 32.421875 48.390625 
Q 24.90625 48.390625 20.390625 44.140625 
Q 15.875 39.890625 15.1875 32.171875 
z
" id="DejaVuSans-101"/>
       <path d="M 9.421875 75.984375 
L 18.40625 75.984375 
L 18.40625 0 
L 9.421875 0 
z
" id="DejaVuSans-108"/>
       <path d="M 41.109375 46.296875 
Q 39.59375 47.171875 37.8125 47.578125 
Q 36.03125 48 33.890625 48 
Q 26.265625 48 22.1875 43.046875 
Q 18.109375 38.09375 18.109375 28.8125 
L 18.109375 0 
L 9.078125 0 
L 9.078125 54.6875 
L 18.109375 54.6875 
L 18.109375 46.1875 
Q 20.953125 51.171875 25.484375 53.578125 
Q 30.03125 56 36.53125 56 
Q 37.453125 56 38.578125 55.875 
Q 39.703125 55.765625 41.0625 55.515625 
z
" id="DejaVuSans-114"/>
      </defs>
      <g transform="translate(54.422522 203.598437)scale(0.1 -0.1)">
       <use xlink:href="#DejaVuSans-77"/>
       <use x="86.279297" xlink:href="#DejaVuSans-111"/>
       <use x="147.460938" xlink:href="#DejaVuSans-100"/>
       <use x="210.9375" xlink:href="#DejaVuSans-101"/>
       <use x="272.460938" xlink:href="#DejaVuSans-108"/>
       <use x="300.244141" xlink:href="#DejaVuSans-108"/>
       <use x="328.027344" xlink:href="#DejaVuSans-101"/>
       <use x="389.550781" xlink:href="#DejaVuSans-114"/>
      </g>
      <!-- (molpdf) -->
      <defs>
       <path d="M 31 75.875 
Q 24.46875 64.65625 21.28125 53.65625 
Q 18.109375 42.671875 18.109375 31.390625 
Q 18.109375 20.125 21.3125 9.0625 
Q 24.515625 -2 31 -13.1875 
L 23.1875 -13.1875 
Q 15.875 -1.703125 12.234375 9.375 
Q 8.59375 20.453125 8.59375 31.390625 
Q 8.59375 42.28125 12.203125 53.3125 
Q 15.828125 64.359375 23.1875 75.875 
z
" id="DejaVuSans-40"/>
       <path d="M 52 44.1875 
Q 55.375 50.25 60.0625 53.125 
Q 64.75 56 71.09375 56 
Q 79.640625 56 84.28125 50.015625 
Q 88.921875 44.046875 88.921875 33.015625 
L 88.921875 0 
L 79.890625 0 
L 79.890625 32.71875 
Q 79.890625 40.578125 77.09375 44.375 
Q 74.3125 48.1875 68.609375 48.1875 
Q 61.625 48.1875 57.5625 43.546875 
Q 53.515625 38.921875 53.515625 30.90625 
L 53.515625 0 
L 44.484375 0 
L 44.484375 32.71875 
Q 44.484375 40.625 41.703125 44.40625 
Q 38.921875 48.1875 33.109375 48.1875 
Q 26.21875 48.1875 22.15625 43.53125 
Q 18.109375 38.875 18.109375 30.90625 
L 18.109375 0 
L 9.078125 0 
L 9.078125 54.6875 
L 18.109375 54.6875 
L 18.109375 46.1875 
Q 21.1875 51.21875 25.484375 53.609375 
Q 29.78125 56 35.6875 56 
Q 41.65625 56 45.828125 52.96875 
Q 50 49.953125 52 44.1875 
z
" id="DejaVuSans-109"/>
       <path d="M 18.109375 8.203125 
L 18.109375 -20.796875 
L 9.078125 -20.796875 
L 9.078125 54.6875 
L 18.109375 54.6875 
L 18.109375 46.390625 
Q 20.953125 51.265625 25.265625 53.625 
Q 29.59375 56 35.59375 56 
Q 45.5625 56 51.78125 48.09375 
Q 58.015625 40.1875 58.015625 27.296875 
Q 58.015625 14.40625 51.78125 6.484375 
Q 45.5625 -1.421875 35.59375 -1.421875 
Q 29.59375 -1.421875 25.265625 0.953125 
Q 20.953125 3.328125 18.109375 8.203125 
z
M 48.6875 27.296875 
Q 48.6875 37.203125 44.609375 42.84375 
Q 40.53125 48.484375 33.40625 48.484375 
Q 26.265625 48.484375 22.1875 42.84375 
Q 18.109375 37.203125 18.109375 27.296875 
Q 18.109375 17.390625 22.1875 11.75 
Q 26.265625 6.109375 33.40625 6.109375 
Q 40.53125 6.109375 44.609375 11.75 
Q 48.6875 17.390625 48.6875 27.296875 
z
" id="DejaVuSans-112"/>
       <path d="M 37.109375 75.984375 
L 37.109375 68.5 
L 28.515625 68.5 
Q 23.6875 68.5 21.796875 66.546875 
Q 19.921875 64.59375 19.921875 59.515625 
L 19.921875 54.6875 
L 34.71875 54.6875 
L 34.71875 47.703125 
L 19.921875 47.703125 
L 19.921875 0 
L 10.890625 0 
L 10.890625 47.703125 
L 2.296875 47.703125 
L 2.296875 54.6875 
L 10.890625 54.6875 
L 10.890625 58.5 
Q 10.890625 67.625 15.140625 71.796875 
Q 19.390625 75.984375 28.609375 75.984375 
z
" id="DejaVuSans-102"/>
       <path d="M 8.015625 75.875 
L 15.828125 75.875 
Q 23.140625 64.359375 26.78125 53.3125 
Q 30.421875 42.28125 30.421875 31.390625 
Q 30.421875 20.453125 26.78125 9.375 
Q 23.140625 -1.703125 15.828125 -13.1875 
L 8.015625 -13.1875 
Q 14.5 -2 17.703125 9.0625 
Q 20.90625 20.125 20.90625 31.390625 
Q 20.90625 42.671875 17.703125 53.65625 
Q 14.5 64.65625 8.015625 75.875 
z
" id="DejaVuSans-41"/>
      </defs>
      <g transform="translate(54.62799 214.79625)scale(0.1 -0.1)">
       <use xlink:href="#DejaVuSans-40"/>
       <use x="39.013672" xlink:href="#DejaVuSans-109"/>
       <use x="136.425781" xlink:href="#DejaVuSans-111"/>
       <use x="197.607422" xlink:href="#DejaVuSans-108"/>
       <use x="225.390625" xlink:href="#DejaVuSans-112"/>
       <use x="288.867188" xlink:href="#DejaVuSans-100"/>
       <use x="352.34375" xlink:href="#DejaVuSans-102"/>
       <use x="387.548828" xlink:href="#DejaVuSans-41"/>
      </g>
     </g>
    </g>
   </g>
   <g id="matplotlib.axis_2">
    <g id="text_2">
     <!-- Score -->
     <defs>
      <path d="M 53.515625 70.515625 
L 53.515625 60.890625 
Q 47.90625 63.578125 42.921875 64.890625 
Q 37.9375 66.21875 33.296875 66.21875 
Q 25.25 66.21875 20.875 63.09375 
Q 16.5 59.96875 16.5 54.203125 
Q 16.5 49.359375 19.40625 46.890625 
Q 22.3125 44.4375 30.421875 42.921875 
L 36.375 41.703125 
Q 47.40625 39.59375 52.65625 34.296875 
Q 57.90625 29 57.90625 20.125 
Q 57.90625 9.515625 50.796875 4.046875 
Q 43.703125 -1.421875 29.984375 -1.421875 
Q 24.8125 -1.421875 18.96875 -0.25 
Q 13.140625 0.921875 6.890625 3.21875 
L 6.890625 13.375 
Q 12.890625 10.015625 18.65625 8.296875 
Q 24.421875 6.59375 29.984375 6.59375 
Q 38.421875 6.59375 43.015625 9.90625 
Q 47.609375 13.234375 47.609375 19.390625 
Q 47.609375 24.75 44.3125 27.78125 
Q 41.015625 30.8125 33.5 32.328125 
L 27.484375 33.5 
Q 16.453125 35.6875 11.515625 40.375 
Q 6.59375 45.0625 6.59375 53.421875 
Q 6.59375 63.09375 13.40625 68.65625 
Q 20.21875 74.21875 32.171875 74.21875 
Q 37.3125 74.21875 42.625 73.28125 
Q 47.953125 72.359375 53.515625 70.515625 
z
" id="DejaVuSans-83"/>
      <path d="M 48.78125 52.59375 
L 48.78125 44.1875 
Q 44.96875 46.296875 41.140625 47.34375 
Q 37.3125 48.390625 33.40625 48.390625 
Q 24.65625 48.390625 19.8125 42.84375 
Q 14.984375 37.3125 14.984375 27.296875 
Q 14.984375 17.28125 19.8125 11.734375 
Q 24.65625 6.203125 33.40625 6.203125 
Q 37.3125 6.203125 41.140625 7.25 
Q 44.96875 8.296875 48.78125 10.40625 
L 48.78125 2.09375 
Q 45.015625 0.34375 40.984375 -0.53125 
Q 36.96875 -1.421875 32.421875 -1.421875 
Q 20.0625 -1.421875 12.78125 6.34375 
Q 5.515625 14.109375 5.515625 27.296875 
Q 5.515625 40.671875 12.859375 48.328125 
Q 20.21875 56 33.015625 56 
Q 37.15625 56 41.109375 55.140625 
Q 45.0625 54.296875 48.78125 52.59375 
z
" id="DejaVuSans-99"/>
     </defs>
     <g transform="translate(43.420313 121.462344)rotate(-90)scale(0.1 -0.1)">
      <use xlink:href="#DejaVuSans-83"/>
      <use x="63.476562" xlink:href="#DejaVuSans-99"/>
      <use x="118.457031" xlink:href="#DejaVuSans-111"/>
      <use x="179.638672" xlink:href="#DejaVuSans-114"/>
      <use x="218.501953" xlink:href="#DejaVuSans-101"/>
     </g>
    </g>
   </g>
   <g id="LineCollection_1">
    <path clip-path="url(#p7a65be2e45)" d="M 51.905172 171.219507 
L 100.008621 171.219507 
" style="fill:none;stroke:#000000;stroke-dasharray:1.5,2.475;stroke-dashoffset:0;stroke-width:1.5;"/>
   </g>
   <g id="line2d_2">
    <path clip-path="url(#p7a65be2e45)" d="M 75.956897 176.937249 
L 75.956897 158.550328 
" style="fill:none;stroke:#4c4c4c;stroke-linecap:square;stroke-width:1.5;"/>
   </g>
   <g id="line2d_3">
    <path clip-path="url(#p7a65be2e45)" d="M 75.956897 170.191503 
L 75.956897 165.530624 
" style="fill:none;stroke:#4c4c4c;stroke-linecap:square;stroke-width:4.5;"/>
   </g>
   <g id="patch_3">
    <path d="M 49.5 189 
L 102.413793 189 
" style="fill:none;stroke:#000000;stroke-linecap:square;stroke-linejoin:miter;stroke-width:0.8;"/>
   </g>
   <g id="patch_4">
    <path d="M 49.5 25.92 
L 102.413793 25.92 
" style="fill:none;stroke:#000000;stroke-linecap:square;stroke-linejoin:miter;stroke-width:0.8;"/>
   </g>
   <g id="PathCollection_1">
    <defs>
     <path d="M 0 1.5 
C 0.397805 1.5 0.77937 1.341951 1.06066 1.06066 
C 1.341951 0.77937 1.5 0.397805 1.5 0 
C 1.5 -0.397805 1.341951 -0.77937 1.06066 -1.06066 
C 0.77937 -1.341951 0.397805 -1.5 0 -1.5 
C -0.397805 -1.5 -0.77937 -1.341951 -1.06066 -1.06066 
C -1.341951 -0.77937 -1.5 -0.397805 -1.5 0 
C -1.5 0.397805 -1.341951 0.77937 -1.06066 1.06066 
C -0.77937 1.341951 -0.397805 1.5 0 1.5 
z
" id="m58297954f2" style="stroke:#4c4c4c;"/>
    </defs>
    <g clip-path="url(#p7a65be2e45)">
     <use style="fill:#ffffff;stroke:#4c4c4c;" x="75.956897" xlink:href="#m58297954f2" y="168.055768"/>
    </g>
   </g>
  </g>
  <g id="axes_2">
   <g id="patch_5">
    <path d="M 112.996552 189 
L 165.910345 189 
L 165.910345 25.92 
L 112.996552 25.92 
z
" style="fill:#ffffff;"/>
   </g>
   <g id="PolyCollection_2">
    <defs>
     <path d="M 139.456417 -34.412727 
L 139.45048 -34.412727 
L 139.444769 -35.910248 
L 139.432269 -37.407769 
L 139.409148 -38.905289 
L 139.371495 -40.40281 
L 139.315435 -41.900331 
L 139.237811 -43.397851 
L 139.137922 -44.895372 
L 139.017519 -46.392893 
L 138.876597 -47.890413 
L 138.708393 -49.387934 
L 138.498811 -50.885455 
L 138.230369 -52.382975 
L 137.889035 -53.880496 
L 137.472868 -55.378017 
L 136.995441 -56.875537 
L 136.476584 -58.373058 
L 135.929433 -59.870579 
L 135.359218 -61.368099 
L 134.768692 -62.86562 
L 134.155714 -64.36314 
L 133.50877 -65.860661 
L 132.812536 -67.358182 
L 132.055647 -68.855702 
L 131.228639 -70.353223 
L 130.318365 -71.850744 
L 129.313553 -73.348264 
L 128.224198 -74.845785 
L 127.098695 -76.343306 
L 126.017187 -77.840826 
L 125.054344 -79.338347 
L 124.228571 -80.835868 
L 123.478074 -82.333388 
L 122.704242 -83.830909 
L 121.862769 -85.32843 
L 121.008922 -86.82595 
L 120.240961 -88.323471 
L 119.615306 -89.820992 
L 119.129295 -91.318512 
L 118.7522 -92.816033 
L 118.443673 -94.313554 
L 118.167524 -95.811074 
L 117.915635 -97.308595 
L 117.712807 -98.806116 
L 117.595346 -100.303636 
L 117.588245 -101.801157 
L 117.693028 -103.298678 
L 117.893759 -104.796198 
L 118.177524 -106.293719 
L 118.534324 -107.79124 
L 118.933696 -109.28876 
L 119.33865 -110.786281 
L 119.764396 -112.283802 
L 120.288132 -113.781322 
L 120.967462 -115.278843 
L 121.764155 -116.776364 
L 122.569981 -118.273884 
L 123.298323 -119.771405 
L 123.93899 -121.268926 
L 124.543267 -122.766446 
L 125.182034 -124.263967 
L 125.907789 -125.761488 
L 126.727386 -127.259008 
L 127.607522 -128.756529 
L 128.514066 -130.25405 
L 129.435088 -131.75157 
L 130.359373 -133.249091 
L 131.251473 -134.746612 
L 132.064291 -136.244132 
L 132.771261 -137.741653 
L 133.38003 -139.239174 
L 133.919338 -140.736694 
L 134.417291 -142.234215 
L 134.891441 -143.731736 
L 135.352567 -145.229256 
L 135.806164 -146.726777 
L 136.246563 -148.224298 
L 136.658691 -149.721818 
L 137.032215 -151.219339 
L 137.369919 -152.71686 
L 137.67946 -154.21438 
L 137.962781 -155.711901 
L 138.217214 -157.209421 
L 138.441339 -158.706942 
L 138.635091 -160.204463 
L 138.797435 -161.701983 
L 138.928043 -163.199504 
L 139.030799 -164.697025 
L 139.113629 -166.194545 
L 139.184133 -167.692066 
L 139.245631 -169.189587 
L 139.297584 -170.687107 
L 139.33924 -172.184628 
L 139.37191 -173.682149 
L 139.397846 -175.179669 
L 139.418304 -176.67719 
L 139.433449 -178.174711 
L 139.443458 -179.672231 
L 139.449173 -181.169752 
L 139.451917 -182.667273 
L 139.45498 -182.667273 
L 139.45498 -182.667273 
L 139.457724 -181.169752 
L 139.463438 -179.672231 
L 139.473448 -178.174711 
L 139.488592 -176.67719 
L 139.50905 -175.179669 
L 139.534986 -173.682149 
L 139.567656 -172.184628 
L 139.609313 -170.687107 
L 139.661266 -169.189587 
L 139.722763 -167.692066 
L 139.793268 -166.194545 
L 139.876097 -164.697025 
L 139.978854 -163.199504 
L 140.109462 -161.701983 
L 140.271806 -160.204463 
L 140.465558 -158.706942 
L 140.689683 -157.209421 
L 140.944116 -155.711901 
L 141.227436 -154.21438 
L 141.536977 -152.71686 
L 141.874681 -151.219339 
L 142.248205 -149.721818 
L 142.660334 -148.224298 
L 143.100732 -146.726777 
L 143.55433 -145.229256 
L 144.015456 -143.731736 
L 144.489605 -142.234215 
L 144.987558 -140.736694 
L 145.526866 -139.239174 
L 146.135636 -137.741653 
L 146.842606 -136.244132 
L 147.655424 -134.746612 
L 148.547524 -133.249091 
L 149.471809 -131.75157 
L 150.39283 -130.25405 
L 151.299375 -128.756529 
L 152.179511 -127.259008 
L 152.999107 -125.761488 
L 153.724862 -124.263967 
L 154.36363 -122.766446 
L 154.967907 -121.268926 
L 155.608573 -119.771405 
L 156.336916 -118.273884 
L 157.142741 -116.776364 
L 157.939435 -115.278843 
L 158.618764 -113.781322 
L 159.142501 -112.283802 
L 159.568247 -110.786281 
L 159.9732 -109.28876 
L 160.372573 -107.79124 
L 160.729373 -106.293719 
L 161.013138 -104.796198 
L 161.213868 -103.298678 
L 161.318652 -101.801157 
L 161.31155 -100.303636 
L 161.19409 -98.806116 
L 160.991262 -97.308595 
L 160.739373 -95.811074 
L 160.463223 -94.313554 
L 160.154696 -92.816033 
L 159.777602 -91.318512 
L 159.29159 -89.820992 
L 158.665935 -88.323471 
L 157.897974 -86.82595 
L 157.044127 -85.32843 
L 156.202654 -83.830909 
L 155.428823 -82.333388 
L 154.678325 -80.835868 
L 153.852552 -79.338347 
L 152.889709 -77.840826 
L 151.808201 -76.343306 
L 150.682699 -74.845785 
L 149.593343 -73.348264 
L 148.588531 -71.850744 
L 147.678257 -70.353223 
L 146.85125 -68.855702 
L 146.09436 -67.358182 
L 145.398127 -65.860661 
L 144.751182 -64.36314 
L 144.138205 -62.86562 
L 143.547679 -61.368099 
L 142.977464 -59.870579 
L 142.430313 -58.373058 
L 141.911456 -56.875537 
L 141.434029 -55.378017 
L 141.017862 -53.880496 
L 140.676528 -52.382975 
L 140.408086 -50.885455 
L 140.198504 -49.387934 
L 140.0303 -47.890413 
L 139.889377 -46.392893 
L 139.768975 -44.895372 
L 139.669085 -43.397851 
L 139.591462 -41.900331 
L 139.535402 -40.40281 
L 139.497749 -38.905289 
L 139.474628 -37.407769 
L 139.462128 -35.910248 
L 139.456417 -34.412727 
z
" id="med5c244cb4" style="stroke:#484848;stroke-width:1.5;"/>
    </defs>
    <g clip-path="url(#pa52db6f71e)">
     <use style="fill:#477ca8;stroke:#484848;stroke-width:1.5;" x="0" xlink:href="#med5c244cb4" y="216"/>
    </g>
   </g>
   <g id="matplotlib.axis_3">
    <g id="xtick_2">
     <g id="line2d_4">
      <g>
       <use style="stroke:#000000;stroke-width:0.8;" x="139.453448" xlink:href="#m9c5c8912be" y="189"/>
      </g>
     </g>
     <g id="text_3">
      <!-- Modeller -->
      <g transform="translate(117.919073 203.598437)scale(0.1 -0.1)">
       <use xlink:href="#DejaVuSans-77"/>
       <use x="86.279297" xlink:href="#DejaVuSans-111"/>
       <use x="147.460938" xlink:href="#DejaVuSans-100"/>
       <use x="210.9375" xlink:href="#DejaVuSans-101"/>
       <use x="272.460938" xlink:href="#DejaVuSans-108"/>
       <use x="300.244141" xlink:href="#DejaVuSans-108"/>
       <use x="328.027344" xlink:href="#DejaVuSans-101"/>
       <use x="389.550781" xlink:href="#DejaVuSans-114"/>
      </g>
      <!-- (dope_norm) -->
      <defs>
       <path d="M 50.984375 -16.609375 
L 50.984375 -23.578125 
L -0.984375 -23.578125 
L -0.984375 -16.609375 
z
" id="DejaVuSans-95"/>
       <path d="M 54.890625 33.015625 
L 54.890625 0 
L 45.90625 0 
L 45.90625 32.71875 
Q 45.90625 40.484375 42.875 44.328125 
Q 39.84375 48.1875 33.796875 48.1875 
Q 26.515625 48.1875 22.3125 43.546875 
Q 18.109375 38.921875 18.109375 30.90625 
L 18.109375 0 
L 9.078125 0 
L 9.078125 54.6875 
L 18.109375 54.6875 
L 18.109375 46.1875 
Q 21.34375 51.125 25.703125 53.5625 
Q 30.078125 56 35.796875 56 
Q 45.21875 56 50.046875 50.171875 
Q 54.890625 44.34375 54.890625 33.015625 
z
" id="DejaVuSans-110"/>
      </defs>
      <g transform="translate(107.501105 214.79625)scale(0.1 -0.1)">
       <use xlink:href="#DejaVuSans-40"/>
       <use x="39.013672" xlink:href="#DejaVuSans-100"/>
       <use x="102.490234" xlink:href="#DejaVuSans-111"/>
       <use x="163.671875" xlink:href="#DejaVuSans-112"/>
       <use x="227.148438" xlink:href="#DejaVuSans-101"/>
       <use x="288.671875" xlink:href="#DejaVuSans-95"/>
       <use x="338.671875" xlink:href="#DejaVuSans-110"/>
       <use x="402.050781" xlink:href="#DejaVuSans-111"/>
       <use x="463.232422" xlink:href="#DejaVuSans-114"/>
       <use x="502.595703" xlink:href="#DejaVuSans-109"/>
       <use x="600.007812" xlink:href="#DejaVuSans-41"/>
      </g>
     </g>
    </g>
   </g>
   <g id="matplotlib.axis_4"/>
   <g id="LineCollection_2">
    <path clip-path="url(#pa52db6f71e)" d="M 115.401724 98.130514 
L 163.505172 98.130514 
" style="fill:none;stroke:#000000;stroke-dasharray:1.5,2.475;stroke-dashoffset:0;stroke-width:1.5;"/>
   </g>
   <g id="line2d_5">
    <path clip-path="url(#pa52db6f71e)" d="M 139.453448 173.883125 
L 139.453448 52.304671 
" style="fill:none;stroke:#484848;stroke-linecap:square;stroke-width:1.5;"/>
   </g>
   <g id="line2d_6">
    <path clip-path="url(#pa52db6f71e)" d="M 139.453448 128.613974 
L 139.453448 98.088091 
" style="fill:none;stroke:#484848;stroke-linecap:square;stroke-width:4.5;"/>
   </g>
   <g id="patch_6">
    <path d="M 112.996552 189 
L 165.910345 189 
" style="fill:none;stroke:#000000;stroke-linecap:square;stroke-linejoin:miter;stroke-width:0.8;"/>
   </g>
   <g id="patch_7">
    <path d="M 112.996552 25.92 
L 165.910345 25.92 
" style="fill:none;stroke:#000000;stroke-linecap:square;stroke-linejoin:miter;stroke-width:0.8;"/>
   </g>
   <g id="PathCollection_2">
    <defs>
     <path d="M 0 1.5 
C 0.397805 1.5 0.77937 1.341951 1.06066 1.06066 
C 1.341951 0.77937 1.5 0.397805 1.5 0 
C 1.5 -0.397805 1.341951 -0.77937 1.06066 -1.06066 
C 0.77937 -1.341951 0.397805 -1.5 0 -1.5 
C -0.397805 -1.5 -0.77937 -1.341951 -1.06066 -1.06066 
C -1.341951 -0.77937 -1.5 -0.397805 -1.5 0 
C -1.5 0.397805 -1.341951 0.77937 -1.06066 1.06066 
C -0.77937 1.341951 -0.397805 1.5 0 1.5 
z
" id="m95952fcf04" style="stroke:#484848;"/>
    </defs>
    <g clip-path="url(#pa52db6f71e)">
     <use style="fill:#ffffff;stroke:#484848;" x="139.453448" xlink:href="#m95952fcf04" y="113.670486"/>
    </g>
   </g>
  </g>
  <g id="axes_3">
   <g id="patch_8">
    <path d="M 176.493103 189 
L 229.406897 189 
L 229.406897 25.92 
L 176.493103 25.92 
z
" style="fill:#ffffff;"/>
   </g>
   <g id="PolyCollection_3">
    <defs>
     <path d="M 202.951075 -34.412727 
L 202.948925 -34.412727 
L 202.946495 -35.910248 
L 202.943159 -37.407769 
L 202.941724 -38.905289 
L 202.942203 -40.40281 
L 202.938367 -41.900331 
L 202.920977 -43.397851 
L 202.880587 -44.895372 
L 202.813115 -46.392893 
L 202.723032 -47.890413 
L 202.610576 -49.387934 
L 202.473332 -50.885455 
L 202.319246 -52.382975 
L 202.138376 -53.880496 
L 201.879153 -55.378017 
L 201.513744 -56.875537 
L 201.107928 -58.373058 
L 200.727711 -59.870579 
L 200.31422 -61.368099 
L 199.754195 -62.86562 
L 199.017122 -64.36314 
L 198.147026 -65.860661 
L 197.164934 -67.358182 
L 196.045419 -68.855702 
L 194.810367 -70.353223 
L 193.556186 -71.850744 
L 192.345766 -73.348264 
L 191.159612 -74.845785 
L 189.94881 -76.343306 
L 188.619071 -77.840826 
L 187.10617 -79.338347 
L 185.640635 -80.835868 
L 184.54003 -82.333388 
L 183.778488 -83.830909 
L 183.129644 -85.32843 
L 182.457231 -86.82595 
L 181.775246 -88.323471 
L 181.267371 -89.820992 
L 181.084796 -91.318512 
L 181.146648 -92.816033 
L 181.430118 -94.313554 
L 182.013999 -95.811074 
L 182.755121 -97.308595 
L 183.479019 -98.806116 
L 184.236271 -100.303636 
L 185.125314 -101.801157 
L 186.181605 -103.298678 
L 187.405617 -104.796198 
L 188.749709 -106.293719 
L 190.17169 -107.79124 
L 191.649539 -109.28876 
L 193.108761 -110.786281 
L 194.470518 -112.283802 
L 195.68232 -113.781322 
L 196.711556 -115.278843 
L 197.574736 -116.776364 
L 198.323519 -118.273884 
L 199.04543 -119.771405 
L 199.792259 -121.268926 
L 200.489549 -122.766446 
L 201.031789 -124.263967 
L 201.401227 -125.761488 
L 201.652178 -127.259008 
L 201.854506 -128.756529 
L 202.045388 -130.25405 
L 202.228302 -131.75157 
L 202.39679 -133.249091 
L 202.531895 -134.746612 
L 202.626669 -136.244132 
L 202.695766 -137.741653 
L 202.745135 -139.239174 
L 202.773558 -140.736694 
L 202.789587 -142.234215 
L 202.804086 -143.731736 
L 202.812929 -145.229256 
L 202.808143 -146.726777 
L 202.801689 -148.224298 
L 202.813414 -149.721818 
L 202.841188 -151.219339 
L 202.866363 -152.71686 
L 202.880313 -154.21438 
L 202.883683 -155.711901 
L 202.879231 -157.209421 
L 202.876076 -158.706942 
L 202.883947 -160.204463 
L 202.903501 -161.701983 
L 202.924294 -163.199504 
L 202.934241 -164.697025 
L 202.934039 -166.194545 
L 202.934331 -167.692066 
L 202.938777 -169.189587 
L 202.940478 -170.687107 
L 202.93467 -172.184628 
L 202.925908 -173.682149 
L 202.921825 -175.179669 
L 202.924052 -176.67719 
L 202.930159 -178.174711 
L 202.938162 -179.672231 
L 202.94506 -181.169752 
L 202.948663 -182.667273 
L 202.951337 -182.667273 
L 202.951337 -182.667273 
L 202.95494 -181.169752 
L 202.961838 -179.672231 
L 202.969841 -178.174711 
L 202.975948 -176.67719 
L 202.978175 -175.179669 
L 202.974092 -173.682149 
L 202.96533 -172.184628 
L 202.959522 -170.687107 
L 202.961223 -169.189587 
L 202.965669 -167.692066 
L 202.965961 -166.194545 
L 202.965759 -164.697025 
L 202.975706 -163.199504 
L 202.996499 -161.701983 
L 203.016053 -160.204463 
L 203.023924 -158.706942 
L 203.020769 -157.209421 
L 203.016317 -155.711901 
L 203.019687 -154.21438 
L 203.033637 -152.71686 
L 203.058812 -151.219339 
L 203.086586 -149.721818 
L 203.098311 -148.224298 
L 203.091857 -146.726777 
L 203.087071 -145.229256 
L 203.095914 -143.731736 
L 203.110413 -142.234215 
L 203.126442 -140.736694 
L 203.154865 -139.239174 
L 203.204234 -137.741653 
L 203.273331 -136.244132 
L 203.368105 -134.746612 
L 203.50321 -133.249091 
L 203.671698 -131.75157 
L 203.854612 -130.25405 
L 204.045494 -128.756529 
L 204.247822 -127.259008 
L 204.498773 -125.761488 
L 204.868211 -124.263967 
L 205.410451 -122.766446 
L 206.107741 -121.268926 
L 206.85457 -119.771405 
L 207.576481 -118.273884 
L 208.325264 -116.776364 
L 209.188444 -115.278843 
L 210.21768 -113.781322 
L 211.429482 -112.283802 
L 212.791239 -110.786281 
L 214.250461 -109.28876 
L 215.72831 -107.79124 
L 217.150291 -106.293719 
L 218.494383 -104.796198 
L 219.718395 -103.298678 
L 220.774686 -101.801157 
L 221.663729 -100.303636 
L 222.420981 -98.806116 
L 223.144879 -97.308595 
L 223.886001 -95.811074 
L 224.469882 -94.313554 
L 224.753352 -92.816033 
L 224.815204 -91.318512 
L 224.632629 -89.820992 
L 224.124754 -88.323471 
L 223.442769 -86.82595 
L 222.770356 -85.32843 
L 222.121512 -83.830909 
L 221.35997 -82.333388 
L 220.259365 -80.835868 
L 218.79383 -79.338347 
L 217.280929 -77.840826 
L 215.95119 -76.343306 
L 214.740388 -74.845785 
L 213.554234 -73.348264 
L 212.343814 -71.850744 
L 211.089633 -70.353223 
L 209.854581 -68.855702 
L 208.735066 -67.358182 
L 207.752974 -65.860661 
L 206.882878 -64.36314 
L 206.145805 -62.86562 
L 205.58578 -61.368099 
L 205.172289 -59.870579 
L 204.792072 -58.373058 
L 204.386256 -56.875537 
L 204.020847 -55.378017 
L 203.761624 -53.880496 
L 203.580754 -52.382975 
L 203.426668 -50.885455 
L 203.289424 -49.387934 
L 203.176968 -47.890413 
L 203.086885 -46.392893 
L 203.019413 -44.895372 
L 202.979023 -43.397851 
L 202.961633 -41.900331 
L 202.957797 -40.40281 
L 202.958276 -38.905289 
L 202.956841 -37.407769 
L 202.953505 -35.910248 
L 202.951075 -34.412727 
z
" id="m32819806df" style="stroke:#4b4b4b;stroke-width:1.5;"/>
    </defs>
    <g clip-path="url(#p6ebfc465b0)">
     <use style="fill:#59a257;stroke:#4b4b4b;stroke-width:1.5;" x="0" xlink:href="#m32819806df" y="216"/>
    </g>
   </g>
   <g id="matplotlib.axis_5">
    <g id="xtick_3">
     <g id="line2d_7">
      <g>
       <use style="stroke:#000000;stroke-width:0.8;" x="202.95" xlink:href="#m9c5c8912be" y="189"/>
      </g>
     </g>
     <g id="text_4">
      <!-- Modeller -->
      <g transform="translate(181.415625 203.598437)scale(0.1 -0.1)">
       <use xlink:href="#DejaVuSans-77"/>
       <use x="86.279297" xlink:href="#DejaVuSans-111"/>
       <use x="147.460938" xlink:href="#DejaVuSans-100"/>
       <use x="210.9375" xlink:href="#DejaVuSans-101"/>
       <use x="272.460938" xlink:href="#DejaVuSans-108"/>
       <use x="300.244141" xlink:href="#DejaVuSans-108"/>
       <use x="328.027344" xlink:href="#DejaVuSans-101"/>
       <use x="389.550781" xlink:href="#DejaVuSans-114"/>
      </g>
      <!-- (dope_hr) -->
      <defs>
       <path d="M 54.890625 33.015625 
L 54.890625 0 
L 45.90625 0 
L 45.90625 32.71875 
Q 45.90625 40.484375 42.875 44.328125 
Q 39.84375 48.1875 33.796875 48.1875 
Q 26.515625 48.1875 22.3125 43.546875 
Q 18.109375 38.921875 18.109375 30.90625 
L 18.109375 0 
L 9.078125 0 
L 9.078125 75.984375 
L 18.109375 75.984375 
L 18.109375 46.1875 
Q 21.34375 51.125 25.703125 53.5625 
Q 30.078125 56 35.796875 56 
Q 45.21875 56 50.046875 50.171875 
Q 54.890625 44.34375 54.890625 33.015625 
z
" id="DejaVuSans-104"/>
      </defs>
      <g transform="translate(178.839844 214.79625)scale(0.1 -0.1)">
       <use xlink:href="#DejaVuSans-40"/>
       <use x="39.013672" xlink:href="#DejaVuSans-100"/>
       <use x="102.490234" xlink:href="#DejaVuSans-111"/>
       <use x="163.671875" xlink:href="#DejaVuSans-112"/>
       <use x="227.148438" xlink:href="#DejaVuSans-101"/>
       <use x="288.671875" xlink:href="#DejaVuSans-95"/>
       <use x="338.671875" xlink:href="#DejaVuSans-104"/>
       <use x="402.050781" xlink:href="#DejaVuSans-114"/>
       <use x="443.164062" xlink:href="#DejaVuSans-41"/>
      </g>
     </g>
    </g>
   </g>
   <g id="matplotlib.axis_6"/>
   <g id="LineCollection_3">
    <path clip-path="url(#p6ebfc465b0)" d="M 178.898276 119.178905 
L 227.001724 119.178905 
" style="fill:none;stroke:#000000;stroke-dasharray:1.5,2.475;stroke-dashoffset:0;stroke-width:1.5;"/>
   </g>
   <g id="line2d_8">
    <path clip-path="url(#p6ebfc465b0)" d="M 202.95 164.629805 
L 202.95 83.561288 
" style="fill:none;stroke:#4b4b4b;stroke-linecap:square;stroke-width:1.5;"/>
   </g>
   <g id="line2d_9">
    <path clip-path="url(#p6ebfc465b0)" d="M 202.95 134.259743 
L 202.95 113.979972 
" style="fill:none;stroke:#4b4b4b;stroke-linecap:square;stroke-width:4.5;"/>
   </g>
   <g id="patch_9">
    <path d="M 176.493103 189 
L 229.406897 189 
" style="fill:none;stroke:#000000;stroke-linecap:square;stroke-linejoin:miter;stroke-width:0.8;"/>
   </g>
   <g id="patch_10">
    <path d="M 176.493103 25.92 
L 229.406897 25.92 
" style="fill:none;stroke:#000000;stroke-linecap:square;stroke-linejoin:miter;stroke-width:0.8;"/>
   </g>
   <g id="PathCollection_3">
    <defs>
     <path d="M 0 1.5 
C 0.397805 1.5 0.77937 1.341951 1.06066 1.06066 
C 1.341951 0.77937 1.5 0.397805 1.5 0 
C 1.5 -0.397805 1.341951 -0.77937 1.06066 -1.06066 
C 0.77937 -1.341951 0.397805 -1.5 0 -1.5 
C -0.397805 -1.5 -0.77937 -1.341951 -1.06066 -1.06066 
C -1.341951 -0.77937 -1.5 -0.397805 -1.5 0 
C -1.5 0.397805 -1.341951 0.77937 -1.06066 1.06066 
C -0.77937 1.341951 -0.397805 1.5 0 1.5 
z
" id="m8b65aadc61" style="stroke:#4b4b4b;"/>
    </defs>
    <g clip-path="url(#p6ebfc465b0)">
     <use style="fill:#ffffff;stroke:#4b4b4b;" x="202.95" xlink:href="#m8b65aadc61" y="124.171122"/>
    </g>
   </g>
  </g>
  <g id="axes_4">
   <g id="patch_11">
    <path d="M 239.989655 189 
L 292.903448 189 
L 292.903448 25.92 
L 239.989655 25.92 
z
" style="fill:#ffffff;"/>
   </g>
   <g id="PolyCollection_4">
    <defs>
     <path d="M 266.44917 -34.412727 
L 266.443933 -34.412727 
L 266.438221 -35.910248 
L 266.426198 -37.407769 
L 266.406372 -38.905289 
L 266.378858 -40.40281 
L 266.343929 -41.900331 
L 266.298224 -43.397851 
L 266.232707 -44.895372 
L 266.142423 -46.392893 
L 266.037517 -47.890413 
L 265.931901 -49.387934 
L 265.826052 -50.885455 
L 265.708366 -52.382975 
L 265.560209 -53.880496 
L 265.364331 -55.378017 
L 265.123281 -56.875537 
L 264.852472 -58.373058 
L 264.547634 -59.870579 
L 264.182532 -61.368099 
L 263.741653 -62.86562 
L 263.236062 -64.36314 
L 262.685744 -65.860661 
L 262.106175 -67.358182 
L 261.511905 -68.855702 
L 260.904931 -70.353223 
L 260.255251 -71.850744 
L 259.519762 -73.348264 
L 258.686184 -74.845785 
L 257.778176 -76.343306 
L 256.841362 -77.840826 
L 255.941691 -79.338347 
L 255.109618 -80.835868 
L 254.282608 -82.333388 
L 253.375958 -83.830909 
L 252.384628 -85.32843 
L 251.370405 -86.82595 
L 250.391319 -88.323471 
L 249.463821 -89.820992 
L 248.574565 -91.318512 
L 247.719435 -92.816033 
L 246.905601 -94.313554 
L 246.12392 -95.811074 
L 245.392856 -97.308595 
L 244.829345 -98.806116 
L 244.581348 -100.303636 
L 244.682024 -101.801157 
L 245.014615 -103.298678 
L 245.402495 -104.796198 
L 245.735686 -106.293719 
L 246.03862 -107.79124 
L 246.414417 -109.28876 
L 246.93515 -110.786281 
L 247.6182 -112.283802 
L 248.479539 -113.781322 
L 249.526376 -115.278843 
L 250.693741 -116.776364 
L 251.861203 -118.273884 
L 252.951385 -119.771405 
L 253.980601 -121.268926 
L 255.00857 -122.766446 
L 256.072189 -124.263967 
L 257.176753 -125.761488 
L 258.304742 -127.259008 
L 259.406177 -128.756529 
L 260.402949 -130.25405 
L 261.235841 -131.75157 
L 261.912821 -133.249091 
L 262.492563 -134.746612 
L 263.032553 -136.244132 
L 263.564261 -137.741653 
L 264.087439 -139.239174 
L 264.570639 -140.736694 
L 264.971253 -142.234215 
L 265.271009 -143.731736 
L 265.493747 -145.229256 
L 265.67939 -146.726777 
L 265.848052 -148.224298 
L 265.997655 -149.721818 
L 266.118993 -151.219339 
L 266.204773 -152.71686 
L 266.257575 -154.21438 
L 266.292093 -155.711901 
L 266.322549 -157.209421 
L 266.351405 -158.706942 
L 266.37496 -160.204463 
L 266.393268 -161.701983 
L 266.409479 -163.199504 
L 266.424263 -164.697025 
L 266.435328 -166.194545 
L 266.440838 -167.692066 
L 266.441337 -169.189587 
L 266.439363 -170.687107 
L 266.437864 -172.184628 
L 266.437852 -173.682149 
L 266.438033 -175.179669 
L 266.437744 -176.67719 
L 266.438355 -178.174711 
L 266.440704 -179.672231 
L 266.443559 -181.169752 
L 266.445475 -182.667273 
L 266.447628 -182.667273 
L 266.447628 -182.667273 
L 266.449544 -181.169752 
L 266.452399 -179.672231 
L 266.454748 -178.174711 
L 266.455359 -176.67719 
L 266.45507 -175.179669 
L 266.455252 -173.682149 
L 266.45524 -172.184628 
L 266.45374 -170.687107 
L 266.451766 -169.189587 
L 266.452265 -167.692066 
L 266.457775 -166.194545 
L 266.46884 -164.697025 
L 266.483625 -163.199504 
L 266.499836 -161.701983 
L 266.518143 -160.204463 
L 266.541699 -158.706942 
L 266.570554 -157.209421 
L 266.60101 -155.711901 
L 266.635529 -154.21438 
L 266.688331 -152.71686 
L 266.774111 -151.219339 
L 266.895448 -149.721818 
L 267.045052 -148.224298 
L 267.213714 -146.726777 
L 267.399357 -145.229256 
L 267.622095 -143.731736 
L 267.92185 -142.234215 
L 268.322464 -140.736694 
L 268.805665 -139.239174 
L 269.328842 -137.741653 
L 269.86055 -136.244132 
L 270.400541 -134.746612 
L 270.980283 -133.249091 
L 271.657262 -131.75157 
L 272.490154 -130.25405 
L 273.486926 -128.756529 
L 274.588361 -127.259008 
L 275.716351 -125.761488 
L 276.820914 -124.263967 
L 277.884533 -122.766446 
L 278.912502 -121.268926 
L 279.941718 -119.771405 
L 281.0319 -118.273884 
L 282.199363 -116.776364 
L 283.366727 -115.278843 
L 284.413565 -113.781322 
L 285.274904 -112.283802 
L 285.957953 -110.786281 
L 286.478686 -109.28876 
L 286.854483 -107.79124 
L 287.157418 -106.293719 
L 287.490608 -104.796198 
L 287.878488 -103.298678 
L 288.211079 -101.801157 
L 288.311755 -100.303636 
L 288.063758 -98.806116 
L 287.500248 -97.308595 
L 286.769184 -95.811074 
L 285.987502 -94.313554 
L 285.173668 -92.816033 
L 284.318538 -91.318512 
L 283.429283 -89.820992 
L 282.501785 -88.323471 
L 281.522699 -86.82595 
L 280.508476 -85.32843 
L 279.517146 -83.830909 
L 278.610496 -82.333388 
L 277.783485 -80.835868 
L 276.951412 -79.338347 
L 276.051741 -77.840826 
L 275.114928 -76.343306 
L 274.206919 -74.845785 
L 273.373342 -73.348264 
L 272.637852 -71.850744 
L 271.988173 -70.353223 
L 271.381199 -68.855702 
L 270.786929 -67.358182 
L 270.207359 -65.860661 
L 269.657042 -64.36314 
L 269.15145 -62.86562 
L 268.710571 -61.368099 
L 268.345469 -59.870579 
L 268.040631 -58.373058 
L 267.769823 -56.875537 
L 267.528772 -55.378017 
L 267.332895 -53.880496 
L 267.184737 -52.382975 
L 267.067052 -50.885455 
L 266.961202 -49.387934 
L 266.855587 -47.890413 
L 266.75068 -46.392893 
L 266.660396 -44.895372 
L 266.594879 -43.397851 
L 266.549174 -41.900331 
L 266.514246 -40.40281 
L 266.486731 -38.905289 
L 266.466905 -37.407769 
L 266.454883 -35.910248 
L 266.44917 -34.412727 
z
" id="m3a3e94ebd5" style="stroke:#484848;stroke-width:1.5;"/>
    </defs>
    <g clip-path="url(#pc65d696454)">
     <use style="fill:#905998;stroke:#484848;stroke-width:1.5;" x="0" xlink:href="#m3a3e94ebd5" y="216"/>
    </g>
   </g>
   <g id="matplotlib.axis_7">
    <g id="xtick_4">
     <g id="line2d_10">
      <g>
       <use style="stroke:#000000;stroke-width:0.8;" x="266.446552" xlink:href="#m9c5c8912be" y="189"/>
      </g>
     </g>
     <g id="text_5">
      <!-- Modeller -->
      <g transform="translate(244.912177 203.598437)scale(0.1 -0.1)">
       <use xlink:href="#DejaVuSans-77"/>
       <use x="86.279297" xlink:href="#DejaVuSans-111"/>
       <use x="147.460938" xlink:href="#DejaVuSans-100"/>
       <use x="210.9375" xlink:href="#DejaVuSans-101"/>
       <use x="272.460938" xlink:href="#DejaVuSans-108"/>
       <use x="300.244141" xlink:href="#DejaVuSans-108"/>
       <use x="328.027344" xlink:href="#DejaVuSans-101"/>
       <use x="389.550781" xlink:href="#DejaVuSans-114"/>
      </g>
      <!-- (ga341) -->
      <defs>
       <path d="M 45.40625 27.984375 
Q 45.40625 37.75 41.375 43.109375 
Q 37.359375 48.484375 30.078125 48.484375 
Q 22.859375 48.484375 18.828125 43.109375 
Q 14.796875 37.75 14.796875 27.984375 
Q 14.796875 18.265625 18.828125 12.890625 
Q 22.859375 7.515625 30.078125 7.515625 
Q 37.359375 7.515625 41.375 12.890625 
Q 45.40625 18.265625 45.40625 27.984375 
z
M 54.390625 6.78125 
Q 54.390625 -7.171875 48.1875 -13.984375 
Q 42 -20.796875 29.203125 -20.796875 
Q 24.46875 -20.796875 20.265625 -20.09375 
Q 16.0625 -19.390625 12.109375 -17.921875 
L 12.109375 -9.1875 
Q 16.0625 -11.328125 19.921875 -12.34375 
Q 23.78125 -13.375 27.78125 -13.375 
Q 36.625 -13.375 41.015625 -8.765625 
Q 45.40625 -4.15625 45.40625 5.171875 
L 45.40625 9.625 
Q 42.625 4.78125 38.28125 2.390625 
Q 33.9375 0 27.875 0 
Q 17.828125 0 11.671875 7.65625 
Q 5.515625 15.328125 5.515625 27.984375 
Q 5.515625 40.671875 11.671875 48.328125 
Q 17.828125 56 27.875 56 
Q 33.9375 56 38.28125 53.609375 
Q 42.625 51.21875 45.40625 46.390625 
L 45.40625 54.6875 
L 54.390625 54.6875 
z
" id="DejaVuSans-103"/>
       <path d="M 34.28125 27.484375 
Q 23.390625 27.484375 19.1875 25 
Q 14.984375 22.515625 14.984375 16.5 
Q 14.984375 11.71875 18.140625 8.90625 
Q 21.296875 6.109375 26.703125 6.109375 
Q 34.1875 6.109375 38.703125 11.40625 
Q 43.21875 16.703125 43.21875 25.484375 
L 43.21875 27.484375 
z
M 52.203125 31.203125 
L 52.203125 0 
L 43.21875 0 
L 43.21875 8.296875 
Q 40.140625 3.328125 35.546875 0.953125 
Q 30.953125 -1.421875 24.3125 -1.421875 
Q 15.921875 -1.421875 10.953125 3.296875 
Q 6 8.015625 6 15.921875 
Q 6 25.140625 12.171875 29.828125 
Q 18.359375 34.515625 30.609375 34.515625 
L 43.21875 34.515625 
L 43.21875 35.40625 
Q 43.21875 41.609375 39.140625 45 
Q 35.0625 48.390625 27.6875 48.390625 
Q 23 48.390625 18.546875 47.265625 
Q 14.109375 46.140625 10.015625 43.890625 
L 10.015625 52.203125 
Q 14.9375 54.109375 19.578125 55.046875 
Q 24.21875 56 28.609375 56 
Q 40.484375 56 46.34375 49.84375 
Q 52.203125 43.703125 52.203125 31.203125 
z
" id="DejaVuSans-97"/>
       <path d="M 40.578125 39.3125 
Q 47.65625 37.796875 51.625 33 
Q 55.609375 28.21875 55.609375 21.1875 
Q 55.609375 10.40625 48.1875 4.484375 
Q 40.765625 -1.421875 27.09375 -1.421875 
Q 22.515625 -1.421875 17.65625 -0.515625 
Q 12.796875 0.390625 7.625 2.203125 
L 7.625 11.71875 
Q 11.71875 9.328125 16.59375 8.109375 
Q 21.484375 6.890625 26.8125 6.890625 
Q 36.078125 6.890625 40.9375 10.546875 
Q 45.796875 14.203125 45.796875 21.1875 
Q 45.796875 27.640625 41.28125 31.265625 
Q 36.765625 34.90625 28.71875 34.90625 
L 20.21875 34.90625 
L 20.21875 43.015625 
L 29.109375 43.015625 
Q 36.375 43.015625 40.234375 45.921875 
Q 44.09375 48.828125 44.09375 54.296875 
Q 44.09375 59.90625 40.109375 62.90625 
Q 36.140625 65.921875 28.71875 65.921875 
Q 24.65625 65.921875 20.015625 65.03125 
Q 15.375 64.15625 9.8125 62.3125 
L 9.8125 71.09375 
Q 15.4375 72.65625 20.34375 73.4375 
Q 25.25 74.21875 29.59375 74.21875 
Q 40.828125 74.21875 47.359375 69.109375 
Q 53.90625 64.015625 53.90625 55.328125 
Q 53.90625 49.265625 50.4375 45.09375 
Q 46.96875 40.921875 40.578125 39.3125 
z
" id="DejaVuSans-51"/>
       <path d="M 37.796875 64.3125 
L 12.890625 25.390625 
L 37.796875 25.390625 
z
M 35.203125 72.90625 
L 47.609375 72.90625 
L 47.609375 25.390625 
L 58.015625 25.390625 
L 58.015625 17.1875 
L 47.609375 17.1875 
L 47.609375 0 
L 37.796875 0 
L 37.796875 17.1875 
L 4.890625 17.1875 
L 4.890625 26.703125 
z
" id="DejaVuSans-52"/>
       <path d="M 12.40625 8.296875 
L 28.515625 8.296875 
L 28.515625 63.921875 
L 10.984375 60.40625 
L 10.984375 69.390625 
L 28.421875 72.90625 
L 38.28125 72.90625 
L 38.28125 8.296875 
L 54.390625 8.296875 
L 54.390625 0 
L 12.40625 0 
z
" id="DejaVuSans-49"/>
      </defs>
      <g transform="translate(246.762958 214.79625)scale(0.1 -0.1)">
       <use xlink:href="#DejaVuSans-40"/>
       <use x="39.013672" xlink:href="#DejaVuSans-103"/>
       <use x="102.490234" xlink:href="#DejaVuSans-97"/>
       <use x="163.769531" xlink:href="#DejaVuSans-51"/>
       <use x="227.392578" xlink:href="#DejaVuSans-52"/>
       <use x="291.015625" xlink:href="#DejaVuSans-49"/>
       <use x="354.638672" xlink:href="#DejaVuSans-41"/>
      </g>
     </g>
    </g>
   </g>
   <g id="matplotlib.axis_8"/>
   <g id="LineCollection_4">
    <path clip-path="url(#pc65d696454)" d="M 242.394828 138.214222 
L 290.498276 138.214222 
" style="fill:none;stroke:#000000;stroke-dasharray:1.5,2.475;stroke-dashoffset:0;stroke-width:1.5;"/>
   </g>
   <g id="line2d_11">
    <path clip-path="url(#pc65d696454)" d="M 266.446552 164.060275 
L 266.446552 65.702704 
" style="fill:none;stroke:#484848;stroke-linecap:square;stroke-width:1.5;"/>
   </g>
   <g id="line2d_12">
    <path clip-path="url(#pc65d696454)" d="M 266.446552 127.048791 
L 266.446552 102.354488 
" style="fill:none;stroke:#484848;stroke-linecap:square;stroke-width:4.5;"/>
   </g>
   <g id="patch_12">
    <path d="M 239.989655 189 
L 292.903448 189 
" style="fill:none;stroke:#000000;stroke-linecap:square;stroke-linejoin:miter;stroke-width:0.8;"/>
   </g>
   <g id="patch_13">
    <path d="M 239.989655 25.92 
L 292.903448 25.92 
" style="fill:none;stroke:#000000;stroke-linecap:square;stroke-linejoin:miter;stroke-width:0.8;"/>
   </g>
   <g id="PathCollection_4">
    <g clip-path="url(#pc65d696454)">
     <use style="fill:#ffffff;stroke:#484848;" x="266.446552" xlink:href="#m95952fcf04" y="114.563432"/>
    </g>
   </g>
  </g>
  <g id="axes_5">
   <g id="patch_14">
    <path d="M 303.486207 189 
L 356.4 189 
L 356.4 25.92 
L 303.486207 25.92 
z
" style="fill:#ffffff;"/>
   </g>
   <g id="PolyCollection_5">
    <defs>
     <path d="M 329.944091 -34.412727 
L 329.942116 -34.412727 
L 329.938506 -35.910248 
L 329.932176 -37.407769 
L 329.921932 -38.905289 
L 329.901142 -40.40281 
L 329.868099 -41.900331 
L 329.82382 -43.397851 
L 329.755609 -44.895372 
L 329.633641 -46.392893 
L 329.485127 -47.890413 
L 329.334943 -49.387934 
L 329.025895 -50.885455 
L 328.508292 -52.382975 
L 327.925889 -53.880496 
L 327.241434 -55.378017 
L 326.33852 -56.875537 
L 325.2172 -58.373058 
L 323.847015 -59.870579 
L 322.203932 -61.368099 
L 320.32786 -62.86562 
L 318.273998 -64.36314 
L 316.112637 -65.860661 
L 314.045778 -67.358182 
L 312.332971 -68.855702 
L 310.966375 -70.353223 
L 309.791492 -71.850744 
L 308.824547 -73.348264 
L 308.179812 -74.845785 
L 308.0779 -76.343306 
L 308.470853 -77.840826 
L 309.386686 -79.338347 
L 310.836818 -80.835868 
L 312.551044 -82.333388 
L 314.229247 -83.830909 
L 315.816103 -85.32843 
L 317.737179 -86.82595 
L 319.792368 -88.323471 
L 321.550297 -89.820992 
L 323.185275 -91.318512 
L 324.727696 -92.816033 
L 326.039857 -94.313554 
L 326.969342 -95.811074 
L 327.608956 -97.308595 
L 328.137702 -98.806116 
L 328.550979 -100.303636 
L 328.917076 -101.801157 
L 329.22112 -103.298678 
L 329.423568 -104.796198 
L 329.58489 -106.293719 
L 329.721433 -107.79124 
L 329.814463 -109.28876 
L 329.870844 -110.786281 
L 329.908243 -112.283802 
L 329.918126 -113.781322 
L 329.916604 -115.278843 
L 329.925493 -116.776364 
L 329.93293 -118.273884 
L 329.931336 -119.771405 
L 329.9306 -121.268926 
L 329.932748 -122.766446 
L 329.933555 -124.263967 
L 329.93404 -125.761488 
L 329.93399 -127.259008 
L 329.934096 -128.756529 
L 329.931919 -130.25405 
L 329.92972 -131.75157 
L 329.929376 -133.249091 
L 329.926381 -134.746612 
L 329.920889 -136.244132 
L 329.907446 -137.741653 
L 329.88862 -139.239174 
L 329.886038 -140.736694 
L 329.897703 -142.234215 
L 329.902854 -143.731736 
L 329.886537 -145.229256 
L 329.8667 -146.726777 
L 329.858367 -148.224298 
L 329.852978 -149.721818 
L 329.84569 -151.219339 
L 329.846485 -152.71686 
L 329.863177 -154.21438 
L 329.883003 -155.711901 
L 329.893422 -157.209421 
L 329.89101 -158.706942 
L 329.887196 -160.204463 
L 329.891134 -161.701983 
L 329.904896 -163.199504 
L 329.911321 -164.697025 
L 329.908377 -166.194545 
L 329.903969 -167.692066 
L 329.898686 -169.189587 
L 329.897195 -170.687107 
L 329.901397 -172.184628 
L 329.909615 -173.682149 
L 329.922416 -175.179669 
L 329.930394 -176.67719 
L 329.92946 -178.174711 
L 329.929162 -179.672231 
L 329.936283 -181.169752 
L 329.941717 -182.667273 
L 329.94449 -182.667273 
L 329.94449 -182.667273 
L 329.949924 -181.169752 
L 329.957045 -179.672231 
L 329.956747 -178.174711 
L 329.955813 -176.67719 
L 329.963791 -175.179669 
L 329.976592 -173.682149 
L 329.98481 -172.184628 
L 329.989012 -170.687107 
L 329.987521 -169.189587 
L 329.982238 -167.692066 
L 329.97783 -166.194545 
L 329.974886 -164.697025 
L 329.981311 -163.199504 
L 329.995073 -161.701983 
L 329.99901 -160.204463 
L 329.995197 -158.706942 
L 329.992785 -157.209421 
L 330.003204 -155.711901 
L 330.02303 -154.21438 
L 330.039722 -152.71686 
L 330.040517 -151.219339 
L 330.033229 -149.721818 
L 330.02784 -148.224298 
L 330.019507 -146.726777 
L 329.99967 -145.229256 
L 329.983353 -143.731736 
L 329.988504 -142.234215 
L 330.000169 -140.736694 
L 329.997587 -139.239174 
L 329.978761 -137.741653 
L 329.965318 -136.244132 
L 329.959826 -134.746612 
L 329.956831 -133.249091 
L 329.956486 -131.75157 
L 329.954288 -130.25405 
L 329.952111 -128.756529 
L 329.952217 -127.259008 
L 329.952167 -125.761488 
L 329.952652 -124.263967 
L 329.953459 -122.766446 
L 329.955607 -121.268926 
L 329.954871 -119.771405 
L 329.953277 -118.273884 
L 329.960714 -116.776364 
L 329.969603 -115.278843 
L 329.968081 -113.781322 
L 329.977964 -112.283802 
L 330.015362 -110.786281 
L 330.071744 -109.28876 
L 330.164774 -107.79124 
L 330.301317 -106.293719 
L 330.462639 -104.796198 
L 330.665087 -103.298678 
L 330.969131 -101.801157 
L 331.335228 -100.303636 
L 331.748505 -98.806116 
L 332.277251 -97.308595 
L 332.916865 -95.811074 
L 333.846349 -94.313554 
L 335.158511 -92.816033 
L 336.700932 -91.318512 
L 338.33591 -89.820992 
L 340.093839 -88.323471 
L 342.149028 -86.82595 
L 344.070104 -85.32843 
L 345.65696 -83.830909 
L 347.335163 -82.333388 
L 349.049389 -80.835868 
L 350.499521 -79.338347 
L 351.415354 -77.840826 
L 351.808307 -76.343306 
L 351.706395 -74.845785 
L 351.061659 -73.348264 
L 350.094715 -71.850744 
L 348.919832 -70.353223 
L 347.553236 -68.855702 
L 345.840428 -67.358182 
L 343.77357 -65.860661 
L 341.612209 -64.36314 
L 339.558347 -62.86562 
L 337.682275 -61.368099 
L 336.039192 -59.870579 
L 334.669007 -58.373058 
L 333.547687 -56.875537 
L 332.644773 -55.378017 
L 331.960318 -53.880496 
L 331.377914 -52.382975 
L 330.860312 -50.885455 
L 330.551264 -49.387934 
L 330.401079 -47.890413 
L 330.252566 -46.392893 
L 330.130597 -44.895372 
L 330.062387 -43.397851 
L 330.018108 -41.900331 
L 329.985065 -40.40281 
L 329.964274 -38.905289 
L 329.954031 -37.407769 
L 329.947701 -35.910248 
L 329.944091 -34.412727 
z
" id="m1568eee2ab" style="stroke:#4c4c4c;stroke-width:1.5;"/>
    </defs>
    <g clip-path="url(#p235ccd0558)">
     <use style="fill:#df7f20;stroke:#4c4c4c;stroke-width:1.5;" x="0" xlink:href="#m1568eee2ab" y="216"/>
    </g>
   </g>
   <g id="matplotlib.axis_9">
    <g id="xtick_5">
     <g id="line2d_13">
      <g>
       <use style="stroke:#000000;stroke-width:0.8;" x="329.943103" xlink:href="#m9c5c8912be" y="189"/>
      </g>
     </g>
     <g id="text_6">
      <!-- Rosetta -->
      <defs>
       <path d="M 44.390625 34.1875 
Q 47.5625 33.109375 50.5625 29.59375 
Q 53.5625 26.078125 56.59375 19.921875 
L 66.609375 0 
L 56 0 
L 46.6875 18.703125 
Q 43.0625 26.03125 39.671875 28.421875 
Q 36.28125 30.8125 30.421875 30.8125 
L 19.671875 30.8125 
L 19.671875 0 
L 9.8125 0 
L 9.8125 72.90625 
L 32.078125 72.90625 
Q 44.578125 72.90625 50.734375 67.671875 
Q 56.890625 62.453125 56.890625 51.90625 
Q 56.890625 45.015625 53.6875 40.46875 
Q 50.484375 35.9375 44.390625 34.1875 
z
M 19.671875 64.796875 
L 19.671875 38.921875 
L 32.078125 38.921875 
Q 39.203125 38.921875 42.84375 42.21875 
Q 46.484375 45.515625 46.484375 51.90625 
Q 46.484375 58.296875 42.84375 61.546875 
Q 39.203125 64.796875 32.078125 64.796875 
z
" id="DejaVuSans-82"/>
       <path d="M 44.28125 53.078125 
L 44.28125 44.578125 
Q 40.484375 46.53125 36.375 47.5 
Q 32.28125 48.484375 27.875 48.484375 
Q 21.1875 48.484375 17.84375 46.4375 
Q 14.5 44.390625 14.5 40.28125 
Q 14.5 37.15625 16.890625 35.375 
Q 19.28125 33.59375 26.515625 31.984375 
L 29.59375 31.296875 
Q 39.15625 29.25 43.1875 25.515625 
Q 47.21875 21.78125 47.21875 15.09375 
Q 47.21875 7.46875 41.1875 3.015625 
Q 35.15625 -1.421875 24.609375 -1.421875 
Q 20.21875 -1.421875 15.453125 -0.5625 
Q 10.6875 0.296875 5.421875 2 
L 5.421875 11.28125 
Q 10.40625 8.6875 15.234375 7.390625 
Q 20.0625 6.109375 24.8125 6.109375 
Q 31.15625 6.109375 34.5625 8.28125 
Q 37.984375 10.453125 37.984375 14.40625 
Q 37.984375 18.0625 35.515625 20.015625 
Q 33.0625 21.96875 24.703125 23.78125 
L 21.578125 24.515625 
Q 13.234375 26.265625 9.515625 29.90625 
Q 5.8125 33.546875 5.8125 39.890625 
Q 5.8125 47.609375 11.28125 51.796875 
Q 16.75 56 26.8125 56 
Q 31.78125 56 36.171875 55.265625 
Q 40.578125 54.546875 44.28125 53.078125 
z
" id="DejaVuSans-115"/>
       <path d="M 18.3125 70.21875 
L 18.3125 54.6875 
L 36.8125 54.6875 
L 36.8125 47.703125 
L 18.3125 47.703125 
L 18.3125 18.015625 
Q 18.3125 11.328125 20.140625 9.421875 
Q 21.96875 7.515625 27.59375 7.515625 
L 36.8125 7.515625 
L 36.8125 0 
L 27.59375 0 
Q 17.1875 0 13.234375 3.875 
Q 9.28125 7.765625 9.28125 18.015625 
L 9.28125 47.703125 
L 2.6875 47.703125 
L 2.6875 54.6875 
L 9.28125 54.6875 
L 9.28125 70.21875 
z
" id="DejaVuSans-116"/>
      </defs>
      <g transform="translate(310.968885 203.598437)scale(0.1 -0.1)">
       <use xlink:href="#DejaVuSans-82"/>
       <use x="64.982422" xlink:href="#DejaVuSans-111"/>
       <use x="126.164062" xlink:href="#DejaVuSans-115"/>
       <use x="178.263672" xlink:href="#DejaVuSans-101"/>
       <use x="239.787109" xlink:href="#DejaVuSans-116"/>
       <use x="278.996094" xlink:href="#DejaVuSans-116"/>
       <use x="318.205078" xlink:href="#DejaVuSans-97"/>
      </g>
      <!-- (score) -->
      <g transform="translate(312.608728 214.79625)scale(0.1 -0.1)">
       <use xlink:href="#DejaVuSans-40"/>
       <use x="39.013672" xlink:href="#DejaVuSans-115"/>
       <use x="91.113281" xlink:href="#DejaVuSans-99"/>
       <use x="146.09375" xlink:href="#DejaVuSans-111"/>
       <use x="207.275391" xlink:href="#DejaVuSans-114"/>
       <use x="246.138672" xlink:href="#DejaVuSans-101"/>
       <use x="307.662109" xlink:href="#DejaVuSans-41"/>
      </g>
     </g>
    </g>
   </g>
   <g id="matplotlib.axis_10"/>
   <g id="LineCollection_5">
    <path clip-path="url(#p235ccd0558)" d="M 305.891379 130.062066 
L 353.994828 130.062066 
" style="fill:none;stroke:#000000;stroke-dasharray:1.5,2.475;stroke-dashoffset:0;stroke-width:1.5;"/>
   </g>
   <g id="line2d_14">
    <path clip-path="url(#p235ccd0558)" d="M 329.943103 167.27838 
L 329.943103 112.988292 
" style="fill:none;stroke:#4c4c4c;stroke-linecap:square;stroke-width:1.5;"/>
   </g>
   <g id="line2d_15">
    <path clip-path="url(#p235ccd0558)" d="M 329.943103 146.900167 
L 329.943103 133.313855 
" style="fill:none;stroke:#4c4c4c;stroke-linecap:square;stroke-width:4.5;"/>
   </g>
   <g id="patch_15">
    <path d="M 303.486207 189 
L 356.4 189 
" style="fill:none;stroke:#000000;stroke-linecap:square;stroke-linejoin:miter;stroke-width:0.8;"/>
   </g>
   <g id="patch_16">
    <path d="M 303.486207 25.92 
L 356.4 25.92 
" style="fill:none;stroke:#000000;stroke-linecap:square;stroke-linejoin:miter;stroke-width:0.8;"/>
   </g>
   <g id="PathCollection_5">
    <g clip-path="url(#p235ccd0558)">
     <use style="fill:#ffffff;stroke:#4c4c4c;" x="329.943103" xlink:href="#m58297954f2" y="140.1208"/>
    </g>
   </g>
  </g>
 </g>
 <defs>
  <clipPath id="p7a65be2e45">
   <rect height="163.08" width="52.913793" x="49.5" y="25.92"/>
  </clipPath>
  <clipPath id="pa52db6f71e">
   <rect height="163.08" width="52.913793" x="112.996552" y="25.92"/>
  </clipPath>
  <clipPath id="p6ebfc465b0">
   <rect height="163.08" width="52.913793" x="176.493103" y="25.92"/>
  </clipPath>
  <clipPath id="pc65d696454">
   <rect height="163.08" width="52.913793" x="239.989655" y="25.92"/>
  </clipPath>
  <clipPath id="p235ccd0558">
   <rect height="163.08" width="52.913793" x="303.486207" y="25.92"/>
  </clipPath>
 </defs>
</svg>
