<?xml version="1.0" encoding="utf-8" standalone="no"?>
<!DOCTYPE svg PUBLIC "-//W3C//DTD SVG 1.1//EN"
  "http://www.w3.org/Graphics/SVG/1.1/DTD/svg11.dtd">
<!-- Created with matplotlib (https://matplotlib.org/) -->
<svg height="380.44125pt" version="1.1" viewBox="0 0 510.430625 380.44125" width="510.430625pt" xmlns="http://www.w3.org/2000/svg" xmlns:xlink="http://www.w3.org/1999/xlink">
 <defs>
  <style type="text/css">
*{stroke-linecap:butt;stroke-linejoin:round;}
  </style>
 </defs>
 <g id="figure_1">
  <g id="patch_1">
   <path d="M 0 380.44125 
L 510.430625 380.44125 
L 510.430625 0 
L 0 0 
z
" style="fill:#ffffff;"/>
  </g>
  <g id="axes_1">
   <g id="patch_2">
    <path d="M 81.430625 327.4 
L 503.230625 327.4 
L 503.230625 7.2 
L 81.430625 7.2 
z
" style="fill:#ffffff;"/>
   </g>
   <g id="patch_3">
    <path clip-path="url(#pfbcec95a4b)" d="M 81.430625 327.4 
L 86.703125 327.4 
L 86.703125 327.4 
L 81.430625 327.4 
z
" style="fill:#999999;"/>
   </g>
   <g id="patch_4">
    <path clip-path="url(#pfbcec95a4b)" d="M 86.703125 327.4 
L 91.975625 327.4 
L 91.975625 327.4 
L 86.703125 327.4 
z
" style="fill:#999999;"/>
   </g>
   <g id="patch_5">
    <path clip-path="url(#pfbcec95a4b)" d="M 91.975625 327.4 
L 97.248125 327.4 
L 97.248125 327.4 
L 91.975625 327.4 
z
" style="fill:#999999;"/>
   </g>
   <g id="patch_6">
    <path clip-path="url(#pfbcec95a4b)" d="M 97.248125 327.4 
L 102.520625 327.4 
L 102.520625 327.4 
L 97.248125 327.4 
z
" style="fill:#999999;"/>
   </g>
   <g id="patch_7">
    <path clip-path="url(#pfbcec95a4b)" d="M 102.520625 327.4 
L 107.793125 327.4 
L 107.793125 327.4 
L 102.520625 327.4 
z
" style="fill:#999999;"/>
   </g>
   <g id="patch_8">
    <path clip-path="url(#pfbcec95a4b)" d="M 107.793125 327.4 
L 113.065625 327.4 
L 113.065625 327.4 
L 107.793125 327.4 
z
" style="fill:#999999;"/>
   </g>
   <g id="patch_9">
    <path clip-path="url(#pfbcec95a4b)" d="M 113.065625 327.4 
L 118.338125 327.4 
L 118.338125 327.4 
L 113.065625 327.4 
z
" style="fill:#999999;"/>
   </g>
   <g id="patch_10">
    <path clip-path="url(#pfbcec95a4b)" d="M 118.338125 327.4 
L 123.610625 327.4 
L 123.610625 327.4 
L 118.338125 327.4 
z
" style="fill:#999999;"/>
   </g>
   <g id="patch_11">
    <path clip-path="url(#pfbcec95a4b)" d="M 123.610625 327.4 
L 128.883125 327.4 
L 128.883125 326.860261 
L 123.610625 326.860261 
z
" style="fill:#999999;"/>
   </g>
   <g id="patch_12">
    <path clip-path="url(#pfbcec95a4b)" d="M 128.883125 327.4 
L 134.155625 327.4 
L 134.155625 327.130131 
L 128.883125 327.130131 
z
" style="fill:#999999;"/>
   </g>
   <g id="patch_13">
    <path clip-path="url(#pfbcec95a4b)" d="M 134.155625 327.4 
L 139.428125 327.4 
L 139.428125 325.241045 
L 134.155625 325.241045 
z
" style="fill:#999999;"/>
   </g>
   <g id="patch_14">
    <path clip-path="url(#pfbcec95a4b)" d="M 139.428125 327.4 
L 144.700625 327.4 
L 144.700625 321.462874 
L 139.428125 321.462874 
z
" style="fill:#999999;"/>
   </g>
   <g id="patch_15">
    <path clip-path="url(#pfbcec95a4b)" d="M 144.700625 327.4 
L 149.973125 327.4 
L 149.973125 315.525748 
L 144.700625 315.525748 
z
" style="fill:#999999;"/>
   </g>
   <g id="patch_16">
    <path clip-path="url(#pfbcec95a4b)" d="M 149.973125 327.4 
L 155.245625 327.4 
L 155.245625 308.509145 
L 149.973125 308.509145 
z
" style="fill:#999999;"/>
   </g>
   <g id="patch_17">
    <path clip-path="url(#pfbcec95a4b)" d="M 155.245625 327.4 
L 160.518125 327.4 
L 160.518125 293.936199 
L 155.245625 293.936199 
z
" style="fill:#999999;"/>
   </g>
   <g id="patch_18">
    <path clip-path="url(#pfbcec95a4b)" d="M 160.518125 327.4 
L 165.790625 327.4 
L 165.790625 279.902992 
L 160.518125 279.902992 
z
" style="fill:#999999;"/>
   </g>
   <g id="patch_19">
    <path clip-path="url(#pfbcec95a4b)" d="M 165.790625 327.4 
L 171.063125 327.4 
L 171.063125 253.725664 
L 165.790625 253.725664 
z
" style="fill:#999999;"/>
   </g>
   <g id="patch_20">
    <path clip-path="url(#pfbcec95a4b)" d="M 171.063125 327.4 
L 176.335625 327.4 
L 176.335625 224.309903 
L 171.063125 224.309903 
z
" style="fill:#999999;"/>
   </g>
   <g id="patch_21">
    <path clip-path="url(#pfbcec95a4b)" d="M 176.335625 327.4 
L 181.608125 327.4 
L 181.608125 175.733418 
L 176.335625 175.733418 
z
" style="fill:#999999;"/>
   </g>
   <g id="patch_22">
    <path clip-path="url(#pfbcec95a4b)" d="M 181.608125 327.4 
L 186.880625 327.4 
L 186.880625 158.191909 
L 181.608125 158.191909 
z
" style="fill:#999999;"/>
   </g>
   <g id="patch_23">
    <path clip-path="url(#pfbcec95a4b)" d="M 186.880625 327.4 
L 192.153125 327.4 
L 192.153125 111.504509 
L 186.880625 111.504509 
z
" style="fill:#999999;"/>
   </g>
   <g id="patch_24">
    <path clip-path="url(#pfbcec95a4b)" d="M 192.153125 327.4 
L 197.425625 327.4 
L 197.425625 82.628487 
L 192.153125 82.628487 
z
" style="fill:#999999;"/>
   </g>
   <g id="patch_25">
    <path clip-path="url(#pfbcec95a4b)" d="M 197.425625 327.4 
L 202.698125 327.4 
L 202.698125 55.641551 
L 197.425625 55.641551 
z
" style="fill:#999999;"/>
   </g>
   <g id="patch_26">
    <path clip-path="url(#pfbcec95a4b)" d="M 202.698125 327.4 
L 207.970625 327.4 
L 207.970625 27.845006 
L 202.698125 27.845006 
z
" style="fill:#999999;"/>
   </g>
   <g id="patch_27">
    <path clip-path="url(#pfbcec95a4b)" d="M 207.970625 327.4 
L 213.243125 327.4 
L 213.243125 22.447619 
L 207.970625 22.447619 
z
" style="fill:#999999;"/>
   </g>
   <g id="patch_28">
    <path clip-path="url(#pfbcec95a4b)" d="M 213.243125 327.4 
L 218.515625 327.4 
L 218.515625 27.035398 
L 213.243125 27.035398 
z
" style="fill:#999999;"/>
   </g>
   <g id="patch_29">
    <path clip-path="url(#pfbcec95a4b)" d="M 218.515625 327.4 
L 223.788125 327.4 
L 223.788125 41.608344 
L 218.515625 41.608344 
z
" style="fill:#999999;"/>
   </g>
   <g id="patch_30">
    <path clip-path="url(#pfbcec95a4b)" d="M 223.788125 327.4 
L 229.060625 327.4 
L 229.060625 51.053772 
L 223.788125 51.053772 
z
" style="fill:#999999;"/>
   </g>
   <g id="patch_31">
    <path clip-path="url(#pfbcec95a4b)" d="M 229.060625 327.4 
L 234.333125 327.4 
L 234.333125 73.992668 
L 229.060625 73.992668 
z
" style="fill:#999999;"/>
   </g>
   <g id="patch_32">
    <path clip-path="url(#pfbcec95a4b)" d="M 234.333125 327.4 
L 239.605625 327.4 
L 239.605625 86.406658 
L 234.333125 86.406658 
z
" style="fill:#999999;"/>
   </g>
   <g id="patch_33">
    <path clip-path="url(#pfbcec95a4b)" d="M 239.605625 327.4 
L 244.878125 327.4 
L 244.878125 111.23464 
L 239.605625 111.23464 
z
" style="fill:#999999;"/>
   </g>
   <g id="patch_34">
    <path clip-path="url(#pfbcec95a4b)" d="M 244.878125 327.4 
L 250.150625 327.4 
L 250.150625 118.790982 
L 244.878125 118.790982 
z
" style="fill:#999999;"/>
   </g>
   <g id="patch_35">
    <path clip-path="url(#pfbcec95a4b)" d="M 250.150625 327.4 
L 255.423125 327.4 
L 255.423125 147.397134 
L 250.150625 147.397134 
z
" style="fill:#999999;"/>
   </g>
   <g id="patch_36">
    <path clip-path="url(#pfbcec95a4b)" d="M 255.423125 327.4 
L 260.695625 327.4 
L 260.695625 170.066161 
L 255.423125 170.066161 
z
" style="fill:#999999;"/>
   </g>
   <g id="patch_37">
    <path clip-path="url(#pfbcec95a4b)" d="M 260.695625 327.4 
L 265.968125 327.4 
L 265.968125 181.670544 
L 260.695625 181.670544 
z
" style="fill:#999999;"/>
   </g>
   <g id="patch_38">
    <path clip-path="url(#pfbcec95a4b)" d="M 265.968125 327.4 
L 271.240625 327.4 
L 271.240625 197.862705 
L 265.968125 197.862705 
z
" style="fill:#999999;"/>
   </g>
   <g id="patch_39">
    <path clip-path="url(#pfbcec95a4b)" d="M 271.240625 327.4 
L 276.513125 327.4 
L 276.513125 214.054867 
L 271.240625 214.054867 
z
" style="fill:#999999;"/>
   </g>
   <g id="patch_40">
    <path clip-path="url(#pfbcec95a4b)" d="M 276.513125 327.4 
L 281.785625 327.4 
L 281.785625 223.770164 
L 276.513125 223.770164 
z
" style="fill:#999999;"/>
   </g>
   <g id="patch_41">
    <path clip-path="url(#pfbcec95a4b)" d="M 281.785625 327.4 
L 287.058125 327.4 
L 287.058125 227.818205 
L 281.785625 227.818205 
z
" style="fill:#999999;"/>
   </g>
   <g id="patch_42">
    <path clip-path="url(#pfbcec95a4b)" d="M 287.058125 327.4 
L 292.330625 327.4 
L 292.330625 240.232196 
L 287.058125 240.232196 
z
" style="fill:#999999;"/>
   </g>
   <g id="patch_43">
    <path clip-path="url(#pfbcec95a4b)" d="M 292.330625 327.4 
L 297.603125 327.4 
L 297.603125 251.296839 
L 292.330625 251.296839 
z
" style="fill:#999999;"/>
   </g>
   <g id="patch_44">
    <path clip-path="url(#pfbcec95a4b)" d="M 297.603125 327.4 
L 302.875625 327.4 
L 302.875625 261.282006 
L 297.603125 261.282006 
z
" style="fill:#999999;"/>
   </g>
   <g id="patch_45">
    <path clip-path="url(#pfbcec95a4b)" d="M 302.875625 327.4 
L 308.148125 327.4 
L 308.148125 260.472398 
L 302.875625 260.472398 
z
" style="fill:#999999;"/>
   </g>
   <g id="patch_46">
    <path clip-path="url(#pfbcec95a4b)" d="M 308.148125 327.4 
L 313.420625 327.4 
L 313.420625 265.869785 
L 308.148125 265.869785 
z
" style="fill:#999999;"/>
   </g>
   <g id="patch_47">
    <path clip-path="url(#pfbcec95a4b)" d="M 313.420625 327.4 
L 318.693125 327.4 
L 318.693125 268.568479 
L 313.420625 268.568479 
z
" style="fill:#999999;"/>
   </g>
   <g id="patch_48">
    <path clip-path="url(#pfbcec95a4b)" d="M 318.693125 327.4 
L 323.965625 327.4 
L 323.965625 273.156258 
L 318.693125 273.156258 
z
" style="fill:#999999;"/>
   </g>
   <g id="patch_49">
    <path clip-path="url(#pfbcec95a4b)" d="M 323.965625 327.4 
L 329.238125 327.4 
L 329.238125 279.633123 
L 323.965625 279.633123 
z
" style="fill:#999999;"/>
   </g>
   <g id="patch_50">
    <path clip-path="url(#pfbcec95a4b)" d="M 329.238125 327.4 
L 334.510625 327.4 
L 334.510625 287.999073 
L 329.238125 287.999073 
z
" style="fill:#999999;"/>
   </g>
   <g id="patch_51">
    <path clip-path="url(#pfbcec95a4b)" d="M 334.510625 327.4 
L 339.783125 327.4 
L 339.783125 290.158028 
L 334.510625 290.158028 
z
" style="fill:#999999;"/>
   </g>
   <g id="patch_52">
    <path clip-path="url(#pfbcec95a4b)" d="M 339.783125 327.4 
L 345.055625 327.4 
L 345.055625 295.285546 
L 339.783125 295.285546 
z
" style="fill:#999999;"/>
   </g>
   <g id="patch_53">
    <path clip-path="url(#pfbcec95a4b)" d="M 345.055625 327.4 
L 350.328125 327.4 
L 350.328125 298.254109 
L 345.055625 298.254109 
z
" style="fill:#999999;"/>
   </g>
   <g id="patch_54">
    <path clip-path="url(#pfbcec95a4b)" d="M 350.328125 327.4 
L 355.600625 327.4 
L 355.600625 301.76241 
L 350.328125 301.76241 
z
" style="fill:#999999;"/>
   </g>
   <g id="patch_55">
    <path clip-path="url(#pfbcec95a4b)" d="M 355.600625 327.4 
L 360.873125 327.4 
L 360.873125 303.111757 
L 355.600625 303.111757 
z
" style="fill:#999999;"/>
   </g>
   <g id="patch_56">
    <path clip-path="url(#pfbcec95a4b)" d="M 360.873125 327.4 
L 366.145625 327.4 
L 366.145625 305.000843 
L 360.873125 305.000843 
z
" style="fill:#999999;"/>
   </g>
   <g id="patch_57">
    <path clip-path="url(#pfbcec95a4b)" d="M 366.145625 327.4 
L 371.418125 327.4 
L 371.418125 306.35019 
L 366.145625 306.35019 
z
" style="fill:#999999;"/>
   </g>
   <g id="patch_58">
    <path clip-path="url(#pfbcec95a4b)" d="M 371.418125 327.4 
L 376.690625 327.4 
L 376.690625 313.366793 
L 371.418125 313.366793 
z
" style="fill:#999999;"/>
   </g>
   <g id="patch_59">
    <path clip-path="url(#pfbcec95a4b)" d="M 376.690625 327.4 
L 381.963125 327.4 
L 381.963125 314.446271 
L 376.690625 314.446271 
z
" style="fill:#999999;"/>
   </g>
   <g id="patch_60">
    <path clip-path="url(#pfbcec95a4b)" d="M 381.963125 327.4 
L 387.235625 327.4 
L 387.235625 317.144964 
L 381.963125 317.144964 
z
" style="fill:#999999;"/>
   </g>
   <g id="patch_61">
    <path clip-path="url(#pfbcec95a4b)" d="M 387.235625 327.4 
L 392.508125 327.4 
L 392.508125 317.954572 
L 387.235625 317.954572 
z
" style="fill:#999999;"/>
   </g>
   <g id="patch_62">
    <path clip-path="url(#pfbcec95a4b)" d="M 392.508125 327.4 
L 397.780625 327.4 
L 397.780625 317.954572 
L 392.508125 317.954572 
z
" style="fill:#999999;"/>
   </g>
   <g id="patch_63">
    <path clip-path="url(#pfbcec95a4b)" d="M 397.780625 327.4 
L 403.053125 327.4 
L 403.053125 320.653266 
L 397.780625 320.653266 
z
" style="fill:#999999;"/>
   </g>
   <g id="patch_64">
    <path clip-path="url(#pfbcec95a4b)" d="M 403.053125 327.4 
L 408.325625 327.4 
L 408.325625 323.08209 
L 403.053125 323.08209 
z
" style="fill:#999999;"/>
   </g>
   <g id="patch_65">
    <path clip-path="url(#pfbcec95a4b)" d="M 408.325625 327.4 
L 413.598125 327.4 
L 413.598125 320.383397 
L 408.325625 320.383397 
z
" style="fill:#999999;"/>
   </g>
   <g id="patch_66">
    <path clip-path="url(#pfbcec95a4b)" d="M 413.598125 327.4 
L 418.870625 327.4 
L 418.870625 322.542351 
L 413.598125 322.542351 
z
" style="fill:#999999;"/>
   </g>
   <g id="patch_67">
    <path clip-path="url(#pfbcec95a4b)" d="M 418.870625 327.4 
L 424.143125 327.4 
L 424.143125 322.812221 
L 418.870625 322.812221 
z
" style="fill:#999999;"/>
   </g>
   <g id="patch_68">
    <path clip-path="url(#pfbcec95a4b)" d="M 424.143125 327.4 
L 429.415625 327.4 
L 429.415625 324.701306 
L 424.143125 324.701306 
z
" style="fill:#999999;"/>
   </g>
   <g id="patch_69">
    <path clip-path="url(#pfbcec95a4b)" d="M 429.415625 327.4 
L 434.688125 327.4 
L 434.688125 322.272482 
L 429.415625 322.272482 
z
" style="fill:#999999;"/>
   </g>
   <g id="patch_70">
    <path clip-path="url(#pfbcec95a4b)" d="M 434.688125 327.4 
L 439.960625 327.4 
L 439.960625 325.241045 
L 434.688125 325.241045 
z
" style="fill:#999999;"/>
   </g>
   <g id="patch_71">
    <path clip-path="url(#pfbcec95a4b)" d="M 439.960625 327.4 
L 445.233125 327.4 
L 445.233125 324.701306 
L 439.960625 324.701306 
z
" style="fill:#999999;"/>
   </g>
   <g id="patch_72">
    <path clip-path="url(#pfbcec95a4b)" d="M 445.233125 327.4 
L 450.505625 327.4 
L 450.505625 326.860261 
L 445.233125 326.860261 
z
" style="fill:#999999;"/>
   </g>
   <g id="patch_73">
    <path clip-path="url(#pfbcec95a4b)" d="M 450.505625 327.4 
L 455.778125 327.4 
L 455.778125 325.780784 
L 450.505625 325.780784 
z
" style="fill:#999999;"/>
   </g>
   <g id="patch_74">
    <path clip-path="url(#pfbcec95a4b)" d="M 455.778125 327.4 
L 461.050625 327.4 
L 461.050625 326.590392 
L 455.778125 326.590392 
z
" style="fill:#999999;"/>
   </g>
   <g id="patch_75">
    <path clip-path="url(#pfbcec95a4b)" d="M 461.050625 327.4 
L 466.323125 327.4 
L 466.323125 325.510914 
L 461.050625 325.510914 
z
" style="fill:#999999;"/>
   </g>
   <g id="patch_76">
    <path clip-path="url(#pfbcec95a4b)" d="M 466.323125 327.4 
L 471.595625 327.4 
L 471.595625 326.590392 
L 466.323125 326.590392 
z
" style="fill:#999999;"/>
   </g>
   <g id="patch_77">
    <path clip-path="url(#pfbcec95a4b)" d="M 471.595625 327.4 
L 476.868125 327.4 
L 476.868125 325.780784 
L 471.595625 325.780784 
z
" style="fill:#999999;"/>
   </g>
   <g id="patch_78">
    <path clip-path="url(#pfbcec95a4b)" d="M 476.868125 327.4 
L 482.140625 327.4 
L 482.140625 326.590392 
L 476.868125 326.590392 
z
" style="fill:#999999;"/>
   </g>
   <g id="patch_79">
    <path clip-path="url(#pfbcec95a4b)" d="M 482.140625 327.4 
L 487.413125 327.4 
L 487.413125 326.860261 
L 482.140625 326.860261 
z
" style="fill:#999999;"/>
   </g>
   <g id="patch_80">
    <path clip-path="url(#pfbcec95a4b)" d="M 487.413125 327.4 
L 492.685625 327.4 
L 492.685625 327.4 
L 487.413125 327.4 
z
" style="fill:#999999;"/>
   </g>
   <g id="patch_81">
    <path clip-path="url(#pfbcec95a4b)" d="M 492.685625 327.4 
L 497.958125 327.4 
L 497.958125 326.590392 
L 492.685625 326.590392 
z
" style="fill:#999999;"/>
   </g>
   <g id="patch_82">
    <path clip-path="url(#pfbcec95a4b)" d="M 497.958125 327.4 
L 503.230625 327.4 
L 503.230625 320.923135 
L 497.958125 320.923135 
z
" style="fill:#999999;"/>
   </g>
   <g id="matplotlib.axis_1">
    <g id="xtick_1">
     <g id="line2d_1">
      <defs>
       <path d="M 0 0 
L 0 3.5 
" id="m8fca53ba56" style="stroke:#000000;stroke-width:0.8;"/>
      </defs>
      <g>
       <use style="stroke:#000000;stroke-width:0.8;" x="81.430625" xlink:href="#m8fca53ba56" y="327.4"/>
      </g>
     </g>
     <g id="text_1">
      <!-- 250 -->
      <defs>
       <path d="M 19.1875 8.296875 
L 53.609375 8.296875 
L 53.609375 0 
L 7.328125 0 
L 7.328125 8.296875 
Q 12.9375 14.109375 22.625 23.890625 
Q 32.328125 33.6875 34.8125 36.53125 
Q 39.546875 41.84375 41.421875 45.53125 
Q 43.3125 49.21875 43.3125 52.78125 
Q 43.3125 58.59375 39.234375 62.25 
Q 35.15625 65.921875 28.609375 65.921875 
Q 23.96875 65.921875 18.8125 64.3125 
Q 13.671875 62.703125 7.8125 59.421875 
L 7.8125 69.390625 
Q 13.765625 71.78125 18.9375 73 
Q 24.125 74.21875 28.421875 74.21875 
Q 39.75 74.21875 46.484375 68.546875 
Q 53.21875 62.890625 53.21875 53.421875 
Q 53.21875 48.921875 51.53125 44.890625 
Q 49.859375 40.875 45.40625 35.40625 
Q 44.1875 33.984375 37.640625 27.21875 
Q 31.109375 20.453125 19.1875 8.296875 
z
" id="DejaVuSans-50"/>
       <path d="M 10.796875 72.90625 
L 49.515625 72.90625 
L 49.515625 64.59375 
L 19.828125 64.59375 
L 19.828125 46.734375 
Q 21.96875 47.46875 24.109375 47.828125 
Q 26.265625 48.1875 28.421875 48.1875 
Q 40.625 48.1875 47.75 41.5 
Q 54.890625 34.8125 54.890625 23.390625 
Q 54.890625 11.625 47.5625 5.09375 
Q 40.234375 -1.421875 26.90625 -1.421875 
Q 22.3125 -1.421875 17.546875 -0.640625 
Q 12.796875 0.140625 7.71875 1.703125 
L 7.71875 11.625 
Q 12.109375 9.234375 16.796875 8.0625 
Q 21.484375 6.890625 26.703125 6.890625 
Q 35.15625 6.890625 40.078125 11.328125 
Q 45.015625 15.765625 45.015625 23.390625 
Q 45.015625 31 40.078125 35.4375 
Q 35.15625 39.890625 26.703125 39.890625 
Q 22.75 39.890625 18.8125 39.015625 
Q 14.890625 38.140625 10.796875 36.28125 
z
" id="DejaVuSans-53"/>
       <path d="M 31.78125 66.40625 
Q 24.171875 66.40625 20.328125 58.90625 
Q 16.5 51.421875 16.5 36.375 
Q 16.5 21.390625 20.328125 13.890625 
Q 24.171875 6.390625 31.78125 6.390625 
Q 39.453125 6.390625 43.28125 13.890625 
Q 47.125 21.390625 47.125 36.375 
Q 47.125 51.421875 43.28125 58.90625 
Q 39.453125 66.40625 31.78125 66.40625 
z
M 31.78125 74.21875 
Q 44.046875 74.21875 50.515625 64.515625 
Q 56.984375 54.828125 56.984375 36.375 
Q 56.984375 17.96875 50.515625 8.265625 
Q 44.046875 -1.421875 31.78125 -1.421875 
Q 19.53125 -1.421875 13.0625 8.265625 
Q 6.59375 17.96875 6.59375 36.375 
Q 6.59375 54.828125 13.0625 64.515625 
Q 19.53125 74.21875 31.78125 74.21875 
z
" id="DejaVuSans-48"/>
      </defs>
      <g transform="translate(64.251875 348.077187)scale(0.18 -0.18)">
       <use xlink:href="#DejaVuSans-50"/>
       <use x="63.623047" xlink:href="#DejaVuSans-53"/>
       <use x="127.246094" xlink:href="#DejaVuSans-48"/>
      </g>
     </g>
    </g>
    <g id="xtick_2">
     <g id="line2d_2">
      <g>
       <use style="stroke:#000000;stroke-width:0.8;" x="169.305625" xlink:href="#m8fca53ba56" y="327.4"/>
      </g>
     </g>
     <g id="text_2">
      <!-- 300 -->
      <defs>
       <path d="M 40.578125 39.3125 
Q 47.65625 37.796875 51.625 33 
Q 55.609375 28.21875 55.609375 21.1875 
Q 55.609375 10.40625 48.1875 4.484375 
Q 40.765625 -1.421875 27.09375 -1.421875 
Q 22.515625 -1.421875 17.65625 -0.515625 
Q 12.796875 0.390625 7.625 2.203125 
L 7.625 11.71875 
Q 11.71875 9.328125 16.59375 8.109375 
Q 21.484375 6.890625 26.8125 6.890625 
Q 36.078125 6.890625 40.9375 10.546875 
Q 45.796875 14.203125 45.796875 21.1875 
Q 45.796875 27.640625 41.28125 31.265625 
Q 36.765625 34.90625 28.71875 34.90625 
L 20.21875 34.90625 
L 20.21875 43.015625 
L 29.109375 43.015625 
Q 36.375 43.015625 40.234375 45.921875 
Q 44.09375 48.828125 44.09375 54.296875 
Q 44.09375 59.90625 40.109375 62.90625 
Q 36.140625 65.921875 28.71875 65.921875 
Q 24.65625 65.921875 20.015625 65.03125 
Q 15.375 64.15625 9.8125 62.3125 
L 9.8125 71.09375 
Q 15.4375 72.65625 20.34375 73.4375 
Q 25.25 74.21875 29.59375 74.21875 
Q 40.828125 74.21875 47.359375 69.109375 
Q 53.90625 64.015625 53.90625 55.328125 
Q 53.90625 49.265625 50.4375 45.09375 
Q 46.96875 40.921875 40.578125 39.3125 
z
" id="DejaVuSans-51"/>
      </defs>
      <g transform="translate(152.126875 348.077187)scale(0.18 -0.18)">
       <use xlink:href="#DejaVuSans-51"/>
       <use x="63.623047" xlink:href="#DejaVuSans-48"/>
       <use x="127.246094" xlink:href="#DejaVuSans-48"/>
      </g>
     </g>
    </g>
    <g id="xtick_3">
     <g id="line2d_3">
      <g>
       <use style="stroke:#000000;stroke-width:0.8;" x="257.180625" xlink:href="#m8fca53ba56" y="327.4"/>
      </g>
     </g>
     <g id="text_3">
      <!-- 350 -->
      <g transform="translate(240.001875 348.077187)scale(0.18 -0.18)">
       <use xlink:href="#DejaVuSans-51"/>
       <use x="63.623047" xlink:href="#DejaVuSans-53"/>
       <use x="127.246094" xlink:href="#DejaVuSans-48"/>
      </g>
     </g>
    </g>
    <g id="xtick_4">
     <g id="line2d_4">
      <g>
       <use style="stroke:#000000;stroke-width:0.8;" x="345.055625" xlink:href="#m8fca53ba56" y="327.4"/>
      </g>
     </g>
     <g id="text_4">
      <!-- 400 -->
      <defs>
       <path d="M 37.796875 64.3125 
L 12.890625 25.390625 
L 37.796875 25.390625 
z
M 35.203125 72.90625 
L 47.609375 72.90625 
L 47.609375 25.390625 
L 58.015625 25.390625 
L 58.015625 17.1875 
L 47.609375 17.1875 
L 47.609375 0 
L 37.796875 0 
L 37.796875 17.1875 
L 4.890625 17.1875 
L 4.890625 26.703125 
z
" id="DejaVuSans-52"/>
      </defs>
      <g transform="translate(327.876875 348.077187)scale(0.18 -0.18)">
       <use xlink:href="#DejaVuSans-52"/>
       <use x="63.623047" xlink:href="#DejaVuSans-48"/>
       <use x="127.246094" xlink:href="#DejaVuSans-48"/>
      </g>
     </g>
    </g>
    <g id="xtick_5">
     <g id="line2d_5">
      <g>
       <use style="stroke:#000000;stroke-width:0.8;" x="432.930625" xlink:href="#m8fca53ba56" y="327.4"/>
      </g>
     </g>
     <g id="text_5">
      <!-- 450 -->
      <g transform="translate(415.751875 348.077187)scale(0.18 -0.18)">
       <use xlink:href="#DejaVuSans-52"/>
       <use x="63.623047" xlink:href="#DejaVuSans-53"/>
       <use x="127.246094" xlink:href="#DejaVuSans-48"/>
      </g>
     </g>
    </g>
    <g id="text_6">
     <!-- MolPDF score -->
     <defs>
      <path d="M 9.8125 72.90625 
L 24.515625 72.90625 
L 43.109375 23.296875 
L 61.8125 72.90625 
L 76.515625 72.90625 
L 76.515625 0 
L 66.890625 0 
L 66.890625 64.015625 
L 48.09375 14.015625 
L 38.1875 14.015625 
L 19.390625 64.015625 
L 19.390625 0 
L 9.8125 0 
z
" id="DejaVuSans-77"/>
      <path d="M 30.609375 48.390625 
Q 23.390625 48.390625 19.1875 42.75 
Q 14.984375 37.109375 14.984375 27.296875 
Q 14.984375 17.484375 19.15625 11.84375 
Q 23.34375 6.203125 30.609375 6.203125 
Q 37.796875 6.203125 41.984375 11.859375 
Q 46.1875 17.53125 46.1875 27.296875 
Q 46.1875 37.015625 41.984375 42.703125 
Q 37.796875 48.390625 30.609375 48.390625 
z
M 30.609375 56 
Q 42.328125 56 49.015625 48.375 
Q 55.71875 40.765625 55.71875 27.296875 
Q 55.71875 13.875 49.015625 6.21875 
Q 42.328125 -1.421875 30.609375 -1.421875 
Q 18.84375 -1.421875 12.171875 6.21875 
Q 5.515625 13.875 5.515625 27.296875 
Q 5.515625 40.765625 12.171875 48.375 
Q 18.84375 56 30.609375 56 
z
" id="DejaVuSans-111"/>
      <path d="M 9.421875 75.984375 
L 18.40625 75.984375 
L 18.40625 0 
L 9.421875 0 
z
" id="DejaVuSans-108"/>
      <path d="M 19.671875 64.796875 
L 19.671875 37.40625 
L 32.078125 37.40625 
Q 38.96875 37.40625 42.71875 40.96875 
Q 46.484375 44.53125 46.484375 51.125 
Q 46.484375 57.671875 42.71875 61.234375 
Q 38.96875 64.796875 32.078125 64.796875 
z
M 9.8125 72.90625 
L 32.078125 72.90625 
Q 44.34375 72.90625 50.609375 67.359375 
Q 56.890625 61.8125 56.890625 51.125 
Q 56.890625 40.328125 50.609375 34.8125 
Q 44.34375 29.296875 32.078125 29.296875 
L 19.671875 29.296875 
L 19.671875 0 
L 9.8125 0 
z
" id="DejaVuSans-80"/>
      <path d="M 19.671875 64.796875 
L 19.671875 8.109375 
L 31.59375 8.109375 
Q 46.6875 8.109375 53.6875 14.9375 
Q 60.6875 21.78125 60.6875 36.53125 
Q 60.6875 51.171875 53.6875 57.984375 
Q 46.6875 64.796875 31.59375 64.796875 
z
M 9.8125 72.90625 
L 30.078125 72.90625 
Q 51.265625 72.90625 61.171875 64.09375 
Q 71.09375 55.28125 71.09375 36.53125 
Q 71.09375 17.671875 61.125 8.828125 
Q 51.171875 0 30.078125 0 
L 9.8125 0 
z
" id="DejaVuSans-68"/>
      <path d="M 9.8125 72.90625 
L 51.703125 72.90625 
L 51.703125 64.59375 
L 19.671875 64.59375 
L 19.671875 43.109375 
L 48.578125 43.109375 
L 48.578125 34.8125 
L 19.671875 34.8125 
L 19.671875 0 
L 9.8125 0 
z
" id="DejaVuSans-70"/>
      <path id="DejaVuSans-32"/>
      <path d="M 44.28125 53.078125 
L 44.28125 44.578125 
Q 40.484375 46.53125 36.375 47.5 
Q 32.28125 48.484375 27.875 48.484375 
Q 21.1875 48.484375 17.84375 46.4375 
Q 14.5 44.390625 14.5 40.28125 
Q 14.5 37.15625 16.890625 35.375 
Q 19.28125 33.59375 26.515625 31.984375 
L 29.59375 31.296875 
Q 39.15625 29.25 43.1875 25.515625 
Q 47.21875 21.78125 47.21875 15.09375 
Q 47.21875 7.46875 41.1875 3.015625 
Q 35.15625 -1.421875 24.609375 -1.421875 
Q 20.21875 -1.421875 15.453125 -0.5625 
Q 10.6875 0.296875 5.421875 2 
L 5.421875 11.28125 
Q 10.40625 8.6875 15.234375 7.390625 
Q 20.0625 6.109375 24.8125 6.109375 
Q 31.15625 6.109375 34.5625 8.28125 
Q 37.984375 10.453125 37.984375 14.40625 
Q 37.984375 18.0625 35.515625 20.015625 
Q 33.0625 21.96875 24.703125 23.78125 
L 21.578125 24.515625 
Q 13.234375 26.265625 9.515625 29.90625 
Q 5.8125 33.546875 5.8125 39.890625 
Q 5.8125 47.609375 11.28125 51.796875 
Q 16.75 56 26.8125 56 
Q 31.78125 56 36.171875 55.265625 
Q 40.578125 54.546875 44.28125 53.078125 
z
" id="DejaVuSans-115"/>
      <path d="M 48.78125 52.59375 
L 48.78125 44.1875 
Q 44.96875 46.296875 41.140625 47.34375 
Q 37.3125 48.390625 33.40625 48.390625 
Q 24.65625 48.390625 19.8125 42.84375 
Q 14.984375 37.3125 14.984375 27.296875 
Q 14.984375 17.28125 19.8125 11.734375 
Q 24.65625 6.203125 33.40625 6.203125 
Q 37.3125 6.203125 41.140625 7.25 
Q 44.96875 8.296875 48.78125 10.40625 
L 48.78125 2.09375 
Q 45.015625 0.34375 40.984375 -0.53125 
Q 36.96875 -1.421875 32.421875 -1.421875 
Q 20.0625 -1.421875 12.78125 6.34375 
Q 5.515625 14.109375 5.515625 27.296875 
Q 5.515625 40.671875 12.859375 48.328125 
Q 20.21875 56 33.015625 56 
Q 37.15625 56 41.109375 55.140625 
Q 45.0625 54.296875 48.78125 52.59375 
z
" id="DejaVuSans-99"/>
      <path d="M 41.109375 46.296875 
Q 39.59375 47.171875 37.8125 47.578125 
Q 36.03125 48 33.890625 48 
Q 26.265625 48 22.1875 43.046875 
Q 18.109375 38.09375 18.109375 28.8125 
L 18.109375 0 
L 9.078125 0 
L 9.078125 54.6875 
L 18.109375 54.6875 
L 18.109375 46.1875 
Q 20.953125 51.171875 25.484375 53.578125 
Q 30.03125 56 36.53125 56 
Q 37.453125 56 38.578125 55.875 
Q 39.703125 55.765625 41.0625 55.515625 
z
" id="DejaVuSans-114"/>
      <path d="M 56.203125 29.59375 
L 56.203125 25.203125 
L 14.890625 25.203125 
Q 15.484375 15.921875 20.484375 11.0625 
Q 25.484375 6.203125 34.421875 6.203125 
Q 39.59375 6.203125 44.453125 7.46875 
Q 49.3125 8.734375 54.109375 11.28125 
L 54.109375 2.78125 
Q 49.265625 0.734375 44.1875 -0.34375 
Q 39.109375 -1.421875 33.890625 -1.421875 
Q 20.796875 -1.421875 13.15625 6.1875 
Q 5.515625 13.8125 5.515625 26.8125 
Q 5.515625 40.234375 12.765625 48.109375 
Q 20.015625 56 32.328125 56 
Q 43.359375 56 49.78125 48.890625 
Q 56.203125 41.796875 56.203125 29.59375 
z
M 47.21875 32.234375 
Q 47.125 39.59375 43.09375 43.984375 
Q 39.0625 48.390625 32.421875 48.390625 
Q 24.90625 48.390625 20.390625 44.140625 
Q 15.875 39.890625 15.1875 32.171875 
z
" id="DejaVuSans-101"/>
     </defs>
     <g transform="translate(231.785937 369.497812)scale(0.18 -0.18)">
      <use xlink:href="#DejaVuSans-77"/>
      <use x="86.279297" xlink:href="#DejaVuSans-111"/>
      <use x="147.460938" xlink:href="#DejaVuSans-108"/>
      <use x="175.244141" xlink:href="#DejaVuSans-80"/>
      <use x="235.546875" xlink:href="#DejaVuSans-68"/>
      <use x="312.548828" xlink:href="#DejaVuSans-70"/>
      <use x="370.068359" xlink:href="#DejaVuSans-32"/>
      <use x="401.855469" xlink:href="#DejaVuSans-115"/>
      <use x="453.955078" xlink:href="#DejaVuSans-99"/>
      <use x="508.935547" xlink:href="#DejaVuSans-111"/>
      <use x="570.117188" xlink:href="#DejaVuSans-114"/>
      <use x="611.199219" xlink:href="#DejaVuSans-101"/>
     </g>
    </g>
   </g>
   <g id="matplotlib.axis_2">
    <g id="ytick_1">
     <g id="line2d_6">
      <defs>
       <path d="M 0 0 
L -3.5 0 
" id="m4b70f71127" style="stroke:#000000;stroke-width:0.8;"/>
      </defs>
      <g>
       <use style="stroke:#000000;stroke-width:0.8;" x="81.430625" xlink:href="#m4b70f71127" y="327.4"/>
      </g>
     </g>
     <g id="text_7">
      <!-- 0 -->
      <g transform="translate(62.978125 334.238594)scale(0.18 -0.18)">
       <use xlink:href="#DejaVuSans-48"/>
      </g>
     </g>
    </g>
    <g id="ytick_2">
     <g id="line2d_7">
      <g>
       <use style="stroke:#000000;stroke-width:0.8;" x="81.430625" xlink:href="#m4b70f71127" y="273.426127"/>
      </g>
     </g>
     <g id="text_8">
      <!-- 200 -->
      <g transform="translate(40.073125 280.264721)scale(0.18 -0.18)">
       <use xlink:href="#DejaVuSans-50"/>
       <use x="63.623047" xlink:href="#DejaVuSans-48"/>
       <use x="127.246094" xlink:href="#DejaVuSans-48"/>
      </g>
     </g>
    </g>
    <g id="ytick_3">
     <g id="line2d_8">
      <g>
       <use style="stroke:#000000;stroke-width:0.8;" x="81.430625" xlink:href="#m4b70f71127" y="219.452255"/>
      </g>
     </g>
     <g id="text_9">
      <!-- 400 -->
      <g transform="translate(40.073125 226.290848)scale(0.18 -0.18)">
       <use xlink:href="#DejaVuSans-52"/>
       <use x="63.623047" xlink:href="#DejaVuSans-48"/>
       <use x="127.246094" xlink:href="#DejaVuSans-48"/>
      </g>
     </g>
    </g>
    <g id="ytick_4">
     <g id="line2d_9">
      <g>
       <use style="stroke:#000000;stroke-width:0.8;" x="81.430625" xlink:href="#m4b70f71127" y="165.478382"/>
      </g>
     </g>
     <g id="text_10">
      <!-- 600 -->
      <defs>
       <path d="M 33.015625 40.375 
Q 26.375 40.375 22.484375 35.828125 
Q 18.609375 31.296875 18.609375 23.390625 
Q 18.609375 15.53125 22.484375 10.953125 
Q 26.375 6.390625 33.015625 6.390625 
Q 39.65625 6.390625 43.53125 10.953125 
Q 47.40625 15.53125 47.40625 23.390625 
Q 47.40625 31.296875 43.53125 35.828125 
Q 39.65625 40.375 33.015625 40.375 
z
M 52.59375 71.296875 
L 52.59375 62.3125 
Q 48.875 64.0625 45.09375 64.984375 
Q 41.3125 65.921875 37.59375 65.921875 
Q 27.828125 65.921875 22.671875 59.328125 
Q 17.53125 52.734375 16.796875 39.40625 
Q 19.671875 43.65625 24.015625 45.921875 
Q 28.375 48.1875 33.59375 48.1875 
Q 44.578125 48.1875 50.953125 41.515625 
Q 57.328125 34.859375 57.328125 23.390625 
Q 57.328125 12.15625 50.6875 5.359375 
Q 44.046875 -1.421875 33.015625 -1.421875 
Q 20.359375 -1.421875 13.671875 8.265625 
Q 6.984375 17.96875 6.984375 36.375 
Q 6.984375 53.65625 15.1875 63.9375 
Q 23.390625 74.21875 37.203125 74.21875 
Q 40.921875 74.21875 44.703125 73.484375 
Q 48.484375 72.75 52.59375 71.296875 
z
" id="DejaVuSans-54"/>
      </defs>
      <g transform="translate(40.073125 172.316976)scale(0.18 -0.18)">
       <use xlink:href="#DejaVuSans-54"/>
       <use x="63.623047" xlink:href="#DejaVuSans-48"/>
       <use x="127.246094" xlink:href="#DejaVuSans-48"/>
      </g>
     </g>
    </g>
    <g id="ytick_5">
     <g id="line2d_10">
      <g>
       <use style="stroke:#000000;stroke-width:0.8;" x="81.430625" xlink:href="#m4b70f71127" y="111.504509"/>
      </g>
     </g>
     <g id="text_11">
      <!-- 800 -->
      <defs>
       <path d="M 31.78125 34.625 
Q 24.75 34.625 20.71875 30.859375 
Q 16.703125 27.09375 16.703125 20.515625 
Q 16.703125 13.921875 20.71875 10.15625 
Q 24.75 6.390625 31.78125 6.390625 
Q 38.8125 6.390625 42.859375 10.171875 
Q 46.921875 13.96875 46.921875 20.515625 
Q 46.921875 27.09375 42.890625 30.859375 
Q 38.875 34.625 31.78125 34.625 
z
M 21.921875 38.8125 
Q 15.578125 40.375 12.03125 44.71875 
Q 8.5 49.078125 8.5 55.328125 
Q 8.5 64.0625 14.71875 69.140625 
Q 20.953125 74.21875 31.78125 74.21875 
Q 42.671875 74.21875 48.875 69.140625 
Q 55.078125 64.0625 55.078125 55.328125 
Q 55.078125 49.078125 51.53125 44.71875 
Q 48 40.375 41.703125 38.8125 
Q 48.828125 37.15625 52.796875 32.3125 
Q 56.78125 27.484375 56.78125 20.515625 
Q 56.78125 9.90625 50.3125 4.234375 
Q 43.84375 -1.421875 31.78125 -1.421875 
Q 19.734375 -1.421875 13.25 4.234375 
Q 6.78125 9.90625 6.78125 20.515625 
Q 6.78125 27.484375 10.78125 32.3125 
Q 14.796875 37.15625 21.921875 38.8125 
z
M 18.3125 54.390625 
Q 18.3125 48.734375 21.84375 45.5625 
Q 25.390625 42.390625 31.78125 42.390625 
Q 38.140625 42.390625 41.71875 45.5625 
Q 45.3125 48.734375 45.3125 54.390625 
Q 45.3125 60.0625 41.71875 63.234375 
Q 38.140625 66.40625 31.78125 66.40625 
Q 25.390625 66.40625 21.84375 63.234375 
Q 18.3125 60.0625 18.3125 54.390625 
z
" id="DejaVuSans-56"/>
      </defs>
      <g transform="translate(40.073125 118.343103)scale(0.18 -0.18)">
       <use xlink:href="#DejaVuSans-56"/>
       <use x="63.623047" xlink:href="#DejaVuSans-48"/>
       <use x="127.246094" xlink:href="#DejaVuSans-48"/>
      </g>
     </g>
    </g>
    <g id="ytick_6">
     <g id="line2d_11">
      <g>
       <use style="stroke:#000000;stroke-width:0.8;" x="81.430625" xlink:href="#m4b70f71127" y="57.530636"/>
      </g>
     </g>
     <g id="text_12">
      <!-- 1000 -->
      <defs>
       <path d="M 12.40625 8.296875 
L 28.515625 8.296875 
L 28.515625 63.921875 
L 10.984375 60.40625 
L 10.984375 69.390625 
L 28.421875 72.90625 
L 38.28125 72.90625 
L 38.28125 8.296875 
L 54.390625 8.296875 
L 54.390625 0 
L 12.40625 0 
z
" id="DejaVuSans-49"/>
      </defs>
      <g transform="translate(28.620625 64.36923)scale(0.18 -0.18)">
       <use xlink:href="#DejaVuSans-49"/>
       <use x="63.623047" xlink:href="#DejaVuSans-48"/>
       <use x="127.246094" xlink:href="#DejaVuSans-48"/>
       <use x="190.869141" xlink:href="#DejaVuSans-48"/>
      </g>
     </g>
    </g>
    <g id="text_13">
     <!-- Number of sequences -->
     <defs>
      <path d="M 9.8125 72.90625 
L 23.09375 72.90625 
L 55.421875 11.921875 
L 55.421875 72.90625 
L 64.984375 72.90625 
L 64.984375 0 
L 51.703125 0 
L 19.390625 60.984375 
L 19.390625 0 
L 9.8125 0 
z
" id="DejaVuSans-78"/>
      <path d="M 8.5 21.578125 
L 8.5 54.6875 
L 17.484375 54.6875 
L 17.484375 21.921875 
Q 17.484375 14.15625 20.5 10.265625 
Q 23.53125 6.390625 29.59375 6.390625 
Q 36.859375 6.390625 41.078125 11.03125 
Q 45.3125 15.671875 45.3125 23.6875 
L 45.3125 54.6875 
L 54.296875 54.6875 
L 54.296875 0 
L 45.3125 0 
L 45.3125 8.40625 
Q 42.046875 3.421875 37.71875 1 
Q 33.40625 -1.421875 27.6875 -1.421875 
Q 18.265625 -1.421875 13.375 4.4375 
Q 8.5 10.296875 8.5 21.578125 
z
M 31.109375 56 
z
" id="DejaVuSans-117"/>
      <path d="M 52 44.1875 
Q 55.375 50.25 60.0625 53.125 
Q 64.75 56 71.09375 56 
Q 79.640625 56 84.28125 50.015625 
Q 88.921875 44.046875 88.921875 33.015625 
L 88.921875 0 
L 79.890625 0 
L 79.890625 32.71875 
Q 79.890625 40.578125 77.09375 44.375 
Q 74.3125 48.1875 68.609375 48.1875 
Q 61.625 48.1875 57.5625 43.546875 
Q 53.515625 38.921875 53.515625 30.90625 
L 53.515625 0 
L 44.484375 0 
L 44.484375 32.71875 
Q 44.484375 40.625 41.703125 44.40625 
Q 38.921875 48.1875 33.109375 48.1875 
Q 26.21875 48.1875 22.15625 43.53125 
Q 18.109375 38.875 18.109375 30.90625 
L 18.109375 0 
L 9.078125 0 
L 9.078125 54.6875 
L 18.109375 54.6875 
L 18.109375 46.1875 
Q 21.1875 51.21875 25.484375 53.609375 
Q 29.78125 56 35.6875 56 
Q 41.65625 56 45.828125 52.96875 
Q 50 49.953125 52 44.1875 
z
" id="DejaVuSans-109"/>
      <path d="M 48.6875 27.296875 
Q 48.6875 37.203125 44.609375 42.84375 
Q 40.53125 48.484375 33.40625 48.484375 
Q 26.265625 48.484375 22.1875 42.84375 
Q 18.109375 37.203125 18.109375 27.296875 
Q 18.109375 17.390625 22.1875 11.75 
Q 26.265625 6.109375 33.40625 6.109375 
Q 40.53125 6.109375 44.609375 11.75 
Q 48.6875 17.390625 48.6875 27.296875 
z
M 18.109375 46.390625 
Q 20.953125 51.265625 25.265625 53.625 
Q 29.59375 56 35.59375 56 
Q 45.5625 56 51.78125 48.09375 
Q 58.015625 40.1875 58.015625 27.296875 
Q 58.015625 14.40625 51.78125 6.484375 
Q 45.5625 -1.421875 35.59375 -1.421875 
Q 29.59375 -1.421875 25.265625 0.953125 
Q 20.953125 3.328125 18.109375 8.203125 
L 18.109375 0 
L 9.078125 0 
L 9.078125 75.984375 
L 18.109375 75.984375 
z
" id="DejaVuSans-98"/>
      <path d="M 37.109375 75.984375 
L 37.109375 68.5 
L 28.515625 68.5 
Q 23.6875 68.5 21.796875 66.546875 
Q 19.921875 64.59375 19.921875 59.515625 
L 19.921875 54.6875 
L 34.71875 54.6875 
L 34.71875 47.703125 
L 19.921875 47.703125 
L 19.921875 0 
L 10.890625 0 
L 10.890625 47.703125 
L 2.296875 47.703125 
L 2.296875 54.6875 
L 10.890625 54.6875 
L 10.890625 58.5 
Q 10.890625 67.625 15.140625 71.796875 
Q 19.390625 75.984375 28.609375 75.984375 
z
" id="DejaVuSans-102"/>
      <path d="M 14.796875 27.296875 
Q 14.796875 17.390625 18.875 11.75 
Q 22.953125 6.109375 30.078125 6.109375 
Q 37.203125 6.109375 41.296875 11.75 
Q 45.40625 17.390625 45.40625 27.296875 
Q 45.40625 37.203125 41.296875 42.84375 
Q 37.203125 48.484375 30.078125 48.484375 
Q 22.953125 48.484375 18.875 42.84375 
Q 14.796875 37.203125 14.796875 27.296875 
z
M 45.40625 8.203125 
Q 42.578125 3.328125 38.25 0.953125 
Q 33.9375 -1.421875 27.875 -1.421875 
Q 17.96875 -1.421875 11.734375 6.484375 
Q 5.515625 14.40625 5.515625 27.296875 
Q 5.515625 40.1875 11.734375 48.09375 
Q 17.96875 56 27.875 56 
Q 33.9375 56 38.25 53.625 
Q 42.578125 51.265625 45.40625 46.390625 
L 45.40625 54.6875 
L 54.390625 54.6875 
L 54.390625 -20.796875 
L 45.40625 -20.796875 
z
" id="DejaVuSans-113"/>
      <path d="M 54.890625 33.015625 
L 54.890625 0 
L 45.90625 0 
L 45.90625 32.71875 
Q 45.90625 40.484375 42.875 44.328125 
Q 39.84375 48.1875 33.796875 48.1875 
Q 26.515625 48.1875 22.3125 43.546875 
Q 18.109375 38.921875 18.109375 30.90625 
L 18.109375 0 
L 9.078125 0 
L 9.078125 54.6875 
L 18.109375 54.6875 
L 18.109375 46.1875 
Q 21.34375 51.125 25.703125 53.5625 
Q 30.078125 56 35.796875 56 
Q 45.21875 56 50.046875 50.171875 
Q 54.890625 44.34375 54.890625 33.015625 
z
" id="DejaVuSans-110"/>
     </defs>
     <g transform="translate(20.877188 265.910469)rotate(-90)scale(0.18 -0.18)">
      <use xlink:href="#DejaVuSans-78"/>
      <use x="74.804688" xlink:href="#DejaVuSans-117"/>
      <use x="138.183594" xlink:href="#DejaVuSans-109"/>
      <use x="235.595703" xlink:href="#DejaVuSans-98"/>
      <use x="299.072266" xlink:href="#DejaVuSans-101"/>
      <use x="360.595703" xlink:href="#DejaVuSans-114"/>
      <use x="401.708984" xlink:href="#DejaVuSans-32"/>
      <use x="433.496094" xlink:href="#DejaVuSans-111"/>
      <use x="494.677734" xlink:href="#DejaVuSans-102"/>
      <use x="529.882812" xlink:href="#DejaVuSans-32"/>
      <use x="561.669922" xlink:href="#DejaVuSans-115"/>
      <use x="613.769531" xlink:href="#DejaVuSans-101"/>
      <use x="675.292969" xlink:href="#DejaVuSans-113"/>
      <use x="738.769531" xlink:href="#DejaVuSans-117"/>
      <use x="802.148438" xlink:href="#DejaVuSans-101"/>
      <use x="863.671875" xlink:href="#DejaVuSans-110"/>
      <use x="927.050781" xlink:href="#DejaVuSans-99"/>
      <use x="982.03125" xlink:href="#DejaVuSans-101"/>
      <use x="1043.554688" xlink:href="#DejaVuSans-115"/>
     </g>
    </g>
   </g>
   <g id="LineCollection_1">
    <path clip-path="url(#pfbcec95a4b)" d="M 185.151176 327.4 
L 185.151176 7.2 
" style="fill:none;stroke:#e41a1c;stroke-dasharray:5.55,2.4;stroke-dashoffset:0;stroke-width:1.5;"/>
   </g>
   <g id="patch_83">
    <path d="M 81.430625 327.4 
L 81.430625 7.2 
" style="fill:none;stroke:#000000;stroke-linecap:square;stroke-linejoin:miter;stroke-width:0.8;"/>
   </g>
   <g id="patch_84">
    <path d="M 503.230625 327.4 
L 503.230625 7.2 
" style="fill:none;stroke:#000000;stroke-linecap:square;stroke-linejoin:miter;stroke-width:0.8;"/>
   </g>
   <g id="patch_85">
    <path d="M 81.430625 327.4 
L 503.230625 327.4 
" style="fill:none;stroke:#000000;stroke-linecap:square;stroke-linejoin:miter;stroke-width:0.8;"/>
   </g>
   <g id="patch_86">
    <path d="M 81.430625 7.2 
L 503.230625 7.2 
" style="fill:none;stroke:#000000;stroke-linecap:square;stroke-linejoin:miter;stroke-width:0.8;"/>
   </g>
  </g>
 </g>
 <defs>
  <clipPath id="pfbcec95a4b">
   <rect height="320.2" width="421.8" x="81.430625" y="7.2"/>
  </clipPath>
 </defs>
</svg>
