<?xml version="1.0" encoding="utf-8" standalone="no"?>
<!DOCTYPE svg PUBLIC "-//W3C//DTD SVG 1.1//EN"
  "http://www.w3.org/Graphics/SVG/1.1/DTD/svg11.dtd">
<!-- Created with matplotlib (https://matplotlib.org/) -->
<svg height="324pt" version="1.1" viewBox="0 0 324 324" width="324pt" xmlns="http://www.w3.org/2000/svg" xmlns:xlink="http://www.w3.org/1999/xlink">
 <defs>
  <style type="text/css">
*{stroke-linecap:butt;stroke-linejoin:round;}
  </style>
 </defs>
 <g id="figure_1">
  <g id="patch_1">
   <path d="M 0 324 
L 324 324 
L 324 0 
L 0 0 
z
" style="fill:#ffffff;"/>
  </g>
  <g id="axes_1">
   <g id="patch_2">
    <path d="M 274.086353 160.627335 
C 274.086353 145.579993 271.122355 130.678968 265.363987 116.777036 
C 259.605618 102.875105 251.164865 90.242626 240.524788 79.602548 
C 229.88471 68.96247 217.25223 60.521717 203.350299 54.763349 
C 189.448368 49.00498 174.547342 46.040982 159.5 46.040982 
C 144.452658 46.040982 129.551632 49.00498 115.649701 54.763349 
C 101.74777 60.521717 89.11529 68.96247 78.475212 79.602548 
C 67.835135 90.242626 59.394382 102.875105 53.636013 116.777036 
C 47.877645 130.678968 44.913647 145.579993 44.913647 160.627335 
C 44.913647 175.674677 47.877645 190.575703 53.636013 204.477634 
C 59.394382 218.379566 67.835135 231.012045 78.475212 241.652123 
C 89.11529 252.292201 101.74777 260.732954 115.649701 266.491322 
C 129.551632 272.249691 144.452658 275.213689 159.5 275.213689 
C 174.547342 275.213689 189.448368 272.249691 203.350299 266.491322 
C 217.25223 260.732954 229.88471 252.292201 240.524788 241.652123 
C 251.164865 231.012045 259.605618 218.379566 265.363987 204.477634 
C 271.122355 190.575703 274.086353 175.674677 274.086353 160.627335 
M 159.5 160.627335 
C 159.5 160.627335 159.5 160.627335 159.5 160.627335 
C 159.5 160.627335 159.5 160.627335 159.5 160.627335 
C 159.5 160.627335 159.5 160.627335 159.5 160.627335 
C 159.5 160.627335 159.5 160.627335 159.5 160.627335 
C 159.5 160.627335 159.5 160.627335 159.5 160.627335 
C 159.5 160.627335 159.5 160.627335 159.5 160.627335 
C 159.5 160.627335 159.5 160.627335 159.5 160.627335 
C 159.5 160.627335 159.5 160.627335 159.5 160.627335 
C 159.5 160.627335 159.5 160.627335 159.5 160.627335 
C 159.5 160.627335 159.5 160.627335 159.5 160.627335 
C 159.5 160.627335 159.5 160.627335 159.5 160.627335 
C 159.5 160.627335 159.5 160.627335 159.5 160.627335 
C 159.5 160.627335 159.5 160.627335 159.5 160.627335 
C 159.5 160.627335 159.5 160.627335 159.5 160.627335 
C 159.5 160.627335 159.5 160.627335 159.5 160.627335 
C 159.5 160.627335 159.5 160.627335 159.5 160.627335 
M 274.086353 160.627335 
z
" style="fill:#ffffff;"/>
   </g>
   <g id="patch_3">
    <path clip-path="url(#p8fb4a4b649)" d="M 159.5 68.14908 
L 189.47733 103.510306 
L 207.420164 127.550434 
L 180.199515 158.113959 
L 212.00378 180.539393 
L 217.970507 226.626894 
L 172.875473 214.893761 
L 148.899112 203.63683 
L 130.129085 193.780245 
L 118.727596 176.090268 
L 86.526611 151.766762 
L 99.669021 119.328993 
L 137.070477 117.891449 
L 159.5 68.14908 
z
" style="fill:#e41a1c;opacity:0.4;stroke:#e41a1c;stroke-linejoin:miter;"/>
   </g>
   <g id="matplotlib.axis_1">
    <g id="xtick_1">
     <g id="line2d_1">
      <path clip-path="url(#p8fb4a4b649)" d="M 159.5 160.627335 
L 159.5 46.040982 
" style="fill:none;stroke:#000000;stroke-dasharray:0.5,0.825;stroke-dashoffset:0;stroke-width:0.5;"/>
     </g>
     <g id="text_1">
      <!-- villin -->
      <defs>
       <path d="M 2.984375 54.6875 
L 12.5 54.6875 
L 29.59375 8.796875 
L 46.6875 54.6875 
L 56.203125 54.6875 
L 35.6875 0 
L 23.484375 0 
z
" id="DejaVuSans-118"/>
       <path d="M 9.421875 54.6875 
L 18.40625 54.6875 
L 18.40625 0 
L 9.421875 0 
z
M 9.421875 75.984375 
L 18.40625 75.984375 
L 18.40625 64.59375 
L 9.421875 64.59375 
z
" id="DejaVuSans-105"/>
       <path d="M 9.421875 75.984375 
L 18.40625 75.984375 
L 18.40625 0 
L 9.421875 0 
z
" id="DejaVuSans-108"/>
       <path d="M 54.890625 33.015625 
L 54.890625 0 
L 45.90625 0 
L 45.90625 32.71875 
Q 45.90625 40.484375 42.875 44.328125 
Q 39.84375 48.1875 33.796875 48.1875 
Q 26.515625 48.1875 22.3125 43.546875 
Q 18.109375 38.921875 18.109375 30.90625 
L 18.109375 0 
L 9.078125 0 
L 9.078125 54.6875 
L 18.109375 54.6875 
L 18.109375 46.1875 
Q 21.34375 51.125 25.703125 53.5625 
Q 30.078125 56 35.796875 56 
Q 45.21875 56 50.046875 50.171875 
Q 54.890625 44.34375 54.890625 33.015625 
z
" id="DejaVuSans-110"/>
      </defs>
      <g transform="translate(147.815625 34.800357)scale(0.1 -0.1)">
       <use xlink:href="#DejaVuSans-118"/>
       <use x="59.179688" xlink:href="#DejaVuSans-105"/>
       <use x="86.962891" xlink:href="#DejaVuSans-108"/>
       <use x="114.746094" xlink:href="#DejaVuSans-108"/>
       <use x="142.529297" xlink:href="#DejaVuSans-105"/>
       <use x="170.3125" xlink:href="#DejaVuSans-110"/>
      </g>
     </g>
    </g>
    <g id="xtick_2">
     <g id="line2d_2">
      <path clip-path="url(#p8fb4a4b649)" d="M 159.5 160.627335 
L 212.750934 59.166158 
" style="fill:none;stroke:#000000;stroke-dasharray:0.5,0.825;stroke-dashoffset:0;stroke-width:0.5;"/>
     </g>
     <g id="text_2">
      <!-- EEHEE_rd3 -->
      <defs>
       <path d="M 9.8125 72.90625 
L 55.90625 72.90625 
L 55.90625 64.59375 
L 19.671875 64.59375 
L 19.671875 43.015625 
L 54.390625 43.015625 
L 54.390625 34.71875 
L 19.671875 34.71875 
L 19.671875 8.296875 
L 56.78125 8.296875 
L 56.78125 0 
L 9.8125 0 
z
" id="DejaVuSans-69"/>
       <path d="M 9.8125 72.90625 
L 19.671875 72.90625 
L 19.671875 43.015625 
L 55.515625 43.015625 
L 55.515625 72.90625 
L 65.375 72.90625 
L 65.375 0 
L 55.515625 0 
L 55.515625 34.71875 
L 19.671875 34.71875 
L 19.671875 0 
L 9.8125 0 
z
" id="DejaVuSans-72"/>
       <path d="M 50.984375 -16.609375 
L 50.984375 -23.578125 
L -0.984375 -23.578125 
L -0.984375 -16.609375 
z
" id="DejaVuSans-95"/>
       <path d="M 41.109375 46.296875 
Q 39.59375 47.171875 37.8125 47.578125 
Q 36.03125 48 33.890625 48 
Q 26.265625 48 22.1875 43.046875 
Q 18.109375 38.09375 18.109375 28.8125 
L 18.109375 0 
L 9.078125 0 
L 9.078125 54.6875 
L 18.109375 54.6875 
L 18.109375 46.1875 
Q 20.953125 51.171875 25.484375 53.578125 
Q 30.03125 56 36.53125 56 
Q 37.453125 56 38.578125 55.875 
Q 39.703125 55.765625 41.0625 55.515625 
z
" id="DejaVuSans-114"/>
       <path d="M 45.40625 46.390625 
L 45.40625 75.984375 
L 54.390625 75.984375 
L 54.390625 0 
L 45.40625 0 
L 45.40625 8.203125 
Q 42.578125 3.328125 38.25 0.953125 
Q 33.9375 -1.421875 27.875 -1.421875 
Q 17.96875 -1.421875 11.734375 6.484375 
Q 5.515625 14.40625 5.515625 27.296875 
Q 5.515625 40.1875 11.734375 48.09375 
Q 17.96875 56 27.875 56 
Q 33.9375 56 38.25 53.625 
Q 42.578125 51.265625 45.40625 46.390625 
z
M 14.796875 27.296875 
Q 14.796875 17.390625 18.875 11.75 
Q 22.953125 6.109375 30.078125 6.109375 
Q 37.203125 6.109375 41.296875 11.75 
Q 45.40625 17.390625 45.40625 27.296875 
Q 45.40625 37.203125 41.296875 42.84375 
Q 37.203125 48.484375 30.078125 48.484375 
Q 22.953125 48.484375 18.875 42.84375 
Q 14.796875 37.203125 14.796875 27.296875 
z
" id="DejaVuSans-100"/>
       <path d="M 40.578125 39.3125 
Q 47.65625 37.796875 51.625 33 
Q 55.609375 28.21875 55.609375 21.1875 
Q 55.609375 10.40625 48.1875 4.484375 
Q 40.765625 -1.421875 27.09375 -1.421875 
Q 22.515625 -1.421875 17.65625 -0.515625 
Q 12.796875 0.390625 7.625 2.203125 
L 7.625 11.71875 
Q 11.71875 9.328125 16.59375 8.109375 
Q 21.484375 6.890625 26.8125 6.890625 
Q 36.078125 6.890625 40.9375 10.546875 
Q 45.796875 14.203125 45.796875 21.1875 
Q 45.796875 27.640625 41.28125 31.265625 
Q 36.765625 34.90625 28.71875 34.90625 
L 20.21875 34.90625 
L 20.21875 43.015625 
L 29.109375 43.015625 
Q 36.375 43.015625 40.234375 45.921875 
Q 44.09375 48.828125 44.09375 54.296875 
Q 44.09375 59.90625 40.109375 62.90625 
Q 36.140625 65.921875 28.71875 65.921875 
Q 24.65625 65.921875 20.015625 65.03125 
Q 15.375 64.15625 9.8125 62.3125 
L 9.8125 71.09375 
Q 15.4375 72.65625 20.34375 73.4375 
Q 25.25 74.21875 29.59375 74.21875 
Q 40.828125 74.21875 47.359375 69.109375 
Q 53.90625 64.015625 53.90625 55.328125 
Q 53.90625 49.265625 50.4375 45.09375 
Q 46.96875 40.921875 40.578125 39.3125 
z
" id="DejaVuSans-51"/>
      </defs>
      <g transform="translate(191.949246 43.652118)scale(0.1 -0.1)">
       <use xlink:href="#DejaVuSans-69"/>
       <use x="63.183594" xlink:href="#DejaVuSans-69"/>
       <use x="126.367188" xlink:href="#DejaVuSans-72"/>
       <use x="201.5625" xlink:href="#DejaVuSans-69"/>
       <use x="264.746094" xlink:href="#DejaVuSans-69"/>
       <use x="327.929688" xlink:href="#DejaVuSans-95"/>
       <use x="377.929688" xlink:href="#DejaVuSans-114"/>
       <use x="419.027344" xlink:href="#DejaVuSans-100"/>
       <use x="482.503906" xlink:href="#DejaVuSans-51"/>
      </g>
      <!-- _0037 -->
      <defs>
       <path d="M 31.78125 66.40625 
Q 24.171875 66.40625 20.328125 58.90625 
Q 16.5 51.421875 16.5 36.375 
Q 16.5 21.390625 20.328125 13.890625 
Q 24.171875 6.390625 31.78125 6.390625 
Q 39.453125 6.390625 43.28125 13.890625 
Q 47.125 21.390625 47.125 36.375 
Q 47.125 51.421875 43.28125 58.90625 
Q 39.453125 66.40625 31.78125 66.40625 
z
M 31.78125 74.21875 
Q 44.046875 74.21875 50.515625 64.515625 
Q 56.984375 54.828125 56.984375 36.375 
Q 56.984375 17.96875 50.515625 8.265625 
Q 44.046875 -1.421875 31.78125 -1.421875 
Q 19.53125 -1.421875 13.0625 8.265625 
Q 6.59375 17.96875 6.59375 36.375 
Q 6.59375 54.828125 13.0625 64.515625 
Q 19.53125 74.21875 31.78125 74.21875 
z
" id="DejaVuSans-48"/>
       <path d="M 8.203125 72.90625 
L 55.078125 72.90625 
L 55.078125 68.703125 
L 28.609375 0 
L 18.3125 0 
L 43.21875 64.59375 
L 8.203125 64.59375 
z
" id="DejaVuSans-55"/>
      </defs>
      <g transform="translate(204.032058 55.128055)scale(0.1 -0.1)">
       <use xlink:href="#DejaVuSans-95"/>
       <use x="50" xlink:href="#DejaVuSans-48"/>
       <use x="113.623047" xlink:href="#DejaVuSans-48"/>
       <use x="177.246094" xlink:href="#DejaVuSans-51"/>
       <use x="240.869141" xlink:href="#DejaVuSans-55"/>
      </g>
     </g>
    </g>
    <g id="xtick_3">
     <g id="line2d_3">
      <path clip-path="url(#p8fb4a4b649)" d="M 159.5 160.627335 
L 253.80272 95.534868 
" style="fill:none;stroke:#000000;stroke-dasharray:0.5,0.825;stroke-dashoffset:0;stroke-width:0.5;"/>
     </g>
     <g id="text_3">
      <!-- EEHEE_rd3 -->
      <g transform="translate(238.016682 84.464305)scale(0.1 -0.1)">
       <use xlink:href="#DejaVuSans-69"/>
       <use x="63.183594" xlink:href="#DejaVuSans-69"/>
       <use x="126.367188" xlink:href="#DejaVuSans-72"/>
       <use x="201.5625" xlink:href="#DejaVuSans-69"/>
       <use x="264.746094" xlink:href="#DejaVuSans-69"/>
       <use x="327.929688" xlink:href="#DejaVuSans-95"/>
       <use x="377.929688" xlink:href="#DejaVuSans-114"/>
       <use x="419.027344" xlink:href="#DejaVuSans-100"/>
       <use x="482.503906" xlink:href="#DejaVuSans-51"/>
      </g>
      <!-- _1498 -->
      <defs>
       <path d="M 12.40625 8.296875 
L 28.515625 8.296875 
L 28.515625 63.921875 
L 10.984375 60.40625 
L 10.984375 69.390625 
L 28.421875 72.90625 
L 38.28125 72.90625 
L 38.28125 8.296875 
L 54.390625 8.296875 
L 54.390625 0 
L 12.40625 0 
z
" id="DejaVuSans-49"/>
       <path d="M 37.796875 64.3125 
L 12.890625 25.390625 
L 37.796875 25.390625 
z
M 35.203125 72.90625 
L 47.609375 72.90625 
L 47.609375 25.390625 
L 58.015625 25.390625 
L 58.015625 17.1875 
L 47.609375 17.1875 
L 47.609375 0 
L 37.796875 0 
L 37.796875 17.1875 
L 4.890625 17.1875 
L 4.890625 26.703125 
z
" id="DejaVuSans-52"/>
       <path d="M 10.984375 1.515625 
L 10.984375 10.5 
Q 14.703125 8.734375 18.5 7.8125 
Q 22.3125 6.890625 25.984375 6.890625 
Q 35.75 6.890625 40.890625 13.453125 
Q 46.046875 20.015625 46.78125 33.40625 
Q 43.953125 29.203125 39.59375 26.953125 
Q 35.25 24.703125 29.984375 24.703125 
Q 19.046875 24.703125 12.671875 31.3125 
Q 6.296875 37.9375 6.296875 49.421875 
Q 6.296875 60.640625 12.9375 67.421875 
Q 19.578125 74.21875 30.609375 74.21875 
Q 43.265625 74.21875 49.921875 64.515625 
Q 56.59375 54.828125 56.59375 36.375 
Q 56.59375 19.140625 48.40625 8.859375 
Q 40.234375 -1.421875 26.421875 -1.421875 
Q 22.703125 -1.421875 18.890625 -0.6875 
Q 15.09375 0.046875 10.984375 1.515625 
z
M 30.609375 32.421875 
Q 37.25 32.421875 41.125 36.953125 
Q 45.015625 41.5 45.015625 49.421875 
Q 45.015625 57.28125 41.125 61.84375 
Q 37.25 66.40625 30.609375 66.40625 
Q 23.96875 66.40625 20.09375 61.84375 
Q 16.21875 57.28125 16.21875 49.421875 
Q 16.21875 41.5 20.09375 36.953125 
Q 23.96875 32.421875 30.609375 32.421875 
z
" id="DejaVuSans-57"/>
       <path d="M 31.78125 34.625 
Q 24.75 34.625 20.71875 30.859375 
Q 16.703125 27.09375 16.703125 20.515625 
Q 16.703125 13.921875 20.71875 10.15625 
Q 24.75 6.390625 31.78125 6.390625 
Q 38.8125 6.390625 42.859375 10.171875 
Q 46.921875 13.96875 46.921875 20.515625 
Q 46.921875 27.09375 42.890625 30.859375 
Q 38.875 34.625 31.78125 34.625 
z
M 21.921875 38.8125 
Q 15.578125 40.375 12.03125 44.71875 
Q 8.5 49.078125 8.5 55.328125 
Q 8.5 64.0625 14.71875 69.140625 
Q 20.953125 74.21875 31.78125 74.21875 
Q 42.671875 74.21875 48.875 69.140625 
Q 55.078125 64.0625 55.078125 55.328125 
Q 55.078125 49.078125 51.53125 44.71875 
Q 48 40.375 41.703125 38.8125 
Q 48.828125 37.15625 52.796875 32.3125 
Q 56.78125 27.484375 56.78125 20.515625 
Q 56.78125 9.90625 50.3125 4.234375 
Q 43.84375 -1.421875 31.78125 -1.421875 
Q 19.734375 -1.421875 13.25 4.234375 
Q 6.78125 9.90625 6.78125 20.515625 
Q 6.78125 27.484375 10.78125 32.3125 
Q 14.796875 37.15625 21.921875 38.8125 
z
M 18.3125 54.390625 
Q 18.3125 48.734375 21.84375 45.5625 
Q 25.390625 42.390625 31.78125 42.390625 
Q 38.140625 42.390625 41.71875 45.5625 
Q 45.3125 48.734375 45.3125 54.390625 
Q 45.3125 60.0625 41.71875 63.234375 
Q 38.140625 66.40625 31.78125 66.40625 
Q 25.390625 66.40625 21.84375 63.234375 
Q 18.3125 60.0625 18.3125 54.390625 
z
" id="DejaVuSans-56"/>
      </defs>
      <g transform="translate(250.099494 95.940242)scale(0.1 -0.1)">
       <use xlink:href="#DejaVuSans-95"/>
       <use x="50" xlink:href="#DejaVuSans-49"/>
       <use x="113.623047" xlink:href="#DejaVuSans-52"/>
       <use x="177.246094" xlink:href="#DejaVuSans-57"/>
       <use x="240.869141" xlink:href="#DejaVuSans-56"/>
      </g>
     </g>
    </g>
    <g id="xtick_4">
     <g id="line2d_4">
      <path clip-path="url(#p8fb4a4b649)" d="M 159.5 160.627335 
L 273.25089 146.815477 
" style="fill:none;stroke:#000000;stroke-dasharray:0.5,0.825;stroke-dashoffset:0;stroke-width:0.5;"/>
     </g>
     <g id="text_4">
      <!-- EEHEE_rd3 -->
      <g transform="translate(259.841002 142.010307)scale(0.1 -0.1)">
       <use xlink:href="#DejaVuSans-69"/>
       <use x="63.183594" xlink:href="#DejaVuSans-69"/>
       <use x="126.367188" xlink:href="#DejaVuSans-72"/>
       <use x="201.5625" xlink:href="#DejaVuSans-69"/>
       <use x="264.746094" xlink:href="#DejaVuSans-69"/>
       <use x="327.929688" xlink:href="#DejaVuSans-95"/>
       <use x="377.929688" xlink:href="#DejaVuSans-114"/>
       <use x="419.027344" xlink:href="#DejaVuSans-100"/>
       <use x="482.503906" xlink:href="#DejaVuSans-51"/>
      </g>
      <!-- _1702 -->
      <defs>
       <path d="M 19.1875 8.296875 
L 53.609375 8.296875 
L 53.609375 0 
L 7.328125 0 
L 7.328125 8.296875 
Q 12.9375 14.109375 22.625 23.890625 
Q 32.328125 33.6875 34.8125 36.53125 
Q 39.546875 41.84375 41.421875 45.53125 
Q 43.3125 49.21875 43.3125 52.78125 
Q 43.3125 58.59375 39.234375 62.25 
Q 35.15625 65.921875 28.609375 65.921875 
Q 23.96875 65.921875 18.8125 64.3125 
Q 13.671875 62.703125 7.8125 59.421875 
L 7.8125 69.390625 
Q 13.765625 71.78125 18.9375 73 
Q 24.125 74.21875 28.421875 74.21875 
Q 39.75 74.21875 46.484375 68.546875 
Q 53.21875 62.890625 53.21875 53.421875 
Q 53.21875 48.921875 51.53125 44.890625 
Q 49.859375 40.875 45.40625 35.40625 
Q 44.1875 33.984375 37.640625 27.21875 
Q 31.109375 20.453125 19.1875 8.296875 
z
" id="DejaVuSans-50"/>
      </defs>
      <g transform="translate(271.923814 153.486245)scale(0.1 -0.1)">
       <use xlink:href="#DejaVuSans-95"/>
       <use x="50" xlink:href="#DejaVuSans-49"/>
       <use x="113.623047" xlink:href="#DejaVuSans-55"/>
       <use x="177.246094" xlink:href="#DejaVuSans-48"/>
       <use x="240.869141" xlink:href="#DejaVuSans-50"/>
      </g>
     </g>
    </g>
    <g id="xtick_5">
     <g id="line2d_5">
      <path clip-path="url(#p8fb4a4b649)" d="M 159.5 160.627335 
L 266.640102 201.260216 
" style="fill:none;stroke:#000000;stroke-dasharray:0.5,0.825;stroke-dashoffset:0;stroke-width:0.5;"/>
     </g>
     <g id="text_5">
      <!-- EEHEE_rd3 -->
      <g transform="translate(252.422516 203.107028)scale(0.1 -0.1)">
       <use xlink:href="#DejaVuSans-69"/>
       <use x="63.183594" xlink:href="#DejaVuSans-69"/>
       <use x="126.367188" xlink:href="#DejaVuSans-72"/>
       <use x="201.5625" xlink:href="#DejaVuSans-69"/>
       <use x="264.746094" xlink:href="#DejaVuSans-69"/>
       <use x="327.929688" xlink:href="#DejaVuSans-95"/>
       <use x="377.929688" xlink:href="#DejaVuSans-114"/>
       <use x="419.027344" xlink:href="#DejaVuSans-100"/>
       <use x="482.503906" xlink:href="#DejaVuSans-51"/>
      </g>
      <!-- _1716 -->
      <defs>
       <path d="M 33.015625 40.375 
Q 26.375 40.375 22.484375 35.828125 
Q 18.609375 31.296875 18.609375 23.390625 
Q 18.609375 15.53125 22.484375 10.953125 
Q 26.375 6.390625 33.015625 6.390625 
Q 39.65625 6.390625 43.53125 10.953125 
Q 47.40625 15.53125 47.40625 23.390625 
Q 47.40625 31.296875 43.53125 35.828125 
Q 39.65625 40.375 33.015625 40.375 
z
M 52.59375 71.296875 
L 52.59375 62.3125 
Q 48.875 64.0625 45.09375 64.984375 
Q 41.3125 65.921875 37.59375 65.921875 
Q 27.828125 65.921875 22.671875 59.328125 
Q 17.53125 52.734375 16.796875 39.40625 
Q 19.671875 43.65625 24.015625 45.921875 
Q 28.375 48.1875 33.59375 48.1875 
Q 44.578125 48.1875 50.953125 41.515625 
Q 57.328125 34.859375 57.328125 23.390625 
Q 57.328125 12.15625 50.6875 5.359375 
Q 44.046875 -1.421875 33.015625 -1.421875 
Q 20.359375 -1.421875 13.671875 8.265625 
Q 6.984375 17.96875 6.984375 36.375 
Q 6.984375 53.65625 15.1875 63.9375 
Q 23.390625 74.21875 37.203125 74.21875 
Q 40.921875 74.21875 44.703125 73.484375 
Q 48.484375 72.75 52.59375 71.296875 
z
" id="DejaVuSans-54"/>
      </defs>
      <g transform="translate(264.505329 214.582966)scale(0.1 -0.1)">
       <use xlink:href="#DejaVuSans-95"/>
       <use x="50" xlink:href="#DejaVuSans-49"/>
       <use x="113.623047" xlink:href="#DejaVuSans-55"/>
       <use x="177.246094" xlink:href="#DejaVuSans-49"/>
       <use x="240.869141" xlink:href="#DejaVuSans-54"/>
      </g>
     </g>
    </g>
    <g id="xtick_6">
     <g id="line2d_6">
      <path clip-path="url(#p8fb4a4b649)" d="M 159.5 160.627335 
L 235.484807 246.396453 
" style="fill:none;stroke:#000000;stroke-dasharray:0.5,0.825;stroke-dashoffset:0;stroke-width:0.5;"/>
     </g>
     <g id="text_6">
      <!-- HEEH_rd2 -->
      <g transform="translate(220.019306 253.757947)scale(0.1 -0.1)">
       <use xlink:href="#DejaVuSans-72"/>
       <use x="75.195312" xlink:href="#DejaVuSans-69"/>
       <use x="138.378906" xlink:href="#DejaVuSans-69"/>
       <use x="201.5625" xlink:href="#DejaVuSans-72"/>
       <use x="276.757812" xlink:href="#DejaVuSans-95"/>
       <use x="326.757812" xlink:href="#DejaVuSans-114"/>
       <use x="367.855469" xlink:href="#DejaVuSans-100"/>
       <use x="431.332031" xlink:href="#DejaVuSans-50"/>
      </g>
      <!-- _0779 -->
      <g transform="translate(229.543524 265.233884)scale(0.1 -0.1)">
       <use xlink:href="#DejaVuSans-95"/>
       <use x="50" xlink:href="#DejaVuSans-48"/>
       <use x="113.623047" xlink:href="#DejaVuSans-55"/>
       <use x="177.246094" xlink:href="#DejaVuSans-55"/>
       <use x="240.869141" xlink:href="#DejaVuSans-57"/>
      </g>
     </g>
    </g>
    <g id="xtick_7">
     <g id="line2d_7">
      <path clip-path="url(#p8fb4a4b649)" d="M 159.5 160.627335 
L 186.922309 271.884018 
" style="fill:none;stroke:#000000;stroke-dasharray:0.5,0.825;stroke-dashoffset:0;stroke-width:0.5;"/>
     </g>
     <g id="text_7">
      <!-- HEEH_rd3 -->
      <g transform="translate(165.52351 282.359547)scale(0.1 -0.1)">
       <use xlink:href="#DejaVuSans-72"/>
       <use x="75.195312" xlink:href="#DejaVuSans-69"/>
       <use x="138.378906" xlink:href="#DejaVuSans-69"/>
       <use x="201.5625" xlink:href="#DejaVuSans-72"/>
       <use x="276.757812" xlink:href="#DejaVuSans-95"/>
       <use x="326.757812" xlink:href="#DejaVuSans-114"/>
       <use x="367.855469" xlink:href="#DejaVuSans-100"/>
       <use x="431.332031" xlink:href="#DejaVuSans-51"/>
      </g>
      <!-- _0223 -->
      <g transform="translate(175.047729 293.835484)scale(0.1 -0.1)">
       <use xlink:href="#DejaVuSans-95"/>
       <use x="50" xlink:href="#DejaVuSans-48"/>
       <use x="113.623047" xlink:href="#DejaVuSans-50"/>
       <use x="177.246094" xlink:href="#DejaVuSans-50"/>
       <use x="240.869141" xlink:href="#DejaVuSans-51"/>
      </g>
     </g>
    </g>
    <g id="xtick_8">
     <g id="line2d_8">
      <path clip-path="url(#p8fb4a4b649)" d="M 159.5 160.627335 
L 132.077691 271.884018 
" style="fill:none;stroke:#000000;stroke-dasharray:0.5,0.825;stroke-dashoffset:0;stroke-width:0.5;"/>
     </g>
     <g id="text_8">
      <!-- HEEH_rd3 -->
      <g transform="translate(103.978053 282.359547)scale(0.1 -0.1)">
       <use xlink:href="#DejaVuSans-72"/>
       <use x="75.195312" xlink:href="#DejaVuSans-69"/>
       <use x="138.378906" xlink:href="#DejaVuSans-69"/>
       <use x="201.5625" xlink:href="#DejaVuSans-72"/>
       <use x="276.757812" xlink:href="#DejaVuSans-95"/>
       <use x="326.757812" xlink:href="#DejaVuSans-114"/>
       <use x="367.855469" xlink:href="#DejaVuSans-100"/>
       <use x="431.332031" xlink:href="#DejaVuSans-51"/>
      </g>
      <!-- _0726 -->
      <g transform="translate(113.502271 293.835484)scale(0.1 -0.1)">
       <use xlink:href="#DejaVuSans-95"/>
       <use x="50" xlink:href="#DejaVuSans-48"/>
       <use x="113.623047" xlink:href="#DejaVuSans-55"/>
       <use x="177.246094" xlink:href="#DejaVuSans-50"/>
       <use x="240.869141" xlink:href="#DejaVuSans-54"/>
      </g>
     </g>
    </g>
    <g id="xtick_9">
     <g id="line2d_9">
      <path clip-path="url(#p8fb4a4b649)" d="M 159.5 160.627335 
L 83.515193 246.396453 
" style="fill:none;stroke:#000000;stroke-dasharray:0.5,0.825;stroke-dashoffset:0;stroke-width:0.5;"/>
     </g>
     <g id="text_9">
      <!-- HEEH_rd3 -->
      <g transform="translate(49.482257 253.757947)scale(0.1 -0.1)">
       <use xlink:href="#DejaVuSans-72"/>
       <use x="75.195312" xlink:href="#DejaVuSans-69"/>
       <use x="138.378906" xlink:href="#DejaVuSans-69"/>
       <use x="201.5625" xlink:href="#DejaVuSans-72"/>
       <use x="276.757812" xlink:href="#DejaVuSans-95"/>
       <use x="326.757812" xlink:href="#DejaVuSans-114"/>
       <use x="367.855469" xlink:href="#DejaVuSans-100"/>
       <use x="431.332031" xlink:href="#DejaVuSans-51"/>
      </g>
      <!-- _0872 -->
      <g transform="translate(59.006476 265.233884)scale(0.1 -0.1)">
       <use xlink:href="#DejaVuSans-95"/>
       <use x="50" xlink:href="#DejaVuSans-48"/>
       <use x="113.623047" xlink:href="#DejaVuSans-56"/>
       <use x="177.246094" xlink:href="#DejaVuSans-55"/>
       <use x="240.869141" xlink:href="#DejaVuSans-50"/>
      </g>
     </g>
    </g>
    <g id="xtick_10">
     <g id="line2d_10">
      <path clip-path="url(#p8fb4a4b649)" d="M 159.5 160.627335 
L 52.359898 201.260216 
" style="fill:none;stroke:#000000;stroke-dasharray:0.5,0.825;stroke-dashoffset:0;stroke-width:0.5;"/>
     </g>
     <g id="text_10">
      <!-- HHH_rd2 -->
      <g transform="translate(17.079046 203.107028)scale(0.1 -0.1)">
       <use xlink:href="#DejaVuSans-72"/>
       <use x="75.195312" xlink:href="#DejaVuSans-72"/>
       <use x="150.390625" xlink:href="#DejaVuSans-72"/>
       <use x="225.585938" xlink:href="#DejaVuSans-95"/>
       <use x="275.585938" xlink:href="#DejaVuSans-114"/>
       <use x="316.683594" xlink:href="#DejaVuSans-100"/>
       <use x="380.160156" xlink:href="#DejaVuSans-50"/>
      </g>
      <!-- _0134 -->
      <g transform="translate(24.044671 214.582966)scale(0.1 -0.1)">
       <use xlink:href="#DejaVuSans-95"/>
       <use x="50" xlink:href="#DejaVuSans-48"/>
       <use x="113.623047" xlink:href="#DejaVuSans-49"/>
       <use x="177.246094" xlink:href="#DejaVuSans-51"/>
       <use x="240.869141" xlink:href="#DejaVuSans-52"/>
      </g>
     </g>
    </g>
    <g id="xtick_11">
     <g id="line2d_11">
      <path clip-path="url(#p8fb4a4b649)" d="M 159.5 160.627335 
L 45.74911 146.815477 
" style="fill:none;stroke:#000000;stroke-dasharray:0.5,0.825;stroke-dashoffset:0;stroke-width:0.5;"/>
     </g>
     <g id="text_11">
      <!-- HHH_rd3 -->
      <g transform="translate(9.660561 142.010307)scale(0.1 -0.1)">
       <use xlink:href="#DejaVuSans-72"/>
       <use x="75.195312" xlink:href="#DejaVuSans-72"/>
       <use x="150.390625" xlink:href="#DejaVuSans-72"/>
       <use x="225.585938" xlink:href="#DejaVuSans-95"/>
       <use x="275.585938" xlink:href="#DejaVuSans-114"/>
       <use x="316.683594" xlink:href="#DejaVuSans-100"/>
       <use x="380.160156" xlink:href="#DejaVuSans-51"/>
      </g>
      <!-- _0138 -->
      <g transform="translate(16.626186 153.486245)scale(0.1 -0.1)">
       <use xlink:href="#DejaVuSans-95"/>
       <use x="50" xlink:href="#DejaVuSans-48"/>
       <use x="113.623047" xlink:href="#DejaVuSans-49"/>
       <use x="177.246094" xlink:href="#DejaVuSans-51"/>
       <use x="240.869141" xlink:href="#DejaVuSans-56"/>
      </g>
     </g>
    </g>
    <g id="xtick_12">
     <g id="line2d_12">
      <path clip-path="url(#p8fb4a4b649)" d="M 159.5 160.627335 
L 65.19728 95.534868 
" style="fill:none;stroke:#000000;stroke-dasharray:0.5,0.825;stroke-dashoffset:0;stroke-width:0.5;"/>
     </g>
     <g id="text_12">
      <!-- Pin1 -->
      <defs>
       <path d="M 19.671875 64.796875 
L 19.671875 37.40625 
L 32.078125 37.40625 
Q 38.96875 37.40625 42.71875 40.96875 
Q 46.484375 44.53125 46.484375 51.125 
Q 46.484375 57.671875 42.71875 61.234375 
Q 38.96875 64.796875 32.078125 64.796875 
z
M 9.8125 72.90625 
L 32.078125 72.90625 
Q 44.34375 72.90625 50.609375 67.359375 
Q 56.890625 61.8125 56.890625 51.125 
Q 56.890625 40.328125 50.609375 34.8125 
Q 44.34375 29.296875 32.078125 29.296875 
L 19.671875 29.296875 
L 19.671875 0 
L 9.8125 0 
z
" id="DejaVuSans-80"/>
      </defs>
      <g transform="translate(42.923162 90.341336)scale(0.1 -0.1)">
       <use xlink:href="#DejaVuSans-80"/>
       <use x="60.271484" xlink:href="#DejaVuSans-105"/>
       <use x="88.054688" xlink:href="#DejaVuSans-110"/>
       <use x="151.433594" xlink:href="#DejaVuSans-49"/>
      </g>
     </g>
    </g>
    <g id="xtick_13">
     <g id="line2d_13">
      <path clip-path="url(#p8fb4a4b649)" d="M 159.5 160.627335 
L 106.249066 59.166158 
" style="fill:none;stroke:#000000;stroke-dasharray:0.5,0.825;stroke-dashoffset:0;stroke-width:0.5;"/>
     </g>
     <g id="text_13">
      <!-- hYAP65 -->
      <defs>
       <path d="M 54.890625 33.015625 
L 54.890625 0 
L 45.90625 0 
L 45.90625 32.71875 
Q 45.90625 40.484375 42.875 44.328125 
Q 39.84375 48.1875 33.796875 48.1875 
Q 26.515625 48.1875 22.3125 43.546875 
Q 18.109375 38.921875 18.109375 30.90625 
L 18.109375 0 
L 9.078125 0 
L 9.078125 75.984375 
L 18.109375 75.984375 
L 18.109375 46.1875 
Q 21.34375 51.125 25.703125 53.5625 
Q 30.078125 56 35.796875 56 
Q 45.21875 56 50.046875 50.171875 
Q 54.890625 44.34375 54.890625 33.015625 
z
" id="DejaVuSans-104"/>
       <path d="M -0.203125 72.90625 
L 10.40625 72.90625 
L 30.609375 42.921875 
L 50.6875 72.90625 
L 61.28125 72.90625 
L 35.5 34.71875 
L 35.5 0 
L 25.59375 0 
L 25.59375 34.71875 
z
" id="DejaVuSans-89"/>
       <path d="M 34.1875 63.1875 
L 20.796875 26.90625 
L 47.609375 26.90625 
z
M 28.609375 72.90625 
L 39.796875 72.90625 
L 67.578125 0 
L 57.328125 0 
L 50.6875 18.703125 
L 17.828125 18.703125 
L 11.1875 0 
L 0.78125 0 
z
" id="DejaVuSans-65"/>
       <path d="M 10.796875 72.90625 
L 49.515625 72.90625 
L 49.515625 64.59375 
L 19.828125 64.59375 
L 19.828125 46.734375 
Q 21.96875 47.46875 24.109375 47.828125 
Q 26.265625 48.1875 28.421875 48.1875 
Q 40.625 48.1875 47.75 41.5 
Q 54.890625 34.8125 54.890625 23.390625 
Q 54.890625 11.625 47.5625 5.09375 
Q 40.234375 -1.421875 26.90625 -1.421875 
Q 22.3125 -1.421875 17.546875 -0.640625 
Q 12.796875 0.140625 7.71875 1.703125 
L 7.71875 11.625 
Q 12.109375 9.234375 16.796875 8.0625 
Q 21.484375 6.890625 26.703125 6.890625 
Q 35.15625 6.890625 40.078125 11.328125 
Q 45.015625 15.765625 45.015625 23.390625 
Q 45.015625 31 40.078125 35.4375 
Q 35.15625 39.890625 26.703125 39.890625 
Q 22.75 39.890625 18.8125 39.015625 
Q 14.890625 38.140625 10.796875 36.28125 
z
" id="DejaVuSans-53"/>
      </defs>
      <g transform="translate(80.728098 49.529149)scale(0.1 -0.1)">
       <use xlink:href="#DejaVuSans-104"/>
       <use x="63.378906" xlink:href="#DejaVuSans-89"/>
       <use x="124.353516" xlink:href="#DejaVuSans-65"/>
       <use x="192.761719" xlink:href="#DejaVuSans-80"/>
       <use x="253.064453" xlink:href="#DejaVuSans-54"/>
       <use x="316.6875" xlink:href="#DejaVuSans-53"/>
      </g>
     </g>
    </g>
   </g>
   <g id="matplotlib.axis_2">
    <g id="ytick_1">
     <g id="line2d_14">
      <path clip-path="url(#p8fb4a4b649)" d="M 159.5 127.888377 
L 161.783754 127.968128 
L 164.056382 128.206991 
L 166.306812 128.603802 
L 168.52408 129.156629 
L 170.697383 129.862778 
L 172.816134 130.718809 
L 174.87001 131.720551 
L 176.849005 132.863124 
L 178.743477 134.140962 
L 180.544197 135.547839 
L 182.242391 137.0769 
L 183.829787 138.720697 
L 185.298651 140.47122 
L 186.641826 142.319942 
L 187.852769 144.257856 
L 188.925581 146.275521 
L 189.855033 148.363106 
L 190.636599 150.510441 
L 191.266471 152.707065 
L 191.74158 154.942275 
L 192.059611 157.205182 
L 192.219014 159.484762 
L 192.219014 161.769909 
L 192.059611 164.049488 
L 191.74158 166.312396 
L 191.266471 168.547606 
L 190.636599 170.74423 
L 189.855033 172.891565 
L 188.925581 174.97915 
L 187.852769 176.996814 
L 186.641826 178.934728 
L 185.298651 180.783451 
L 183.829787 182.533974 
L 182.242391 184.177771 
L 180.544197 185.706832 
L 178.743477 187.113709 
L 176.849005 188.391547 
L 174.87001 189.53412 
L 172.816134 190.535862 
L 170.697383 191.391893 
L 168.52408 192.098042 
L 166.306812 192.650869 
L 164.056382 193.04768 
L 161.783754 193.286543 
L 159.5 193.366294 
L 157.216246 193.286543 
L 154.943618 193.04768 
L 152.693188 192.650869 
L 150.47592 192.098042 
L 148.302617 191.391893 
L 146.183866 190.535862 
L 144.12999 189.53412 
L 142.150995 188.391547 
L 140.256523 187.113709 
L 138.455803 185.706832 
L 136.757609 184.177771 
L 135.170213 182.533974 
L 133.701349 180.783451 
L 132.358174 178.934728 
L 131.147231 176.996814 
L 130.074419 174.97915 
L 129.144967 172.891565 
L 128.363401 170.74423 
L 127.733529 168.547606 
L 127.25842 166.312396 
L 126.940389 164.049488 
L 126.780986 161.769909 
L 126.780986 159.484762 
L 126.940389 157.205182 
L 127.25842 154.942275 
L 127.733529 152.707065 
L 128.363401 150.510441 
L 129.144967 148.363106 
L 130.074419 146.275521 
L 131.147231 144.257856 
L 132.358174 142.319942 
L 133.701349 140.47122 
L 135.170213 138.720697 
L 136.757609 137.0769 
L 138.455803 135.547839 
L 140.256523 134.140962 
L 142.150995 132.863124 
L 144.12999 131.720551 
L 146.183866 130.718809 
L 148.302617 129.862778 
L 150.47592 129.156629 
L 152.693188 128.603802 
L 154.943618 128.206991 
L 157.216246 127.968128 
L 159.5 127.888377 
L 159.5 127.888377 
" style="fill:none;stroke:#000000;stroke-dasharray:0.5,0.825;stroke-dashoffset:0;stroke-width:0.5;"/>
     </g>
     <g id="text_14">
      <!-- 0.2 -->
      <defs>
       <path d="M 10.6875 12.40625 
L 21 12.40625 
L 21 0 
L 10.6875 0 
z
" id="DejaVuSans-46"/>
      </defs>
      <g transform="translate(159.5 125.392752)scale(0.12 -0.12)">
       <use xlink:href="#DejaVuSans-48"/>
       <use x="63.623047" xlink:href="#DejaVuSans-46"/>
       <use x="95.410156" xlink:href="#DejaVuSans-50"/>
      </g>
     </g>
    </g>
    <g id="ytick_2">
     <g id="line2d_15">
      <path clip-path="url(#p8fb4a4b649)" d="M 159.5 95.149419 
L 164.067509 95.30892 
L 168.612765 95.786646 
L 173.113624 96.580269 
L 177.54816 97.685923 
L 181.894766 99.098221 
L 186.132268 100.810283 
L 190.24002 102.813767 
L 194.198009 105.098913 
L 197.986954 107.654588 
L 201.588393 110.468342 
L 204.984783 113.526464 
L 208.159575 116.814058 
L 211.097302 120.315105 
L 213.783653 124.012549 
L 216.205539 127.888377 
L 218.351161 131.923706 
L 220.210067 136.098876 
L 221.773199 140.393547 
L 223.032942 144.786794 
L 223.98316 149.257215 
L 224.619221 153.783029 
L 224.938029 158.342189 
L 224.938029 162.912482 
L 224.619221 167.471641 
L 223.98316 171.997456 
L 223.032942 176.467877 
L 221.773199 180.861124 
L 220.210067 185.155795 
L 218.351161 189.330965 
L 216.205539 193.366294 
L 213.783653 197.242122 
L 211.097302 200.939566 
L 208.159575 204.440613 
L 204.984783 207.728207 
L 201.588393 210.786329 
L 197.986954 213.600082 
L 194.198009 216.155758 
L 190.24002 218.440904 
L 186.132268 220.444388 
L 181.894766 222.15645 
L 177.54816 223.568748 
L 173.113624 224.674402 
L 168.612765 225.468025 
L 164.067509 225.945751 
L 159.5 226.105252 
L 154.932491 225.945751 
L 150.387235 225.468025 
L 145.886376 224.674402 
L 141.45184 223.568748 
L 137.105234 222.15645 
L 132.867732 220.444388 
L 128.75998 218.440904 
L 124.801991 216.155758 
L 121.013046 213.600082 
L 117.411607 210.786329 
L 114.015217 207.728207 
L 110.840425 204.440613 
L 107.902698 200.939566 
L 105.216347 197.242122 
L 102.794461 193.366294 
L 100.648839 189.330965 
L 98.789933 185.155795 
L 97.226801 180.861124 
L 95.967058 176.467877 
L 95.01684 171.997456 
L 94.380779 167.471641 
L 94.061971 162.912482 
L 94.061971 158.342189 
L 94.380779 153.783029 
L 95.01684 149.257215 
L 95.967058 144.786794 
L 97.226801 140.393547 
L 98.789933 136.098876 
L 100.648839 131.923706 
L 102.794461 127.888377 
L 105.216347 124.012549 
L 107.902698 120.315105 
L 110.840425 116.814058 
L 114.015217 113.526464 
L 117.411607 110.468342 
L 121.013046 107.654588 
L 124.801991 105.098913 
L 128.75998 102.813767 
L 132.867732 100.810283 
L 137.105234 99.098221 
L 141.45184 97.685923 
L 145.886376 96.580269 
L 150.387235 95.786646 
L 154.932491 95.30892 
L 159.5 95.149419 
L 159.5 95.149419 
" style="fill:none;stroke:#000000;stroke-dasharray:0.5,0.825;stroke-dashoffset:0;stroke-width:0.5;"/>
     </g>
     <g id="text_15">
      <!-- 0.4 -->
      <g transform="translate(159.5 92.653794)scale(0.12 -0.12)">
       <use xlink:href="#DejaVuSans-48"/>
       <use x="63.623047" xlink:href="#DejaVuSans-46"/>
       <use x="95.410156" xlink:href="#DejaVuSans-52"/>
      </g>
     </g>
    </g>
    <g id="ytick_3">
     <g id="line2d_16">
      <path clip-path="url(#p8fb4a4b649)" d="M 159.5 62.410461 
L 162.927719 62.470292 
L 166.351263 62.649712 
L 169.766459 62.948503 
L 173.169147 63.366301 
L 176.555181 63.902596 
L 179.920436 64.556735 
L 183.260812 65.327922 
L 186.57224 66.215216 
L 189.850683 67.217537 
L 193.092149 68.333663 
L 196.292689 69.562235 
L 199.448402 70.901756 
L 202.555444 72.350594 
L 205.610029 73.906983 
L 208.608437 75.569027 
L 211.547014 77.334702 
L 214.422179 79.201856 
L 217.23043 81.168215 
L 219.968346 83.231382 
L 222.63259 85.388845 
L 225.219917 87.637974 
L 227.727174 89.976029 
L 230.151307 92.400162 
L 232.489362 94.907419 
L 234.738491 97.494746 
L 236.895953 100.15899 
L 238.95912 102.896905 
L 240.925479 105.705156 
L 242.792633 108.580322 
L 244.558308 111.518898 
L 246.220353 114.517306 
L 247.776742 117.571892 
L 249.225579 120.678934 
L 250.5651 123.834647 
L 251.793672 127.035186 
L 252.909798 130.276652 
L 253.912119 133.555096 
L 254.799413 136.866523 
L 255.5706 140.206899 
L 256.224739 143.572154 
L 256.761034 146.958188 
L 257.178832 150.360876 
L 257.477623 153.776073 
L 257.657043 157.199616 
L 257.716874 160.627335 
L 257.657043 164.055055 
L 257.477623 167.478598 
L 257.178832 170.893794 
L 256.761034 174.296482 
L 256.224739 177.682517 
L 255.5706 181.047772 
L 254.799413 184.388148 
L 253.912119 187.699575 
L 252.909798 190.978019 
L 251.793672 194.219485 
L 250.5651 197.420024 
L 249.225579 200.575737 
L 247.776742 203.682779 
L 246.220353 206.737365 
L 244.558308 209.735773 
L 242.792633 212.674349 
L 240.925479 215.549515 
L 238.95912 218.357766 
L 236.895953 221.095681 
L 234.738491 223.759925 
L 232.489362 226.347252 
L 230.151307 228.854509 
L 227.727174 231.278642 
L 225.219917 233.616697 
L 222.63259 235.865826 
L 219.968346 238.023289 
L 217.23043 240.086456 
L 214.422179 242.052815 
L 211.547014 243.919969 
L 208.608437 245.685644 
L 205.610029 247.347688 
L 202.555444 248.904077 
L 199.448402 250.352915 
L 196.292689 251.692436 
L 193.092149 252.921007 
L 189.850683 254.037134 
L 186.57224 255.039455 
L 183.260812 255.926749 
L 179.920436 256.697935 
L 176.555181 257.352075 
L 173.169147 257.88837 
L 169.766459 258.306167 
L 166.351263 258.604958 
L 162.927719 258.784379 
L 159.5 258.84421 
L 156.072281 258.784379 
L 152.648737 258.604958 
L 149.233541 258.306167 
L 145.830853 257.88837 
L 142.444819 257.352075 
L 139.079564 256.697935 
L 135.739188 255.926749 
L 132.42776 255.039455 
L 129.149317 254.037134 
L 125.907851 252.921007 
L 122.707311 251.692436 
L 119.551598 250.352915 
L 116.444556 248.904077 
L 113.389971 247.347688 
L 110.391563 245.685644 
L 107.452986 243.919969 
L 104.577821 242.052815 
L 101.76957 240.086456 
L 99.031654 238.023289 
L 96.36741 235.865826 
L 93.780083 233.616697 
L 91.272826 231.278642 
L 88.848693 228.854509 
L 86.510638 226.347252 
L 84.261509 223.759925 
L 82.104047 221.095681 
L 80.04088 218.357766 
L 78.074521 215.549515 
L 76.207367 212.674349 
L 74.441692 209.735773 
L 72.779647 206.737365 
L 71.223258 203.682779 
L 69.774421 200.575737 
L 68.4349 197.420024 
L 67.206328 194.219485 
L 66.090202 190.978019 
L 65.087881 187.699575 
L 64.200587 184.388148 
L 63.4294 181.047772 
L 62.775261 177.682517 
L 62.238966 174.296482 
L 61.821168 170.893794 
L 61.522377 167.478598 
L 61.342957 164.055055 
L 61.283126 160.627335 
L 61.342957 157.199616 
L 61.522377 153.776073 
L 61.821168 150.360876 
L 62.238966 146.958188 
L 62.775261 143.572154 
L 63.4294 140.206899 
L 64.200587 136.866523 
L 65.087881 133.555096 
L 66.090202 130.276652 
L 67.206328 127.035186 
L 68.4349 123.834647 
L 69.774421 120.678934 
L 71.223258 117.571892 
L 72.779647 114.517306 
L 74.441692 111.518898 
L 76.207367 108.580322 
L 78.074521 105.705156 
L 80.04088 102.896905 
L 82.104047 100.15899 
L 84.261509 97.494746 
L 86.510638 94.907419 
L 88.848693 92.400162 
L 91.272826 89.976029 
L 93.780083 87.637974 
L 96.36741 85.388845 
L 99.031654 83.231382 
L 101.76957 81.168215 
L 104.577821 79.201856 
L 107.452986 77.334702 
L 110.391563 75.569027 
L 113.389971 73.906983 
L 116.444556 72.350594 
L 119.551598 70.901756 
L 122.707311 69.562235 
L 125.907851 68.333663 
L 129.149317 67.217537 
L 132.42776 66.215216 
L 135.739188 65.327922 
L 139.079564 64.556735 
L 142.444819 63.902596 
L 145.830853 63.366301 
L 149.233541 62.948503 
L 152.648737 62.649712 
L 156.072281 62.470292 
L 159.5 62.410461 
L 159.5 62.410461 
" style="fill:none;stroke:#000000;stroke-dasharray:0.5,0.825;stroke-dashoffset:0;stroke-width:0.5;"/>
     </g>
     <g id="text_16">
      <!-- 0.6 -->
      <g transform="translate(159.5 59.914836)scale(0.12 -0.12)">
       <use xlink:href="#DejaVuSans-48"/>
       <use x="63.623047" xlink:href="#DejaVuSans-46"/>
       <use x="95.410156" xlink:href="#DejaVuSans-54"/>
      </g>
     </g>
    </g>
   </g>
   <g id="LineCollection_1">
    <path clip-path="url(#p8fb4a4b649)" d="M 159.5 76.48073 
L 159.5 59.048753 
" style="fill:none;stroke:#e41a1c;stroke-width:1.5;"/>
    <path clip-path="url(#p8fb4a4b649)" d="M 185.074018 111.900115 
L 194.132017 94.64154 
" style="fill:none;stroke:#e41a1c;stroke-width:1.5;"/>
    <path clip-path="url(#p8fb4a4b649)" d="M 199.335573 133.130824 
L 215.920212 121.683275 
" style="fill:none;stroke:#e41a1c;stroke-width:1.5;"/>
    <path clip-path="url(#p8fb4a4b649)" d="M 169.041127 159.468833 
L 191.559915 156.734557 
" style="fill:none;stroke:#e41a1c;stroke-width:1.5;"/>
    <path clip-path="url(#p8fb4a4b649)" d="M 202.717433 177.017546 
L 221.749918 184.235615 
" style="fill:none;stroke:#e41a1c;stroke-width:1.5;"/>
    <path clip-path="url(#p8fb4a4b649)" d="M 212.742264 220.725428 
L 223.611053 232.993755 
" style="fill:none;stroke:#e41a1c;stroke-width:1.5;"/>
    <path clip-path="url(#p8fb4a4b649)" d="M 170.495433 205.237559 
L 175.37279 225.025777 
" style="fill:none;stroke:#e41a1c;stroke-width:1.5;"/>
    <path clip-path="url(#p8fb4a4b649)" d="M 151.408157 193.457233 
L 146.292577 214.211958 
" style="fill:none;stroke:#e41a1c;stroke-width:1.5;"/>
    <path clip-path="url(#p8fb4a4b649)" d="M 137.081563 185.93252 
L 122.906496 201.932862 
" style="fill:none;stroke:#e41a1c;stroke-width:1.5;"/>
    <path clip-path="url(#p8fb4a4b649)" d="M 128.557369 172.362328 
L 108.521954 179.960758 
" style="fill:none;stroke:#e41a1c;stroke-width:1.5;"/>
    <path clip-path="url(#p8fb4a4b649)" d="M 95.382896 152.84211 
L 77.091865 150.621176 
" style="fill:none;stroke:#e41a1c;stroke-width:1.5;"/>
    <path clip-path="url(#p8fb4a4b649)" d="M 107.411694 124.673374 
L 91.400529 113.621664 
" style="fill:none;stroke:#e41a1c;stroke-width:1.5;"/>
    <path clip-path="url(#p8fb4a4b649)" d="M 141.707005 126.725616 
L 132.243965 108.6953 
" style="fill:none;stroke:#e41a1c;stroke-width:1.5;"/>
    <path clip-path="url(#p8fb4a4b649)" d="M 159.5 76.48073 
L 159.5 59.048753 
" style="fill:none;stroke:#e41a1c;stroke-width:1.5;"/>
   </g>
   <g id="line2d_17">
    <path clip-path="url(#p8fb4a4b649)" d="M 159.5 68.14908 
L 189.47733 103.510306 
L 207.420164 127.550434 
L 180.199515 158.113959 
L 212.00378 180.539393 
L 217.970507 226.626894 
L 172.875473 214.893761 
L 148.899112 203.63683 
L 130.129085 193.780245 
L 118.727596 176.090268 
L 86.526611 151.766762 
L 99.669021 119.328993 
L 137.070477 117.891449 
L 159.5 68.14908 
" style="fill:none;stroke:#e41a1c;stroke-linecap:square;stroke-width:2;"/>
   </g>
   <g id="line2d_18">
    <path clip-path="url(#p8fb4a4b649)" d="M 159.5 68.14908 
L 189.47733 103.510306 
L 207.420164 127.550434 
L 180.199515 158.113959 
L 212.00378 180.539393 
L 217.970507 226.626894 
L 172.875473 214.893761 
L 148.899112 203.63683 
L 130.129085 193.780245 
L 118.727596 176.090268 
L 86.526611 151.766762 
L 99.669021 119.328993 
L 137.070477 117.891449 
L 159.5 68.14908 
" style="fill:none;stroke:#e41a1c;stroke-linecap:square;stroke-width:1.5;"/>
   </g>
   <g id="patch_4">
    <path d="M 159.5 46.040982 
C 144.452658 46.040982 129.551632 49.00498 115.649701 54.763349 
C 101.74777 60.521717 89.11529 68.96247 78.475212 79.602548 
C 67.835135 90.242626 59.394382 102.875105 53.636013 116.777036 
C 47.877645 130.678968 44.913647 145.579993 44.913647 160.627335 
C 44.913647 175.674677 47.877645 190.575703 53.636013 204.477634 
C 59.394382 218.379566 67.835135 231.012045 78.475212 241.652123 
C 89.11529 252.292201 101.74777 260.732954 115.649701 266.491322 
C 129.551632 272.249691 144.452658 275.213689 159.5 275.213689 
C 174.547342 275.213689 189.448368 272.249691 203.350299 266.491322 
C 217.25223 260.732954 229.88471 252.292201 240.524788 241.652123 
C 251.164865 231.012045 259.605618 218.379566 265.363987 204.477634 
C 271.122355 190.575703 274.086353 175.674677 274.086353 160.627335 
C 274.086353 145.579993 271.122355 130.678968 265.363987 116.777036 
C 259.605618 102.875105 251.164865 90.242626 240.524788 79.602548 
C 229.88471 68.96247 217.25223 60.521717 203.350299 54.763349 
C 189.448368 49.00498 174.547342 46.040982 159.5 46.040982 
" style="fill:none;stroke:#000000;stroke-linecap:square;stroke-linejoin:miter;stroke-width:0.8;"/>
   </g>
  </g>
 </g>
 <defs>
  <clipPath id="p8fb4a4b649">
   <path d="M 274.086353 160.627335 
C 274.086353 145.579993 271.122355 130.678968 265.363987 116.777036 
C 259.605618 102.875105 251.164865 90.242626 240.524788 79.602548 
C 229.88471 68.96247 217.25223 60.521717 203.350299 54.763349 
C 189.448368 49.00498 174.547342 46.040982 159.5 46.040982 
C 144.452658 46.040982 129.551632 49.00498 115.649701 54.763349 
C 101.74777 60.521717 89.11529 68.96247 78.475212 79.602548 
C 67.835135 90.242626 59.394382 102.875105 53.636013 116.777036 
C 47.877645 130.678968 44.913647 145.579993 44.913647 160.627335 
C 44.913647 175.674677 47.877645 190.575703 53.636013 204.477634 
C 59.394382 218.379566 67.835135 231.012045 78.475212 241.652123 
C 89.11529 252.292201 101.74777 260.732954 115.649701 266.491322 
C 129.551632 272.249691 144.452658 275.213689 159.5 275.213689 
C 174.547342 275.213689 189.448368 272.249691 203.350299 266.491322 
C 217.25223 260.732954 229.88471 252.292201 240.524788 241.652123 
C 251.164865 231.012045 259.605618 218.379566 265.363987 204.477634 
C 271.122355 190.575703 274.086353 175.674677 274.086353 160.627335 
M 159.5 160.627335 
C 159.5 160.627335 159.5 160.627335 159.5 160.627335 
C 159.5 160.627335 159.5 160.627335 159.5 160.627335 
C 159.5 160.627335 159.5 160.627335 159.5 160.627335 
C 159.5 160.627335 159.5 160.627335 159.5 160.627335 
C 159.5 160.627335 159.5 160.627335 159.5 160.627335 
C 159.5 160.627335 159.5 160.627335 159.5 160.627335 
C 159.5 160.627335 159.5 160.627335 159.5 160.627335 
C 159.5 160.627335 159.5 160.627335 159.5 160.627335 
C 159.5 160.627335 159.5 160.627335 159.5 160.627335 
C 159.5 160.627335 159.5 160.627335 159.5 160.627335 
C 159.5 160.627335 159.5 160.627335 159.5 160.627335 
C 159.5 160.627335 159.5 160.627335 159.5 160.627335 
C 159.5 160.627335 159.5 160.627335 159.5 160.627335 
C 159.5 160.627335 159.5 160.627335 159.5 160.627335 
C 159.5 160.627335 159.5 160.627335 159.5 160.627335 
C 159.5 160.627335 159.5 160.627335 159.5 160.627335 
M 274.086353 160.627335 
z
"/>
  </clipPath>
 </defs>
</svg>
