<?xml version="1.0" encoding="utf-8" standalone="no"?>
<!DOCTYPE svg PUBLIC "-//W3C//DTD SVG 1.1//EN"
  "http://www.w3.org/Graphics/SVG/1.1/DTD/svg11.dtd">
<!-- Created with matplotlib (https://matplotlib.org/) -->
<svg height="324pt" version="1.1" viewBox="0 0 576 324" width="576pt" xmlns="http://www.w3.org/2000/svg" xmlns:xlink="http://www.w3.org/1999/xlink">
 <defs>
  <style type="text/css">
*{stroke-linecap:butt;stroke-linejoin:round;}
  </style>
 </defs>
 <g id="figure_1">
  <g id="patch_1">
   <path d="M 0 324 
L 576 324 
L 576 0 
L 0 0 
z
" style="fill:#ffffff;"/>
  </g>
  <g id="axes_1"/>
  <g id="axes_2">
   <g id="patch_2">
    <path d="M 124.21978 248.225806 
L 242.901099 248.225806 
L 242.901099 52.258065 
L 124.21978 52.258065 
z
" style="fill:#ffffff;"/>
   </g>
   <g id="matplotlib.axis_1">
    <g id="xtick_1">
     <g id="line2d_1">
      <defs>
       <path d="M 0 0 
L 0 3.5 
" id="m1bf6975417" style="stroke:#000000;stroke-width:0.8;"/>
      </defs>
      <g>
       <use style="stroke:#000000;stroke-width:0.8;" x="153.89011" xlink:href="#m1bf6975417" y="248.225806"/>
      </g>
     </g>
     <g id="text_1">
      <!--  reference -->
      <defs>
       <path id="DejaVuSans-32"/>
       <path d="M 41.109375 46.296875 
Q 39.59375 47.171875 37.8125 47.578125 
Q 36.03125 48 33.890625 48 
Q 26.265625 48 22.1875 43.046875 
Q 18.109375 38.09375 18.109375 28.8125 
L 18.109375 0 
L 9.078125 0 
L 9.078125 54.6875 
L 18.109375 54.6875 
L 18.109375 46.1875 
Q 20.953125 51.171875 25.484375 53.578125 
Q 30.03125 56 36.53125 56 
Q 37.453125 56 38.578125 55.875 
Q 39.703125 55.765625 41.0625 55.515625 
z
" id="DejaVuSans-114"/>
       <path d="M 56.203125 29.59375 
L 56.203125 25.203125 
L 14.890625 25.203125 
Q 15.484375 15.921875 20.484375 11.0625 
Q 25.484375 6.203125 34.421875 6.203125 
Q 39.59375 6.203125 44.453125 7.46875 
Q 49.3125 8.734375 54.109375 11.28125 
L 54.109375 2.78125 
Q 49.265625 0.734375 44.1875 -0.34375 
Q 39.109375 -1.421875 33.890625 -1.421875 
Q 20.796875 -1.421875 13.15625 6.1875 
Q 5.515625 13.8125 5.515625 26.8125 
Q 5.515625 40.234375 12.765625 48.109375 
Q 20.015625 56 32.328125 56 
Q 43.359375 56 49.78125 48.890625 
Q 56.203125 41.796875 56.203125 29.59375 
z
M 47.21875 32.234375 
Q 47.125 39.59375 43.09375 43.984375 
Q 39.0625 48.390625 32.421875 48.390625 
Q 24.90625 48.390625 20.390625 44.140625 
Q 15.875 39.890625 15.1875 32.171875 
z
" id="DejaVuSans-101"/>
       <path d="M 37.109375 75.984375 
L 37.109375 68.5 
L 28.515625 68.5 
Q 23.6875 68.5 21.796875 66.546875 
Q 19.921875 64.59375 19.921875 59.515625 
L 19.921875 54.6875 
L 34.71875 54.6875 
L 34.71875 47.703125 
L 19.921875 47.703125 
L 19.921875 0 
L 10.890625 0 
L 10.890625 47.703125 
L 2.296875 47.703125 
L 2.296875 54.6875 
L 10.890625 54.6875 
L 10.890625 58.5 
Q 10.890625 67.625 15.140625 71.796875 
Q 19.390625 75.984375 28.609375 75.984375 
z
" id="DejaVuSans-102"/>
       <path d="M 54.890625 33.015625 
L 54.890625 0 
L 45.90625 0 
L 45.90625 32.71875 
Q 45.90625 40.484375 42.875 44.328125 
Q 39.84375 48.1875 33.796875 48.1875 
Q 26.515625 48.1875 22.3125 43.546875 
Q 18.109375 38.921875 18.109375 30.90625 
L 18.109375 0 
L 9.078125 0 
L 9.078125 54.6875 
L 18.109375 54.6875 
L 18.109375 46.1875 
Q 21.34375 51.125 25.703125 53.5625 
Q 30.078125 56 35.796875 56 
Q 45.21875 56 50.046875 50.171875 
Q 54.890625 44.34375 54.890625 33.015625 
z
" id="DejaVuSans-110"/>
       <path d="M 48.78125 52.59375 
L 48.78125 44.1875 
Q 44.96875 46.296875 41.140625 47.34375 
Q 37.3125 48.390625 33.40625 48.390625 
Q 24.65625 48.390625 19.8125 42.84375 
Q 14.984375 37.3125 14.984375 27.296875 
Q 14.984375 17.28125 19.8125 11.734375 
Q 24.65625 6.203125 33.40625 6.203125 
Q 37.3125 6.203125 41.140625 7.25 
Q 44.96875 8.296875 48.78125 10.40625 
L 48.78125 2.09375 
Q 45.015625 0.34375 40.984375 -0.53125 
Q 36.96875 -1.421875 32.421875 -1.421875 
Q 20.0625 -1.421875 12.78125 6.34375 
Q 5.515625 14.109375 5.515625 27.296875 
Q 5.515625 40.671875 12.859375 48.328125 
Q 20.21875 56 33.015625 56 
Q 37.15625 56 41.109375 55.140625 
Q 45.0625 54.296875 48.78125 52.59375 
z
" id="DejaVuSans-99"/>
      </defs>
      <g transform="translate(156.649485 306.144556)rotate(-90)scale(0.1 -0.1)">
       <use xlink:href="#DejaVuSans-32"/>
       <use x="31.787109" xlink:href="#DejaVuSans-114"/>
       <use x="70.650391" xlink:href="#DejaVuSans-101"/>
       <use x="132.173828" xlink:href="#DejaVuSans-102"/>
       <use x="167.378906" xlink:href="#DejaVuSans-101"/>
       <use x="228.902344" xlink:href="#DejaVuSans-114"/>
       <use x="267.765625" xlink:href="#DejaVuSans-101"/>
       <use x="329.289062" xlink:href="#DejaVuSans-110"/>
       <use x="392.667969" xlink:href="#DejaVuSans-99"/>
       <use x="447.648438" xlink:href="#DejaVuSans-101"/>
      </g>
     </g>
    </g>
    <g id="xtick_2">
     <g id="line2d_2">
      <g>
       <use style="stroke:#000000;stroke-width:0.8;" x="213.230769" xlink:href="#m1bf6975417" y="248.225806"/>
      </g>
     </g>
     <g id="text_2">
      <!--  design -->
      <defs>
       <path d="M 45.40625 46.390625 
L 45.40625 75.984375 
L 54.390625 75.984375 
L 54.390625 0 
L 45.40625 0 
L 45.40625 8.203125 
Q 42.578125 3.328125 38.25 0.953125 
Q 33.9375 -1.421875 27.875 -1.421875 
Q 17.96875 -1.421875 11.734375 6.484375 
Q 5.515625 14.40625 5.515625 27.296875 
Q 5.515625 40.1875 11.734375 48.09375 
Q 17.96875 56 27.875 56 
Q 33.9375 56 38.25 53.625 
Q 42.578125 51.265625 45.40625 46.390625 
z
M 14.796875 27.296875 
Q 14.796875 17.390625 18.875 11.75 
Q 22.953125 6.109375 30.078125 6.109375 
Q 37.203125 6.109375 41.296875 11.75 
Q 45.40625 17.390625 45.40625 27.296875 
Q 45.40625 37.203125 41.296875 42.84375 
Q 37.203125 48.484375 30.078125 48.484375 
Q 22.953125 48.484375 18.875 42.84375 
Q 14.796875 37.203125 14.796875 27.296875 
z
" id="DejaVuSans-100"/>
       <path d="M 44.28125 53.078125 
L 44.28125 44.578125 
Q 40.484375 46.53125 36.375 47.5 
Q 32.28125 48.484375 27.875 48.484375 
Q 21.1875 48.484375 17.84375 46.4375 
Q 14.5 44.390625 14.5 40.28125 
Q 14.5 37.15625 16.890625 35.375 
Q 19.28125 33.59375 26.515625 31.984375 
L 29.59375 31.296875 
Q 39.15625 29.25 43.1875 25.515625 
Q 47.21875 21.78125 47.21875 15.09375 
Q 47.21875 7.46875 41.1875 3.015625 
Q 35.15625 -1.421875 24.609375 -1.421875 
Q 20.21875 -1.421875 15.453125 -0.5625 
Q 10.6875 0.296875 5.421875 2 
L 5.421875 11.28125 
Q 10.40625 8.6875 15.234375 7.390625 
Q 20.0625 6.109375 24.8125 6.109375 
Q 31.15625 6.109375 34.5625 8.28125 
Q 37.984375 10.453125 37.984375 14.40625 
Q 37.984375 18.0625 35.515625 20.015625 
Q 33.0625 21.96875 24.703125 23.78125 
L 21.578125 24.515625 
Q 13.234375 26.265625 9.515625 29.90625 
Q 5.8125 33.546875 5.8125 39.890625 
Q 5.8125 47.609375 11.28125 51.796875 
Q 16.75 56 26.8125 56 
Q 31.78125 56 36.171875 55.265625 
Q 40.578125 54.546875 44.28125 53.078125 
z
" id="DejaVuSans-115"/>
       <path d="M 9.421875 54.6875 
L 18.40625 54.6875 
L 18.40625 0 
L 9.421875 0 
z
M 9.421875 75.984375 
L 18.40625 75.984375 
L 18.40625 64.59375 
L 9.421875 64.59375 
z
" id="DejaVuSans-105"/>
       <path d="M 45.40625 27.984375 
Q 45.40625 37.75 41.375 43.109375 
Q 37.359375 48.484375 30.078125 48.484375 
Q 22.859375 48.484375 18.828125 43.109375 
Q 14.796875 37.75 14.796875 27.984375 
Q 14.796875 18.265625 18.828125 12.890625 
Q 22.859375 7.515625 30.078125 7.515625 
Q 37.359375 7.515625 41.375 12.890625 
Q 45.40625 18.265625 45.40625 27.984375 
z
M 54.390625 6.78125 
Q 54.390625 -7.171875 48.1875 -13.984375 
Q 42 -20.796875 29.203125 -20.796875 
Q 24.46875 -20.796875 20.265625 -20.09375 
Q 16.0625 -19.390625 12.109375 -17.921875 
L 12.109375 -9.1875 
Q 16.0625 -11.328125 19.921875 -12.34375 
Q 23.78125 -13.375 27.78125 -13.375 
Q 36.625 -13.375 41.015625 -8.765625 
Q 45.40625 -4.15625 45.40625 5.171875 
L 45.40625 9.625 
Q 42.625 4.78125 38.28125 2.390625 
Q 33.9375 0 27.875 0 
Q 17.828125 0 11.671875 7.65625 
Q 5.515625 15.328125 5.515625 27.984375 
Q 5.515625 40.671875 11.671875 48.328125 
Q 17.828125 56 27.875 56 
Q 33.9375 56 38.28125 53.609375 
Q 42.625 51.21875 45.40625 46.390625 
L 45.40625 54.6875 
L 54.390625 54.6875 
z
" id="DejaVuSans-103"/>
      </defs>
      <g transform="translate(215.990144 291.578931)rotate(-90)scale(0.1 -0.1)">
       <use xlink:href="#DejaVuSans-32"/>
       <use x="31.787109" xlink:href="#DejaVuSans-100"/>
       <use x="95.263672" xlink:href="#DejaVuSans-101"/>
       <use x="156.787109" xlink:href="#DejaVuSans-115"/>
       <use x="208.886719" xlink:href="#DejaVuSans-105"/>
       <use x="236.669922" xlink:href="#DejaVuSans-103"/>
       <use x="300.146484" xlink:href="#DejaVuSans-110"/>
      </g>
     </g>
    </g>
    <g id="text_3">
     <!-- Serum albumin (1n5u) -->
     <defs>
      <path d="M 53.515625 70.515625 
L 53.515625 60.890625 
Q 47.90625 63.578125 42.921875 64.890625 
Q 37.9375 66.21875 33.296875 66.21875 
Q 25.25 66.21875 20.875 63.09375 
Q 16.5 59.96875 16.5 54.203125 
Q 16.5 49.359375 19.40625 46.890625 
Q 22.3125 44.4375 30.421875 42.921875 
L 36.375 41.703125 
Q 47.40625 39.59375 52.65625 34.296875 
Q 57.90625 29 57.90625 20.125 
Q 57.90625 9.515625 50.796875 4.046875 
Q 43.703125 -1.421875 29.984375 -1.421875 
Q 24.8125 -1.421875 18.96875 -0.25 
Q 13.140625 0.921875 6.890625 3.21875 
L 6.890625 13.375 
Q 12.890625 10.015625 18.65625 8.296875 
Q 24.421875 6.59375 29.984375 6.59375 
Q 38.421875 6.59375 43.015625 9.90625 
Q 47.609375 13.234375 47.609375 19.390625 
Q 47.609375 24.75 44.3125 27.78125 
Q 41.015625 30.8125 33.5 32.328125 
L 27.484375 33.5 
Q 16.453125 35.6875 11.515625 40.375 
Q 6.59375 45.0625 6.59375 53.421875 
Q 6.59375 63.09375 13.40625 68.65625 
Q 20.21875 74.21875 32.171875 74.21875 
Q 37.3125 74.21875 42.625 73.28125 
Q 47.953125 72.359375 53.515625 70.515625 
z
" id="DejaVuSans-83"/>
      <path d="M 8.5 21.578125 
L 8.5 54.6875 
L 17.484375 54.6875 
L 17.484375 21.921875 
Q 17.484375 14.15625 20.5 10.265625 
Q 23.53125 6.390625 29.59375 6.390625 
Q 36.859375 6.390625 41.078125 11.03125 
Q 45.3125 15.671875 45.3125 23.6875 
L 45.3125 54.6875 
L 54.296875 54.6875 
L 54.296875 0 
L 45.3125 0 
L 45.3125 8.40625 
Q 42.046875 3.421875 37.71875 1 
Q 33.40625 -1.421875 27.6875 -1.421875 
Q 18.265625 -1.421875 13.375 4.4375 
Q 8.5 10.296875 8.5 21.578125 
z
M 31.109375 56 
z
" id="DejaVuSans-117"/>
      <path d="M 52 44.1875 
Q 55.375 50.25 60.0625 53.125 
Q 64.75 56 71.09375 56 
Q 79.640625 56 84.28125 50.015625 
Q 88.921875 44.046875 88.921875 33.015625 
L 88.921875 0 
L 79.890625 0 
L 79.890625 32.71875 
Q 79.890625 40.578125 77.09375 44.375 
Q 74.3125 48.1875 68.609375 48.1875 
Q 61.625 48.1875 57.5625 43.546875 
Q 53.515625 38.921875 53.515625 30.90625 
L 53.515625 0 
L 44.484375 0 
L 44.484375 32.71875 
Q 44.484375 40.625 41.703125 44.40625 
Q 38.921875 48.1875 33.109375 48.1875 
Q 26.21875 48.1875 22.15625 43.53125 
Q 18.109375 38.875 18.109375 30.90625 
L 18.109375 0 
L 9.078125 0 
L 9.078125 54.6875 
L 18.109375 54.6875 
L 18.109375 46.1875 
Q 21.1875 51.21875 25.484375 53.609375 
Q 29.78125 56 35.6875 56 
Q 41.65625 56 45.828125 52.96875 
Q 50 49.953125 52 44.1875 
z
" id="DejaVuSans-109"/>
      <path d="M 34.28125 27.484375 
Q 23.390625 27.484375 19.1875 25 
Q 14.984375 22.515625 14.984375 16.5 
Q 14.984375 11.71875 18.140625 8.90625 
Q 21.296875 6.109375 26.703125 6.109375 
Q 34.1875 6.109375 38.703125 11.40625 
Q 43.21875 16.703125 43.21875 25.484375 
L 43.21875 27.484375 
z
M 52.203125 31.203125 
L 52.203125 0 
L 43.21875 0 
L 43.21875 8.296875 
Q 40.140625 3.328125 35.546875 0.953125 
Q 30.953125 -1.421875 24.3125 -1.421875 
Q 15.921875 -1.421875 10.953125 3.296875 
Q 6 8.015625 6 15.921875 
Q 6 25.140625 12.171875 29.828125 
Q 18.359375 34.515625 30.609375 34.515625 
L 43.21875 34.515625 
L 43.21875 35.40625 
Q 43.21875 41.609375 39.140625 45 
Q 35.0625 48.390625 27.6875 48.390625 
Q 23 48.390625 18.546875 47.265625 
Q 14.109375 46.140625 10.015625 43.890625 
L 10.015625 52.203125 
Q 14.9375 54.109375 19.578125 55.046875 
Q 24.21875 56 28.609375 56 
Q 40.484375 56 46.34375 49.84375 
Q 52.203125 43.703125 52.203125 31.203125 
z
" id="DejaVuSans-97"/>
      <path d="M 9.421875 75.984375 
L 18.40625 75.984375 
L 18.40625 0 
L 9.421875 0 
z
" id="DejaVuSans-108"/>
      <path d="M 48.6875 27.296875 
Q 48.6875 37.203125 44.609375 42.84375 
Q 40.53125 48.484375 33.40625 48.484375 
Q 26.265625 48.484375 22.1875 42.84375 
Q 18.109375 37.203125 18.109375 27.296875 
Q 18.109375 17.390625 22.1875 11.75 
Q 26.265625 6.109375 33.40625 6.109375 
Q 40.53125 6.109375 44.609375 11.75 
Q 48.6875 17.390625 48.6875 27.296875 
z
M 18.109375 46.390625 
Q 20.953125 51.265625 25.265625 53.625 
Q 29.59375 56 35.59375 56 
Q 45.5625 56 51.78125 48.09375 
Q 58.015625 40.1875 58.015625 27.296875 
Q 58.015625 14.40625 51.78125 6.484375 
Q 45.5625 -1.421875 35.59375 -1.421875 
Q 29.59375 -1.421875 25.265625 0.953125 
Q 20.953125 3.328125 18.109375 8.203125 
L 18.109375 0 
L 9.078125 0 
L 9.078125 75.984375 
L 18.109375 75.984375 
z
" id="DejaVuSans-98"/>
      <path d="M 31 75.875 
Q 24.46875 64.65625 21.28125 53.65625 
Q 18.109375 42.671875 18.109375 31.390625 
Q 18.109375 20.125 21.3125 9.0625 
Q 24.515625 -2 31 -13.1875 
L 23.1875 -13.1875 
Q 15.875 -1.703125 12.234375 9.375 
Q 8.59375 20.453125 8.59375 31.390625 
Q 8.59375 42.28125 12.203125 53.3125 
Q 15.828125 64.359375 23.1875 75.875 
z
" id="DejaVuSans-40"/>
      <path d="M 12.40625 8.296875 
L 28.515625 8.296875 
L 28.515625 63.921875 
L 10.984375 60.40625 
L 10.984375 69.390625 
L 28.421875 72.90625 
L 38.28125 72.90625 
L 38.28125 8.296875 
L 54.390625 8.296875 
L 54.390625 0 
L 12.40625 0 
z
" id="DejaVuSans-49"/>
      <path d="M 10.796875 72.90625 
L 49.515625 72.90625 
L 49.515625 64.59375 
L 19.828125 64.59375 
L 19.828125 46.734375 
Q 21.96875 47.46875 24.109375 47.828125 
Q 26.265625 48.1875 28.421875 48.1875 
Q 40.625 48.1875 47.75 41.5 
Q 54.890625 34.8125 54.890625 23.390625 
Q 54.890625 11.625 47.5625 5.09375 
Q 40.234375 -1.421875 26.90625 -1.421875 
Q 22.3125 -1.421875 17.546875 -0.640625 
Q 12.796875 0.140625 7.71875 1.703125 
L 7.71875 11.625 
Q 12.109375 9.234375 16.796875 8.0625 
Q 21.484375 6.890625 26.703125 6.890625 
Q 35.15625 6.890625 40.078125 11.328125 
Q 45.015625 15.765625 45.015625 23.390625 
Q 45.015625 31 40.078125 35.4375 
Q 35.15625 39.890625 26.703125 39.890625 
Q 22.75 39.890625 18.8125 39.015625 
Q 14.890625 38.140625 10.796875 36.28125 
z
" id="DejaVuSans-53"/>
      <path d="M 8.015625 75.875 
L 15.828125 75.875 
Q 23.140625 64.359375 26.78125 53.3125 
Q 30.421875 42.28125 30.421875 31.390625 
Q 30.421875 20.453125 26.78125 9.375 
Q 23.140625 -1.703125 15.828125 -13.1875 
L 8.015625 -13.1875 
Q 14.5 -2 17.703125 9.0625 
Q 20.90625 20.125 20.90625 31.390625 
Q 20.90625 42.671875 17.703125 53.65625 
Q 14.5 64.65625 8.015625 75.875 
z
" id="DejaVuSans-41"/>
     </defs>
     <g transform="translate(127.211221 317.742994)scale(0.1 -0.1)">
      <use xlink:href="#DejaVuSans-83"/>
      <use x="63.476562" xlink:href="#DejaVuSans-101"/>
      <use x="125" xlink:href="#DejaVuSans-114"/>
      <use x="166.113281" xlink:href="#DejaVuSans-117"/>
      <use x="229.492188" xlink:href="#DejaVuSans-109"/>
      <use x="326.904297" xlink:href="#DejaVuSans-32"/>
      <use x="358.691406" xlink:href="#DejaVuSans-97"/>
      <use x="419.970703" xlink:href="#DejaVuSans-108"/>
      <use x="447.753906" xlink:href="#DejaVuSans-98"/>
      <use x="511.230469" xlink:href="#DejaVuSans-117"/>
      <use x="574.609375" xlink:href="#DejaVuSans-109"/>
      <use x="672.021484" xlink:href="#DejaVuSans-105"/>
      <use x="699.804688" xlink:href="#DejaVuSans-110"/>
      <use x="763.183594" xlink:href="#DejaVuSans-32"/>
      <use x="794.970703" xlink:href="#DejaVuSans-40"/>
      <use x="833.984375" xlink:href="#DejaVuSans-49"/>
      <use x="897.607422" xlink:href="#DejaVuSans-110"/>
      <use x="960.986328" xlink:href="#DejaVuSans-53"/>
      <use x="1024.609375" xlink:href="#DejaVuSans-117"/>
      <use x="1087.988281" xlink:href="#DejaVuSans-41"/>
     </g>
    </g>
   </g>
   <g id="matplotlib.axis_2">
    <g id="ytick_1">
     <g id="line2d_3">
      <path clip-path="url(#pd47e5bbdd8)" d="M 124.21978 239.318182 
L 242.901099 239.318182 
" style="fill:none;stroke:#b0b0b0;stroke-dasharray:0.8,1.32;stroke-dashoffset:0;stroke-width:0.8;"/>
     </g>
     <g id="text_4">
      <!-- 0.000 -->
      <defs>
       <path d="M 31.78125 66.40625 
Q 24.171875 66.40625 20.328125 58.90625 
Q 16.5 51.421875 16.5 36.375 
Q 16.5 21.390625 20.328125 13.890625 
Q 24.171875 6.390625 31.78125 6.390625 
Q 39.453125 6.390625 43.28125 13.890625 
Q 47.125 21.390625 47.125 36.375 
Q 47.125 51.421875 43.28125 58.90625 
Q 39.453125 66.40625 31.78125 66.40625 
z
M 31.78125 74.21875 
Q 44.046875 74.21875 50.515625 64.515625 
Q 56.984375 54.828125 56.984375 36.375 
Q 56.984375 17.96875 50.515625 8.265625 
Q 44.046875 -1.421875 31.78125 -1.421875 
Q 19.53125 -1.421875 13.0625 8.265625 
Q 6.59375 17.96875 6.59375 36.375 
Q 6.59375 54.828125 13.0625 64.515625 
Q 19.53125 74.21875 31.78125 74.21875 
z
" id="DejaVuSans-48"/>
       <path d="M 10.6875 12.40625 
L 21 12.40625 
L 21 0 
L 10.6875 0 
z
" id="DejaVuSans-46"/>
      </defs>
      <g transform="translate(88.591655 243.117401)scale(0.1 -0.1)">
       <use xlink:href="#DejaVuSans-48"/>
       <use x="63.623047" xlink:href="#DejaVuSans-46"/>
       <use x="95.410156" xlink:href="#DejaVuSans-48"/>
       <use x="159.033203" xlink:href="#DejaVuSans-48"/>
       <use x="222.65625" xlink:href="#DejaVuSans-48"/>
      </g>
     </g>
    </g>
    <g id="ytick_2">
     <g id="line2d_4">
      <path clip-path="url(#pd47e5bbdd8)" d="M 124.21978 217.04912 
L 242.901099 217.04912 
" style="fill:none;stroke:#b0b0b0;stroke-dasharray:0.8,1.32;stroke-dashoffset:0;stroke-width:0.8;"/>
     </g>
     <g id="text_5">
      <!-- 0.025 -->
      <defs>
       <path d="M 19.1875 8.296875 
L 53.609375 8.296875 
L 53.609375 0 
L 7.328125 0 
L 7.328125 8.296875 
Q 12.9375 14.109375 22.625 23.890625 
Q 32.328125 33.6875 34.8125 36.53125 
Q 39.546875 41.84375 41.421875 45.53125 
Q 43.3125 49.21875 43.3125 52.78125 
Q 43.3125 58.59375 39.234375 62.25 
Q 35.15625 65.921875 28.609375 65.921875 
Q 23.96875 65.921875 18.8125 64.3125 
Q 13.671875 62.703125 7.8125 59.421875 
L 7.8125 69.390625 
Q 13.765625 71.78125 18.9375 73 
Q 24.125 74.21875 28.421875 74.21875 
Q 39.75 74.21875 46.484375 68.546875 
Q 53.21875 62.890625 53.21875 53.421875 
Q 53.21875 48.921875 51.53125 44.890625 
Q 49.859375 40.875 45.40625 35.40625 
Q 44.1875 33.984375 37.640625 27.21875 
Q 31.109375 20.453125 19.1875 8.296875 
z
" id="DejaVuSans-50"/>
      </defs>
      <g transform="translate(88.591655 220.848339)scale(0.1 -0.1)">
       <use xlink:href="#DejaVuSans-48"/>
       <use x="63.623047" xlink:href="#DejaVuSans-46"/>
       <use x="95.410156" xlink:href="#DejaVuSans-48"/>
       <use x="159.033203" xlink:href="#DejaVuSans-50"/>
       <use x="222.65625" xlink:href="#DejaVuSans-53"/>
      </g>
     </g>
    </g>
    <g id="ytick_3">
     <g id="line2d_5">
      <path clip-path="url(#pd47e5bbdd8)" d="M 124.21978 194.780059 
L 242.901099 194.780059 
" style="fill:none;stroke:#b0b0b0;stroke-dasharray:0.8,1.32;stroke-dashoffset:0;stroke-width:0.8;"/>
     </g>
     <g id="text_6">
      <!-- 0.050 -->
      <g transform="translate(88.591655 198.579277)scale(0.1 -0.1)">
       <use xlink:href="#DejaVuSans-48"/>
       <use x="63.623047" xlink:href="#DejaVuSans-46"/>
       <use x="95.410156" xlink:href="#DejaVuSans-48"/>
       <use x="159.033203" xlink:href="#DejaVuSans-53"/>
       <use x="222.65625" xlink:href="#DejaVuSans-48"/>
      </g>
     </g>
    </g>
    <g id="ytick_4">
     <g id="line2d_6">
      <path clip-path="url(#pd47e5bbdd8)" d="M 124.21978 172.510997 
L 242.901099 172.510997 
" style="fill:none;stroke:#b0b0b0;stroke-dasharray:0.8,1.32;stroke-dashoffset:0;stroke-width:0.8;"/>
     </g>
     <g id="text_7">
      <!-- 0.075 -->
      <defs>
       <path d="M 8.203125 72.90625 
L 55.078125 72.90625 
L 55.078125 68.703125 
L 28.609375 0 
L 18.3125 0 
L 43.21875 64.59375 
L 8.203125 64.59375 
z
" id="DejaVuSans-55"/>
      </defs>
      <g transform="translate(88.591655 176.310216)scale(0.1 -0.1)">
       <use xlink:href="#DejaVuSans-48"/>
       <use x="63.623047" xlink:href="#DejaVuSans-46"/>
       <use x="95.410156" xlink:href="#DejaVuSans-48"/>
       <use x="159.033203" xlink:href="#DejaVuSans-55"/>
       <use x="222.65625" xlink:href="#DejaVuSans-53"/>
      </g>
     </g>
    </g>
    <g id="ytick_5">
     <g id="line2d_7">
      <path clip-path="url(#pd47e5bbdd8)" d="M 124.21978 150.241935 
L 242.901099 150.241935 
" style="fill:none;stroke:#b0b0b0;stroke-dasharray:0.8,1.32;stroke-dashoffset:0;stroke-width:0.8;"/>
     </g>
     <g id="text_8">
      <!-- 0.100 -->
      <g transform="translate(88.591655 154.041154)scale(0.1 -0.1)">
       <use xlink:href="#DejaVuSans-48"/>
       <use x="63.623047" xlink:href="#DejaVuSans-46"/>
       <use x="95.410156" xlink:href="#DejaVuSans-49"/>
       <use x="159.033203" xlink:href="#DejaVuSans-48"/>
       <use x="222.65625" xlink:href="#DejaVuSans-48"/>
      </g>
     </g>
    </g>
    <g id="ytick_6">
     <g id="line2d_8">
      <path clip-path="url(#pd47e5bbdd8)" d="M 124.21978 127.972874 
L 242.901099 127.972874 
" style="fill:none;stroke:#b0b0b0;stroke-dasharray:0.8,1.32;stroke-dashoffset:0;stroke-width:0.8;"/>
     </g>
     <g id="text_9">
      <!-- 0.125 -->
      <g transform="translate(88.591655 131.772093)scale(0.1 -0.1)">
       <use xlink:href="#DejaVuSans-48"/>
       <use x="63.623047" xlink:href="#DejaVuSans-46"/>
       <use x="95.410156" xlink:href="#DejaVuSans-49"/>
       <use x="159.033203" xlink:href="#DejaVuSans-50"/>
       <use x="222.65625" xlink:href="#DejaVuSans-53"/>
      </g>
     </g>
    </g>
    <g id="ytick_7">
     <g id="line2d_9">
      <path clip-path="url(#pd47e5bbdd8)" d="M 124.21978 105.703812 
L 242.901099 105.703812 
" style="fill:none;stroke:#b0b0b0;stroke-dasharray:0.8,1.32;stroke-dashoffset:0;stroke-width:0.8;"/>
     </g>
     <g id="text_10">
      <!-- 0.150 -->
      <g transform="translate(88.591655 109.503031)scale(0.1 -0.1)">
       <use xlink:href="#DejaVuSans-48"/>
       <use x="63.623047" xlink:href="#DejaVuSans-46"/>
       <use x="95.410156" xlink:href="#DejaVuSans-49"/>
       <use x="159.033203" xlink:href="#DejaVuSans-53"/>
       <use x="222.65625" xlink:href="#DejaVuSans-48"/>
      </g>
     </g>
    </g>
    <g id="ytick_8">
     <g id="line2d_10">
      <path clip-path="url(#pd47e5bbdd8)" d="M 124.21978 83.434751 
L 242.901099 83.434751 
" style="fill:none;stroke:#b0b0b0;stroke-dasharray:0.8,1.32;stroke-dashoffset:0;stroke-width:0.8;"/>
     </g>
     <g id="text_11">
      <!-- 0.175 -->
      <g transform="translate(88.591655 87.233969)scale(0.1 -0.1)">
       <use xlink:href="#DejaVuSans-48"/>
       <use x="63.623047" xlink:href="#DejaVuSans-46"/>
       <use x="95.410156" xlink:href="#DejaVuSans-49"/>
       <use x="159.033203" xlink:href="#DejaVuSans-55"/>
       <use x="222.65625" xlink:href="#DejaVuSans-53"/>
      </g>
     </g>
    </g>
    <g id="ytick_9">
     <g id="line2d_11">
      <path clip-path="url(#pd47e5bbdd8)" d="M 124.21978 61.165689 
L 242.901099 61.165689 
" style="fill:none;stroke:#b0b0b0;stroke-dasharray:0.8,1.32;stroke-dashoffset:0;stroke-width:0.8;"/>
     </g>
     <g id="text_12">
      <!-- 0.200 -->
      <g transform="translate(88.591655 64.964908)scale(0.1 -0.1)">
       <use xlink:href="#DejaVuSans-48"/>
       <use x="63.623047" xlink:href="#DejaVuSans-46"/>
       <use x="95.410156" xlink:href="#DejaVuSans-50"/>
       <use x="159.033203" xlink:href="#DejaVuSans-48"/>
       <use x="222.65625" xlink:href="#DejaVuSans-48"/>
      </g>
     </g>
    </g>
    <g id="text_13">
     <!-- Fraction -->
     <defs>
      <path d="M 9.8125 72.90625 
L 51.703125 72.90625 
L 51.703125 64.59375 
L 19.671875 64.59375 
L 19.671875 43.109375 
L 48.578125 43.109375 
L 48.578125 34.8125 
L 19.671875 34.8125 
L 19.671875 0 
L 9.8125 0 
z
" id="DejaVuSans-70"/>
      <path d="M 18.3125 70.21875 
L 18.3125 54.6875 
L 36.8125 54.6875 
L 36.8125 47.703125 
L 18.3125 47.703125 
L 18.3125 18.015625 
Q 18.3125 11.328125 20.140625 9.421875 
Q 21.96875 7.515625 27.59375 7.515625 
L 36.8125 7.515625 
L 36.8125 0 
L 27.59375 0 
Q 17.1875 0 13.234375 3.875 
Q 9.28125 7.765625 9.28125 18.015625 
L 9.28125 47.703125 
L 2.6875 47.703125 
L 2.6875 54.6875 
L 9.28125 54.6875 
L 9.28125 70.21875 
z
" id="DejaVuSans-116"/>
      <path d="M 30.609375 48.390625 
Q 23.390625 48.390625 19.1875 42.75 
Q 14.984375 37.109375 14.984375 27.296875 
Q 14.984375 17.484375 19.15625 11.84375 
Q 23.34375 6.203125 30.609375 6.203125 
Q 37.796875 6.203125 41.984375 11.859375 
Q 46.1875 17.53125 46.1875 27.296875 
Q 46.1875 37.015625 41.984375 42.703125 
Q 37.796875 48.390625 30.609375 48.390625 
z
M 30.609375 56 
Q 42.328125 56 49.015625 48.375 
Q 55.71875 40.765625 55.71875 27.296875 
Q 55.71875 13.875 49.015625 6.21875 
Q 42.328125 -1.421875 30.609375 -1.421875 
Q 18.84375 -1.421875 12.171875 6.21875 
Q 5.515625 13.875 5.515625 27.296875 
Q 5.515625 40.765625 12.171875 48.375 
Q 18.84375 56 30.609375 56 
z
" id="DejaVuSans-111"/>
     </defs>
     <g transform="translate(82.511968 170.20131)rotate(-90)scale(0.1 -0.1)">
      <use xlink:href="#DejaVuSans-70"/>
      <use x="50.269531" xlink:href="#DejaVuSans-114"/>
      <use x="91.382812" xlink:href="#DejaVuSans-97"/>
      <use x="152.662109" xlink:href="#DejaVuSans-99"/>
      <use x="207.642578" xlink:href="#DejaVuSans-116"/>
      <use x="246.851562" xlink:href="#DejaVuSans-105"/>
      <use x="274.634766" xlink:href="#DejaVuSans-111"/>
      <use x="335.816406" xlink:href="#DejaVuSans-110"/>
     </g>
    </g>
   </g>
   <g id="LineCollection_1">
    <path clip-path="url(#pd47e5bbdd8)" d="M 153.89011 75.191896 
L 153.89011 62.579365 
" style="fill:none;stroke:#e6550d;stroke-opacity:0.8;stroke-width:2;"/>
    <path clip-path="url(#pd47e5bbdd8)" d="M 213.230769 77.230255 
L 213.230769 68.023411 
" style="fill:none;stroke:#e6550d;stroke-opacity:0.8;stroke-width:2;"/>
   </g>
   <g id="LineCollection_2">
    <path clip-path="url(#pd47e5bbdd8)" d="M 153.89011 146.127023 
L 153.89011 144.320924 
" style="fill:none;stroke:#fd8d3c;stroke-opacity:0.8;stroke-width:2;"/>
    <path clip-path="url(#pd47e5bbdd8)" d="M 213.230769 142.822734 
L 213.230769 136.817295 
" style="fill:none;stroke:#fd8d3c;stroke-opacity:0.8;stroke-width:2;"/>
   </g>
   <g id="LineCollection_3">
    <path clip-path="url(#pd47e5bbdd8)" d="M 153.89011 232.127414 
L 153.89011 226.793407 
" style="fill:none;stroke:#3182bd;stroke-opacity:0.8;stroke-width:2;"/>
    <path clip-path="url(#pd47e5bbdd8)" d="M 213.230769 239.318182 
L 213.230769 232.489003 
" style="fill:none;stroke:#3182bd;stroke-opacity:0.8;stroke-width:2;"/>
   </g>
   <g id="LineCollection_4">
    <path clip-path="url(#pd47e5bbdd8)" d="M 153.89011 201.591285 
L 153.89011 186.484229 
" style="fill:none;stroke:#6baed6;stroke-opacity:0.8;stroke-width:2;"/>
    <path clip-path="url(#pd47e5bbdd8)" d="M 213.230769 186.505496 
L 213.230769 180.666791 
" style="fill:none;stroke:#6baed6;stroke-opacity:0.8;stroke-width:2;"/>
   </g>
   <g id="LineCollection_5">
    <path clip-path="url(#pd47e5bbdd8)" d="M 153.89011 168.846882 
L 153.89011 143.929511 
" style="fill:none;stroke:#9ecae1;stroke-opacity:0.8;stroke-width:2;"/>
    <path clip-path="url(#pd47e5bbdd8)" d="M 213.230769 169.889568 
L 213.230769 162.246062 
" style="fill:none;stroke:#9ecae1;stroke-opacity:0.8;stroke-width:2;"/>
   </g>
   <g id="LineCollection_6">
    <path clip-path="url(#pd47e5bbdd8)" d="M 153.89011 210.326494 
L 153.89011 200.018081 
" style="fill:none;stroke:#756bb1;stroke-opacity:0.8;stroke-width:2;"/>
    <path clip-path="url(#pd47e5bbdd8)" d="M 213.230769 200.793927 
L 213.230769 193.754461 
" style="fill:none;stroke:#756bb1;stroke-opacity:0.8;stroke-width:2;"/>
   </g>
   <g id="LineCollection_7">
    <path clip-path="url(#pd47e5bbdd8)" d="M 153.89011 125.798844 
L 153.89011 114.291332 
" style="fill:none;stroke:#31a354;stroke-opacity:0.8;stroke-width:2;"/>
    <path clip-path="url(#pd47e5bbdd8)" d="M 213.230769 125.06305 
L 213.230769 122.984604 
" style="fill:none;stroke:#31a354;stroke-opacity:0.8;stroke-width:2;"/>
   </g>
   <g id="line2d_12">
    <defs>
     <path d="M 3 0 
L -3 -0 
" id="mb83b39c14a" style="stroke:#e6550d;stroke-opacity:0.8;"/>
    </defs>
    <g clip-path="url(#pd47e5bbdd8)">
     <use style="fill:#e6550d;fill-opacity:0.8;stroke:#e6550d;stroke-opacity:0.8;" x="153.89011" xlink:href="#mb83b39c14a" y="75.191896"/>
     <use style="fill:#e6550d;fill-opacity:0.8;stroke:#e6550d;stroke-opacity:0.8;" x="213.230769" xlink:href="#mb83b39c14a" y="77.230255"/>
    </g>
   </g>
   <g id="line2d_13">
    <g clip-path="url(#pd47e5bbdd8)">
     <use style="fill:#e6550d;fill-opacity:0.8;stroke:#e6550d;stroke-opacity:0.8;" x="153.89011" xlink:href="#mb83b39c14a" y="62.579365"/>
     <use style="fill:#e6550d;fill-opacity:0.8;stroke:#e6550d;stroke-opacity:0.8;" x="213.230769" xlink:href="#mb83b39c14a" y="68.023411"/>
    </g>
   </g>
   <g id="line2d_14">
    <defs>
     <path d="M 3 0 
L -3 -0 
" id="mdfb092f779" style="stroke:#fd8d3c;stroke-opacity:0.8;"/>
    </defs>
    <g clip-path="url(#pd47e5bbdd8)">
     <use style="fill:#fd8d3c;fill-opacity:0.8;stroke:#fd8d3c;stroke-opacity:0.8;" x="153.89011" xlink:href="#mdfb092f779" y="146.127023"/>
     <use style="fill:#fd8d3c;fill-opacity:0.8;stroke:#fd8d3c;stroke-opacity:0.8;" x="213.230769" xlink:href="#mdfb092f779" y="142.822734"/>
    </g>
   </g>
   <g id="line2d_15">
    <g clip-path="url(#pd47e5bbdd8)">
     <use style="fill:#fd8d3c;fill-opacity:0.8;stroke:#fd8d3c;stroke-opacity:0.8;" x="153.89011" xlink:href="#mdfb092f779" y="144.320924"/>
     <use style="fill:#fd8d3c;fill-opacity:0.8;stroke:#fd8d3c;stroke-opacity:0.8;" x="213.230769" xlink:href="#mdfb092f779" y="136.817295"/>
    </g>
   </g>
   <g id="line2d_16">
    <defs>
     <path d="M 3 0 
L -3 -0 
" id="mbfc25997ed" style="stroke:#3182bd;stroke-opacity:0.8;"/>
    </defs>
    <g clip-path="url(#pd47e5bbdd8)">
     <use style="fill:#3182bd;fill-opacity:0.8;stroke:#3182bd;stroke-opacity:0.8;" x="153.89011" xlink:href="#mbfc25997ed" y="232.127414"/>
     <use style="fill:#3182bd;fill-opacity:0.8;stroke:#3182bd;stroke-opacity:0.8;" x="213.230769" xlink:href="#mbfc25997ed" y="239.318182"/>
    </g>
   </g>
   <g id="line2d_17">
    <g clip-path="url(#pd47e5bbdd8)">
     <use style="fill:#3182bd;fill-opacity:0.8;stroke:#3182bd;stroke-opacity:0.8;" x="153.89011" xlink:href="#mbfc25997ed" y="226.793407"/>
     <use style="fill:#3182bd;fill-opacity:0.8;stroke:#3182bd;stroke-opacity:0.8;" x="213.230769" xlink:href="#mbfc25997ed" y="232.489003"/>
    </g>
   </g>
   <g id="line2d_18">
    <defs>
     <path d="M 3 0 
L -3 -0 
" id="m5e67f300bb" style="stroke:#6baed6;stroke-opacity:0.8;"/>
    </defs>
    <g clip-path="url(#pd47e5bbdd8)">
     <use style="fill:#6baed6;fill-opacity:0.8;stroke:#6baed6;stroke-opacity:0.8;" x="153.89011" xlink:href="#m5e67f300bb" y="201.591285"/>
     <use style="fill:#6baed6;fill-opacity:0.8;stroke:#6baed6;stroke-opacity:0.8;" x="213.230769" xlink:href="#m5e67f300bb" y="186.505496"/>
    </g>
   </g>
   <g id="line2d_19">
    <g clip-path="url(#pd47e5bbdd8)">
     <use style="fill:#6baed6;fill-opacity:0.8;stroke:#6baed6;stroke-opacity:0.8;" x="153.89011" xlink:href="#m5e67f300bb" y="186.484229"/>
     <use style="fill:#6baed6;fill-opacity:0.8;stroke:#6baed6;stroke-opacity:0.8;" x="213.230769" xlink:href="#m5e67f300bb" y="180.666791"/>
    </g>
   </g>
   <g id="line2d_20">
    <defs>
     <path d="M 3 0 
L -3 -0 
" id="m7d855e755a" style="stroke:#9ecae1;stroke-opacity:0.8;"/>
    </defs>
    <g clip-path="url(#pd47e5bbdd8)">
     <use style="fill:#9ecae1;fill-opacity:0.8;stroke:#9ecae1;stroke-opacity:0.8;" x="153.89011" xlink:href="#m7d855e755a" y="168.846882"/>
     <use style="fill:#9ecae1;fill-opacity:0.8;stroke:#9ecae1;stroke-opacity:0.8;" x="213.230769" xlink:href="#m7d855e755a" y="169.889568"/>
    </g>
   </g>
   <g id="line2d_21">
    <g clip-path="url(#pd47e5bbdd8)">
     <use style="fill:#9ecae1;fill-opacity:0.8;stroke:#9ecae1;stroke-opacity:0.8;" x="153.89011" xlink:href="#m7d855e755a" y="143.929511"/>
     <use style="fill:#9ecae1;fill-opacity:0.8;stroke:#9ecae1;stroke-opacity:0.8;" x="213.230769" xlink:href="#m7d855e755a" y="162.246062"/>
    </g>
   </g>
   <g id="line2d_22">
    <defs>
     <path d="M 3 0 
L -3 -0 
" id="m39c704def3" style="stroke:#756bb1;stroke-opacity:0.8;"/>
    </defs>
    <g clip-path="url(#pd47e5bbdd8)">
     <use style="fill:#756bb1;fill-opacity:0.8;stroke:#756bb1;stroke-opacity:0.8;" x="153.89011" xlink:href="#m39c704def3" y="210.326494"/>
     <use style="fill:#756bb1;fill-opacity:0.8;stroke:#756bb1;stroke-opacity:0.8;" x="213.230769" xlink:href="#m39c704def3" y="200.793927"/>
    </g>
   </g>
   <g id="line2d_23">
    <g clip-path="url(#pd47e5bbdd8)">
     <use style="fill:#756bb1;fill-opacity:0.8;stroke:#756bb1;stroke-opacity:0.8;" x="153.89011" xlink:href="#m39c704def3" y="200.018081"/>
     <use style="fill:#756bb1;fill-opacity:0.8;stroke:#756bb1;stroke-opacity:0.8;" x="213.230769" xlink:href="#m39c704def3" y="193.754461"/>
    </g>
   </g>
   <g id="line2d_24">
    <defs>
     <path d="M 3 0 
L -3 -0 
" id="m2963a2f161" style="stroke:#31a354;stroke-opacity:0.8;"/>
    </defs>
    <g clip-path="url(#pd47e5bbdd8)">
     <use style="fill:#31a354;fill-opacity:0.8;stroke:#31a354;stroke-opacity:0.8;" x="153.89011" xlink:href="#m2963a2f161" y="125.798844"/>
     <use style="fill:#31a354;fill-opacity:0.8;stroke:#31a354;stroke-opacity:0.8;" x="213.230769" xlink:href="#m2963a2f161" y="125.06305"/>
    </g>
   </g>
   <g id="line2d_25">
    <g clip-path="url(#pd47e5bbdd8)">
     <use style="fill:#31a354;fill-opacity:0.8;stroke:#31a354;stroke-opacity:0.8;" x="153.89011" xlink:href="#m2963a2f161" y="114.291332"/>
     <use style="fill:#31a354;fill-opacity:0.8;stroke:#31a354;stroke-opacity:0.8;" x="213.230769" xlink:href="#m2963a2f161" y="122.984604"/>
    </g>
   </g>
   <g id="line2d_26">
    <path clip-path="url(#pd47e5bbdd8)" d="M 153.89011 68.88563 
L 213.230769 72.626833 
" style="fill:none;stroke:#e6550d;stroke-linecap:square;stroke-opacity:0.8;"/>
    <defs>
     <path d="M 0 2.5 
C 0.663008 2.5 1.29895 2.236584 1.767767 1.767767 
C 2.236584 1.29895 2.5 0.663008 2.5 0 
C 2.5 -0.663008 2.236584 -1.29895 1.767767 -1.767767 
C 1.29895 -2.236584 0.663008 -2.5 0 -2.5 
C -0.663008 -2.5 -1.29895 -2.236584 -1.767767 -1.767767 
C -2.236584 -1.29895 -2.5 -0.663008 -2.5 0 
C -2.5 0.663008 -2.236584 1.29895 -1.767767 1.767767 
C -1.29895 2.236584 -0.663008 2.5 0 2.5 
z
" id="mda14a7b57c" style="stroke:#e6550d;stroke-opacity:0.8;"/>
    </defs>
    <g clip-path="url(#pd47e5bbdd8)">
     <use style="fill:#e6550d;fill-opacity:0.8;stroke:#e6550d;stroke-opacity:0.8;" x="153.89011" xlink:href="#mda14a7b57c" y="68.88563"/>
     <use style="fill:#e6550d;fill-opacity:0.8;stroke:#e6550d;stroke-opacity:0.8;" x="213.230769" xlink:href="#mda14a7b57c" y="72.626833"/>
    </g>
   </g>
   <g id="line2d_27">
    <path clip-path="url(#pd47e5bbdd8)" d="M 153.89011 145.223974 
L 213.230769 139.820015 
" style="fill:none;stroke:#fd8d3c;stroke-linecap:square;stroke-opacity:0.8;"/>
    <defs>
     <path d="M 0 2.5 
C 0.663008 2.5 1.29895 2.236584 1.767767 1.767767 
C 2.236584 1.29895 2.5 0.663008 2.5 0 
C 2.5 -0.663008 2.236584 -1.29895 1.767767 -1.767767 
C 1.29895 -2.236584 0.663008 -2.5 0 -2.5 
C -0.663008 -2.5 -1.29895 -2.236584 -1.767767 -1.767767 
C -2.236584 -1.29895 -2.5 -0.663008 -2.5 0 
C -2.5 0.663008 -2.236584 1.29895 -1.767767 1.767767 
C -1.29895 2.236584 -0.663008 2.5 0 2.5 
z
" id="mb459e1bb6a" style="stroke:#fd8d3c;stroke-opacity:0.8;"/>
    </defs>
    <g clip-path="url(#pd47e5bbdd8)">
     <use style="fill:#fd8d3c;fill-opacity:0.8;stroke:#fd8d3c;stroke-opacity:0.8;" x="153.89011" xlink:href="#mb459e1bb6a" y="145.223974"/>
     <use style="fill:#fd8d3c;fill-opacity:0.8;stroke:#fd8d3c;stroke-opacity:0.8;" x="213.230769" xlink:href="#mb459e1bb6a" y="139.820015"/>
    </g>
   </g>
   <g id="line2d_28">
    <path clip-path="url(#pd47e5bbdd8)" d="M 153.89011 229.460411 
L 213.230769 235.903592 
" style="fill:none;stroke:#3182bd;stroke-linecap:square;stroke-opacity:0.8;"/>
    <defs>
     <path d="M 0 2.5 
C 0.663008 2.5 1.29895 2.236584 1.767767 1.767767 
C 2.236584 1.29895 2.5 0.663008 2.5 0 
C 2.5 -0.663008 2.236584 -1.29895 1.767767 -1.767767 
C 1.29895 -2.236584 0.663008 -2.5 0 -2.5 
C -0.663008 -2.5 -1.29895 -2.236584 -1.767767 -1.767767 
C -2.236584 -1.29895 -2.5 -0.663008 -2.5 0 
C -2.5 0.663008 -2.236584 1.29895 -1.767767 1.767767 
C -1.29895 2.236584 -0.663008 2.5 0 2.5 
z
" id="m451d0535db" style="stroke:#3182bd;stroke-opacity:0.8;"/>
    </defs>
    <g clip-path="url(#pd47e5bbdd8)">
     <use style="fill:#3182bd;fill-opacity:0.8;stroke:#3182bd;stroke-opacity:0.8;" x="153.89011" xlink:href="#m451d0535db" y="229.460411"/>
     <use style="fill:#3182bd;fill-opacity:0.8;stroke:#3182bd;stroke-opacity:0.8;" x="213.230769" xlink:href="#m451d0535db" y="235.903592"/>
    </g>
   </g>
   <g id="line2d_29">
    <path clip-path="url(#pd47e5bbdd8)" d="M 153.89011 194.037757 
L 213.230769 183.586144 
" style="fill:none;stroke:#6baed6;stroke-linecap:square;stroke-opacity:0.8;"/>
    <defs>
     <path d="M 0 2.5 
C 0.663008 2.5 1.29895 2.236584 1.767767 1.767767 
C 2.236584 1.29895 2.5 0.663008 2.5 0 
C 2.5 -0.663008 2.236584 -1.29895 1.767767 -1.767767 
C 1.29895 -2.236584 0.663008 -2.5 0 -2.5 
C -0.663008 -2.5 -1.29895 -2.236584 -1.767767 -1.767767 
C -2.236584 -1.29895 -2.5 -0.663008 -2.5 0 
C -2.5 0.663008 -2.236584 1.29895 -1.767767 1.767767 
C -1.29895 2.236584 -0.663008 2.5 0 2.5 
z
" id="ma0d0369ba6" style="stroke:#6baed6;stroke-opacity:0.8;"/>
    </defs>
    <g clip-path="url(#pd47e5bbdd8)">
     <use style="fill:#6baed6;fill-opacity:0.8;stroke:#6baed6;stroke-opacity:0.8;" x="153.89011" xlink:href="#ma0d0369ba6" y="194.037757"/>
     <use style="fill:#6baed6;fill-opacity:0.8;stroke:#6baed6;stroke-opacity:0.8;" x="213.230769" xlink:href="#ma0d0369ba6" y="183.586144"/>
    </g>
   </g>
   <g id="line2d_30">
    <path clip-path="url(#pd47e5bbdd8)" d="M 153.89011 156.388196 
L 213.230769 166.067815 
" style="fill:none;stroke:#9ecae1;stroke-linecap:square;stroke-opacity:0.8;"/>
    <defs>
     <path d="M 0 2.5 
C 0.663008 2.5 1.29895 2.236584 1.767767 1.767767 
C 2.236584 1.29895 2.5 0.663008 2.5 0 
C 2.5 -0.663008 2.236584 -1.29895 1.767767 -1.767767 
C 1.29895 -2.236584 0.663008 -2.5 0 -2.5 
C -0.663008 -2.5 -1.29895 -2.236584 -1.767767 -1.767767 
C -2.236584 -1.29895 -2.5 -0.663008 -2.5 0 
C -2.5 0.663008 -2.236584 1.29895 -1.767767 1.767767 
C -1.29895 2.236584 -0.663008 2.5 0 2.5 
z
" id="mbe73de25f9" style="stroke:#9ecae1;stroke-opacity:0.8;"/>
    </defs>
    <g clip-path="url(#pd47e5bbdd8)">
     <use style="fill:#9ecae1;fill-opacity:0.8;stroke:#9ecae1;stroke-opacity:0.8;" x="153.89011" xlink:href="#mbe73de25f9" y="156.388196"/>
     <use style="fill:#9ecae1;fill-opacity:0.8;stroke:#9ecae1;stroke-opacity:0.8;" x="213.230769" xlink:href="#mbe73de25f9" y="166.067815"/>
    </g>
   </g>
   <g id="line2d_31">
    <path clip-path="url(#pd47e5bbdd8)" d="M 153.89011 205.172287 
L 213.230769 197.274194 
" style="fill:none;stroke:#756bb1;stroke-linecap:square;stroke-opacity:0.8;"/>
    <defs>
     <path d="M 0 2.5 
C 0.663008 2.5 1.29895 2.236584 1.767767 1.767767 
C 2.236584 1.29895 2.5 0.663008 2.5 0 
C 2.5 -0.663008 2.236584 -1.29895 1.767767 -1.767767 
C 1.29895 -2.236584 0.663008 -2.5 0 -2.5 
C -0.663008 -2.5 -1.29895 -2.236584 -1.767767 -1.767767 
C -2.236584 -1.29895 -2.5 -0.663008 -2.5 0 
C -2.5 0.663008 -2.236584 1.29895 -1.767767 1.767767 
C -1.29895 2.236584 -0.663008 2.5 0 2.5 
z
" id="m0c878b954a" style="stroke:#756bb1;stroke-opacity:0.8;"/>
    </defs>
    <g clip-path="url(#pd47e5bbdd8)">
     <use style="fill:#756bb1;fill-opacity:0.8;stroke:#756bb1;stroke-opacity:0.8;" x="153.89011" xlink:href="#m0c878b954a" y="205.172287"/>
     <use style="fill:#756bb1;fill-opacity:0.8;stroke:#756bb1;stroke-opacity:0.8;" x="213.230769" xlink:href="#m0c878b954a" y="197.274194"/>
    </g>
   </g>
   <g id="line2d_32">
    <path clip-path="url(#pd47e5bbdd8)" d="M 153.89011 120.045088 
L 213.230769 124.023827 
" style="fill:none;stroke:#31a354;stroke-linecap:square;stroke-opacity:0.8;"/>
    <defs>
     <path d="M 0 2.5 
C 0.663008 2.5 1.29895 2.236584 1.767767 1.767767 
C 2.236584 1.29895 2.5 0.663008 2.5 0 
C 2.5 -0.663008 2.236584 -1.29895 1.767767 -1.767767 
C 1.29895 -2.236584 0.663008 -2.5 0 -2.5 
C -0.663008 -2.5 -1.29895 -2.236584 -1.767767 -1.767767 
C -2.236584 -1.29895 -2.5 -0.663008 -2.5 0 
C -2.5 0.663008 -2.236584 1.29895 -1.767767 1.767767 
C -1.29895 2.236584 -0.663008 2.5 0 2.5 
z
" id="m3be4e9754f" style="stroke:#31a354;stroke-opacity:0.8;"/>
    </defs>
    <g clip-path="url(#pd47e5bbdd8)">
     <use style="fill:#31a354;fill-opacity:0.8;stroke:#31a354;stroke-opacity:0.8;" x="153.89011" xlink:href="#m3be4e9754f" y="120.045088"/>
     <use style="fill:#31a354;fill-opacity:0.8;stroke:#31a354;stroke-opacity:0.8;" x="213.230769" xlink:href="#m3be4e9754f" y="124.023827"/>
    </g>
   </g>
   <g id="patch_3">
    <path d="M 124.21978 248.225806 
L 242.901099 248.225806 
" style="fill:none;stroke:#000000;stroke-linecap:square;stroke-linejoin:miter;stroke-width:0.8;"/>
   </g>
   <g id="legend_1">
    <g id="patch_4">
     <path d="M 7.814844 43.256754 
L 568.185156 43.256754 
Q 570.185156 43.256754 570.185156 41.256754 
L 570.185156 5.775504 
Q 570.185156 3.775504 568.185156 3.775504 
L 7.814844 3.775504 
Q 5.814844 3.775504 5.814844 5.775504 
L 5.814844 41.256754 
Q 5.814844 43.256754 7.814844 43.256754 
z
" style="fill:#ffffff;opacity:0.8;stroke:#cccccc;stroke-linejoin:miter;"/>
    </g>
    <g id="LineCollection_8">
     <path d="M 19.814844 16.936442 
L 19.814844 6.936442 
" style="fill:none;stroke:#e6550d;stroke-opacity:0.8;stroke-width:2;"/>
    </g>
    <g id="line2d_33">
     <g>
      <use style="fill:#e6550d;fill-opacity:0.8;stroke:#e6550d;stroke-opacity:0.8;" x="19.814844" xlink:href="#mb83b39c14a" y="16.936442"/>
     </g>
    </g>
    <g id="line2d_34">
     <g>
      <use style="fill:#e6550d;fill-opacity:0.8;stroke:#e6550d;stroke-opacity:0.8;" x="19.814844" xlink:href="#mb83b39c14a" y="6.936442"/>
     </g>
    </g>
    <g id="line2d_35">
     <path d="M 9.814844 11.936442 
L 29.814844 11.936442 
" style="fill:none;stroke:#e6550d;stroke-linecap:square;stroke-opacity:0.8;"/>
    </g>
    <g id="line2d_36">
     <g>
      <use style="fill:#e6550d;fill-opacity:0.8;stroke:#e6550d;stroke-opacity:0.8;" x="19.814844" xlink:href="#mda14a7b57c" y="11.936442"/>
     </g>
    </g>
    <g id="text_14">
     <!-- Regular α-helix -->
     <defs>
      <path d="M 44.390625 34.1875 
Q 47.5625 33.109375 50.5625 29.59375 
Q 53.5625 26.078125 56.59375 19.921875 
L 66.609375 0 
L 56 0 
L 46.6875 18.703125 
Q 43.0625 26.03125 39.671875 28.421875 
Q 36.28125 30.8125 30.421875 30.8125 
L 19.671875 30.8125 
L 19.671875 0 
L 9.8125 0 
L 9.8125 72.90625 
L 32.078125 72.90625 
Q 44.578125 72.90625 50.734375 67.671875 
Q 56.890625 62.453125 56.890625 51.90625 
Q 56.890625 45.015625 53.6875 40.46875 
Q 50.484375 35.9375 44.390625 34.1875 
z
M 19.671875 64.796875 
L 19.671875 38.921875 
L 32.078125 38.921875 
Q 39.203125 38.921875 42.84375 42.21875 
Q 46.484375 45.515625 46.484375 51.90625 
Q 46.484375 58.296875 42.84375 61.546875 
Q 39.203125 64.796875 32.078125 64.796875 
z
" id="DejaVuSans-82"/>
      <path d="M 41.3125 25.4375 
L 39.15625 36.71875 
Q 36.96875 48.296875 28.265625 48.296875 
Q 21.734375 48.296875 18.75 42.921875 
Q 14.984375 36.1875 14.984375 27.296875 
Q 14.984375 16.546875 18.65625 11.421875 
Q 22.359375 6.203125 28.265625 6.203125 
Q 34.8125 6.203125 38.328125 16.609375 
z
M 46.34375 40.375 
L 51.171875 54.6875 
L 59.1875 54.6875 
L 49.171875 25.046875 
L 51.125 14.359375 
Q 51.5625 11.96875 53.265625 9.96875 
Q 55.28125 7.625 56.84375 7.625 
L 61.140625 7.625 
L 61.140625 0 
L 55.765625 0 
Q 51.171875 0 47.078125 4.109375 
Q 45.0625 6.15625 44.234375 10.453125 
Q 42 5.03125 37.40625 0.78125 
Q 35.25 -1.21875 28.265625 -1.21875 
Q 16.796875 -1.21875 11.234375 6.203125 
Q 5.515625 13.875 5.515625 27.296875 
Q 5.515625 41.65625 11.71875 48.390625 
Q 18.609375 55.90625 28.265625 55.90625 
Q 43.453125 55.90625 46.34375 40.375 
z
" id="DejaVuSans-945"/>
      <path d="M 4.890625 31.390625 
L 31.203125 31.390625 
L 31.203125 23.390625 
L 4.890625 23.390625 
z
" id="DejaVuSans-45"/>
      <path d="M 54.890625 33.015625 
L 54.890625 0 
L 45.90625 0 
L 45.90625 32.71875 
Q 45.90625 40.484375 42.875 44.328125 
Q 39.84375 48.1875 33.796875 48.1875 
Q 26.515625 48.1875 22.3125 43.546875 
Q 18.109375 38.921875 18.109375 30.90625 
L 18.109375 0 
L 9.078125 0 
L 9.078125 75.984375 
L 18.109375 75.984375 
L 18.109375 46.1875 
Q 21.34375 51.125 25.703125 53.5625 
Q 30.078125 56 35.796875 56 
Q 45.21875 56 50.046875 50.171875 
Q 54.890625 44.34375 54.890625 33.015625 
z
" id="DejaVuSans-104"/>
      <path d="M 54.890625 54.6875 
L 35.109375 28.078125 
L 55.90625 0 
L 45.3125 0 
L 29.390625 21.484375 
L 13.484375 0 
L 2.875 0 
L 24.125 28.609375 
L 4.6875 54.6875 
L 15.28125 54.6875 
L 29.78125 35.203125 
L 44.28125 54.6875 
z
" id="DejaVuSans-120"/>
     </defs>
     <g transform="translate(37.814844 15.436442)scale(0.1 -0.1)">
      <use xlink:href="#DejaVuSans-82"/>
      <use x="64.982422" xlink:href="#DejaVuSans-101"/>
      <use x="126.505859" xlink:href="#DejaVuSans-103"/>
      <use x="189.982422" xlink:href="#DejaVuSans-117"/>
      <use x="253.361328" xlink:href="#DejaVuSans-108"/>
      <use x="281.144531" xlink:href="#DejaVuSans-97"/>
      <use x="342.423828" xlink:href="#DejaVuSans-114"/>
      <use x="383.537109" xlink:href="#DejaVuSans-32"/>
      <use x="415.324219" xlink:href="#DejaVuSans-945"/>
      <use x="481.242188" xlink:href="#DejaVuSans-45"/>
      <use x="517.326172" xlink:href="#DejaVuSans-104"/>
      <use x="580.705078" xlink:href="#DejaVuSans-101"/>
      <use x="642.228516" xlink:href="#DejaVuSans-108"/>
      <use x="670.011719" xlink:href="#DejaVuSans-105"/>
      <use x="697.794922" xlink:href="#DejaVuSans-120"/>
     </g>
    </g>
    <g id="LineCollection_9">
     <path d="M 19.814844 38.614567 
L 19.814844 28.614567 
" style="fill:none;stroke:#fd8d3c;stroke-opacity:0.8;stroke-width:2;"/>
    </g>
    <g id="line2d_37">
     <g>
      <use style="fill:#fd8d3c;fill-opacity:0.8;stroke:#fd8d3c;stroke-opacity:0.8;" x="19.814844" xlink:href="#mdfb092f779" y="38.614567"/>
     </g>
    </g>
    <g id="line2d_38">
     <g>
      <use style="fill:#fd8d3c;fill-opacity:0.8;stroke:#fd8d3c;stroke-opacity:0.8;" x="19.814844" xlink:href="#mdfb092f779" y="28.614567"/>
     </g>
    </g>
    <g id="line2d_39">
     <path d="M 9.814844 33.614567 
L 29.814844 33.614567 
" style="fill:none;stroke:#fd8d3c;stroke-linecap:square;stroke-opacity:0.8;"/>
    </g>
    <g id="line2d_40">
     <g>
      <use style="fill:#fd8d3c;fill-opacity:0.8;stroke:#fd8d3c;stroke-opacity:0.8;" x="19.814844" xlink:href="#mb459e1bb6a" y="33.614567"/>
     </g>
    </g>
    <g id="text_15">
     <!-- Distorted α-helix -->
     <defs>
      <path d="M 19.671875 64.796875 
L 19.671875 8.109375 
L 31.59375 8.109375 
Q 46.6875 8.109375 53.6875 14.9375 
Q 60.6875 21.78125 60.6875 36.53125 
Q 60.6875 51.171875 53.6875 57.984375 
Q 46.6875 64.796875 31.59375 64.796875 
z
M 9.8125 72.90625 
L 30.078125 72.90625 
Q 51.265625 72.90625 61.171875 64.09375 
Q 71.09375 55.28125 71.09375 36.53125 
Q 71.09375 17.671875 61.125 8.828125 
Q 51.171875 0 30.078125 0 
L 9.8125 0 
z
" id="DejaVuSans-68"/>
     </defs>
     <g transform="translate(37.814844 37.114567)scale(0.1 -0.1)">
      <use xlink:href="#DejaVuSans-68"/>
      <use x="77.001953" xlink:href="#DejaVuSans-105"/>
      <use x="104.785156" xlink:href="#DejaVuSans-115"/>
      <use x="156.884766" xlink:href="#DejaVuSans-116"/>
      <use x="196.09375" xlink:href="#DejaVuSans-111"/>
      <use x="257.275391" xlink:href="#DejaVuSans-114"/>
      <use x="298.388672" xlink:href="#DejaVuSans-116"/>
      <use x="337.597656" xlink:href="#DejaVuSans-101"/>
      <use x="399.121094" xlink:href="#DejaVuSans-100"/>
      <use x="462.597656" xlink:href="#DejaVuSans-32"/>
      <use x="494.384766" xlink:href="#DejaVuSans-945"/>
      <use x="560.302734" xlink:href="#DejaVuSans-45"/>
      <use x="596.386719" xlink:href="#DejaVuSans-104"/>
      <use x="659.765625" xlink:href="#DejaVuSans-101"/>
      <use x="721.289062" xlink:href="#DejaVuSans-108"/>
      <use x="749.072266" xlink:href="#DejaVuSans-105"/>
      <use x="776.855469" xlink:href="#DejaVuSans-120"/>
     </g>
    </g>
    <g id="LineCollection_10">
     <path d="M 151.417969 16.936442 
L 151.417969 6.936442 
" style="fill:none;stroke:#3182bd;stroke-opacity:0.8;stroke-width:2;"/>
    </g>
    <g id="line2d_41">
     <g>
      <use style="fill:#3182bd;fill-opacity:0.8;stroke:#3182bd;stroke-opacity:0.8;" x="151.417969" xlink:href="#mbfc25997ed" y="16.936442"/>
     </g>
    </g>
    <g id="line2d_42">
     <g>
      <use style="fill:#3182bd;fill-opacity:0.8;stroke:#3182bd;stroke-opacity:0.8;" x="151.417969" xlink:href="#mbfc25997ed" y="6.936442"/>
     </g>
    </g>
    <g id="line2d_43">
     <path d="M 141.417969 11.936442 
L 161.417969 11.936442 
" style="fill:none;stroke:#3182bd;stroke-linecap:square;stroke-opacity:0.8;"/>
    </g>
    <g id="line2d_44">
     <g>
      <use style="fill:#3182bd;fill-opacity:0.8;stroke:#3182bd;stroke-opacity:0.8;" x="151.417969" xlink:href="#m451d0535db" y="11.936442"/>
     </g>
    </g>
    <g id="text_16">
     <!-- Left-twisted antip. β-strand -->
     <defs>
      <path d="M 9.8125 72.90625 
L 19.671875 72.90625 
L 19.671875 8.296875 
L 55.171875 8.296875 
L 55.171875 0 
L 9.8125 0 
z
" id="DejaVuSans-76"/>
      <path d="M 4.203125 54.6875 
L 13.1875 54.6875 
L 24.421875 12.015625 
L 35.59375 54.6875 
L 46.1875 54.6875 
L 57.421875 12.015625 
L 68.609375 54.6875 
L 77.59375 54.6875 
L 63.28125 0 
L 52.6875 0 
L 40.921875 44.828125 
L 29.109375 0 
L 18.5 0 
z
" id="DejaVuSans-119"/>
      <path d="M 18.109375 8.203125 
L 18.109375 -20.796875 
L 9.078125 -20.796875 
L 9.078125 54.6875 
L 18.109375 54.6875 
L 18.109375 46.390625 
Q 20.953125 51.265625 25.265625 53.625 
Q 29.59375 56 35.59375 56 
Q 45.5625 56 51.78125 48.09375 
Q 58.015625 40.1875 58.015625 27.296875 
Q 58.015625 14.40625 51.78125 6.484375 
Q 45.5625 -1.421875 35.59375 -1.421875 
Q 29.59375 -1.421875 25.265625 0.953125 
Q 20.953125 3.328125 18.109375 8.203125 
z
M 48.6875 27.296875 
Q 48.6875 37.203125 44.609375 42.84375 
Q 40.53125 48.484375 33.40625 48.484375 
Q 26.265625 48.484375 22.1875 42.84375 
Q 18.109375 37.203125 18.109375 27.296875 
Q 18.109375 17.390625 22.1875 11.75 
Q 26.265625 6.109375 33.40625 6.109375 
Q 40.53125 6.109375 44.609375 11.75 
Q 48.6875 17.390625 48.6875 27.296875 
z
" id="DejaVuSans-112"/>
      <path d="M 18.40625 3.375 
L 18.40625 -20.796875 
L 9.375 -20.796875 
L 9.375 54.34375 
Q 9.375 76.609375 30.171875 76.609375 
Q 51.375 76.609375 51.375 57.8125 
Q 51.375 44.4375 42.96875 39.546875 
Q 56.640625 35.15625 56.640625 22.125 
Q 56.640625 -1.03125 33.109375 -1.03125 
Q 22.75 -1.03125 18.40625 3.375 
z
M 18.40625 15.09375 
Q 23.828125 6.640625 33.453125 6.640625 
Q 47.515625 6.640625 47.515625 21.96875 
Q 47.515625 35.75 24.859375 34.671875 
L 24.859375 42.96875 
Q 42.578125 42.96875 42.578125 58.59375 
Q 42.578125 69.28125 31.15625 69.28125 
Q 18.40625 69.28125 18.40625 54.046875 
z
" id="DejaVuSans-946"/>
     </defs>
     <g transform="translate(169.417969 15.436442)scale(0.1 -0.1)">
      <use xlink:href="#DejaVuSans-76"/>
      <use x="53.962891" xlink:href="#DejaVuSans-101"/>
      <use x="115.486328" xlink:href="#DejaVuSans-102"/>
      <use x="148.941406" xlink:href="#DejaVuSans-116"/>
      <use x="188.150391" xlink:href="#DejaVuSans-45"/>
      <use x="224.234375" xlink:href="#DejaVuSans-116"/>
      <use x="263.443359" xlink:href="#DejaVuSans-119"/>
      <use x="345.230469" xlink:href="#DejaVuSans-105"/>
      <use x="373.013672" xlink:href="#DejaVuSans-115"/>
      <use x="425.113281" xlink:href="#DejaVuSans-116"/>
      <use x="464.322266" xlink:href="#DejaVuSans-101"/>
      <use x="525.845703" xlink:href="#DejaVuSans-100"/>
      <use x="589.322266" xlink:href="#DejaVuSans-32"/>
      <use x="621.109375" xlink:href="#DejaVuSans-97"/>
      <use x="682.388672" xlink:href="#DejaVuSans-110"/>
      <use x="745.767578" xlink:href="#DejaVuSans-116"/>
      <use x="784.976562" xlink:href="#DejaVuSans-105"/>
      <use x="812.759766" xlink:href="#DejaVuSans-112"/>
      <use x="876.236328" xlink:href="#DejaVuSans-46"/>
      <use x="908.023438" xlink:href="#DejaVuSans-32"/>
      <use x="939.810547" xlink:href="#DejaVuSans-946"/>
      <use x="1003.628906" xlink:href="#DejaVuSans-45"/>
      <use x="1039.712891" xlink:href="#DejaVuSans-115"/>
      <use x="1091.8125" xlink:href="#DejaVuSans-116"/>
      <use x="1131.021484" xlink:href="#DejaVuSans-114"/>
      <use x="1172.134766" xlink:href="#DejaVuSans-97"/>
      <use x="1233.414062" xlink:href="#DejaVuSans-110"/>
      <use x="1296.792969" xlink:href="#DejaVuSans-100"/>
     </g>
    </g>
    <g id="LineCollection_11">
     <path d="M 151.417969 38.677067 
L 151.417969 28.677067 
" style="fill:none;stroke:#6baed6;stroke-opacity:0.8;stroke-width:2;"/>
    </g>
    <g id="line2d_45">
     <g>
      <use style="fill:#6baed6;fill-opacity:0.8;stroke:#6baed6;stroke-opacity:0.8;" x="151.417969" xlink:href="#m5e67f300bb" y="38.677067"/>
     </g>
    </g>
    <g id="line2d_46">
     <g>
      <use style="fill:#6baed6;fill-opacity:0.8;stroke:#6baed6;stroke-opacity:0.8;" x="151.417969" xlink:href="#m5e67f300bb" y="28.677067"/>
     </g>
    </g>
    <g id="line2d_47">
     <path d="M 141.417969 33.677067 
L 161.417969 33.677067 
" style="fill:none;stroke:#6baed6;stroke-linecap:square;stroke-opacity:0.8;"/>
    </g>
    <g id="line2d_48">
     <g>
      <use style="fill:#6baed6;fill-opacity:0.8;stroke:#6baed6;stroke-opacity:0.8;" x="151.417969" xlink:href="#ma0d0369ba6" y="33.677067"/>
     </g>
    </g>
    <g id="text_17">
     <!-- Relaxed antip. β-strand -->
     <g transform="translate(169.417969 37.177067)scale(0.1 -0.1)">
      <use xlink:href="#DejaVuSans-82"/>
      <use x="64.982422" xlink:href="#DejaVuSans-101"/>
      <use x="126.505859" xlink:href="#DejaVuSans-108"/>
      <use x="154.289062" xlink:href="#DejaVuSans-97"/>
      <use x="215.568359" xlink:href="#DejaVuSans-120"/>
      <use x="271.623047" xlink:href="#DejaVuSans-101"/>
      <use x="333.146484" xlink:href="#DejaVuSans-100"/>
      <use x="396.623047" xlink:href="#DejaVuSans-32"/>
      <use x="428.410156" xlink:href="#DejaVuSans-97"/>
      <use x="489.689453" xlink:href="#DejaVuSans-110"/>
      <use x="553.068359" xlink:href="#DejaVuSans-116"/>
      <use x="592.277344" xlink:href="#DejaVuSans-105"/>
      <use x="620.060547" xlink:href="#DejaVuSans-112"/>
      <use x="683.537109" xlink:href="#DejaVuSans-46"/>
      <use x="715.324219" xlink:href="#DejaVuSans-32"/>
      <use x="747.111328" xlink:href="#DejaVuSans-946"/>
      <use x="810.929688" xlink:href="#DejaVuSans-45"/>
      <use x="847.013672" xlink:href="#DejaVuSans-115"/>
      <use x="899.113281" xlink:href="#DejaVuSans-116"/>
      <use x="938.322266" xlink:href="#DejaVuSans-114"/>
      <use x="979.435547" xlink:href="#DejaVuSans-97"/>
      <use x="1040.714844" xlink:href="#DejaVuSans-110"/>
      <use x="1104.09375" xlink:href="#DejaVuSans-100"/>
     </g>
    </g>
    <g id="LineCollection_12">
     <path d="M 335.439844 16.936442 
L 335.439844 6.936442 
" style="fill:none;stroke:#9ecae1;stroke-opacity:0.8;stroke-width:2;"/>
    </g>
    <g id="line2d_49">
     <g>
      <use style="fill:#9ecae1;fill-opacity:0.8;stroke:#9ecae1;stroke-opacity:0.8;" x="335.439844" xlink:href="#m7d855e755a" y="16.936442"/>
     </g>
    </g>
    <g id="line2d_50">
     <g>
      <use style="fill:#9ecae1;fill-opacity:0.8;stroke:#9ecae1;stroke-opacity:0.8;" x="335.439844" xlink:href="#m7d855e755a" y="6.936442"/>
     </g>
    </g>
    <g id="line2d_51">
     <path d="M 325.439844 11.936442 
L 345.439844 11.936442 
" style="fill:none;stroke:#9ecae1;stroke-linecap:square;stroke-opacity:0.8;"/>
    </g>
    <g id="line2d_52">
     <g>
      <use style="fill:#9ecae1;fill-opacity:0.8;stroke:#9ecae1;stroke-opacity:0.8;" x="335.439844" xlink:href="#mbe73de25f9" y="11.936442"/>
     </g>
    </g>
    <g id="text_18">
     <!-- Right-twisted antip. β-strand -->
     <g transform="translate(353.439844 15.436442)scale(0.1 -0.1)">
      <use xlink:href="#DejaVuSans-82"/>
      <use x="69.482422" xlink:href="#DejaVuSans-105"/>
      <use x="97.265625" xlink:href="#DejaVuSans-103"/>
      <use x="160.742188" xlink:href="#DejaVuSans-104"/>
      <use x="224.121094" xlink:href="#DejaVuSans-116"/>
      <use x="263.330078" xlink:href="#DejaVuSans-45"/>
      <use x="299.414062" xlink:href="#DejaVuSans-116"/>
      <use x="338.623047" xlink:href="#DejaVuSans-119"/>
      <use x="420.410156" xlink:href="#DejaVuSans-105"/>
      <use x="448.193359" xlink:href="#DejaVuSans-115"/>
      <use x="500.292969" xlink:href="#DejaVuSans-116"/>
      <use x="539.501953" xlink:href="#DejaVuSans-101"/>
      <use x="601.025391" xlink:href="#DejaVuSans-100"/>
      <use x="664.501953" xlink:href="#DejaVuSans-32"/>
      <use x="696.289062" xlink:href="#DejaVuSans-97"/>
      <use x="757.568359" xlink:href="#DejaVuSans-110"/>
      <use x="820.947266" xlink:href="#DejaVuSans-116"/>
      <use x="860.15625" xlink:href="#DejaVuSans-105"/>
      <use x="887.939453" xlink:href="#DejaVuSans-112"/>
      <use x="951.416016" xlink:href="#DejaVuSans-46"/>
      <use x="983.203125" xlink:href="#DejaVuSans-32"/>
      <use x="1014.990234" xlink:href="#DejaVuSans-946"/>
      <use x="1078.808594" xlink:href="#DejaVuSans-45"/>
      <use x="1114.892578" xlink:href="#DejaVuSans-115"/>
      <use x="1166.992188" xlink:href="#DejaVuSans-116"/>
      <use x="1206.201172" xlink:href="#DejaVuSans-114"/>
      <use x="1247.314453" xlink:href="#DejaVuSans-97"/>
      <use x="1308.59375" xlink:href="#DejaVuSans-110"/>
      <use x="1371.972656" xlink:href="#DejaVuSans-100"/>
     </g>
    </g>
    <g id="LineCollection_13">
     <path d="M 335.439844 38.677067 
L 335.439844 28.677067 
" style="fill:none;stroke:#756bb1;stroke-opacity:0.8;stroke-width:2;"/>
    </g>
    <g id="line2d_53">
     <g>
      <use style="fill:#756bb1;fill-opacity:0.8;stroke:#756bb1;stroke-opacity:0.8;" x="335.439844" xlink:href="#m39c704def3" y="38.677067"/>
     </g>
    </g>
    <g id="line2d_54">
     <g>
      <use style="fill:#756bb1;fill-opacity:0.8;stroke:#756bb1;stroke-opacity:0.8;" x="335.439844" xlink:href="#m39c704def3" y="28.677067"/>
     </g>
    </g>
    <g id="line2d_55">
     <path d="M 325.439844 33.677067 
L 345.439844 33.677067 
" style="fill:none;stroke:#756bb1;stroke-linecap:square;stroke-opacity:0.8;"/>
    </g>
    <g id="line2d_56">
     <g>
      <use style="fill:#756bb1;fill-opacity:0.8;stroke:#756bb1;stroke-opacity:0.8;" x="335.439844" xlink:href="#m0c878b954a" y="33.677067"/>
     </g>
    </g>
    <g id="text_19">
     <!-- Parallel β-strand -->
     <defs>
      <path d="M 19.671875 64.796875 
L 19.671875 37.40625 
L 32.078125 37.40625 
Q 38.96875 37.40625 42.71875 40.96875 
Q 46.484375 44.53125 46.484375 51.125 
Q 46.484375 57.671875 42.71875 61.234375 
Q 38.96875 64.796875 32.078125 64.796875 
z
M 9.8125 72.90625 
L 32.078125 72.90625 
Q 44.34375 72.90625 50.609375 67.359375 
Q 56.890625 61.8125 56.890625 51.125 
Q 56.890625 40.328125 50.609375 34.8125 
Q 44.34375 29.296875 32.078125 29.296875 
L 19.671875 29.296875 
L 19.671875 0 
L 9.8125 0 
z
" id="DejaVuSans-80"/>
     </defs>
     <g transform="translate(353.439844 37.177067)scale(0.1 -0.1)">
      <use xlink:href="#DejaVuSans-80"/>
      <use x="55.802734" xlink:href="#DejaVuSans-97"/>
      <use x="117.082031" xlink:href="#DejaVuSans-114"/>
      <use x="158.195312" xlink:href="#DejaVuSans-97"/>
      <use x="219.474609" xlink:href="#DejaVuSans-108"/>
      <use x="247.257812" xlink:href="#DejaVuSans-108"/>
      <use x="275.041016" xlink:href="#DejaVuSans-101"/>
      <use x="336.564453" xlink:href="#DejaVuSans-108"/>
      <use x="364.347656" xlink:href="#DejaVuSans-32"/>
      <use x="396.134766" xlink:href="#DejaVuSans-946"/>
      <use x="459.953125" xlink:href="#DejaVuSans-45"/>
      <use x="496.037109" xlink:href="#DejaVuSans-115"/>
      <use x="548.136719" xlink:href="#DejaVuSans-116"/>
      <use x="587.345703" xlink:href="#DejaVuSans-114"/>
      <use x="628.458984" xlink:href="#DejaVuSans-97"/>
      <use x="689.738281" xlink:href="#DejaVuSans-110"/>
      <use x="753.117188" xlink:href="#DejaVuSans-100"/>
     </g>
    </g>
    <g id="LineCollection_14">
     <path d="M 526.978906 16.936442 
L 526.978906 6.936442 
" style="fill:none;stroke:#31a354;stroke-opacity:0.8;stroke-width:2;"/>
    </g>
    <g id="line2d_57">
     <g>
      <use style="fill:#31a354;fill-opacity:0.8;stroke:#31a354;stroke-opacity:0.8;" x="526.978906" xlink:href="#m2963a2f161" y="16.936442"/>
     </g>
    </g>
    <g id="line2d_58">
     <g>
      <use style="fill:#31a354;fill-opacity:0.8;stroke:#31a354;stroke-opacity:0.8;" x="526.978906" xlink:href="#m2963a2f161" y="6.936442"/>
     </g>
    </g>
    <g id="line2d_59">
     <path d="M 516.978906 11.936442 
L 536.978906 11.936442 
" style="fill:none;stroke:#31a354;stroke-linecap:square;stroke-opacity:0.8;"/>
    </g>
    <g id="line2d_60">
     <g>
      <use style="fill:#31a354;fill-opacity:0.8;stroke:#31a354;stroke-opacity:0.8;" x="526.978906" xlink:href="#m3be4e9754f" y="11.936442"/>
     </g>
    </g>
    <g id="text_20">
     <!-- Turn -->
     <defs>
      <path d="M -0.296875 72.90625 
L 61.375 72.90625 
L 61.375 64.59375 
L 35.5 64.59375 
L 35.5 0 
L 25.59375 0 
L 25.59375 64.59375 
L -0.296875 64.59375 
z
" id="DejaVuSans-84"/>
     </defs>
     <g transform="translate(544.978906 15.436442)scale(0.1 -0.1)">
      <use xlink:href="#DejaVuSans-84"/>
      <use x="45.958984" xlink:href="#DejaVuSans-117"/>
      <use x="109.337891" xlink:href="#DejaVuSans-114"/>
      <use x="148.701172" xlink:href="#DejaVuSans-110"/>
     </g>
    </g>
   </g>
  </g>
  <g id="axes_3">
   <g id="patch_5">
    <path d="M 372.659341 248.225806 
L 491.340659 248.225806 
L 491.340659 52.258065 
L 372.659341 52.258065 
z
" style="fill:#ffffff;"/>
   </g>
   <g id="matplotlib.axis_3">
    <g id="xtick_3">
     <g id="line2d_61">
      <g>
       <use style="stroke:#000000;stroke-width:0.8;" x="402.32967" xlink:href="#m1bf6975417" y="248.225806"/>
      </g>
     </g>
     <g id="text_21">
      <!--  reference -->
      <g transform="translate(405.089045 306.144556)rotate(-90)scale(0.1 -0.1)">
       <use xlink:href="#DejaVuSans-32"/>
       <use x="31.787109" xlink:href="#DejaVuSans-114"/>
       <use x="70.650391" xlink:href="#DejaVuSans-101"/>
       <use x="132.173828" xlink:href="#DejaVuSans-102"/>
       <use x="167.378906" xlink:href="#DejaVuSans-101"/>
       <use x="228.902344" xlink:href="#DejaVuSans-114"/>
       <use x="267.765625" xlink:href="#DejaVuSans-101"/>
       <use x="329.289062" xlink:href="#DejaVuSans-110"/>
       <use x="392.667969" xlink:href="#DejaVuSans-99"/>
       <use x="447.648438" xlink:href="#DejaVuSans-101"/>
      </g>
     </g>
    </g>
    <g id="xtick_4">
     <g id="line2d_62">
      <g>
       <use style="stroke:#000000;stroke-width:0.8;" x="461.67033" xlink:href="#m1bf6975417" y="248.225806"/>
      </g>
     </g>
     <g id="text_22">
      <!--  design -->
      <g transform="translate(464.429705 291.578931)rotate(-90)scale(0.1 -0.1)">
       <use xlink:href="#DejaVuSans-32"/>
       <use x="31.787109" xlink:href="#DejaVuSans-100"/>
       <use x="95.263672" xlink:href="#DejaVuSans-101"/>
       <use x="156.787109" xlink:href="#DejaVuSans-115"/>
       <use x="208.886719" xlink:href="#DejaVuSans-105"/>
       <use x="236.669922" xlink:href="#DejaVuSans-103"/>
       <use x="300.146484" xlink:href="#DejaVuSans-110"/>
      </g>
     </g>
    </g>
    <g id="text_23">
     <!-- Alanine racemase (4beu) -->
     <defs>
      <path d="M 34.1875 63.1875 
L 20.796875 26.90625 
L 47.609375 26.90625 
z
M 28.609375 72.90625 
L 39.796875 72.90625 
L 67.578125 0 
L 57.328125 0 
L 50.6875 18.703125 
L 17.828125 18.703125 
L 11.1875 0 
L 0.78125 0 
z
" id="DejaVuSans-65"/>
      <path d="M 37.796875 64.3125 
L 12.890625 25.390625 
L 37.796875 25.390625 
z
M 35.203125 72.90625 
L 47.609375 72.90625 
L 47.609375 25.390625 
L 58.015625 25.390625 
L 58.015625 17.1875 
L 47.609375 17.1875 
L 47.609375 0 
L 37.796875 0 
L 37.796875 17.1875 
L 4.890625 17.1875 
L 4.890625 26.703125 
z
" id="DejaVuSans-52"/>
     </defs>
     <g transform="translate(369.082031 317.742994)scale(0.1 -0.1)">
      <use xlink:href="#DejaVuSans-65"/>
      <use x="68.408203" xlink:href="#DejaVuSans-108"/>
      <use x="96.191406" xlink:href="#DejaVuSans-97"/>
      <use x="157.470703" xlink:href="#DejaVuSans-110"/>
      <use x="220.849609" xlink:href="#DejaVuSans-105"/>
      <use x="248.632812" xlink:href="#DejaVuSans-110"/>
      <use x="312.011719" xlink:href="#DejaVuSans-101"/>
      <use x="373.535156" xlink:href="#DejaVuSans-32"/>
      <use x="405.322266" xlink:href="#DejaVuSans-114"/>
      <use x="446.435547" xlink:href="#DejaVuSans-97"/>
      <use x="507.714844" xlink:href="#DejaVuSans-99"/>
      <use x="562.695312" xlink:href="#DejaVuSans-101"/>
      <use x="624.21875" xlink:href="#DejaVuSans-109"/>
      <use x="721.630859" xlink:href="#DejaVuSans-97"/>
      <use x="782.910156" xlink:href="#DejaVuSans-115"/>
      <use x="835.009766" xlink:href="#DejaVuSans-101"/>
      <use x="896.533203" xlink:href="#DejaVuSans-32"/>
      <use x="928.320312" xlink:href="#DejaVuSans-40"/>
      <use x="967.333984" xlink:href="#DejaVuSans-52"/>
      <use x="1030.957031" xlink:href="#DejaVuSans-98"/>
      <use x="1094.433594" xlink:href="#DejaVuSans-101"/>
      <use x="1155.957031" xlink:href="#DejaVuSans-117"/>
      <use x="1219.335938" xlink:href="#DejaVuSans-41"/>
     </g>
    </g>
   </g>
   <g id="matplotlib.axis_4">
    <g id="ytick_10">
     <g id="line2d_63">
      <path clip-path="url(#p7d387a1f71)" d="M 372.659341 239.318182 
L 491.340659 239.318182 
" style="fill:none;stroke:#b0b0b0;stroke-dasharray:0.8,1.32;stroke-dashoffset:0;stroke-width:0.8;"/>
     </g>
     <g id="text_24">
      <!-- 0.000 -->
      <g transform="translate(337.031216 243.117401)scale(0.1 -0.1)">
       <use xlink:href="#DejaVuSans-48"/>
       <use x="63.623047" xlink:href="#DejaVuSans-46"/>
       <use x="95.410156" xlink:href="#DejaVuSans-48"/>
       <use x="159.033203" xlink:href="#DejaVuSans-48"/>
       <use x="222.65625" xlink:href="#DejaVuSans-48"/>
      </g>
     </g>
    </g>
    <g id="ytick_11">
     <g id="line2d_64">
      <path clip-path="url(#p7d387a1f71)" d="M 372.659341 217.04912 
L 491.340659 217.04912 
" style="fill:none;stroke:#b0b0b0;stroke-dasharray:0.8,1.32;stroke-dashoffset:0;stroke-width:0.8;"/>
     </g>
     <g id="text_25">
      <!-- 0.025 -->
      <g transform="translate(337.031216 220.848339)scale(0.1 -0.1)">
       <use xlink:href="#DejaVuSans-48"/>
       <use x="63.623047" xlink:href="#DejaVuSans-46"/>
       <use x="95.410156" xlink:href="#DejaVuSans-48"/>
       <use x="159.033203" xlink:href="#DejaVuSans-50"/>
       <use x="222.65625" xlink:href="#DejaVuSans-53"/>
      </g>
     </g>
    </g>
    <g id="ytick_12">
     <g id="line2d_65">
      <path clip-path="url(#p7d387a1f71)" d="M 372.659341 194.780059 
L 491.340659 194.780059 
" style="fill:none;stroke:#b0b0b0;stroke-dasharray:0.8,1.32;stroke-dashoffset:0;stroke-width:0.8;"/>
     </g>
     <g id="text_26">
      <!-- 0.050 -->
      <g transform="translate(337.031216 198.579277)scale(0.1 -0.1)">
       <use xlink:href="#DejaVuSans-48"/>
       <use x="63.623047" xlink:href="#DejaVuSans-46"/>
       <use x="95.410156" xlink:href="#DejaVuSans-48"/>
       <use x="159.033203" xlink:href="#DejaVuSans-53"/>
       <use x="222.65625" xlink:href="#DejaVuSans-48"/>
      </g>
     </g>
    </g>
    <g id="ytick_13">
     <g id="line2d_66">
      <path clip-path="url(#p7d387a1f71)" d="M 372.659341 172.510997 
L 491.340659 172.510997 
" style="fill:none;stroke:#b0b0b0;stroke-dasharray:0.8,1.32;stroke-dashoffset:0;stroke-width:0.8;"/>
     </g>
     <g id="text_27">
      <!-- 0.075 -->
      <g transform="translate(337.031216 176.310216)scale(0.1 -0.1)">
       <use xlink:href="#DejaVuSans-48"/>
       <use x="63.623047" xlink:href="#DejaVuSans-46"/>
       <use x="95.410156" xlink:href="#DejaVuSans-48"/>
       <use x="159.033203" xlink:href="#DejaVuSans-55"/>
       <use x="222.65625" xlink:href="#DejaVuSans-53"/>
      </g>
     </g>
    </g>
    <g id="ytick_14">
     <g id="line2d_67">
      <path clip-path="url(#p7d387a1f71)" d="M 372.659341 150.241935 
L 491.340659 150.241935 
" style="fill:none;stroke:#b0b0b0;stroke-dasharray:0.8,1.32;stroke-dashoffset:0;stroke-width:0.8;"/>
     </g>
     <g id="text_28">
      <!-- 0.100 -->
      <g transform="translate(337.031216 154.041154)scale(0.1 -0.1)">
       <use xlink:href="#DejaVuSans-48"/>
       <use x="63.623047" xlink:href="#DejaVuSans-46"/>
       <use x="95.410156" xlink:href="#DejaVuSans-49"/>
       <use x="159.033203" xlink:href="#DejaVuSans-48"/>
       <use x="222.65625" xlink:href="#DejaVuSans-48"/>
      </g>
     </g>
    </g>
    <g id="ytick_15">
     <g id="line2d_68">
      <path clip-path="url(#p7d387a1f71)" d="M 372.659341 127.972874 
L 491.340659 127.972874 
" style="fill:none;stroke:#b0b0b0;stroke-dasharray:0.8,1.32;stroke-dashoffset:0;stroke-width:0.8;"/>
     </g>
     <g id="text_29">
      <!-- 0.125 -->
      <g transform="translate(337.031216 131.772093)scale(0.1 -0.1)">
       <use xlink:href="#DejaVuSans-48"/>
       <use x="63.623047" xlink:href="#DejaVuSans-46"/>
       <use x="95.410156" xlink:href="#DejaVuSans-49"/>
       <use x="159.033203" xlink:href="#DejaVuSans-50"/>
       <use x="222.65625" xlink:href="#DejaVuSans-53"/>
      </g>
     </g>
    </g>
    <g id="ytick_16">
     <g id="line2d_69">
      <path clip-path="url(#p7d387a1f71)" d="M 372.659341 105.703812 
L 491.340659 105.703812 
" style="fill:none;stroke:#b0b0b0;stroke-dasharray:0.8,1.32;stroke-dashoffset:0;stroke-width:0.8;"/>
     </g>
     <g id="text_30">
      <!-- 0.150 -->
      <g transform="translate(337.031216 109.503031)scale(0.1 -0.1)">
       <use xlink:href="#DejaVuSans-48"/>
       <use x="63.623047" xlink:href="#DejaVuSans-46"/>
       <use x="95.410156" xlink:href="#DejaVuSans-49"/>
       <use x="159.033203" xlink:href="#DejaVuSans-53"/>
       <use x="222.65625" xlink:href="#DejaVuSans-48"/>
      </g>
     </g>
    </g>
    <g id="ytick_17">
     <g id="line2d_70">
      <path clip-path="url(#p7d387a1f71)" d="M 372.659341 83.434751 
L 491.340659 83.434751 
" style="fill:none;stroke:#b0b0b0;stroke-dasharray:0.8,1.32;stroke-dashoffset:0;stroke-width:0.8;"/>
     </g>
     <g id="text_31">
      <!-- 0.175 -->
      <g transform="translate(337.031216 87.233969)scale(0.1 -0.1)">
       <use xlink:href="#DejaVuSans-48"/>
       <use x="63.623047" xlink:href="#DejaVuSans-46"/>
       <use x="95.410156" xlink:href="#DejaVuSans-49"/>
       <use x="159.033203" xlink:href="#DejaVuSans-55"/>
       <use x="222.65625" xlink:href="#DejaVuSans-53"/>
      </g>
     </g>
    </g>
    <g id="ytick_18">
     <g id="line2d_71">
      <path clip-path="url(#p7d387a1f71)" d="M 372.659341 61.165689 
L 491.340659 61.165689 
" style="fill:none;stroke:#b0b0b0;stroke-dasharray:0.8,1.32;stroke-dashoffset:0;stroke-width:0.8;"/>
     </g>
     <g id="text_32">
      <!-- 0.200 -->
      <g transform="translate(337.031216 64.964908)scale(0.1 -0.1)">
       <use xlink:href="#DejaVuSans-48"/>
       <use x="63.623047" xlink:href="#DejaVuSans-46"/>
       <use x="95.410156" xlink:href="#DejaVuSans-50"/>
       <use x="159.033203" xlink:href="#DejaVuSans-48"/>
       <use x="222.65625" xlink:href="#DejaVuSans-48"/>
      </g>
     </g>
    </g>
    <g id="text_33">
     <!-- Fraction -->
     <g transform="translate(330.951528 170.20131)rotate(-90)scale(0.1 -0.1)">
      <use xlink:href="#DejaVuSans-70"/>
      <use x="50.269531" xlink:href="#DejaVuSans-114"/>
      <use x="91.382812" xlink:href="#DejaVuSans-97"/>
      <use x="152.662109" xlink:href="#DejaVuSans-99"/>
      <use x="207.642578" xlink:href="#DejaVuSans-116"/>
      <use x="246.851562" xlink:href="#DejaVuSans-105"/>
      <use x="274.634766" xlink:href="#DejaVuSans-111"/>
      <use x="335.816406" xlink:href="#DejaVuSans-110"/>
     </g>
    </g>
   </g>
   <g id="LineCollection_15"/>
   <g id="LineCollection_16"/>
   <g id="LineCollection_17"/>
   <g id="LineCollection_18"/>
   <g id="LineCollection_19"/>
   <g id="LineCollection_20"/>
   <g id="LineCollection_21"/>
   <g id="line2d_72">
    <g clip-path="url(#p7d387a1f71)">
     <use style="fill:#e6550d;fill-opacity:0.8;stroke:#e6550d;stroke-opacity:0.8;" x="0" xlink:href="#mb83b39c14a" y="0"/>
    </g>
   </g>
   <g id="line2d_73">
    <g clip-path="url(#p7d387a1f71)">
     <use style="fill:#e6550d;fill-opacity:0.8;stroke:#e6550d;stroke-opacity:0.8;" x="0" xlink:href="#mb83b39c14a" y="0"/>
    </g>
   </g>
   <g id="line2d_74">
    <g clip-path="url(#p7d387a1f71)">
     <use style="fill:#fd8d3c;fill-opacity:0.8;stroke:#fd8d3c;stroke-opacity:0.8;" x="0" xlink:href="#mdfb092f779" y="0"/>
    </g>
   </g>
   <g id="line2d_75">
    <g clip-path="url(#p7d387a1f71)">
     <use style="fill:#fd8d3c;fill-opacity:0.8;stroke:#fd8d3c;stroke-opacity:0.8;" x="0" xlink:href="#mdfb092f779" y="0"/>
    </g>
   </g>
   <g id="line2d_76">
    <g clip-path="url(#p7d387a1f71)">
     <use style="fill:#3182bd;fill-opacity:0.8;stroke:#3182bd;stroke-opacity:0.8;" x="0" xlink:href="#mbfc25997ed" y="0"/>
    </g>
   </g>
   <g id="line2d_77">
    <g clip-path="url(#p7d387a1f71)">
     <use style="fill:#3182bd;fill-opacity:0.8;stroke:#3182bd;stroke-opacity:0.8;" x="0" xlink:href="#mbfc25997ed" y="0"/>
    </g>
   </g>
   <g id="line2d_78">
    <g clip-path="url(#p7d387a1f71)">
     <use style="fill:#6baed6;fill-opacity:0.8;stroke:#6baed6;stroke-opacity:0.8;" x="0" xlink:href="#m5e67f300bb" y="0"/>
    </g>
   </g>
   <g id="line2d_79">
    <g clip-path="url(#p7d387a1f71)">
     <use style="fill:#6baed6;fill-opacity:0.8;stroke:#6baed6;stroke-opacity:0.8;" x="0" xlink:href="#m5e67f300bb" y="0"/>
    </g>
   </g>
   <g id="line2d_80">
    <g clip-path="url(#p7d387a1f71)">
     <use style="fill:#9ecae1;fill-opacity:0.8;stroke:#9ecae1;stroke-opacity:0.8;" x="0" xlink:href="#m7d855e755a" y="0"/>
    </g>
   </g>
   <g id="line2d_81">
    <g clip-path="url(#p7d387a1f71)">
     <use style="fill:#9ecae1;fill-opacity:0.8;stroke:#9ecae1;stroke-opacity:0.8;" x="0" xlink:href="#m7d855e755a" y="0"/>
    </g>
   </g>
   <g id="line2d_82">
    <g clip-path="url(#p7d387a1f71)">
     <use style="fill:#756bb1;fill-opacity:0.8;stroke:#756bb1;stroke-opacity:0.8;" x="0" xlink:href="#m39c704def3" y="0"/>
    </g>
   </g>
   <g id="line2d_83">
    <g clip-path="url(#p7d387a1f71)">
     <use style="fill:#756bb1;fill-opacity:0.8;stroke:#756bb1;stroke-opacity:0.8;" x="0" xlink:href="#m39c704def3" y="0"/>
    </g>
   </g>
   <g id="line2d_84">
    <g clip-path="url(#p7d387a1f71)">
     <use style="fill:#31a354;fill-opacity:0.8;stroke:#31a354;stroke-opacity:0.8;" x="0" xlink:href="#m2963a2f161" y="0"/>
    </g>
   </g>
   <g id="line2d_85">
    <g clip-path="url(#p7d387a1f71)">
     <use style="fill:#31a354;fill-opacity:0.8;stroke:#31a354;stroke-opacity:0.8;" x="0" xlink:href="#m2963a2f161" y="0"/>
    </g>
   </g>
   <g id="line2d_86">
    <path clip-path="url(#p7d387a1f71)" d="M 402.32967 147.925953 
L 461.67033 168.146261 
" style="fill:none;stroke:#e6550d;stroke-linecap:square;stroke-opacity:0.8;"/>
    <g clip-path="url(#p7d387a1f71)">
     <use style="fill:#e6550d;fill-opacity:0.8;stroke:#e6550d;stroke-opacity:0.8;" x="402.32967" xlink:href="#mda14a7b57c" y="147.925953"/>
     <use style="fill:#e6550d;fill-opacity:0.8;stroke:#e6550d;stroke-opacity:0.8;" x="461.67033" xlink:href="#mda14a7b57c" y="168.146261"/>
    </g>
   </g>
   <g id="line2d_87">
    <path clip-path="url(#p7d387a1f71)" d="M 402.32967 187.38673 
L 461.67033 163.157991 
" style="fill:none;stroke:#fd8d3c;stroke-linecap:square;stroke-opacity:0.8;"/>
    <g clip-path="url(#p7d387a1f71)">
     <use style="fill:#fd8d3c;fill-opacity:0.8;stroke:#fd8d3c;stroke-opacity:0.8;" x="402.32967" xlink:href="#mb459e1bb6a" y="187.38673"/>
     <use style="fill:#fd8d3c;fill-opacity:0.8;stroke:#fd8d3c;stroke-opacity:0.8;" x="461.67033" xlink:href="#mb459e1bb6a" y="163.157991"/>
    </g>
   </g>
   <g id="line2d_88">
    <path clip-path="url(#p7d387a1f71)" d="M 402.32967 181.596774 
L 461.67033 222.571848 
" style="fill:none;stroke:#3182bd;stroke-linecap:square;stroke-opacity:0.8;"/>
    <g clip-path="url(#p7d387a1f71)">
     <use style="fill:#3182bd;fill-opacity:0.8;stroke:#3182bd;stroke-opacity:0.8;" x="402.32967" xlink:href="#m451d0535db" y="181.596774"/>
     <use style="fill:#3182bd;fill-opacity:0.8;stroke:#3182bd;stroke-opacity:0.8;" x="461.67033" xlink:href="#m451d0535db" y="222.571848"/>
    </g>
   </g>
   <g id="line2d_89">
    <path clip-path="url(#p7d387a1f71)" d="M 402.32967 130.19978 
L 461.67033 164.494135 
" style="fill:none;stroke:#6baed6;stroke-linecap:square;stroke-opacity:0.8;"/>
    <g clip-path="url(#p7d387a1f71)">
     <use style="fill:#6baed6;fill-opacity:0.8;stroke:#6baed6;stroke-opacity:0.8;" x="402.32967" xlink:href="#ma0d0369ba6" y="130.19978"/>
     <use style="fill:#6baed6;fill-opacity:0.8;stroke:#6baed6;stroke-opacity:0.8;" x="461.67033" xlink:href="#ma0d0369ba6" y="164.494135"/>
    </g>
   </g>
   <g id="line2d_90">
    <path clip-path="url(#p7d387a1f71)" d="M 402.32967 152.468842 
L 461.67033 148.193182 
" style="fill:none;stroke:#9ecae1;stroke-linecap:square;stroke-opacity:0.8;"/>
    <g clip-path="url(#p7d387a1f71)">
     <use style="fill:#9ecae1;fill-opacity:0.8;stroke:#9ecae1;stroke-opacity:0.8;" x="402.32967" xlink:href="#mbe73de25f9" y="152.468842"/>
     <use style="fill:#9ecae1;fill-opacity:0.8;stroke:#9ecae1;stroke-opacity:0.8;" x="461.67033" xlink:href="#mbe73de25f9" y="148.193182"/>
    </g>
   </g>
   <g id="line2d_91">
    <path clip-path="url(#p7d387a1f71)" d="M 402.32967 201.193548 
L 461.67033 239.318182 
" style="fill:none;stroke:#756bb1;stroke-linecap:square;stroke-opacity:0.8;"/>
    <g clip-path="url(#p7d387a1f71)">
     <use style="fill:#756bb1;fill-opacity:0.8;stroke:#756bb1;stroke-opacity:0.8;" x="402.32967" xlink:href="#m0c878b954a" y="201.193548"/>
     <use style="fill:#756bb1;fill-opacity:0.8;stroke:#756bb1;stroke-opacity:0.8;" x="461.67033" xlink:href="#m0c878b954a" y="239.318182"/>
    </g>
   </g>
   <g id="line2d_92">
    <path clip-path="url(#p7d387a1f71)" d="M 402.32967 126.013196 
L 461.67033 88.868402 
" style="fill:none;stroke:#31a354;stroke-linecap:square;stroke-opacity:0.8;"/>
    <g clip-path="url(#p7d387a1f71)">
     <use style="fill:#31a354;fill-opacity:0.8;stroke:#31a354;stroke-opacity:0.8;" x="402.32967" xlink:href="#m3be4e9754f" y="126.013196"/>
     <use style="fill:#31a354;fill-opacity:0.8;stroke:#31a354;stroke-opacity:0.8;" x="461.67033" xlink:href="#m3be4e9754f" y="88.868402"/>
    </g>
   </g>
   <g id="patch_6">
    <path d="M 372.659341 248.225806 
L 491.340659 248.225806 
" style="fill:none;stroke:#000000;stroke-linecap:square;stroke-linejoin:miter;stroke-width:0.8;"/>
   </g>
  </g>
 </g>
 <defs>
  <clipPath id="pd47e5bbdd8">
   <rect height="195.967742" width="118.681319" x="124.21978" y="52.258065"/>
  </clipPath>
  <clipPath id="p7d387a1f71">
   <rect height="195.967742" width="118.681319" x="372.659341" y="52.258065"/>
  </clipPath>
 </defs>
</svg>
